<svg width="308" height="40" viewBox="0 0 308 40" fill="none" xmlns="http://www.w3.org/2000/svg">
<path d="M3.11222 15L0.288352 4.81818H1.90412L3.88778 12.7031H3.98224L6.04545 4.81818H7.64631L9.70952 12.7081H9.80398L11.7827 4.81818H13.4034L10.5746 15H9.02841L6.88565 7.37358H6.80611L4.66335 15H3.11222ZM16.1552 15.169C15.6713 15.169 15.2338 15.0795 14.8427 14.9006C14.4516 14.7183 14.1417 14.4548 13.913 14.1101C13.6876 13.7654 13.5749 13.3428 13.5749 12.8423C13.5749 12.4115 13.6578 12.0568 13.8235 11.7784C13.9892 11.5 14.2129 11.2796 14.4947 11.1172C14.7764 10.9548 15.0913 10.8321 15.4393 10.7493C15.7873 10.6664 16.1419 10.6035 16.5032 10.5604C16.9606 10.5073 17.3318 10.4643 17.6168 10.4311C17.9019 10.3946 18.109 10.3366 18.2383 10.2571C18.3675 10.1776 18.4322 10.0483 18.4322 9.86932V9.83452C18.4322 9.40033 18.3095 9.06392 18.0643 8.82528C17.8223 8.58665 17.4611 8.46733 16.9805 8.46733C16.48 8.46733 16.0856 8.57836 15.7972 8.80043C15.5122 9.01918 15.315 9.26278 15.2056 9.53125L13.8086 9.21307C13.9743 8.74905 14.2163 8.37453 14.5344 8.08949C14.8559 7.80114 15.2255 7.59233 15.6431 7.46307C16.0607 7.33049 16.4999 7.2642 16.9606 7.2642C17.2655 7.2642 17.5887 7.30066 17.93 7.37358C18.2747 7.44318 18.5962 7.57244 18.8945 7.76136C19.1961 7.95028 19.4431 8.22041 19.6353 8.57173C19.8275 8.91974 19.9237 9.37216 19.9237 9.92898V15H18.4719V13.956H18.4123C18.3162 14.1482 18.172 14.3371 17.9798 14.5227C17.7875 14.7083 17.5406 14.8625 17.239 14.9851C16.9374 15.1077 16.5761 15.169 16.1552 15.169ZM16.4783 13.9759C16.8893 13.9759 17.2406 13.8946 17.5323 13.7322C17.8273 13.5698 18.051 13.3577 18.2035 13.0959C18.3593 12.8307 18.4371 12.5473 18.4371 12.2457V11.2614C18.3841 11.3144 18.2814 11.3641 18.1289 11.4105C17.9798 11.4536 17.8091 11.4917 17.6168 11.5249C17.4246 11.5547 17.2373 11.5829 17.055 11.6094C16.8728 11.6326 16.7203 11.6525 16.5977 11.669C16.3093 11.7055 16.0458 11.7668 15.8072 11.853C15.5719 11.9392 15.3829 12.0634 15.2404 12.2259C15.1012 12.3849 15.0316 12.5971 15.0316 12.8622C15.0316 13.2301 15.1675 13.5085 15.4393 13.6974C15.7111 13.883 16.0574 13.9759 16.4783 13.9759ZM23.3901 4.81818V15H21.9036V4.81818H23.3901ZM26.8764 4.81818V15H25.3899V4.81818H26.8764ZM32.1674 15.1541C31.4151 15.1541 30.7671 14.9934 30.2235 14.6719C29.6833 14.3471 29.2657 13.8913 28.9707 13.3047C28.679 12.7147 28.5332 12.0237 28.5332 11.2315C28.5332 10.4493 28.679 9.75994 28.9707 9.16335C29.2657 8.56676 29.6767 8.10109 30.2037 7.76633C30.734 7.43158 31.3538 7.2642 32.063 7.2642C32.4939 7.2642 32.9115 7.33546 33.3159 7.47798C33.7202 7.6205 34.0832 7.84422 34.4047 8.14915C34.7261 8.45407 34.9797 8.85014 35.1653 9.33736C35.3509 9.82126 35.4437 10.4096 35.4437 11.1023V11.6293H29.3734V10.5156H33.987C33.987 10.1245 33.9075 9.77817 33.7484 9.47656C33.5893 9.17164 33.3656 8.93134 33.0772 8.75568C32.7922 8.58002 32.4574 8.49219 32.073 8.49219C31.6554 8.49219 31.2908 8.59493 30.9792 8.80043C30.671 9.0026 30.4324 9.26776 30.2633 9.59588C30.0976 9.92069 30.0147 10.2737 30.0147 10.6548V11.5249C30.0147 12.0353 30.1042 12.4695 30.2832 12.8274C30.4655 13.1854 30.719 13.4588 31.0439 13.6477C31.3687 13.8333 31.7482 13.9261 32.1824 13.9261C32.4641 13.9261 32.7209 13.8864 32.9529 13.8068C33.185 13.724 33.3855 13.6013 33.5545 13.4389C33.7235 13.2765 33.8528 13.076 33.9423 12.8374L35.3493 13.0909C35.2366 13.5052 35.0344 13.8681 34.7427 14.1797C34.4544 14.4879 34.0914 14.7282 33.6539 14.9006C33.2198 15.0696 32.7243 15.1541 32.1674 15.1541ZM40.6577 7.36364V8.55682H36.4865V7.36364H40.6577ZM37.6051 5.53409H39.0916V12.7578C39.0916 13.0462 39.1347 13.2633 39.2209 13.4091C39.3071 13.5516 39.4181 13.6494 39.554 13.7024C39.6932 13.7521 39.844 13.777 40.0064 13.777C40.1257 13.777 40.2301 13.7687 40.3196 13.7521C40.4091 13.7356 40.4787 13.7223 40.5284 13.7124L40.7969 14.9403C40.7107 14.9735 40.5881 15.0066 40.429 15.0398C40.2699 15.0762 40.071 15.0961 39.8324 15.0994C39.4413 15.1061 39.0767 15.0365 38.7386 14.8906C38.4006 14.7448 38.1271 14.5194 37.9183 14.2145C37.7095 13.9096 37.6051 13.5268 37.6051 13.0661V5.53409ZM46.1264 15V4.81818H47.6626V9.2429H52.7386V4.81818H54.2798V15H52.7386V10.5604H47.6626V15H46.1264ZM56.3977 15V7.36364H57.8842V15H56.3977ZM57.1484 6.18537C56.8899 6.18537 56.6679 6.09919 56.4822 5.92685C56.3 5.75118 56.2088 5.54238 56.2088 5.30043C56.2088 5.05516 56.3 4.84635 56.4822 4.67401C56.6679 4.49834 56.8899 4.41051 57.1484 4.41051C57.407 4.41051 57.6274 4.49834 57.8097 4.67401C57.9953 4.84635 58.0881 5.05516 58.0881 5.30043C58.0881 5.54238 57.9953 5.75118 57.8097 5.92685C57.6274 6.09919 57.407 6.18537 57.1484 6.18537ZM65.6064 9.22798L64.2591 9.46662C64.2027 9.29427 64.1132 9.13021 63.9906 8.97443C63.8713 8.81865 63.7089 8.69105 63.5034 8.59162C63.2979 8.49219 63.041 8.44247 62.7328 8.44247C62.3118 8.44247 61.9605 8.53693 61.6788 8.72585C61.3971 8.91146 61.2562 9.15175 61.2562 9.44673C61.2562 9.70194 61.3507 9.90743 61.5396 10.0632C61.7285 10.219 62.0334 10.3466 62.4544 10.446L63.6674 10.7244C64.3701 10.8868 64.8938 11.1371 65.2385 11.4751C65.5832 11.8132 65.7555 12.2524 65.7555 12.7926C65.7555 13.25 65.6229 13.6577 65.3578 14.0156C65.0959 14.3703 64.7297 14.6487 64.2591 14.8509C63.7917 15.053 63.2498 15.1541 62.6333 15.1541C61.7782 15.1541 61.0806 14.9718 60.5403 14.6072C60.0001 14.2393 59.6686 13.7173 59.546 13.0412L60.9828 12.8224C61.0723 13.197 61.2562 13.4804 61.5346 13.6726C61.813 13.8615 62.176 13.956 62.6234 13.956C63.1106 13.956 63.5001 13.8549 63.7917 13.6527C64.0834 13.4472 64.2292 13.197 64.2292 12.902C64.2292 12.6634 64.1397 12.4628 63.9608 12.3004C63.7851 12.138 63.515 12.0154 63.1504 11.9325L61.8578 11.6491C61.1452 11.4867 60.6182 11.2282 60.2768 10.8736C59.9387 10.5189 59.7697 10.0698 59.7697 9.52628C59.7697 9.07552 59.8957 8.68111 60.1475 8.34304C60.3994 8.00497 60.7475 7.74148 61.1916 7.55256C61.6357 7.36032 62.1445 7.2642 62.7179 7.2642C63.5431 7.2642 64.1928 7.44318 64.6667 7.80114C65.1407 8.15578 65.4539 8.63139 65.6064 9.22798ZM70.9545 7.36364V8.55682H66.7834V7.36364H70.9545ZM67.902 5.53409H69.3885V12.7578C69.3885 13.0462 69.4316 13.2633 69.5178 13.4091C69.6039 13.5516 69.715 13.6494 69.8509 13.7024C69.9901 13.7521 70.1409 13.777 70.3033 13.777C70.4226 13.777 70.527 13.7687 70.6165 13.7521C70.706 13.7356 70.7756 13.7223 70.8253 13.7124L71.0938 14.9403C71.0076 14.9735 70.8849 15.0066 70.7259 15.0398C70.5668 15.0762 70.3679 15.0961 70.1293 15.0994C69.7382 15.1061 69.3736 15.0365 69.0355 14.8906C68.6974 14.7448 68.424 14.5194 68.2152 14.2145C68.0064 13.9096 67.902 13.5268 67.902 13.0661V5.53409ZM75.7335 15.1541C75.0176 15.1541 74.3928 14.9901 73.8592 14.6619C73.3256 14.3338 72.9113 13.8748 72.6163 13.2848C72.3213 12.6948 72.1738 12.0054 72.1738 11.2166C72.1738 10.4245 72.3213 9.73177 72.6163 9.13849C72.9113 8.54522 73.3256 8.08452 73.8592 7.75639C74.3928 7.42827 75.0176 7.2642 75.7335 7.2642C76.4494 7.2642 77.0742 7.42827 77.6078 7.75639C78.1414 8.08452 78.5557 8.54522 78.8507 9.13849C79.1457 9.73177 79.2931 10.4245 79.2931 11.2166C79.2931 12.0054 79.1457 12.6948 78.8507 13.2848C78.5557 13.8748 78.1414 14.3338 77.6078 14.6619C77.0742 14.9901 76.4494 15.1541 75.7335 15.1541ZM75.7385 13.9062C76.2025 13.9062 76.5869 13.7836 76.8919 13.5384C77.1968 13.2931 77.4222 12.9666 77.568 12.5589C77.7172 12.1513 77.7917 11.7022 77.7917 11.2116C77.7917 10.7244 77.7172 10.277 77.568 9.86932C77.4222 9.45833 77.1968 9.12855 76.8919 8.87997C76.5869 8.63139 76.2025 8.5071 75.7385 8.5071C75.2711 8.5071 74.8833 8.63139 74.5751 8.87997C74.2702 9.12855 74.0431 9.45833 73.894 9.86932C73.7482 10.277 73.6752 10.7244 73.6752 11.2116C73.6752 11.7022 73.7482 12.1513 73.894 12.5589C74.0431 12.9666 74.2702 13.2931 74.5751 13.5384C74.8833 13.7836 75.2711 13.9062 75.7385 13.9062ZM80.9524 15V7.36364H82.3892V8.5767H82.4688C82.608 8.16572 82.8532 7.84257 83.2045 7.60724C83.5592 7.36861 83.9602 7.24929 84.4077 7.24929C84.5005 7.24929 84.6098 7.2526 84.7358 7.25923C84.8651 7.26586 84.9661 7.27415 85.0391 7.28409V8.70597C84.9794 8.68939 84.8733 8.67116 84.7209 8.65128C84.5684 8.62808 84.416 8.61648 84.2635 8.61648C83.9122 8.61648 83.599 8.69105 83.3239 8.8402C83.0521 8.98603 82.8366 9.18987 82.6776 9.4517C82.5185 9.71023 82.4389 10.0052 82.4389 10.3366V15H80.9524ZM87.4975 17.8636C87.2754 17.8636 87.0733 17.8454 86.891 17.8089C86.7087 17.7758 86.5728 17.7393 86.4833 17.6996L86.8413 16.4815C87.113 16.5545 87.355 16.5859 87.5671 16.576C87.7792 16.5661 87.9665 16.4865 88.1289 16.3374C88.2946 16.1882 88.4405 15.9446 88.5664 15.6065L88.7504 15.0994L85.9563 7.36364H87.5472L89.4812 13.2898H89.5607L91.4947 7.36364H93.0906L89.9435 16.0192C89.7977 16.4169 89.6121 16.7533 89.3867 17.0284C89.1613 17.3068 88.8929 17.5156 88.5813 17.6548C88.2698 17.794 87.9085 17.8636 87.4975 17.8636Z" fill="#344054"/>
<path d="M1.65057 24.8182L4.6733 33.3892H4.79261L7.81534 24.8182H9.10795L5.36932 35H4.09659L0.357955 24.8182H1.65057ZM13.0256 35.1591C12.2898 35.1591 11.6551 34.9967 11.1214 34.6719C10.5911 34.3438 10.1818 33.8864 9.89347 33.2997C9.60843 32.7098 9.46591 32.0237 9.46591 31.2415C9.46591 30.4593 9.60843 29.7699 9.89347 29.1733C10.1818 28.5734 10.5829 28.1061 11.0966 27.7713C11.6136 27.4332 12.2169 27.2642 12.9062 27.2642C13.304 27.2642 13.6967 27.3305 14.0845 27.4631C14.4723 27.5956 14.8253 27.8111 15.1435 28.1094C15.4616 28.4044 15.7152 28.7955 15.9041 29.2827C16.093 29.7699 16.1875 30.3698 16.1875 31.0824V31.5795H10.3011V30.5653H14.9943C14.9943 30.1345 14.9081 29.75 14.7358 29.4119C14.5668 29.0739 14.3248 28.8071 14.0099 28.6115C13.6984 28.416 13.3305 28.3182 12.9062 28.3182C12.4389 28.3182 12.0346 28.4342 11.6932 28.6662C11.3551 28.8949 11.0949 29.1932 10.9126 29.5611C10.7304 29.929 10.6392 30.3234 10.6392 30.7443V31.4205C10.6392 31.9972 10.7386 32.486 10.9375 32.8871C11.1397 33.2848 11.4197 33.5881 11.7777 33.7969C12.1357 34.0024 12.5516 34.1051 13.0256 34.1051C13.3338 34.1051 13.6122 34.062 13.8608 33.9759C14.1127 33.8864 14.3298 33.7538 14.5121 33.5781C14.6944 33.3991 14.8352 33.1771 14.9347 32.9119L16.0682 33.2301C15.9489 33.6146 15.7483 33.9527 15.4666 34.2443C15.1849 34.5327 14.8369 34.758 14.4226 34.9205C14.0083 35.0795 13.5426 35.1591 13.0256 35.1591ZM17.9723 35V27.3636H19.1058V28.517H19.1854C19.3246 28.1392 19.5765 27.8326 19.9411 27.5973C20.3056 27.362 20.7166 27.2443 21.174 27.2443C21.2602 27.2443 21.3679 27.246 21.4972 27.2493C21.6264 27.2526 21.7242 27.2576 21.7905 27.2642V28.4574C21.7507 28.4474 21.6596 28.4325 21.517 28.4126C21.3778 28.3894 21.2304 28.3778 21.0746 28.3778C20.7034 28.3778 20.3719 28.4557 20.0803 28.6115C19.7919 28.764 19.5632 28.9761 19.3942 29.2479C19.2285 29.5163 19.1456 29.8229 19.1456 30.1676V35H17.9723ZM25.4284 35.179C24.9445 35.179 24.5054 35.0878 24.111 34.9055C23.7166 34.7199 23.4033 34.4531 23.1713 34.1051C22.9393 33.7538 22.8233 33.3295 22.8233 32.8324C22.8233 32.3949 22.9095 32.0402 23.0819 31.7685C23.2542 31.4934 23.4846 31.2779 23.7729 31.1222C24.0613 30.9664 24.3794 30.8504 24.7275 30.7741C25.0788 30.6946 25.4318 30.6316 25.7864 30.5852C26.2504 30.5256 26.6266 30.4808 26.915 30.451C27.2066 30.4179 27.4187 30.3632 27.5513 30.2869C27.6872 30.2107 27.7551 30.0781 27.7551 29.8892V29.8494C27.7551 29.3589 27.6209 28.9777 27.3525 28.706C27.0873 28.4342 26.6846 28.2983 26.1444 28.2983C25.5842 28.2983 25.1451 28.4209 24.8269 28.6662C24.5087 28.9115 24.285 29.1733 24.1557 29.4517L23.0421 29.054C23.2409 28.59 23.5061 28.2287 23.8375 27.9702C24.1723 27.7083 24.5369 27.526 24.9313 27.4233C25.329 27.3172 25.7201 27.2642 26.1046 27.2642C26.3498 27.2642 26.6316 27.294 26.9498 27.3537C27.2712 27.41 27.5811 27.5277 27.8794 27.7067C28.181 27.8857 28.4313 28.1558 28.6301 28.517C28.829 28.8783 28.9284 29.3622 28.9284 29.9688V35H27.7551V33.9659H27.6955C27.6159 34.1316 27.4834 34.3089 27.2978 34.4979C27.1122 34.6868 26.8652 34.8475 26.557 34.9801C26.2488 35.1127 25.8726 35.179 25.4284 35.179ZM25.6074 34.125C26.0714 34.125 26.4625 34.0339 26.7807 33.8516C27.1022 33.6693 27.3442 33.4339 27.5066 33.1456C27.6723 32.8572 27.7551 32.554 27.7551 32.2358V31.1619C27.7054 31.2216 27.5961 31.2763 27.427 31.326C27.2613 31.3724 27.0691 31.4138 26.8503 31.4503C26.6349 31.4834 26.4244 31.5133 26.2189 31.5398C26.0167 31.563 25.8527 31.5829 25.7267 31.5994C25.4218 31.6392 25.1368 31.7038 24.8716 31.7933C24.6098 31.8795 24.3977 32.0104 24.2353 32.1861C24.0762 32.3584 23.9966 32.5937 23.9966 32.892C23.9966 33.2997 24.1474 33.608 24.449 33.8168C24.754 34.0223 25.1401 34.125 25.6074 34.125ZM34.4705 27.3636V28.358H30.354V27.3636H34.4705ZM31.587 35V26.3097C31.587 25.8722 31.6897 25.5076 31.8952 25.2159C32.1007 24.9242 32.3675 24.7055 32.6957 24.5597C33.0238 24.4138 33.3701 24.3409 33.7347 24.3409C34.0231 24.3409 34.2584 24.3641 34.4407 24.4105C34.623 24.4569 34.7589 24.5 34.8484 24.5398L34.5103 25.554C34.4506 25.5341 34.3678 25.5092 34.2617 25.4794C34.159 25.4496 34.0231 25.4347 33.854 25.4347C33.4663 25.4347 33.1862 25.5324 33.0138 25.728C32.8448 25.9235 32.7603 26.2102 32.7603 26.5881V35H31.587ZM36.1149 35V27.3636H37.2882V35H36.1149ZM36.7115 26.0909C36.4828 26.0909 36.2856 26.013 36.1199 25.8572C35.9574 25.7015 35.8762 25.5142 35.8762 25.2955C35.8762 25.0767 35.9574 24.8894 36.1199 24.7337C36.2856 24.5779 36.4828 24.5 36.7115 24.5C36.9402 24.5 37.1357 24.5779 37.2981 24.7337C37.4638 24.8894 37.5467 25.0767 37.5467 25.2955C37.5467 25.5142 37.4638 25.7015 37.2981 25.8572C37.1357 26.013 36.9402 26.0909 36.7115 26.0909ZM48.1871 31.8778V27.3636H49.3604V35H48.1871V33.7074H48.1076C47.9286 34.0952 47.6502 34.425 47.2724 34.6967C46.8945 34.9652 46.4173 35.0994 45.8406 35.0994C45.3633 35.0994 44.939 34.995 44.5678 34.7862C44.1966 34.5741 43.9049 34.2559 43.6928 33.8317C43.4807 33.4041 43.3746 32.8655 43.3746 32.2159V27.3636H44.5479V32.1364C44.5479 32.6932 44.7037 33.1373 45.0153 33.4688C45.3301 33.8002 45.7312 33.9659 46.2184 33.9659C46.5101 33.9659 46.8067 33.8913 47.1083 33.7422C47.4132 33.593 47.6684 33.3643 47.8739 33.0561C48.0827 32.7479 48.1871 32.3551 48.1871 31.8778ZM56.9185 29.0739L55.8645 29.3722C55.7982 29.1965 55.7005 29.0258 55.5712 28.8601C55.4453 28.6911 55.2729 28.5518 55.0542 28.4425C54.8354 28.3331 54.5553 28.2784 54.214 28.2784C53.7466 28.2784 53.3572 28.3861 53.0456 28.6016C52.7374 28.8137 52.5833 29.0838 52.5833 29.4119C52.5833 29.7036 52.6893 29.9339 52.9015 30.103C53.1136 30.272 53.445 30.4129 53.8958 30.5256L55.0293 30.804C55.7121 30.9697 56.2208 31.2232 56.5556 31.5646C56.8903 31.9027 57.0577 32.3385 57.0577 32.8722C57.0577 33.3097 56.9318 33.7008 56.6799 34.0455C56.4313 34.3902 56.0833 34.6619 55.6358 34.8608C55.1884 35.0597 54.668 35.1591 54.0748 35.1591C53.2959 35.1591 52.6512 34.9901 52.1408 34.652C51.6304 34.3139 51.3072 33.8201 51.1713 33.1705L52.285 32.892C52.391 33.303 52.5916 33.6113 52.8865 33.8168C53.1848 34.0223 53.5743 34.125 54.0549 34.125C54.6017 34.125 55.0359 34.009 55.3574 33.777C55.6822 33.5417 55.8446 33.2599 55.8446 32.9318C55.8446 32.6667 55.7518 32.4446 55.5662 32.2656C55.3806 32.0833 55.0956 31.9474 54.7111 31.858L53.4384 31.5597C52.7391 31.3939 52.2253 31.1371 51.8972 30.7891C51.5724 30.4377 51.41 29.9986 51.41 29.4716C51.41 29.0407 51.531 28.6596 51.7729 28.3281C52.0182 27.9967 52.3513 27.7365 52.7722 27.5476C53.1964 27.3587 53.677 27.2642 54.214 27.2642C54.9696 27.2642 55.5629 27.4299 55.9938 27.7614C56.428 28.0928 56.7362 28.5303 56.9185 29.0739ZM62.0256 35.1591C61.2898 35.1591 60.6551 34.9967 60.1214 34.6719C59.5911 34.3438 59.1818 33.8864 58.8935 33.2997C58.6084 32.7098 58.4659 32.0237 58.4659 31.2415C58.4659 30.4593 58.6084 29.7699 58.8935 29.1733C59.1818 28.5734 59.5829 28.1061 60.0966 27.7713C60.6136 27.4332 61.2169 27.2642 61.9062 27.2642C62.304 27.2642 62.6967 27.3305 63.0845 27.4631C63.4723 27.5956 63.8253 27.8111 64.1435 28.1094C64.4616 28.4044 64.7152 28.7955 64.9041 29.2827C65.093 29.7699 65.1875 30.3698 65.1875 31.0824V31.5795H59.3011V30.5653H63.9943C63.9943 30.1345 63.9081 29.75 63.7358 29.4119C63.5668 29.0739 63.3248 28.8071 63.0099 28.6115C62.6984 28.416 62.3305 28.3182 61.9062 28.3182C61.4389 28.3182 61.0346 28.4342 60.6932 28.6662C60.3551 28.8949 60.0949 29.1932 59.9126 29.5611C59.7304 29.929 59.6392 30.3234 59.6392 30.7443V31.4205C59.6392 31.9972 59.7386 32.486 59.9375 32.8871C60.1397 33.2848 60.4197 33.5881 60.7777 33.7969C61.1357 34.0024 61.5516 34.1051 62.0256 34.1051C62.3338 34.1051 62.6122 34.062 62.8608 33.9759C63.1127 33.8864 63.3298 33.7538 63.5121 33.5781C63.6944 33.3991 63.8352 33.1771 63.9347 32.9119L65.0682 33.2301C64.9489 33.6146 64.7483 33.9527 64.4666 34.2443C64.1849 34.5327 63.8369 34.758 63.4226 34.9205C63.0083 35.0795 62.5426 35.1591 62.0256 35.1591ZM72.3814 29.0739L71.3274 29.3722C71.2611 29.1965 71.1634 29.0258 71.0341 28.8601C70.9081 28.6911 70.7358 28.5518 70.517 28.4425C70.2983 28.3331 70.0182 28.2784 69.6768 28.2784C69.2095 28.2784 68.8201 28.3861 68.5085 28.6016C68.2003 28.8137 68.0462 29.0838 68.0462 29.4119C68.0462 29.7036 68.1522 29.9339 68.3643 30.103C68.5765 30.272 68.9079 30.4129 69.3587 30.5256L70.4922 30.804C71.175 30.9697 71.6837 31.2232 72.0185 31.5646C72.3532 31.9027 72.5206 32.3385 72.5206 32.8722C72.5206 33.3097 72.3946 33.7008 72.1428 34.0455C71.8942 34.3902 71.5462 34.6619 71.0987 34.8608C70.6513 35.0597 70.1309 35.1591 69.5376 35.1591C68.7588 35.1591 68.1141 34.9901 67.6037 34.652C67.0933 34.3139 66.7701 33.8201 66.6342 33.1705L67.7479 32.892C67.8539 33.303 68.0545 33.6113 68.3494 33.8168C68.6477 34.0223 69.0372 34.125 69.5178 34.125C70.0646 34.125 70.4988 34.009 70.8203 33.777C71.1451 33.5417 71.3075 33.2599 71.3075 32.9318C71.3075 32.6667 71.2147 32.4446 71.0291 32.2656C70.8435 32.0833 70.5585 31.9474 70.174 31.858L68.9013 31.5597C68.2019 31.3939 67.6882 31.1371 67.3601 30.7891C67.0353 30.4377 66.8729 29.9986 66.8729 29.4716C66.8729 29.0407 66.9938 28.6596 67.2358 28.3281C67.4811 27.9967 67.8142 27.7365 68.2351 27.5476C68.6593 27.3587 69.1399 27.2642 69.6768 27.2642C70.4325 27.2642 71.0258 27.4299 71.4567 27.7614C71.8909 28.0928 72.1991 28.5303 72.3814 29.0739ZM81.3265 35.1591C80.6371 35.1591 80.0323 34.995 79.5119 34.6669C78.9949 34.3388 78.5905 33.8797 78.2988 33.2898C78.0105 32.6998 77.8663 32.0104 77.8663 31.2216C77.8663 30.4261 78.0105 29.7318 78.2988 29.1385C78.5905 28.5452 78.9949 28.0845 79.5119 27.7564C80.0323 27.4283 80.6371 27.2642 81.3265 27.2642C82.0159 27.2642 82.6191 27.4283 83.1362 27.7564C83.6565 28.0845 84.0609 28.5452 84.3493 29.1385C84.6409 29.7318 84.7868 30.4261 84.7868 31.2216C84.7868 32.0104 84.6409 32.6998 84.3493 33.2898C84.0609 33.8797 83.6565 34.3388 83.1362 34.6669C82.6191 34.995 82.0159 35.1591 81.3265 35.1591ZM81.3265 34.1051C81.8502 34.1051 82.2811 33.9709 82.6191 33.7024C82.9572 33.4339 83.2074 33.081 83.3699 32.6435C83.5323 32.206 83.6135 31.732 83.6135 31.2216C83.6135 30.7112 83.5323 30.2356 83.3699 29.7947C83.2074 29.3539 82.9572 28.9976 82.6191 28.7259C82.2811 28.4541 81.8502 28.3182 81.3265 28.3182C80.8029 28.3182 80.372 28.4541 80.0339 28.7259C79.6958 28.9976 79.4456 29.3539 79.2832 29.7947C79.1208 30.2356 79.0396 30.7112 79.0396 31.2216C79.0396 31.732 79.1208 32.206 79.2832 32.6435C79.4456 33.081 79.6958 33.4339 80.0339 33.7024C80.372 33.9709 80.8029 34.1051 81.3265 34.1051ZM87.7511 30.4062V35H86.5778V27.3636H87.7113V28.5568H87.8107C87.9897 28.169 88.2615 27.8575 88.6261 27.6222C88.9906 27.3835 89.4613 27.2642 90.038 27.2642C90.555 27.2642 91.0075 27.3703 91.3952 27.5824C91.783 27.7912 92.0846 28.1094 92.3001 28.5369C92.5155 28.9612 92.6232 29.4981 92.6232 30.1477V35H91.4499V30.2273C91.4499 29.6274 91.2942 29.16 90.9826 28.8253C90.671 28.4872 90.2435 28.3182 89.6999 28.3182C89.3254 28.3182 88.9906 28.3994 88.6957 28.5618C88.404 28.7242 88.1737 28.9612 88.0046 29.2727C87.8356 29.5843 87.7511 29.9621 87.7511 30.4062ZM99.1422 30.0881V31.1818H94.6877V30.0881H99.1422ZM104.309 35.1591C103.593 35.1591 102.977 34.9901 102.46 34.652C101.942 34.3139 101.545 33.8482 101.266 33.255C100.988 32.6617 100.849 31.9839 100.849 31.2216C100.849 30.446 100.991 29.7616 101.276 29.1683C101.565 28.5717 101.966 28.1061 102.479 27.7713C102.996 27.4332 103.6 27.2642 104.289 27.2642C104.826 27.2642 105.31 27.3636 105.741 27.5625C106.172 27.7614 106.525 28.0398 106.8 28.3977C107.075 28.7557 107.246 29.1733 107.312 29.6506H106.138C106.049 29.3026 105.85 28.9943 105.542 28.7259C105.237 28.4541 104.826 28.3182 104.309 28.3182C103.852 28.3182 103.451 28.4375 103.106 28.6761C102.764 28.9115 102.498 29.2446 102.305 29.6754C102.116 30.103 102.022 30.6051 102.022 31.1818C102.022 31.7718 102.115 32.2855 102.3 32.723C102.489 33.1605 102.754 33.5002 103.096 33.7422C103.441 33.9841 103.845 34.1051 104.309 34.1051C104.614 34.1051 104.891 34.0521 105.139 33.946C105.388 33.84 105.598 33.6875 105.771 33.4886C105.943 33.2898 106.066 33.0511 106.138 32.7727H107.312C107.246 33.2235 107.081 33.6295 106.82 33.9908C106.561 34.3487 106.218 34.6338 105.79 34.8459C105.366 35.0547 104.872 35.1591 104.309 35.1591ZM110.2 30.4062V35H109.027V24.8182H110.2V28.5568H110.3C110.479 28.1624 110.747 27.8492 111.105 27.6172C111.466 27.3819 111.947 27.2642 112.547 27.2642C113.067 27.2642 113.523 27.3686 113.914 27.5774C114.305 27.7829 114.608 28.0994 114.824 28.527C115.043 28.9512 115.152 29.4915 115.152 30.1477V35H113.979V30.2273C113.979 29.6207 113.821 29.1518 113.506 28.8203C113.195 28.4856 112.762 28.3182 112.209 28.3182C111.824 28.3182 111.48 28.3994 111.175 28.5618C110.873 28.7242 110.634 28.9612 110.459 29.2727C110.286 29.5843 110.2 29.9621 110.2 30.4062ZM119.546 35.179C119.062 35.179 118.623 35.0878 118.228 34.9055C117.834 34.7199 117.521 34.4531 117.289 34.1051C117.057 33.7538 116.941 33.3295 116.941 32.8324C116.941 32.3949 117.027 32.0402 117.199 31.7685C117.371 31.4934 117.602 31.2779 117.89 31.1222C118.178 30.9664 118.497 30.8504 118.845 30.7741C119.196 30.6946 119.549 30.6316 119.904 30.5852C120.368 30.5256 120.744 30.4808 121.032 30.451C121.324 30.4179 121.536 30.3632 121.669 30.2869C121.804 30.2107 121.872 30.0781 121.872 29.8892V29.8494C121.872 29.3589 121.738 28.9777 121.47 28.706C121.204 28.4342 120.802 28.2983 120.262 28.2983C119.701 28.2983 119.262 28.4209 118.944 28.6662C118.626 28.9115 118.402 29.1733 118.273 29.4517L117.159 29.054C117.358 28.59 117.623 28.2287 117.955 27.9702C118.289 27.7083 118.654 27.526 119.048 27.4233C119.446 27.3172 119.837 27.2642 120.222 27.2642C120.467 27.2642 120.749 27.294 121.067 27.3537C121.388 27.41 121.698 27.5277 121.997 27.7067C122.298 27.8857 122.548 28.1558 122.747 28.517C122.946 28.8783 123.046 29.3622 123.046 29.9688V35H121.872V33.9659H121.813C121.733 34.1316 121.601 34.3089 121.415 34.4979C121.229 34.6868 120.982 34.8475 120.674 34.9801C120.366 35.1127 119.99 35.179 119.546 35.179ZM119.725 34.125C120.189 34.125 120.58 34.0339 120.898 33.8516C121.219 33.6693 121.461 33.4339 121.624 33.1456C121.789 32.8572 121.872 32.554 121.872 32.2358V31.1619C121.823 31.2216 121.713 31.2763 121.544 31.326C121.378 31.3724 121.186 31.4138 120.968 31.4503C120.752 31.4834 120.542 31.5133 120.336 31.5398C120.134 31.563 119.97 31.5829 119.844 31.5994C119.539 31.6392 119.254 31.7038 118.989 31.7933C118.727 31.8795 118.515 32.0104 118.352 32.1861C118.193 32.3584 118.114 32.5937 118.114 32.892C118.114 33.2997 118.265 33.608 118.566 33.8168C118.871 34.0223 119.257 34.125 119.725 34.125ZM125.187 35V27.3636H126.36V35H125.187ZM125.784 26.0909C125.555 26.0909 125.358 26.013 125.192 25.8572C125.03 25.7015 124.949 25.5142 124.949 25.2955C124.949 25.0767 125.03 24.8894 125.192 24.7337C125.358 24.5779 125.555 24.5 125.784 24.5C126.012 24.5 126.208 24.5779 126.37 24.7337C126.536 24.8894 126.619 25.0767 126.619 25.2955C126.619 25.5142 126.536 25.7015 126.37 25.8572C126.208 26.013 126.012 26.0909 125.784 26.0909ZM129.683 30.4062V35H128.509V27.3636H129.643V28.5568H129.742C129.921 28.169 130.193 27.8575 130.558 27.6222C130.922 27.3835 131.393 27.2642 131.97 27.2642C132.487 27.2642 132.939 27.3703 133.327 27.5824C133.715 27.7912 134.016 28.1094 134.232 28.5369C134.447 28.9612 134.555 29.4981 134.555 30.1477V35H133.382V30.2273C133.382 29.6274 133.226 29.16 132.914 28.8253C132.603 28.4872 132.175 28.3182 131.632 28.3182C131.257 28.3182 130.922 28.3994 130.627 28.5618C130.336 28.7242 130.105 28.9612 129.936 29.2727C129.767 29.5843 129.683 29.9621 129.683 30.4062ZM143.52 35.1591C142.884 35.1591 142.322 34.9983 141.835 34.6768C141.347 34.352 140.966 33.8946 140.691 33.3047C140.416 32.7114 140.278 32.0104 140.278 31.2017C140.278 30.3996 140.416 29.7036 140.691 29.1136C140.966 28.5237 141.349 28.0679 141.839 27.7464C142.33 27.425 142.897 27.2642 143.54 27.2642C144.037 27.2642 144.43 27.3471 144.718 27.5128C145.01 27.6752 145.232 27.8608 145.384 28.0696C145.54 28.2751 145.661 28.4441 145.747 28.5767H145.847V24.8182H147.02V35H145.886V33.8267H145.747C145.661 33.9659 145.538 34.1416 145.379 34.3537C145.22 34.5625 144.993 34.7498 144.698 34.9155C144.403 35.0779 144.01 35.1591 143.52 35.1591ZM143.679 34.1051C144.15 34.1051 144.547 33.9825 144.872 33.7372C145.197 33.4886 145.444 33.1456 145.613 32.7081C145.782 32.2673 145.866 31.7585 145.866 31.1818C145.866 30.6117 145.784 30.1129 145.618 29.6854C145.452 29.2545 145.207 28.9197 144.882 28.6811C144.557 28.4392 144.156 28.3182 143.679 28.3182C143.182 28.3182 142.768 28.4458 142.436 28.701C142.108 28.9529 141.861 29.2959 141.695 29.7301C141.533 30.161 141.452 30.6449 141.452 31.1818C141.452 31.7254 141.535 32.2192 141.7 32.6634C141.869 33.1042 142.118 33.4555 142.446 33.7173C142.777 33.9759 143.188 34.1051 143.679 34.1051ZM151.579 35.179C151.095 35.179 150.656 35.0878 150.261 34.9055C149.867 34.7199 149.554 34.4531 149.322 34.1051C149.09 33.7538 148.974 33.3295 148.974 32.8324C148.974 32.3949 149.06 32.0402 149.232 31.7685C149.405 31.4934 149.635 31.2779 149.923 31.1222C150.212 30.9664 150.53 30.8504 150.878 30.7741C151.229 30.6946 151.582 30.6316 151.937 30.5852C152.401 30.5256 152.777 30.4808 153.065 30.451C153.357 30.4179 153.569 30.3632 153.702 30.2869C153.838 30.2107 153.906 30.0781 153.906 29.8892V29.8494C153.906 29.3589 153.771 28.9777 153.503 28.706C153.238 28.4342 152.835 28.2983 152.295 28.2983C151.735 28.2983 151.295 28.4209 150.977 28.6662C150.659 28.9115 150.435 29.1733 150.306 29.4517L149.192 29.054C149.391 28.59 149.656 28.2287 149.988 27.9702C150.323 27.7083 150.687 27.526 151.082 27.4233C151.479 27.3172 151.871 27.2642 152.255 27.2642C152.5 27.2642 152.782 27.294 153.1 27.3537C153.422 27.41 153.732 27.5277 154.03 27.7067C154.331 27.8857 154.582 28.1558 154.781 28.517C154.979 28.8783 155.079 29.3622 155.079 29.9688V35H153.906V33.9659H153.846C153.766 34.1316 153.634 34.3089 153.448 34.4979C153.263 34.6868 153.016 34.8475 152.707 34.9801C152.399 35.1127 152.023 35.179 151.579 35.179ZM151.758 34.125C152.222 34.125 152.613 34.0339 152.931 33.8516C153.253 33.6693 153.495 33.4339 153.657 33.1456C153.823 32.8572 153.906 32.554 153.906 32.2358V31.1619C153.856 31.2216 153.746 31.2763 153.577 31.326C153.412 31.3724 153.219 31.4138 153.001 31.4503C152.785 31.4834 152.575 31.5133 152.369 31.5398C152.167 31.563 152.003 31.5829 151.877 31.5994C151.572 31.6392 151.287 31.7038 151.022 31.7933C150.76 31.8795 150.548 32.0104 150.386 32.1861C150.227 32.3584 150.147 32.5937 150.147 32.892C150.147 33.2997 150.298 33.608 150.599 33.8168C150.904 34.0223 151.29 34.125 151.758 34.125ZM160.541 27.3636V28.358H156.584V27.3636H160.541ZM157.737 25.5341H158.911V32.8125C158.911 33.1439 158.959 33.3925 159.055 33.5582C159.154 33.7206 159.28 33.83 159.433 33.8864C159.588 33.9394 159.753 33.9659 159.925 33.9659C160.054 33.9659 160.16 33.9593 160.243 33.946C160.326 33.9295 160.392 33.9162 160.442 33.9062L160.681 34.9602C160.601 34.9901 160.49 35.0199 160.347 35.0497C160.205 35.0829 160.024 35.0994 159.806 35.0994C159.474 35.0994 159.149 35.0282 158.831 34.8857C158.516 34.7431 158.254 34.526 158.046 34.2344C157.84 33.9427 157.737 33.5748 157.737 33.1307V25.5341ZM164.553 35.179C164.07 35.179 163.63 35.0878 163.236 34.9055C162.842 34.7199 162.528 34.4531 162.296 34.1051C162.064 33.7538 161.948 33.3295 161.948 32.8324C161.948 32.3949 162.035 32.0402 162.207 31.7685C162.379 31.4934 162.61 31.2779 162.898 31.1222C163.186 30.9664 163.504 30.8504 163.852 30.7741C164.204 30.6946 164.557 30.6316 164.911 30.5852C165.375 30.5256 165.752 30.4808 166.04 30.451C166.332 30.4179 166.544 30.3632 166.676 30.2869C166.812 30.2107 166.88 30.0781 166.88 29.8892V29.8494C166.88 29.3589 166.746 28.9777 166.477 28.706C166.212 28.4342 165.81 28.2983 165.269 28.2983C164.709 28.2983 164.27 28.4209 163.952 28.6662C163.634 28.9115 163.41 29.1733 163.281 29.4517L162.167 29.054C162.366 28.59 162.631 28.2287 162.963 27.9702C163.297 27.7083 163.662 27.526 164.056 27.4233C164.454 27.3172 164.845 27.2642 165.23 27.2642C165.475 27.2642 165.757 27.294 166.075 27.3537C166.396 27.41 166.706 27.5277 167.004 27.7067C167.306 27.8857 167.556 28.1558 167.755 28.517C167.954 28.8783 168.053 29.3622 168.053 29.9688V35H166.88V33.9659H166.82C166.741 34.1316 166.608 34.3089 166.423 34.4979C166.237 34.6868 165.99 34.8475 165.682 34.9801C165.374 35.1127 164.998 35.179 164.553 35.179ZM164.732 34.125C165.196 34.125 165.588 34.0339 165.906 33.8516C166.227 33.6693 166.469 33.4339 166.632 33.1456C166.797 32.8572 166.88 32.554 166.88 32.2358V31.1619C166.83 31.2216 166.721 31.2763 166.552 31.326C166.386 31.3724 166.194 31.4138 165.975 31.4503C165.76 31.4834 165.549 31.5133 165.344 31.5398C165.142 31.563 164.978 31.5829 164.852 31.5994C164.547 31.6392 164.262 31.7038 163.997 31.7933C163.735 31.8795 163.523 32.0104 163.36 32.1861C163.201 32.3584 163.122 32.5937 163.122 32.892C163.122 33.2997 163.272 33.608 163.574 33.8168C163.879 34.0223 164.265 34.125 164.732 34.125Z" fill="#475467"/>
</svg>
