<svg width="308" height="40" viewBox="0 0 308 40" fill="none" xmlns="http://www.w3.org/2000/svg">
<path d="M1.97869 15H0.348011L4.01207 4.81818H5.78693L9.45099 15H7.82031L4.94176 6.66761H4.86222L1.97869 15ZM2.25213 11.0128H7.5419V12.3054H2.25213V11.0128ZM13.8807 18.0227C13.2741 18.0227 12.7521 17.9432 12.3146 17.7841C11.8804 17.625 11.5258 17.4145 11.2507 17.1527C10.9756 16.8909 10.7701 16.6042 10.6342 16.2926L11.9119 15.7656C12.0014 15.9115 12.1207 16.0656 12.2699 16.228C12.4223 16.3937 12.6278 16.5346 12.8864 16.6506C13.1482 16.7666 13.4846 16.8246 13.8956 16.8246C14.459 16.8246 14.9247 16.687 15.2926 16.4119C15.6605 16.1402 15.8445 15.706 15.8445 15.1094V13.608H15.75C15.6605 13.7704 15.5313 13.951 15.3622 14.1499C15.1965 14.3487 14.9678 14.5211 14.6761 14.6669C14.3845 14.8127 14.005 14.8857 13.5376 14.8857C12.9344 14.8857 12.3909 14.7448 11.907 14.4631C11.4264 14.178 11.0452 13.7588 10.7635 13.2053C10.4851 12.6484 10.3459 11.964 10.3459 11.152C10.3459 10.34 10.4834 9.64394 10.7585 9.06392C11.0369 8.4839 11.4181 8.03977 11.902 7.73153C12.3859 7.41998 12.9344 7.2642 13.5476 7.2642C14.0215 7.2642 14.4044 7.34375 14.696 7.50284C14.9877 7.65862 15.2147 7.84091 15.3771 8.04972C15.5429 8.25852 15.6705 8.44247 15.7599 8.60156H15.8693V7.36364H17.326V15.169C17.326 15.8253 17.1735 16.3639 16.8686 16.7848C16.5637 17.2057 16.151 17.5173 15.6307 17.7195C15.1136 17.9216 14.5303 18.0227 13.8807 18.0227ZM13.8658 13.6527C14.2933 13.6527 14.6546 13.5533 14.9496 13.3544C15.2479 13.1522 15.4732 12.8639 15.6257 12.4893C15.7815 12.1115 15.8594 11.6591 15.8594 11.1321C15.8594 10.6184 15.7831 10.166 15.6307 9.77486C15.4782 9.38376 15.2545 9.07884 14.9595 8.86009C14.6645 8.63802 14.3 8.52699 13.8658 8.52699C13.4183 8.52699 13.0455 8.64299 12.7472 8.875C12.4489 9.10369 12.2235 9.41525 12.071 9.80966C11.9219 10.2041 11.8473 10.6449 11.8473 11.1321C11.8473 11.6326 11.9235 12.0717 12.076 12.4496C12.2285 12.8274 12.4538 13.1224 12.7521 13.3345C13.0537 13.5466 13.425 13.6527 13.8658 13.6527ZM19.3196 15V7.36364H20.7564V8.5767H20.8359C20.9751 8.16572 21.2204 7.84257 21.5717 7.60724C21.9264 7.36861 22.3274 7.24929 22.7749 7.24929C22.8677 7.24929 22.977 7.2526 23.103 7.25923C23.2322 7.26586 23.3333 7.27415 23.4062 7.28409V8.70597C23.3466 8.68939 23.2405 8.67116 23.0881 8.65128C22.9356 8.62808 22.7831 8.61648 22.6307 8.61648C22.2794 8.61648 21.9661 8.69105 21.6911 8.8402C21.4193 8.98603 21.2038 9.18987 21.0447 9.4517C20.8857 9.71023 20.8061 10.0052 20.8061 10.3366V15H19.3196ZM27.7104 15.1541C26.958 15.1541 26.3101 14.9934 25.7665 14.6719C25.2263 14.3471 24.8087 13.8913 24.5137 13.3047C24.222 12.7147 24.0762 12.0237 24.0762 11.2315C24.0762 10.4493 24.222 9.75994 24.5137 9.16335C24.8087 8.56676 25.2196 8.10109 25.7466 7.76633C26.2769 7.43158 26.8967 7.2642 27.606 7.2642C28.0369 7.2642 28.4545 7.33546 28.8588 7.47798C29.2632 7.6205 29.6261 7.84422 29.9476 8.14915C30.2691 8.45407 30.5227 8.85014 30.7083 9.33736C30.8939 9.82126 30.9867 10.4096 30.9867 11.1023V11.6293H24.9164V10.5156H29.53C29.53 10.1245 29.4505 9.77817 29.2914 9.47656C29.1323 9.17164 28.9086 8.93134 28.6202 8.75568C28.3352 8.58002 28.0004 8.49219 27.6159 8.49219C27.1983 8.49219 26.8337 8.59493 26.5222 8.80043C26.214 9.0026 25.9753 9.26776 25.8063 9.59588C25.6406 9.92069 25.5577 10.2737 25.5577 10.6548V11.5249C25.5577 12.0353 25.6472 12.4695 25.8262 12.8274C26.0085 13.1854 26.262 13.4588 26.5868 13.6477C26.9116 13.8333 27.2911 13.9261 27.7253 13.9261C28.007 13.9261 28.2639 13.8864 28.4959 13.8068C28.7279 13.724 28.9284 13.6013 29.0975 13.4389C29.2665 13.2765 29.3958 13.076 29.4853 12.8374L30.8922 13.0909C30.7795 13.5052 30.5774 13.8681 30.2857 14.1797C29.9973 14.4879 29.6344 14.7282 29.1969 14.9006C28.7627 15.0696 28.2672 15.1541 27.7104 15.1541ZM35.9272 15.1541C35.1748 15.1541 34.5269 14.9934 33.9833 14.6719C33.4431 14.3471 33.0254 13.8913 32.7305 13.3047C32.4388 12.7147 32.293 12.0237 32.293 11.2315C32.293 10.4493 32.4388 9.75994 32.7305 9.16335C33.0254 8.56676 33.4364 8.10109 33.9634 7.76633C34.4937 7.43158 35.1135 7.2642 35.8228 7.2642C36.2537 7.2642 36.6713 7.33546 37.0756 7.47798C37.48 7.6205 37.8429 7.84422 38.1644 8.14915C38.4859 8.45407 38.7395 8.85014 38.9251 9.33736C39.1107 9.82126 39.2035 10.4096 39.2035 11.1023V11.6293H33.1332V10.5156H37.7468C37.7468 10.1245 37.6673 9.77817 37.5082 9.47656C37.3491 9.17164 37.1254 8.93134 36.837 8.75568C36.552 8.58002 36.2172 8.49219 35.8327 8.49219C35.4151 8.49219 35.0505 8.59493 34.739 8.80043C34.4308 9.0026 34.1921 9.26776 34.0231 9.59588C33.8574 9.92069 33.7745 10.2737 33.7745 10.6548V11.5249C33.7745 12.0353 33.864 12.4695 34.043 12.8274C34.2253 13.1854 34.4788 13.4588 34.8036 13.6477C35.1284 13.8333 35.5079 13.9261 35.9421 13.9261C36.2238 13.9261 36.4807 13.8864 36.7127 13.8068C36.9447 13.724 37.1452 13.6013 37.3143 13.4389C37.4833 13.2765 37.6126 13.076 37.7021 12.8374L39.109 13.0909C38.9963 13.5052 38.7942 13.8681 38.5025 14.1797C38.2141 14.4879 37.8512 14.7282 37.4137 14.9006C36.9795 15.0696 36.484 15.1541 35.9272 15.1541ZM48.1225 7.36364V8.55682H43.9513V7.36364H48.1225ZM45.07 5.53409H46.5565V12.7578C46.5565 13.0462 46.5996 13.2633 46.6857 13.4091C46.7719 13.5516 46.8829 13.6494 47.0188 13.7024C47.158 13.7521 47.3088 13.777 47.4712 13.777C47.5906 13.777 47.695 13.7687 47.7844 13.7521C47.8739 13.7356 47.9435 13.7223 47.9933 13.7124L48.2617 14.9403C48.1755 14.9735 48.0529 15.0066 47.8938 15.0398C47.7347 15.0762 47.5359 15.0961 47.2972 15.0994C46.9061 15.1061 46.5415 15.0365 46.2035 14.8906C45.8654 14.7448 45.592 14.5194 45.3832 14.2145C45.1744 13.9096 45.07 13.5268 45.07 13.0661V5.53409ZM52.9015 15.1541C52.1855 15.1541 51.5608 14.9901 51.0272 14.6619C50.4935 14.3338 50.0792 13.8748 49.7843 13.2848C49.4893 12.6948 49.3418 12.0054 49.3418 11.2166C49.3418 10.4245 49.4893 9.73177 49.7843 9.13849C50.0792 8.54522 50.4935 8.08452 51.0272 7.75639C51.5608 7.42827 52.1855 7.2642 52.9015 7.2642C53.6174 7.2642 54.2421 7.42827 54.7757 7.75639C55.3094 8.08452 55.7237 8.54522 56.0186 9.13849C56.3136 9.73177 56.4611 10.4245 56.4611 11.2166C56.4611 12.0054 56.3136 12.6948 56.0186 13.2848C55.7237 13.8748 55.3094 14.3338 54.7757 14.6619C54.2421 14.9901 53.6174 15.1541 52.9015 15.1541ZM52.9064 13.9062C53.3704 13.9062 53.7549 13.7836 54.0598 13.5384C54.3648 13.2931 54.5901 12.9666 54.736 12.5589C54.8851 12.1513 54.9597 11.7022 54.9597 11.2116C54.9597 10.7244 54.8851 10.277 54.736 9.86932C54.5901 9.45833 54.3648 9.12855 54.0598 8.87997C53.7549 8.63139 53.3704 8.5071 52.9064 8.5071C52.4391 8.5071 52.0513 8.63139 51.7431 8.87997C51.4382 9.12855 51.2111 9.45833 51.062 9.86932C50.9161 10.277 50.8432 10.7244 50.8432 11.2116C50.8432 11.7022 50.9161 12.1513 51.062 12.5589C51.2111 12.9666 51.4382 13.2931 51.7431 13.5384C52.0513 13.7836 52.4391 13.9062 52.9064 13.9062ZM61.4426 6.14062V4.81818H69.3226V6.14062H66.1458V15H64.6145V6.14062H61.4426ZM73.1284 15.1541C72.376 15.1541 71.728 14.9934 71.1845 14.6719C70.6442 14.3471 70.2266 13.8913 69.9316 13.3047C69.64 12.7147 69.4941 12.0237 69.4941 11.2315C69.4941 10.4493 69.64 9.75994 69.9316 9.16335C70.2266 8.56676 70.6376 8.10109 71.1646 7.76633C71.6949 7.43158 72.3147 7.2642 73.024 7.2642C73.4548 7.2642 73.8725 7.33546 74.2768 7.47798C74.6812 7.6205 75.0441 7.84422 75.3656 8.14915C75.6871 8.45407 75.9406 8.85014 76.1262 9.33736C76.3118 9.82126 76.4047 10.4096 76.4047 11.1023V11.6293H70.3343V10.5156H74.948C74.948 10.1245 74.8684 9.77817 74.7093 9.47656C74.5502 9.17164 74.3265 8.93134 74.0382 8.75568C73.7531 8.58002 73.4184 8.49219 73.0339 8.49219C72.6163 8.49219 72.2517 8.59493 71.9402 8.80043C71.6319 9.0026 71.3933 9.26776 71.2243 9.59588C71.0585 9.92069 70.9757 10.2737 70.9757 10.6548V11.5249C70.9757 12.0353 71.0652 12.4695 71.2441 12.8274C71.4264 13.1854 71.68 13.4588 72.0048 13.6477C72.3296 13.8333 72.7091 13.9261 73.1433 13.9261C73.425 13.9261 73.6819 13.8864 73.9139 13.8068C74.1459 13.724 74.3464 13.6013 74.5154 13.4389C74.6845 13.2765 74.8137 13.076 74.9032 12.8374L76.3102 13.0909C76.1975 13.5052 75.9953 13.8681 75.7037 14.1797C75.4153 14.4879 75.0524 14.7282 74.6149 14.9006C74.1807 15.0696 73.6852 15.1541 73.1284 15.1541ZM78.054 15V7.36364H79.4908V8.5767H79.5703C79.7095 8.16572 79.9548 7.84257 80.3061 7.60724C80.6607 7.36861 81.0618 7.24929 81.5092 7.24929C81.602 7.24929 81.7114 7.2526 81.8374 7.25923C81.9666 7.26586 82.0677 7.27415 82.1406 7.28409V8.70597C82.081 8.68939 81.9749 8.67116 81.8224 8.65128C81.67 8.62808 81.5175 8.61648 81.3651 8.61648C81.0137 8.61648 80.7005 8.69105 80.4254 8.8402C80.1536 8.98603 79.9382 9.18987 79.7791 9.4517C79.62 9.71023 79.5405 10.0052 79.5405 10.3366V15H78.054ZM83.427 15V7.36364H84.8539V8.60653H84.9483C85.1074 8.18561 85.3676 7.85748 85.7289 7.62216C86.0901 7.38352 86.5227 7.2642 87.0265 7.2642C87.5369 7.2642 87.9644 7.38352 88.3091 7.62216C88.6571 7.8608 88.914 8.18892 89.0797 8.60653H89.1593C89.3416 8.19886 89.6316 7.87405 90.0293 7.6321C90.427 7.38684 90.901 7.2642 91.4512 7.2642C92.1439 7.2642 92.709 7.4813 93.1465 7.91548C93.5873 8.34967 93.8077 9.00426 93.8077 9.87926V15H92.3212V10.0185C92.3212 9.50142 92.1803 9.12689 91.8986 8.89489C91.6169 8.66288 91.2805 8.54688 90.8894 8.54688C90.4055 8.54688 90.0293 8.69602 89.7608 8.99432C89.4924 9.2893 89.3581 9.6688 89.3581 10.1328V15H87.8766V9.92401C87.8766 9.50971 87.7473 9.17661 87.4888 8.92472C87.2303 8.67282 86.8939 8.54688 86.4796 8.54688C86.1979 8.54688 85.9377 8.62145 85.699 8.7706C85.4637 8.91643 85.2731 9.12026 85.1273 9.3821C84.9848 9.64394 84.9135 9.94721 84.9135 10.2919V15H83.427ZM101.522 9.22798L100.175 9.46662C100.119 9.29427 100.029 9.13021 99.9066 8.97443C99.7873 8.81865 99.6249 8.69105 99.4194 8.59162C99.2139 8.49219 98.957 8.44247 98.6488 8.44247C98.2279 8.44247 97.8765 8.53693 97.5948 8.72585C97.3131 8.91146 97.1722 9.15175 97.1722 9.44673C97.1722 9.70194 97.2667 9.90743 97.4556 10.0632C97.6445 10.219 97.9495 10.3466 98.3704 10.446L99.5835 10.7244C100.286 10.8868 100.81 11.1371 101.154 11.4751C101.499 11.8132 101.672 12.2524 101.672 12.7926C101.672 13.25 101.539 13.6577 101.274 14.0156C101.012 14.3703 100.646 14.6487 100.175 14.8509C99.7077 15.053 99.1658 15.1541 98.5494 15.1541C97.6942 15.1541 96.9966 14.9718 96.4563 14.6072C95.9161 14.2393 95.5846 13.7173 95.462 13.0412L96.8988 12.8224C96.9883 13.197 97.1722 13.4804 97.4506 13.6726C97.729 13.8615 98.092 13.956 98.5394 13.956C99.0266 13.956 99.4161 13.8549 99.7077 13.6527C99.9994 13.4472 100.145 13.197 100.145 12.902C100.145 12.6634 100.056 12.4628 99.8768 12.3004C99.7011 12.138 99.431 12.0154 99.0664 11.9325L97.7738 11.6491C97.0612 11.4867 96.5342 11.2282 96.1928 10.8736C95.8548 10.5189 95.6857 10.0698 95.6857 9.52628C95.6857 9.07552 95.8117 8.68111 96.0636 8.34304C96.3155 8.00497 96.6635 7.74148 97.1076 7.55256C97.5517 7.36032 98.0605 7.2642 98.6339 7.2642C99.4592 7.2642 100.109 7.44318 100.583 7.80114C101.057 8.15578 101.37 8.63139 101.522 9.22798ZM109.233 15.169C108.749 15.169 108.312 15.0795 107.921 14.9006C107.53 14.7183 107.22 14.4548 106.991 14.1101C106.766 13.7654 106.653 13.3428 106.653 12.8423C106.653 12.4115 106.736 12.0568 106.902 11.7784C107.067 11.5 107.291 11.2796 107.573 11.1172C107.855 10.9548 108.169 10.8321 108.517 10.7493C108.865 10.6664 109.22 10.6035 109.581 10.5604C110.039 10.5073 110.41 10.4643 110.695 10.4311C110.98 10.3946 111.187 10.3366 111.316 10.2571C111.446 10.1776 111.51 10.0483 111.51 9.86932V9.83452C111.51 9.40033 111.388 9.06392 111.142 8.82528C110.9 8.58665 110.539 8.46733 110.059 8.46733C109.558 8.46733 109.164 8.57836 108.875 8.80043C108.59 9.01918 108.393 9.26278 108.284 9.53125L106.887 9.21307C107.052 8.74905 107.294 8.37453 107.613 8.08949C107.934 7.80114 108.304 7.59233 108.721 7.46307C109.139 7.33049 109.578 7.2642 110.039 7.2642C110.344 7.2642 110.667 7.30066 111.008 7.37358C111.353 7.44318 111.674 7.57244 111.973 7.76136C112.274 7.95028 112.521 8.22041 112.713 8.57173C112.906 8.91974 113.002 9.37216 113.002 9.92898V15H111.55V13.956H111.49C111.394 14.1482 111.25 14.3371 111.058 14.5227C110.866 14.7083 110.619 14.8625 110.317 14.9851C110.016 15.1077 109.654 15.169 109.233 15.169ZM109.556 13.9759C109.967 13.9759 110.319 13.8946 110.61 13.7322C110.905 13.5698 111.129 13.3577 111.282 13.0959C111.437 12.8307 111.515 12.5473 111.515 12.2457V11.2614C111.462 11.3144 111.359 11.3641 111.207 11.4105C111.058 11.4536 110.887 11.4917 110.695 11.5249C110.503 11.5547 110.315 11.5829 110.133 11.6094C109.951 11.6326 109.798 11.6525 109.676 11.669C109.387 11.7055 109.124 11.7668 108.885 11.853C108.65 11.9392 108.461 12.0634 108.319 12.2259C108.179 12.3849 108.11 12.5971 108.11 12.8622C108.11 13.2301 108.246 13.5085 108.517 13.6974C108.789 13.883 109.136 13.9759 109.556 13.9759ZM116.468 10.4659V15H114.982V7.36364H116.409V8.60653H116.503C116.679 8.20218 116.954 7.87737 117.328 7.6321C117.706 7.38684 118.182 7.2642 118.755 7.2642C119.276 7.2642 119.731 7.37358 120.122 7.59233C120.513 7.80777 120.817 8.12926 121.032 8.55682C121.248 8.98437 121.355 9.51302 121.355 10.1428V15H119.869V10.3217C119.869 9.76823 119.725 9.3357 119.436 9.02415C119.148 8.70928 118.752 8.55185 118.248 8.55185C117.903 8.55185 117.597 8.62642 117.328 8.77557C117.063 8.92472 116.853 9.14347 116.697 9.43182C116.544 9.71686 116.468 10.0616 116.468 10.4659ZM126.208 15.1491C125.591 15.1491 125.041 14.9917 124.557 14.6768C124.076 14.3587 123.699 13.9062 123.423 13.3196C123.152 12.7296 123.016 12.022 123.016 11.1967C123.016 10.3714 123.153 9.66548 123.428 9.07884C123.707 8.49219 124.088 8.04309 124.572 7.73153C125.056 7.41998 125.604 7.2642 126.218 7.2642C126.691 7.2642 127.073 7.34375 127.361 7.50284C127.653 7.65862 127.878 7.84091 128.037 8.04972C128.2 8.25852 128.325 8.44247 128.415 8.60156H128.504V4.81818H129.991V15H128.539V13.8118H128.415C128.325 13.9742 128.196 14.1598 128.027 14.3686C127.861 14.5774 127.633 14.7597 127.341 14.9155C127.049 15.0713 126.672 15.1491 126.208 15.1491ZM126.536 13.8814C126.963 13.8814 127.325 13.7687 127.619 13.5433C127.918 13.3146 128.143 12.9981 128.296 12.5938C128.451 12.1894 128.529 11.7187 128.529 11.1818C128.529 10.6515 128.453 10.1875 128.301 9.78977C128.148 9.39205 127.924 9.08215 127.629 8.86009C127.334 8.63802 126.97 8.52699 126.536 8.52699C126.088 8.52699 125.715 8.64299 125.417 8.875C125.119 9.10701 124.893 9.42353 124.741 9.82457C124.592 10.2256 124.517 10.678 124.517 11.1818C124.517 11.6922 124.593 12.1513 124.746 12.5589C124.898 12.9666 125.124 13.2898 125.422 13.5284C125.724 13.7637 126.095 13.8814 126.536 13.8814ZM141.49 7.4929C141.437 7.02225 141.218 6.65767 140.834 6.39915C140.45 6.13731 139.966 6.00639 139.382 6.00639C138.965 6.00639 138.603 6.07268 138.298 6.20526C137.994 6.33452 137.757 6.51349 137.588 6.74219C137.422 6.96757 137.339 7.22443 137.339 7.51278C137.339 7.75473 137.395 7.96354 137.508 8.1392C137.624 8.31487 137.775 8.46236 137.96 8.58168C138.149 8.69768 138.352 8.79545 138.567 8.875C138.782 8.95123 138.99 9.0142 139.188 9.06392L140.183 9.32244C140.508 9.40199 140.841 9.50971 141.182 9.6456C141.523 9.78149 141.84 9.96046 142.132 10.1825C142.423 10.4046 142.659 10.6797 142.838 11.0078C143.02 11.3359 143.111 11.7287 143.111 12.1861C143.111 12.7628 142.962 13.2749 142.664 13.7223C142.369 14.1697 141.939 14.5227 141.376 14.7812C140.816 15.0398 140.138 15.169 139.343 15.169C138.58 15.169 137.921 15.0481 137.364 14.8061C136.807 14.5642 136.371 14.2211 136.056 13.777C135.741 13.3295 135.567 12.7992 135.534 12.1861H137.075C137.105 12.554 137.225 12.8606 137.433 13.1058C137.646 13.3478 137.916 13.5284 138.244 13.6477C138.575 13.7637 138.938 13.8217 139.333 13.8217C139.767 13.8217 140.153 13.7538 140.491 13.6179C140.832 13.4787 141.101 13.2865 141.296 13.0412C141.492 12.7926 141.59 12.5026 141.59 12.1712C141.59 11.8696 141.503 11.6226 141.331 11.4304C141.162 11.2382 140.932 11.0791 140.64 10.9531C140.352 10.8272 140.025 10.7161 139.661 10.62L138.458 10.2919C137.642 10.0698 136.996 9.74337 136.519 9.3125C136.045 8.88163 135.808 8.31155 135.808 7.60227C135.808 7.01562 135.967 6.50355 136.285 6.06605C136.603 5.62855 137.034 5.28883 137.578 5.04688C138.121 4.80161 138.734 4.67898 139.417 4.67898C140.106 4.67898 140.715 4.79995 141.242 5.0419C141.772 5.28385 142.19 5.61695 142.494 6.04119C142.799 6.46212 142.959 6.94602 142.972 7.4929H141.49ZM148.119 15.1541C147.366 15.1541 146.718 14.9934 146.175 14.6719C145.634 14.3471 145.217 13.8913 144.922 13.3047C144.63 12.7147 144.484 12.0237 144.484 11.2315C144.484 10.4493 144.63 9.75994 144.922 9.16335C145.217 8.56676 145.628 8.10109 146.155 7.76633C146.685 7.43158 147.305 7.2642 148.014 7.2642C148.445 7.2642 148.863 7.33546 149.267 7.47798C149.671 7.6205 150.034 7.84422 150.356 8.14915C150.677 8.45407 150.931 8.85014 151.116 9.33736C151.302 9.82126 151.395 10.4096 151.395 11.1023V11.6293H145.325V10.5156H149.938C149.938 10.1245 149.859 9.77817 149.7 9.47656C149.54 9.17164 149.317 8.93134 149.028 8.75568C148.743 8.58002 148.409 8.49219 148.024 8.49219C147.607 8.49219 147.242 8.59493 146.93 8.80043C146.622 9.0026 146.384 9.26776 146.214 9.59588C146.049 9.92069 145.966 10.2737 145.966 10.6548V11.5249C145.966 12.0353 146.055 12.4695 146.234 12.8274C146.417 13.1854 146.67 13.4588 146.995 13.6477C147.32 13.8333 147.699 13.9261 148.134 13.9261C148.415 13.9261 148.672 13.8864 148.904 13.8068C149.136 13.724 149.337 13.6013 149.506 13.4389C149.675 13.2765 149.804 13.076 149.893 12.8374L151.3 13.0909C151.188 13.5052 150.986 13.8681 150.694 14.1797C150.406 14.4879 150.043 14.7282 149.605 14.9006C149.171 15.0696 148.675 15.1541 148.119 15.1541ZM153.044 15V7.36364H154.481V8.5767H154.561C154.7 8.16572 154.945 7.84257 155.296 7.60724C155.651 7.36861 156.052 7.24929 156.499 7.24929C156.592 7.24929 156.702 7.2526 156.828 7.25923C156.957 7.26586 157.058 7.27415 157.131 7.28409V8.70597C157.071 8.68939 156.965 8.67116 156.813 8.65128C156.66 8.62808 156.508 8.61648 156.355 8.61648C156.004 8.61648 155.691 8.69105 155.416 8.8402C155.144 8.98603 154.928 9.18987 154.769 9.4517C154.61 9.71023 154.531 10.0052 154.531 10.3366V15H153.044ZM165.182 7.36364L162.413 15H160.822L158.048 7.36364H159.644L161.578 13.2401H161.657L163.586 7.36364H165.182ZM166.579 15V7.36364H168.066V15H166.579ZM167.33 6.18537C167.072 6.18537 166.849 6.09919 166.664 5.92685C166.482 5.75118 166.39 5.54238 166.39 5.30043C166.39 5.05516 166.482 4.84635 166.664 4.67401C166.849 4.49834 167.072 4.41051 167.33 4.41051C167.589 4.41051 167.809 4.49834 167.991 4.67401C168.177 4.84635 168.27 5.05516 168.27 5.30043C168.27 5.54238 168.177 5.75118 167.991 5.92685C167.809 6.09919 167.589 6.18537 167.33 6.18537ZM173.282 15.1541C172.543 15.1541 171.907 14.9867 171.373 14.652C170.843 14.3139 170.435 13.8482 170.15 13.255C169.865 12.6617 169.723 11.9822 169.723 11.2166C169.723 10.4411 169.868 9.75663 170.16 9.16335C170.452 8.56676 170.863 8.10109 171.393 7.76633C171.923 7.43158 172.548 7.2642 173.267 7.2642C173.847 7.2642 174.364 7.37192 174.819 7.58736C175.273 7.79948 175.639 8.09777 175.917 8.48224C176.199 8.86671 176.366 9.31581 176.419 9.82955H174.973C174.893 9.47159 174.711 9.16335 174.426 8.90483C174.144 8.64631 173.766 8.51705 173.292 8.51705C172.878 8.51705 172.515 8.62642 172.203 8.84517C171.895 9.06061 171.655 9.36884 171.483 9.76989C171.31 10.1676 171.224 10.6383 171.224 11.1818C171.224 11.7386 171.309 12.2192 171.478 12.6236C171.647 13.0279 171.885 13.3411 172.194 13.5632C172.505 13.7853 172.871 13.8963 173.292 13.8963C173.574 13.8963 173.829 13.8449 174.058 13.7422C174.29 13.6361 174.484 13.4853 174.64 13.2898C174.799 13.0942 174.91 12.8589 174.973 12.5838H176.419C176.366 13.0777 176.206 13.5185 175.937 13.9062C175.669 14.294 175.309 14.599 174.858 14.821C174.411 15.0431 173.886 15.1541 173.282 15.1541ZM181.3 15.1541C180.548 15.1541 179.9 14.9934 179.356 14.6719C178.816 14.3471 178.398 13.8913 178.104 13.3047C177.812 12.7147 177.666 12.0237 177.666 11.2315C177.666 10.4493 177.812 9.75994 178.104 9.16335C178.398 8.56676 178.809 8.10109 179.336 7.76633C179.867 7.43158 180.487 7.2642 181.196 7.2642C181.627 7.2642 182.044 7.33546 182.449 7.47798C182.853 7.6205 183.216 7.84422 183.537 8.14915C183.859 8.45407 184.113 8.85014 184.298 9.33736C184.484 9.82126 184.577 10.4096 184.577 11.1023V11.6293H178.506V10.5156H183.12C183.12 10.1245 183.04 9.77817 182.881 9.47656C182.722 9.17164 182.498 8.93134 182.21 8.75568C181.925 8.58002 181.59 8.49219 181.206 8.49219C180.788 8.49219 180.424 8.59493 180.112 8.80043C179.804 9.0026 179.565 9.26776 179.396 9.59588C179.23 9.92069 179.148 10.2737 179.148 10.6548V11.5249C179.148 12.0353 179.237 12.4695 179.416 12.8274C179.598 13.1854 179.852 13.4588 180.177 13.6477C180.501 13.8333 180.881 13.9261 181.315 13.9261C181.597 13.9261 181.854 13.8864 182.086 13.8068C182.318 13.724 182.518 13.6013 182.687 13.4389C182.856 13.2765 182.986 13.076 183.075 12.8374L184.482 13.0909C184.369 13.5052 184.167 13.8681 183.876 14.1797C183.587 14.4879 183.224 14.7282 182.787 14.9006C182.353 15.0696 181.857 15.1541 181.3 15.1541ZM191.948 9.22798L190.601 9.46662C190.545 9.29427 190.455 9.13021 190.332 8.97443C190.213 8.81865 190.051 8.69105 189.845 8.59162C189.64 8.49219 189.383 8.44247 189.075 8.44247C188.654 8.44247 188.302 8.53693 188.021 8.72585C187.739 8.91146 187.598 9.15175 187.598 9.44673C187.598 9.70194 187.692 9.90743 187.881 10.0632C188.07 10.219 188.375 10.3466 188.796 10.446L190.009 10.7244C190.712 10.8868 191.236 11.1371 191.58 11.4751C191.925 11.8132 192.097 12.2524 192.097 12.7926C192.097 13.25 191.965 13.6577 191.7 14.0156C191.438 14.3703 191.071 14.6487 190.601 14.8509C190.134 15.053 189.592 15.1541 188.975 15.1541C188.12 15.1541 187.422 14.9718 186.882 14.6072C186.342 14.2393 186.01 13.7173 185.888 13.0412L187.325 12.8224C187.414 13.197 187.598 13.4804 187.876 13.6726C188.155 13.8615 188.518 13.956 188.965 13.956C189.452 13.956 189.842 13.8549 190.134 13.6527C190.425 13.4472 190.571 13.197 190.571 12.902C190.571 12.6634 190.482 12.4628 190.303 12.3004C190.127 12.138 189.857 12.0154 189.492 11.9325L188.2 11.6491C187.487 11.4867 186.96 11.2282 186.619 10.8736C186.281 10.5189 186.112 10.0698 186.112 9.52628C186.112 9.07552 186.237 8.68111 186.489 8.34304C186.741 8.00497 187.089 7.74148 187.533 7.55256C187.978 7.36032 188.486 7.2642 189.06 7.2642C189.885 7.2642 190.535 7.44318 191.009 7.80114C191.482 8.15578 191.796 8.63139 191.948 9.22798Z" fill="#344054"/>
<path d="M0.676136 25.9119V24.8182H8.3125V25.9119H5.1108V35H3.87784V25.9119H0.676136ZM11.2296 30.4062V35H10.0563V24.8182H11.2296V28.5568H11.329C11.508 28.1624 11.7765 27.8492 12.1344 27.6172C12.4957 27.3819 12.9763 27.2642 13.5762 27.2642C14.0965 27.2642 14.5523 27.3686 14.9434 27.5774C15.3345 27.7829 15.6377 28.0994 15.8532 28.527C16.0719 28.9512 16.1813 29.4915 16.1813 30.1477V35H15.008V30.2273C15.008 29.6207 14.8506 29.1518 14.5357 28.8203C14.2241 28.4856 13.7916 28.3182 13.2381 28.3182C12.8536 28.3182 12.5089 28.3994 12.204 28.5618C11.9024 28.7242 11.6638 28.9612 11.4881 29.2727C11.3158 29.5843 11.2296 29.9621 11.2296 30.4062ZM18.3278 35V27.3636H19.5011V35H18.3278ZM18.9244 26.0909C18.6957 26.0909 18.4985 26.013 18.3327 25.8572C18.1703 25.7015 18.0891 25.5142 18.0891 25.2955C18.0891 25.0767 18.1703 24.8894 18.3327 24.7337C18.4985 24.5779 18.6957 24.5 18.9244 24.5C19.1531 24.5 19.3486 24.5779 19.511 24.7337C19.6767 24.8894 19.7596 25.0767 19.7596 25.2955C19.7596 25.5142 19.6767 25.7015 19.511 25.8572C19.3486 26.013 19.1531 26.0909 18.9244 26.0909ZM27.0591 29.0739L26.0051 29.3722C25.9389 29.1965 25.8411 29.0258 25.7118 28.8601C25.5859 28.6911 25.4135 28.5518 25.1948 28.4425C24.976 28.3331 24.696 28.2784 24.3546 28.2784C23.8873 28.2784 23.4978 28.3861 23.1863 28.6016C22.878 28.8137 22.7239 29.0838 22.7239 29.4119C22.7239 29.7036 22.83 29.9339 23.0421 30.103C23.2542 30.272 23.5856 30.4129 24.0364 30.5256L25.1699 30.804C25.8527 30.9697 26.3614 31.2232 26.6962 31.5646C27.031 31.9027 27.1983 32.3385 27.1983 32.8722C27.1983 33.3097 27.0724 33.7008 26.8205 34.0455C26.5719 34.3902 26.2239 34.6619 25.7765 34.8608C25.329 35.0597 24.8087 35.1591 24.2154 35.1591C23.4365 35.1591 22.7918 34.9901 22.2814 34.652C21.771 34.3139 21.4479 33.8201 21.312 33.1705L22.4256 32.892C22.5317 33.303 22.7322 33.6113 23.0272 33.8168C23.3255 34.0223 23.7149 34.125 24.1955 34.125C24.7424 34.125 25.1766 34.009 25.498 33.777C25.8229 33.5417 25.9853 33.2599 25.9853 32.9318C25.9853 32.6667 25.8925 32.4446 25.7069 32.2656C25.5212 32.0833 25.2362 31.9474 24.8517 31.858L23.579 31.5597C22.8797 31.3939 22.3659 31.1371 22.0378 30.7891C21.713 30.4377 21.5506 29.9986 21.5506 29.4716C21.5506 29.0407 21.6716 28.6596 21.9135 28.3281C22.1588 27.9967 22.4919 27.7365 22.9128 27.5476C23.3371 27.3587 23.8176 27.2642 24.3546 27.2642C25.1103 27.2642 25.7035 27.4299 26.1344 27.7614C26.5686 28.0928 26.8768 28.5303 27.0591 29.0739ZM35.1491 35.179C34.6652 35.179 34.2261 35.0878 33.8317 34.9055C33.4373 34.7199 33.1241 34.4531 32.892 34.1051C32.66 33.7538 32.544 33.3295 32.544 32.8324C32.544 32.3949 32.6302 32.0402 32.8026 31.7685C32.9749 31.4934 33.2053 31.2779 33.4936 31.1222C33.782 30.9664 34.1001 30.8504 34.4482 30.7741C34.7995 30.6946 35.1525 30.6316 35.5071 30.5852C35.9711 30.5256 36.3473 30.4808 36.6357 30.451C36.9273 30.4179 37.1394 30.3632 37.272 30.2869C37.4079 30.2107 37.4759 30.0781 37.4759 29.8892V29.8494C37.4759 29.3589 37.3416 28.9777 37.0732 28.706C36.808 28.4342 36.4053 28.2983 35.8651 28.2983C35.3049 28.2983 34.8658 28.4209 34.5476 28.6662C34.2294 28.9115 34.0057 29.1733 33.8764 29.4517L32.7628 29.054C32.9616 28.59 33.2268 28.2287 33.5582 27.9702C33.893 27.7083 34.2576 27.526 34.652 27.4233C35.0497 27.3172 35.4408 27.2642 35.8253 27.2642C36.0705 27.2642 36.3523 27.294 36.6705 27.3537C36.992 27.41 37.3018 27.5277 37.6001 27.7067C37.9018 27.8857 38.152 28.1558 38.3509 28.517C38.5497 28.8783 38.6491 29.3622 38.6491 29.9688V35H37.4759V33.9659H37.4162C37.3366 34.1316 37.2041 34.3089 37.0185 34.4979C36.8329 34.6868 36.5859 34.8475 36.2777 34.9801C35.9695 35.1127 35.5933 35.179 35.1491 35.179ZM35.3281 34.125C35.7921 34.125 36.1832 34.0339 36.5014 33.8516C36.8229 33.6693 37.0649 33.4339 37.2273 33.1456C37.393 32.8572 37.4759 32.554 37.4759 32.2358V31.1619C37.4261 31.2216 37.3168 31.2763 37.1477 31.326C36.982 31.3724 36.7898 31.4138 36.571 31.4503C36.3556 31.4834 36.1451 31.5133 35.9396 31.5398C35.7375 31.563 35.5734 31.5829 35.4474 31.5994C35.1425 31.6392 34.8575 31.7038 34.5923 31.7933C34.3305 31.8795 34.1184 32.0104 33.956 32.1861C33.7969 32.3584 33.7173 32.5937 33.7173 32.892C33.7173 33.2997 33.8681 33.608 34.1697 33.8168C34.4747 34.0223 34.8608 34.125 35.3281 34.125ZM41.964 24.8182V35H40.7907V24.8182H41.964ZM45.2862 24.8182V35H44.1129V24.8182H45.2862ZM50.5375 35.1591C49.8481 35.1591 49.2432 34.995 48.7228 34.6669C48.2058 34.3388 47.8014 33.8797 47.5098 33.2898C47.2214 32.6998 47.0772 32.0104 47.0772 31.2216C47.0772 30.4261 47.2214 29.7318 47.5098 29.1385C47.8014 28.5452 48.2058 28.0845 48.7228 27.7564C49.2432 27.4283 49.8481 27.2642 50.5375 27.2642C51.2269 27.2642 51.8301 27.4283 52.3471 27.7564C52.8675 28.0845 53.2718 28.5452 53.5602 29.1385C53.8519 29.7318 53.9977 30.4261 53.9977 31.2216C53.9977 32.0104 53.8519 32.6998 53.5602 33.2898C53.2718 33.8797 52.8675 34.3388 52.3471 34.6669C51.8301 34.995 51.2269 35.1591 50.5375 35.1591ZM50.5375 34.1051C51.0611 34.1051 51.492 33.9709 51.8301 33.7024C52.1681 33.4339 52.4184 33.081 52.5808 32.6435C52.7432 32.206 52.8244 31.732 52.8244 31.2216C52.8244 30.7112 52.7432 30.2356 52.5808 29.7947C52.4184 29.3539 52.1681 28.9976 51.8301 28.7259C51.492 28.4541 51.0611 28.3182 50.5375 28.3182C50.0138 28.3182 49.5829 28.4541 49.2449 28.7259C48.9068 28.9976 48.6565 29.3539 48.4941 29.7947C48.3317 30.2356 48.2505 30.7112 48.2505 31.2216C48.2505 31.732 48.3317 32.206 48.4941 32.6435C48.6565 33.081 48.9068 33.4339 49.2449 33.7024C49.5829 33.9709 50.0138 34.1051 50.5375 34.1051ZM57.2591 35L54.9324 27.3636H56.1653L57.8159 33.2102H57.8954L59.5261 27.3636H60.7789L62.3897 33.1903H62.4693L64.1199 27.3636H65.3528L63.0261 35H61.8727L60.2022 29.1335H60.0829L58.4125 35H57.2591ZM72.313 29.0739L71.2591 29.3722C71.1928 29.1965 71.095 29.0258 70.9657 28.8601C70.8398 28.6911 70.6674 28.5518 70.4487 28.4425C70.2299 28.3331 69.9499 28.2784 69.6085 28.2784C69.1412 28.2784 68.7517 28.3861 68.4402 28.6016C68.1319 28.8137 67.9778 29.0838 67.9778 29.4119C67.9778 29.7036 68.0839 29.9339 68.296 30.103C68.5081 30.272 68.8395 30.4129 69.2903 30.5256L70.4238 30.804C71.1066 30.9697 71.6154 31.2232 71.9501 31.5646C72.2849 31.9027 72.4522 32.3385 72.4522 32.8722C72.4522 33.3097 72.3263 33.7008 72.0744 34.0455C71.8258 34.3902 71.4778 34.6619 71.0304 34.8608C70.5829 35.0597 70.0626 35.1591 69.4693 35.1591C68.6904 35.1591 68.0458 34.9901 67.5353 34.652C67.0249 34.3139 66.7018 33.8201 66.5659 33.1705L67.6795 32.892C67.7856 33.303 67.9861 33.6113 68.2811 33.8168C68.5794 34.0223 68.9688 34.125 69.4494 34.125C69.9963 34.125 70.4305 34.009 70.752 33.777C71.0768 33.5417 71.2392 33.2599 71.2392 32.9318C71.2392 32.6667 71.1464 32.4446 70.9608 32.2656C70.7752 32.0833 70.4901 31.9474 70.1056 31.858L68.8329 31.5597C68.1336 31.3939 67.6199 31.1371 67.2917 30.7891C66.9669 30.4377 66.8045 29.9986 66.8045 29.4716C66.8045 29.0407 66.9255 28.6596 67.1674 28.3281C67.4127 27.9967 67.7458 27.7365 68.1667 27.5476C68.591 27.3587 69.0716 27.2642 69.6085 27.2642C70.3642 27.2642 70.9574 27.4299 71.3883 27.7614C71.8225 28.0928 72.1307 28.5303 72.313 29.0739ZM78.7326 24.8182L81.7553 33.3892H81.8746L84.8974 24.8182H86.19L82.4513 35H81.1786L77.44 24.8182H78.7326ZM90.1076 35.1591C89.3718 35.1591 88.7371 34.9967 88.2035 34.6719C87.6732 34.3438 87.2638 33.8864 86.9755 33.2997C86.6905 32.7098 86.5479 32.0237 86.5479 31.2415C86.5479 30.4593 86.6905 29.7699 86.9755 29.1733C87.2638 28.5734 87.6649 28.1061 88.1786 27.7713C88.6957 27.4332 89.2989 27.2642 89.9883 27.2642C90.386 27.2642 90.7788 27.3305 91.1665 27.4631C91.5543 27.5956 91.9073 27.8111 92.2255 28.1094C92.5437 28.4044 92.7972 28.7955 92.9862 29.2827C93.1751 29.7699 93.2695 30.3698 93.2695 31.0824V31.5795H87.3832V30.5653H92.0763C92.0763 30.1345 91.9902 29.75 91.8178 29.4119C91.6488 29.0739 91.4068 28.8071 91.092 28.6115C90.7804 28.416 90.4125 28.3182 89.9883 28.3182C89.521 28.3182 89.1166 28.4342 88.7752 28.6662C88.4371 28.8949 88.177 29.1932 87.9947 29.5611C87.8124 29.929 87.7212 30.3234 87.7212 30.7443V31.4205C87.7212 31.9972 87.8207 32.486 88.0195 32.8871C88.2217 33.2848 88.5018 33.5881 88.8597 33.7969C89.2177 34.0024 89.6336 34.1051 90.1076 34.1051C90.4158 34.1051 90.6942 34.062 90.9428 33.9759C91.1947 33.8864 91.4118 33.7538 91.5941 33.5781C91.7764 33.3991 91.9173 33.1771 92.0167 32.9119L93.1502 33.2301C93.0309 33.6146 92.8304 33.9527 92.5487 34.2443C92.2669 34.5327 91.9189 34.758 91.5046 34.9205C91.0903 35.0795 90.6246 35.1591 90.1076 35.1591ZM95.0543 35V27.3636H96.1879V28.517H96.2674C96.4066 28.1392 96.6585 27.8326 97.0231 27.5973C97.3877 27.362 97.7987 27.2443 98.256 27.2443C98.3422 27.2443 98.4499 27.246 98.5792 27.2493C98.7085 27.2526 98.8062 27.2576 98.8725 27.2642V28.4574C98.8327 28.4474 98.7416 28.4325 98.5991 28.4126C98.4599 28.3894 98.3124 28.3778 98.1566 28.3778C97.7854 28.3778 97.454 28.4557 97.1623 28.6115C96.8739 28.764 96.6452 28.9761 96.4762 29.2479C96.3105 29.5163 96.2276 29.8229 96.2276 30.1676V35H95.0543ZM102.51 35.179C102.027 35.179 101.587 35.0878 101.193 34.9055C100.799 34.7199 100.485 34.4531 100.253 34.1051C100.021 33.7538 99.9054 33.3295 99.9054 32.8324C99.9054 32.3949 99.9915 32.0402 100.164 31.7685C100.336 31.4934 100.567 31.2779 100.855 31.1222C101.143 30.9664 101.461 30.8504 101.809 30.7741C102.161 30.6946 102.514 30.6316 102.868 30.5852C103.332 30.5256 103.709 30.4808 103.997 30.451C104.289 30.4179 104.501 30.3632 104.633 30.2869C104.769 30.2107 104.837 30.0781 104.837 29.8892V29.8494C104.837 29.3589 104.703 28.9777 104.434 28.706C104.169 28.4342 103.767 28.2983 103.226 28.2983C102.666 28.2983 102.227 28.4209 101.909 28.6662C101.591 28.9115 101.367 29.1733 101.238 29.4517L100.124 29.054C100.323 28.59 100.588 28.2287 100.92 27.9702C101.254 27.7083 101.619 27.526 102.013 27.4233C102.411 27.3172 102.802 27.2642 103.187 27.2642C103.432 27.2642 103.714 27.294 104.032 27.3537C104.353 27.41 104.663 27.5277 104.961 27.7067C105.263 27.8857 105.513 28.1558 105.712 28.517C105.911 28.8783 106.01 29.3622 106.01 29.9688V35H104.837V33.9659H104.778C104.698 34.1316 104.565 34.3089 104.38 34.4979C104.194 34.6868 103.947 34.8475 103.639 34.9801C103.331 35.1127 102.955 35.179 102.51 35.179ZM102.689 34.125C103.153 34.125 103.545 34.0339 103.863 33.8516C104.184 33.6693 104.426 33.4339 104.589 33.1456C104.754 32.8572 104.837 32.554 104.837 32.2358V31.1619C104.787 31.2216 104.678 31.2763 104.509 31.326C104.343 31.3724 104.151 31.4138 103.932 31.4503C103.717 31.4834 103.506 31.5133 103.301 31.5398C103.099 31.563 102.935 31.5829 102.809 31.5994C102.504 31.6392 102.219 31.7038 101.954 31.7933C101.692 31.8795 101.48 32.0104 101.317 32.1861C101.158 32.3584 101.079 32.5937 101.079 32.892C101.079 33.2997 101.229 33.608 101.531 33.8168C101.836 34.0223 102.222 34.125 102.689 34.125ZM111.553 27.3636V28.358H107.436V27.3636H111.553ZM108.669 35V26.3097C108.669 25.8722 108.772 25.5076 108.977 25.2159C109.183 24.9242 109.45 24.7055 109.778 24.5597C110.106 24.4138 110.452 24.3409 110.817 24.3409C111.105 24.3409 111.34 24.3641 111.523 24.4105C111.705 24.4569 111.841 24.5 111.93 24.5398L111.592 25.554C111.533 25.5341 111.45 25.5092 111.344 25.4794C111.241 25.4496 111.105 25.4347 110.936 25.4347C110.548 25.4347 110.268 25.5324 110.096 25.728C109.927 25.9235 109.842 26.2102 109.842 26.5881V35H108.669ZM113.197 35V27.3636H114.37V35H113.197ZM113.794 26.0909C113.565 26.0909 113.368 26.013 113.202 25.8572C113.039 25.7015 112.958 25.5142 112.958 25.2955C112.958 25.0767 113.039 24.8894 113.202 24.7337C113.368 24.5779 113.565 24.5 113.794 24.5C114.022 24.5 114.218 24.5779 114.38 24.7337C114.546 24.8894 114.629 25.0767 114.629 25.2955C114.629 25.5142 114.546 25.7015 114.38 25.8572C114.218 26.013 114.022 26.0909 113.794 26.0909ZM123.778 27.3636V28.358H119.82V27.3636H123.778ZM120.974 25.5341H122.147V32.8125C122.147 33.1439 122.195 33.3925 122.291 33.5582C122.391 33.7206 122.517 33.83 122.669 33.8864C122.825 33.9394 122.989 33.9659 123.161 33.9659C123.29 33.9659 123.397 33.9593 123.479 33.946C123.562 33.9295 123.629 33.9162 123.678 33.9062L123.917 34.9602C123.837 34.9901 123.726 35.0199 123.584 35.0497C123.441 35.0829 123.261 35.0994 123.042 35.0994C122.71 35.0994 122.386 35.0282 122.067 34.8857C121.753 34.7431 121.491 34.526 121.282 34.2344C121.076 33.9427 120.974 33.5748 120.974 33.1307V25.5341ZM128.563 35.1591C127.873 35.1591 127.269 34.995 126.748 34.6669C126.231 34.3388 125.827 33.8797 125.535 33.2898C125.247 32.6998 125.103 32.0104 125.103 31.2216C125.103 30.4261 125.247 29.7318 125.535 29.1385C125.827 28.5452 126.231 28.0845 126.748 27.7564C127.269 27.4283 127.873 27.2642 128.563 27.2642C129.252 27.2642 129.855 27.4283 130.373 27.7564C130.893 28.0845 131.297 28.5452 131.586 29.1385C131.877 29.7318 132.023 30.4261 132.023 31.2216C132.023 32.0104 131.877 32.6998 131.586 33.2898C131.297 33.8797 130.893 34.3388 130.373 34.6669C129.855 34.995 129.252 35.1591 128.563 35.1591ZM128.563 34.1051C129.087 34.1051 129.517 33.9709 129.855 33.7024C130.194 33.4339 130.444 33.081 130.606 32.6435C130.769 32.206 130.85 31.732 130.85 31.2216C130.85 30.7112 130.769 30.2356 130.606 29.7947C130.444 29.3539 130.194 28.9976 129.855 28.7259C129.517 28.4541 129.087 28.3182 128.563 28.3182C128.039 28.3182 127.608 28.4541 127.27 28.7259C126.932 28.9976 126.682 29.3539 126.52 29.7947C126.357 30.2356 126.276 30.7112 126.276 31.2216C126.276 31.732 126.357 32.206 126.52 32.6435C126.682 33.081 126.932 33.4339 127.27 33.7024C127.608 33.9709 128.039 34.1051 128.563 34.1051ZM143.161 29.0739L142.107 29.3722C142.04 29.1965 141.943 29.0258 141.813 28.8601C141.687 28.6911 141.515 28.5518 141.296 28.4425C141.078 28.3331 140.798 28.2784 140.456 28.2784C139.989 28.2784 139.599 28.3861 139.288 28.6016C138.98 28.8137 138.825 29.0838 138.825 29.4119C138.825 29.7036 138.932 29.9339 139.144 30.103C139.356 30.272 139.687 30.4129 140.138 30.5256L141.271 30.804C141.954 30.9697 142.463 31.2232 142.798 31.5646C143.133 31.9027 143.3 32.3385 143.3 32.8722C143.3 33.3097 143.174 33.7008 142.922 34.0455C142.673 34.3902 142.325 34.6619 141.878 34.8608C141.431 35.0597 140.91 35.1591 140.317 35.1591C139.538 35.1591 138.893 34.9901 138.383 34.652C137.873 34.3139 137.549 33.8201 137.414 33.1705L138.527 32.892C138.633 33.303 138.834 33.6113 139.129 33.8168C139.427 34.0223 139.816 34.125 140.297 34.125C140.844 34.125 141.278 34.009 141.6 33.777C141.924 33.5417 142.087 33.2599 142.087 32.9318C142.087 32.6667 141.994 32.4446 141.808 32.2656C141.623 32.0833 141.338 31.9474 140.953 31.858L139.681 31.5597C138.981 31.3939 138.468 31.1371 138.139 30.7891C137.815 30.4377 137.652 29.9986 137.652 29.4716C137.652 29.0407 137.773 28.6596 138.015 28.3281C138.26 27.9967 138.593 27.7365 139.014 27.5476C139.439 27.3587 139.919 27.2642 140.456 27.2642C141.212 27.2642 141.805 27.4299 142.236 27.7614C142.67 28.0928 142.978 28.5303 143.161 29.0739ZM146.239 30.4062V35H145.066V24.8182H146.239V28.5568H146.339C146.518 28.1624 146.786 27.8492 147.144 27.6172C147.505 27.3819 147.986 27.2642 148.586 27.2642C149.106 27.2642 149.562 27.3686 149.953 27.5774C150.344 27.7829 150.647 28.0994 150.863 28.527C151.082 28.9512 151.191 29.4915 151.191 30.1477V35H150.018V30.2273C150.018 29.6207 149.86 29.1518 149.545 28.8203C149.234 28.4856 148.801 28.3182 148.248 28.3182C147.863 28.3182 147.519 28.3994 147.214 28.5618C146.912 28.7242 146.674 28.9612 146.498 29.2727C146.326 29.5843 146.239 29.9621 146.239 30.4062ZM156.44 35.1591C155.75 35.1591 155.146 34.995 154.625 34.6669C154.108 34.3388 153.704 33.8797 153.412 33.2898C153.124 32.6998 152.98 32.0104 152.98 31.2216C152.98 30.4261 153.124 29.7318 153.412 29.1385C153.704 28.5452 154.108 28.0845 154.625 27.7564C155.146 27.4283 155.75 27.2642 156.44 27.2642C157.129 27.2642 157.732 27.4283 158.249 27.7564C158.77 28.0845 159.174 28.5452 159.463 29.1385C159.754 29.7318 159.9 30.4261 159.9 31.2216C159.9 32.0104 159.754 32.6998 159.463 33.2898C159.174 33.8797 158.77 34.3388 158.249 34.6669C157.732 34.995 157.129 35.1591 156.44 35.1591ZM156.44 34.1051C156.963 34.1051 157.394 33.9709 157.732 33.7024C158.07 33.4339 158.321 33.081 158.483 32.6435C158.646 32.206 158.727 31.732 158.727 31.2216C158.727 30.7112 158.646 30.2356 158.483 29.7947C158.321 29.3539 158.07 28.9976 157.732 28.7259C157.394 28.4541 156.963 28.3182 156.44 28.3182C155.916 28.3182 155.485 28.4541 155.147 28.7259C154.809 28.9976 154.559 29.3539 154.396 29.7947C154.234 30.2356 154.153 30.7112 154.153 31.2216C154.153 31.732 154.234 32.206 154.396 32.6435C154.559 33.081 154.809 33.4339 155.147 33.7024C155.485 33.9709 155.916 34.1051 156.44 34.1051ZM163.161 35L160.835 27.3636H162.068L163.718 33.2102H163.798L165.428 27.3636H166.681L168.292 33.1903H168.372L170.022 27.3636H171.255L168.928 35H167.775L166.105 29.1335H165.985L164.315 35H163.161ZM177.499 37.8636C177.301 37.8636 177.123 37.8471 176.968 37.8139C176.812 37.7841 176.704 37.7543 176.644 37.7244L176.943 36.6903C177.228 36.7633 177.48 36.7898 177.698 36.7699C177.917 36.75 178.111 36.6522 178.28 36.4766C178.452 36.3042 178.61 36.0241 178.752 35.6364L178.971 35.0398L176.147 27.3636H177.42L179.528 33.4489H179.607L181.715 27.3636H182.988L179.747 36.1136C179.601 36.508 179.42 36.8345 179.205 37.093C178.989 37.3549 178.739 37.5488 178.454 37.6747C178.172 37.8007 177.854 37.8636 177.499 37.8636ZM187.366 35.1591C186.676 35.1591 186.071 34.995 185.551 34.6669C185.034 34.3388 184.63 33.8797 184.338 33.2898C184.05 32.6998 183.905 32.0104 183.905 31.2216C183.905 30.4261 184.05 29.7318 184.338 29.1385C184.63 28.5452 185.034 28.0845 185.551 27.7564C186.071 27.4283 186.676 27.2642 187.366 27.2642C188.055 27.2642 188.658 27.4283 189.175 27.7564C189.696 28.0845 190.1 28.5452 190.388 29.1385C190.68 29.7318 190.826 30.4261 190.826 31.2216C190.826 32.0104 190.68 32.6998 190.388 33.2898C190.1 33.8797 189.696 34.3388 189.175 34.6669C188.658 34.995 188.055 35.1591 187.366 35.1591ZM187.366 34.1051C187.889 34.1051 188.32 33.9709 188.658 33.7024C188.996 33.4339 189.247 33.081 189.409 32.6435C189.571 32.206 189.653 31.732 189.653 31.2216C189.653 30.7112 189.571 30.2356 189.409 29.7947C189.247 29.3539 188.996 28.9976 188.658 28.7259C188.32 28.4541 187.889 28.3182 187.366 28.3182C186.842 28.3182 186.411 28.4541 186.073 28.7259C185.735 28.9976 185.485 29.3539 185.322 29.7947C185.16 30.2356 185.079 30.7112 185.079 31.2216C185.079 31.732 185.16 32.206 185.322 32.6435C185.485 33.081 185.735 33.4339 186.073 33.7024C186.411 33.9709 186.842 34.1051 187.366 34.1051ZM197.429 31.8778V27.3636H198.603V35H197.429V33.7074H197.35C197.171 34.0952 196.892 34.425 196.515 34.6967C196.137 34.9652 195.659 35.0994 195.083 35.0994C194.605 35.0994 194.181 34.995 193.81 34.7862C193.439 34.5741 193.147 34.2559 192.935 33.8317C192.723 33.4041 192.617 32.8655 192.617 32.2159V27.3636H193.79V32.1364C193.79 32.6932 193.946 33.1373 194.257 33.4688C194.572 33.8002 194.973 33.9659 195.461 33.9659C195.752 33.9659 196.049 33.8913 196.35 33.7422C196.655 33.593 196.911 33.3643 197.116 33.0561C197.325 32.7479 197.429 32.3551 197.429 31.8778ZM205.445 37.8636C205.246 37.8636 205.069 37.8471 204.913 37.8139C204.757 37.7841 204.649 37.7543 204.59 37.7244L204.888 36.6903C205.173 36.7633 205.425 36.7898 205.644 36.7699C205.862 36.75 206.056 36.6522 206.225 36.4766C206.398 36.3042 206.555 36.0241 206.698 35.6364L206.916 35.0398L204.093 27.3636H205.365L207.473 33.4489H207.553L209.661 27.3636H210.933L207.692 36.1136C207.546 36.508 207.365 36.8345 207.15 37.093C206.935 37.3549 206.684 37.5488 206.399 37.6747C206.118 37.8007 205.799 37.8636 205.445 37.8636ZM215.311 35.1591C214.622 35.1591 214.017 34.995 213.496 34.6669C212.979 34.3388 212.575 33.8797 212.283 33.2898C211.995 32.6998 211.851 32.0104 211.851 31.2216C211.851 30.4261 211.995 29.7318 212.283 29.1385C212.575 28.5452 212.979 28.0845 213.496 27.7564C214.017 27.4283 214.622 27.2642 215.311 27.2642C216 27.2642 216.604 27.4283 217.121 27.7564C217.641 28.0845 218.045 28.5452 218.334 29.1385C218.625 29.7318 218.771 30.4261 218.771 31.2216C218.771 32.0104 218.625 32.6998 218.334 33.2898C218.045 33.8797 217.641 34.3388 217.121 34.6669C216.604 34.995 216 35.1591 215.311 35.1591ZM215.311 34.1051C215.835 34.1051 216.265 33.9709 216.604 33.7024C216.942 33.4339 217.192 33.081 217.354 32.6435C217.517 32.206 217.598 31.732 217.598 31.2216C217.598 30.7112 217.517 30.2356 217.354 29.7947C217.192 29.3539 216.942 28.9976 216.604 28.7259C216.265 28.4541 215.835 28.3182 215.311 28.3182C214.787 28.3182 214.356 28.4541 214.018 28.7259C213.68 28.9976 213.43 29.3539 213.268 29.7947C213.105 30.2356 213.024 30.7112 213.024 31.2216C213.024 31.732 213.105 32.206 213.268 32.6435C213.43 33.081 213.68 33.4339 214.018 33.7024C214.356 33.9709 214.787 34.1051 215.311 34.1051ZM225.375 31.8778V27.3636H226.548V35H225.375V33.7074H225.295C225.116 34.0952 224.838 34.425 224.46 34.6967C224.082 34.9652 223.605 35.0994 223.028 35.0994C222.551 35.0994 222.127 34.995 221.755 34.7862C221.384 34.5741 221.092 34.2559 220.88 33.8317C220.668 33.4041 220.562 32.8655 220.562 32.2159V27.3636H221.735V32.1364C221.735 32.6932 221.891 33.1373 222.203 33.4688C222.518 33.8002 222.919 33.9659 223.406 33.9659C223.698 33.9659 223.994 33.8913 224.296 33.7422C224.601 33.593 224.856 33.3643 225.061 33.0561C225.27 32.7479 225.375 32.3551 225.375 31.8778ZM228.697 35V27.3636H229.83V28.517H229.91C230.049 28.1392 230.301 27.8326 230.666 27.5973C231.03 27.362 231.441 27.2443 231.899 27.2443C231.985 27.2443 232.093 27.246 232.222 27.2493C232.351 27.2526 232.449 27.2576 232.515 27.2642V28.4574C232.475 28.4474 232.384 28.4325 232.242 28.4126C232.102 28.3894 231.955 28.3778 231.799 28.3778C231.428 28.3778 231.097 28.4557 230.805 28.6115C230.517 28.764 230.288 28.9761 230.119 29.2479C229.953 29.5163 229.87 29.8229 229.87 30.1676V35H228.697ZM243.252 29.0739L242.199 29.3722C242.132 29.1965 242.034 29.0258 241.905 28.8601C241.779 28.6911 241.607 28.5518 241.388 28.4425C241.169 28.3331 240.889 28.2784 240.548 28.2784C240.081 28.2784 239.691 28.3861 239.38 28.6016C239.071 28.8137 238.917 29.0838 238.917 29.4119C238.917 29.7036 239.023 29.9339 239.235 30.103C239.448 30.272 239.779 30.4129 240.23 30.5256L241.363 30.804C242.046 30.9697 242.555 31.2232 242.89 31.5646C243.224 31.9027 243.392 32.3385 243.392 32.8722C243.392 33.3097 243.266 33.7008 243.014 34.0455C242.765 34.3902 242.417 34.6619 241.97 34.8608C241.522 35.0597 241.002 35.1591 240.409 35.1591C239.63 35.1591 238.985 34.9901 238.475 34.652C237.964 34.3139 237.641 33.8201 237.505 33.1705L238.619 32.892C238.725 33.303 238.926 33.6113 239.221 33.8168C239.519 34.0223 239.908 34.125 240.389 34.125C240.936 34.125 241.37 34.009 241.691 33.777C242.016 33.5417 242.179 33.2599 242.179 32.9318C242.179 32.6667 242.086 32.4446 241.9 32.2656C241.715 32.0833 241.43 31.9474 241.045 31.858L239.772 31.5597C239.073 31.3939 238.559 31.1371 238.231 30.7891C237.906 30.4377 237.744 29.9986 237.744 29.4716C237.744 29.0407 237.865 28.6596 238.107 28.3281C238.352 27.9967 238.685 27.7365 239.106 27.5476C239.53 27.3587 240.011 27.2642 240.548 27.2642C241.304 27.2642 241.897 27.4299 242.328 27.7614C242.762 28.0928 243.07 28.5303 243.252 29.0739ZM248.26 35.1591C247.544 35.1591 246.928 34.9901 246.411 34.652C245.894 34.3139 245.496 33.8482 245.218 33.255C244.939 32.6617 244.8 31.9839 244.8 31.2216C244.8 30.446 244.942 29.7616 245.227 29.1683C245.516 28.5717 245.917 28.1061 246.431 27.7713C246.948 27.4332 247.551 27.2642 248.24 27.2642C248.777 27.2642 249.261 27.3636 249.692 27.5625C250.123 27.7614 250.476 28.0398 250.751 28.3977C251.026 28.7557 251.197 29.1733 251.263 29.6506H250.09C250 29.3026 249.801 28.9943 249.493 28.7259C249.188 28.4541 248.777 28.3182 248.26 28.3182C247.803 28.3182 247.402 28.4375 247.057 28.6761C246.716 28.9115 246.449 29.2446 246.257 29.6754C246.068 30.103 245.973 30.6051 245.973 31.1818C245.973 31.7718 246.066 32.2855 246.252 32.723C246.441 33.1605 246.706 33.5002 247.047 33.7422C247.392 33.9841 247.796 34.1051 248.26 34.1051C248.565 34.1051 248.842 34.0521 249.09 33.946C249.339 33.84 249.549 33.6875 249.722 33.4886C249.894 33.2898 250.017 33.0511 250.09 32.7727H251.263C251.197 33.2235 251.033 33.6295 250.771 33.9908C250.512 34.3487 250.169 34.6338 249.742 34.8459C249.317 35.0547 248.824 35.1591 248.26 35.1591ZM256.08 35.1591C255.391 35.1591 254.786 34.995 254.266 34.6669C253.749 34.3388 253.344 33.8797 253.053 33.2898C252.764 32.6998 252.62 32.0104 252.62 31.2216C252.62 30.4261 252.764 29.7318 253.053 29.1385C253.344 28.5452 253.749 28.0845 254.266 27.7564C254.786 27.4283 255.391 27.2642 256.08 27.2642C256.77 27.2642 257.373 27.4283 257.89 27.7564C258.41 28.0845 258.815 28.5452 259.103 29.1385C259.395 29.7318 259.541 30.4261 259.541 31.2216C259.541 32.0104 259.395 32.6998 259.103 33.2898C258.815 33.8797 258.41 34.3388 257.89 34.6669C257.373 34.995 256.77 35.1591 256.08 35.1591ZM256.08 34.1051C256.604 34.1051 257.035 33.9709 257.373 33.7024C257.711 33.4339 257.961 33.081 258.124 32.6435C258.286 32.206 258.367 31.732 258.367 31.2216C258.367 30.7112 258.286 30.2356 258.124 29.7947C257.961 29.3539 257.711 28.9976 257.373 28.7259C257.035 28.4541 256.604 28.3182 256.08 28.3182C255.557 28.3182 255.126 28.4541 254.788 28.7259C254.45 28.9976 254.2 29.3539 254.037 29.7947C253.875 30.2356 253.794 30.7112 253.794 31.2216C253.794 31.732 253.875 32.206 254.037 32.6435C254.2 33.081 254.45 33.4339 254.788 33.7024C255.126 33.9709 255.557 34.1051 256.08 34.1051ZM261.332 35V27.3636H262.465V28.517H262.545C262.684 28.1392 262.936 27.8326 263.3 27.5973C263.665 27.362 264.076 27.2443 264.533 27.2443C264.62 27.2443 264.727 27.246 264.857 27.2493C264.986 27.2526 265.084 27.2576 265.15 27.2642V28.4574C265.11 28.4474 265.019 28.4325 264.876 28.4126C264.737 28.3894 264.59 28.3778 264.434 28.3778C264.063 28.3778 263.731 28.4557 263.44 28.6115C263.151 28.764 262.923 28.9761 262.754 29.2479C262.588 29.5163 262.505 29.8229 262.505 30.1676V35H261.332ZM269.51 35.1591C268.774 35.1591 268.139 34.9967 267.606 34.6719C267.076 34.3438 266.666 33.8864 266.378 33.2997C266.093 32.7098 265.95 32.0237 265.95 31.2415C265.95 30.4593 266.093 29.7699 266.378 29.1733C266.666 28.5734 267.067 28.1061 267.581 27.7713C268.098 27.4332 268.701 27.2642 269.391 27.2642C269.788 27.2642 270.181 27.3305 270.569 27.4631C270.957 27.5956 271.31 27.8111 271.628 28.1094C271.946 28.4044 272.2 28.7955 272.388 29.2827C272.577 29.7699 272.672 30.3698 272.672 31.0824V31.5795H266.786V30.5653H271.479C271.479 30.1345 271.393 29.75 271.22 29.4119C271.051 29.0739 270.809 28.8071 270.494 28.6115C270.183 28.416 269.815 28.3182 269.391 28.3182C268.923 28.3182 268.519 28.4342 268.178 28.6662C267.839 28.8949 267.579 29.1932 267.397 29.5611C267.215 29.929 267.124 30.3234 267.124 30.7443V31.4205C267.124 31.9972 267.223 32.486 267.422 32.8871C267.624 33.2848 267.904 33.5881 268.262 33.7969C268.62 34.0024 269.036 34.1051 269.51 34.1051C269.818 34.1051 270.097 34.062 270.345 33.9759C270.597 33.8864 270.814 33.7538 270.996 33.5781C271.179 33.3991 271.32 33.1771 271.419 32.9119L272.553 33.2301C272.433 33.6146 272.233 33.9527 271.951 34.2443C271.669 34.5327 271.321 34.758 270.907 34.9205C270.493 35.0795 270.027 35.1591 269.51 35.1591Z" fill="#475467"/>
</svg>
