<svg width="352" height="72" viewBox="0 0 352 72" fill="none" xmlns="http://www.w3.org/2000/svg">
<path d="M3.04261 7.90909L6.44957 18.2131H6.58381L9.98438 7.90909H12.5923L7.97727 21H5.04972L0.441051 7.90909H3.04261ZM17.5062 21.1918C16.5218 21.1918 15.6717 20.9872 14.9558 20.5781C14.2441 20.1648 13.6966 19.581 13.313 18.8267C12.9295 18.0682 12.7377 17.1754 12.7377 16.1484C12.7377 15.1385 12.9295 14.2521 13.313 13.4893C13.7008 12.7223 14.242 12.1257 14.9366 11.6996C15.6312 11.2692 16.4473 11.054 17.3848 11.054C17.9899 11.054 18.5609 11.152 19.0978 11.348C19.639 11.5398 20.1163 11.8381 20.5297 12.2429C20.9473 12.6477 21.2754 13.1634 21.514 13.7898C21.7527 14.4119 21.872 15.1534 21.872 16.0142V16.7237H13.8244V15.1641H19.6539C19.6497 14.7209 19.5538 14.3267 19.3663 13.9815C19.1788 13.6321 18.9167 13.3572 18.5801 13.157C18.2477 12.9567 17.8599 12.8565 17.4167 12.8565C16.9437 12.8565 16.5282 12.9716 16.1703 13.2017C15.8123 13.4276 15.5332 13.7259 15.3329 14.0966C15.1369 14.4631 15.0368 14.8658 15.0325 15.3047V16.6662C15.0325 17.2372 15.1369 17.7273 15.3457 18.1364C15.5545 18.5412 15.8464 18.8523 16.2214 19.0696C16.5964 19.2827 17.0353 19.3892 17.5382 19.3892C17.8748 19.3892 18.1795 19.3423 18.4522 19.2486C18.725 19.1506 18.9615 19.0078 19.1618 18.8203C19.362 18.6328 19.5133 18.4006 19.6156 18.1236L21.7761 18.3665C21.6397 18.9375 21.3798 19.4361 20.9963 19.8622C20.617 20.2841 20.1312 20.6122 19.5389 20.8466C18.9466 21.0767 18.269 21.1918 17.5062 21.1918ZM23.8295 21V11.1818H26.0732V12.8182H26.1754C26.3544 12.2514 26.6612 11.8146 27.0959 11.5078C27.5348 11.1967 28.0355 11.0412 28.598 11.0412C28.7259 11.0412 28.8686 11.0476 29.0263 11.0604C29.1882 11.0689 29.3224 11.0838 29.429 11.1051V13.2337C29.331 13.1996 29.1754 13.1697 28.9624 13.1442C28.7536 13.1143 28.5511 13.0994 28.3551 13.0994C27.9332 13.0994 27.554 13.1911 27.2173 13.3743C26.8849 13.5533 26.6229 13.8026 26.4311 14.1222C26.2393 14.4418 26.1435 14.8104 26.1435 15.228V21H23.8295ZM33.6158 21.1982C32.9936 21.1982 32.4332 21.0874 31.9347 20.8658C31.4403 20.6399 31.0483 20.3075 30.7585 19.8686C30.473 19.4297 30.3303 18.8885 30.3303 18.245C30.3303 17.6911 30.4325 17.233 30.6371 16.8707C30.8416 16.5085 31.1207 16.2188 31.4744 16.0014C31.8281 15.7841 32.2266 15.62 32.6697 15.5092C33.1172 15.3942 33.5795 15.3111 34.0568 15.2599C34.6321 15.2003 35.0987 15.147 35.4567 15.1001C35.8146 15.049 36.0746 14.9723 36.2365 14.87C36.4027 14.7635 36.4858 14.5994 36.4858 14.3778V14.3395C36.4858 13.858 36.343 13.4851 36.0575 13.2209C35.772 12.9567 35.3608 12.8246 34.8239 12.8246C34.2571 12.8246 33.8075 12.9482 33.4751 13.1953C33.147 13.4425 32.9254 13.7344 32.8104 14.071L30.6499 13.7642C30.8203 13.1676 31.1016 12.669 31.4936 12.2685C31.8857 11.8636 32.3651 11.5611 32.9318 11.3608C33.4986 11.1562 34.125 11.054 34.8111 11.054C35.2841 11.054 35.755 11.1094 36.2237 11.2202C36.6925 11.331 37.1207 11.5142 37.5085 11.7699C37.8963 12.0213 38.2074 12.3643 38.4418 12.799C38.6804 13.2337 38.7997 13.777 38.7997 14.429V21H36.5753V19.6513H36.4986C36.358 19.924 36.1598 20.1797 35.9041 20.4183C35.6527 20.6527 35.3352 20.8423 34.9517 20.9872C34.5724 21.1278 34.1271 21.1982 33.6158 21.1982ZM34.2166 19.4979C34.6811 19.4979 35.0838 19.4062 35.4247 19.223C35.7656 19.0355 36.0277 18.7884 36.2109 18.4815C36.3984 18.1747 36.4922 17.8402 36.4922 17.478V16.321C36.4197 16.3807 36.2962 16.4361 36.1214 16.4872C35.951 16.5384 35.7592 16.5831 35.5462 16.6214C35.3331 16.6598 35.1222 16.6939 34.9134 16.7237C34.7045 16.7536 34.5234 16.7791 34.37 16.8004C34.0249 16.8473 33.7159 16.924 33.4432 17.0305C33.1705 17.1371 32.9553 17.2862 32.7976 17.478C32.6399 17.6655 32.5611 17.9084 32.5611 18.2067C32.5611 18.6328 32.7166 18.9545 33.0277 19.1719C33.3388 19.3892 33.7351 19.4979 34.2166 19.4979ZM41.2287 21V7.90909H49.6151V9.89702H43.6001V13.451H49.0398V15.4389H43.6001V21H41.2287ZM51.6733 21V11.1818H53.9872V21H51.6733ZM52.8366 9.78835C52.4702 9.78835 52.1548 9.6669 51.8906 9.42401C51.6264 9.17685 51.4943 8.88068 51.4943 8.53551C51.4943 8.18608 51.6264 7.88991 51.8906 7.64702C52.1548 7.39986 52.4702 7.27628 52.8366 7.27628C53.2074 7.27628 53.5227 7.39986 53.7827 7.64702C54.0469 7.88991 54.179 8.18608 54.179 8.53551C54.179 8.88068 54.0469 9.17685 53.7827 9.42401C53.5227 9.6669 53.2074 9.78835 52.8366 9.78835ZM68.0481 11.5078C67.9885 10.9496 67.737 10.5149 67.2939 10.2038C66.8549 9.89276 66.2839 9.73722 65.5808 9.73722C65.0865 9.73722 64.6625 9.81179 64.3088 9.96094C63.9551 10.1101 63.6845 10.3125 63.497 10.5682C63.3095 10.8239 63.2136 11.1158 63.2093 11.4439C63.2093 11.7166 63.2711 11.9531 63.3947 12.1534C63.5225 12.3537 63.6951 12.5241 63.9125 12.6648C64.1298 12.8011 64.3706 12.9162 64.6348 13.0099C64.899 13.1037 65.1653 13.1825 65.4338 13.2464L66.661 13.5533C67.1554 13.6683 67.6305 13.8239 68.0865 14.0199C68.5467 14.2159 68.9579 14.4631 69.3201 14.7614C69.6866 15.0597 69.9764 15.4197 70.1895 15.8416C70.4025 16.2635 70.5091 16.7578 70.5091 17.3246C70.5091 18.0916 70.313 18.767 69.921 19.3509C69.5289 19.9304 68.9622 20.3842 68.2207 20.7124C67.4835 21.0362 66.5907 21.1982 65.5424 21.1982C64.524 21.1982 63.6397 21.0405 62.8897 20.7251C62.144 20.4098 61.5602 19.9496 61.1383 19.3445C60.7207 18.7393 60.4949 18.0021 60.4608 17.1328H62.7939C62.8279 17.5888 62.9686 17.968 63.2157 18.2706C63.4629 18.5732 63.7846 18.799 64.1809 18.9482C64.5815 19.0973 65.0289 19.1719 65.5233 19.1719C66.0389 19.1719 66.4906 19.0952 66.8784 18.9418C67.2704 18.7841 67.5772 18.5668 67.7988 18.2898C68.0204 18.0085 68.1333 17.6804 68.1376 17.3054C68.1333 16.9645 68.0332 16.6832 67.8372 16.4616C67.6412 16.2358 67.3663 16.0483 67.0126 15.8991C66.6632 15.7457 66.2541 15.6094 65.7853 15.4901L64.296 15.1065C63.2179 14.8295 62.3656 14.4098 61.7392 13.8473C61.117 13.2805 60.8059 12.5284 60.8059 11.5909C60.8059 10.8196 61.0147 10.1442 61.4324 9.56463C61.8542 8.98509 62.4274 8.53551 63.1518 8.21591C63.8762 7.89204 64.6966 7.73011 65.6127 7.73011C66.5417 7.73011 67.3556 7.89204 68.0545 8.21591C68.7576 8.53551 69.3095 8.98082 69.7101 9.55185C70.1106 10.1186 70.3173 10.7706 70.3301 11.5078H68.0481ZM75.3462 21.1982C74.7241 21.1982 74.1637 21.0874 73.6651 20.8658C73.1708 20.6399 72.7788 20.3075 72.489 19.8686C72.2035 19.4297 72.0607 18.8885 72.0607 18.245C72.0607 17.6911 72.163 17.233 72.3675 16.8707C72.5721 16.5085 72.8512 16.2188 73.2049 16.0014C73.5586 15.7841 73.957 15.62 74.4002 15.5092C74.8477 15.3942 75.31 15.3111 75.7873 15.2599C76.3626 15.2003 76.8292 15.147 77.1871 15.1001C77.5451 15.049 77.805 14.9723 77.967 14.87C78.1332 14.7635 78.2163 14.5994 78.2163 14.3778V14.3395C78.2163 13.858 78.0735 13.4851 77.788 13.2209C77.5025 12.9567 77.0913 12.8246 76.5543 12.8246C75.9876 12.8246 75.538 12.9482 75.2056 13.1953C74.8775 13.4425 74.6559 13.7344 74.5408 14.071L72.3803 13.7642C72.5508 13.1676 72.832 12.669 73.2241 12.2685C73.6161 11.8636 74.0955 11.5611 74.6623 11.3608C75.229 11.1562 75.8555 11.054 76.5415 11.054C77.0146 11.054 77.4854 11.1094 77.9542 11.2202C78.4229 11.331 78.8512 11.5142 79.239 11.7699C79.6268 12.0213 79.9379 12.3643 80.1722 12.799C80.4109 13.2337 80.5302 13.777 80.5302 14.429V21H78.3058V19.6513H78.229C78.0884 19.924 77.8903 20.1797 77.6346 20.4183C77.3832 20.6527 77.0657 20.8423 76.6822 20.9872C76.3029 21.1278 75.8576 21.1982 75.3462 21.1982ZM75.9471 19.4979C76.4116 19.4979 76.8143 19.4062 77.1552 19.223C77.4961 19.0355 77.7582 18.7884 77.9414 18.4815C78.1289 18.1747 78.2227 17.8402 78.2227 17.478V16.321C78.1502 16.3807 78.0266 16.4361 77.8519 16.4872C77.6815 16.5384 77.4897 16.5831 77.2766 16.6214C77.0636 16.6598 76.8526 16.6939 76.6438 16.7237C76.435 16.7536 76.2539 16.7791 76.1005 16.8004C75.7553 16.8473 75.4464 16.924 75.1737 17.0305C74.9009 17.1371 74.6857 17.2862 74.5281 17.478C74.3704 17.6655 74.2915 17.9084 74.2915 18.2067C74.2915 18.6328 74.4471 18.9545 74.7582 19.1719C75.0692 19.3892 75.4656 19.4979 75.9471 19.4979ZM87.8299 11.1818V12.9716H82.0259V11.1818H87.8299ZM83.4769 21V10.255C83.4769 9.59446 83.6133 9.04474 83.886 8.60582C84.163 8.1669 84.5337 7.83878 84.9982 7.62145C85.4627 7.40412 85.9783 7.29545 86.5451 7.29545C86.9457 7.29545 87.3015 7.32741 87.6126 7.39134C87.9237 7.45526 88.1538 7.51278 88.3029 7.56392L87.8427 9.35369C87.7447 9.32386 87.6211 9.29403 87.4719 9.2642C87.3228 9.23011 87.1566 9.21307 86.9734 9.21307C86.543 9.21307 86.2383 9.31747 86.0593 9.52628C85.8846 9.73082 85.7972 10.0249 85.7972 10.4084V21H83.4769ZM93.6195 21.1918C92.6351 21.1918 91.785 20.9872 91.0691 20.5781C90.3574 20.1648 89.8098 19.581 89.4263 18.8267C89.0428 18.0682 88.851 17.1754 88.851 16.1484C88.851 15.1385 89.0428 14.2521 89.4263 13.4893C89.8141 12.7223 90.3553 12.1257 91.0499 11.6996C91.7445 11.2692 92.5605 11.054 93.498 11.054C94.1032 11.054 94.6742 11.152 95.2111 11.348C95.7523 11.5398 96.2296 11.8381 96.6429 12.2429C97.0605 12.6477 97.3887 13.1634 97.6273 13.7898C97.8659 14.4119 97.9853 15.1534 97.9853 16.0142V16.7237H89.9377V15.1641H95.7672C95.763 14.7209 95.6671 14.3267 95.4796 13.9815C95.2921 13.6321 95.03 13.3572 94.6934 13.157C94.361 12.9567 93.9732 12.8565 93.53 12.8565C93.057 12.8565 92.6415 12.9716 92.2836 13.2017C91.9256 13.4276 91.6465 13.7259 91.4462 14.0966C91.2502 14.4631 91.15 14.8658 91.1458 15.3047V16.6662C91.1458 17.2372 91.2502 17.7273 91.459 18.1364C91.6678 18.5412 91.9597 18.8523 92.3347 19.0696C92.7097 19.2827 93.1486 19.3892 93.6515 19.3892C93.9881 19.3892 94.2928 19.3423 94.5655 19.2486C94.8382 19.1506 95.0748 19.0078 95.275 18.8203C95.4753 18.6328 95.6266 18.4006 95.7289 18.1236L97.8894 18.3665C97.753 18.9375 97.4931 19.4361 97.1096 19.8622C96.7303 20.2841 96.2445 20.6122 95.6522 20.8466C95.0598 21.0767 94.3823 21.1918 93.6195 21.1918ZM104.846 11.1818V12.9716H99.2013V11.1818H104.846ZM100.595 8.82955H102.909V18.0469C102.909 18.358 102.956 18.5966 103.049 18.7628C103.147 18.9247 103.275 19.0355 103.433 19.0952C103.591 19.1548 103.765 19.1847 103.957 19.1847C104.102 19.1847 104.234 19.174 104.353 19.1527C104.477 19.1314 104.571 19.1122 104.635 19.0952L105.025 20.9041C104.901 20.9467 104.724 20.9936 104.494 21.0447C104.268 21.0959 103.991 21.1257 103.663 21.1342C103.083 21.1513 102.561 21.0639 102.097 20.8722C101.632 20.6761 101.264 20.3736 100.991 19.9645C100.723 19.5554 100.591 19.044 100.595 18.4304V8.82955ZM108.219 24.6818C107.904 24.6818 107.612 24.6563 107.343 24.6051C107.079 24.5582 106.868 24.5028 106.71 24.4389L107.247 22.6364C107.584 22.7344 107.884 22.7813 108.149 22.777C108.413 22.7727 108.645 22.6896 108.845 22.5277C109.05 22.37 109.222 22.1058 109.363 21.7351L109.561 21.2045L106.001 11.1818H108.455L110.718 18.5966H110.82L113.09 11.1818H115.551L111.619 22.1889C111.436 22.7088 111.193 23.1541 110.891 23.5249C110.588 23.8999 110.218 24.1854 109.779 24.3814C109.344 24.5817 108.824 24.6818 108.219 24.6818Z" fill="#101828"/>
<path d="M1.65057 36.8182L4.6733 45.3892H4.79261L7.81534 36.8182H9.10795L5.36932 47H4.09659L0.357955 36.8182H1.65057ZM13.0256 47.1591C12.2898 47.1591 11.6551 46.9967 11.1214 46.6719C10.5911 46.3438 10.1818 45.8864 9.89347 45.2997C9.60843 44.7098 9.46591 44.0237 9.46591 43.2415C9.46591 42.4593 9.60843 41.7699 9.89347 41.1733C10.1818 40.5734 10.5829 40.1061 11.0966 39.7713C11.6136 39.4332 12.2169 39.2642 12.9062 39.2642C13.304 39.2642 13.6967 39.3305 14.0845 39.4631C14.4723 39.5956 14.8253 39.8111 15.1435 40.1094C15.4616 40.4044 15.7152 40.7955 15.9041 41.2827C16.093 41.7699 16.1875 42.3698 16.1875 43.0824V43.5795H10.3011V42.5653H14.9943C14.9943 42.1345 14.9081 41.75 14.7358 41.4119C14.5668 41.0739 14.3248 40.8071 14.0099 40.6115C13.6984 40.416 13.3305 40.3182 12.9062 40.3182C12.4389 40.3182 12.0346 40.4342 11.6932 40.6662C11.3551 40.8949 11.0949 41.1932 10.9126 41.5611C10.7304 41.929 10.6392 42.3234 10.6392 42.7443V43.4205C10.6392 43.9972 10.7386 44.486 10.9375 44.8871C11.1397 45.2848 11.4197 45.5881 11.7777 45.7969C12.1357 46.0024 12.5516 46.1051 13.0256 46.1051C13.3338 46.1051 13.6122 46.062 13.8608 45.9759C14.1127 45.8864 14.3298 45.7538 14.5121 45.5781C14.6944 45.3991 14.8352 45.1771 14.9347 44.9119L16.0682 45.2301C15.9489 45.6146 15.7483 45.9527 15.4666 46.2443C15.1849 46.5327 14.8369 46.758 14.4226 46.9205C14.0083 47.0795 13.5426 47.1591 13.0256 47.1591ZM17.9723 47V39.3636H19.1058V40.517H19.1854C19.3246 40.1392 19.5765 39.8326 19.9411 39.5973C20.3056 39.362 20.7166 39.2443 21.174 39.2443C21.2602 39.2443 21.3679 39.246 21.4972 39.2493C21.6264 39.2526 21.7242 39.2576 21.7905 39.2642V40.4574C21.7507 40.4474 21.6596 40.4325 21.517 40.4126C21.3778 40.3894 21.2304 40.3778 21.0746 40.3778C20.7034 40.3778 20.3719 40.4557 20.0803 40.6115C19.7919 40.764 19.5632 40.9761 19.3942 41.2479C19.2285 41.5163 19.1456 41.8229 19.1456 42.1676V47H17.9723ZM25.4284 47.179C24.9445 47.179 24.5054 47.0878 24.111 46.9055C23.7166 46.7199 23.4033 46.4531 23.1713 46.1051C22.9393 45.7538 22.8233 45.3295 22.8233 44.8324C22.8233 44.3949 22.9095 44.0402 23.0819 43.7685C23.2542 43.4934 23.4846 43.2779 23.7729 43.1222C24.0613 42.9664 24.3794 42.8504 24.7275 42.7741C25.0788 42.6946 25.4318 42.6316 25.7864 42.5852C26.2504 42.5256 26.6266 42.4808 26.915 42.451C27.2066 42.4179 27.4187 42.3632 27.5513 42.2869C27.6872 42.2107 27.7551 42.0781 27.7551 41.8892V41.8494C27.7551 41.3589 27.6209 40.9777 27.3525 40.706C27.0873 40.4342 26.6846 40.2983 26.1444 40.2983C25.5842 40.2983 25.1451 40.4209 24.8269 40.6662C24.5087 40.9115 24.285 41.1733 24.1557 41.4517L23.0421 41.054C23.2409 40.59 23.5061 40.2287 23.8375 39.9702C24.1723 39.7083 24.5369 39.526 24.9313 39.4233C25.329 39.3172 25.7201 39.2642 26.1046 39.2642C26.3498 39.2642 26.6316 39.294 26.9498 39.3537C27.2712 39.41 27.5811 39.5277 27.8794 39.7067C28.181 39.8857 28.4313 40.1558 28.6301 40.517C28.829 40.8783 28.9284 41.3622 28.9284 41.9688V47H27.7551V45.9659H27.6955C27.6159 46.1316 27.4834 46.3089 27.2978 46.4979C27.1122 46.6868 26.8652 46.8475 26.557 46.9801C26.2488 47.1127 25.8726 47.179 25.4284 47.179ZM25.6074 46.125C26.0714 46.125 26.4625 46.0339 26.7807 45.8516C27.1022 45.6693 27.3442 45.4339 27.5066 45.1456C27.6723 44.8572 27.7551 44.554 27.7551 44.2358V43.1619C27.7054 43.2216 27.5961 43.2763 27.427 43.326C27.2613 43.3724 27.0691 43.4138 26.8503 43.4503C26.6349 43.4834 26.4244 43.5133 26.2189 43.5398C26.0167 43.563 25.8527 43.5829 25.7267 43.5994C25.4218 43.6392 25.1368 43.7038 24.8716 43.7933C24.6098 43.8795 24.3977 44.0104 24.2353 44.1861C24.0762 44.3584 23.9966 44.5937 23.9966 44.892C23.9966 45.2997 24.1474 45.608 24.449 45.8168C24.754 46.0223 25.1401 46.125 25.6074 46.125ZM31.229 47V36.8182H37.3342V37.9119H32.462V41.3523H36.8768V42.446H32.462V47H31.229ZM39.2868 47V39.3636H40.46V47H39.2868ZM39.8833 38.0909C39.6547 38.0909 39.4574 38.013 39.2917 37.8572C39.1293 37.7015 39.0481 37.5142 39.0481 37.2955C39.0481 37.0767 39.1293 36.8894 39.2917 36.7337C39.4574 36.5779 39.6547 36.5 39.8833 36.5C40.112 36.5 40.3076 36.5779 40.47 36.7337C40.6357 36.8894 40.7186 37.0767 40.7186 37.2955C40.7186 37.5142 40.6357 37.7015 40.47 37.8572C40.3076 38.013 40.112 38.0909 39.8833 38.0909ZM49.6488 47.1591C48.9594 47.1591 48.3545 46.995 47.8342 46.6669C47.3171 46.3388 46.9128 45.8797 46.6211 45.2898C46.3327 44.6998 46.1886 44.0104 46.1886 43.2216C46.1886 42.4261 46.3327 41.7318 46.6211 41.1385C46.9128 40.5452 47.3171 40.0845 47.8342 39.7564C48.3545 39.4283 48.9594 39.2642 49.6488 39.2642C50.3382 39.2642 50.9414 39.4283 51.4585 39.7564C51.9788 40.0845 52.3832 40.5452 52.6715 41.1385C52.9632 41.7318 53.109 42.4261 53.109 43.2216C53.109 44.0104 52.9632 44.6998 52.6715 45.2898C52.3832 45.8797 51.9788 46.3388 51.4585 46.6669C50.9414 46.995 50.3382 47.1591 49.6488 47.1591ZM49.6488 46.1051C50.1725 46.1051 50.6033 45.9709 50.9414 45.7024C51.2795 45.4339 51.5297 45.081 51.6921 44.6435C51.8545 44.206 51.9357 43.732 51.9357 43.2216C51.9357 42.7112 51.8545 42.2356 51.6921 41.7947C51.5297 41.3539 51.2795 40.9976 50.9414 40.7259C50.6033 40.4541 50.1725 40.3182 49.6488 40.3182C49.1251 40.3182 48.6942 40.4541 48.3562 40.7259C48.0181 40.9976 47.7679 41.3539 47.6055 41.7947C47.4431 42.2356 47.3619 42.7112 47.3619 43.2216C47.3619 43.732 47.4431 44.206 47.6055 44.6435C47.7679 45.081 48.0181 45.4339 48.3562 45.7024C48.6942 45.9709 49.1251 46.1051 49.6488 46.1051ZM56.0733 42.4062V47H54.9V39.3636H56.0336V40.5568H56.133C56.312 40.169 56.5837 39.8575 56.9483 39.6222C57.3129 39.3835 57.7836 39.2642 58.3603 39.2642C58.8773 39.2642 59.3297 39.3703 59.7175 39.5824C60.1053 39.7912 60.4069 40.1094 60.6223 40.5369C60.8378 40.9612 60.9455 41.4981 60.9455 42.1477V47H59.7722V42.2273C59.7722 41.6274 59.6164 41.16 59.3049 40.8253C58.9933 40.4872 58.5658 40.3182 58.0222 40.3182C57.6477 40.3182 57.3129 40.3994 57.0179 40.5618C56.7263 40.7242 56.4959 40.9612 56.3269 41.2727C56.1578 41.5843 56.0733 41.9621 56.0733 42.4062ZM64.2628 36.8182V47H63.0895V36.8182H64.2628ZM67.1674 49.8636C66.9686 49.8636 66.7913 49.8471 66.6355 49.8139C66.4797 49.7841 66.372 49.7543 66.3123 49.7244L66.6106 48.6903C66.8957 48.7633 67.1475 48.7898 67.3663 48.7699C67.585 48.75 67.7789 48.6522 67.948 48.4766C68.1203 48.3042 68.2778 48.0241 68.4203 47.6364L68.639 47.0398L65.8152 39.3636H67.0879L69.1958 45.4489H69.2754L71.3833 39.3636H72.6561L69.4146 48.1136C69.2688 48.508 69.0881 48.8345 68.8727 49.093C68.6573 49.3549 68.407 49.5488 68.122 49.6747C67.8403 49.8007 67.5221 49.8636 67.1674 49.8636ZM78.1422 47V39.3636H79.2757V40.517H79.3553C79.4945 40.1392 79.7464 39.8326 80.111 39.5973C80.4756 39.362 80.8865 39.2443 81.3439 39.2443C81.4301 39.2443 81.5378 39.246 81.6671 39.2493C81.7963 39.2526 81.8941 39.2576 81.9604 39.2642V40.4574C81.9206 40.4474 81.8295 40.4325 81.687 40.4126C81.5478 40.3894 81.4003 40.3778 81.2445 40.3778C80.8733 40.3778 80.5418 40.4557 80.2502 40.6115C79.9618 40.764 79.7331 40.9761 79.5641 41.2479C79.3984 41.5163 79.3155 41.8229 79.3155 42.1676V47H78.1422ZM86.3205 47.1591C85.5847 47.1591 84.95 46.9967 84.4164 46.6719C83.8861 46.3438 83.4767 45.8864 83.1884 45.2997C82.9033 44.7098 82.7608 44.0237 82.7608 43.2415C82.7608 42.4593 82.9033 41.7699 83.1884 41.1733C83.4767 40.5734 83.8778 40.1061 84.3915 39.7713C84.9086 39.4332 85.5118 39.2642 86.2012 39.2642C86.5989 39.2642 86.9917 39.3305 87.3794 39.4631C87.7672 39.5956 88.1202 39.8111 88.4384 40.1094C88.7566 40.4044 89.0101 40.7955 89.199 41.2827C89.388 41.7699 89.4824 42.3698 89.4824 43.0824V43.5795H83.5961V42.5653H88.2892C88.2892 42.1345 88.2031 41.75 88.0307 41.4119C87.8617 41.0739 87.6197 40.8071 87.3049 40.6115C86.9933 40.416 86.6254 40.3182 86.2012 40.3182C85.7338 40.3182 85.3295 40.4342 84.9881 40.6662C84.65 40.8949 84.3899 41.1932 84.2076 41.5611C84.0253 41.929 83.9341 42.3234 83.9341 42.7443V43.4205C83.9341 43.9972 84.0336 44.486 84.2324 44.8871C84.4346 45.2848 84.7147 45.5881 85.0726 45.7969C85.4306 46.0024 85.8465 46.1051 86.3205 46.1051C86.6287 46.1051 86.9071 46.062 87.1557 45.9759C87.4076 45.8864 87.6247 45.7538 87.807 45.5781C87.9893 45.3991 88.1301 45.1771 88.2296 44.9119L89.3631 45.2301C89.2438 45.6146 89.0433 45.9527 88.7615 46.2443C88.4798 46.5327 88.1318 46.758 87.7175 46.9205C87.3032 47.0795 86.8375 47.1591 86.3205 47.1591ZM93.5144 47.179C93.0305 47.179 92.5913 47.0878 92.1969 46.9055C91.8025 46.7199 91.4893 46.4531 91.2573 46.1051C91.0253 45.7538 90.9093 45.3295 90.9093 44.8324C90.9093 44.3949 90.9954 44.0402 91.1678 43.7685C91.3401 43.4934 91.5705 43.2779 91.8588 43.1222C92.1472 42.9664 92.4654 42.8504 92.8134 42.7741C93.1647 42.6946 93.5177 42.6316 93.8723 42.5852C94.3364 42.5256 94.7125 42.4808 95.0009 42.451C95.2926 42.4179 95.5047 42.3632 95.6373 42.2869C95.7731 42.2107 95.8411 42.0781 95.8411 41.8892V41.8494C95.8411 41.3589 95.7069 40.9777 95.4384 40.706C95.1732 40.4342 94.7705 40.2983 94.2303 40.2983C93.6702 40.2983 93.231 40.4209 92.9128 40.6662C92.5946 40.9115 92.3709 41.1733 92.2417 41.4517L91.128 41.054C91.3269 40.59 91.592 40.2287 91.9235 39.9702C92.2582 39.7083 92.6228 39.526 93.0172 39.4233C93.415 39.3172 93.806 39.2642 94.1905 39.2642C94.4358 39.2642 94.7175 39.294 95.0357 39.3537C95.3572 39.41 95.6671 39.5277 95.9654 39.7067C96.267 39.8857 96.5172 40.1558 96.7161 40.517C96.915 40.8783 97.0144 41.3622 97.0144 41.9688V47H95.8411V45.9659H95.7814C95.7019 46.1316 95.5693 46.3089 95.3837 46.4979C95.1981 46.6868 94.9512 46.8475 94.6429 46.9801C94.3347 47.1127 93.9585 47.179 93.5144 47.179ZM93.6934 46.125C94.1574 46.125 94.5485 46.0339 94.8667 45.8516C95.1882 45.6693 95.4301 45.4339 95.5925 45.1456C95.7582 44.8572 95.8411 44.554 95.8411 44.2358V43.1619C95.7914 43.2216 95.682 43.2763 95.513 43.326C95.3472 43.3724 95.155 43.4138 94.9363 43.4503C94.7208 43.4834 94.5104 43.5133 94.3049 43.5398C94.1027 43.563 93.9386 43.5829 93.8127 43.5994C93.5078 43.6392 93.2227 43.7038 92.9576 43.7933C92.6957 43.8795 92.4836 44.0104 92.3212 44.1861C92.1621 44.3584 92.0826 44.5937 92.0826 44.892C92.0826 45.2997 92.2334 45.608 92.535 45.8168C92.8399 46.0223 93.226 46.125 93.6934 46.125ZM102.039 47.1591C101.403 47.1591 100.841 46.9983 100.354 46.6768C99.8668 46.352 99.4857 45.8946 99.2106 45.3047C98.9355 44.7114 98.7979 44.0104 98.7979 43.2017C98.7979 42.3996 98.9355 41.7036 99.2106 41.1136C99.4857 40.5237 99.8685 40.0679 100.359 39.7464C100.85 39.425 101.416 39.2642 102.059 39.2642C102.556 39.2642 102.949 39.3471 103.238 39.5128C103.529 39.6752 103.751 39.8608 103.904 40.0696C104.06 40.2751 104.181 40.4441 104.267 40.5767H104.366V36.8182H105.539V47H104.406V45.8267H104.267C104.181 45.9659 104.058 46.1416 103.899 46.3537C103.74 46.5625 103.513 46.7498 103.218 46.9155C102.923 47.0779 102.53 47.1591 102.039 47.1591ZM102.199 46.1051C102.669 46.1051 103.067 45.9825 103.392 45.7372C103.717 45.4886 103.963 45.1456 104.132 44.7081C104.301 44.2673 104.386 43.7585 104.386 43.1818C104.386 42.6117 104.303 42.1129 104.137 41.6854C103.972 41.2545 103.726 40.9197 103.402 40.6811C103.077 40.4392 102.676 40.3182 102.199 40.3182C101.701 40.3182 101.287 40.4458 100.956 40.701C100.627 40.9529 100.381 41.2959 100.215 41.7301C100.052 42.161 99.9712 42.6449 99.9712 43.1818C99.9712 43.7254 100.054 44.2192 100.22 44.6634C100.389 45.1042 100.637 45.4555 100.966 45.7173C101.297 45.9759 101.708 46.1051 102.199 46.1051ZM113.26 41.0739L112.206 41.3722C112.14 41.1965 112.042 41.0258 111.913 40.8601C111.787 40.6911 111.615 40.5518 111.396 40.4425C111.177 40.3331 110.897 40.2784 110.556 40.2784C110.088 40.2784 109.699 40.3861 109.387 40.6016C109.079 40.8137 108.925 41.0838 108.925 41.4119C108.925 41.7036 109.031 41.9339 109.243 42.103C109.455 42.272 109.787 42.4129 110.238 42.5256L111.371 42.804C112.054 42.9697 112.563 43.2232 112.897 43.5646C113.232 43.9027 113.4 44.3385 113.4 44.8722C113.4 45.3097 113.274 45.7008 113.022 46.0455C112.773 46.3902 112.425 46.6619 111.978 46.8608C111.53 47.0597 111.01 47.1591 110.417 47.1591C109.638 47.1591 108.993 46.9901 108.483 46.652C107.972 46.3139 107.649 45.8201 107.513 45.1705L108.627 44.892C108.733 45.303 108.933 45.6113 109.228 45.8168C109.527 46.0223 109.916 46.125 110.397 46.125C110.944 46.125 111.378 46.009 111.699 45.777C112.024 45.5417 112.186 45.2599 112.186 44.9318C112.186 44.6667 112.094 44.4446 111.908 44.2656C111.722 44.0833 111.437 43.9474 111.053 43.858L109.78 43.5597C109.081 43.3939 108.567 43.1371 108.239 42.7891C107.914 42.4377 107.752 41.9986 107.752 41.4716C107.752 41.0407 107.873 40.6596 108.115 40.3281C108.36 39.9967 108.693 39.7365 109.114 39.5476C109.538 39.3587 110.019 39.2642 110.556 39.2642C111.311 39.2642 111.905 39.4299 112.336 39.7614C112.77 40.0928 113.078 40.5303 113.26 41.0739ZM121.987 47.1591C121.35 47.1591 120.789 46.9983 120.301 46.6768C119.814 46.352 119.433 45.8946 119.158 45.3047C118.883 44.7114 118.745 44.0104 118.745 43.2017C118.745 42.3996 118.883 41.7036 119.158 41.1136C119.433 40.5237 119.816 40.0679 120.306 39.7464C120.797 39.425 121.364 39.2642 122.007 39.2642C122.504 39.2642 122.896 39.3471 123.185 39.5128C123.477 39.6752 123.699 39.8608 123.851 40.0696C124.007 40.2751 124.128 40.4441 124.214 40.5767H124.313V36.8182H125.487V47H124.353V45.8267H124.214C124.128 45.9659 124.005 46.1416 123.846 46.3537C123.687 46.5625 123.46 46.7498 123.165 46.9155C122.87 47.0779 122.477 47.1591 121.987 47.1591ZM122.146 46.1051C122.616 46.1051 123.014 45.9825 123.339 45.7372C123.664 45.4886 123.911 45.1456 124.08 44.7081C124.249 44.2673 124.333 43.7585 124.333 43.1818C124.333 42.6117 124.25 42.1129 124.085 41.6854C123.919 41.2545 123.674 40.9197 123.349 40.6811C123.024 40.4392 122.623 40.3182 122.146 40.3182C121.649 40.3182 121.234 40.4458 120.903 40.701C120.575 40.9529 120.328 41.2959 120.162 41.7301C120 42.161 119.919 42.6449 119.919 43.1818C119.919 43.7254 120.001 44.2192 120.167 44.6634C120.336 45.1042 120.585 45.4555 120.913 45.7173C121.244 45.9759 121.655 46.1051 122.146 46.1051ZM130.046 47.179C129.562 47.179 129.123 47.0878 128.728 46.9055C128.334 46.7199 128.021 46.4531 127.789 46.1051C127.557 45.7538 127.441 45.3295 127.441 44.8324C127.441 44.3949 127.527 44.0402 127.699 43.7685C127.871 43.4934 128.102 43.2779 128.39 43.1222C128.678 42.9664 128.997 42.8504 129.345 42.7741C129.696 42.6946 130.049 42.6316 130.404 42.5852C130.868 42.5256 131.244 42.4808 131.532 42.451C131.824 42.4179 132.036 42.3632 132.169 42.2869C132.304 42.2107 132.372 42.0781 132.372 41.8892V41.8494C132.372 41.3589 132.238 40.9777 131.97 40.706C131.704 40.4342 131.302 40.2983 130.762 40.2983C130.201 40.2983 129.762 40.4209 129.444 40.6662C129.126 40.9115 128.902 41.1733 128.773 41.4517L127.659 41.054C127.858 40.59 128.123 40.2287 128.455 39.9702C128.789 39.7083 129.154 39.526 129.548 39.4233C129.946 39.3172 130.337 39.2642 130.722 39.2642C130.967 39.2642 131.249 39.294 131.567 39.3537C131.888 39.41 132.198 39.5277 132.497 39.7067C132.798 39.8857 133.048 40.1558 133.247 40.517C133.446 40.8783 133.546 41.3622 133.546 41.9688V47H132.372V45.9659H132.313C132.233 46.1316 132.101 46.3089 131.915 46.4979C131.729 46.6868 131.482 46.8475 131.174 46.9801C130.866 47.1127 130.49 47.179 130.046 47.179ZM130.225 46.125C130.689 46.125 131.08 46.0339 131.398 45.8516C131.719 45.6693 131.961 45.4339 132.124 45.1456C132.289 44.8572 132.372 44.554 132.372 44.2358V43.1619C132.323 43.2216 132.213 43.2763 132.044 43.326C131.878 43.3724 131.686 43.4138 131.468 43.4503C131.252 43.4834 131.042 43.5133 130.836 43.5398C130.634 43.563 130.47 43.5829 130.344 43.5994C130.039 43.6392 129.754 43.7038 129.489 43.7933C129.227 43.8795 129.015 44.0104 128.852 44.1861C128.693 44.3584 128.614 44.5937 128.614 44.892C128.614 45.2997 128.765 45.608 129.066 45.8168C129.371 46.0223 129.757 46.125 130.225 46.125ZM139.008 39.3636V40.358H135.051V39.3636H139.008ZM136.204 37.5341H137.377V44.8125C137.377 45.1439 137.426 45.3925 137.522 45.5582C137.621 45.7206 137.747 45.83 137.9 45.8864C138.055 45.9394 138.219 45.9659 138.392 45.9659C138.521 45.9659 138.627 45.9593 138.71 45.946C138.793 45.9295 138.859 45.9162 138.909 45.9062L139.147 46.9602C139.068 46.9901 138.957 47.0199 138.814 47.0497C138.672 47.0829 138.491 47.0994 138.272 47.0994C137.941 47.0994 137.616 47.0282 137.298 46.8857C136.983 46.7431 136.721 46.526 136.512 46.2344C136.307 45.9427 136.204 45.5748 136.204 45.1307V37.5341ZM143.02 47.179C142.536 47.179 142.097 47.0878 141.703 46.9055C141.308 46.7199 140.995 46.4531 140.763 46.1051C140.531 45.7538 140.415 45.3295 140.415 44.8324C140.415 44.3949 140.501 44.0402 140.674 43.7685C140.846 43.4934 141.076 43.2779 141.365 43.1222C141.653 42.9664 141.971 42.8504 142.319 42.7741C142.671 42.6946 143.024 42.6316 143.378 42.5852C143.842 42.5256 144.218 42.4808 144.507 42.451C144.798 42.4179 145.011 42.3632 145.143 42.2869C145.279 42.2107 145.347 42.0781 145.347 41.8892V41.8494C145.347 41.3589 145.213 40.9777 144.944 40.706C144.679 40.4342 144.276 40.2983 143.736 40.2983C143.176 40.2983 142.737 40.4209 142.419 40.6662C142.1 40.9115 141.877 41.1733 141.748 41.4517L140.634 41.054C140.833 40.59 141.098 40.2287 141.429 39.9702C141.764 39.7083 142.129 39.526 142.523 39.4233C142.921 39.3172 143.312 39.2642 143.696 39.2642C143.942 39.2642 144.223 39.294 144.542 39.3537C144.863 39.41 145.173 39.5277 145.471 39.7067C145.773 39.8857 146.023 40.1558 146.222 40.517C146.421 40.8783 146.52 41.3622 146.52 41.9688V47H145.347V45.9659H145.287C145.208 46.1316 145.075 46.3089 144.89 46.4979C144.704 46.6868 144.457 46.8475 144.149 46.9801C143.841 47.1127 143.464 47.179 143.02 47.179ZM143.199 46.125C143.663 46.125 144.054 46.0339 144.373 45.8516C144.694 45.6693 144.936 45.4339 145.098 45.1456C145.264 44.8572 145.347 44.554 145.347 44.2358V43.1619C145.297 43.2216 145.188 43.2763 145.019 43.326C144.853 43.3724 144.661 43.4138 144.442 43.4503C144.227 43.4834 144.016 43.5133 143.811 43.5398C143.609 43.563 143.444 43.5829 143.319 43.5994C143.014 43.6392 142.729 43.7038 142.463 43.7933C142.202 43.8795 141.989 44.0104 141.827 44.1861C141.668 44.3584 141.588 44.5937 141.588 44.892C141.588 45.2997 141.739 45.608 142.041 45.8168C142.346 46.0223 142.732 46.125 143.199 46.125ZM149.517 47.0795C149.272 47.0795 149.061 46.9917 148.885 46.8161C148.71 46.6404 148.622 46.4299 148.622 46.1847C148.622 45.9394 148.71 45.7289 148.885 45.5533C149.061 45.3776 149.272 45.2898 149.517 45.2898C149.762 45.2898 149.973 45.3776 150.148 45.5533C150.324 45.7289 150.412 45.9394 150.412 46.1847C150.412 46.3471 150.37 46.4962 150.287 46.6321C150.208 46.768 150.1 46.8774 149.964 46.9602C149.832 47.0398 149.683 47.0795 149.517 47.0795ZM158.463 47L155.679 36.8182H156.932L159.06 45.1108H159.159L161.327 36.8182H162.719L164.887 45.1108H164.986L167.114 36.8182H168.367L165.583 47H164.31L162.063 38.8864H161.983L159.736 47H158.463ZM172.235 47.1591C171.499 47.1591 170.864 46.9967 170.33 46.6719C169.8 46.3438 169.391 45.8864 169.102 45.2997C168.817 44.7098 168.675 44.0237 168.675 43.2415C168.675 42.4593 168.817 41.7699 169.102 41.1733C169.391 40.5734 169.792 40.1061 170.306 39.7713C170.823 39.4332 171.426 39.2642 172.115 39.2642C172.513 39.2642 172.906 39.3305 173.294 39.4631C173.681 39.5956 174.034 39.8111 174.352 40.1094C174.671 40.4044 174.924 40.7955 175.113 41.2827C175.302 41.7699 175.396 42.3698 175.396 43.0824V43.5795H169.51V42.5653H174.203C174.203 42.1345 174.117 41.75 173.945 41.4119C173.776 41.0739 173.534 40.8071 173.219 40.6115C172.907 40.416 172.539 40.3182 172.115 40.3182C171.648 40.3182 171.244 40.4342 170.902 40.6662C170.564 40.8949 170.304 41.1932 170.122 41.5611C169.939 41.929 169.848 42.3234 169.848 42.7443V43.4205C169.848 43.9972 169.948 44.486 170.146 44.8871C170.349 45.2848 170.629 45.5881 170.987 45.7969C171.345 46.0024 171.761 46.1051 172.235 46.1051C172.543 46.1051 172.821 46.062 173.07 45.9759C173.322 45.8864 173.539 45.7538 173.721 45.5781C173.903 45.3991 174.044 45.1771 174.144 44.9119L175.277 45.2301C175.158 45.6146 174.957 45.9527 174.676 46.2443C174.394 46.5327 174.046 46.758 173.632 46.9205C173.217 47.0795 172.752 47.1591 172.235 47.1591ZM184.002 47.1591C183.366 47.1591 182.804 46.9983 182.317 46.6768C181.83 46.352 181.449 45.8946 181.173 45.3047C180.898 44.7114 180.761 44.0104 180.761 43.2017C180.761 42.3996 180.898 41.7036 181.173 41.1136C181.449 40.5237 181.831 40.0679 182.322 39.7464C182.812 39.425 183.379 39.2642 184.022 39.2642C184.519 39.2642 184.912 39.3471 185.2 39.5128C185.492 39.6752 185.714 39.8608 185.867 40.0696C186.022 40.2751 186.143 40.4441 186.23 40.5767H186.329V36.8182H187.502V47H186.369V45.8267H186.23C186.143 45.9659 186.021 46.1416 185.862 46.3537C185.703 46.5625 185.476 46.7498 185.181 46.9155C184.886 47.0779 184.493 47.1591 184.002 47.1591ZM184.161 46.1051C184.632 46.1051 185.03 45.9825 185.355 45.7372C185.679 45.4886 185.926 45.1456 186.095 44.7081C186.264 44.2673 186.349 43.7585 186.349 43.1818C186.349 42.6117 186.266 42.1129 186.1 41.6854C185.935 41.2545 185.689 40.9197 185.365 40.6811C185.04 40.4392 184.639 40.3182 184.161 40.3182C183.664 40.3182 183.25 40.4458 182.919 40.701C182.59 40.9529 182.343 41.2959 182.178 41.7301C182.015 42.161 181.934 42.6449 181.934 43.1818C181.934 43.7254 182.017 44.2192 182.183 44.6634C182.352 45.1042 182.6 45.4555 182.928 45.7173C183.26 45.9759 183.671 46.1051 184.161 46.1051ZM192.916 47.1591C192.227 47.1591 191.622 46.995 191.102 46.6669C190.585 46.3388 190.18 45.8797 189.889 45.2898C189.6 44.6998 189.456 44.0104 189.456 43.2216C189.456 42.4261 189.6 41.7318 189.889 41.1385C190.18 40.5452 190.585 40.0845 191.102 39.7564C191.622 39.4283 192.227 39.2642 192.916 39.2642C193.606 39.2642 194.209 39.4283 194.726 39.7564C195.246 40.0845 195.651 40.5452 195.939 41.1385C196.231 41.7318 196.377 42.4261 196.377 43.2216C196.377 44.0104 196.231 44.6998 195.939 45.2898C195.651 45.8797 195.246 46.3388 194.726 46.6669C194.209 46.995 193.606 47.1591 192.916 47.1591ZM192.916 46.1051C193.44 46.1051 193.871 45.9709 194.209 45.7024C194.547 45.4339 194.797 45.081 194.96 44.6435C195.122 44.206 195.203 43.732 195.203 43.2216C195.203 42.7112 195.122 42.2356 194.96 41.7947C194.797 41.3539 194.547 40.9976 194.209 40.7259C193.871 40.4541 193.44 40.3182 192.916 40.3182C192.393 40.3182 191.962 40.4541 191.624 40.7259C191.286 40.9976 191.035 41.3539 190.873 41.7947C190.711 42.2356 190.629 42.7112 190.629 43.2216C190.629 43.732 190.711 44.206 190.873 44.6435C191.035 45.081 191.286 45.4339 191.624 45.7024C191.962 45.9709 192.393 46.1051 192.916 46.1051ZM203.278 42.4062V47H202.105V39.3636H203.239V40.5568H203.338C203.517 40.169 203.789 39.8575 204.153 39.6222C204.518 39.3835 204.989 39.2642 205.565 39.2642C206.082 39.2642 206.535 39.3703 206.923 39.5824C207.31 39.7912 207.612 40.1094 207.827 40.5369C208.043 40.9612 208.151 41.4981 208.151 42.1477V47H206.977V42.2273C206.977 41.6274 206.821 41.16 206.51 40.8253C206.198 40.4872 205.771 40.3182 205.227 40.3182C204.853 40.3182 204.518 40.3994 204.223 40.5618C203.931 40.7242 203.701 40.9612 203.532 41.2727C203.363 41.5843 203.278 41.9621 203.278 42.4062ZM213.397 47.1591C212.707 47.1591 212.103 46.995 211.582 46.6669C211.065 46.3388 210.661 45.8797 210.369 45.2898C210.081 44.6998 209.937 44.0104 209.937 43.2216C209.937 42.4261 210.081 41.7318 210.369 41.1385C210.661 40.5452 211.065 40.0845 211.582 39.7564C212.103 39.4283 212.707 39.2642 213.397 39.2642C214.086 39.2642 214.689 39.4283 215.206 39.7564C215.727 40.0845 216.131 40.5452 216.42 41.1385C216.711 41.7318 216.857 42.4261 216.857 43.2216C216.857 44.0104 216.711 44.6998 216.42 45.2898C216.131 45.8797 215.727 46.3388 215.206 46.6669C214.689 46.995 214.086 47.1591 213.397 47.1591ZM213.397 46.1051C213.921 46.1051 214.351 45.9709 214.689 45.7024C215.028 45.4339 215.278 45.081 215.44 44.6435C215.603 44.206 215.684 43.732 215.684 43.2216C215.684 42.7112 215.603 42.2356 215.44 41.7947C215.278 41.3539 215.028 40.9976 214.689 40.7259C214.351 40.4541 213.921 40.3182 213.397 40.3182C212.873 40.3182 212.442 40.4541 212.104 40.7259C211.766 40.9976 211.516 41.3539 211.354 41.7947C211.191 42.2356 211.11 42.7112 211.11 43.2216C211.11 43.732 211.191 44.206 211.354 44.6435C211.516 45.081 211.766 45.4339 212.104 45.7024C212.442 45.9709 212.873 46.1051 213.397 46.1051ZM221.969 39.3636V40.358H218.012V39.3636H221.969ZM219.165 37.5341H220.338V44.8125C220.338 45.1439 220.386 45.3925 220.483 45.5582C220.582 45.7206 220.708 45.83 220.86 45.8864C221.016 45.9394 221.18 45.9659 221.353 45.9659C221.482 45.9659 221.588 45.9593 221.671 45.946C221.754 45.9295 221.82 45.9162 221.87 45.9062L222.108 46.9602C222.029 46.9901 221.918 47.0199 221.775 47.0497C221.633 47.0829 221.452 47.0994 221.233 47.0994C220.902 47.0994 220.577 47.0282 220.259 46.8857C219.944 46.7431 219.682 46.526 219.473 46.2344C219.268 45.9427 219.165 45.5748 219.165 45.1307V37.5341ZM227.672 47V39.3636H228.805V40.517H228.885C229.024 40.1392 229.276 39.8326 229.64 39.5973C230.005 39.362 230.416 39.2443 230.873 39.2443C230.959 39.2443 231.067 39.246 231.196 39.2493C231.326 39.2526 231.423 39.2576 231.49 39.2642V40.4574C231.45 40.4474 231.359 40.4325 231.216 40.4126C231.077 40.3894 230.93 40.3778 230.774 40.3778C230.403 40.3778 230.071 40.4557 229.779 40.6115C229.491 40.764 229.262 40.9761 229.093 41.2479C228.928 41.5163 228.845 41.8229 228.845 42.1676V47H227.672ZM235.85 47.1591C235.114 47.1591 234.479 46.9967 233.946 46.6719C233.415 46.3438 233.006 45.8864 232.718 45.2997C232.433 44.7098 232.29 44.0237 232.29 43.2415C232.29 42.4593 232.433 41.7699 232.718 41.1733C233.006 40.5734 233.407 40.1061 233.921 39.7713C234.438 39.4332 235.041 39.2642 235.73 39.2642C236.128 39.2642 236.521 39.3305 236.909 39.4631C237.297 39.5956 237.65 39.8111 237.968 40.1094C238.286 40.4044 238.539 40.7955 238.728 41.2827C238.917 41.7699 239.012 42.3698 239.012 43.0824V43.5795H233.125V42.5653H237.819C237.819 42.1345 237.732 41.75 237.56 41.4119C237.391 41.0739 237.149 40.8071 236.834 40.6115C236.523 40.416 236.155 40.3182 235.73 40.3182C235.263 40.3182 234.859 40.4342 234.517 40.6662C234.179 40.8949 233.919 41.1932 233.737 41.5611C233.555 41.929 233.463 42.3234 233.463 42.7443V43.4205C233.463 43.9972 233.563 44.486 233.762 44.8871C233.964 45.2848 234.244 45.5881 234.602 45.7969C234.96 46.0024 235.376 46.1051 235.85 46.1051C236.158 46.1051 236.436 46.062 236.685 45.9759C236.937 45.8864 237.154 45.7538 237.336 45.5781C237.519 45.3991 237.659 45.1771 237.759 44.9119L238.892 45.2301C238.773 45.6146 238.573 45.9527 238.291 46.2443C238.009 46.5327 237.661 46.758 237.247 46.9205C236.833 47.0795 236.367 47.1591 235.85 47.1591ZM246.007 49.8636V45.8267H245.907C245.821 45.9659 245.699 46.1416 245.539 46.3537C245.38 46.5625 245.153 46.7498 244.858 46.9155C244.563 47.0779 244.171 47.1591 243.68 47.1591C243.044 47.1591 242.482 46.9983 241.995 46.6768C241.507 46.352 241.126 45.8946 240.851 45.3047C240.576 44.7114 240.439 44.0104 240.439 43.2017C240.439 42.3996 240.576 41.7036 240.851 41.1136C241.126 40.5237 241.509 40.0679 242 39.7464C242.49 39.425 243.057 39.2642 243.7 39.2642C244.197 39.2642 244.59 39.3471 244.878 39.5128C245.17 39.6752 245.392 39.8608 245.544 40.0696C245.7 40.2751 245.821 40.4441 245.907 40.5767H246.047V39.3636H247.18V49.8636H246.007ZM243.839 46.1051C244.31 46.1051 244.708 45.9825 245.032 45.7372C245.357 45.4886 245.604 45.1456 245.773 44.7081C245.942 44.2673 246.027 43.7585 246.027 43.1818C246.027 42.6117 245.944 42.1129 245.778 41.6854C245.612 41.2545 245.367 40.9197 245.042 40.6811C244.717 40.4392 244.316 40.3182 243.839 40.3182C243.342 40.3182 242.928 40.4458 242.596 40.701C242.268 40.9529 242.021 41.2959 241.855 41.7301C241.693 42.161 241.612 42.6449 241.612 43.1818C241.612 43.7254 241.695 44.2192 241.86 44.6634C242.029 45.1042 242.278 45.4555 242.606 45.7173C242.938 45.9759 243.349 46.1051 243.839 46.1051ZM254.14 43.8778V39.3636H255.314V47H254.14V45.7074H254.061C253.882 46.0952 253.603 46.425 253.225 46.6967C252.848 46.9652 252.37 47.0994 251.794 47.0994C251.316 47.0994 250.892 46.995 250.521 46.7862C250.15 46.5741 249.858 46.2559 249.646 45.8317C249.434 45.4041 249.328 44.8655 249.328 44.2159V39.3636H250.501V44.1364C250.501 44.6932 250.657 45.1373 250.968 45.4688C251.283 45.8002 251.684 45.9659 252.172 45.9659C252.463 45.9659 252.76 45.8913 253.061 45.7422C253.366 45.593 253.622 45.3643 253.827 45.0561C254.036 44.7479 254.14 44.3551 254.14 43.8778ZM260.664 47.1591C259.928 47.1591 259.294 46.9967 258.76 46.6719C258.23 46.3438 257.82 45.8864 257.532 45.2997C257.247 44.7098 257.105 44.0237 257.105 43.2415C257.105 42.4593 257.247 41.7699 257.532 41.1733C257.82 40.5734 258.222 40.1061 258.735 39.7713C259.252 39.4332 259.856 39.2642 260.545 39.2642C260.943 39.2642 261.335 39.3305 261.723 39.4631C262.111 39.5956 262.464 39.8111 262.782 40.1094C263.1 40.4044 263.354 40.7955 263.543 41.2827C263.732 41.7699 263.826 42.3698 263.826 43.0824V43.5795H257.94V42.5653H262.633C262.633 42.1345 262.547 41.75 262.374 41.4119C262.205 41.0739 261.963 40.8071 261.649 40.6115C261.337 40.416 260.969 40.3182 260.545 40.3182C260.078 40.3182 259.673 40.4342 259.332 40.6662C258.994 40.8949 258.734 41.1932 258.551 41.5611C258.369 41.929 258.278 42.3234 258.278 42.7443V43.4205C258.278 43.9972 258.377 44.486 258.576 44.8871C258.778 45.2848 259.058 45.5881 259.416 45.7969C259.774 46.0024 260.19 46.1051 260.664 46.1051C260.972 46.1051 261.251 46.062 261.499 45.9759C261.751 45.8864 261.968 45.7538 262.151 45.5781C262.333 45.3991 262.474 45.1771 262.573 44.9119L263.707 45.2301C263.588 45.6146 263.387 45.9527 263.105 46.2443C262.824 46.5327 262.476 46.758 262.061 46.9205C261.647 47.0795 261.181 47.1591 260.664 47.1591ZM271.02 41.0739L269.966 41.3722C269.9 41.1965 269.802 41.0258 269.673 40.8601C269.547 40.6911 269.374 40.5518 269.156 40.4425C268.937 40.3331 268.657 40.2784 268.316 40.2784C267.848 40.2784 267.459 40.3861 267.147 40.6016C266.839 40.8137 266.685 41.0838 266.685 41.4119C266.685 41.7036 266.791 41.9339 267.003 42.103C267.215 42.272 267.547 42.4129 267.997 42.5256L269.131 42.804C269.814 42.9697 270.322 43.2232 270.657 43.5646C270.992 43.9027 271.159 44.3385 271.159 44.8722C271.159 45.3097 271.033 45.7008 270.781 46.0455C270.533 46.3902 270.185 46.6619 269.737 46.8608C269.29 47.0597 268.77 47.1591 268.176 47.1591C267.397 47.1591 266.753 46.9901 266.242 46.652C265.732 46.3139 265.409 45.8201 265.273 45.1705L266.387 44.892C266.493 45.303 266.693 45.6113 266.988 45.8168C267.286 46.0223 267.676 46.125 268.156 46.125C268.703 46.125 269.137 46.009 269.459 45.777C269.784 45.5417 269.946 45.2599 269.946 44.9318C269.946 44.6667 269.853 44.4446 269.668 44.2656C269.482 44.0833 269.197 43.9474 268.813 43.858L267.54 43.5597C266.841 43.3939 266.327 43.1371 265.999 42.7891C265.674 42.4377 265.512 41.9986 265.512 41.4716C265.512 41.0407 265.633 40.6596 265.874 40.3281C266.12 39.9967 266.453 39.7365 266.874 39.5476C267.298 39.3587 267.779 39.2642 268.316 39.2642C269.071 39.2642 269.664 39.4299 270.095 39.7614C270.53 40.0928 270.838 40.5303 271.02 41.0739ZM276.246 39.3636V40.358H272.289V39.3636H276.246ZM273.442 37.5341H274.616V44.8125C274.616 45.1439 274.664 45.3925 274.76 45.5582C274.859 45.7206 274.985 45.83 275.138 45.8864C275.294 45.9394 275.458 45.9659 275.63 45.9659C275.759 45.9659 275.865 45.9593 275.948 45.946C276.031 45.9295 276.097 45.9162 276.147 45.9062L276.386 46.9602C276.306 46.9901 276.195 47.0199 276.053 47.0497C275.91 47.0829 275.729 47.0994 275.511 47.0994C275.179 47.0994 274.854 47.0282 274.536 46.8857C274.221 46.7431 273.96 46.526 273.751 46.2344C273.545 45.9427 273.442 45.5748 273.442 45.1307V37.5341ZM1.07386 69.8636V59.3636H2.20739V60.5767H2.34659C2.43277 60.4441 2.55208 60.2751 2.70455 60.0696C2.86032 59.8608 3.08239 59.6752 3.37074 59.5128C3.66241 59.3471 4.05682 59.2642 4.55398 59.2642C5.19697 59.2642 5.76373 59.425 6.25426 59.7464C6.74479 60.0679 7.1276 60.5237 7.4027 61.1136C7.67779 61.7036 7.81534 62.3996 7.81534 63.2017C7.81534 64.0104 7.67779 64.7114 7.4027 65.3047C7.1276 65.8946 6.74645 66.352 6.25923 66.6768C5.77202 66.9983 5.21023 67.1591 4.57386 67.1591C4.08333 67.1591 3.69058 67.0779 3.3956 66.9155C3.10062 66.7498 2.87358 66.5625 2.71449 66.3537C2.5554 66.1416 2.43277 65.9659 2.34659 65.8267H2.24716V69.8636H1.07386ZM2.22727 63.1818C2.22727 63.7585 2.31179 64.2673 2.48082 64.7081C2.64986 65.1456 2.89678 65.4886 3.22159 65.7372C3.5464 65.9825 3.94413 66.1051 4.41477 66.1051C4.9053 66.1051 5.31463 65.9759 5.64276 65.7173C5.9742 65.4555 6.22277 65.1042 6.38849 64.6634C6.55753 64.2192 6.64205 63.7254 6.64205 63.1818C6.64205 62.6449 6.55919 62.161 6.39347 61.7301C6.23106 61.2959 5.98414 60.9529 5.6527 60.701C5.32457 60.4458 4.91193 60.3182 4.41477 60.3182C3.9375 60.3182 3.53646 60.4392 3.21165 60.6811C2.88684 60.9197 2.64157 61.2545 2.47585 61.6854C2.31013 62.1129 2.22727 62.6117 2.22727 63.1818ZM12.8068 67.1591C12.071 67.1591 11.4363 66.9967 10.9027 66.6719C10.3724 66.3438 9.96307 65.8864 9.67472 65.2997C9.38968 64.7098 9.24716 64.0237 9.24716 63.2415C9.24716 62.4593 9.38968 61.7699 9.67472 61.1733C9.96307 60.5734 10.3641 60.1061 10.8778 59.7713C11.3949 59.4332 11.9981 59.2642 12.6875 59.2642C13.0852 59.2642 13.478 59.3305 13.8658 59.4631C14.2536 59.5956 14.6065 59.8111 14.9247 60.1094C15.2429 60.4044 15.4964 60.7955 15.6854 61.2827C15.8743 61.7699 15.9688 62.3698 15.9688 63.0824V63.5795H10.0824V62.5653H14.7756C14.7756 62.1345 14.6894 61.75 14.517 61.4119C14.348 61.0739 14.1061 60.8071 13.7912 60.6115C13.4796 60.416 13.1117 60.3182 12.6875 60.3182C12.2202 60.3182 11.8158 60.4342 11.4744 60.6662C11.1364 60.8949 10.8762 61.1932 10.6939 61.5611C10.5116 61.929 10.4205 62.3234 10.4205 62.7443V63.4205C10.4205 63.9972 10.5199 64.486 10.7188 64.8871C10.9209 65.2848 11.201 65.5881 11.5589 65.7969C11.9169 66.0024 12.3329 66.1051 12.8068 66.1051C13.1151 66.1051 13.3935 66.062 13.642 65.9759C13.8939 65.8864 14.111 65.7538 14.2933 65.5781C14.4756 65.3991 14.6165 65.1771 14.7159 64.9119L15.8494 65.2301C15.7301 65.6146 15.5296 65.9527 15.2479 66.2443C14.9661 66.5327 14.6181 66.758 14.2038 66.9205C13.7895 67.0795 13.3239 67.1591 12.8068 67.1591ZM17.7536 67V59.3636H18.8871V60.517H18.9666C19.1058 60.1392 19.3577 59.8326 19.7223 59.5973C20.0869 59.362 20.4979 59.2443 20.9553 59.2443C21.0414 59.2443 21.1491 59.246 21.2784 59.2493C21.4077 59.2526 21.5054 59.2576 21.5717 59.2642V60.4574C21.532 60.4474 21.4408 60.4325 21.2983 60.4126C21.1591 60.3894 21.0116 60.3778 20.8558 60.3778C20.4846 60.3778 20.1532 60.4557 19.8615 60.6115C19.5732 60.764 19.3445 60.9761 19.1754 61.2479C19.0097 61.5163 18.9268 61.8229 18.9268 62.1676V67H17.7536ZM22.9625 67V59.3636H24.0961V60.5568H24.1955C24.3546 60.1491 24.6114 59.8326 24.9661 59.6072C25.3207 59.3786 25.7466 59.2642 26.2438 59.2642C26.7476 59.2642 27.1668 59.3786 27.5016 59.6072C27.8397 59.8326 28.1032 60.1491 28.2921 60.5568H28.3716C28.5672 60.1624 28.8605 59.8492 29.2516 59.6172C29.6427 59.3819 30.1117 59.2642 30.6586 59.2642C31.3413 59.2642 31.8998 59.478 32.334 59.9055C32.7682 60.3298 32.9853 60.991 32.9853 61.8892V67H31.812V61.8892C31.812 61.3258 31.6578 60.9231 31.3496 60.6811C31.0414 60.4392 30.6784 60.3182 30.2608 60.3182C29.7239 60.3182 29.3079 60.4806 29.013 60.8054C28.718 61.1269 28.5705 61.5346 28.5705 62.0284V67H27.3773V61.7699C27.3773 61.3357 27.2364 60.986 26.9547 60.7209C26.673 60.4524 26.3101 60.3182 25.8659 60.3182C25.561 60.3182 25.276 60.3994 25.0108 60.5618C24.749 60.7242 24.5369 60.9496 24.3745 61.2379C24.2154 61.523 24.1358 61.8527 24.1358 62.2273V67H22.9625ZM35.1305 67V59.3636H36.3038V67H35.1305ZM35.7271 58.0909C35.4984 58.0909 35.3012 58.013 35.1355 57.8572C34.9731 57.7015 34.8919 57.5142 34.8919 57.2955C34.8919 57.0767 34.9731 56.8894 35.1355 56.7337C35.3012 56.5779 35.4984 56.5 35.7271 56.5C35.9558 56.5 36.1513 56.5779 36.3137 56.7337C36.4795 56.8894 36.5623 57.0767 36.5623 57.2955C36.5623 57.5142 36.4795 57.7015 36.3137 57.8572C36.1513 58.013 35.9558 58.0909 35.7271 58.0909ZM43.8619 61.0739L42.8079 61.3722C42.7416 61.1965 42.6438 61.0258 42.5146 60.8601C42.3886 60.6911 42.2163 60.5518 41.9975 60.4425C41.7788 60.3331 41.4987 60.2784 41.1573 60.2784C40.69 60.2784 40.3005 60.3861 39.989 60.6016C39.6808 60.8137 39.5266 61.0838 39.5266 61.4119C39.5266 61.7036 39.6327 61.9339 39.8448 62.103C40.0569 62.272 40.3884 62.4129 40.8391 62.5256L41.9727 62.804C42.6554 62.9697 43.1642 63.2232 43.4989 63.5646C43.8337 63.9027 44.0011 64.3385 44.0011 64.8722C44.0011 65.3097 43.8751 65.7008 43.6232 66.0455C43.3746 66.3902 43.0266 66.6619 42.5792 66.8608C42.1317 67.0597 41.6114 67.1591 41.0181 67.1591C40.2392 67.1591 39.5946 66.9901 39.0842 66.652C38.5737 66.3139 38.2506 65.8201 38.1147 65.1705L39.2283 64.892C39.3344 65.303 39.5349 65.6113 39.8299 65.8168C40.1282 66.0223 40.5176 66.125 40.9982 66.125C41.5451 66.125 41.9793 66.009 42.3008 65.777C42.6256 65.5417 42.788 65.2599 42.788 64.9318C42.788 64.6667 42.6952 64.4446 42.5096 64.2656C42.324 64.0833 42.0389 63.9474 41.6545 63.858L40.3817 63.5597C39.6824 63.3939 39.1687 63.1371 38.8406 62.7891C38.5157 62.4377 38.3533 61.9986 38.3533 61.4716C38.3533 61.0407 38.4743 60.6596 38.7163 60.3281C38.9615 59.9967 39.2946 59.7365 39.7156 59.5476C40.1398 59.3587 40.6204 59.2642 41.1573 59.2642C41.913 59.2642 42.5063 59.4299 42.9371 59.7614C43.3713 60.0928 43.6796 60.5303 43.8619 61.0739ZM51.1763 61.0739L50.1223 61.3722C50.056 61.1965 49.9583 61.0258 49.829 60.8601C49.7031 60.6911 49.5307 60.5518 49.312 60.4425C49.0932 60.3331 48.8132 60.2784 48.4718 60.2784C48.0044 60.2784 47.615 60.3861 47.3034 60.6016C46.9952 60.8137 46.8411 61.0838 46.8411 61.4119C46.8411 61.7036 46.9471 61.9339 47.1593 62.103C47.3714 62.272 47.7028 62.4129 48.1536 62.5256L49.2871 62.804C49.9699 62.9697 50.4786 63.2232 50.8134 63.5646C51.1481 63.9027 51.3155 64.3385 51.3155 64.8722C51.3155 65.3097 51.1896 65.7008 50.9377 66.0455C50.6891 66.3902 50.3411 66.6619 49.8936 66.8608C49.4462 67.0597 48.9258 67.1591 48.3326 67.1591C47.5537 67.1591 46.909 66.9901 46.3986 66.652C45.8882 66.3139 45.565 65.8201 45.4292 65.1705L46.5428 64.892C46.6489 65.303 46.8494 65.6113 47.1444 65.8168C47.4426 66.0223 47.8321 66.125 48.3127 66.125C48.8596 66.125 49.2937 66.009 49.6152 65.777C49.94 65.5417 50.1025 65.2599 50.1025 64.9318C50.1025 64.6667 50.0096 64.4446 49.824 64.2656C49.6384 64.0833 49.3534 63.9474 48.9689 63.858L47.6962 63.5597C46.9969 63.3939 46.4831 63.1371 46.155 62.7891C45.8302 62.4377 45.6678 61.9986 45.6678 61.4716C45.6678 61.0407 45.7888 60.6596 46.0307 60.3281C46.276 59.9967 46.6091 59.7365 47.03 59.5476C47.4542 59.3587 47.9348 59.2642 48.4718 59.2642C49.2275 59.2642 49.8207 59.4299 50.2516 59.7614C50.6858 60.0928 50.994 60.5303 51.1763 61.0739ZM53.0817 67V59.3636H54.255V67H53.0817ZM53.6783 58.0909C53.4496 58.0909 53.2524 58.013 53.0866 57.8572C52.9242 57.7015 52.843 57.5142 52.843 57.2955C52.843 57.0767 52.9242 56.8894 53.0866 56.7337C53.2524 56.5779 53.4496 56.5 53.6783 56.5C53.907 56.5 54.1025 56.5779 54.2649 56.7337C54.4306 56.8894 54.5135 57.0767 54.5135 57.2955C54.5135 57.5142 54.4306 57.7015 54.2649 57.8572C54.1025 58.013 53.907 58.0909 53.6783 58.0909ZM59.5062 67.1591C58.8168 67.1591 58.2119 66.995 57.6916 66.6669C57.1745 66.3388 56.7702 65.8797 56.4785 65.2898C56.1902 64.6998 56.046 64.0104 56.046 63.2216C56.046 62.4261 56.1902 61.7318 56.4785 61.1385C56.7702 60.5452 57.1745 60.0845 57.6916 59.7564C58.2119 59.4283 58.8168 59.2642 59.5062 59.2642C60.1956 59.2642 60.7988 59.4283 61.3159 59.7564C61.8362 60.0845 62.2406 60.5452 62.5289 61.1385C62.8206 61.7318 62.9664 62.4261 62.9664 63.2216C62.9664 64.0104 62.8206 64.6998 62.5289 65.2898C62.2406 65.8797 61.8362 66.3388 61.3159 66.6669C60.7988 66.995 60.1956 67.1591 59.5062 67.1591ZM59.5062 66.1051C60.0299 66.1051 60.4608 65.9709 60.7988 65.7024C61.1369 65.4339 61.3871 65.081 61.5495 64.6435C61.7119 64.206 61.7931 63.732 61.7931 63.2216C61.7931 62.7112 61.7119 62.2356 61.5495 61.7947C61.3871 61.3539 61.1369 60.9976 60.7988 60.7259C60.4608 60.4541 60.0299 60.3182 59.5062 60.3182C58.9825 60.3182 58.5517 60.4541 58.2136 60.7259C57.8755 60.9976 57.6253 61.3539 57.4629 61.7947C57.3005 62.2356 57.2193 62.7112 57.2193 63.2216C57.2193 63.732 57.3005 64.206 57.4629 64.6435C57.6253 65.081 57.8755 65.4339 58.2136 65.7024C58.5517 65.9709 58.9825 66.1051 59.5062 66.1051ZM65.9308 62.4062V67H64.7575V59.3636H65.891V60.5568H65.9904C66.1694 60.169 66.4412 59.8575 66.8058 59.6222C67.1703 59.3835 67.641 59.2642 68.2177 59.2642C68.7347 59.2642 69.1871 59.3703 69.5749 59.5824C69.9627 59.7912 70.2643 60.1094 70.4798 60.5369C70.6952 60.9612 70.8029 61.4981 70.8029 62.1477V67H69.6296V62.2273C69.6296 61.6274 69.4738 61.16 69.1623 60.8253C68.8507 60.4872 68.4232 60.3182 67.8796 60.3182C67.5051 60.3182 67.1703 60.3994 66.8754 60.5618C66.5837 60.7242 66.3533 60.9612 66.1843 61.2727C66.0153 61.5843 65.9308 61.9621 65.9308 62.4062ZM80.285 59.3636V60.358H76.1685V59.3636H80.285ZM77.4015 67V58.3097C77.4015 57.8722 77.5042 57.5076 77.7097 57.2159C77.9152 56.9242 78.182 56.7055 78.5101 56.5597C78.8382 56.4138 79.1846 56.3409 79.5492 56.3409C79.8375 56.3409 80.0729 56.3641 80.2551 56.4105C80.4374 56.4569 80.5733 56.5 80.6628 56.5398L80.3248 57.554C80.2651 57.5341 80.1822 57.5092 80.0762 57.4794C79.9734 57.4496 79.8375 57.4347 79.6685 57.4347C79.2807 57.4347 79.0007 57.5324 78.8283 57.728C78.6593 57.9235 78.5748 58.2102 78.5748 58.5881V67H77.4015ZM84.7172 67.1591C84.0278 67.1591 83.4229 66.995 82.9025 66.6669C82.3855 66.3388 81.9811 65.8797 81.6895 65.2898C81.4011 64.6998 81.2569 64.0104 81.2569 63.2216C81.2569 62.4261 81.4011 61.7318 81.6895 61.1385C81.9811 60.5452 82.3855 60.0845 82.9025 59.7564C83.4229 59.4283 84.0278 59.2642 84.7172 59.2642C85.4065 59.2642 86.0098 59.4283 86.5268 59.7564C87.0472 60.0845 87.4515 60.5452 87.7399 61.1385C88.0315 61.7318 88.1774 62.4261 88.1774 63.2216C88.1774 64.0104 88.0315 64.6998 87.7399 65.2898C87.4515 65.8797 87.0472 66.3388 86.5268 66.6669C86.0098 66.995 85.4065 67.1591 84.7172 67.1591ZM84.7172 66.1051C85.2408 66.1051 85.6717 65.9709 86.0098 65.7024C86.3478 65.4339 86.5981 65.081 86.7605 64.6435C86.9229 64.206 87.0041 63.732 87.0041 63.2216C87.0041 62.7112 86.9229 62.2356 86.7605 61.7947C86.5981 61.3539 86.3478 60.9976 86.0098 60.7259C85.6717 60.4541 85.2408 60.3182 84.7172 60.3182C84.1935 60.3182 83.7626 60.4541 83.4245 60.7259C83.0865 60.9976 82.8362 61.3539 82.6738 61.7947C82.5114 62.2356 82.4302 62.7112 82.4302 63.2216C82.4302 63.732 82.5114 64.206 82.6738 64.6435C82.8362 65.081 83.0865 65.4339 83.4245 65.7024C83.7626 65.9709 84.1935 66.1051 84.7172 66.1051ZM89.9684 67V59.3636H91.1019V60.517H91.1815C91.3207 60.1392 91.5726 59.8326 91.9371 59.5973C92.3017 59.362 92.7127 59.2443 93.1701 59.2443C93.2563 59.2443 93.364 59.246 93.4933 59.2493C93.6225 59.2526 93.7203 59.2576 93.7866 59.2642V60.4574C93.7468 60.4474 93.6557 60.4325 93.5131 60.4126C93.3739 60.3894 93.2264 60.3778 93.0707 60.3778C92.6995 60.3778 92.368 60.4557 92.0763 60.6115C91.788 60.764 91.5593 60.9761 91.3903 61.2479C91.2246 61.5163 91.1417 61.8229 91.1417 62.1676V67H89.9684ZM102.317 67.1591C101.581 67.1591 100.946 66.9967 100.412 66.6719C99.8822 66.3438 99.4728 65.8864 99.1845 65.2997C98.8994 64.7098 98.7569 64.0237 98.7569 63.2415C98.7569 62.4593 98.8994 61.7699 99.1845 61.1733C99.4728 60.5734 99.8739 60.1061 100.388 59.7713C100.905 59.4332 101.508 59.2642 102.197 59.2642C102.595 59.2642 102.988 59.3305 103.376 59.4631C103.763 59.5956 104.116 59.8111 104.434 60.1094C104.753 60.4044 105.006 60.7955 105.195 61.2827C105.384 61.7699 105.479 62.3698 105.479 63.0824V63.5795H99.5922V62.5653H104.285C104.285 62.1345 104.199 61.75 104.027 61.4119C103.858 61.0739 103.616 60.8071 103.301 60.6115C102.989 60.416 102.622 60.3182 102.197 60.3182C101.73 60.3182 101.326 60.4342 100.984 60.6662C100.646 60.8949 100.386 61.1932 100.204 61.5611C100.021 61.929 99.9302 62.3234 99.9302 62.7443V63.4205C99.9302 63.9972 100.03 64.486 100.229 64.8871C100.431 65.2848 100.711 65.5881 101.069 65.7969C101.427 66.0024 101.843 66.1051 102.317 66.1051C102.625 66.1051 102.903 66.062 103.152 65.9759C103.404 65.8864 103.621 65.7538 103.803 65.5781C103.985 65.3991 104.126 65.1771 104.226 64.9119L105.359 65.2301C105.24 65.6146 105.039 65.9527 104.758 66.2443C104.476 66.5327 104.128 66.758 103.714 66.9205C103.299 67.0795 102.834 67.1591 102.317 67.1591ZM107.933 59.3636L109.763 62.4858L111.592 59.3636H112.945L110.479 63.1818L112.945 67H111.592L109.763 64.0369L107.933 67H106.581L109.007 63.1818L106.581 59.3636H107.933ZM117.506 67.1591C116.77 67.1591 116.136 66.9967 115.602 66.6719C115.072 66.3438 114.662 65.8864 114.374 65.2997C114.089 64.7098 113.946 64.0237 113.946 63.2415C113.946 62.4593 114.089 61.7699 114.374 61.1733C114.662 60.5734 115.063 60.1061 115.577 59.7713C116.094 59.4332 116.697 59.2642 117.387 59.2642C117.784 59.2642 118.177 59.3305 118.565 59.4631C118.953 59.5956 119.306 59.8111 119.624 60.1094C119.942 60.4044 120.196 60.7955 120.385 61.2827C120.574 61.7699 120.668 62.3698 120.668 63.0824V63.5795H114.782V62.5653H119.475C119.475 62.1345 119.389 61.75 119.216 61.4119C119.047 61.0739 118.805 60.8071 118.49 60.6115C118.179 60.416 117.811 60.3182 117.387 60.3182C116.919 60.3182 116.515 60.4342 116.174 60.6662C115.836 60.8949 115.575 61.1932 115.393 61.5611C115.211 61.929 115.12 62.3234 115.12 62.7443V63.4205C115.12 63.9972 115.219 64.486 115.418 64.8871C115.62 65.2848 115.9 65.5881 116.258 65.7969C116.616 66.0024 117.032 66.1051 117.506 66.1051C117.814 66.1051 118.093 66.062 118.341 65.9759C118.593 65.8864 118.81 65.7538 118.993 65.5781C119.175 65.3991 119.316 65.1771 119.415 64.9119L120.549 65.2301C120.429 65.6146 120.229 65.9527 119.947 66.2443C119.665 66.5327 119.317 66.758 118.903 66.9205C118.489 67.0795 118.023 67.1591 117.506 67.1591ZM125.555 67.1591C124.839 67.1591 124.223 66.9901 123.706 66.652C123.189 66.3139 122.791 65.8482 122.512 65.255C122.234 64.6617 122.095 63.9839 122.095 63.2216C122.095 62.446 122.237 61.7616 122.522 61.1683C122.811 60.5717 123.212 60.1061 123.725 59.7713C124.243 59.4332 124.846 59.2642 125.535 59.2642C126.072 59.2642 126.556 59.3636 126.987 59.5625C127.418 59.7614 127.771 60.0398 128.046 60.3977C128.321 60.7557 128.492 61.1733 128.558 61.6506H127.385C127.295 61.3026 127.096 60.9943 126.788 60.7259C126.483 60.4541 126.072 60.3182 125.555 60.3182C125.098 60.3182 124.697 60.4375 124.352 60.6761C124.011 60.9115 123.744 61.2446 123.551 61.6754C123.363 62.103 123.268 62.6051 123.268 63.1818C123.268 63.7718 123.361 64.2855 123.547 64.723C123.735 65.1605 124.001 65.5002 124.342 65.7422C124.687 65.9841 125.091 66.1051 125.555 66.1051C125.86 66.1051 126.137 66.0521 126.385 65.946C126.634 65.84 126.844 65.6875 127.017 65.4886C127.189 65.2898 127.312 65.0511 127.385 64.7727H128.558C128.492 65.2235 128.328 65.6295 128.066 65.9908C127.807 66.3487 127.464 66.6338 127.037 66.8459C126.612 67.0547 126.118 67.1591 125.555 67.1591ZM135.086 63.8778V59.3636H136.259V67H135.086V65.7074H135.006C134.827 66.0952 134.549 66.425 134.171 66.6967C133.793 66.9652 133.316 67.0994 132.739 67.0994C132.262 67.0994 131.837 66.995 131.466 66.7862C131.095 66.5741 130.803 66.2559 130.591 65.8317C130.379 65.4041 130.273 64.8655 130.273 64.2159V59.3636H131.446V64.1364C131.446 64.6932 131.602 65.1373 131.914 65.4688C132.229 65.8002 132.63 65.9659 133.117 65.9659C133.408 65.9659 133.705 65.8913 134.007 65.7422C134.312 65.593 134.567 65.3643 134.772 65.0561C134.981 64.7479 135.086 64.3551 135.086 63.8778ZM141.729 59.3636V60.358H137.771V59.3636H141.729ZM138.925 57.5341H140.098V64.8125C140.098 65.1439 140.146 65.3925 140.242 65.5582C140.342 65.7206 140.468 65.83 140.62 65.8864C140.776 65.9394 140.94 65.9659 141.112 65.9659C141.242 65.9659 141.348 65.9593 141.431 65.946C141.513 65.9295 141.58 65.9162 141.629 65.9062L141.868 66.9602C141.789 66.9901 141.677 67.0199 141.535 67.0497C141.392 67.0829 141.212 67.0994 140.993 67.0994C140.662 67.0994 140.337 67.0282 140.019 66.8857C139.704 66.7431 139.442 66.526 139.233 66.2344C139.028 65.9427 138.925 65.5748 138.925 65.1307V57.5341ZM146.613 67.1591C145.878 67.1591 145.243 66.9967 144.709 66.6719C144.179 66.3438 143.77 65.8864 143.481 65.2997C143.196 64.7098 143.054 64.0237 143.054 63.2415C143.054 62.4593 143.196 61.7699 143.481 61.1733C143.77 60.5734 144.171 60.1061 144.684 59.7713C145.202 59.4332 145.805 59.2642 146.494 59.2642C146.892 59.2642 147.285 59.3305 147.672 59.4631C148.06 59.5956 148.413 59.8111 148.731 60.1094C149.05 60.4044 149.303 60.7955 149.492 61.2827C149.681 61.7699 149.775 62.3698 149.775 63.0824V63.5795H143.889V62.5653H148.582C148.582 62.1345 148.496 61.75 148.324 61.4119C148.155 61.0739 147.913 60.8071 147.598 60.6115C147.286 60.416 146.918 60.3182 146.494 60.3182C146.027 60.3182 145.622 60.4342 145.281 60.6662C144.943 60.8949 144.683 61.1932 144.501 61.5611C144.318 61.929 144.227 62.3234 144.227 62.7443V63.4205C144.227 63.9972 144.327 64.486 144.525 64.8871C144.728 65.2848 145.008 65.5881 145.366 65.7969C145.724 66.0024 146.14 66.1051 146.613 66.1051C146.922 66.1051 147.2 66.062 147.449 65.9759C147.701 65.8864 147.918 65.7538 148.1 65.5781C148.282 65.3991 148.423 65.1771 148.523 64.9119L149.656 65.2301C149.537 65.6146 149.336 65.9527 149.055 66.2443C148.773 66.5327 148.425 66.758 148.01 66.9205C147.596 67.0795 147.131 67.1591 146.613 67.1591ZM157.745 67.179C157.261 67.179 156.822 67.0878 156.427 66.9055C156.033 66.7199 155.72 66.4531 155.488 66.1051C155.256 65.7538 155.14 65.3295 155.14 64.8324C155.14 64.3949 155.226 64.0402 155.398 63.7685C155.571 63.4934 155.801 63.2779 156.089 63.1222C156.378 62.9664 156.696 62.8504 157.044 62.7741C157.395 62.6946 157.748 62.6316 158.103 62.5852C158.567 62.5256 158.943 62.4808 159.231 62.451C159.523 62.4179 159.735 62.3632 159.868 62.2869C160.004 62.2107 160.072 62.0781 160.072 61.8892V61.8494C160.072 61.3589 159.937 60.9777 159.669 60.706C159.404 60.4342 159.001 60.2983 158.461 60.2983C157.901 60.2983 157.461 60.4209 157.143 60.6662C156.825 60.9115 156.601 61.1733 156.472 61.4517L155.358 61.054C155.557 60.59 155.823 60.2287 156.154 59.9702C156.489 59.7083 156.853 59.526 157.248 59.4233C157.645 59.3172 158.037 59.2642 158.421 59.2642C158.666 59.2642 158.948 59.294 159.266 59.3537C159.588 59.41 159.898 59.5277 160.196 59.7067C160.497 59.8857 160.748 60.1558 160.947 60.517C161.145 60.8783 161.245 61.3622 161.245 61.9688V67H160.072V65.9659H160.012C159.932 66.1316 159.8 66.3089 159.614 66.4979C159.429 66.6868 159.182 66.8475 158.873 66.9801C158.565 67.1127 158.189 67.179 157.745 67.179ZM157.924 66.125C158.388 66.125 158.779 66.0339 159.097 65.8516C159.419 65.6693 159.661 65.4339 159.823 65.1456C159.989 64.8572 160.072 64.554 160.072 64.2358V63.1619C160.022 63.2216 159.912 63.2763 159.743 63.326C159.578 63.3724 159.385 63.4138 159.167 63.4503C158.951 63.4834 158.741 63.5133 158.535 63.5398C158.333 63.563 158.169 63.5829 158.043 63.5994C157.738 63.6392 157.453 63.7038 157.188 63.7933C156.926 63.8795 156.714 64.0104 156.552 64.1861C156.393 64.3584 156.313 64.5937 156.313 64.892C156.313 65.2997 156.464 65.608 156.765 65.8168C157.07 66.0223 157.456 66.125 157.924 66.125ZM168.199 63.8778V59.3636H169.372V67H168.199V65.7074H168.119C167.94 66.0952 167.662 66.425 167.284 66.6967C166.906 66.9652 166.429 67.0994 165.852 67.0994C165.375 67.0994 164.951 66.995 164.58 66.7862C164.208 66.5741 163.917 66.2559 163.705 65.8317C163.492 65.4041 163.386 64.8655 163.386 64.2159V59.3636H164.56V64.1364C164.56 64.6932 164.715 65.1373 165.027 65.4688C165.342 65.8002 165.743 65.9659 166.23 65.9659C166.522 65.9659 166.818 65.8913 167.12 65.7422C167.425 65.593 167.68 65.3643 167.886 65.0561C168.094 64.7479 168.199 64.3551 168.199 63.8778ZM174.842 59.3636V60.358H170.885V59.3636H174.842ZM172.038 57.5341H173.211V64.8125C173.211 65.1439 173.26 65.3925 173.356 65.5582C173.455 65.7206 173.581 65.83 173.733 65.8864C173.889 65.9394 174.053 65.9659 174.226 65.9659C174.355 65.9659 174.461 65.9593 174.544 65.946C174.627 65.9295 174.693 65.9162 174.743 65.9062L174.981 66.9602C174.902 66.9901 174.791 67.0199 174.648 67.0497C174.506 67.0829 174.325 67.0994 174.106 67.0994C173.775 67.0994 173.45 67.0282 173.132 66.8857C172.817 66.7431 172.555 66.526 172.346 66.2344C172.141 65.9427 172.038 65.5748 172.038 65.1307V57.5341ZM177.944 62.4062V67H176.771V56.8182H177.944V60.5568H178.044C178.223 60.1624 178.491 59.8492 178.849 59.6172C179.211 59.3819 179.691 59.2642 180.291 59.2642C180.811 59.2642 181.267 59.3686 181.658 59.5774C182.049 59.7829 182.353 60.0994 182.568 60.527C182.787 60.9512 182.896 61.4915 182.896 62.1477V67H181.723V62.2273C181.723 61.6207 181.565 61.1518 181.251 60.8203C180.939 60.4856 180.506 60.3182 179.953 60.3182C179.568 60.3182 179.224 60.3994 178.919 60.5618C178.617 60.7242 178.379 60.9612 178.203 61.2727C178.031 61.5843 177.944 61.9621 177.944 62.4062ZM188.145 67.1591C187.455 67.1591 186.851 66.995 186.33 66.6669C185.813 66.3388 185.409 65.8797 185.117 65.2898C184.829 64.6998 184.685 64.0104 184.685 63.2216C184.685 62.4261 184.829 61.7318 185.117 61.1385C185.409 60.5452 185.813 60.0845 186.33 59.7564C186.851 59.4283 187.455 59.2642 188.145 59.2642C188.834 59.2642 189.438 59.4283 189.955 59.7564C190.475 60.0845 190.879 60.5452 191.168 61.1385C191.459 61.7318 191.605 62.4261 191.605 63.2216C191.605 64.0104 191.459 64.6998 191.168 65.2898C190.879 65.8797 190.475 66.3388 189.955 66.6669C189.438 66.995 188.834 67.1591 188.145 67.1591ZM188.145 66.1051C188.669 66.1051 189.099 65.9709 189.438 65.7024C189.776 65.4339 190.026 65.081 190.188 64.6435C190.351 64.206 190.432 63.732 190.432 63.2216C190.432 62.7112 190.351 62.2356 190.188 61.7947C190.026 61.3539 189.776 60.9976 189.438 60.7259C189.099 60.4541 188.669 60.3182 188.145 60.3182C187.621 60.3182 187.19 60.4541 186.852 60.7259C186.514 60.9976 186.264 61.3539 186.102 61.7947C185.939 62.2356 185.858 62.7112 185.858 63.2216C185.858 63.732 185.939 64.206 186.102 64.6435C186.264 65.081 186.514 65.4339 186.852 65.7024C187.19 65.9709 187.621 66.1051 188.145 66.1051ZM193.396 67V59.3636H194.53V60.517H194.609C194.748 60.1392 195 59.8326 195.365 59.5973C195.729 59.362 196.14 59.2443 196.598 59.2443C196.684 59.2443 196.792 59.246 196.921 59.2493C197.05 59.2526 197.148 59.2576 197.214 59.2642V60.4574C197.175 60.4474 197.083 60.4325 196.941 60.4126C196.802 60.3894 196.654 60.3778 196.498 60.3778C196.127 60.3778 195.796 60.4557 195.504 60.6115C195.216 60.764 194.987 60.9761 194.818 61.2479C194.652 61.5163 194.569 61.8229 194.569 62.1676V67H193.396ZM198.605 67V59.3636H199.778V67H198.605ZM199.202 58.0909C198.973 58.0909 198.776 58.013 198.61 57.8572C198.448 57.7015 198.366 57.5142 198.366 57.2955C198.366 57.0767 198.448 56.8894 198.61 56.7337C198.776 56.5779 198.973 56.5 199.202 56.5C199.43 56.5 199.626 56.5779 199.788 56.7337C199.954 56.8894 200.037 57.0767 200.037 57.2955C200.037 57.5142 199.954 57.7015 199.788 57.8572C199.626 58.013 199.43 58.0909 199.202 58.0909ZM205.248 59.3636V60.358H201.291V59.3636H205.248ZM202.444 57.5341H203.618V64.8125C203.618 65.1439 203.666 65.3925 203.762 65.5582C203.861 65.7206 203.987 65.83 204.14 65.8864C204.296 65.9394 204.46 65.9659 204.632 65.9659C204.761 65.9659 204.867 65.9593 204.95 65.946C205.033 65.9295 205.099 65.9162 205.149 65.9062L205.388 66.9602C205.308 66.9901 205.197 67.0199 205.055 67.0497C204.912 67.0829 204.731 67.0994 204.513 67.0994C204.181 67.0994 203.856 67.0282 203.538 66.8857C203.223 66.7431 202.961 66.526 202.753 66.2344C202.547 65.9427 202.444 65.5748 202.444 65.1307V57.5341ZM207.769 69.8636C207.57 69.8636 207.393 69.8471 207.237 69.8139C207.081 69.7841 206.974 69.7543 206.914 69.7244L207.212 68.6903C207.497 68.7633 207.749 68.7898 207.968 68.7699C208.187 68.75 208.381 68.6522 208.55 68.4766C208.722 68.3042 208.879 68.0241 209.022 67.6364L209.241 67.0398L206.417 59.3636H207.689L209.797 65.4489H209.877L211.985 59.3636H213.258L210.016 68.1136C209.87 68.508 209.69 68.8345 209.474 69.093C209.259 69.3549 209.009 69.5488 208.724 69.6747C208.442 69.8007 208.124 69.8636 207.769 69.8636ZM215.183 67.0795C214.938 67.0795 214.727 66.9917 214.551 66.8161C214.376 66.6404 214.288 66.4299 214.288 66.1847C214.288 65.9394 214.376 65.7289 214.551 65.5533C214.727 65.3776 214.938 65.2898 215.183 65.2898C215.428 65.2898 215.639 65.3776 215.814 65.5533C215.99 65.7289 216.078 65.9394 216.078 66.1847C216.078 66.3471 216.036 66.4962 215.953 66.6321C215.874 66.768 215.766 66.8774 215.63 66.9602C215.498 67.0398 215.349 67.0795 215.183 67.0795Z" fill="#475467"/>
</svg>
