<svg width="174" height="48" viewBox="0 0 174 48" fill="none" xmlns="http://www.w3.org/2000/svg">
<g filter="url(#filter0_d_141_521)">
<rect x="2" y="1" width="170" height="44" rx="8" fill="white"/>
<rect x="2.5" y="1.5" width="169" height="43" rx="7.5" stroke="#D0D5DD"/>
<path d="M71.108 21.2898H68.983C68.9223 20.9413 68.8106 20.6326 68.6477 20.3636C68.4848 20.0909 68.2822 19.8598 68.0398 19.6705C67.7973 19.4811 67.5208 19.339 67.2102 19.2443C66.9034 19.1458 66.572 19.0966 66.2159 19.0966C65.5833 19.0966 65.0227 19.2557 64.5341 19.5739C64.0455 19.8883 63.6629 20.3504 63.3864 20.9602C63.1098 21.5663 62.9716 22.3068 62.9716 23.1818C62.9716 24.072 63.1098 24.822 63.3864 25.4318C63.6667 26.0379 64.0492 26.4962 64.5341 26.8068C65.0227 27.1136 65.5814 27.267 66.2102 27.267C66.5587 27.267 66.8845 27.2216 67.1875 27.1307C67.4943 27.036 67.7689 26.8977 68.0114 26.7159C68.2576 26.5341 68.464 26.3106 68.6307 26.0455C68.8011 25.7803 68.9186 25.4773 68.983 25.1364L71.108 25.1477C71.0284 25.7008 70.8561 26.2197 70.5909 26.7045C70.3295 27.1894 69.9867 27.6174 69.5625 27.9886C69.1383 28.3561 68.642 28.6439 68.0739 28.8523C67.5057 29.0568 66.875 29.1591 66.1818 29.1591C65.1591 29.1591 64.2462 28.9223 63.4432 28.4489C62.6402 27.9754 62.0076 27.2917 61.5455 26.3977C61.0833 25.5038 60.8523 24.4318 60.8523 23.1818C60.8523 21.928 61.0852 20.8561 61.5511 19.9659C62.017 19.072 62.6515 18.3883 63.4545 17.9148C64.2576 17.4413 65.1667 17.2045 66.1818 17.2045C66.8295 17.2045 67.4318 17.2955 67.9886 17.4773C68.5455 17.6591 69.0417 17.9261 69.4773 18.2784C69.9129 18.6269 70.2708 19.0549 70.5511 19.5625C70.8352 20.0663 71.0208 20.642 71.108 21.2898ZM75.4588 29.1761C74.9058 29.1761 74.4077 29.0777 73.9645 28.8807C73.5251 28.6799 73.1766 28.3845 72.919 27.9943C72.6652 27.6042 72.5384 27.1231 72.5384 26.5511C72.5384 26.0587 72.6293 25.6515 72.8111 25.3295C72.9929 25.0076 73.241 24.75 73.5554 24.5568C73.8698 24.3636 74.224 24.2178 74.6179 24.1193C75.0156 24.017 75.4266 23.9432 75.8509 23.8977C76.3622 23.8447 76.777 23.7973 77.0952 23.7557C77.4134 23.7102 77.6444 23.642 77.7884 23.5511C77.9361 23.4564 78.0099 23.3106 78.0099 23.1136V23.0795C78.0099 22.6515 77.883 22.3201 77.6293 22.0852C77.3755 21.8504 77.0099 21.733 76.5327 21.733C76.0289 21.733 75.6293 21.8428 75.3338 22.0625C75.0421 22.2822 74.8452 22.5417 74.7429 22.8409L72.8224 22.5682C72.974 22.0379 73.224 21.5947 73.5724 21.2386C73.9209 20.8788 74.3471 20.6098 74.8509 20.4318C75.3546 20.25 75.9115 20.1591 76.5213 20.1591C76.9418 20.1591 77.3603 20.2083 77.777 20.3068C78.1937 20.4053 78.5743 20.5682 78.919 20.7955C79.2637 21.0189 79.5402 21.3239 79.7486 21.7102C79.9607 22.0966 80.0668 22.5795 80.0668 23.1591V29H78.0895V27.8011H78.0213C77.8963 28.0436 77.7202 28.2708 77.4929 28.483C77.2694 28.6913 76.9872 28.8598 76.6463 28.9886C76.3092 29.1136 75.9134 29.1761 75.4588 29.1761ZM75.9929 27.6648C76.4058 27.6648 76.7637 27.5833 77.0668 27.4205C77.3698 27.2538 77.6027 27.0341 77.7656 26.7614C77.9323 26.4886 78.0156 26.1913 78.0156 25.8693V24.8409C77.9512 24.8939 77.8414 24.9432 77.6861 24.9886C77.5346 25.0341 77.3641 25.0739 77.1747 25.108C76.9853 25.142 76.7978 25.1723 76.6122 25.1989C76.4266 25.2254 76.2656 25.2481 76.1293 25.267C75.8224 25.3087 75.5478 25.3769 75.3054 25.4716C75.063 25.5663 74.8717 25.6989 74.7315 25.8693C74.5914 26.036 74.5213 26.2519 74.5213 26.517C74.5213 26.8958 74.6596 27.1818 74.9361 27.375C75.2126 27.5682 75.5649 27.6648 75.9929 27.6648ZM84.1918 23.8864V29H82.1349V20.2727H84.1009V21.7557H84.2031C84.4039 21.267 84.724 20.8788 85.1634 20.5909C85.6065 20.303 86.1539 20.1591 86.8054 20.1591C87.4077 20.1591 87.9323 20.2879 88.3793 20.5455C88.83 20.803 89.1785 21.1761 89.4247 21.6648C89.6747 22.1534 89.7978 22.7462 89.794 23.4432V29H87.7372V23.7614C87.7372 23.178 87.5857 22.7216 87.2827 22.392C86.9834 22.0625 86.5687 21.8977 86.0384 21.8977C85.6785 21.8977 85.3584 21.9773 85.0781 22.1364C84.8016 22.2917 84.5838 22.517 84.4247 22.8125C84.2694 23.108 84.1918 23.4659 84.1918 23.8864ZM95.6918 29.1705C94.8205 29.1705 94.0724 28.9792 93.4474 28.5966C92.8262 28.214 92.3471 27.6856 92.0099 27.0114C91.6766 26.3333 91.5099 25.553 91.5099 24.6705C91.5099 23.7841 91.6804 23.0019 92.0213 22.3239C92.3622 21.642 92.8433 21.1117 93.4645 20.733C94.0895 20.3504 94.8281 20.1591 95.6804 20.1591C96.3887 20.1591 97.0156 20.2898 97.5611 20.5511C98.1103 20.8087 98.5478 21.1742 98.8736 21.6477C99.1993 22.1174 99.3849 22.6667 99.4304 23.2955H97.4645C97.3849 22.875 97.1955 22.5246 96.8963 22.2443C96.6009 21.9602 96.205 21.8182 95.7088 21.8182C95.2884 21.8182 94.919 21.9318 94.6009 22.1591C94.2827 22.3826 94.0346 22.7045 93.8565 23.125C93.6823 23.5455 93.5952 24.0492 93.5952 24.6364C93.5952 25.2311 93.6823 25.7424 93.8565 26.1705C94.0308 26.5947 94.2751 26.9223 94.5895 27.1534C94.9077 27.3807 95.2808 27.4943 95.7088 27.4943C96.0118 27.4943 96.2827 27.4375 96.5213 27.3239C96.7637 27.2064 96.9664 27.0379 97.1293 26.8182C97.2921 26.5985 97.4039 26.3314 97.4645 26.017H99.4304C99.3812 26.6345 99.1993 27.1818 98.8849 27.6591C98.5705 28.1326 98.1425 28.5038 97.6009 28.7727C97.0592 29.0379 96.4228 29.1705 95.6918 29.1705ZM104.983 29.1705C104.108 29.1705 103.352 28.9886 102.716 28.625C102.083 28.2576 101.597 27.7386 101.256 27.0682C100.915 26.3939 100.744 25.6004 100.744 24.6875C100.744 23.7898 100.915 23.0019 101.256 22.3239C101.6 21.642 102.081 21.1117 102.699 20.733C103.316 20.3504 104.042 20.1591 104.875 20.1591C105.413 20.1591 105.92 20.2462 106.398 20.4205C106.879 20.5909 107.303 20.8561 107.67 21.2159C108.042 21.5758 108.333 22.0341 108.545 22.5909C108.758 23.1439 108.864 23.803 108.864 24.5682V25.1989H101.71V23.8125H106.892C106.888 23.4186 106.803 23.0682 106.636 22.7614C106.47 22.4508 106.237 22.2064 105.938 22.0284C105.642 21.8504 105.297 21.7614 104.903 21.7614C104.483 21.7614 104.114 21.8636 103.795 22.0682C103.477 22.2689 103.229 22.5341 103.051 22.8636C102.877 23.1894 102.788 23.5473 102.784 23.9375V25.1477C102.784 25.6553 102.877 26.0909 103.062 26.4545C103.248 26.8144 103.508 27.0909 103.841 27.2841C104.174 27.4735 104.564 27.5682 105.011 27.5682C105.311 27.5682 105.581 27.5265 105.824 27.4432C106.066 27.3561 106.277 27.2292 106.455 27.0625C106.633 26.8958 106.767 26.6894 106.858 26.4432L108.778 26.6591C108.657 27.1667 108.426 27.6098 108.085 27.9886C107.748 28.3636 107.316 28.6553 106.79 28.8636C106.263 29.0682 105.661 29.1705 104.983 29.1705ZM112.661 17.3636V29H110.604V17.3636H112.661Z" fill="#344054"/>
</g>
<defs>
<filter id="filter0_d_141_521" x="0" y="0" width="174" height="48" filterUnits="userSpaceOnUse" color-interpolation-filters="sRGB">
<feFlood flood-opacity="0" result="BackgroundImageFix"/>
<feColorMatrix in="SourceAlpha" type="matrix" values="0 0 0 0 0 0 0 0 0 0 0 0 0 0 0 0 0 0 127 0" result="hardAlpha"/>
<feOffset dy="1"/>
<feGaussianBlur stdDeviation="1"/>
<feColorMatrix type="matrix" values="0 0 0 0 0.0627451 0 0 0 0 0.0941176 0 0 0 0 0.156863 0 0 0 0.05 0"/>
<feBlend mode="normal" in2="BackgroundImageFix" result="effect1_dropShadow_141_521"/>
<feBlend mode="normal" in="SourceGraphic" in2="effect1_dropShadow_141_521" result="shape"/>
</filter>
</defs>
</svg>
