<svg width="174" height="48" viewBox="0 0 174 48" fill="none" xmlns="http://www.w3.org/2000/svg">
<g filter="url(#filter0_d_141_523)">
<rect x="2" y="1" width="170" height="44" rx="8" fill="#567BD9"/>
<rect x="2.5" y="1.5" width="169" height="43" rx="7.5" stroke="#567BD9"/>
<path d="M62.608 21.2898H60.483C60.4223 20.9413 60.3106 20.6326 60.1477 20.3636C59.9848 20.0909 59.7822 19.8598 59.5398 19.6705C59.2973 19.4811 59.0208 19.339 58.7102 19.2443C58.4034 19.1458 58.072 19.0966 57.7159 19.0966C57.0833 19.0966 56.5227 19.2557 56.0341 19.5739C55.5455 19.8883 55.1629 20.3504 54.8864 20.9602C54.6098 21.5663 54.4716 22.3068 54.4716 23.1818C54.4716 24.072 54.6098 24.822 54.8864 25.4318C55.1667 26.0379 55.5492 26.4962 56.0341 26.8068C56.5227 27.1136 57.0814 27.267 57.7102 27.267C58.0587 27.267 58.3845 27.2216 58.6875 27.1307C58.9943 27.036 59.2689 26.8977 59.5114 26.7159C59.7576 26.5341 59.964 26.3106 60.1307 26.0455C60.3011 25.7803 60.4186 25.4773 60.483 25.1364L62.608 25.1477C62.5284 25.7008 62.3561 26.2197 62.0909 26.7045C61.8295 27.1894 61.4867 27.6174 61.0625 27.9886C60.6383 28.3561 60.142 28.6439 59.5739 28.8523C59.0057 29.0568 58.375 29.1591 57.6818 29.1591C56.6591 29.1591 55.7462 28.9223 54.9432 28.4489C54.1402 27.9754 53.5076 27.2917 53.0455 26.3977C52.5833 25.5038 52.3523 24.4318 52.3523 23.1818C52.3523 21.928 52.5852 20.8561 53.0511 19.9659C53.517 19.072 54.1515 18.3883 54.9545 17.9148C55.7576 17.4413 56.6667 17.2045 57.6818 17.2045C58.3295 17.2045 58.9318 17.2955 59.4886 17.4773C60.0455 17.6591 60.5417 17.9261 60.9773 18.2784C61.4129 18.6269 61.7708 19.0549 62.0511 19.5625C62.3352 20.0663 62.5208 20.642 62.608 21.2898ZM68.2543 29.1705C67.402 29.1705 66.6634 28.983 66.0384 28.608C65.4134 28.233 64.9285 27.7083 64.5838 27.0341C64.2429 26.3598 64.0724 25.572 64.0724 24.6705C64.0724 23.7689 64.2429 22.9792 64.5838 22.3011C64.9285 21.6231 65.4134 21.0966 66.0384 20.7216C66.6634 20.3466 67.402 20.1591 68.2543 20.1591C69.1065 20.1591 69.8452 20.3466 70.4702 20.7216C71.0952 21.0966 71.5781 21.6231 71.919 22.3011C72.2637 22.9792 72.4361 23.7689 72.4361 24.6705C72.4361 25.572 72.2637 26.3598 71.919 27.0341C71.5781 27.7083 71.0952 28.233 70.4702 28.608C69.8452 28.983 69.1065 29.1705 68.2543 29.1705ZM68.2656 27.5227C68.7277 27.5227 69.1141 27.3958 69.4247 27.142C69.7353 26.8845 69.9664 26.5398 70.1179 26.108C70.2732 25.6761 70.3509 25.1951 70.3509 24.6648C70.3509 24.1307 70.2732 23.6477 70.1179 23.2159C69.9664 22.7803 69.7353 22.4337 69.4247 22.1761C69.1141 21.9186 68.7277 21.7898 68.2656 21.7898C67.7921 21.7898 67.3982 21.9186 67.0838 22.1761C66.7732 22.4337 66.5402 22.7803 66.3849 23.2159C66.2334 23.6477 66.1577 24.1307 66.1577 24.6648C66.1577 25.1951 66.2334 25.6761 66.3849 26.108C66.5402 26.5398 66.7732 26.8845 67.0838 27.142C67.3982 27.3958 67.7921 27.5227 68.2656 27.5227ZM76.2386 23.8864V29H74.1818V20.2727H76.1477V21.7557H76.25C76.4508 21.267 76.7708 20.8788 77.2102 20.5909C77.6534 20.303 78.2008 20.1591 78.8523 20.1591C79.4545 20.1591 79.9792 20.2879 80.4261 20.5455C80.8769 20.803 81.2254 21.1761 81.4716 21.6648C81.7216 22.1534 81.8447 22.7462 81.8409 23.4432V29H79.7841V23.7614C79.7841 23.178 79.6326 22.7216 79.3295 22.392C79.0303 22.0625 78.6155 21.8977 78.0852 21.8977C77.7254 21.8977 77.4053 21.9773 77.125 22.1364C76.8485 22.2917 76.6307 22.517 76.4716 22.8125C76.3163 23.108 76.2386 23.4659 76.2386 23.8864ZM88.2898 20.2727V21.8636H83.2727V20.2727H88.2898ZM84.5114 18.1818H86.5682V26.375C86.5682 26.6515 86.6098 26.8636 86.6932 27.0114C86.7803 27.1553 86.8939 27.2538 87.0341 27.3068C87.1742 27.3598 87.3295 27.3864 87.5 27.3864C87.6288 27.3864 87.7462 27.3769 87.8523 27.358C87.9621 27.339 88.0455 27.322 88.1023 27.3068L88.4489 28.9148C88.339 28.9527 88.1818 28.9943 87.9773 29.0398C87.7765 29.0852 87.5303 29.1117 87.2386 29.1193C86.7235 29.1345 86.2595 29.0568 85.8466 28.8864C85.4337 28.7121 85.1061 28.4432 84.8636 28.0795C84.625 27.7159 84.5076 27.2614 84.5114 26.7159V18.1818ZM90.0099 29V20.2727H92.0668V29H90.0099ZM91.044 19.0341C90.7183 19.0341 90.438 18.9261 90.2031 18.7102C89.9683 18.4905 89.8509 18.2273 89.8509 17.9205C89.8509 17.6098 89.9683 17.3466 90.2031 17.1307C90.438 16.911 90.7183 16.8011 91.044 16.8011C91.3736 16.8011 91.6539 16.911 91.8849 17.1307C92.1198 17.3466 92.2372 17.6098 92.2372 17.9205C92.2372 18.2273 92.1198 18.4905 91.8849 18.7102C91.6539 18.9261 91.3736 19.0341 91.044 19.0341ZM96.2386 23.8864V29H94.1818V20.2727H96.1477V21.7557H96.25C96.4508 21.267 96.7708 20.8788 97.2102 20.5909C97.6534 20.303 98.2008 20.1591 98.8523 20.1591C99.4545 20.1591 99.9792 20.2879 100.426 20.5455C100.877 20.803 101.225 21.1761 101.472 21.6648C101.722 22.1534 101.845 22.7462 101.841 23.4432V29H99.7841V23.7614C99.7841 23.178 99.6326 22.7216 99.3295 22.392C99.0303 22.0625 98.6155 21.8977 98.0852 21.8977C97.7254 21.8977 97.4053 21.9773 97.125 22.1364C96.8485 22.2917 96.6307 22.517 96.4716 22.8125C96.3163 23.108 96.2386 23.4659 96.2386 23.8864ZM109.494 25.3295V20.2727H111.551V29H109.557V27.4489H109.466C109.269 27.9375 108.945 28.3371 108.494 28.6477C108.047 28.9583 107.496 29.1136 106.841 29.1136C106.269 29.1136 105.763 28.9867 105.324 28.733C104.888 28.4754 104.547 28.1023 104.301 27.6136C104.055 27.1212 103.932 26.5265 103.932 25.8295V20.2727H105.989V25.5114C105.989 26.0644 106.14 26.5038 106.443 26.8295C106.746 27.1553 107.144 27.3182 107.636 27.3182C107.939 27.3182 108.233 27.2443 108.517 27.0966C108.801 26.9489 109.034 26.7292 109.216 26.4375C109.402 26.142 109.494 25.7727 109.494 25.3295ZM117.53 29.1705C116.655 29.1705 115.899 28.9886 115.263 28.625C114.63 28.2576 114.143 27.7386 113.803 27.0682C113.462 26.3939 113.291 25.6004 113.291 24.6875C113.291 23.7898 113.462 23.0019 113.803 22.3239C114.147 21.642 114.628 21.1117 115.246 20.733C115.863 20.3504 116.589 20.1591 117.422 20.1591C117.96 20.1591 118.467 20.2462 118.945 20.4205C119.426 20.5909 119.85 20.8561 120.217 21.2159C120.589 21.5758 120.88 22.0341 121.092 22.5909C121.304 23.1439 121.411 23.803 121.411 24.5682V25.1989H114.257V23.8125H119.439C119.435 23.4186 119.35 23.0682 119.183 22.7614C119.017 22.4508 118.784 22.2064 118.484 22.0284C118.189 21.8504 117.844 21.7614 117.45 21.7614C117.03 21.7614 116.661 21.8636 116.342 22.0682C116.024 22.2689 115.776 22.5341 115.598 22.8636C115.424 23.1894 115.335 23.5473 115.331 23.9375V25.1477C115.331 25.6553 115.424 26.0909 115.609 26.4545C115.795 26.8144 116.054 27.0909 116.388 27.2841C116.721 27.4735 117.111 27.5682 117.558 27.5682C117.857 27.5682 118.128 27.5265 118.371 27.4432C118.613 27.3561 118.823 27.2292 119.001 27.0625C119.179 26.8958 119.314 26.6894 119.405 26.4432L121.325 26.6591C121.204 27.1667 120.973 27.6098 120.632 27.9886C120.295 28.3636 119.863 28.6553 119.337 28.8636C118.81 29.0682 118.208 29.1705 117.53 29.1705Z" fill="white"/>
</g>
<defs>
<filter id="filter0_d_141_523" x="0" y="0" width="174" height="48" filterUnits="userSpaceOnUse" color-interpolation-filters="sRGB">
<feFlood flood-opacity="0" result="BackgroundImageFix"/>
<feColorMatrix in="SourceAlpha" type="matrix" values="0 0 0 0 0 0 0 0 0 0 0 0 0 0 0 0 0 0 127 0" result="hardAlpha"/>
<feOffset dy="1"/>
<feGaussianBlur stdDeviation="1"/>
<feColorMatrix type="matrix" values="0 0 0 0 0.0627451 0 0 0 0 0.0941176 0 0 0 0 0.156863 0 0 0 0.05 0"/>
<feBlend mode="normal" in2="BackgroundImageFix" result="effect1_dropShadow_141_523"/>
<feBlend mode="normal" in="SourceGraphic" in2="effect1_dropShadow_141_523" result="shape"/>
</filter>
</defs>
</svg>
