<svg width="436" height="49" viewBox="0 0 436 49" fill="none" xmlns="http://www.w3.org/2000/svg">
<g filter="url(#filter0_d_188_833)">
<rect x="2" y="1.5" width="432" height="44" rx="8" fill="#567BD9"/>
<rect x="2.5" y="2" width="431" height="43" rx="7.5" stroke="#567BD9"/>
<path d="M193.608 21.7898H191.483C191.422 21.4413 191.311 21.1326 191.148 20.8636C190.985 20.5909 190.782 20.3598 190.54 20.1705C190.297 19.9811 190.021 19.839 189.71 19.7443C189.403 19.6458 189.072 19.5966 188.716 19.5966C188.083 19.5966 187.523 19.7557 187.034 20.0739C186.545 20.3883 186.163 20.8504 185.886 21.4602C185.61 22.0663 185.472 22.8068 185.472 23.6818C185.472 24.572 185.61 25.322 185.886 25.9318C186.167 26.5379 186.549 26.9962 187.034 27.3068C187.523 27.6136 188.081 27.767 188.71 27.767C189.059 27.767 189.384 27.7216 189.688 27.6307C189.994 27.536 190.269 27.3977 190.511 27.2159C190.758 27.0341 190.964 26.8106 191.131 26.5455C191.301 26.2803 191.419 25.9773 191.483 25.6364L193.608 25.6477C193.528 26.2008 193.356 26.7197 193.091 27.2045C192.83 27.6894 192.487 28.1174 192.062 28.4886C191.638 28.8561 191.142 29.1439 190.574 29.3523C190.006 29.5568 189.375 29.6591 188.682 29.6591C187.659 29.6591 186.746 29.4223 185.943 28.9489C185.14 28.4754 184.508 27.7917 184.045 26.8977C183.583 26.0038 183.352 24.9318 183.352 23.6818C183.352 22.428 183.585 21.3561 184.051 20.4659C184.517 19.572 185.152 18.8883 185.955 18.4148C186.758 17.9413 187.667 17.7045 188.682 17.7045C189.33 17.7045 189.932 17.7955 190.489 17.9773C191.045 18.1591 191.542 18.4261 191.977 18.7784C192.413 19.1269 192.771 19.5549 193.051 20.0625C193.335 20.5663 193.521 21.142 193.608 21.7898ZM199.254 29.6705C198.402 29.6705 197.663 29.483 197.038 29.108C196.413 28.733 195.929 28.2083 195.584 27.5341C195.243 26.8598 195.072 26.072 195.072 25.1705C195.072 24.2689 195.243 23.4792 195.584 22.8011C195.929 22.1231 196.413 21.5966 197.038 21.2216C197.663 20.8466 198.402 20.6591 199.254 20.6591C200.107 20.6591 200.845 20.8466 201.47 21.2216C202.095 21.5966 202.578 22.1231 202.919 22.8011C203.264 23.4792 203.436 24.2689 203.436 25.1705C203.436 26.072 203.264 26.8598 202.919 27.5341C202.578 28.2083 202.095 28.733 201.47 29.108C200.845 29.483 200.107 29.6705 199.254 29.6705ZM199.266 28.0227C199.728 28.0227 200.114 27.8958 200.425 27.642C200.735 27.3845 200.966 27.0398 201.118 26.608C201.273 26.1761 201.351 25.6951 201.351 25.1648C201.351 24.6307 201.273 24.1477 201.118 23.7159C200.966 23.2803 200.735 22.9337 200.425 22.6761C200.114 22.4186 199.728 22.2898 199.266 22.2898C198.792 22.2898 198.398 22.4186 198.084 22.6761C197.773 22.9337 197.54 23.2803 197.385 23.7159C197.233 24.1477 197.158 24.6307 197.158 25.1648C197.158 25.6951 197.233 26.1761 197.385 26.608C197.54 27.0398 197.773 27.3845 198.084 27.642C198.398 27.8958 198.792 28.0227 199.266 28.0227ZM207.239 24.3864V29.5H205.182V20.7727H207.148V22.2557H207.25C207.451 21.767 207.771 21.3788 208.21 21.0909C208.653 20.803 209.201 20.6591 209.852 20.6591C210.455 20.6591 210.979 20.7879 211.426 21.0455C211.877 21.303 212.225 21.6761 212.472 22.1648C212.722 22.6534 212.845 23.2462 212.841 23.9432V29.5H210.784V24.2614C210.784 23.678 210.633 23.2216 210.33 22.892C210.03 22.5625 209.616 22.3977 209.085 22.3977C208.725 22.3977 208.405 22.4773 208.125 22.6364C207.848 22.7917 207.631 23.017 207.472 23.3125C207.316 23.608 207.239 23.9659 207.239 24.3864ZM219.29 20.7727V22.3636H214.273V20.7727H219.29ZM215.511 18.6818H217.568V26.875C217.568 27.1515 217.61 27.3636 217.693 27.5114C217.78 27.6553 217.894 27.7538 218.034 27.8068C218.174 27.8598 218.33 27.8864 218.5 27.8864C218.629 27.8864 218.746 27.8769 218.852 27.858C218.962 27.839 219.045 27.822 219.102 27.8068L219.449 29.4148C219.339 29.4527 219.182 29.4943 218.977 29.5398C218.777 29.5852 218.53 29.6117 218.239 29.6193C217.723 29.6345 217.259 29.5568 216.847 29.3864C216.434 29.2121 216.106 28.9432 215.864 28.5795C215.625 28.2159 215.508 27.7614 215.511 27.2159V18.6818ZM221.01 29.5V20.7727H223.067V29.5H221.01ZM222.044 19.5341C221.718 19.5341 221.438 19.4261 221.203 19.2102C220.968 18.9905 220.851 18.7273 220.851 18.4205C220.851 18.1098 220.968 17.8466 221.203 17.6307C221.438 17.411 221.718 17.3011 222.044 17.3011C222.374 17.3011 222.654 17.411 222.885 17.6307C223.12 17.8466 223.237 18.1098 223.237 18.4205C223.237 18.7273 223.12 18.9905 222.885 19.2102C222.654 19.4261 222.374 19.5341 222.044 19.5341ZM227.239 24.3864V29.5H225.182V20.7727H227.148V22.2557H227.25C227.451 21.767 227.771 21.3788 228.21 21.0909C228.653 20.803 229.201 20.6591 229.852 20.6591C230.455 20.6591 230.979 20.7879 231.426 21.0455C231.877 21.303 232.225 21.6761 232.472 22.1648C232.722 22.6534 232.845 23.2462 232.841 23.9432V29.5H230.784V24.2614C230.784 23.678 230.633 23.2216 230.33 22.892C230.03 22.5625 229.616 22.3977 229.085 22.3977C228.725 22.3977 228.405 22.4773 228.125 22.6364C227.848 22.7917 227.631 23.017 227.472 23.3125C227.316 23.608 227.239 23.9659 227.239 24.3864ZM240.494 25.8295V20.7727H242.551V29.5H240.557V27.9489H240.466C240.269 28.4375 239.945 28.8371 239.494 29.1477C239.047 29.4583 238.496 29.6136 237.841 29.6136C237.269 29.6136 236.763 29.4867 236.324 29.233C235.888 28.9754 235.547 28.6023 235.301 28.1136C235.055 27.6212 234.932 27.0265 234.932 26.3295V20.7727H236.989V26.0114C236.989 26.5644 237.14 27.0038 237.443 27.3295C237.746 27.6553 238.144 27.8182 238.636 27.8182C238.939 27.8182 239.233 27.7443 239.517 27.5966C239.801 27.4489 240.034 27.2292 240.216 26.9375C240.402 26.642 240.494 26.2727 240.494 25.8295ZM248.53 29.6705C247.655 29.6705 246.899 29.4886 246.263 29.125C245.63 28.7576 245.143 28.2386 244.803 27.5682C244.462 26.8939 244.291 26.1004 244.291 25.1875C244.291 24.2898 244.462 23.5019 244.803 22.8239C245.147 22.142 245.628 21.6117 246.246 21.233C246.863 20.8504 247.589 20.6591 248.422 20.6591C248.96 20.6591 249.467 20.7462 249.945 20.9205C250.426 21.0909 250.85 21.3561 251.217 21.7159C251.589 22.0758 251.88 22.5341 252.092 23.0909C252.304 23.6439 252.411 24.303 252.411 25.0682V25.6989H245.257V24.3125H250.439C250.435 23.9186 250.35 23.5682 250.183 23.2614C250.017 22.9508 249.784 22.7064 249.484 22.5284C249.189 22.3504 248.844 22.2614 248.45 22.2614C248.03 22.2614 247.661 22.3636 247.342 22.5682C247.024 22.7689 246.776 23.0341 246.598 23.3636C246.424 23.6894 246.335 24.0473 246.331 24.4375V25.6477C246.331 26.1553 246.424 26.5909 246.609 26.9545C246.795 27.3144 247.054 27.5909 247.388 27.7841C247.721 27.9735 248.111 28.0682 248.558 28.0682C248.857 28.0682 249.128 28.0265 249.371 27.9432C249.613 27.8561 249.823 27.7292 250.001 27.5625C250.179 27.3958 250.314 27.1894 250.405 26.9432L252.325 27.1591C252.204 27.6667 251.973 28.1098 251.632 28.4886C251.295 28.8636 250.863 29.1553 250.337 29.3636C249.81 29.5682 249.208 29.6705 248.53 29.6705Z" fill="white"/>
</g>
<defs>
<filter id="filter0_d_188_833" x="0" y="0.5" width="436" height="48" filterUnits="userSpaceOnUse" color-interpolation-filters="sRGB">
<feFlood flood-opacity="0" result="BackgroundImageFix"/>
<feColorMatrix in="SourceAlpha" type="matrix" values="0 0 0 0 0 0 0 0 0 0 0 0 0 0 0 0 0 0 127 0" result="hardAlpha"/>
<feOffset dy="1"/>
<feGaussianBlur stdDeviation="1"/>
<feColorMatrix type="matrix" values="0 0 0 0 0.0627451 0 0 0 0 0.0941176 0 0 0 0 0.156863 0 0 0 0.05 0"/>
<feBlend mode="normal" in2="BackgroundImageFix" result="effect1_dropShadow_188_833"/>
<feBlend mode="normal" in="SourceGraphic" in2="effect1_dropShadow_188_833" result="shape"/>
</filter>
</defs>
</svg>
