<svg width="368" height="53" viewBox="0 0 368 53" fill="none" xmlns="http://www.w3.org/2000/svg">
<path d="M0.396307 8.40909H3.07457L6.27699 14.2003H6.40483L9.60724 8.40909H12.2855L7.52344 16.6165V21.5H5.15838V16.6165L0.396307 8.40909ZM16.3173 21.6918C15.3585 21.6918 14.5275 21.4808 13.8244 21.0589C13.1213 20.6371 12.5758 20.0469 12.188 19.2884C11.8045 18.5298 11.6127 17.6435 11.6127 16.6293C11.6127 15.6151 11.8045 14.7266 12.188 13.9638C12.5758 13.201 13.1213 12.6087 13.8244 12.1868C14.5275 11.7649 15.3585 11.554 16.3173 11.554C17.2761 11.554 18.1071 11.7649 18.8102 12.1868C19.5133 12.6087 20.0566 13.201 20.4402 13.9638C20.8279 14.7266 21.0218 15.6151 21.0218 16.6293C21.0218 17.6435 20.8279 18.5298 20.4402 19.2884C20.0566 20.0469 19.5133 20.6371 18.8102 21.0589C18.1071 21.4808 17.2761 21.6918 16.3173 21.6918ZM16.3301 19.8381C16.85 19.8381 17.2846 19.6953 17.6341 19.4098C17.9835 19.12 18.2434 18.7322 18.4139 18.2464C18.5886 17.7607 18.676 17.2195 18.676 16.6229C18.676 16.022 18.5886 15.4787 18.4139 14.9929C18.2434 14.5028 17.9835 14.1129 17.6341 13.8232C17.2846 13.5334 16.85 13.3885 16.3301 13.3885C15.7974 13.3885 15.3542 13.5334 15.0005 13.8232C14.6511 14.1129 14.389 14.5028 14.2143 14.9929C14.0439 15.4787 13.9586 16.022 13.9586 16.6229C13.9586 17.2195 14.0439 17.7607 14.2143 18.2464C14.389 18.7322 14.6511 19.12 15.0005 19.4098C15.3542 19.6953 15.7974 19.8381 16.3301 19.8381ZM29.2436 17.3707V11.6818H31.5575V21.5H29.3139V19.755H29.2116C28.9901 20.3047 28.6257 20.7543 28.1186 21.1037C27.6158 21.4531 26.9957 21.6278 26.2585 21.6278C25.6151 21.6278 25.0462 21.4851 24.5518 21.1996C24.0618 20.9098 23.6783 20.4901 23.4013 19.9403C23.1243 19.3864 22.9858 18.7173 22.9858 17.9332V11.6818H25.2997V17.5753C25.2997 18.1974 25.4702 18.6918 25.8111 19.0582C26.152 19.4247 26.5994 19.608 27.1534 19.608C27.4943 19.608 27.8246 19.5249 28.1442 19.3587C28.4638 19.1925 28.7259 18.9453 28.9304 18.6172C29.1392 18.2848 29.2436 17.8693 29.2436 17.3707ZM33.937 21.5V11.6818H36.1806V13.3182H36.2828C36.4618 12.7514 36.7686 12.3146 37.2033 12.0078C37.6422 11.6967 38.1429 11.5412 38.7054 11.5412C38.8333 11.5412 38.976 11.5476 39.1337 11.5604C39.2956 11.5689 39.4299 11.5838 39.5364 11.6051V13.7337C39.4384 13.6996 39.2828 13.6697 39.0698 13.6442C38.861 13.6143 38.6586 13.5994 38.4625 13.5994C38.0407 13.5994 37.6614 13.6911 37.3248 13.8743C36.9924 14.0533 36.7303 14.3026 36.5385 14.6222C36.3468 14.9418 36.2509 15.3104 36.2509 15.728V21.5H33.937ZM56.8461 12.826H54.4554C54.3873 12.4339 54.2615 12.0866 54.0783 11.7841C53.8951 11.4773 53.6671 11.2173 53.3944 11.0043C53.1216 10.7912 52.8105 10.6314 52.4611 10.5249C52.1159 10.4141 51.7431 10.3587 51.3425 10.3587C50.6309 10.3587 50.0002 10.5376 49.4505 10.8956C48.9007 11.2493 48.4703 11.7692 48.1593 12.4553C47.8482 13.1371 47.6926 13.9702 47.6926 14.9545C47.6926 15.956 47.8482 16.7997 48.1593 17.4858C48.4746 18.1676 48.905 18.6832 49.4505 19.0327C50.0002 19.3778 50.6287 19.5504 51.3361 19.5504C51.7282 19.5504 52.0946 19.4993 52.4355 19.397C52.7807 19.2905 53.0897 19.1349 53.3624 18.9304C53.6394 18.7259 53.8716 18.4744 54.0591 18.1761C54.2509 17.8778 54.383 17.5369 54.4554 17.1534L56.8461 17.1662C56.7566 17.7884 56.5627 18.3722 56.2644 18.9176C55.9703 19.4631 55.5847 19.9446 55.1074 20.3622C54.6301 20.7756 54.0719 21.0994 53.4327 21.3338C52.7935 21.5639 52.084 21.679 51.3042 21.679C50.1536 21.679 49.1266 21.4126 48.2232 20.88C47.3198 20.3473 46.6081 19.5781 46.0882 18.5724C45.5684 17.5668 45.3084 16.3608 45.3084 14.9545C45.3084 13.544 45.5705 12.3381 46.0946 11.3366C46.6188 10.331 47.3326 9.56179 48.236 9.02912C49.1394 8.49645 50.1621 8.23011 51.3042 8.23011C52.0328 8.23011 52.7104 8.33239 53.3368 8.53693C53.9632 8.74148 54.5215 9.0419 55.0115 9.43821C55.5016 9.83026 55.9043 10.3118 56.2196 10.8828C56.5392 11.4496 56.748 12.0973 56.8461 12.826ZM58.9155 21.5V11.6818H61.1591V13.3182H61.2614C61.4403 12.7514 61.7472 12.3146 62.1818 12.0078C62.6207 11.6967 63.1214 11.5412 63.6839 11.5412C63.8118 11.5412 63.9545 11.5476 64.1122 11.5604C64.2741 11.5689 64.4084 11.5838 64.5149 11.6051V13.7337C64.4169 13.6996 64.2614 13.6697 64.0483 13.6442C63.8395 13.6143 63.6371 13.5994 63.4411 13.5994C63.0192 13.5994 62.6399 13.6911 62.3033 13.8743C61.9709 14.0533 61.7088 14.3026 61.517 14.6222C61.3253 14.9418 61.2294 15.3104 61.2294 15.728V21.5H58.9155ZM69.9945 21.6918C69.0101 21.6918 68.16 21.4872 67.4441 21.0781C66.7324 20.6648 66.1848 20.081 65.8013 19.3267C65.4178 18.5682 65.226 17.6754 65.226 16.6484C65.226 15.6385 65.4178 14.7521 65.8013 13.9893C66.1891 13.2223 66.7303 12.6257 67.4249 12.1996C68.1195 11.7692 68.9355 11.554 69.873 11.554C70.4782 11.554 71.0492 11.652 71.5861 11.848C72.1273 12.0398 72.6046 12.3381 73.0179 12.7429C73.4355 13.1477 73.7637 13.6634 74.0023 14.2898C74.2409 14.9119 74.3603 15.6534 74.3603 16.5142V17.2237H66.3127V15.6641H72.1422C72.138 15.2209 72.0421 14.8267 71.8546 14.4815C71.6671 14.1321 71.405 13.8572 71.0684 13.657C70.736 13.4567 70.3482 13.3565 69.905 13.3565C69.432 13.3565 69.0165 13.4716 68.6586 13.7017C68.3006 13.9276 68.0215 14.2259 67.8212 14.5966C67.6252 14.9631 67.525 15.3658 67.5208 15.8047V17.1662C67.5208 17.7372 67.6252 18.2273 67.834 18.6364C68.0428 19.0412 68.3347 19.3523 68.7097 19.5696C69.0847 19.7827 69.5236 19.8892 70.0265 19.8892C70.3631 19.8892 70.6678 19.8423 70.9405 19.7486C71.2132 19.6506 71.4498 19.5078 71.65 19.3203C71.8503 19.1328 72.0016 18.9006 72.1039 18.6236L74.2644 18.8665C74.128 19.4375 73.8681 19.9361 73.4846 20.3622C73.1053 20.7841 72.6195 21.1122 72.0272 21.3466C71.4348 21.5767 70.7573 21.6918 69.9945 21.6918ZM79.9613 21.6726C79.19 21.6726 78.4996 21.4744 77.8903 21.0781C77.2809 20.6818 76.7994 20.1065 76.4457 19.3523C76.092 18.598 75.9151 17.6818 75.9151 16.6037C75.9151 15.5128 76.0941 14.5923 76.4521 13.8423C76.8143 13.0881 77.3022 12.5192 77.9158 12.1357C78.5295 11.7479 79.2134 11.554 79.9677 11.554C80.543 11.554 81.016 11.652 81.3867 11.848C81.7575 12.0398 82.0515 12.272 82.2688 12.5447C82.4862 12.8132 82.6545 13.0668 82.7738 13.3054H82.8697V8.40909H85.19V21.5H82.9144V19.9531H82.7738C82.6545 20.1918 82.4819 20.4453 82.256 20.7138C82.0302 20.978 81.7319 21.2038 81.3612 21.3913C80.9904 21.5788 80.5238 21.6726 79.9613 21.6726ZM80.6069 19.7741C81.0969 19.7741 81.5146 19.642 81.8597 19.3778C82.2049 19.1094 82.467 18.7365 82.646 18.2592C82.8249 17.782 82.9144 17.2259 82.9144 16.5909C82.9144 15.956 82.8249 15.4041 82.646 14.9354C82.4712 14.4666 82.2113 14.1023 81.8661 13.8423C81.5252 13.5824 81.1055 13.4524 80.6069 13.4524C80.0913 13.4524 79.6609 13.5866 79.3157 13.8551C78.9705 14.1236 78.7106 14.4943 78.5359 14.9673C78.3612 15.4403 78.2738 15.9815 78.2738 16.5909C78.2738 17.2045 78.3612 17.7521 78.5359 18.2337C78.7148 18.7109 78.9769 19.0881 79.3221 19.3651C79.6715 19.6378 80.0998 19.7741 80.6069 19.7741ZM87.6557 21.5V11.6818H89.9696V21.5H87.6557ZM88.8191 10.2884C88.4526 10.2884 88.1373 10.1669 87.873 9.92401C87.6088 9.67685 87.4767 9.38068 87.4767 9.03551C87.4767 8.68608 87.6088 8.38991 87.873 8.14702C88.1373 7.89986 88.4526 7.77628 88.8191 7.77628C89.1898 7.77628 89.5051 7.89986 89.7651 8.14702C90.0293 8.38991 90.1614 8.68608 90.1614 9.03551C90.1614 9.38068 90.0293 9.67685 89.7651 9.92401C89.5051 10.1669 89.1898 10.2884 88.8191 10.2884ZM97.2518 11.6818V13.4716H91.6076V11.6818H97.2518ZM93.0011 9.32955H95.315V18.5469C95.315 18.858 95.3619 19.0966 95.4556 19.2628C95.5536 19.4247 95.6815 19.5355 95.8391 19.5952C95.9968 19.6548 96.1715 19.6847 96.3633 19.6847C96.5082 19.6847 96.6403 19.674 96.7596 19.6527C96.8832 19.6314 96.9769 19.6122 97.0408 19.5952L97.4308 21.4041C97.3072 21.4467 97.1303 21.4936 96.9002 21.5447C96.6744 21.5959 96.3974 21.6257 96.0692 21.6342C95.4897 21.6513 94.9677 21.5639 94.5032 21.3722C94.0387 21.1761 93.6701 20.8736 93.3974 20.4645C93.1289 20.0554 92.9968 19.544 93.0011 18.9304V9.32955ZM110.868 12.0078C110.809 11.4496 110.557 11.0149 110.114 10.7038C109.675 10.3928 109.104 10.2372 108.401 10.2372C107.907 10.2372 107.483 10.3118 107.129 10.4609C106.775 10.6101 106.505 10.8125 106.317 11.0682C106.13 11.3239 106.034 11.6158 106.03 11.9439C106.03 12.2166 106.091 12.4531 106.215 12.6534C106.343 12.8537 106.515 13.0241 106.733 13.1648C106.95 13.3011 107.191 13.4162 107.455 13.5099C107.719 13.6037 107.986 13.6825 108.254 13.7464L109.481 14.0533C109.976 14.1683 110.451 14.3239 110.907 14.5199C111.367 14.7159 111.778 14.9631 112.14 15.2614C112.507 15.5597 112.797 15.9197 113.01 16.3416C113.223 16.7635 113.329 17.2578 113.329 17.8246C113.329 18.5916 113.133 19.267 112.741 19.8509C112.349 20.4304 111.782 20.8842 111.041 21.2124C110.304 21.5362 109.411 21.6982 108.363 21.6982C107.344 21.6982 106.46 21.5405 105.71 21.2251C104.964 20.9098 104.381 20.4496 103.959 19.8445C103.541 19.2393 103.315 18.5021 103.281 17.6328H105.614C105.648 18.0888 105.789 18.468 106.036 18.7706C106.283 19.0732 106.605 19.299 107.001 19.4482C107.402 19.5973 107.849 19.6719 108.344 19.6719C108.859 19.6719 109.311 19.5952 109.699 19.4418C110.091 19.2841 110.398 19.0668 110.619 18.7898C110.841 18.5085 110.954 18.1804 110.958 17.8054C110.954 17.4645 110.854 17.1832 110.657 16.9616C110.461 16.7358 110.187 16.5483 109.833 16.3991C109.483 16.2457 109.074 16.1094 108.606 15.9901L107.116 15.6065C106.038 15.3295 105.186 14.9098 104.559 14.3473C103.937 13.7805 103.626 13.0284 103.626 12.0909C103.626 11.3196 103.835 10.6442 104.253 10.0646C104.675 9.48509 105.248 9.03551 105.972 8.71591C106.697 8.39204 107.517 8.23011 108.433 8.23011C109.362 8.23011 110.176 8.39204 110.875 8.71591C111.578 9.03551 112.13 9.48082 112.53 10.0518C112.931 10.6186 113.138 11.2706 113.15 12.0078H110.868ZM119.624 21.6918C118.644 21.6918 117.802 21.4766 117.099 21.0462C116.4 20.6158 115.861 20.0213 115.482 19.2628C115.107 18.5 114.919 17.6222 114.919 16.6293C114.919 15.6321 115.111 14.7521 115.495 13.9893C115.878 13.2223 116.419 12.6257 117.118 12.1996C117.821 11.7692 118.652 11.554 119.611 11.554C120.408 11.554 121.113 11.701 121.727 11.995C122.345 12.2848 122.837 12.696 123.203 13.2287C123.57 13.7571 123.779 14.375 123.83 15.0824H121.618C121.529 14.6094 121.316 14.2152 120.979 13.8999C120.647 13.5803 120.201 13.4205 119.643 13.4205C119.17 13.4205 118.755 13.5483 118.397 13.804C118.039 14.0554 117.76 14.4176 117.559 14.8906C117.363 15.3636 117.265 15.9304 117.265 16.5909C117.265 17.2599 117.363 17.8352 117.559 18.3168C117.755 18.794 118.03 19.1626 118.384 19.4226C118.742 19.6783 119.162 19.8061 119.643 19.8061C119.984 19.8061 120.289 19.7422 120.557 19.6143C120.83 19.4822 121.058 19.2926 121.241 19.0455C121.424 18.7983 121.55 18.4979 121.618 18.1442H123.83C123.775 18.8388 123.57 19.4545 123.216 19.9915C122.863 20.5241 122.381 20.9418 121.772 21.2443C121.162 21.5426 120.446 21.6918 119.624 21.6918ZM130.013 21.6918C129.054 21.6918 128.223 21.4808 127.52 21.0589C126.817 20.6371 126.271 20.0469 125.883 19.2884C125.5 18.5298 125.308 17.6435 125.308 16.6293C125.308 15.6151 125.5 14.7266 125.883 13.9638C126.271 13.201 126.817 12.6087 127.52 12.1868C128.223 11.7649 129.054 11.554 130.013 11.554C130.971 11.554 131.802 11.7649 132.506 12.1868C133.209 12.6087 133.752 13.201 134.135 13.9638C134.523 14.7266 134.717 15.6151 134.717 16.6293C134.717 17.6435 134.523 18.5298 134.135 19.2884C133.752 20.0469 133.209 20.6371 132.506 21.0589C131.802 21.4808 130.971 21.6918 130.013 21.6918ZM130.025 19.8381C130.545 19.8381 130.98 19.6953 131.329 19.4098C131.679 19.12 131.939 18.7322 132.109 18.2464C132.284 17.7607 132.371 17.2195 132.371 16.6229C132.371 16.022 132.284 15.4787 132.109 14.9929C131.939 14.5028 131.679 14.1129 131.329 13.8232C130.98 13.5334 130.545 13.3885 130.025 13.3885C129.493 13.3885 129.05 13.5334 128.696 13.8232C128.346 14.1129 128.084 14.5028 127.91 14.9929C127.739 15.4787 127.654 16.022 127.654 16.6229C127.654 17.2195 127.739 17.7607 127.91 18.2464C128.084 18.7322 128.346 19.12 128.696 19.4098C129.05 19.6953 129.493 19.8381 130.025 19.8381ZM136.681 21.5V11.6818H138.925V13.3182H139.027C139.206 12.7514 139.513 12.3146 139.947 12.0078C140.386 11.6967 140.887 11.5412 141.45 11.5412C141.577 11.5412 141.72 11.5476 141.878 11.5604C142.04 11.5689 142.174 11.5838 142.281 11.6051V13.7337C142.183 13.6996 142.027 13.6697 141.814 13.6442C141.605 13.6143 141.403 13.5994 141.207 13.5994C140.785 13.5994 140.406 13.6911 140.069 13.8743C139.737 14.0533 139.474 14.3026 139.283 14.6222C139.091 14.9418 138.995 15.3104 138.995 15.728V21.5H136.681ZM147.76 21.6918C146.776 21.6918 145.926 21.4872 145.21 21.0781C144.498 20.6648 143.95 20.081 143.567 19.3267C143.183 18.5682 142.992 17.6754 142.992 16.6484C142.992 15.6385 143.183 14.7521 143.567 13.9893C143.955 13.2223 144.496 12.6257 145.191 12.1996C145.885 11.7692 146.701 11.554 147.639 11.554C148.244 11.554 148.815 11.652 149.352 11.848C149.893 12.0398 150.37 12.3381 150.784 12.7429C151.201 13.1477 151.529 13.6634 151.768 14.2898C152.007 14.9119 152.126 15.6534 152.126 16.5142V17.2237H144.078V15.6641H149.908C149.904 15.2209 149.808 14.8267 149.62 14.4815C149.433 14.1321 149.171 13.8572 148.834 13.657C148.502 13.4567 148.114 13.3565 147.671 13.3565C147.198 13.3565 146.782 13.4716 146.424 13.7017C146.066 13.9276 145.787 14.2259 145.587 14.5966C145.391 14.9631 145.291 15.3658 145.286 15.8047V17.1662C145.286 17.7372 145.391 18.2273 145.6 18.6364C145.808 19.0412 146.1 19.3523 146.475 19.5696C146.85 19.7827 147.289 19.8892 147.792 19.8892C148.129 19.8892 148.433 19.8423 148.706 19.7486C148.979 19.6506 149.215 19.5078 149.416 19.3203C149.616 19.1328 149.767 18.9006 149.869 18.6236L152.03 18.8665C151.894 19.4375 151.634 19.9361 151.25 20.3622C150.871 20.7841 150.385 21.1122 149.793 21.3466C149.2 21.5767 148.523 21.6918 147.76 21.6918Z" fill="#101828"/>
<path d="M9.42614 40.5H8.19318C8.12027 40.1454 7.99266 39.8338 7.81037 39.5653C7.63139 39.2969 7.41264 39.0715 7.15412 38.8892C6.89891 38.7036 6.61553 38.5644 6.30398 38.4716C5.99242 38.3788 5.66761 38.3324 5.32955 38.3324C4.71307 38.3324 4.15459 38.4882 3.65412 38.7997C3.15696 39.1113 2.76089 39.5703 2.46591 40.1768C2.17424 40.7834 2.02841 41.5275 2.02841 42.4091C2.02841 43.2907 2.17424 44.0348 2.46591 44.6413C2.76089 45.2479 3.15696 45.7069 3.65412 46.0185C4.15459 46.33 4.71307 46.4858 5.32955 46.4858C5.66761 46.4858 5.99242 46.4394 6.30398 46.3466C6.61553 46.2538 6.89891 46.1162 7.15412 45.9339C7.41264 45.7483 7.63139 45.5213 7.81037 45.2528C7.99266 44.9811 8.12027 44.6695 8.19318 44.3182H9.42614C9.33333 44.8385 9.1643 45.3042 8.91903 45.7152C8.67377 46.1262 8.36885 46.4759 8.00426 46.7642C7.63968 47.0492 7.23035 47.2663 6.77628 47.4155C6.32552 47.5646 5.84328 47.6392 5.32955 47.6392C4.46117 47.6392 3.68892 47.4271 3.01278 47.0028C2.33665 46.5786 1.80469 45.9754 1.4169 45.1932C1.02912 44.411 0.835227 43.483 0.835227 42.4091C0.835227 41.3352 1.02912 40.4072 1.4169 39.625C1.80469 38.8428 2.33665 38.2396 3.01278 37.8153C3.68892 37.3911 4.46117 37.179 5.32955 37.179C5.84328 37.179 6.32552 37.2536 6.77628 37.4027C7.23035 37.5518 7.63968 37.7706 8.00426 38.0589C8.36885 38.344 8.67377 38.692 8.91903 39.103C9.1643 39.5107 9.33333 39.9763 9.42614 40.5ZM14.3617 47.6591C13.6723 47.6591 13.0674 47.495 12.5471 47.1669C12.03 46.8388 11.6257 46.3797 11.334 45.7898C11.0456 45.1998 10.9015 44.5104 10.9015 43.7216C10.9015 42.9261 11.0456 42.2318 11.334 41.6385C11.6257 41.0452 12.03 40.5845 12.5471 40.2564C13.0674 39.9283 13.6723 39.7642 14.3617 39.7642C15.0511 39.7642 15.6543 39.9283 16.1713 40.2564C16.6917 40.5845 17.0961 41.0452 17.3844 41.6385C17.6761 42.2318 17.8219 42.9261 17.8219 43.7216C17.8219 44.5104 17.6761 45.1998 17.3844 45.7898C17.0961 46.3797 16.6917 46.8388 16.1713 47.1669C15.6543 47.495 15.0511 47.6591 14.3617 47.6591ZM14.3617 46.6051C14.8854 46.6051 15.3162 46.4709 15.6543 46.2024C15.9924 45.9339 16.2426 45.581 16.405 45.1435C16.5674 44.706 16.6486 44.232 16.6486 43.7216C16.6486 43.2112 16.5674 42.7356 16.405 42.2947C16.2426 41.8539 15.9924 41.4976 15.6543 41.2259C15.3162 40.9541 14.8854 40.8182 14.3617 40.8182C13.838 40.8182 13.4071 40.9541 13.0691 41.2259C12.731 41.4976 12.4808 41.8539 12.3184 42.2947C12.156 42.7356 12.0748 43.2112 12.0748 43.7216C12.0748 44.232 12.156 44.706 12.3184 45.1435C12.4808 45.581 12.731 45.9339 13.0691 46.2024C13.4071 46.4709 13.838 46.6051 14.3617 46.6051ZM20.7862 42.9062V47.5H19.6129V39.8636H20.7464V41.0568H20.8459C21.0249 40.669 21.2966 40.3575 21.6612 40.1222C22.0258 39.8835 22.4964 39.7642 23.0732 39.7642C23.5902 39.7642 24.0426 39.8703 24.4304 40.0824C24.8182 40.2912 25.1198 40.6094 25.3352 41.0369C25.5507 41.4612 25.6584 41.9981 25.6584 42.6477V47.5H24.4851V42.7273C24.4851 42.1274 24.3293 41.66 24.0178 41.3253C23.7062 40.9872 23.2786 40.8182 22.7351 40.8182C22.3606 40.8182 22.0258 40.8994 21.7308 41.0618C21.4392 41.2242 21.2088 41.4612 21.0398 41.7727C20.8707 42.0843 20.7862 42.4621 20.7862 42.9062ZM28.9757 42.9062V47.5H27.8024V39.8636H28.9359V41.0568H29.0353C29.2143 40.669 29.4861 40.3575 29.8507 40.1222C30.2153 39.8835 30.6859 39.7642 31.2626 39.7642C31.7797 39.7642 32.2321 39.8703 32.6199 40.0824C33.0076 40.2912 33.3092 40.6094 33.5247 41.0369C33.7401 41.4612 33.8478 41.9981 33.8478 42.6477V47.5H32.6745V42.7273C32.6745 42.1274 32.5188 41.66 32.2072 41.3253C31.8957 40.9872 31.4681 40.8182 30.9245 40.8182C30.55 40.8182 30.2153 40.8994 29.9203 41.0618C29.6286 41.2242 29.3983 41.4612 29.2292 41.7727C29.0602 42.0843 28.9757 42.4621 28.9757 42.9062ZM39.1935 47.6591C38.4577 47.6591 37.823 47.4967 37.2894 47.1719C36.7591 46.8438 36.3498 46.3864 36.0614 45.7997C35.7764 45.2098 35.6339 44.5237 35.6339 43.7415C35.6339 42.9593 35.7764 42.2699 36.0614 41.6733C36.3498 41.0734 36.7508 40.6061 37.2646 40.2713C37.7816 39.9332 38.3848 39.7642 39.0742 39.7642C39.4719 39.7642 39.8647 39.8305 40.2525 39.9631C40.6403 40.0956 40.9933 40.3111 41.3114 40.6094C41.6296 40.9044 41.8832 41.2955 42.0721 41.7827C42.261 42.2699 42.3555 42.8698 42.3555 43.5824V44.0795H36.4691V43.0653H41.1623C41.1623 42.6345 41.0761 42.25 40.9038 41.9119C40.7347 41.5739 40.4928 41.3071 40.1779 41.1115C39.8664 40.916 39.4985 40.8182 39.0742 40.8182C38.6069 40.8182 38.2025 40.9342 37.8612 41.1662C37.5231 41.3949 37.2629 41.6932 37.0806 42.0611C36.8983 42.429 36.8072 42.8234 36.8072 43.2443V43.9205C36.8072 44.4972 36.9066 44.986 37.1055 45.3871C37.3076 45.7848 37.5877 46.0881 37.9457 46.2969C38.3036 46.5024 38.7196 46.6051 39.1935 46.6051C39.5018 46.6051 39.7802 46.562 40.0288 46.4759C40.2807 46.3864 40.4978 46.2538 40.68 46.0781C40.8623 45.8991 41.0032 45.6771 41.1026 45.4119L42.2362 45.7301C42.1168 46.1146 41.9163 46.4527 41.6346 46.7443C41.3529 47.0327 41.0049 47.258 40.5906 47.4205C40.1763 47.5795 39.7106 47.6591 39.1935 47.6591ZM47.2425 47.6591C46.5266 47.6591 45.9102 47.4901 45.3931 47.152C44.8761 46.8139 44.4783 46.3482 44.1999 45.755C43.9215 45.1617 43.7823 44.4839 43.7823 43.7216C43.7823 42.946 43.9248 42.2616 44.2099 41.6683C44.4982 41.0717 44.8993 40.6061 45.413 40.2713C45.93 39.9332 46.5333 39.7642 47.2227 39.7642C47.7596 39.7642 48.2435 39.8636 48.6744 40.0625C49.1052 40.2614 49.4582 40.5398 49.7333 40.8977C50.0084 41.2557 50.1791 41.6733 50.2454 42.1506H49.0721C48.9826 41.8026 48.7837 41.4943 48.4755 41.2259C48.1706 40.9541 47.7596 40.8182 47.2425 40.8182C46.7852 40.8182 46.3841 40.9375 46.0394 41.1761C45.698 41.4115 45.4312 41.7446 45.239 42.1754C45.0501 42.603 44.9556 43.1051 44.9556 43.6818C44.9556 44.2718 45.0484 44.7855 45.234 45.223C45.4229 45.6605 45.6881 46.0002 46.0295 46.2422C46.3742 46.4841 46.7785 46.6051 47.2425 46.6051C47.5475 46.6051 47.8242 46.5521 48.0728 46.446C48.3214 46.34 48.5318 46.1875 48.7042 45.9886C48.8765 45.7898 48.9992 45.5511 49.0721 45.2727H50.2454C50.1791 45.7235 50.015 46.1295 49.7532 46.4908C49.4947 46.8487 49.1516 47.1338 48.7241 47.3459C48.2998 47.5547 47.806 47.6591 47.2425 47.6591ZM55.2816 39.8636V40.858H51.3242V39.8636H55.2816ZM52.4776 38.0341H53.6509V45.3125C53.6509 45.6439 53.699 45.8925 53.7951 46.0582C53.8945 46.2206 54.0205 46.33 54.1729 46.3864C54.3287 46.4394 54.4928 46.4659 54.6651 46.4659C54.7944 46.4659 54.9005 46.4593 54.9833 46.446C55.0662 46.4295 55.1325 46.4162 55.1822 46.4062L55.4208 47.4602C55.3413 47.4901 55.2302 47.5199 55.0877 47.5497C54.9452 47.5829 54.7646 47.5994 54.5458 47.5994C54.2144 47.5994 53.8896 47.5282 53.5714 47.3857C53.2565 47.2431 52.9947 47.026 52.7859 46.7344C52.5804 46.4427 52.4776 46.0748 52.4776 45.6307V38.0341ZM60.1662 47.6591C59.4304 47.6591 58.7957 47.4967 58.2621 47.1719C57.7318 46.8438 57.3224 46.3864 57.0341 45.7997C56.7491 45.2098 56.6065 44.5237 56.6065 43.7415C56.6065 42.9593 56.7491 42.2699 57.0341 41.6733C57.3224 41.0734 57.7235 40.6061 58.2372 40.2713C58.7543 39.9332 59.3575 39.7642 60.0469 39.7642C60.4446 39.7642 60.8374 39.8305 61.2251 39.9631C61.6129 40.0956 61.9659 40.3111 62.2841 40.6094C62.6023 40.9044 62.8558 41.2955 63.0447 41.7827C63.2337 42.2699 63.3281 42.8698 63.3281 43.5824V44.0795H57.4418V43.0653H62.1349C62.1349 42.6345 62.0488 42.25 61.8764 41.9119C61.7074 41.5739 61.4654 41.3071 61.1506 41.1115C60.839 40.916 60.4711 40.8182 60.0469 40.8182C59.5795 40.8182 59.1752 40.9342 58.8338 41.1662C58.4957 41.3949 58.2356 41.6932 58.0533 42.0611C57.871 42.429 57.7798 42.8234 57.7798 43.2443V43.9205C57.7798 44.4972 57.8793 44.986 58.0781 45.3871C58.2803 45.7848 58.5604 46.0881 58.9183 46.2969C59.2763 46.5024 59.6922 46.6051 60.1662 46.6051C60.4744 46.6051 60.7528 46.562 61.0014 46.4759C61.2533 46.3864 61.4704 46.2538 61.6527 46.0781C61.835 45.8991 61.9759 45.6771 62.0753 45.4119L63.2088 45.7301C63.0895 46.1146 62.889 46.4527 62.6072 46.7443C62.3255 47.0327 61.9775 47.258 61.5632 47.4205C61.1489 47.5795 60.6832 47.6591 60.1662 47.6591ZM67.9964 47.6591C67.3601 47.6591 66.7983 47.4983 66.3111 47.1768C65.8239 46.852 65.4427 46.3946 65.1676 45.8047C64.8925 45.2114 64.755 44.5104 64.755 43.7017C64.755 42.8996 64.8925 42.2036 65.1676 41.6136C65.4427 41.0237 65.8255 40.5679 66.3161 40.2464C66.8066 39.925 67.3733 39.7642 68.0163 39.7642C68.5135 39.7642 68.9063 39.8471 69.1946 40.0128C69.4863 40.1752 69.7083 40.3608 69.8608 40.5696C70.0166 40.7751 70.1375 40.9441 70.2237 41.0767H70.3232V37.3182H71.4964V47.5H70.3629V46.3267H70.2237C70.1375 46.4659 70.0149 46.6416 69.8558 46.8537C69.6967 47.0625 69.4697 47.2498 69.1747 47.4155C68.8797 47.5779 68.487 47.6591 67.9964 47.6591ZM68.1555 46.6051C68.6262 46.6051 69.0239 46.4825 69.3487 46.2372C69.6735 45.9886 69.9205 45.6456 70.0895 45.2081C70.2585 44.7673 70.343 44.2585 70.343 43.6818C70.343 43.1117 70.2602 42.6129 70.0945 42.1854C69.9287 41.7545 69.6835 41.4197 69.3587 41.1811C69.0339 40.9392 68.6328 40.8182 68.1555 40.8182C67.6584 40.8182 67.2441 40.9458 66.9126 41.201C66.5845 41.4529 66.3376 41.7959 66.1719 42.2301C66.0095 42.661 65.9283 43.1449 65.9283 43.6818C65.9283 44.2254 66.0111 44.7192 66.1768 45.1634C66.3459 45.6042 66.5945 45.9555 66.9226 46.2173C67.254 46.4759 67.665 46.6051 68.1555 46.6051ZM79.7543 47.5L76.9702 37.3182H78.223L80.3509 45.6108H80.4503L82.6179 37.3182H84.0099L86.1776 45.6108H86.277L88.4048 37.3182H89.6577L86.8736 47.5H85.6009L83.3537 39.3864H83.2741L81.027 47.5H79.7543ZM92.571 47.679C92.0871 47.679 91.648 47.5878 91.2536 47.4055C90.8591 47.2199 90.5459 46.9531 90.3139 46.6051C90.0819 46.2538 89.9659 45.8295 89.9659 45.3324C89.9659 44.8949 90.0521 44.5402 90.2244 44.2685C90.3968 43.9934 90.6271 43.7779 90.9155 43.6222C91.2038 43.4664 91.522 43.3504 91.87 43.2741C92.2214 43.1946 92.5743 43.1316 92.929 43.0852C93.393 43.0256 93.7692 42.9808 94.0575 42.951C94.3492 42.9179 94.5613 42.8632 94.6939 42.7869C94.8298 42.7107 94.8977 42.5781 94.8977 42.3892V42.3494C94.8977 41.8589 94.7635 41.4777 94.495 41.206C94.2299 40.9342 93.8272 40.7983 93.2869 40.7983C92.7268 40.7983 92.2876 40.9209 91.9695 41.1662C91.6513 41.4115 91.4276 41.6733 91.2983 41.9517L90.1847 41.554C90.3835 41.09 90.6487 40.7287 90.9801 40.4702C91.3149 40.2083 91.6795 40.026 92.0739 39.9233C92.4716 39.8172 92.8627 39.7642 93.2472 39.7642C93.4924 39.7642 93.7741 39.794 94.0923 39.8537C94.4138 39.91 94.7237 40.0277 95.022 40.2067C95.3236 40.3857 95.5739 40.6558 95.7727 41.017C95.9716 41.3783 96.071 41.8622 96.071 42.4688V47.5H94.8977V46.4659H94.8381C94.7585 46.6316 94.6259 46.8089 94.4403 46.9979C94.2547 47.1868 94.0078 47.3475 93.6996 47.4801C93.3913 47.6127 93.0152 47.679 92.571 47.679ZM92.75 46.625C93.214 46.625 93.6051 46.5339 93.9233 46.3516C94.2448 46.1693 94.4867 45.9339 94.6491 45.6456C94.8149 45.3572 94.8977 45.054 94.8977 44.7358V43.6619C94.848 43.7216 94.7386 43.7763 94.5696 43.826C94.4039 43.8724 94.2116 43.9138 93.9929 43.9503C93.7775 43.9834 93.567 44.0133 93.3615 44.0398C93.1593 44.063 92.9953 44.0829 92.8693 44.0994C92.5644 44.1392 92.2794 44.2038 92.0142 44.2933C91.7524 44.3795 91.5402 44.5104 91.3778 44.6861C91.2188 44.8584 91.1392 45.0937 91.1392 45.392C91.1392 45.7997 91.29 46.108 91.5916 46.3168C91.8965 46.5223 92.2827 46.625 92.75 46.625ZM99.3858 37.3182V47.5H98.2125V37.3182H99.3858ZM102.708 37.3182V47.5H101.535V37.3182H102.708ZM108.059 47.6591C107.323 47.6591 106.688 47.4967 106.155 47.1719C105.624 46.8438 105.215 46.3864 104.927 45.7997C104.642 45.2098 104.499 44.5237 104.499 43.7415C104.499 42.9593 104.642 42.2699 104.927 41.6733C105.215 41.0734 105.616 40.6061 106.13 40.2713C106.647 39.9332 107.25 39.7642 107.939 39.7642C108.337 39.7642 108.73 39.8305 109.118 39.9631C109.506 40.0956 109.858 40.3111 110.177 40.6094C110.495 40.9044 110.748 41.2955 110.937 41.7827C111.126 42.2699 111.221 42.8698 111.221 43.5824V44.0795H105.334V43.0653H110.028C110.028 42.6345 109.941 42.25 109.769 41.9119C109.6 41.5739 109.358 41.3071 109.043 41.1115C108.732 40.916 108.364 40.8182 107.939 40.8182C107.472 40.8182 107.068 40.9342 106.726 41.1662C106.388 41.3949 106.128 41.6932 105.946 42.0611C105.764 42.429 105.672 42.8234 105.672 43.2443V43.9205C105.672 44.4972 105.772 44.986 105.971 45.3871C106.173 45.7848 106.453 46.0881 106.811 46.2969C107.169 46.5024 107.585 46.6051 108.059 46.6051C108.367 46.6051 108.645 46.562 108.894 46.4759C109.146 46.3864 109.363 46.2538 109.545 46.0781C109.728 45.8991 109.868 45.6771 109.968 45.4119L111.101 45.7301C110.982 46.1146 110.782 46.4527 110.5 46.7443C110.218 47.0327 109.87 47.258 109.456 47.4205C109.041 47.5795 108.576 47.6591 108.059 47.6591ZM116.327 39.8636V40.858H112.369V39.8636H116.327ZM113.523 38.0341H114.696V45.3125C114.696 45.6439 114.744 45.8925 114.84 46.0582C114.939 46.2206 115.065 46.33 115.218 46.3864C115.374 46.4394 115.538 46.4659 115.71 46.4659C115.839 46.4659 115.945 46.4593 116.028 46.446C116.111 46.4295 116.177 46.4162 116.227 46.4062L116.466 47.4602C116.386 47.4901 116.275 47.5199 116.133 47.5497C115.99 47.5829 115.809 47.5994 115.591 47.5994C115.259 47.5994 114.934 47.5282 114.616 47.3857C114.301 47.2431 114.04 47.026 113.831 46.7344C113.625 46.4427 113.523 46.0748 113.523 45.6307V38.0341ZM123.364 41.5739L122.31 41.8722C122.244 41.6965 122.146 41.5258 122.017 41.3601C121.891 41.1911 121.718 41.0518 121.499 40.9425C121.281 40.8331 121.001 40.7784 120.659 40.7784C120.192 40.7784 119.802 40.8861 119.491 41.1016C119.183 41.3137 119.029 41.5838 119.029 41.9119C119.029 42.2036 119.135 42.4339 119.347 42.603C119.559 42.772 119.89 42.9129 120.341 43.0256L121.475 43.304C122.157 43.4697 122.666 43.7232 123.001 44.0646C123.336 44.4027 123.503 44.8385 123.503 45.3722C123.503 45.8097 123.377 46.2008 123.125 46.5455C122.877 46.8902 122.529 47.1619 122.081 47.3608C121.634 47.5597 121.113 47.6591 120.52 47.6591C119.741 47.6591 119.097 47.4901 118.586 47.152C118.076 46.8139 117.753 46.3201 117.617 45.6705L118.73 45.392C118.836 45.803 119.037 46.1113 119.332 46.3168C119.63 46.5223 120.02 46.625 120.5 46.625C121.047 46.625 121.481 46.509 121.803 46.277C122.128 46.0417 122.29 45.7599 122.29 45.4318C122.29 45.1667 122.197 44.9446 122.012 44.7656C121.826 44.5833 121.541 44.4474 121.156 44.358L119.884 44.0597C119.184 43.8939 118.671 43.6371 118.343 43.2891C118.018 42.9377 117.855 42.4986 117.855 41.9716C117.855 41.5407 117.976 41.1596 118.218 40.8281C118.463 40.4967 118.797 40.2365 119.218 40.0476C119.642 39.8587 120.122 39.7642 120.659 39.7642C121.415 39.7642 122.008 39.9299 122.439 40.2614C122.873 40.5928 123.182 41.0303 123.364 41.5739ZM134.934 39.8636C134.874 39.3598 134.632 38.9688 134.208 38.6903C133.784 38.4119 133.263 38.2727 132.647 38.2727C132.196 38.2727 131.802 38.3456 131.464 38.4915C131.129 38.6373 130.867 38.8378 130.678 39.093C130.493 39.3482 130.4 39.6383 130.4 39.9631C130.4 40.2348 130.464 40.4685 130.594 40.6641C130.726 40.8563 130.895 41.017 131.101 41.1463C131.306 41.2723 131.522 41.3767 131.747 41.4595C131.973 41.5391 132.18 41.6037 132.369 41.6534L133.403 41.9318C133.668 42.0014 133.963 42.0975 134.288 42.2202C134.616 42.3428 134.929 42.5102 135.227 42.7223C135.529 42.9311 135.777 43.1996 135.973 43.5277C136.169 43.8558 136.266 44.2585 136.266 44.7358C136.266 45.286 136.122 45.7831 135.834 46.2273C135.549 46.6714 135.131 47.0244 134.581 47.2862C134.034 47.5481 133.37 47.679 132.587 47.679C131.858 47.679 131.227 47.5613 130.693 47.326C130.163 47.0907 129.745 46.7625 129.44 46.3416C129.139 45.9207 128.968 45.4318 128.928 44.875H130.201C130.234 45.2595 130.363 45.5777 130.589 45.8295C130.817 46.0781 131.106 46.2637 131.454 46.3864C131.805 46.5057 132.183 46.5653 132.587 46.5653C133.058 46.5653 133.481 46.4891 133.855 46.3366C134.23 46.1809 134.526 45.9654 134.745 45.6903C134.964 45.4119 135.073 45.0871 135.073 44.7159C135.073 44.3778 134.979 44.1027 134.79 43.8906C134.601 43.6785 134.352 43.5062 134.044 43.3736C133.736 43.241 133.403 43.125 133.045 43.0256L131.792 42.6676C130.996 42.4389 130.367 42.1125 129.903 41.6882C129.439 41.264 129.207 40.7088 129.207 40.0227C129.207 39.4527 129.361 38.9555 129.669 38.5312C129.981 38.1037 130.398 37.7723 130.922 37.5369C131.449 37.2983 132.037 37.179 132.687 37.179C133.343 37.179 133.926 37.2966 134.437 37.532C134.947 37.764 135.352 38.0821 135.65 38.4865C135.951 38.8909 136.111 39.3499 136.127 39.8636H134.934ZM141.237 47.6591C140.521 47.6591 139.904 47.4901 139.387 47.152C138.87 46.8139 138.472 46.3482 138.194 45.755C137.916 45.1617 137.776 44.4839 137.776 43.7216C137.776 42.946 137.919 42.2616 138.204 41.6683C138.492 41.0717 138.893 40.6061 139.407 40.2713C139.924 39.9332 140.527 39.7642 141.217 39.7642C141.754 39.7642 142.238 39.8636 142.669 40.0625C143.099 40.2614 143.452 40.5398 143.727 40.8977C144.003 41.2557 144.173 41.6733 144.24 42.1506H143.066C142.977 41.8026 142.778 41.4943 142.47 41.2259C142.165 40.9541 141.754 40.8182 141.237 40.8182C140.779 40.8182 140.378 40.9375 140.034 41.1761C139.692 41.4115 139.425 41.7446 139.233 42.1754C139.044 42.603 138.95 43.1051 138.95 43.6818C138.95 44.2718 139.043 44.7855 139.228 45.223C139.417 45.6605 139.682 46.0002 140.024 46.2422C140.368 46.4841 140.773 46.6051 141.237 46.6051C141.542 46.6051 141.818 46.5521 142.067 46.446C142.316 46.34 142.526 46.1875 142.698 45.9886C142.871 45.7898 142.993 45.5511 143.066 45.2727H144.24C144.173 45.7235 144.009 46.1295 143.747 46.4908C143.489 46.8487 143.146 47.1338 142.718 47.3459C142.294 47.5547 141.8 47.6591 141.237 47.6591ZM149.057 47.6591C148.368 47.6591 147.763 47.495 147.242 47.1669C146.725 46.8388 146.321 46.3797 146.029 45.7898C145.741 45.1998 145.597 44.5104 145.597 43.7216C145.597 42.9261 145.741 42.2318 146.029 41.6385C146.321 41.0452 146.725 40.5845 147.242 40.2564C147.763 39.9283 148.368 39.7642 149.057 39.7642C149.746 39.7642 150.35 39.9283 150.867 40.2564C151.387 40.5845 151.791 41.0452 152.08 41.6385C152.371 42.2318 152.517 42.9261 152.517 43.7216C152.517 44.5104 152.371 45.1998 152.08 45.7898C151.791 46.3797 151.387 46.8388 150.867 47.1669C150.35 47.495 149.746 47.6591 149.057 47.6591ZM149.057 46.6051C149.581 46.6051 150.012 46.4709 150.35 46.2024C150.688 45.9339 150.938 45.581 151.1 45.1435C151.263 44.706 151.344 44.232 151.344 43.7216C151.344 43.2112 151.263 42.7356 151.1 42.2947C150.938 41.8539 150.688 41.4976 150.35 41.2259C150.012 40.9541 149.581 40.8182 149.057 40.8182C148.533 40.8182 148.102 40.9541 147.764 41.2259C147.426 41.4976 147.176 41.8539 147.014 42.2947C146.851 42.7356 146.77 43.2112 146.77 43.7216C146.77 44.232 146.851 44.706 147.014 45.1435C147.176 45.581 147.426 45.9339 147.764 46.2024C148.102 46.4709 148.533 46.6051 149.057 46.6051ZM154.308 47.5V39.8636H155.442V41.017H155.521C155.661 40.6392 155.912 40.3326 156.277 40.0973C156.642 39.862 157.053 39.7443 157.51 39.7443C157.596 39.7443 157.704 39.746 157.833 39.7493C157.962 39.7526 158.06 39.7576 158.126 39.7642V40.9574C158.087 40.9474 157.996 40.9325 157.853 40.9126C157.714 40.8894 157.566 40.8778 157.411 40.8778C157.039 40.8778 156.708 40.9557 156.416 41.1115C156.128 41.264 155.899 41.4761 155.73 41.7479C155.564 42.0163 155.482 42.3229 155.482 42.6676V47.5H154.308ZM162.487 47.6591C161.751 47.6591 161.116 47.4967 160.582 47.1719C160.052 46.8438 159.643 46.3864 159.354 45.7997C159.069 45.2098 158.927 44.5237 158.927 43.7415C158.927 42.9593 159.069 42.2699 159.354 41.6733C159.643 41.0734 160.044 40.6061 160.558 40.2713C161.075 39.9332 161.678 39.7642 162.367 39.7642C162.765 39.7642 163.158 39.8305 163.545 39.9631C163.933 40.0956 164.286 40.3111 164.604 40.6094C164.923 40.9044 165.176 41.2955 165.365 41.7827C165.554 42.2699 165.648 42.8698 165.648 43.5824V44.0795H159.762V43.0653H164.455C164.455 42.6345 164.369 42.25 164.197 41.9119C164.028 41.5739 163.786 41.3071 163.471 41.1115C163.159 40.916 162.791 40.8182 162.367 40.8182C161.9 40.8182 161.496 40.9342 161.154 41.1662C160.816 41.3949 160.556 41.6932 160.374 42.0611C160.191 42.429 160.1 42.8234 160.1 43.2443V43.9205C160.1 44.4972 160.2 44.986 160.398 45.3871C160.601 45.7848 160.881 46.0881 161.239 46.2969C161.597 46.5024 162.013 46.6051 162.487 46.6051C162.795 46.6051 163.073 46.562 163.322 46.4759C163.574 46.3864 163.791 46.2538 163.973 46.0781C164.155 45.8991 164.296 45.6771 164.396 45.4119L165.529 45.7301C165.41 46.1146 165.209 46.4527 164.928 46.7443C164.646 47.0327 164.298 47.258 163.884 47.4205C163.469 47.5795 163.004 47.6591 162.487 47.6591Z" fill="#475467"/>
</svg>
