<svg width="352" height="72" viewBox="0 0 352 72" fill="none" xmlns="http://www.w3.org/2000/svg">
<path d="M86.9069 7.90909L90.3138 18.2131H90.4481L93.8486 7.90909H96.4566L91.8415 21H88.914L84.3053 7.90909H86.9069ZM101.37 21.1918C100.386 21.1918 99.536 20.9872 98.82 20.5781C98.1084 20.1648 97.5608 19.581 97.1773 18.8267C96.7938 18.0682 96.602 17.1754 96.602 16.1484C96.602 15.1385 96.7938 14.2521 97.1773 13.4893C97.5651 12.7223 98.1063 12.1257 98.8009 11.6996C99.4955 11.2692 100.312 11.054 101.249 11.054C101.854 11.054 102.425 11.152 102.962 11.348C103.503 11.5398 103.981 11.8381 104.394 12.2429C104.812 12.6477 105.14 13.1634 105.378 13.7898C105.617 14.4119 105.736 15.1534 105.736 16.0142V16.7237H97.6887V15.1641H103.518C103.514 14.7209 103.418 14.3267 103.231 13.9815C103.043 13.6321 102.781 13.3572 102.444 13.157C102.112 12.9567 101.724 12.8565 101.281 12.8565C100.808 12.8565 100.392 12.9716 100.035 13.2017C99.6766 13.4276 99.3975 13.7259 99.1972 14.0966C99.0012 14.4631 98.901 14.8658 98.8968 15.3047V16.6662C98.8968 17.2372 99.0012 17.7273 99.21 18.1364C99.4188 18.5412 99.7107 18.8523 100.086 19.0696C100.461 19.2827 100.9 19.3892 101.402 19.3892C101.739 19.3892 102.044 19.3423 102.316 19.2486C102.589 19.1506 102.826 19.0078 103.026 18.8203C103.226 18.6328 103.378 18.4006 103.48 18.1236L105.64 18.3665C105.504 18.9375 105.244 19.4361 104.861 19.8622C104.481 20.2841 103.995 20.6122 103.403 20.8466C102.811 21.0767 102.133 21.1918 101.37 21.1918ZM107.694 21V11.1818H109.937V12.8182H110.04C110.219 12.2514 110.525 11.8146 110.96 11.5078C111.399 11.1967 111.9 11.0412 112.462 11.0412C112.59 11.0412 112.733 11.0476 112.891 11.0604C113.052 11.0689 113.187 11.0838 113.293 11.1051V13.2337C113.195 13.1996 113.04 13.1697 112.827 13.1442C112.618 13.1143 112.415 13.0994 112.219 13.0994C111.797 13.0994 111.418 13.1911 111.082 13.3743C110.749 13.5533 110.487 13.8026 110.295 14.1222C110.104 14.4418 110.008 14.8104 110.008 15.228V21H107.694ZM117.48 21.1982C116.858 21.1982 116.297 21.0874 115.799 20.8658C115.305 20.6399 114.913 20.3075 114.623 19.8686C114.337 19.4297 114.195 18.8885 114.195 18.245C114.195 17.6911 114.297 17.233 114.501 16.8707C114.706 16.5085 114.985 16.2188 115.339 16.0014C115.692 15.7841 116.091 15.62 116.534 15.5092C116.981 15.3942 117.444 15.3111 117.921 15.2599C118.496 15.2003 118.963 15.147 119.321 15.1001C119.679 15.049 119.939 14.9723 120.101 14.87C120.267 14.7635 120.35 14.5994 120.35 14.3778V14.3395C120.35 13.858 120.207 13.4851 119.922 13.2209C119.636 12.9567 119.225 12.8246 118.688 12.8246C118.121 12.8246 117.672 12.9482 117.339 13.1953C117.011 13.4425 116.79 13.7344 116.675 14.071L114.514 13.7642C114.685 13.1676 114.966 12.669 115.358 12.2685C115.75 11.8636 116.229 11.5611 116.796 11.3608C117.363 11.1562 117.989 11.054 118.675 11.054C119.148 11.054 119.619 11.1094 120.088 11.2202C120.557 11.331 120.985 11.5142 121.373 11.7699C121.761 12.0213 122.072 12.3643 122.306 12.799C122.545 13.2337 122.664 13.777 122.664 14.429V21H120.44V19.6513H120.363C120.222 19.924 120.024 20.1797 119.768 20.4183C119.517 20.6527 119.199 20.8423 118.816 20.9872C118.437 21.1278 117.991 21.1982 117.48 21.1982ZM118.081 19.4979C118.545 19.4979 118.948 19.4062 119.289 19.223C119.63 19.0355 119.892 18.7884 120.075 18.4815C120.263 18.1747 120.356 17.8402 120.356 17.478V16.321C120.284 16.3807 120.16 16.4361 119.986 16.4872C119.815 16.5384 119.623 16.5831 119.41 16.6214C119.197 16.6598 118.986 16.6939 118.778 16.7237C118.569 16.7536 118.388 16.7791 118.234 16.8004C117.889 16.8473 117.58 16.924 117.307 17.0305C117.035 17.1371 116.82 17.2862 116.662 17.478C116.504 17.6655 116.425 17.9084 116.425 18.2067C116.425 18.6328 116.581 18.9545 116.892 19.1719C117.203 19.3892 117.599 19.4979 118.081 19.4979ZM125.093 21V7.90909H133.479V9.89702H127.464V13.451H132.904V15.4389H127.464V21H125.093ZM135.538 21V11.1818H137.851V21H135.538ZM136.701 9.78835C136.334 9.78835 136.019 9.6669 135.755 9.42401C135.491 9.17685 135.359 8.88068 135.359 8.53551C135.359 8.18608 135.491 7.88991 135.755 7.64702C136.019 7.39986 136.334 7.27628 136.701 7.27628C137.072 7.27628 137.387 7.39986 137.647 7.64702C137.911 7.88991 138.043 8.18608 138.043 8.53551C138.043 8.88068 137.911 9.17685 137.647 9.42401C137.387 9.6669 137.072 9.78835 136.701 9.78835ZM151.912 11.5078C151.853 10.9496 151.601 10.5149 151.158 10.2038C150.719 9.89276 150.148 9.73722 149.445 9.73722C148.951 9.73722 148.527 9.81179 148.173 9.96094C147.819 10.1101 147.549 10.3125 147.361 10.5682C147.174 10.8239 147.078 11.1158 147.074 11.4439C147.074 11.7166 147.135 11.9531 147.259 12.1534C147.387 12.3537 147.559 12.5241 147.777 12.6648C147.994 12.8011 148.235 12.9162 148.499 13.0099C148.763 13.1037 149.03 13.1825 149.298 13.2464L150.525 13.5533C151.02 13.6683 151.495 13.8239 151.951 14.0199C152.411 14.2159 152.822 14.4631 153.184 14.7614C153.551 15.0597 153.841 15.4197 154.054 15.8416C154.267 16.2635 154.373 16.7578 154.373 17.3246C154.373 18.0916 154.177 18.767 153.785 19.3509C153.393 19.9304 152.826 20.3842 152.085 20.7124C151.348 21.0362 150.455 21.1982 149.407 21.1982C148.388 21.1982 147.504 21.0405 146.754 20.7251C146.008 20.4098 145.424 19.9496 145.003 19.3445C144.585 18.7393 144.359 18.0021 144.325 17.1328H146.658C146.692 17.5888 146.833 17.968 147.08 18.2706C147.327 18.5732 147.649 18.799 148.045 18.9482C148.446 19.0973 148.893 19.1719 149.388 19.1719C149.903 19.1719 150.355 19.0952 150.743 18.9418C151.135 18.7841 151.441 18.5668 151.663 18.2898C151.885 18.0085 151.998 17.6804 152.002 17.3054C151.998 16.9645 151.897 16.6832 151.701 16.4616C151.505 16.2358 151.231 16.0483 150.877 15.8991C150.527 15.7457 150.118 15.6094 149.65 15.4901L148.16 15.1065C147.082 14.8295 146.23 14.4098 145.603 13.8473C144.981 13.2805 144.67 12.5284 144.67 11.5909C144.67 10.8196 144.879 10.1442 145.297 9.56463C145.718 8.98509 146.292 8.53551 147.016 8.21591C147.741 7.89204 148.561 7.73011 149.477 7.73011C150.406 7.73011 151.22 7.89204 151.919 8.21591C152.622 8.53551 153.174 8.98082 153.574 9.55185C153.975 10.1186 154.182 10.7706 154.194 11.5078H151.912ZM160.668 21.1918C159.688 21.1918 158.846 20.9766 158.143 20.5462C157.444 20.1158 156.905 19.5213 156.526 18.7628C156.151 18 155.963 17.1222 155.963 16.1293C155.963 15.1321 156.155 14.2521 156.539 13.4893C156.922 12.7223 157.463 12.1257 158.162 11.6996C158.865 11.2692 159.696 11.054 160.655 11.054C161.452 11.054 162.157 11.201 162.771 11.495C163.389 11.7848 163.881 12.196 164.247 12.7287C164.614 13.2571 164.823 13.875 164.874 14.5824H162.662C162.573 14.1094 162.36 13.7152 162.023 13.3999C161.691 13.0803 161.245 12.9205 160.687 12.9205C160.214 12.9205 159.799 13.0483 159.441 13.304C159.083 13.5554 158.804 13.9176 158.603 14.3906C158.407 14.8636 158.309 15.4304 158.309 16.0909C158.309 16.7599 158.407 17.3352 158.603 17.8168C158.799 18.294 159.074 18.6626 159.428 18.9226C159.786 19.1783 160.206 19.3061 160.687 19.3061C161.028 19.3061 161.333 19.2422 161.601 19.1143C161.874 18.9822 162.102 18.7926 162.285 18.5455C162.468 18.2983 162.594 17.9979 162.662 17.6442H164.874C164.818 18.3388 164.614 18.9545 164.26 19.4915C163.907 20.0241 163.425 20.4418 162.816 20.7443C162.206 21.0426 161.49 21.1918 160.668 21.1918ZM171.057 21.1918C170.098 21.1918 169.267 20.9808 168.564 20.5589C167.861 20.1371 167.315 19.5469 166.927 18.7884C166.544 18.0298 166.352 17.1435 166.352 16.1293C166.352 15.1151 166.544 14.2266 166.927 13.4638C167.315 12.701 167.861 12.1087 168.564 11.6868C169.267 11.2649 170.098 11.054 171.057 11.054C172.015 11.054 172.846 11.2649 173.549 11.6868C174.253 12.1087 174.796 12.701 175.179 13.4638C175.567 14.2266 175.761 15.1151 175.761 16.1293C175.761 17.1435 175.567 18.0298 175.179 18.7884C174.796 19.5469 174.253 20.1371 173.549 20.5589C172.846 20.9808 172.015 21.1918 171.057 21.1918ZM171.069 19.3381C171.589 19.3381 172.024 19.1953 172.373 18.9098C172.723 18.62 172.983 18.2322 173.153 17.7464C173.328 17.2607 173.415 16.7195 173.415 16.1229C173.415 15.522 173.328 14.9787 173.153 14.4929C172.983 14.0028 172.723 13.6129 172.373 13.3232C172.024 13.0334 171.589 12.8885 171.069 12.8885C170.537 12.8885 170.093 13.0334 169.74 13.3232C169.39 13.6129 169.128 14.0028 168.954 14.4929C168.783 14.9787 168.698 15.522 168.698 16.1229C168.698 16.7195 168.783 17.2607 168.954 17.7464C169.128 18.2322 169.39 18.62 169.74 18.9098C170.093 19.1953 170.537 19.3381 171.069 19.3381ZM177.725 21V11.1818H179.969V12.8182H180.071C180.25 12.2514 180.557 11.8146 180.991 11.5078C181.43 11.1967 181.931 11.0412 182.494 11.0412C182.621 11.0412 182.764 11.0476 182.922 11.0604C183.084 11.0689 183.218 11.0838 183.324 11.1051V13.2337C183.226 13.1996 183.071 13.1697 182.858 13.1442C182.649 13.1143 182.447 13.0994 182.251 13.0994C181.829 13.0994 181.449 13.1911 181.113 13.3743C180.78 13.5533 180.518 13.8026 180.327 14.1222C180.135 14.4418 180.039 14.8104 180.039 15.228V21H177.725ZM188.804 21.1918C187.82 21.1918 186.97 20.9872 186.254 20.5781C185.542 20.1648 184.994 19.581 184.611 18.8267C184.227 18.0682 184.036 17.1754 184.036 16.1484C184.036 15.1385 184.227 14.2521 184.611 13.4893C184.999 12.7223 185.54 12.1257 186.234 11.6996C186.929 11.2692 187.745 11.054 188.683 11.054C189.288 11.054 189.859 11.152 190.396 11.348C190.937 11.5398 191.414 11.8381 191.828 12.2429C192.245 12.6477 192.573 13.1634 192.812 13.7898C193.051 14.4119 193.17 15.1534 193.17 16.0142V16.7237H185.122V15.1641H190.952C190.948 14.7209 190.852 14.3267 190.664 13.9815C190.477 13.6321 190.215 13.3572 189.878 13.157C189.546 12.9567 189.158 12.8565 188.715 12.8565C188.242 12.8565 187.826 12.9716 187.468 13.2017C187.11 13.4276 186.831 13.7259 186.631 14.0966C186.435 14.4631 186.335 14.8658 186.33 15.3047V16.6662C186.33 17.2372 186.435 17.7273 186.644 18.1364C186.852 18.5412 187.144 18.8523 187.519 19.0696C187.894 19.2827 188.333 19.3892 188.836 19.3892C189.173 19.3892 189.477 19.3423 189.75 19.2486C190.023 19.1506 190.259 19.0078 190.46 18.8203C190.66 18.6328 190.811 18.4006 190.913 18.1236L193.074 18.3665C192.938 18.9375 192.678 19.4361 192.294 19.8622C191.915 20.2841 191.429 20.6122 190.837 20.8466C190.244 21.0767 189.567 21.1918 188.804 21.1918ZM199.695 21V7.90909H202.066V19.0121H207.832V21H199.695ZM214.07 21.1918C213.111 21.1918 212.28 20.9808 211.577 20.5589C210.874 20.1371 210.329 19.5469 209.941 18.7884C209.557 18.0298 209.366 17.1435 209.366 16.1293C209.366 15.1151 209.557 14.2266 209.941 13.4638C210.329 12.701 210.874 12.1087 211.577 11.6868C212.28 11.2649 213.111 11.054 214.07 11.054C215.029 11.054 215.86 11.2649 216.563 11.6868C217.266 12.1087 217.81 12.701 218.193 13.4638C218.581 14.2266 218.775 15.1151 218.775 16.1293C218.775 17.1435 218.581 18.0298 218.193 18.7884C217.81 19.5469 217.266 20.1371 216.563 20.5589C215.86 20.9808 215.029 21.1918 214.07 21.1918ZM214.083 19.3381C214.603 19.3381 215.038 19.1953 215.387 18.9098C215.736 18.62 215.996 18.2322 216.167 17.7464C216.342 17.2607 216.429 16.7195 216.429 16.1229C216.429 15.522 216.342 14.9787 216.167 14.4929C215.996 14.0028 215.736 13.6129 215.387 13.3232C215.038 13.0334 214.603 12.8885 214.083 12.8885C213.55 12.8885 213.107 13.0334 212.753 13.3232C212.404 13.6129 212.142 14.0028 211.967 14.4929C211.797 14.9787 211.712 15.522 211.712 16.1229C211.712 16.7195 211.797 17.2607 211.967 17.7464C212.142 18.2322 212.404 18.62 212.753 18.9098C213.107 19.1953 213.55 19.3381 214.083 19.3381ZM223.564 21.1982C222.942 21.1982 222.381 21.0874 221.883 20.8658C221.389 20.6399 220.997 20.3075 220.707 19.8686C220.421 19.4297 220.278 18.8885 220.278 18.245C220.278 17.6911 220.381 17.233 220.585 16.8707C220.79 16.5085 221.069 16.2188 221.423 16.0014C221.776 15.7841 222.175 15.62 222.618 15.5092C223.065 15.3942 223.528 15.3111 224.005 15.2599C224.58 15.2003 225.047 15.147 225.405 15.1001C225.763 15.049 226.023 14.9723 226.185 14.87C226.351 14.7635 226.434 14.5994 226.434 14.3778V14.3395C226.434 13.858 226.291 13.4851 226.006 13.2209C225.72 12.9567 225.309 12.8246 224.772 12.8246C224.205 12.8246 223.756 12.9482 223.423 13.1953C223.095 13.4425 222.874 13.7344 222.759 14.071L220.598 13.7642C220.769 13.1676 221.05 12.669 221.442 12.2685C221.834 11.8636 222.313 11.5611 222.88 11.3608C223.447 11.1562 224.073 11.054 224.759 11.054C225.232 11.054 225.703 11.1094 226.172 11.2202C226.641 11.331 227.069 11.5142 227.457 11.7699C227.845 12.0213 228.156 12.3643 228.39 12.799C228.629 13.2337 228.748 13.777 228.748 14.429V21H226.524V19.6513H226.447C226.306 19.924 226.108 20.1797 225.852 20.4183C225.601 20.6527 225.283 20.8423 224.9 20.9872C224.521 21.1278 224.075 21.1982 223.564 21.1982ZM224.165 19.4979C224.629 19.4979 225.032 19.4062 225.373 19.223C225.714 19.0355 225.976 18.7884 226.159 18.4815C226.347 18.1747 226.44 17.8402 226.44 17.478V16.321C226.368 16.3807 226.244 16.4361 226.07 16.4872C225.899 16.5384 225.707 16.5831 225.494 16.6214C225.281 16.6598 225.07 16.6939 224.862 16.7237C224.653 16.7536 224.472 16.7791 224.318 16.8004C223.973 16.8473 223.664 16.924 223.391 17.0305C223.119 17.1371 222.903 17.2862 222.746 17.478C222.588 17.6655 222.509 17.9084 222.509 18.2067C222.509 18.6328 222.665 18.9545 222.976 19.1719C223.287 19.3892 223.683 19.4979 224.165 19.4979ZM234.718 21.1726C233.947 21.1726 233.256 20.9744 232.647 20.5781C232.038 20.1818 231.556 19.6065 231.203 18.8523C230.849 18.098 230.672 17.1818 230.672 16.1037C230.672 15.0128 230.851 14.0923 231.209 13.3423C231.571 12.5881 232.059 12.0192 232.673 11.6357C233.286 11.2479 233.97 11.054 234.725 11.054C235.3 11.054 235.773 11.152 236.144 11.348C236.514 11.5398 236.808 11.772 237.026 12.0447C237.243 12.3132 237.411 12.5668 237.531 12.8054H237.627V7.90909H239.947V21H237.671V19.4531H237.531C237.411 19.6918 237.239 19.9453 237.013 20.2138C236.787 20.478 236.489 20.7038 236.118 20.8913C235.747 21.0788 235.281 21.1726 234.718 21.1726ZM235.364 19.2741C235.854 19.2741 236.271 19.142 236.617 18.8778C236.962 18.6094 237.224 18.2365 237.403 17.7592C237.582 17.282 237.671 16.7259 237.671 16.0909C237.671 15.456 237.582 14.9041 237.403 14.4354C237.228 13.9666 236.968 13.6023 236.623 13.3423C236.282 13.0824 235.862 12.9524 235.364 12.9524C234.848 12.9524 234.418 13.0866 234.073 13.3551C233.727 13.6236 233.467 13.9943 233.293 14.4673C233.118 14.9403 233.031 15.4815 233.031 16.0909C233.031 16.7045 233.118 17.2521 233.293 17.7337C233.472 18.2109 233.734 18.5881 234.079 18.8651C234.428 19.1378 234.857 19.2741 235.364 19.2741ZM242.413 21V11.1818H244.726V21H242.413ZM243.576 9.78835C243.209 9.78835 242.894 9.6669 242.63 9.42401C242.366 9.17685 242.234 8.88068 242.234 8.53551C242.234 8.18608 242.366 7.88991 242.63 7.64702C242.894 7.39986 243.209 7.27628 243.576 7.27628C243.947 7.27628 244.262 7.39986 244.522 7.64702C244.786 7.88991 244.918 8.18608 244.918 8.53551C244.918 8.88068 244.786 9.17685 244.522 9.42401C244.262 9.6669 243.947 9.78835 243.576 9.78835ZM249.42 15.2472V21H247.106V11.1818H249.318V12.8501H249.433C249.658 12.3004 250.019 11.8636 250.513 11.5398C251.011 11.2159 251.627 11.054 252.36 11.054C253.038 11.054 253.628 11.1989 254.131 11.4886C254.638 11.7784 255.03 12.1982 255.307 12.7479C255.588 13.2976 255.727 13.9645 255.722 14.7486V21H253.408V15.1065C253.408 14.4503 253.238 13.9368 252.897 13.5661C252.56 13.1953 252.094 13.0099 251.497 13.0099C251.092 13.0099 250.732 13.0994 250.417 13.2784C250.106 13.4531 249.861 13.7067 249.682 14.0391C249.507 14.3714 249.42 14.7741 249.42 15.2472ZM262.345 24.8864C261.514 24.8864 260.8 24.7734 260.203 24.5476C259.607 24.326 259.127 24.0277 258.765 23.6527C258.403 23.2777 258.151 22.8622 258.011 22.4062L260.095 21.9013C260.188 22.093 260.325 22.2827 260.504 22.4702C260.683 22.6619 260.923 22.8196 261.226 22.9432C261.533 23.071 261.918 23.1349 262.383 23.1349C263.039 23.1349 263.582 22.9751 264.013 22.6555C264.443 22.3402 264.658 21.8203 264.658 21.0959V19.2358H264.543C264.424 19.4744 264.249 19.7195 264.019 19.9709C263.793 20.2223 263.493 20.4332 263.118 20.6037C262.747 20.7741 262.281 20.8594 261.718 20.8594C260.964 20.8594 260.28 20.6825 259.666 20.3288C259.057 19.9709 258.571 19.4382 258.209 18.7308C257.851 18.0192 257.672 17.1286 257.672 16.0589C257.672 14.9808 257.851 14.071 258.209 13.3295C258.571 12.5838 259.059 12.0192 259.673 11.6357C260.286 11.2479 260.97 11.054 261.725 11.054C262.3 11.054 262.773 11.152 263.144 11.348C263.519 11.5398 263.817 11.772 264.038 12.0447C264.26 12.3132 264.428 12.5668 264.543 12.8054H264.671V11.1818H266.953V21.1598C266.953 21.9993 266.753 22.6939 266.352 23.2436C265.952 23.7933 265.404 24.2045 264.71 24.4773C264.015 24.75 263.227 24.8864 262.345 24.8864ZM262.364 19.044C262.854 19.044 263.271 18.9247 263.617 18.6861C263.962 18.4474 264.224 18.1044 264.403 17.657C264.582 17.2095 264.671 16.6726 264.671 16.0462C264.671 15.4283 264.582 14.8871 264.403 14.4226C264.228 13.9581 263.968 13.598 263.623 13.3423C263.282 13.0824 262.862 12.9524 262.364 12.9524C261.848 12.9524 261.418 13.0866 261.073 13.3551C260.727 13.6236 260.467 13.9922 260.293 14.4609C260.118 14.9254 260.031 15.4538 260.031 16.0462C260.031 16.647 260.118 17.1733 260.293 17.625C260.472 18.0724 260.734 18.4219 261.079 18.6733C261.428 18.9205 261.857 19.044 262.364 19.044Z" fill="#101828"/>
<path d="M34.9852 40C34.8758 39.6652 34.7316 39.3653 34.5526 39.1001C34.377 38.8317 34.1665 38.603 33.9213 38.4141C33.6793 38.2251 33.4042 38.081 33.096 37.9815C32.7877 37.8821 32.4497 37.8324 32.0818 37.8324C31.4785 37.8324 30.93 37.9882 30.4362 38.2997C29.9423 38.6113 29.5496 39.0703 29.2579 39.6768C28.9662 40.2834 28.8204 41.0275 28.8204 41.9091C28.8204 42.7907 28.9679 43.5348 29.2629 44.1413C29.5579 44.7479 29.9572 45.2069 30.461 45.5185C30.9648 45.83 31.5316 45.9858 32.1613 45.9858C32.7446 45.9858 33.2584 45.8615 33.7025 45.6129C34.1499 45.361 34.498 45.0064 34.7465 44.549C34.9984 44.0883 35.1244 43.5464 35.1244 42.9233L35.5022 43.0028H32.4397V41.9091H36.3176V43.0028C36.3176 43.8414 36.1386 44.5705 35.7806 45.1903C35.426 45.8101 34.9355 46.2907 34.309 46.6321C33.6859 46.9702 32.97 47.1392 32.1613 47.1392C31.2598 47.1392 30.4677 46.9271 29.7849 46.5028C29.1054 46.0786 28.5751 45.4754 28.194 44.6932C27.8161 43.911 27.6272 42.983 27.6272 41.9091C27.6272 41.1037 27.7349 40.3795 27.9504 39.7365C28.1691 39.0902 28.4774 38.54 28.8751 38.0859C29.2728 37.6319 29.7435 37.2839 30.287 37.0419C30.8306 36.8 31.4288 36.679 32.0818 36.679C32.6187 36.679 33.1192 36.7602 33.5832 36.9226C34.0505 37.0817 34.4665 37.3087 34.8311 37.6037C35.199 37.8954 35.5055 38.245 35.7508 38.6527C35.9961 39.0571 36.1651 39.5062 36.2579 40H34.9852ZM41.3724 47.1591C40.683 47.1591 40.0782 46.995 39.5578 46.6669C39.0407 46.3388 38.6364 45.8797 38.3447 45.2898C38.0564 44.6998 37.9122 44.0104 37.9122 43.2216C37.9122 42.4261 38.0564 41.7318 38.3447 41.1385C38.6364 40.5452 39.0407 40.0845 39.5578 39.7564C40.0782 39.4283 40.683 39.2642 41.3724 39.2642C42.0618 39.2642 42.665 39.4283 43.1821 39.7564C43.7024 40.0845 44.1068 40.5452 44.3952 41.1385C44.6868 41.7318 44.8327 42.4261 44.8327 43.2216C44.8327 44.0104 44.6868 44.6998 44.3952 45.2898C44.1068 45.8797 43.7024 46.3388 43.1821 46.6669C42.665 46.995 42.0618 47.1591 41.3724 47.1591ZM41.3724 46.1051C41.8961 46.1051 42.327 45.9709 42.665 45.7024C43.0031 45.4339 43.2533 45.081 43.4157 44.6435C43.5782 44.206 43.6594 43.732 43.6594 43.2216C43.6594 42.7112 43.5782 42.2356 43.4157 41.7947C43.2533 41.3539 43.0031 40.9976 42.665 40.7259C42.327 40.4541 41.8961 40.3182 41.3724 40.3182C40.8488 40.3182 40.4179 40.4541 40.0798 40.7259C39.7417 40.9976 39.4915 41.3539 39.3291 41.7947C39.1667 42.2356 39.0855 42.7112 39.0855 43.2216C39.0855 43.732 39.1667 44.206 39.3291 44.6435C39.4915 45.081 39.7417 45.4339 40.0798 45.7024C40.4179 45.9709 40.8488 46.1051 41.3724 46.1051ZM49.7259 47.1591C49.0365 47.1591 48.4317 46.995 47.9113 46.6669C47.3943 46.3388 46.9899 45.8797 46.6982 45.2898C46.4099 44.6998 46.2657 44.0104 46.2657 43.2216C46.2657 42.4261 46.4099 41.7318 46.6982 41.1385C46.9899 40.5452 47.3943 40.0845 47.9113 39.7564C48.4317 39.4283 49.0365 39.2642 49.7259 39.2642C50.4153 39.2642 51.0186 39.4283 51.5356 39.7564C52.056 40.0845 52.4603 40.5452 52.7487 41.1385C53.0403 41.7318 53.1862 42.4261 53.1862 43.2216C53.1862 44.0104 53.0403 44.6998 52.7487 45.2898C52.4603 45.8797 52.056 46.3388 51.5356 46.6669C51.0186 46.995 50.4153 47.1591 49.7259 47.1591ZM49.7259 46.1051C50.2496 46.1051 50.6805 45.9709 51.0186 45.7024C51.3566 45.4339 51.6069 45.081 51.7693 44.6435C51.9317 44.206 52.0129 43.732 52.0129 43.2216C52.0129 42.7112 51.9317 42.2356 51.7693 41.7947C51.6069 41.3539 51.3566 40.9976 51.0186 40.7259C50.6805 40.4541 50.2496 40.3182 49.7259 40.3182C49.2023 40.3182 48.7714 40.4541 48.4333 40.7259C48.0953 40.9976 47.845 41.3539 47.6826 41.7947C47.5202 42.2356 47.439 42.7112 47.439 43.2216C47.439 43.732 47.5202 44.206 47.6826 44.6435C47.845 45.081 48.0953 45.4339 48.4333 45.7024C48.7714 45.9709 49.2023 46.1051 49.7259 46.1051ZM57.8607 47.1591C57.2243 47.1591 56.6626 46.9983 56.1753 46.6768C55.6881 46.352 55.307 45.8946 55.0319 45.3047C54.7568 44.7114 54.6192 44.0104 54.6192 43.2017C54.6192 42.3996 54.7568 41.7036 55.0319 41.1136C55.307 40.5237 55.6898 40.0679 56.1803 39.7464C56.6708 39.425 57.2376 39.2642 57.8806 39.2642C58.3778 39.2642 58.7705 39.3471 59.0589 39.5128C59.3505 39.6752 59.5726 39.8608 59.7251 40.0696C59.8808 40.2751 60.0018 40.4441 60.088 40.5767H60.1874V36.8182H61.3607V47H60.2272V45.8267H60.088C60.0018 45.9659 59.8792 46.1416 59.7201 46.3537C59.561 46.5625 59.334 46.7498 59.039 46.9155C58.744 47.0779 58.3512 47.1591 57.8607 47.1591ZM58.0198 46.1051C58.4904 46.1051 58.8882 45.9825 59.213 45.7372C59.5378 45.4886 59.7847 45.1456 59.9537 44.7081C60.1228 44.2673 60.2073 43.7585 60.2073 43.1818C60.2073 42.6117 60.1244 42.1129 59.9587 41.6854C59.793 41.2545 59.5477 40.9197 59.2229 40.6811C58.8981 40.4392 58.4971 40.3182 58.0198 40.3182C57.5226 40.3182 57.1083 40.4458 56.7769 40.701C56.4488 40.9529 56.2019 41.2959 56.0361 41.7301C55.8737 42.161 55.7925 42.6449 55.7925 43.1818C55.7925 43.7254 55.8754 44.2192 56.0411 44.6634C56.2101 45.1042 56.4587 45.4555 56.7868 45.7173C57.1183 45.9759 57.5293 46.1051 58.0198 46.1051ZM70.7123 47.1591C69.9964 47.1591 69.3799 46.9901 68.8628 46.652C68.3458 46.3139 67.9481 45.8482 67.6697 45.255C67.3912 44.6617 67.252 43.9839 67.252 43.2216C67.252 42.446 67.3946 41.7616 67.6796 41.1683C67.968 40.5717 68.369 40.1061 68.8827 39.7713C69.3998 39.4332 70.003 39.2642 70.6924 39.2642C71.2293 39.2642 71.7132 39.3636 72.1441 39.5625C72.575 39.7614 72.9279 40.0398 73.203 40.3977C73.4781 40.7557 73.6488 41.1733 73.7151 41.6506H72.5418C72.4523 41.3026 72.2535 40.9943 71.9452 40.7259C71.6403 40.4541 71.2293 40.3182 70.7123 40.3182C70.2549 40.3182 69.8538 40.4375 69.5091 40.6761C69.1678 40.9115 68.901 41.2446 68.7087 41.6754C68.5198 42.103 68.4253 42.6051 68.4253 43.1818C68.4253 43.7718 68.5181 44.2855 68.7037 44.723C68.8927 45.1605 69.1578 45.5002 69.4992 45.7422C69.8439 45.9841 70.2483 46.1051 70.7123 46.1051C71.0172 46.1051 71.2939 46.0521 71.5425 45.946C71.7911 45.84 72.0016 45.6875 72.1739 45.4886C72.3463 45.2898 72.4689 45.0511 72.5418 44.7727H73.7151C73.6488 45.2235 73.4848 45.6295 73.2229 45.9908C72.9644 46.3487 72.6214 46.6338 72.1938 46.8459C71.7696 47.0547 71.2757 47.1591 70.7123 47.1591ZM75.4303 47V39.3636H76.5638V40.517H76.6434C76.7826 40.1392 77.0345 39.8326 77.3991 39.5973C77.7636 39.362 78.1746 39.2443 78.632 39.2443C78.7182 39.2443 78.8259 39.246 78.9552 39.2493C79.0844 39.2526 79.1822 39.2576 79.2485 39.2642V40.4574C79.2087 40.4474 79.1176 40.4325 78.9751 40.4126C78.8358 40.3894 78.6884 40.3778 78.5326 40.3778C78.1614 40.3778 77.8299 40.4557 77.5383 40.6115C77.2499 40.764 77.0212 40.9761 76.8522 41.2479C76.6865 41.5163 76.6036 41.8229 76.6036 42.1676V47H75.4303ZM83.6086 47.1591C82.8728 47.1591 82.2381 46.9967 81.7045 46.6719C81.1742 46.3438 80.7648 45.8864 80.4765 45.2997C80.1914 44.7098 80.0489 44.0237 80.0489 43.2415C80.0489 42.4593 80.1914 41.7699 80.4765 41.1733C80.7648 40.5734 81.1659 40.1061 81.6796 39.7713C82.1966 39.4332 82.7999 39.2642 83.4893 39.2642C83.887 39.2642 84.2797 39.3305 84.6675 39.4631C85.0553 39.5956 85.4083 39.8111 85.7265 40.1094C86.0447 40.4044 86.2982 40.7955 86.4871 41.2827C86.676 41.7699 86.7705 42.3698 86.7705 43.0824V43.5795H80.8841V42.5653H85.5773C85.5773 42.1345 85.4912 41.75 85.3188 41.4119C85.1498 41.0739 84.9078 40.8071 84.593 40.6115C84.2814 40.416 83.9135 40.3182 83.4893 40.3182C83.0219 40.3182 82.6176 40.4342 82.2762 40.6662C81.9381 40.8949 81.6779 41.1932 81.4956 41.5611C81.3134 41.929 81.2222 42.3234 81.2222 42.7443V43.4205C81.2222 43.9972 81.3216 44.486 81.5205 44.8871C81.7227 45.2848 82.0028 45.5881 82.3607 45.7969C82.7187 46.0024 83.1346 46.1051 83.6086 46.1051C83.9168 46.1051 84.1952 46.062 84.4438 45.9759C84.6957 45.8864 84.9128 45.7538 85.0951 45.5781C85.2774 45.3991 85.4182 45.1771 85.5177 44.9119L86.6512 45.2301C86.5319 45.6146 86.3314 45.9527 86.0496 46.2443C85.7679 46.5327 85.4199 46.758 85.0056 46.9205C84.5913 47.0795 84.1256 47.1591 83.6086 47.1591ZM91.4388 47.1591C90.8025 47.1591 90.2407 46.9983 89.7535 46.6768C89.2662 46.352 88.8851 45.8946 88.61 45.3047C88.3349 44.7114 88.1974 44.0104 88.1974 43.2017C88.1974 42.3996 88.3349 41.7036 88.61 41.1136C88.8851 40.5237 89.2679 40.0679 89.7584 39.7464C90.249 39.425 90.8157 39.2642 91.4587 39.2642C91.9559 39.2642 92.3486 39.3471 92.637 39.5128C92.9287 39.6752 93.1507 39.8608 93.3032 40.0696C93.459 40.2751 93.5799 40.4441 93.6661 40.5767H93.7655V36.8182H94.9388V47H93.8053V45.8267H93.6661C93.5799 45.9659 93.4573 46.1416 93.2982 46.3537C93.1391 46.5625 92.9121 46.7498 92.6171 46.9155C92.3221 47.0779 91.9294 47.1591 91.4388 47.1591ZM91.5979 46.1051C92.0686 46.1051 92.4663 45.9825 92.7911 45.7372C93.1159 45.4886 93.3628 45.1456 93.5319 44.7081C93.7009 44.2673 93.7854 43.7585 93.7854 43.1818C93.7854 42.6117 93.7026 42.1129 93.5368 41.6854C93.3711 41.2545 93.1259 40.9197 92.801 40.6811C92.4762 40.4392 92.0752 40.3182 91.5979 40.3182C91.1008 40.3182 90.6865 40.4458 90.355 40.701C90.0269 40.9529 89.78 41.2959 89.6143 41.7301C89.4519 42.161 89.3706 42.6449 89.3706 43.1818C89.3706 43.7254 89.4535 44.2192 89.6192 44.6634C89.7883 45.1042 90.0368 45.4555 90.365 45.7173C90.6964 45.9759 91.1074 46.1051 91.5979 46.1051ZM97.2506 47V39.3636H98.4239V47H97.2506ZM97.8472 38.0909C97.6185 38.0909 97.4213 38.013 97.2556 37.8572C97.0932 37.7015 97.012 37.5142 97.012 37.2955C97.012 37.0767 97.0932 36.8894 97.2556 36.7337C97.4213 36.5779 97.6185 36.5 97.8472 36.5C98.0759 36.5 98.2715 36.5779 98.4339 36.7337C98.5996 36.8894 98.6824 37.0767 98.6824 37.2955C98.6824 37.5142 98.5996 37.7015 98.4339 37.8572C98.2715 38.013 98.0759 38.0909 97.8472 38.0909ZM103.894 39.3636V40.358H99.9365V39.3636H103.894ZM101.09 37.5341H102.263V44.8125C102.263 45.1439 102.311 45.3925 102.407 45.5582C102.507 45.7206 102.633 45.83 102.785 45.8864C102.941 45.9394 103.105 45.9659 103.277 45.9659C103.407 45.9659 103.513 45.9593 103.596 45.946C103.678 45.9295 103.745 45.9162 103.794 45.9062L104.033 46.9602C103.954 46.9901 103.843 47.0199 103.7 47.0497C103.557 47.0829 103.377 47.0994 103.158 47.0994C102.827 47.0994 102.502 47.0282 102.184 46.8857C101.869 46.7431 101.607 46.526 101.398 46.2344C101.193 45.9427 101.09 45.5748 101.09 45.1307V37.5341ZM114.409 43.8778V39.3636H115.582V47H114.409V45.7074H114.329C114.15 46.0952 113.872 46.425 113.494 46.6967C113.116 46.9652 112.639 47.0994 112.062 47.0994C111.585 47.0994 111.161 46.995 110.79 46.7862C110.418 46.5741 110.127 46.2559 109.915 45.8317C109.702 45.4041 109.596 44.8655 109.596 44.2159V39.3636H110.77V44.1364C110.77 44.6932 110.925 45.1373 111.237 45.4688C111.552 45.8002 111.953 45.9659 112.44 45.9659C112.732 45.9659 113.028 45.8913 113.33 45.7422C113.635 45.593 113.89 45.3643 114.096 45.0561C114.304 44.7479 114.409 44.3551 114.409 43.8778ZM118.904 42.4062V47H117.731V39.3636H118.865V40.5568H118.964C119.143 40.169 119.415 39.8575 119.779 39.6222C120.144 39.3835 120.615 39.2642 121.191 39.2642C121.708 39.2642 122.161 39.3703 122.549 39.5824C122.936 39.7912 123.238 40.1094 123.453 40.5369C123.669 40.9612 123.777 41.4981 123.777 42.1477V47H122.603V42.2273C122.603 41.6274 122.447 41.16 122.136 40.8253C121.824 40.4872 121.397 40.3182 120.853 40.3182C120.479 40.3182 120.144 40.3994 119.849 40.5618C119.557 40.7242 119.327 40.9612 119.158 41.2727C118.989 41.5843 118.904 41.9621 118.904 42.4062ZM127.094 36.8182V47H125.921V36.8182H127.094ZM132.345 47.1591C131.656 47.1591 131.051 46.995 130.53 46.6669C130.013 46.3388 129.609 45.8797 129.317 45.2898C129.029 44.6998 128.885 44.0104 128.885 43.2216C128.885 42.4261 129.029 41.7318 129.317 41.1385C129.609 40.5452 130.013 40.0845 130.53 39.7564C131.051 39.4283 131.656 39.2642 132.345 39.2642C133.034 39.2642 133.638 39.4283 134.155 39.7564C134.675 40.0845 135.079 40.5452 135.368 41.1385C135.659 41.7318 135.805 42.4261 135.805 43.2216C135.805 44.0104 135.659 44.6998 135.368 45.2898C135.079 45.8797 134.675 46.3388 134.155 46.6669C133.638 46.995 133.034 47.1591 132.345 47.1591ZM132.345 46.1051C132.869 46.1051 133.3 45.9709 133.638 45.7024C133.976 45.4339 134.226 45.081 134.388 44.6435C134.551 44.206 134.632 43.732 134.632 43.2216C134.632 42.7112 134.551 42.2356 134.388 41.7947C134.226 41.3539 133.976 40.9976 133.638 40.7259C133.3 40.4541 132.869 40.3182 132.345 40.3182C131.821 40.3182 131.391 40.4541 131.052 40.7259C130.714 40.9976 130.464 41.3539 130.302 41.7947C130.139 42.2356 130.058 42.7112 130.058 43.2216C130.058 43.732 130.139 44.206 130.302 44.6435C130.464 45.081 130.714 45.4339 131.052 45.7024C131.391 45.9709 131.821 46.1051 132.345 46.1051ZM140.699 47.1591C139.983 47.1591 139.366 46.9901 138.849 46.652C138.332 46.3139 137.934 45.8482 137.656 45.255C137.378 44.6617 137.238 43.9839 137.238 43.2216C137.238 42.446 137.381 41.7616 137.666 41.1683C137.954 40.5717 138.355 40.1061 138.869 39.7713C139.386 39.4332 139.989 39.2642 140.679 39.2642C141.216 39.2642 141.7 39.3636 142.13 39.5625C142.561 39.7614 142.914 40.0398 143.189 40.3977C143.464 40.7557 143.635 41.1733 143.701 41.6506H142.528C142.439 41.3026 142.24 40.9943 141.932 40.7259C141.627 40.4541 141.216 40.3182 140.699 40.3182C140.241 40.3182 139.84 40.4375 139.495 40.6761C139.154 40.9115 138.887 41.2446 138.695 41.6754C138.506 42.103 138.412 42.6051 138.412 43.1818C138.412 43.7718 138.504 44.2855 138.69 44.723C138.879 45.1605 139.144 45.5002 139.486 45.7422C139.83 45.9841 140.235 46.1051 140.699 46.1051C141.004 46.1051 141.28 46.0521 141.529 45.946C141.777 45.84 141.988 45.6875 142.16 45.4886C142.333 45.2898 142.455 45.0511 142.528 44.7727H143.701C143.635 45.2235 143.471 45.6295 143.209 45.9908C142.951 46.3487 142.608 46.6338 142.18 46.8459C141.756 47.0547 141.262 47.1591 140.699 47.1591ZM146.51 44.2159L146.491 42.7642H146.729L150.07 39.3636H151.522L147.962 42.9631H147.863L146.51 44.2159ZM145.417 47V36.8182H146.59V47H145.417ZM150.269 47L147.286 43.2216L148.121 42.4062L151.76 47H150.269ZM158.441 41.0739L157.387 41.3722C157.321 41.1965 157.223 41.0258 157.094 40.8601C156.968 40.6911 156.795 40.5518 156.577 40.4425C156.358 40.3331 156.078 40.2784 155.736 40.2784C155.269 40.2784 154.88 40.3861 154.568 40.6016C154.26 40.8137 154.106 41.0838 154.106 41.4119C154.106 41.7036 154.212 41.9339 154.424 42.103C154.636 42.272 154.967 42.4129 155.418 42.5256L156.552 42.804C157.235 42.9697 157.743 43.2232 158.078 43.5646C158.413 43.9027 158.58 44.3385 158.58 44.8722C158.58 45.3097 158.454 45.7008 158.202 46.0455C157.954 46.3902 157.606 46.6619 157.158 46.8608C156.711 47.0597 156.19 47.1591 155.597 47.1591C154.818 47.1591 154.174 46.9901 153.663 46.652C153.153 46.3139 152.83 45.8201 152.694 45.1705L153.807 44.892C153.914 45.303 154.114 45.6113 154.409 45.8168C154.707 46.0223 155.097 46.125 155.577 46.125C156.124 46.125 156.558 46.009 156.88 45.777C157.205 45.5417 157.367 45.2599 157.367 44.9318C157.367 44.6667 157.274 44.4446 157.089 44.2656C156.903 44.0833 156.618 43.9474 156.234 43.858L154.961 43.5597C154.262 43.3939 153.748 43.1371 153.42 42.7891C153.095 42.4377 152.932 41.9986 152.932 41.4716C152.932 41.0407 153.053 40.6596 153.295 40.3281C153.541 39.9967 153.874 39.7365 154.295 39.5476C154.719 39.3587 155.199 39.2642 155.736 39.2642C156.492 39.2642 157.085 39.4299 157.516 39.7614C157.95 40.0928 158.259 40.5303 158.441 41.0739ZM164.443 47V36.8182H165.616V40.5767H165.716C165.802 40.4441 165.921 40.2751 166.074 40.0696C166.229 39.8608 166.451 39.6752 166.74 39.5128C167.031 39.3471 167.426 39.2642 167.923 39.2642C168.566 39.2642 169.133 39.425 169.623 39.7464C170.114 40.0679 170.497 40.5237 170.772 41.1136C171.047 41.7036 171.184 42.3996 171.184 43.2017C171.184 44.0104 171.047 44.7114 170.772 45.3047C170.497 45.8946 170.116 46.352 169.628 46.6768C169.141 46.9983 168.579 47.1591 167.943 47.1591C167.452 47.1591 167.06 47.0779 166.765 46.9155C166.47 46.7498 166.243 46.5625 166.084 46.3537C165.924 46.1416 165.802 45.9659 165.716 45.8267H165.576V47H164.443ZM165.596 43.1818C165.596 43.7585 165.681 44.2673 165.85 44.7081C166.019 45.1456 166.266 45.4886 166.591 45.7372C166.915 45.9825 167.313 46.1051 167.784 46.1051C168.274 46.1051 168.684 45.9759 169.012 45.7173C169.343 45.4555 169.592 45.1042 169.758 44.6634C169.927 44.2192 170.011 43.7254 170.011 43.1818C170.011 42.6449 169.928 42.161 169.763 41.7301C169.6 41.2959 169.353 40.9529 169.022 40.701C168.694 40.4458 168.281 40.3182 167.784 40.3182C167.307 40.3182 166.906 40.4392 166.581 40.6811C166.256 40.9197 166.011 41.2545 165.845 41.6854C165.679 42.1129 165.596 42.6117 165.596 43.1818ZM176.181 47.1591C175.445 47.1591 174.81 46.9967 174.277 46.6719C173.746 46.3438 173.337 45.8864 173.049 45.2997C172.764 44.7098 172.621 44.0237 172.621 43.2415C172.621 42.4593 172.764 41.7699 173.049 41.1733C173.337 40.5734 173.738 40.1061 174.252 39.7713C174.769 39.4332 175.372 39.2642 176.062 39.2642C176.459 39.2642 176.852 39.3305 177.24 39.4631C177.628 39.5956 177.981 39.8111 178.299 40.1094C178.617 40.4044 178.87 40.7955 179.059 41.2827C179.248 41.7699 179.343 42.3698 179.343 43.0824V43.5795H173.456V42.5653H178.15C178.15 42.1345 178.063 41.75 177.891 41.4119C177.722 41.0739 177.48 40.8071 177.165 40.6115C176.854 40.416 176.486 40.3182 176.062 40.3182C175.594 40.3182 175.19 40.4342 174.848 40.6662C174.51 40.8949 174.25 41.1932 174.068 41.5611C173.886 41.929 173.794 42.3234 173.794 42.7443V43.4205C173.794 43.9972 173.894 44.486 174.093 44.8871C174.295 45.2848 174.575 45.5881 174.933 45.7969C175.291 46.0024 175.707 46.1051 176.181 46.1051C176.489 46.1051 176.767 46.062 177.016 45.9759C177.268 45.8864 177.485 45.7538 177.667 45.5781C177.85 45.3991 177.991 45.1771 178.09 44.9119L179.223 45.2301C179.104 45.6146 178.904 45.9527 178.622 46.2443C178.34 46.5327 177.992 46.758 177.578 46.9205C177.164 47.0795 176.698 47.1591 176.181 47.1591ZM184.449 39.3636V40.358H180.491V39.3636H184.449ZM181.645 37.5341H182.818V44.8125C182.818 45.1439 182.866 45.3925 182.962 45.5582C183.062 45.7206 183.187 45.83 183.34 45.8864C183.496 45.9394 183.66 45.9659 183.832 45.9659C183.961 45.9659 184.067 45.9593 184.15 45.946C184.233 45.9295 184.299 45.9162 184.349 45.9062L184.588 46.9602C184.508 46.9901 184.397 47.0199 184.255 47.0497C184.112 47.0829 183.932 47.0994 183.713 47.0994C183.381 47.0994 183.057 47.0282 182.738 46.8857C182.424 46.7431 182.162 46.526 181.953 46.2344C181.747 45.9427 181.645 45.5748 181.645 45.1307V37.5341ZM189.535 39.3636V40.358H185.577V39.3636H189.535ZM186.731 37.5341H187.904V44.8125C187.904 45.1439 187.952 45.3925 188.048 45.5582C188.147 45.7206 188.273 45.83 188.426 45.8864C188.582 45.9394 188.746 45.9659 188.918 45.9659C189.047 45.9659 189.153 45.9593 189.236 45.946C189.319 45.9295 189.385 45.9162 189.435 45.9062L189.674 46.9602C189.594 46.9901 189.483 47.0199 189.341 47.0497C189.198 47.0829 189.017 47.0994 188.799 47.0994C188.467 47.0994 188.142 47.0282 187.824 46.8857C187.509 46.7431 187.248 46.526 187.039 46.2344C186.833 45.9427 186.731 45.5748 186.731 45.1307V37.5341ZM194.419 47.1591C193.683 47.1591 193.049 46.9967 192.515 46.6719C191.985 46.3438 191.575 45.8864 191.287 45.2997C191.002 44.7098 190.859 44.0237 190.859 43.2415C190.859 42.4593 191.002 41.7699 191.287 41.1733C191.575 40.5734 191.976 40.1061 192.49 39.7713C193.007 39.4332 193.61 39.2642 194.3 39.2642C194.698 39.2642 195.09 39.3305 195.478 39.4631C195.866 39.5956 196.219 39.8111 196.537 40.1094C196.855 40.4044 197.109 40.7955 197.298 41.2827C197.487 41.7699 197.581 42.3698 197.581 43.0824V43.5795H191.695V42.5653H196.388C196.388 42.1345 196.302 41.75 196.129 41.4119C195.96 41.0739 195.718 40.8071 195.403 40.6115C195.092 40.416 194.724 40.3182 194.3 40.3182C193.832 40.3182 193.428 40.4342 193.087 40.6662C192.749 40.8949 192.488 41.1932 192.306 41.5611C192.124 41.929 192.033 42.3234 192.033 42.7443V43.4205C192.033 43.9972 192.132 44.486 192.331 44.8871C192.533 45.2848 192.813 45.5881 193.171 45.7969C193.529 46.0024 193.945 46.1051 194.419 46.1051C194.727 46.1051 195.006 46.062 195.254 45.9759C195.506 45.8864 195.723 45.7538 195.906 45.5781C196.088 45.3991 196.229 45.1771 196.328 44.9119L197.462 45.2301C197.342 45.6146 197.142 45.9527 196.86 46.2443C196.578 46.5327 196.23 46.758 195.816 46.9205C195.402 47.0795 194.936 47.1591 194.419 47.1591ZM199.366 47V39.3636H200.499V40.517H200.579C200.718 40.1392 200.97 39.8326 201.335 39.5973C201.699 39.362 202.11 39.2443 202.568 39.2443C202.654 39.2443 202.761 39.246 202.891 39.2493C203.02 39.2526 203.118 39.2576 203.184 39.2642V40.4574C203.144 40.4474 203.053 40.4325 202.911 40.4126C202.771 40.3894 202.624 40.3778 202.468 40.3778C202.097 40.3778 201.765 40.4557 201.474 40.6115C201.185 40.764 200.957 40.9761 200.788 41.2479C200.622 41.5163 200.539 41.8229 200.539 42.1676V47H199.366ZM209.686 36.8182V47H208.512V36.8182H209.686ZM214.937 47.1591C214.247 47.1591 213.643 46.995 213.122 46.6669C212.605 46.3388 212.201 45.8797 211.909 45.2898C211.621 44.6998 211.477 44.0104 211.477 43.2216C211.477 42.4261 211.621 41.7318 211.909 41.1385C212.201 40.5452 212.605 40.0845 213.122 39.7564C213.643 39.4283 214.247 39.2642 214.937 39.2642C215.626 39.2642 216.229 39.4283 216.747 39.7564C217.267 40.0845 217.671 40.5452 217.96 41.1385C218.251 41.7318 218.397 42.4261 218.397 43.2216C218.397 44.0104 218.251 44.6998 217.96 45.2898C217.671 45.8797 217.267 46.3388 216.747 46.6669C216.229 46.995 215.626 47.1591 214.937 47.1591ZM214.937 46.1051C215.461 46.1051 215.891 45.9709 216.229 45.7024C216.568 45.4339 216.818 45.081 216.98 44.6435C217.143 44.206 217.224 43.732 217.224 43.2216C217.224 42.7112 217.143 42.2356 216.98 41.7947C216.818 41.3539 216.568 40.9976 216.229 40.7259C215.891 40.4541 215.461 40.3182 214.937 40.3182C214.413 40.3182 213.982 40.4541 213.644 40.7259C213.306 40.9976 213.056 41.3539 212.894 41.7947C212.731 42.2356 212.65 42.7112 212.65 43.2216C212.65 43.732 212.731 44.206 212.894 44.6435C213.056 45.081 213.306 45.4339 213.644 45.7024C213.982 45.9709 214.413 46.1051 214.937 46.1051ZM222.435 47.179C221.951 47.179 221.512 47.0878 221.118 46.9055C220.723 46.7199 220.41 46.4531 220.178 46.1051C219.946 45.7538 219.83 45.3295 219.83 44.8324C219.83 44.3949 219.916 44.0402 220.089 43.7685C220.261 43.4934 220.491 43.2779 220.78 43.1222C221.068 42.9664 221.386 42.8504 221.734 42.7741C222.086 42.6946 222.439 42.6316 222.793 42.5852C223.257 42.5256 223.633 42.4808 223.922 42.451C224.213 42.4179 224.426 42.3632 224.558 42.2869C224.694 42.2107 224.762 42.0781 224.762 41.8892V41.8494C224.762 41.3589 224.628 40.9777 224.359 40.706C224.094 40.4342 223.691 40.2983 223.151 40.2983C222.591 40.2983 222.152 40.4209 221.834 40.6662C221.516 40.9115 221.292 41.1733 221.163 41.4517L220.049 41.054C220.248 40.59 220.513 40.2287 220.844 39.9702C221.179 39.7083 221.544 39.526 221.938 39.4233C222.336 39.3172 222.727 39.2642 223.111 39.2642C223.357 39.2642 223.638 39.294 223.957 39.3537C224.278 39.41 224.588 39.5277 224.886 39.7067C225.188 39.8857 225.438 40.1558 225.637 40.517C225.836 40.8783 225.935 41.3622 225.935 41.9688V47H224.762V45.9659H224.702C224.623 46.1316 224.49 46.3089 224.305 46.4979C224.119 46.6868 223.872 46.8475 223.564 46.9801C223.256 47.1127 222.879 47.179 222.435 47.179ZM222.614 46.125C223.078 46.125 223.469 46.0339 223.788 45.8516C224.109 45.6693 224.351 45.4339 224.513 45.1456C224.679 44.8572 224.762 44.554 224.762 44.2358V43.1619C224.712 43.2216 224.603 43.2763 224.434 43.326C224.268 43.3724 224.076 43.4138 223.857 43.4503C223.642 43.4834 223.431 43.5133 223.226 43.5398C223.024 43.563 222.86 43.5829 222.734 43.5994C222.429 43.6392 222.144 43.7038 221.878 43.7933C221.617 43.8795 221.405 44.0104 221.242 44.1861C221.083 44.3584 221.003 44.5937 221.003 44.892C221.003 45.2997 221.154 45.608 221.456 45.8168C221.761 46.0223 222.147 46.125 222.614 46.125ZM229.25 42.4062V47H228.077V39.3636H229.21V40.5568H229.31C229.489 40.169 229.761 39.8575 230.125 39.6222C230.49 39.3835 230.96 39.2642 231.537 39.2642C232.054 39.2642 232.506 39.3703 232.894 39.5824C233.282 39.7912 233.584 40.1094 233.799 40.5369C234.015 40.9612 234.122 41.4981 234.122 42.1477V47H232.949V42.2273C232.949 41.6274 232.793 41.16 232.482 40.8253C232.17 40.4872 231.743 40.3182 231.199 40.3182C230.824 40.3182 230.49 40.3994 230.195 40.5618C229.903 40.7242 229.673 40.9612 229.504 41.2727C229.335 41.5843 229.25 41.9621 229.25 42.4062ZM243.525 39.3636V40.358H239.567V39.3636H243.525ZM240.721 37.5341H241.894V44.8125C241.894 45.1439 241.942 45.3925 242.038 45.5582C242.138 45.7206 242.264 45.83 242.416 45.8864C242.572 45.9394 242.736 45.9659 242.908 45.9659C243.038 45.9659 243.144 45.9593 243.226 45.946C243.309 45.9295 243.376 45.9162 243.425 45.9062L243.664 46.9602C243.584 46.9901 243.473 47.0199 243.331 47.0497C243.188 47.0829 243.008 47.0994 242.789 47.0994C242.458 47.0994 242.133 47.0282 241.815 46.8857C241.5 46.7431 241.238 46.526 241.029 46.2344C240.824 45.9427 240.721 45.5748 240.721 45.1307V37.5341ZM248.409 47.1591C247.674 47.1591 247.039 46.9967 246.505 46.6719C245.975 46.3438 245.566 45.8864 245.277 45.2997C244.992 44.7098 244.85 44.0237 244.85 43.2415C244.85 42.4593 244.992 41.7699 245.277 41.1733C245.566 40.5734 245.967 40.1061 246.48 39.7713C246.997 39.4332 247.601 39.2642 248.29 39.2642C248.688 39.2642 249.081 39.3305 249.468 39.4631C249.856 39.5956 250.209 39.8111 250.527 40.1094C250.845 40.4044 251.099 40.7955 251.288 41.2827C251.477 41.7699 251.571 42.3698 251.571 43.0824V43.5795H245.685V42.5653H250.378C250.378 42.1345 250.292 41.75 250.12 41.4119C249.951 41.0739 249.709 40.8071 249.394 40.6115C249.082 40.416 248.714 40.3182 248.29 40.3182C247.823 40.3182 247.418 40.4342 247.077 40.6662C246.739 40.8949 246.479 41.1932 246.296 41.5611C246.114 41.929 246.023 42.3234 246.023 42.7443V43.4205C246.023 43.9972 246.122 44.486 246.321 44.8871C246.523 45.2848 246.804 45.5881 247.161 45.7969C247.519 46.0024 247.935 46.1051 248.409 46.1051C248.718 46.1051 248.996 46.062 249.245 45.9759C249.496 45.8864 249.714 45.7538 249.896 45.5781C250.078 45.3991 250.219 45.1771 250.318 44.9119L251.452 45.2301C251.333 45.6146 251.132 45.9527 250.85 46.2443C250.569 46.5327 250.221 46.758 249.806 46.9205C249.392 47.0795 248.926 47.1591 248.409 47.1591ZM253.356 47V39.3636H254.49V40.517H254.569C254.708 40.1392 254.96 39.8326 255.325 39.5973C255.689 39.362 256.1 39.2443 256.558 39.2443C256.644 39.2443 256.752 39.246 256.881 39.2493C257.01 39.2526 257.108 39.2576 257.174 39.2642V40.4574C257.134 40.4474 257.043 40.4325 256.901 40.4126C256.762 40.3894 256.614 40.3778 256.458 40.3778C256.087 40.3778 255.756 40.4557 255.464 40.6115C255.176 40.764 254.947 40.9761 254.778 41.2479C254.612 41.5163 254.529 41.8229 254.529 42.1676V47H253.356ZM258.565 47V39.3636H259.699V40.5568H259.798C259.957 40.1491 260.214 39.8326 260.569 39.6072C260.923 39.3786 261.349 39.2642 261.846 39.2642C262.35 39.2642 262.769 39.3786 263.104 39.6072C263.442 39.8326 263.706 40.1491 263.895 40.5568H263.974C264.17 40.1624 264.463 39.8492 264.854 39.6172C265.245 39.3819 265.714 39.2642 266.261 39.2642C266.944 39.2642 267.502 39.478 267.937 39.9055C268.371 40.3298 268.588 40.991 268.588 41.8892V47H267.415V41.8892C267.415 41.3258 267.26 40.9231 266.952 40.6811C266.644 40.4392 266.281 40.3182 265.863 40.3182C265.326 40.3182 264.91 40.4806 264.616 40.8054C264.321 41.1269 264.173 41.5346 264.173 42.0284V47H262.98V41.7699C262.98 41.3357 262.839 40.986 262.557 40.7209C262.276 40.4524 261.913 40.3182 261.468 40.3182C261.164 40.3182 260.879 40.3994 260.613 40.5618C260.352 40.7242 260.139 40.9496 259.977 41.2379C259.818 41.523 259.738 41.8527 259.738 42.2273V47H258.565ZM276.142 41.0739L275.088 41.3722C275.022 41.1965 274.924 41.0258 274.795 40.8601C274.669 40.6911 274.497 40.5518 274.278 40.4425C274.059 40.3331 273.779 40.2784 273.438 40.2784C272.97 40.2784 272.581 40.3861 272.269 40.6016C271.961 40.8137 271.807 41.0838 271.807 41.4119C271.807 41.7036 271.913 41.9339 272.125 42.103C272.337 42.272 272.669 42.4129 273.119 42.5256L274.253 42.804C274.936 42.9697 275.444 43.2232 275.779 43.5646C276.114 43.9027 276.281 44.3385 276.281 44.8722C276.281 45.3097 276.155 45.7008 275.903 46.0455C275.655 46.3902 275.307 46.6619 274.859 46.8608C274.412 47.0597 273.892 47.1591 273.298 47.1591C272.52 47.1591 271.875 46.9901 271.364 46.652C270.854 46.3139 270.531 45.8201 270.395 45.1705L271.509 44.892C271.615 45.303 271.815 45.6113 272.11 45.8168C272.408 46.0223 272.798 46.125 273.278 46.125C273.825 46.125 274.26 46.009 274.581 45.777C274.906 45.5417 275.068 45.2599 275.068 44.9318C275.068 44.6667 274.975 44.4446 274.79 44.2656C274.604 44.0833 274.319 43.9474 273.935 43.858L272.662 43.5597C271.963 43.3939 271.449 43.1371 271.121 42.7891C270.796 42.4377 270.634 41.9986 270.634 41.4716C270.634 41.0407 270.755 40.6596 270.997 40.3281C271.242 39.9967 271.575 39.7365 271.996 39.5476C272.42 39.3587 272.901 39.2642 273.438 39.2642C274.193 39.2642 274.787 39.4299 275.217 39.7614C275.652 40.0928 275.96 40.5303 276.142 41.0739ZM278.903 47.0795C278.657 47.0795 278.447 46.9917 278.271 46.8161C278.096 46.6404 278.008 46.4299 278.008 46.1847C278.008 45.9394 278.096 45.7289 278.271 45.5533C278.447 45.3776 278.657 45.2898 278.903 45.2898C279.148 45.2898 279.358 45.3776 279.534 45.5533C279.71 45.7289 279.797 45.9394 279.797 46.1847C279.797 46.3471 279.756 46.4962 279.673 46.6321C279.594 46.768 279.486 46.8774 279.35 46.9602C279.217 47.0398 279.068 47.0795 278.903 47.0795ZM286 47V36.8182H287.233V45.9062H291.965V47H286ZM296.818 47.1591C296.128 47.1591 295.523 46.995 295.003 46.6669C294.486 46.3388 294.082 45.8797 293.79 45.2898C293.502 44.6998 293.358 44.0104 293.358 43.2216C293.358 42.4261 293.502 41.7318 293.79 41.1385C294.082 40.5452 294.486 40.0845 295.003 39.7564C295.523 39.4283 296.128 39.2642 296.818 39.2642C297.507 39.2642 298.11 39.4283 298.627 39.7564C299.148 40.0845 299.552 40.5452 299.84 41.1385C300.132 41.7318 300.278 42.4261 300.278 43.2216C300.278 44.0104 300.132 44.6998 299.84 45.2898C299.552 45.8797 299.148 46.3388 298.627 46.6669C298.11 46.995 297.507 47.1591 296.818 47.1591ZM296.818 46.1051C297.341 46.1051 297.772 45.9709 298.11 45.7024C298.448 45.4339 298.699 45.081 298.861 44.6435C299.023 44.206 299.105 43.732 299.105 43.2216C299.105 42.7112 299.023 42.2356 298.861 41.7947C298.699 41.3539 298.448 40.9976 298.11 40.7259C297.772 40.4541 297.341 40.3182 296.818 40.3182C296.294 40.3182 295.863 40.4541 295.525 40.7259C295.187 40.9976 294.937 41.3539 294.774 41.7947C294.612 42.2356 294.531 42.7112 294.531 43.2216C294.531 43.732 294.612 44.206 294.774 44.6435C294.937 45.081 295.187 45.4339 295.525 45.7024C295.863 45.9709 296.294 46.1051 296.818 46.1051ZM303.539 47L301.213 39.3636H302.446L304.096 45.2102H304.176L305.806 39.3636H307.059L308.67 45.1903H308.75L310.4 39.3636H311.633L309.306 47H308.153L306.483 41.1335H306.363L304.693 47H303.539ZM316.126 47.1591C315.39 47.1591 314.756 46.9967 314.222 46.6719C313.692 46.3438 313.282 45.8864 312.994 45.2997C312.709 44.7098 312.566 44.0237 312.566 43.2415C312.566 42.4593 312.709 41.7699 312.994 41.1733C313.282 40.5734 313.683 40.1061 314.197 39.7713C314.714 39.4332 315.317 39.2642 316.007 39.2642C316.405 39.2642 316.797 39.3305 317.185 39.4631C317.573 39.5956 317.926 39.8111 318.244 40.1094C318.562 40.4044 318.816 40.7955 319.005 41.2827C319.194 41.7699 319.288 42.3698 319.288 43.0824V43.5795H313.402V42.5653H318.095C318.095 42.1345 318.009 41.75 317.836 41.4119C317.667 41.0739 317.425 40.8071 317.111 40.6115C316.799 40.416 316.431 40.3182 316.007 40.3182C315.54 40.3182 315.135 40.4342 314.794 40.6662C314.456 40.8949 314.196 41.1932 314.013 41.5611C313.831 41.929 313.74 42.3234 313.74 42.7443V43.4205C313.74 43.9972 313.839 44.486 314.038 44.8871C314.24 45.2848 314.52 45.5881 314.878 45.7969C315.236 46.0024 315.652 46.1051 316.126 46.1051C316.434 46.1051 316.713 46.062 316.961 45.9759C317.213 45.8864 317.43 45.7538 317.613 45.5781C317.795 45.3991 317.936 45.1771 318.035 44.9119L319.169 45.2301C319.049 45.6146 318.849 45.9527 318.567 46.2443C318.285 46.5327 317.937 46.758 317.523 46.9205C317.109 47.0795 316.643 47.1591 316.126 47.1591ZM321.073 47V39.3636H322.206V40.517H322.286C322.425 40.1392 322.677 39.8326 323.042 39.5973C323.406 39.362 323.817 39.2443 324.275 39.2443C324.361 39.2443 324.468 39.246 324.598 39.2493C324.727 39.2526 324.825 39.2576 324.891 39.2642V40.4574C324.851 40.4474 324.76 40.4325 324.618 40.4126C324.478 40.3894 324.331 40.3778 324.175 40.3778C323.804 40.3778 323.473 40.4557 323.181 40.6115C322.892 40.764 322.664 40.9761 322.495 41.2479C322.329 41.5163 322.246 41.8229 322.246 42.1676V47H321.073ZM40.9088 67V59.3636H42.0821V67H40.9088ZM41.5054 58.0909C41.2767 58.0909 41.0795 58.013 40.9138 57.8572C40.7514 57.7015 40.6702 57.5142 40.6702 57.2955C40.6702 57.0767 40.7514 56.8894 40.9138 56.7337C41.0795 56.5779 41.2767 56.5 41.5054 56.5C41.7341 56.5 41.9297 56.5779 42.0921 56.7337C42.2578 56.8894 42.3406 57.0767 42.3406 57.2955C42.3406 57.5142 42.2578 57.7015 42.0921 57.8572C41.9297 58.013 41.7341 58.0909 41.5054 58.0909ZM45.4044 62.4062V67H44.2311V59.3636H45.3646V60.5568H45.464C45.643 60.169 45.9148 59.8575 46.2794 59.6222C46.644 59.3835 47.1146 59.2642 47.6913 59.2642C48.2084 59.2642 48.6608 59.3703 49.0486 59.5824C49.4363 59.7912 49.738 60.1094 49.9534 60.5369C50.1688 60.9612 50.2765 61.4981 50.2765 62.1477V67H49.1032V62.2273C49.1032 61.6274 48.9475 61.16 48.6359 60.8253C48.3244 60.4872 47.8968 60.3182 47.3532 60.3182C46.9787 60.3182 46.644 60.3994 46.349 60.5618C46.0573 60.7242 45.827 60.9612 45.6579 61.2727C45.4889 61.5843 45.4044 61.9621 45.4044 62.4062ZM55.7416 59.3636V60.358H51.7842V59.3636H55.7416ZM52.9376 57.5341H54.1109V64.8125C54.1109 65.1439 54.1589 65.3925 54.2551 65.5582C54.3545 65.7206 54.4804 65.83 54.6329 65.8864C54.7887 65.9394 54.9527 65.9659 55.1251 65.9659C55.2544 65.9659 55.3604 65.9593 55.4433 65.946C55.5261 65.9295 55.5924 65.9162 55.6421 65.9062L55.8808 66.9602C55.8012 66.9901 55.6902 67.0199 55.5477 67.0497C55.4052 67.0829 55.2245 67.0994 55.0058 67.0994C54.6743 67.0994 54.3495 67.0282 54.0313 66.8857C53.7165 66.7431 53.4546 66.526 53.2458 66.2344C53.0403 65.9427 52.9376 65.5748 52.9376 65.1307V57.5341ZM60.6262 67.1591C59.8904 67.1591 59.2557 66.9967 58.722 66.6719C58.1917 66.3438 57.7824 65.8864 57.4941 65.2997C57.209 64.7098 57.0665 64.0237 57.0665 63.2415C57.0665 62.4593 57.209 61.7699 57.4941 61.1733C57.7824 60.5734 58.1834 60.1061 58.6972 59.7713C59.2142 59.4332 59.8174 59.2642 60.5068 59.2642C60.9046 59.2642 61.2973 59.3305 61.6851 59.4631C62.0729 59.5956 62.4259 59.8111 62.7441 60.1094C63.0622 60.4044 63.3158 60.7955 63.5047 61.2827C63.6936 61.7699 63.7881 62.3698 63.7881 63.0824V63.5795H57.9017V62.5653H62.5949C62.5949 62.1345 62.5087 61.75 62.3364 61.4119C62.1673 61.0739 61.9254 60.8071 61.6105 60.6115C61.299 60.416 60.9311 60.3182 60.5068 60.3182C60.0395 60.3182 59.6352 60.4342 59.2938 60.6662C58.9557 60.8949 58.6955 61.1932 58.5132 61.5611C58.3309 61.929 58.2398 62.3234 58.2398 62.7443V63.4205C58.2398 63.9972 58.3392 64.486 58.5381 64.8871C58.7403 65.2848 59.0203 65.5881 59.3783 65.7969C59.7362 66.0024 60.1522 66.1051 60.6262 66.1051C60.9344 66.1051 61.2128 66.062 61.4614 65.9759C61.7133 65.8864 61.9304 65.7538 62.1127 65.5781C62.295 65.3991 62.4358 65.1771 62.5352 64.9119L63.6688 65.2301C63.5494 65.6146 63.3489 65.9527 63.0672 66.2443C62.7855 66.5327 62.4375 66.758 62.0232 66.9205C61.6089 67.0795 61.1432 67.1591 60.6262 67.1591ZM65.5729 67V59.3636H66.7064V60.517H66.786C66.9252 60.1392 67.1771 59.8326 67.5416 59.5973C67.9062 59.362 68.3172 59.2443 68.7746 59.2443C68.8608 59.2443 68.9685 59.246 69.0977 59.2493C69.227 59.2526 69.3248 59.2576 69.3911 59.2642V60.4574C69.3513 60.4474 69.2602 60.4325 69.1176 60.4126C68.9784 60.3894 68.8309 60.3778 68.6752 60.3778C68.3039 60.3778 67.9725 60.4557 67.6808 60.6115C67.3925 60.764 67.1638 60.9761 66.9948 61.2479C66.829 61.5163 66.7462 61.8229 66.7462 62.1676V67H65.5729ZM73.7512 67.1591C73.0154 67.1591 72.3807 66.9967 71.847 66.6719C71.3167 66.3438 70.9074 65.8864 70.6191 65.2997C70.334 64.7098 70.1915 64.0237 70.1915 63.2415C70.1915 62.4593 70.334 61.7699 70.6191 61.1733C70.9074 60.5734 71.3084 60.1061 71.8222 59.7713C72.3392 59.4332 72.9424 59.2642 73.6318 59.2642C74.0296 59.2642 74.4223 59.3305 74.8101 59.4631C75.1979 59.5956 75.5509 59.8111 75.8691 60.1094C76.1872 60.4044 76.4408 60.7955 76.6297 61.2827C76.8186 61.7699 76.9131 62.3698 76.9131 63.0824V63.5795H71.0267V62.5653H75.7199C75.7199 62.1345 75.6337 61.75 75.4614 61.4119C75.2923 61.0739 75.0504 60.8071 74.7355 60.6115C74.424 60.416 74.0561 60.3182 73.6318 60.3182C73.1645 60.3182 72.7602 60.4342 72.4188 60.6662C72.0807 60.8949 71.8205 61.1932 71.6382 61.5611C71.4559 61.929 71.3648 62.3234 71.3648 62.7443V63.4205C71.3648 63.9972 71.4642 64.486 71.6631 64.8871C71.8653 65.2848 72.1453 65.5881 72.5033 65.7969C72.8612 66.0024 73.2772 66.1051 73.7512 66.1051C74.0594 66.1051 74.3378 66.062 74.5864 65.9759C74.8383 65.8864 75.0554 65.7538 75.2377 65.5781C75.42 65.3991 75.5608 65.1771 75.6602 64.9119L76.7938 65.2301C76.6744 65.6146 76.4739 65.9527 76.1922 66.2443C75.9105 66.5327 75.5625 66.758 75.1482 66.9205C74.7339 67.0795 74.2682 67.1591 73.7512 67.1591ZM84.107 61.0739L83.053 61.3722C82.9867 61.1965 82.8889 61.0258 82.7597 60.8601C82.6337 60.6911 82.4614 60.5518 82.2426 60.4425C82.0239 60.3331 81.7438 60.2784 81.4024 60.2784C80.9351 60.2784 80.5457 60.3861 80.2341 60.6016C79.9259 60.8137 79.7718 61.0838 79.7718 61.4119C79.7718 61.7036 79.8778 61.9339 80.0899 62.103C80.3021 62.272 80.6335 62.4129 81.0843 62.5256L82.2178 62.804C82.9005 62.9697 83.4093 63.2232 83.7441 63.5646C84.0788 63.9027 84.2462 64.3385 84.2462 64.8722C84.2462 65.3097 84.1202 65.7008 83.8683 66.0455C83.6198 66.3902 83.2718 66.6619 82.8243 66.8608C82.3769 67.0597 81.8565 67.1591 81.2632 67.1591C80.4843 67.1591 79.8397 66.9901 79.3293 66.652C78.8189 66.3139 78.4957 65.8201 78.3598 65.1705L79.4735 64.892C79.5795 65.303 79.78 65.6113 80.075 65.8168C80.3733 66.0223 80.7628 66.125 81.2433 66.125C81.7902 66.125 82.2244 66.009 82.5459 65.777C82.8707 65.5417 83.0331 65.2599 83.0331 64.9318C83.0331 64.6667 82.9403 64.4446 82.7547 64.2656C82.5691 64.0833 82.2841 63.9474 81.8996 63.858L80.6269 63.5597C79.9275 63.3939 79.4138 63.1371 79.0857 62.7891C78.7609 62.4377 78.5985 61.9986 78.5985 61.4716C78.5985 61.0407 78.7194 60.6596 78.9614 60.3281C79.2066 59.9967 79.5397 59.7365 79.9607 59.5476C80.3849 59.3587 80.8655 59.2642 81.4024 59.2642C82.1581 59.2642 82.7514 59.4299 83.1823 59.7614C83.6164 60.0928 83.9247 60.5303 84.107 61.0739ZM89.3334 59.3636V60.358H85.376V59.3636H89.3334ZM86.5294 57.5341H87.7027V64.8125C87.7027 65.1439 87.7507 65.3925 87.8469 65.5582C87.9463 65.7206 88.0722 65.83 88.2247 65.8864C88.3805 65.9394 88.5445 65.9659 88.7169 65.9659C88.8461 65.9659 88.9522 65.9593 89.0351 65.946C89.1179 65.9295 89.1842 65.9162 89.2339 65.9062L89.4726 66.9602C89.393 66.9901 89.282 67.0199 89.1395 67.0497C88.997 67.0829 88.8163 67.0994 88.5976 67.0994C88.2661 67.0994 87.9413 67.0282 87.6231 66.8857C87.3083 66.7431 87.0464 66.526 86.8376 66.2344C86.6321 65.9427 86.5294 65.5748 86.5294 65.1307V57.5341ZM95.0358 67V59.3636H96.1693V60.517H96.2488C96.3881 60.1392 96.6399 59.8326 97.0045 59.5973C97.3691 59.362 97.7801 59.2443 98.2375 59.2443C98.3237 59.2443 98.4314 59.246 98.5606 59.2493C98.6899 59.2526 98.7877 59.2576 98.854 59.2642V60.4574C98.8142 60.4474 98.723 60.4325 98.5805 60.4126C98.4413 60.3894 98.2938 60.3778 98.1381 60.3778C97.7668 60.3778 97.4354 60.4557 97.1437 60.6115C96.8554 60.764 96.6267 60.9761 96.4577 61.2479C96.2919 61.5163 96.2091 61.8229 96.2091 62.1676V67H95.0358ZM102.492 67.179C102.008 67.179 101.569 67.0878 101.174 66.9055C100.78 66.7199 100.467 66.4531 100.235 66.1051C100.003 65.7538 99.8868 65.3295 99.8868 64.8324C99.8868 64.3949 99.973 64.0402 100.145 63.7685C100.318 63.4934 100.548 63.2779 100.836 63.1222C101.125 62.9664 101.443 62.8504 101.791 62.7741C102.142 62.6946 102.495 62.6316 102.85 62.5852C103.314 62.5256 103.69 62.4808 103.978 62.451C104.27 62.4179 104.482 62.3632 104.615 62.2869C104.751 62.2107 104.819 62.0781 104.819 61.8892V61.8494C104.819 61.3589 104.684 60.9777 104.416 60.706C104.151 60.4342 103.748 60.2983 103.208 60.2983C102.648 60.2983 102.209 60.4209 101.89 60.6662C101.572 60.9115 101.348 61.1733 101.219 61.4517L100.106 61.054C100.304 60.59 100.57 60.2287 100.901 59.9702C101.236 59.7083 101.6 59.526 101.995 59.4233C102.392 59.3172 102.784 59.2642 103.168 59.2642C103.413 59.2642 103.695 59.294 104.013 59.3537C104.335 59.41 104.645 59.5277 104.943 59.7067C105.245 59.8857 105.495 60.1558 105.694 60.517C105.892 60.8783 105.992 61.3622 105.992 61.9688V67H104.819V65.9659H104.759C104.679 66.1316 104.547 66.3089 104.361 66.4979C104.176 66.6868 103.929 66.8475 103.62 66.9801C103.312 67.1127 102.936 67.179 102.492 67.179ZM102.671 66.125C103.135 66.125 103.526 66.0339 103.844 65.8516C104.166 65.6693 104.408 65.4339 104.57 65.1456C104.736 64.8572 104.819 64.554 104.819 64.2358V63.1619C104.769 63.2216 104.66 63.2763 104.491 63.326C104.325 63.3724 104.133 63.4138 103.914 63.4503C103.698 63.4834 103.488 63.5133 103.282 63.5398C103.08 63.563 102.916 63.5829 102.79 63.5994C102.485 63.6392 102.2 63.7038 101.935 63.7933C101.673 63.8795 101.461 64.0104 101.299 64.1861C101.14 64.3584 101.06 64.5937 101.06 64.892C101.06 65.2997 101.211 65.608 101.513 65.8168C101.817 66.0223 102.204 66.125 102.671 66.125ZM111.454 59.3636V60.358H107.497V59.3636H111.454ZM108.65 57.5341H109.824V64.8125C109.824 65.1439 109.872 65.3925 109.968 65.5582C110.067 65.7206 110.193 65.83 110.346 65.8864C110.502 65.9394 110.666 65.9659 110.838 65.9659C110.967 65.9659 111.073 65.9593 111.156 65.946C111.239 65.9295 111.305 65.9162 111.355 65.9062L111.594 66.9602C111.514 66.9901 111.403 67.0199 111.261 67.0497C111.118 67.0829 110.937 67.0994 110.719 67.0994C110.387 67.0994 110.062 67.0282 109.744 66.8857C109.429 66.7431 109.168 66.526 108.959 66.2344C108.753 65.9427 108.65 65.5748 108.65 65.1307V57.5341ZM116.339 67.1591C115.603 67.1591 114.969 66.9967 114.435 66.6719C113.905 66.3438 113.495 65.8864 113.207 65.2997C112.922 64.7098 112.779 64.0237 112.779 63.2415C112.779 62.4593 112.922 61.7699 113.207 61.1733C113.495 60.5734 113.896 60.1061 114.41 59.7713C114.927 59.4332 115.53 59.2642 116.22 59.2642C116.617 59.2642 117.01 59.3305 117.398 59.4631C117.786 59.5956 118.139 59.8111 118.457 60.1094C118.775 60.4044 119.029 60.7955 119.218 61.2827C119.407 61.7699 119.501 62.3698 119.501 63.0824V63.5795H113.615V62.5653H118.308C118.308 62.1345 118.222 61.75 118.049 61.4119C117.88 61.0739 117.638 60.8071 117.323 60.6115C117.012 60.416 116.644 60.3182 116.22 60.3182C115.752 60.3182 115.348 60.4342 115.007 60.6662C114.669 60.8949 114.408 61.1932 114.226 61.5611C114.044 61.929 113.953 62.3234 113.953 62.7443V63.4205C113.953 63.9972 114.052 64.486 114.251 64.8871C114.453 65.2848 114.733 65.5881 115.091 65.7969C115.449 66.0024 115.865 66.1051 116.339 66.1051C116.647 66.1051 116.926 66.062 117.174 65.9759C117.426 65.8864 117.643 65.7538 117.826 65.5781C118.008 65.3991 118.149 65.1771 118.248 64.9119L119.382 65.2301C119.262 65.6146 119.062 65.9527 118.78 66.2443C118.498 66.5327 118.15 66.758 117.736 66.9205C117.322 67.0795 116.856 67.1591 116.339 67.1591ZM126.695 61.0739L125.641 61.3722C125.575 61.1965 125.477 61.0258 125.348 60.8601C125.222 60.6911 125.049 60.5518 124.831 60.4425C124.612 60.3331 124.332 60.2784 123.99 60.2784C123.523 60.2784 123.134 60.3861 122.822 60.6016C122.514 60.8137 122.36 61.0838 122.36 61.4119C122.36 61.7036 122.466 61.9339 122.678 62.103C122.89 62.272 123.221 62.4129 123.672 62.5256L124.806 62.804C125.488 62.9697 125.997 63.2232 126.332 63.5646C126.667 63.9027 126.834 64.3385 126.834 64.8722C126.834 65.3097 126.708 65.7008 126.456 66.0455C126.208 66.3902 125.86 66.6619 125.412 66.8608C124.965 67.0597 124.444 67.1591 123.851 67.1591C123.072 67.1591 122.428 66.9901 121.917 66.652C121.407 66.3139 121.084 65.8201 120.948 65.1705L122.061 64.892C122.167 65.303 122.368 65.6113 122.663 65.8168C122.961 66.0223 123.351 66.125 123.831 66.125C124.378 66.125 124.812 66.009 125.134 65.777C125.459 65.5417 125.621 65.2599 125.621 64.9318C125.621 64.6667 125.528 64.4446 125.343 64.2656C125.157 64.0833 124.872 63.9474 124.487 63.858L123.215 63.5597C122.515 63.3939 122.002 63.1371 121.674 62.7891C121.349 62.4377 121.186 61.9986 121.186 61.4716C121.186 61.0407 121.307 60.6596 121.549 60.3281C121.795 59.9967 122.128 59.7365 122.549 59.5476C122.973 59.3587 123.453 59.2642 123.99 59.2642C124.746 59.2642 125.339 59.4299 125.77 59.7614C126.204 60.0928 126.513 60.5303 126.695 61.0739ZM130.35 65.608L130.271 66.1449C130.214 66.5227 130.128 66.9271 130.012 67.358C129.899 67.7888 129.782 68.1948 129.659 68.576C129.537 68.9571 129.435 69.2604 129.356 69.4858H128.461C128.504 69.2737 128.56 68.9936 128.63 68.6456C128.7 68.2976 128.769 67.9081 128.839 67.4773C128.912 67.0497 128.971 66.6122 129.018 66.1648L129.078 65.608H130.35ZM137.635 56.8182V67H136.462V56.8182H137.635ZM142.886 67.1591C142.197 67.1591 141.592 66.995 141.071 66.6669C140.554 66.3388 140.15 65.8797 139.858 65.2898C139.57 64.6998 139.426 64.0104 139.426 63.2216C139.426 62.4261 139.57 61.7318 139.858 61.1385C140.15 60.5452 140.554 60.0845 141.071 59.7564C141.592 59.4283 142.197 59.2642 142.886 59.2642C143.575 59.2642 144.179 59.4283 144.696 59.7564C145.216 60.0845 145.62 60.5452 145.909 61.1385C146.2 61.7318 146.346 62.4261 146.346 63.2216C146.346 64.0104 146.2 64.6998 145.909 65.2898C145.62 65.8797 145.216 66.3388 144.696 66.6669C144.179 66.995 143.575 67.1591 142.886 67.1591ZM142.886 66.1051C143.41 66.1051 143.841 65.9709 144.179 65.7024C144.517 65.4339 144.767 65.081 144.929 64.6435C145.092 64.206 145.173 63.732 145.173 63.2216C145.173 62.7112 145.092 62.2356 144.929 61.7947C144.767 61.3539 144.517 60.9976 144.179 60.7259C143.841 60.4541 143.41 60.3182 142.886 60.3182C142.362 60.3182 141.932 60.4541 141.593 60.7259C141.255 60.9976 141.005 61.3539 140.843 61.7947C140.68 62.2356 140.599 62.7112 140.599 63.2216C140.599 63.732 140.68 64.206 140.843 64.6435C141.005 65.081 141.255 65.4339 141.593 65.7024C141.932 65.9709 142.362 66.1051 142.886 66.1051ZM149.311 62.4062V67H148.137V59.3636H149.271V60.5568H149.37C149.549 60.169 149.821 59.8575 150.186 59.6222C150.55 59.3835 151.021 59.2642 151.598 59.2642C152.115 59.2642 152.567 59.3703 152.955 59.5824C153.343 59.7912 153.644 60.1094 153.86 60.5369C154.075 60.9612 154.183 61.4981 154.183 62.1477V67H153.009V62.2273C153.009 61.6274 152.854 61.16 152.542 60.8253C152.231 60.4872 151.803 60.3182 151.259 60.3182C150.885 60.3182 150.55 60.3994 150.255 60.5618C149.964 60.7242 149.733 60.9612 149.564 61.2727C149.395 61.5843 149.311 61.9621 149.311 62.4062ZM159.409 70.0227C158.842 70.0227 158.355 69.9498 157.948 69.804C157.54 69.6615 157.2 69.4725 156.928 69.2372C156.66 69.0052 156.446 68.7566 156.287 68.4915L157.222 67.8352C157.328 67.9744 157.462 68.1335 157.624 68.3125C157.787 68.4948 158.009 68.6522 158.291 68.7848C158.576 68.9207 158.948 68.9886 159.409 68.9886C160.026 68.9886 160.534 68.8395 160.935 68.5412C161.337 68.2429 161.537 67.7756 161.537 67.1392V65.5881H161.438C161.351 65.7273 161.229 65.8996 161.07 66.1051C160.914 66.3073 160.689 66.4879 160.394 66.647C160.102 66.8028 159.707 66.8807 159.21 66.8807C158.594 66.8807 158.04 66.7348 157.55 66.4432C157.063 66.1515 156.676 65.7273 156.391 65.1705C156.11 64.6136 155.969 63.9375 155.969 63.142C155.969 62.3598 156.106 61.6787 156.381 61.0987C156.657 60.5154 157.039 60.0646 157.53 59.7464C158.02 59.425 158.587 59.2642 159.23 59.2642C159.727 59.2642 160.122 59.3471 160.413 59.5128C160.708 59.6752 160.934 59.8608 161.09 60.0696C161.249 60.2751 161.371 60.4441 161.457 60.5767H161.577V59.3636H162.71V67.2188C162.71 67.875 162.561 68.4086 162.263 68.8196C161.968 69.2339 161.57 69.5372 161.07 69.7294C160.573 69.925 160.019 70.0227 159.409 70.0227ZM159.369 65.8267C159.84 65.8267 160.238 65.719 160.563 65.5036C160.887 65.2881 161.134 64.9782 161.303 64.5739C161.472 64.1695 161.557 63.6856 161.557 63.1222C161.557 62.572 161.474 62.0864 161.308 61.6655C161.143 61.2446 160.897 60.9148 160.573 60.6761C160.248 60.4375 159.847 60.3182 159.369 60.3182C158.872 60.3182 158.458 60.4441 158.127 60.696C157.798 60.9479 157.551 61.286 157.386 61.7102C157.223 62.1345 157.142 62.6051 157.142 63.1222C157.142 63.6525 157.225 64.1214 157.391 64.5291C157.56 64.9335 157.808 65.2517 158.136 65.4837C158.468 65.7124 158.879 65.8267 159.369 65.8267ZM168.06 67.1591C167.324 67.1591 166.689 66.9967 166.156 66.6719C165.625 66.3438 165.216 65.8864 164.928 65.2997C164.643 64.7098 164.5 64.0237 164.5 63.2415C164.5 62.4593 164.643 61.7699 164.928 61.1733C165.216 60.5734 165.617 60.1061 166.131 59.7713C166.648 59.4332 167.251 59.2642 167.94 59.2642C168.338 59.2642 168.731 59.3305 169.119 59.4631C169.506 59.5956 169.859 59.8111 170.178 60.1094C170.496 60.4044 170.749 60.7955 170.938 61.2827C171.127 61.7699 171.222 62.3698 171.222 63.0824V63.5795H165.335V62.5653H170.028C170.028 62.1345 169.942 61.75 169.77 61.4119C169.601 61.0739 169.359 60.8071 169.044 60.6115C168.733 60.416 168.365 60.3182 167.94 60.3182C167.473 60.3182 167.069 60.4342 166.727 60.6662C166.389 60.8949 166.129 61.1932 165.947 61.5611C165.765 61.929 165.673 62.3234 165.673 62.7443V63.4205C165.673 63.9972 165.773 64.486 165.972 64.8871C166.174 65.2848 166.454 65.5881 166.812 65.7969C167.17 66.0024 167.586 66.1051 168.06 66.1051C168.368 66.1051 168.646 66.062 168.895 65.9759C169.147 65.8864 169.364 65.7538 169.546 65.5781C169.729 65.3991 169.869 65.1771 169.969 64.9119L171.102 65.2301C170.983 65.6146 170.783 65.9527 170.501 66.2443C170.219 66.5327 169.871 66.758 169.457 66.9205C169.042 67.0795 168.577 67.1591 168.06 67.1591ZM173.006 67V59.3636H174.14V60.517H174.22C174.359 60.1392 174.611 59.8326 174.975 59.5973C175.34 59.362 175.751 59.2443 176.208 59.2443C176.294 59.2443 176.402 59.246 176.531 59.2493C176.661 59.2526 176.758 59.2576 176.825 59.2642V60.4574C176.785 60.4474 176.694 60.4325 176.551 60.4126C176.412 60.3894 176.265 60.3778 176.109 60.3778C175.738 60.3778 175.406 60.4557 175.114 60.6115C174.826 60.764 174.597 60.9761 174.428 61.2479C174.263 61.5163 174.18 61.8229 174.18 62.1676V67H173.006ZM185.474 59.3636V60.358H181.517V59.3636H185.474ZM182.67 57.5341H183.843V64.8125C183.843 65.1439 183.891 65.3925 183.987 65.5582C184.087 65.7206 184.213 65.83 184.365 65.8864C184.521 65.9394 184.685 65.9659 184.858 65.9659C184.987 65.9659 185.093 65.9593 185.176 65.946C185.259 65.9295 185.325 65.9162 185.375 65.9062L185.613 66.9602C185.534 66.9901 185.423 67.0199 185.28 67.0497C185.138 67.0829 184.957 67.0994 184.738 67.0994C184.407 67.0994 184.082 67.0282 183.764 66.8857C183.449 66.7431 183.187 66.526 182.978 66.2344C182.773 65.9427 182.67 65.5748 182.67 65.1307V57.5341ZM190.359 67.1591C189.623 67.1591 188.988 66.9967 188.454 66.6719C187.924 66.3438 187.515 65.8864 187.226 65.2997C186.941 64.7098 186.799 64.0237 186.799 63.2415C186.799 62.4593 186.941 61.7699 187.226 61.1733C187.515 60.5734 187.916 60.1061 188.43 59.7713C188.947 59.4332 189.55 59.2642 190.239 59.2642C190.637 59.2642 191.03 59.3305 191.418 59.4631C191.805 59.5956 192.158 59.8111 192.476 60.1094C192.795 60.4044 193.048 60.7955 193.237 61.2827C193.426 61.7699 193.521 62.3698 193.521 63.0824V63.5795H187.634V62.5653H192.327C192.327 62.1345 192.241 61.75 192.069 61.4119C191.9 61.0739 191.658 60.8071 191.343 60.6115C191.031 60.416 190.664 60.3182 190.239 60.3182C189.772 60.3182 189.368 60.4342 189.026 60.6662C188.688 60.8949 188.428 61.1932 188.246 61.5611C188.063 61.929 187.972 62.3234 187.972 62.7443V63.4205C187.972 63.9972 188.072 64.486 188.271 64.8871C188.473 65.2848 188.753 65.5881 189.111 65.7969C189.469 66.0024 189.885 66.1051 190.359 66.1051C190.667 66.1051 190.945 66.062 191.194 65.9759C191.446 65.8864 191.663 65.7538 191.845 65.5781C192.027 65.3991 192.168 65.1771 192.268 64.9119L193.401 65.2301C193.282 65.6146 193.081 65.9527 192.8 66.2443C192.518 66.5327 192.17 66.758 191.756 66.9205C191.341 67.0795 190.876 67.1591 190.359 67.1591ZM195.305 67V59.3636H196.439V60.517H196.518C196.658 60.1392 196.909 59.8326 197.274 59.5973C197.639 59.362 198.05 59.2443 198.507 59.2443C198.593 59.2443 198.701 59.246 198.83 59.2493C198.959 59.2526 199.057 59.2576 199.123 59.2642V60.4574C199.084 60.4474 198.993 60.4325 198.85 60.4126C198.711 60.3894 198.563 60.3778 198.408 60.3778C198.036 60.3778 197.705 60.4557 197.413 60.6115C197.125 60.764 196.896 60.9761 196.727 61.2479C196.561 61.5163 196.479 61.8229 196.479 62.1676V67H195.305ZM200.514 67V59.3636H201.648V60.5568H201.747C201.906 60.1491 202.163 59.8326 202.518 59.6072C202.872 59.3786 203.298 59.2642 203.796 59.2642C204.299 59.2642 204.719 59.3786 205.053 59.6072C205.391 59.8326 205.655 60.1491 205.844 60.5568H205.923C206.119 60.1624 206.412 59.8492 206.803 59.6172C207.194 59.3819 207.663 59.2642 208.21 59.2642C208.893 59.2642 209.452 59.478 209.886 59.9055C210.32 60.3298 210.537 60.991 210.537 61.8892V67H209.364V61.8892C209.364 61.3258 209.21 60.9231 208.901 60.6811C208.593 60.4392 208.23 60.3182 207.813 60.3182C207.276 60.3182 206.86 60.4806 206.565 60.8054C206.27 61.1269 206.122 61.5346 206.122 62.0284V67H204.929V61.7699C204.929 61.3357 204.788 60.986 204.506 60.7209C204.225 60.4524 203.862 60.3182 203.418 60.3182C203.113 60.3182 202.828 60.3994 202.563 60.5618C202.301 60.7242 202.089 60.9496 201.926 61.2379C201.767 61.523 201.688 61.8527 201.688 62.2273V67H200.514ZM218.091 61.0739L217.037 61.3722C216.971 61.1965 216.873 61.0258 216.744 60.8601C216.618 60.6911 216.446 60.5518 216.227 60.4425C216.008 60.3331 215.728 60.2784 215.387 60.2784C214.919 60.2784 214.53 60.3861 214.218 60.6016C213.91 60.8137 213.756 61.0838 213.756 61.4119C213.756 61.7036 213.862 61.9339 214.074 62.103C214.286 62.272 214.618 62.4129 215.069 62.5256L216.202 62.804C216.885 62.9697 217.394 63.2232 217.728 63.5646C218.063 63.9027 218.231 64.3385 218.231 64.8722C218.231 65.3097 218.105 65.7008 217.853 66.0455C217.604 66.3902 217.256 66.6619 216.809 66.8608C216.361 67.0597 215.841 67.1591 215.248 67.1591C214.469 67.1591 213.824 66.9901 213.314 66.652C212.803 66.3139 212.48 65.8201 212.344 65.1705L213.458 64.892C213.564 65.303 213.764 65.6113 214.059 65.8168C214.358 66.0223 214.747 66.125 215.228 66.125C215.775 66.125 216.209 66.009 216.53 65.777C216.855 65.5417 217.017 65.2599 217.017 64.9318C217.017 64.6667 216.925 64.4446 216.739 64.2656C216.553 64.0833 216.268 63.9474 215.884 63.858L214.611 63.5597C213.912 63.3939 213.398 63.1371 213.07 62.7891C212.745 62.4377 212.583 61.9986 212.583 61.4716C212.583 61.0407 212.704 60.6596 212.946 60.3281C213.191 59.9967 213.524 59.7365 213.945 59.5476C214.369 59.3587 214.85 59.2642 215.387 59.2642C216.142 59.2642 216.736 59.4299 217.167 59.7614C217.601 60.0928 217.909 60.5303 218.091 61.0739ZM221.747 65.608L221.667 66.1449C221.611 66.5227 221.525 66.9271 221.409 67.358C221.296 67.7888 221.178 68.1948 221.056 68.576C220.933 68.9571 220.832 69.2604 220.752 69.4858H219.858C219.901 69.2737 219.957 68.9936 220.027 68.6456C220.096 68.2976 220.166 67.9081 220.235 67.4773C220.308 67.0497 220.368 66.6122 220.414 66.1648L220.474 65.608H221.747ZM227.858 67V59.3636H228.992V60.5568H229.091C229.25 60.1491 229.507 59.8326 229.862 59.6072C230.216 59.3786 230.642 59.2642 231.139 59.2642C231.643 59.2642 232.062 59.3786 232.397 59.6072C232.735 59.8326 232.999 60.1491 233.188 60.5568H233.267C233.463 60.1624 233.756 59.8492 234.147 59.6172C234.538 59.3819 235.007 59.2642 235.554 59.2642C236.237 59.2642 236.795 59.478 237.229 59.9055C237.664 60.3298 237.881 60.991 237.881 61.8892V67H236.707V61.8892C236.707 61.3258 236.553 60.9231 236.245 60.6811C235.937 60.4392 235.574 60.3182 235.156 60.3182C234.619 60.3182 234.203 60.4806 233.908 60.8054C233.613 61.1269 233.466 61.5346 233.466 62.0284V67H232.273V61.7699C232.273 61.3357 232.132 60.986 231.85 60.7209C231.569 60.4524 231.206 60.3182 230.761 60.3182C230.457 60.3182 230.171 60.3994 229.906 60.5618C229.645 60.7242 229.432 60.9496 229.27 61.2379C229.111 61.523 229.031 61.8527 229.031 62.2273V67H227.858ZM243.128 67.1591C242.439 67.1591 241.834 66.995 241.314 66.6669C240.797 66.3388 240.392 65.8797 240.101 65.2898C239.812 64.6998 239.668 64.0104 239.668 63.2216C239.668 62.4261 239.812 61.7318 240.101 61.1385C240.392 60.5452 240.797 60.0845 241.314 59.7564C241.834 59.4283 242.439 59.2642 243.128 59.2642C243.818 59.2642 244.421 59.4283 244.938 59.7564C245.458 60.0845 245.863 60.5452 246.151 61.1385C246.443 61.7318 246.589 62.4261 246.589 63.2216C246.589 64.0104 246.443 64.6998 246.151 65.2898C245.863 65.8797 245.458 66.3388 244.938 66.6669C244.421 66.995 243.818 67.1591 243.128 67.1591ZM243.128 66.1051C243.652 66.1051 244.083 65.9709 244.421 65.7024C244.759 65.4339 245.009 65.081 245.172 64.6435C245.334 64.206 245.415 63.732 245.415 63.2216C245.415 62.7112 245.334 62.2356 245.172 61.7947C245.009 61.3539 244.759 60.9976 244.421 60.7259C244.083 60.4541 243.652 60.3182 243.128 60.3182C242.605 60.3182 242.174 60.4541 241.836 60.7259C241.498 60.9976 241.247 61.3539 241.085 61.7947C240.923 62.2356 240.841 62.7112 240.841 63.2216C240.841 63.732 240.923 64.206 241.085 64.6435C241.247 65.081 241.498 65.4339 241.836 65.7024C242.174 65.9709 242.605 66.1051 243.128 66.1051ZM248.38 67V59.3636H249.513V60.517H249.593C249.732 60.1392 249.984 59.8326 250.348 59.5973C250.713 59.362 251.124 59.2443 251.581 59.2443C251.667 59.2443 251.775 59.246 251.904 59.2493C252.034 59.2526 252.131 59.2576 252.198 59.2642V60.4574C252.158 60.4474 252.067 60.4325 251.924 60.4126C251.785 60.3894 251.638 60.3778 251.482 60.3778C251.111 60.3778 250.779 60.4557 250.487 60.6115C250.199 60.764 249.97 60.9761 249.801 61.2479C249.636 61.5163 249.553 61.8229 249.553 62.1676V67H248.38ZM256.558 67.1591C255.822 67.1591 255.187 66.9967 254.654 66.6719C254.123 66.3438 253.714 65.8864 253.426 65.2997C253.141 64.7098 252.998 64.0237 252.998 63.2415C252.998 62.4593 253.141 61.7699 253.426 61.1733C253.714 60.5734 254.115 60.1061 254.629 59.7713C255.146 59.4332 255.749 59.2642 256.438 59.2642C256.836 59.2642 257.229 59.3305 257.617 59.4631C258.005 59.5956 258.358 59.8111 258.676 60.1094C258.994 60.4044 259.247 60.7955 259.436 61.2827C259.625 61.7699 259.72 62.3698 259.72 63.0824V63.5795H253.833V62.5653H258.527C258.527 62.1345 258.44 61.75 258.268 61.4119C258.099 61.0739 257.857 60.8071 257.542 60.6115C257.231 60.416 256.863 60.3182 256.438 60.3182C255.971 60.3182 255.567 60.4342 255.225 60.6662C254.887 60.8949 254.627 61.1932 254.445 61.5611C254.263 61.929 254.171 62.3234 254.171 62.7443V63.4205C254.171 63.9972 254.271 64.486 254.47 64.8871C254.672 65.2848 254.952 65.5881 255.31 65.7969C255.668 66.0024 256.084 66.1051 256.558 66.1051C256.866 66.1051 257.144 66.062 257.393 65.9759C257.645 65.8864 257.862 65.7538 258.044 65.5781C258.227 65.3991 258.367 65.1771 258.467 64.9119L259.6 65.2301C259.481 65.6146 259.281 65.9527 258.999 66.2443C258.717 66.5327 258.369 66.758 257.955 66.9205C257.541 67.0795 257.075 67.1591 256.558 67.1591ZM265.442 67V59.3636H266.576V60.5568H266.675C266.834 60.1491 267.091 59.8326 267.446 59.6072C267.8 59.3786 268.226 59.2642 268.723 59.2642C269.227 59.2642 269.646 59.3786 269.981 59.6072C270.319 59.8326 270.583 60.1491 270.772 60.5568H270.851C271.047 60.1624 271.34 59.8492 271.731 59.6172C272.122 59.3819 272.591 59.2642 273.138 59.2642C273.821 59.2642 274.379 59.478 274.813 59.9055C275.248 60.3298 275.465 60.991 275.465 61.8892V67H274.291V61.8892C274.291 61.3258 274.137 60.9231 273.829 60.6811C273.521 60.4392 273.158 60.3182 272.74 60.3182C272.203 60.3182 271.787 60.4806 271.492 60.8054C271.197 61.1269 271.05 61.5346 271.05 62.0284V67H269.857V61.7699C269.857 61.3357 269.716 60.986 269.434 60.7209C269.152 60.4524 268.79 60.3182 268.345 60.3182C268.041 60.3182 267.755 60.3994 267.49 60.5618C267.228 60.7242 267.016 60.9496 266.854 61.2379C266.695 61.523 266.615 61.8527 266.615 62.2273V67H265.442ZM280.712 67.1591C280.023 67.1591 279.418 66.995 278.898 66.6669C278.381 66.3388 277.976 65.8797 277.685 65.2898C277.396 64.6998 277.252 64.0104 277.252 63.2216C277.252 62.4261 277.396 61.7318 277.685 61.1385C277.976 60.5452 278.381 60.0845 278.898 59.7564C279.418 59.4283 280.023 59.2642 280.712 59.2642C281.402 59.2642 282.005 59.4283 282.522 59.7564C283.042 60.0845 283.447 60.5452 283.735 61.1385C284.027 61.7318 284.172 62.4261 284.172 63.2216C284.172 64.0104 284.027 64.6998 283.735 65.2898C283.447 65.8797 283.042 66.3388 282.522 66.6669C282.005 66.995 281.402 67.1591 280.712 67.1591ZM280.712 66.1051C281.236 66.1051 281.667 65.9709 282.005 65.7024C282.343 65.4339 282.593 65.081 282.756 64.6435C282.918 64.206 282.999 63.732 282.999 63.2216C282.999 62.7112 282.918 62.2356 282.756 61.7947C282.593 61.3539 282.343 60.9976 282.005 60.7259C281.667 60.4541 281.236 60.3182 280.712 60.3182C280.189 60.3182 279.758 60.4541 279.42 60.7259C279.082 60.9976 278.831 61.3539 278.669 61.7947C278.507 62.2356 278.425 62.7112 278.425 63.2216C278.425 63.732 278.507 64.206 278.669 64.6435C278.831 65.081 279.082 65.4339 279.42 65.7024C279.758 65.9709 280.189 66.1051 280.712 66.1051ZM287.137 62.4062V67H285.964V59.3636H287.097V60.5568H287.196C287.375 60.169 287.647 59.8575 288.012 59.6222C288.376 59.3835 288.847 59.2642 289.424 59.2642C289.941 59.2642 290.393 59.3703 290.781 59.5824C291.169 59.7912 291.47 60.1094 291.686 60.5369C291.901 60.9612 292.009 61.4981 292.009 62.1477V67H290.836V62.2273C290.836 61.6274 290.68 61.16 290.368 60.8253C290.057 60.4872 289.629 60.3182 289.086 60.3182C288.711 60.3182 288.376 60.3994 288.081 60.5618C287.79 60.7242 287.559 60.9612 287.39 61.2727C287.221 61.5843 287.137 61.9621 287.137 62.4062ZM297.355 67.1591C296.619 67.1591 295.984 66.9967 295.451 66.6719C294.92 66.3438 294.511 65.8864 294.223 65.2997C293.938 64.7098 293.795 64.0237 293.795 63.2415C293.795 62.4593 293.938 61.7699 294.223 61.1733C294.511 60.5734 294.912 60.1061 295.426 59.7713C295.943 59.4332 296.546 59.2642 297.235 59.2642C297.633 59.2642 298.026 59.3305 298.414 59.4631C298.801 59.5956 299.154 59.8111 299.473 60.1094C299.791 60.4044 300.044 60.7955 300.233 61.2827C300.422 61.7699 300.517 62.3698 300.517 63.0824V63.5795H294.63V62.5653H299.323C299.323 62.1345 299.237 61.75 299.065 61.4119C298.896 61.0739 298.654 60.8071 298.339 60.6115C298.027 60.416 297.66 60.3182 297.235 60.3182C296.768 60.3182 296.364 60.4342 296.022 60.6662C295.684 60.8949 295.424 61.1932 295.242 61.5611C295.059 61.929 294.968 62.3234 294.968 62.7443V63.4205C294.968 63.9972 295.068 64.486 295.267 64.8871C295.469 65.2848 295.749 65.5881 296.107 65.7969C296.465 66.0024 296.881 66.1051 297.355 66.1051C297.663 66.1051 297.941 66.062 298.19 65.9759C298.442 65.8864 298.659 65.7538 298.841 65.5781C299.023 65.3991 299.164 65.1771 299.264 64.9119L300.397 65.2301C300.278 65.6146 300.077 65.9527 299.796 66.2443C299.514 66.5327 299.166 66.758 298.752 66.9205C298.337 67.0795 297.872 67.1591 297.355 67.1591ZM302.825 69.8636C302.626 69.8636 302.448 69.8471 302.293 69.8139C302.137 69.7841 302.029 69.7543 301.97 69.7244L302.268 68.6903C302.553 68.7633 302.805 68.7898 303.024 68.7699C303.242 68.75 303.436 68.6522 303.605 68.4766C303.778 68.3042 303.935 68.0241 304.078 67.6364L304.296 67.0398L301.472 59.3636H302.745L304.853 65.4489H304.933L307.041 59.3636H308.313L305.072 68.1136C304.926 68.508 304.745 68.8345 304.53 69.093C304.314 69.3549 304.064 69.5488 303.779 69.6747C303.497 69.8007 303.179 69.8636 302.825 69.8636ZM310.239 67.0795C309.993 67.0795 309.783 66.9917 309.607 66.8161C309.431 66.6404 309.344 66.4299 309.344 66.1847C309.344 65.9394 309.431 65.7289 309.607 65.5533C309.783 65.3776 309.993 65.2898 310.239 65.2898C310.484 65.2898 310.694 65.3776 310.87 65.5533C311.046 65.7289 311.133 65.9394 311.133 66.1847C311.133 66.3471 311.092 66.4962 311.009 66.6321C310.93 66.768 310.822 66.8774 310.686 66.9602C310.553 67.0398 310.404 67.0795 310.239 67.0795Z" fill="#475467"/>
</svg>
