<svg width="352" height="208" viewBox="0 0 352 208" fill="none" xmlns="http://www.w3.org/2000/svg">
<g clip-path="url(#clip0_5_219)">
<path d="M110.323 102.334C108.808 100.828 106.799 99.9202 104.668 99.7798C102.536 99.6393 100.425 100.276 98.726 101.571C97.0267 102.866 95.8539 104.732 95.4238 106.825C94.9944 108.918 95.3364 111.095 96.3879 112.955C97.4613 112.269 99.9507 110.28 99.8219 111.238C99.6788 112.197 97.4183 114.129 97.4183 114.129C97.4304 114.224 97.4349 114.319 97.4327 114.415C98.213 115.309 99.1659 116.036 100.234 116.554C101.302 117.071 102.463 117.369 103.648 117.428C104.833 117.487 106.019 117.307 107.133 116.898C108.247 116.49 109.268 115.861 110.133 115.049C110.999 114.238 111.693 113.26 112.173 112.175C112.653 111.09 112.909 109.919 112.927 108.732C112.945 107.546 112.723 106.368 112.276 105.268C111.829 104.169 111.164 103.171 110.323 102.334Z" fill="#B8FFD4"/>
<path d="M90.1591 146.252C89.085 145.269 87.8926 144.423 86.6098 143.733C79.3411 139.768 71.846 136.231 64.1633 133.142C63.9463 132.34 63.7746 131.799 63.7746 131.799L55.6321 129.438C55.6321 129.438 46.0584 137.008 48.3912 143.791C49.6792 147.557 54.7734 152.592 71.9601 156.541C70.2027 165.479 67.9531 174.314 65.2216 183.005C65.8882 181.561 69.6988 180.706 74.207 181.212C79.0579 181.755 82.8361 183.516 82.6644 185.162L82.7209 185.233C83.7941 175.418 84.1611 165.537 83.8191 155.669L98.5404 177.43C97.7119 176.258 99.9249 172.89 103.557 169.822C107.248 166.702 110.998 165.085 111.943 166.187L112 166.215L90.1591 146.252Z" fill="#B8FFD4"/>
<path d="M145.555 140.871C145.231 140.34 144.756 139.917 144.192 139.656C143.628 139.394 142.999 139.306 142.384 139.403C141.77 139.499 141.198 139.775 140.741 140.197C140.283 140.618 139.961 141.166 139.815 141.77C139.669 142.374 139.706 143.008 139.92 143.592C140.134 144.176 140.517 144.684 141.019 145.05C141.522 145.416 142.121 145.625 142.743 145.65C143.364 145.676 143.979 145.516 144.51 145.192C144.862 144.977 145.17 144.695 145.413 144.362C145.657 144.028 145.832 143.649 145.929 143.248C146.026 142.846 146.043 142.43 145.979 142.022C145.915 141.614 145.77 141.223 145.555 140.871Z" fill="#E9E9E9"/>
<path d="M118.867 158.357C119.19 158.888 119.665 159.311 120.229 159.572C120.793 159.833 121.422 159.922 122.037 159.825C122.651 159.729 123.223 159.452 123.681 159.031C124.138 158.609 124.46 158.062 124.606 157.458C124.752 156.854 124.716 156.219 124.502 155.636C124.287 155.052 123.904 154.544 123.402 154.178C122.899 153.812 122.3 153.603 121.678 153.578C121.057 153.552 120.442 153.712 119.911 154.036C119.559 154.25 119.252 154.533 119.008 154.867C118.764 155.199 118.589 155.578 118.492 155.98C118.395 156.381 118.378 156.798 118.443 157.205C118.507 157.614 118.651 158.005 118.867 158.357Z" fill="#E9E9E9"/>
<path d="M138.6 90.3553C138.848 90.5925 139.16 90.7509 139.497 90.8105C139.836 90.8701 140.183 90.8282 140.497 90.6902C140.81 90.5521 141.076 90.324 141.261 90.0348C141.445 89.7456 141.539 89.4083 141.531 89.0655C141.524 88.7228 141.414 88.3901 141.217 88.1094C141.02 87.8287 140.745 87.6129 140.425 87.489C140.105 87.3651 139.756 87.3389 139.421 87.4136C139.087 87.4884 138.782 87.6607 138.545 87.9087C138.23 88.2413 138.059 88.685 138.069 89.1433C138.079 89.6016 138.27 90.0372 138.6 90.3553Z" fill="#E9E9E9"/>
<path d="M32.8765 92.0157C32.7342 92.238 32.6587 92.4962 32.6587 92.7599C32.6587 93.0237 32.7342 93.282 32.8765 93.5041C33.0126 93.6639 33.1849 93.7888 33.3791 93.8685C33.5733 93.9481 33.7837 93.9803 33.9928 93.9621L32.8765 92.0157Z" fill="#E9E9E9"/>
<path d="M39.5879 88.7249C39.4653 88.5386 39.2882 88.3946 39.0807 88.3127C38.8733 88.2307 38.6456 88.2148 38.4287 88.267C38.8151 88.8824 39.1872 89.5121 39.5879 90.1267C39.7055 89.9118 39.767 89.6708 39.767 89.4258C39.767 89.1809 39.7055 88.9398 39.5879 88.7249Z" fill="#E9E9E9"/>
<path d="M112.025 166.199C111.396 165.455 109.507 165.927 107.217 167.258L110.351 170.535C111.925 168.603 112.627 166.929 112.025 166.199Z" fill="#E9E9E9"/>
<path d="M100.836 172.553C98.9181 174.743 97.9879 176.704 98.6613 177.505C99.3475 178.32 101.537 177.677 104.099 176.045L100.836 172.553Z" fill="#E9E9E9"/>
<path d="M68.9377 97.3535C68.4633 96.8827 67.8403 96.5911 67.1749 96.5284C66.5094 96.4657 65.8429 96.636 65.289 97.01C64.2327 96.7728 63.1293 96.8627 62.1253 97.2676C61.8046 96.7313 61.3503 96.2872 60.8068 95.9788C60.2633 95.6703 59.6491 95.508 59.0241 95.5077C58.3991 95.5074 57.7848 95.6691 57.241 95.977C56.6971 96.2849 56.2424 96.7285 55.9211 97.2646C55.5998 97.8006 55.4229 98.4108 55.4078 99.0356C55.3927 99.6604 55.5397 100.278 55.8346 100.829C56.1295 101.38 56.5622 101.846 57.0905 102.179C57.6187 102.513 58.2245 102.705 58.8488 102.735C58.9767 103.947 59.517 105.078 60.3793 105.94C60.3793 105.94 63.0985 109.231 61.3955 110.891C61.9668 110.444 62.4315 109.876 62.7558 109.228C63.0802 108.579 63.2559 107.867 63.2703 107.142C63.2833 107 63.2587 106.856 63.1987 106.727C61.4535 104.738 63.2273 103.121 64.0002 104.509C64.3723 105.181 64.6156 105.181 64.7873 104.823C65.4456 103.05 68.4511 100.631 69.1802 103.794V103.779C69.2958 104.383 69.3486 104.996 69.3376 105.611C69.3376 105.253 69.3519 104.137 69.3519 103.078C69.4691 102.389 69.4496 101.684 69.2947 101.003C69.6702 100.448 69.84 99.7802 69.7748 99.1138C69.7097 98.4474 69.4135 97.8247 68.9377 97.3535Z" fill="#E9E9E9"/>
<path d="M82.7187 185.204C82.8482 184.088 81.1444 182.929 78.5397 182.116L77.9958 187.296C80.7007 187.079 82.5906 186.306 82.7187 185.204Z" fill="#E9E9E9"/>
<path d="M65.1459 183.243C65.0171 184.402 66.8784 185.633 69.6963 186.435L70.2989 181.112C67.3785 181.297 65.2891 182.084 65.1459 183.243Z" fill="#E9E9E9"/>
<path d="M118.781 176.875C114.883 178.179 110.799 178.841 106.689 178.833L108.549 180.836C113.978 182.757 119.816 183.216 125.479 182.167C123.421 180.192 121.178 178.419 118.781 176.875Z" fill="#E9E9E9"/>
<path d="M78.5965 198.053C75.2123 195.557 72.1123 192.697 69.352 189.524L69.0198 192.398C69.8785 194.788 71.6388 199.739 78.2643 205.881C78.9972 203.792 78.897 200.844 78.5965 198.053Z" fill="#E9E9E9"/>
<path d="M68.037 120.735C67.8744 121.843 67.634 122.939 67.3176 124.013C67.8945 124.44 68.5031 124.823 69.1382 125.158C68.7947 123.684 68.4083 121.938 68.037 120.735Z" fill="#E9E9E9"/>
<path d="M64.4163 109.774C64.6882 110.49 64.9435 111.233 65.1891 112.093C65.1597 111.565 65.2893 111.04 65.5612 110.586C65.1266 110.399 64.7365 110.122 64.4163 109.774Z" fill="#E9E9E9"/>
<path d="M71.9865 156.554L70.2405 165.069L73.5894 156.913L71.9865 156.554Z" fill="#E9E9E9"/>
<path d="M52.4683 115.944L53.6976 120.419L54.8274 117.815C54.8274 117.815 52.6001 116.046 52.4683 115.944Z" fill="#E9E9E9"/>
<path d="M84.8641 84.5885L77.752 82.7423L80.4282 72.4538L84.6064 70.9797L87.5403 74.3135L84.8641 84.5885Z" fill="#E9E9E9"/>
<path d="M118.437 79.1651C118.537 79.5388 118.522 79.9335 118.397 80.2992C118.272 80.665 118.041 80.9855 117.734 81.2201C117.426 81.4546 117.057 81.5928 116.671 81.6171C116.285 81.6414 115.9 81.5507 115.566 81.3565C115.232 81.1623 114.963 80.8734 114.792 80.5262C114.623 80.179 114.56 79.7892 114.611 79.406C114.662 79.0228 114.826 78.6635 115.082 78.3735C115.338 78.0835 115.674 77.8759 116.047 77.7769C116.548 77.6451 117.081 77.7172 117.529 77.9774C117.977 78.2376 118.303 78.6646 118.437 79.1651Z" stroke="black" stroke-width="0.564931" stroke-linecap="round" stroke-linejoin="round"/>
<path d="M124.576 82.67C124.675 83.0437 124.662 83.4384 124.536 83.8043C124.411 84.1701 124.18 84.4907 123.873 84.7253C123.566 84.96 123.196 85.0983 122.81 85.1227C122.424 85.1471 122.04 85.0565 121.705 84.8624C121.371 84.6683 121.102 84.3794 120.931 84.0322C120.761 83.685 120.698 83.2952 120.749 82.912C120.8 82.5287 120.965 82.1694 121.22 81.8794C121.476 81.5894 121.812 81.3816 122.186 81.2826C122.687 81.1508 123.219 81.2228 123.667 81.4829C124.115 81.7429 124.442 82.1697 124.576 82.67Z" stroke="black" stroke-width="0.564931" stroke-linecap="round" stroke-linejoin="round"/>
<path d="M116.434 86.8339L122.788 75.9149" stroke="black" stroke-width="0.564931" stroke-linecap="round" stroke-linejoin="round"/>
<path d="M145.554 140.87C145.23 140.339 144.756 139.917 144.192 139.655C143.628 139.394 142.999 139.306 142.384 139.402C141.77 139.499 141.198 139.775 140.74 140.196C140.283 140.618 139.961 141.166 139.815 141.77C139.669 142.374 139.705 143.008 139.919 143.592C140.134 144.175 140.517 144.683 141.019 145.049C141.522 145.415 142.121 145.625 142.743 145.65C143.364 145.675 143.979 145.515 144.51 145.192C144.862 144.977 145.169 144.694 145.413 144.362C145.657 144.028 145.832 143.649 145.929 143.247C146.026 142.846 146.043 142.429 145.978 142.022C145.914 141.614 145.77 141.223 145.554 140.87Z" stroke="black" stroke-width="0.564931" stroke-linecap="round" stroke-linejoin="round"/>
<path d="M118.865 158.357C119.189 158.888 119.664 159.31 120.228 159.572C120.792 159.833 121.421 159.921 122.036 159.825C122.65 159.728 123.222 159.452 123.679 159.031C124.137 158.609 124.459 158.061 124.605 157.457C124.751 156.853 124.714 156.219 124.5 155.635C124.286 155.051 123.903 154.544 123.401 154.178C122.898 153.812 122.299 153.602 121.677 153.577C121.056 153.552 120.441 153.711 119.91 154.035C119.558 154.25 119.25 154.532 119.007 154.866C118.763 155.199 118.588 155.578 118.491 155.979C118.394 156.381 118.377 156.797 118.441 157.205C118.505 157.613 118.65 158.004 118.865 158.357Z" stroke="black" stroke-width="0.564931" stroke-linecap="round" stroke-linejoin="round"/>
<path d="M140.245 144.346L124.332 155.265" stroke="black" stroke-width="0.564931" stroke-linecap="round" stroke-linejoin="round"/>
<path d="M142.406 139.41L133.434 94.8197L139.802 89.1101" stroke="black" stroke-width="0.564931" stroke-linecap="round" stroke-linejoin="round"/>
<path d="M140.703 130.911L109.163 148.126L92.2629 132.943L135.552 105.367L140.703 130.911Z" stroke="black" stroke-width="0.564931" stroke-linecap="round" stroke-linejoin="round"/>
<path d="M138.599 90.3548C138.847 90.592 139.159 90.7504 139.496 90.8101C139.834 90.8696 140.182 90.8278 140.496 90.6897C140.809 90.5516 141.075 90.3235 141.26 90.0343C141.443 89.7451 141.537 89.4078 141.53 89.065C141.522 88.7223 141.413 88.3896 141.216 88.1089C141.019 87.8283 140.744 87.6124 140.423 87.4886C140.104 87.3647 139.755 87.3385 139.42 87.4132C139.086 87.4879 138.781 87.6602 138.544 87.9083C138.228 88.2408 138.058 88.6846 138.067 89.1428C138.078 89.6012 138.269 90.0368 138.599 90.3548Z" stroke="black" stroke-width="0.564931" stroke-linecap="round" stroke-linejoin="round"/>
<path d="M92.9067 121.291C93.208 121.191 98.4054 119.465 101.252 116.985" stroke="black" stroke-width="0.564931" stroke-linecap="round" stroke-linejoin="round"/>
<path d="M99.7336 117.444C99.7087 117.024 99.647 116.607 99.5505 116.197" stroke="black" stroke-width="0.564931" stroke-linecap="round" stroke-linejoin="round"/>
<path d="M97.4306 114.41C97.5594 114.567 97.698 114.711 97.8457 114.868C99.4335 116.449 101.562 117.369 103.802 117.442C106.042 117.515 108.226 116.734 109.913 115.259C111.6 113.783 112.664 111.723 112.89 109.493C113.117 107.263 112.489 105.031 111.132 103.247C109.776 101.462 107.794 100.259 105.584 99.8804C103.376 99.5015 101.105 99.9751 99.2324 101.205C97.3591 102.436 96.0221 104.331 95.4925 106.509C94.963 108.686 95.2794 110.984 96.3783 112.937" stroke="black" stroke-width="0.564931" stroke-linecap="round" stroke-linejoin="round"/>
<path d="M53.7116 120.52L54.8136 117.83L52.468 115.945" stroke="black" stroke-width="0.564931" stroke-linecap="round" stroke-linejoin="round"/>
<path d="M65.1908 112.157L64.3728 109.746C64.7548 110.05 65.1627 110.32 65.5915 110.552" stroke="black" stroke-width="0.564931" stroke-linecap="round" stroke-linejoin="round"/>
<path d="M66.8766 114.782C64.4293 114.739 61.8819 112.95 59.7073 110.947" stroke="black" stroke-width="0.564931" stroke-linecap="round" stroke-linejoin="round"/>
<path d="M59.6936 110.947L59.207 114.567L63.6429 114.195L66.5767 117.415L66.8773 114.782" stroke="black" stroke-width="0.564931" stroke-linecap="round" stroke-linejoin="round"/>
<path d="M38.4284 88.2657C38.6452 88.2155 38.8723 88.2324 39.0793 88.3142C39.2864 88.396 39.4636 88.5388 39.5876 88.7237C40.206 89.5801 39.1869 91.342 37.3415 92.6586C35.496 93.9753 33.4924 94.3466 32.8906 93.4872C32.7486 93.2649 32.6731 93.0067 32.6731 92.743C32.6731 92.4792 32.7486 92.221 32.8906 91.9988" stroke="black" stroke-width="0.564931" stroke-linecap="round" stroke-linejoin="round"/>
<path d="M94.7957 117.616C95.5542 117.101 97.6008 115.641 97.4147 114.11C97.4147 114.11 99.6745 112.178 99.8183 111.22C99.9622 110.261 97.4147 112.278 96.3534 112.952C94.5713 114.098 92.7168 115.125 90.8005 116.029" stroke="black" stroke-width="0.564931" stroke-linecap="round" stroke-linejoin="round"/>
<path d="M68.0366 120.735L69.1379 125.157" stroke="black" stroke-width="0.564931" stroke-linecap="round" stroke-linejoin="round"/>
<path d="M69.3381 105.609C69.3381 105.252 69.3525 104.136 69.3525 103.077C69.4696 102.388 69.4501 101.683 69.2952 101.002C69.6678 100.447 69.8357 99.7793 69.7704 99.1141C69.7049 98.4488 69.4102 97.8269 68.9367 97.3551C68.4631 96.8832 67.8402 96.5907 67.1747 96.5276C66.5092 96.4647 65.8424 96.635 65.2887 97.0096C64.2325 96.7717 63.1289 96.8616 62.1251 97.2672C61.8044 96.7308 61.35 96.2868 60.8066 95.9783C60.263 95.6699 59.6488 95.5075 59.0239 95.5072C58.3989 95.5069 57.7846 95.6687 57.2407 95.9765C56.6969 96.2844 56.2421 96.7281 55.9208 97.2641C55.5996 97.8002 55.4227 98.4103 55.4076 99.0351C55.3924 99.6599 55.5394 100.278 55.8343 100.829C56.1292 101.38 56.562 101.845 57.0902 102.179C57.6185 102.513 58.2243 102.704 58.8485 102.734C58.9763 103.946 59.5166 105.078 60.3791 105.939C60.3791 105.939 63.2203 109.379 61.2755 110.999" stroke="black" stroke-width="0.564931" stroke-linecap="round" stroke-linejoin="round"/>
<path d="M104.098 176.044C101.537 177.676 99.3351 178.317 98.6451 177.504C97.2893 175.903 101.841 171.327 103.683 169.773C105.415 168.311 110.681 164.604 112.026 166.198C112.628 166.913 111.925 168.617 110.351 170.549" stroke="black" stroke-width="0.564931" stroke-linecap="round" stroke-linejoin="round"/>
<path d="M118.78 176.874C114.882 178.18 110.798 178.841 106.688 178.833" stroke="black" stroke-width="0.564931" stroke-linecap="round" stroke-linejoin="round"/>
<path d="M107.217 167.272L110.867 171.079C112.352 172.784 114.118 174.221 116.09 175.329C119.533 177.151 122.698 179.454 125.492 182.169C119.829 183.218 113.991 182.759 108.562 180.838L100.835 172.552" stroke="black" stroke-width="0.564931" stroke-linecap="round" stroke-linejoin="round"/>
<path d="M77.9967 187.29C80.7016 187.077 82.5983 186.303 82.7196 185.202C82.9598 183.008 77.3135 181.65 74.8625 181.322C71.9136 180.927 65.4056 180.906 65.1457 183.241C65.0169 184.4 66.8781 185.631 69.696 186.432" stroke="black" stroke-width="0.564931" stroke-linecap="round" stroke-linejoin="round"/>
<path d="M69.3525 189.524C72.1021 192.707 75.2033 195.568 78.5971 198.053" stroke="black" stroke-width="0.564931" stroke-linecap="round" stroke-linejoin="round"/>
<path d="M70.3086 181.151L69.0205 192.386C69.8792 194.775 71.6395 199.727 78.265 205.869C79.3263 202.79 78.61 197.745 78.1076 194.521C77.7553 192.296 77.6976 190.035 77.9359 187.795C78.0006 187.198 77.899 188.193 78.5347 182.133" stroke="black" stroke-width="0.564931" stroke-linecap="round" stroke-linejoin="round"/>
<path d="M69.8972 166.141L73.561 156.868L71.9445 156.508" stroke="black" stroke-width="0.564931" stroke-linecap="round" stroke-linejoin="round"/>
<path d="M65.227 182.938C67.9842 174.268 70.2268 165.443 71.9429 156.509C54.7547 152.565 49.6651 147.509 48.3876 143.76C46.0526 136.981 55.6285 129.407 55.6285 129.407" stroke="black" stroke-width="0.564931" stroke-linecap="round" stroke-linejoin="round"/>
<path d="M62.928 136.677C69.4191 140.224 75.5532 144.389 81.2453 149.113C81.9974 149.718 82.6122 150.477 83.0488 151.338C83.4854 152.198 83.7339 153.143 83.7777 154.107C84.2136 164.484 83.8646 174.879 82.7337 185.203" stroke="black" stroke-width="0.564931" stroke-linecap="round" stroke-linejoin="round"/>
<path d="M63.7722 131.768C64.4007 133.742 64.8228 135.775 65.0316 137.835" stroke="black" stroke-width="0.564931" stroke-linecap="round" stroke-linejoin="round"/>
<path d="M98.4921 177.263L83.8333 155.595" stroke="black" stroke-width="0.564931" stroke-linecap="round" stroke-linejoin="round"/>
<path d="M64.1448 133.1C71.8351 136.202 79.3411 139.742 86.626 143.703C87.911 144.389 89.1042 145.235 90.1753 146.222L111.869 166.046" stroke="black" stroke-width="0.564931" stroke-linecap="round" stroke-linejoin="round"/>
<path d="M39.5728 90.1265C39.5728 90.1265 36.0529 85.4044 36.654 81.941C37.2694 78.3925 36.5591 78.3254 35.0082 81.5267C33.9815 83.6463 33.6343 88.5959 33.6343 88.5959" stroke="black" stroke-width="0.564931" stroke-linecap="round" stroke-linejoin="round"/>
<path d="M33.9949 93.9612C33.9949 93.9612 30.8418 88.5544 29.1154 84.847C27.8236 82.0728 29.4875 83.1725 29.9598 84.1028" stroke="black" stroke-width="0.564931" stroke-linecap="round" stroke-linejoin="round"/>
<path d="M32.4614 81.9257C32.2466 80.8899 32.1316 79.8358 32.1179 78.7779C32.1179 75.6008 32.8945 75.7575 33.5777 78.4488C33.8964 79.7136 34.2834 80.9603 34.7369 82.1833" stroke="black" stroke-width="0.564931" stroke-linecap="round" stroke-linejoin="round"/>
<path d="M33.0488 81.3823C31.7868 82.768 31.0391 84.5452 30.9307 86.4162" stroke="black" stroke-width="0.564931" stroke-linecap="round" stroke-linejoin="round"/>
<path d="M32.2318 80.4381C31.9455 79.7798 31.6601 79.007 31.3874 78.1784C30.43 75.2588 29.8282 75.9029 30.143 78.5648C30.3698 80.4204 30.8213 82.2415 31.4876 83.9882" stroke="black" stroke-width="0.564931" stroke-linecap="round" stroke-linejoin="round"/>
<path d="M30.4435 80.4951C29.4567 77.3036 28.7231 77.8768 29.1275 80.7964C29.4373 82.7475 30.0452 84.6394 30.93 86.4058" stroke="black" stroke-width="0.564931" stroke-linecap="round" stroke-linejoin="round"/>
<path d="M49.4332 161.991L47.4438 169.705" stroke="black" stroke-width="0.564931" stroke-linecap="round" stroke-linejoin="round"/>
<path d="M52.2959 166.857L44.5828 164.853" stroke="black" stroke-width="0.564931" stroke-linecap="round" stroke-linejoin="round"/>
<path d="M84.8648 84.588L77.7527 82.7418L80.429 72.4533L84.6072 70.9792L87.541 74.3131L84.8648 84.588Z" stroke="black" stroke-width="0.564931" stroke-linecap="round" stroke-linejoin="round"/>
<path d="M84.7363 73.869C84.6939 74.0304 84.6047 74.1755 84.4798 74.2862C84.355 74.3968 84.2001 74.4679 84.0348 74.4906C83.8696 74.5133 83.7013 74.4864 83.5513 74.4135C83.4013 74.3405 83.2763 74.2247 83.1921 74.0807C83.1078 73.9367 83.0682 73.771 83.0782 73.6044C83.0881 73.4379 83.1472 73.2781 83.248 73.1452C83.3488 73.0122 83.4867 72.9121 83.6444 72.8576C83.802 72.803 83.9723 72.7964 84.1337 72.8386C84.3477 72.8993 84.53 73.0405 84.6423 73.2326C84.7546 73.4246 84.7883 73.6527 84.7363 73.869Z" stroke="black" stroke-width="0.564931" stroke-linecap="round" stroke-linejoin="round"/>
<path d="M84.0574 72.8207C88.6951 70.115 83.0367 65.4683 87.7015 62.7649" stroke="black" stroke-width="0.564931" stroke-linecap="round" stroke-linejoin="round"/>
<path d="M105.887 105.423L102.281 111.762" stroke="black" stroke-width="0.564931" stroke-linecap="round" stroke-linejoin="round"/>
<path d="M107.261 110.404L100.921 106.783" stroke="black" stroke-width="0.564931" stroke-linecap="round" stroke-linejoin="round"/>
<path d="M32.8118 93.38C36.4898 100.71 43.8392 108.88 52.4713 115.946C53.7639 120.374 54.8199 124.867 55.635 129.408L63.7775 131.769C65.1457 129.272 66.3306 126.679 67.323 124.011C69.5074 125.493 71.888 126.663 74.3959 127.488C75.6312 127.93 76.9768 127.96 78.2307 127.573C83.2873 126.036 88.2232 124.128 92.9987 121.864C92.7388 119.572 91.8583 117.395 90.452 115.567C86.1722 117.534 81.6703 118.976 77.0443 119.861C73.1812 118.479 69.5109 116.608 66.1223 114.295C64.9171 113.501 65.0407 111.789 65.5951 110.55C67.0307 111.253 69.2362 111.391 69.3417 105.708C69.4539 99.9837 65.7193 102.651 64.8456 104.685C64.6452 105.153 64.4396 105.288 64.0042 104.506C63.2337 103.117 61.4432 104.732 63.2028 106.724C63.2746 106.956 63.2941 107.2 63.26 107.44C62.6695 110.55 61.099 112.336 58.5952 110.227C51.3242 104.117 45.5867 98.6211 39.5909 88.719" stroke="black" stroke-width="0.564931" stroke-linecap="round" stroke-linejoin="round"/>
<path d="M67.3171 124.013C67.8882 122.547 68.1287 120.974 68.0214 119.404" stroke="black" stroke-width="0.564931" stroke-linecap="round" stroke-linejoin="round"/>
<path d="M245.572 70.3476C243.382 72.1794 236.599 73.4675 230.23 89.5394L220.856 81.1099C216.529 83.3056 213.176 87.0358 211.453 91.5716L225.55 104.239C227.183 105.701 229.329 106.456 231.518 106.337C233.706 106.22 235.759 105.238 237.225 103.609L243.067 97.1064L240.746 112.497L231.243 123.087C233.627 127.274 237.302 130.577 241.719 132.503L251.78 121.311C253.27 119.655 254.322 117.653 254.843 115.486C257.032 106.297 256.288 90.0832 257.705 76.1151C252.026 75.0561 249.923 73.768 245.572 70.3476Z" fill="#B8FFD4"/>
<path d="M323.132 70.9914L306.817 88.2082L313.286 59.7281L329.601 42.5113L323.132 70.9914Z" fill="#E9E9E9"/>
<path d="M271.407 64.6792C271.192 64.5361 270.82 64.6649 270.333 65.0084L271.463 65.9386C271.65 65.2803 271.65 64.8223 271.407 64.6792Z" fill="#E9E9E9"/>
<path d="M261.302 73.4807C261.001 74.2535 261.041 74.9028 261.274 75.0549C261.507 75.2071 262.178 75.0549 262.63 74.4681L261.302 73.4807Z" fill="#E9E9E9"/>
<path d="M267.817 65.3092C267.603 65.1661 267.23 65.2949 266.744 65.6383L267.874 66.5686C268.058 65.9246 268.043 65.4666 267.817 65.3092Z" fill="#E9E9E9"/>
<path d="M234.34 119.564L231.176 123.084C233.56 127.271 237.235 130.574 241.652 132.5L244.958 128.822C240.611 126.807 236.928 123.596 234.34 119.564Z" fill="#E9E9E9"/>
<path d="M252.544 67.6555L257.84 75.8847L259.242 73.3372L252.544 67.6555Z" fill="#E9E9E9"/>
<path d="M257.969 46.9055L258.698 48.4797L259.099 47.4064L257.969 46.9055Z" fill="#E9E9E9"/>
<path d="M254.176 84.7447L243.056 97.1099L241.925 104.695L254.176 84.7447Z" fill="#E9E9E9"/>
<path d="M227.156 132.301C226.226 133.303 225.267 134.305 224.28 135.335C223.493 139.986 223.865 150.663 225.367 155.629C229.36 148.988 230.806 144.782 232.824 137.94C230.65 136.371 228.737 134.467 227.156 132.301Z" fill="#E9E9E9"/>
<path d="M211.399 77.4173C210.712 76.7304 209.925 75.886 208.88 74.7554C200.778 75.9003 191.863 78.6052 188.085 80.3941C193.847 82.5733 200.02 83.453 206.163 82.9702L206.477 83.2564C207.828 81.0833 209.486 79.1166 211.399 77.4173Z" fill="#E9E9E9"/>
<path d="M223.95 83.8137L220.862 81.0267C216.538 83.2266 213.187 86.9554 211.459 91.4884L214.593 94.3078C216.762 90.0656 219.983 86.4523 223.95 83.8137Z" fill="#E9E9E9"/>
<path d="M264.266 37.5877C264.327 37.241 264.262 36.8839 264.083 36.5804C263.906 36.2768 263.625 36.0465 263.293 35.9306C263.506 35.7329 263.658 35.4769 263.729 35.1942C263.8 34.9115 263.786 34.6143 263.69 34.3392C263.594 34.0641 263.419 33.823 263.189 33.6455C262.957 33.468 262.679 33.3619 262.389 33.3402C262.507 33.088 262.554 32.8078 262.522 32.5308C262.491 32.2538 262.383 31.9909 262.212 31.7714C262.04 31.5519 261.811 31.3844 261.55 31.2874C261.288 31.1904 261.005 31.1678 260.732 31.2221C260.767 30.9444 260.723 30.6623 260.606 30.4081C260.488 30.1539 260.302 29.9377 260.068 29.7841C259.834 29.6305 259.561 29.5458 259.282 29.5394C259.001 29.533 258.726 29.6053 258.485 29.748C258.433 29.4628 258.301 29.1982 258.104 28.9862C257.906 28.7741 257.652 28.6237 257.371 28.5526C257.09 28.4816 256.794 28.4932 256.52 28.5859C256.245 28.6786 256.003 28.8486 255.823 29.0754C255.686 28.8022 255.473 28.5746 255.209 28.4205C254.946 28.2664 254.643 28.1924 254.338 28.2076C254.033 28.2228 253.739 28.3264 253.491 28.506C253.244 28.6855 253.055 28.9331 252.946 29.2185C252.773 29.0362 252.557 28.9003 252.318 28.8234C252.079 28.7466 251.824 28.7311 251.577 28.7785C251.33 28.826 251.099 28.9347 250.906 29.0948C250.712 29.2549 250.562 29.4611 250.469 29.6945C250.493 29.3367 250.415 28.9793 250.244 28.6643C250.072 28.3493 249.814 28.09 249.5 27.9167C249.186 27.7434 248.829 27.6634 248.471 27.6861C248.113 27.7088 247.769 27.8334 247.479 28.0449C247.32 27.6789 247.054 27.37 246.715 27.1596C246.376 26.9492 245.981 26.8473 245.583 26.8675C245.184 26.8877 244.801 27.0291 244.486 27.2728C244.17 27.5165 243.936 27.8508 243.815 28.231C243.488 28.0329 243.107 27.9399 242.725 27.9645C242.343 27.9891 241.978 28.1302 241.678 28.3687C241.379 28.6072 241.16 28.9318 241.051 29.2987C240.941 29.6655 240.947 30.0571 241.067 30.4207C240.684 30.464 240.323 30.6245 240.034 30.8802C239.746 31.1359 239.543 31.4743 239.453 31.8495C239.364 32.2246 239.392 32.6182 239.535 32.9766C239.677 33.335 239.926 33.6408 240.249 33.8524C239.947 34.0969 239.728 34.429 239.623 34.803C239.518 35.177 239.531 35.5744 239.662 35.9403C239.792 36.3063 240.033 36.6228 240.351 36.8461C240.669 37.0694 241.048 37.1885 241.437 37.187C241.359 37.5602 241.396 37.9482 241.545 38.2993C241.694 38.6503 241.946 38.9476 242.268 39.1515C242.59 39.3554 242.967 39.456 243.347 39.44C243.728 39.4239 244.095 39.292 244.399 39.0618C244.519 39.3706 244.722 39.6405 244.984 39.8426C245.247 40.0446 245.56 40.1711 245.889 40.2083C245.828 40.422 245.816 40.6465 245.853 40.8655C245.89 41.0845 245.975 41.2926 246.103 41.4745C246.23 41.6566 246.396 41.8081 246.589 41.918C246.782 42.0279 246.997 42.0936 247.218 42.1102C247.099 42.3633 247.052 42.6448 247.085 42.9229C247.117 43.2009 247.226 43.4644 247.401 43.6833C247.575 43.9024 247.807 44.0682 248.071 44.162C248.335 44.2557 248.619 44.2738 248.893 44.214C248.86 44.4922 248.906 44.7742 249.025 45.0277C249.144 45.2812 249.332 45.4962 249.568 45.6482C249.803 45.8003 250.076 45.8832 250.356 45.8878C250.637 45.8923 250.912 45.8182 251.153 45.6738C251.204 45.9593 251.336 46.2239 251.535 46.4357C251.733 46.6474 251.988 46.7972 252.27 46.8668C252.552 46.9364 252.847 46.923 253.121 46.8281C253.396 46.7332 253.636 46.5609 253.815 46.3321C253.995 46.5909 254.229 46.8079 254.501 46.9684C254.772 47.1288 255.075 47.2291 255.389 47.2624C255.868 46.3963 256.193 45.4532 256.348 44.4754C256.507 43.4798 256.321 42.4597 255.82 41.5844C253.688 40.8832 254.647 38.3786 256.092 39.3518C256.779 39.8241 257.04 39.794 257.094 39.3375C257.098 39.2056 257.138 39.0774 257.209 38.9662C257.28 38.855 257.38 38.7652 257.498 38.7063C257.625 38.9748 257.829 39.1995 258.084 39.3524C258.338 39.5054 258.632 39.5796 258.929 39.5659C259.226 39.5521 259.512 39.451 259.751 39.2751C259.99 39.0993 260.173 38.8566 260.274 38.5775C260.413 38.7239 260.579 38.8411 260.764 38.922C260.948 39.0029 261.147 39.0459 261.348 39.0487C261.55 39.0513 261.75 39.0136 261.937 38.9375C262.124 38.8615 262.293 38.7489 262.435 38.6061C262.789 39.4403 263.058 40.3082 263.237 41.1965C263.452 41.0755 263.634 40.9035 263.766 40.6957C263.9 40.4879 263.98 40.2506 263.999 40.0047C264.019 39.7588 263.978 39.5118 263.88 39.2855C263.782 39.059 263.63 38.8602 263.437 38.7063C263.653 38.597 263.839 38.4391 263.983 38.2449C264.127 38.0508 264.224 37.8258 264.266 37.5877Z" fill="#E9E9E9"/>
<path d="M295.522 33.4946C295.425 32.9144 295.159 32.3757 294.757 31.9468C294.354 31.5178 293.834 31.2178 293.261 31.0847C292.688 30.9516 292.088 30.9913 291.539 31.1989C290.988 31.4065 290.512 31.7725 290.169 32.2509C289.827 32.7292 289.634 33.2983 289.616 33.8861C289.597 34.474 289.753 35.0542 290.064 35.5534C290.375 36.0527 290.827 36.4485 291.362 36.6908C291.899 36.9332 292.494 37.0113 293.074 36.9151C293.852 36.7851 294.546 36.352 295.005 35.7108C295.464 35.0695 295.65 34.2725 295.522 33.4946Z" fill="#E9E9E9"/>
<path d="M206.676 100.215L199.964 102.375L202.737 118.749L206.676 100.215Z" fill="#E9E9E9"/>
<path d="M293.819 79.081L293.814 79.0679L293.819 79.081Z" fill="#E9E9E9"/>
<path d="M299.887 71.9073L296.037 75.4423C297.387 75.7282 298.699 76.175 299.944 76.7733C300.471 76.9978 300.955 77.3127 301.375 77.7035C301.962 78.3762 298.814 77.4173 297.268 77.2456H297.253C297.566 77.4102 297.851 77.6226 298.098 77.8753C298.605 78.456 294.722 77.1416 294.377 77.3887C295.865 78.0613 298.169 79.3351 298.727 80.3263C299.386 81.5142 296.008 79.152 293.818 79.0805C295.207 79.7245 296.724 80.6269 297.268 81.6287C298.012 82.9845 295.321 80.4988 292.115 80.3979H292.101C295.164 82.2584 296.595 83.7875 292.244 81.9006C291.446 81.5438 290.595 81.3213 289.725 81.2423L280.981 89.2387L306.799 88.2369L310.592 71.5209L299.887 71.9073Z" fill="#E9E9E9"/>
<path d="M323.132 70.9913L306.817 88.2081L313.285 59.7281L329.601 42.5113L323.132 70.9913Z" stroke="black" stroke-width="0.564931" stroke-linejoin="round"/>
<path d="M299.887 71.9073L296.037 75.4423C297.388 75.7281 298.7 76.175 299.944 76.7733C300.472 76.9978 300.956 77.3126 301.375 77.7035C301.962 78.3761 298.814 77.4173 297.268 77.2455H297.254C297.566 77.4102 297.851 77.6226 298.098 77.8752C298.606 78.456 294.723 77.1416 294.377 77.3887C295.865 78.0613 298.17 79.335 298.728 80.3263C299.386 81.5142 296.009 79.152 293.819 79.0804C295.207 79.7245 296.724 80.6268 297.268 81.6286C298.012 82.9845 295.322 80.4988 292.116 80.3978H292.102C295.164 82.2584 296.595 83.7874 292.245 81.9006C291.447 81.5438 290.596 81.3212 289.726 81.2422L280.981 89.2386L306.8 88.2368L310.592 71.5209L299.887 71.9073Z" stroke="black" stroke-width="0.564931" stroke-linejoin="round"/>
<path d="M264.264 37.5867C264.325 37.24 264.261 36.8829 264.082 36.5793C263.904 36.2758 263.623 36.0455 263.291 35.9296C263.505 35.7318 263.656 35.4759 263.727 35.1931C263.798 34.9104 263.784 34.6133 263.688 34.3381C263.592 34.063 263.418 33.8219 263.187 33.6445C262.956 33.467 262.678 33.3609 262.387 33.3392C262.505 33.0869 262.552 32.8067 262.521 32.5297C262.49 32.2528 262.382 31.9899 262.21 31.7704C262.038 31.5509 261.809 31.3833 261.548 31.2864C261.287 31.1894 261.004 31.1668 260.73 31.2211C260.765 30.9433 260.722 30.6613 260.604 30.407C260.487 30.1528 260.301 29.9366 260.066 29.7831C259.832 29.6295 259.56 29.5447 259.28 29.5383C259 29.5319 258.724 29.6042 258.483 29.747C258.432 29.4617 258.3 29.1972 258.102 28.9851C257.905 28.7731 257.65 28.6226 257.369 28.5516C257.088 28.4806 256.793 28.4922 256.518 28.5849C256.244 28.6776 256.002 28.8475 255.821 29.0743C255.685 28.8011 255.472 28.5736 255.208 28.4195C254.944 28.2654 254.641 28.1914 254.336 28.2065C254.031 28.2217 253.737 28.3254 253.49 28.505C253.243 28.6845 253.053 28.932 252.945 29.2174C252.772 29.0352 252.556 28.8993 252.316 28.8224C252.077 28.7455 251.822 28.73 251.576 28.7775C251.329 28.8249 251.098 28.9336 250.904 29.0938C250.711 29.2538 250.56 29.4601 250.467 29.6935C250.492 29.3356 250.414 28.9782 250.242 28.6633C250.07 28.3483 249.812 28.0889 249.498 27.9156C249.184 27.7424 248.827 27.6624 248.469 27.6851C248.111 27.7078 247.767 27.8323 247.478 28.0439C247.319 27.6779 247.052 27.369 246.714 27.1585C246.375 26.9482 245.98 26.8462 245.581 26.8664C245.183 26.8867 244.8 27.0281 244.484 27.2718C244.168 27.5154 243.934 27.8497 243.814 28.2299C243.486 28.0318 243.106 27.9388 242.724 27.9635C242.342 27.9881 241.976 28.1292 241.677 28.3676C241.378 28.6062 241.158 28.9308 241.049 29.2977C240.94 29.6645 240.945 30.0561 241.065 30.4196C240.682 30.463 240.322 30.6234 240.033 30.8792C239.744 31.1348 239.541 31.4733 239.452 31.8484C239.362 32.2236 239.391 32.6171 239.533 32.9756C239.675 33.334 239.925 33.6398 240.247 33.8514C239.945 34.0959 239.727 34.428 239.622 34.802C239.516 35.176 239.53 35.5734 239.66 35.9393C239.791 36.3053 240.031 36.6217 240.349 36.8451C240.667 37.0684 241.047 37.1875 241.435 37.186C241.357 37.5591 241.395 37.9472 241.544 38.2982C241.692 38.6493 241.944 38.9466 242.266 39.1504C242.588 39.3543 242.965 39.455 243.346 39.4389C243.727 39.4229 244.094 39.291 244.398 39.0608C244.518 39.3696 244.72 39.6394 244.983 39.8415C245.245 40.0435 245.558 40.17 245.887 40.2072C245.827 40.4209 245.815 40.6455 245.852 40.8644C245.889 41.0835 245.974 41.2915 246.101 41.4735C246.228 41.6556 246.394 41.807 246.587 41.917C246.78 42.0269 246.996 42.0926 247.217 42.1092C247.097 42.3623 247.051 42.6437 247.083 42.9218C247.115 43.1999 247.225 43.4633 247.399 43.6823C247.574 43.9013 247.806 44.0671 248.069 44.1609C248.333 44.2547 248.618 44.2728 248.891 44.213C248.859 44.4912 248.904 44.7731 249.024 45.0266C249.143 45.2802 249.331 45.4951 249.566 45.6471C249.802 45.7992 250.075 45.8821 250.355 45.8867C250.635 45.8913 250.911 45.8171 251.151 45.6727C251.202 45.9583 251.335 46.2229 251.533 46.4346C251.732 46.6464 251.987 46.7961 252.268 46.8657C252.55 46.9354 252.846 46.9219 253.12 46.8271C253.394 46.7322 253.635 46.5599 253.813 46.3311C253.994 46.5899 254.228 46.8068 254.499 46.9673C254.771 47.1278 255.074 47.2281 255.387 47.2613C255.867 46.3953 256.191 45.4521 256.346 44.4743C256.505 43.4788 256.319 42.4587 255.819 41.5834C253.687 40.8821 254.645 38.3776 256.091 39.3508C256.778 39.8231 257.038 39.7929 257.093 39.3365C257.097 39.2046 257.136 39.0763 257.207 38.9651C257.279 38.854 257.378 38.7642 257.496 38.7053C257.624 38.9737 257.827 39.1985 258.082 39.3514C258.336 39.5044 258.631 39.5786 258.928 39.5649C259.224 39.5511 259.511 39.4499 259.749 39.274C259.989 39.0982 260.171 38.8555 260.273 38.5765C260.411 38.7229 260.578 38.84 260.762 38.9209C260.947 39.0019 261.146 39.0449 261.347 39.0476C261.549 39.0503 261.748 39.0125 261.935 38.9364C262.122 38.8604 262.292 38.7478 262.434 38.6051C262.788 39.4392 263.057 40.3072 263.235 41.1955C263.45 41.0744 263.632 40.9025 263.765 40.6947C263.898 40.4868 263.978 40.2496 263.998 40.0037C264.017 39.7578 263.977 39.5108 263.879 39.2844C263.781 39.058 263.629 38.8592 263.436 38.7053C263.651 38.596 263.838 38.438 263.982 38.2438C264.126 38.0497 264.223 37.8247 264.264 37.5867Z" stroke="black" stroke-width="0.564931" stroke-linejoin="round"/>
<path d="M262.964 46.4455L305.684 39.2611" stroke="black" stroke-width="0.564931" stroke-linecap="round" stroke-linejoin="round"/>
<path d="M192.865 58.2108L255.12 47.7634" stroke="black" stroke-width="0.564931" stroke-linecap="round" stroke-linejoin="round"/>
<path d="M258.612 53.1738L271.42 64.6803" stroke="black" stroke-width="0.564931" stroke-linecap="round" stroke-linejoin="round"/>
<path d="M271.478 65.9386C271.65 65.2946 271.651 64.8351 271.421 64.6792C271.207 64.5346 270.818 64.6626 270.333 65.0083C269.606 65.5822 268.949 66.2396 268.375 66.9668" stroke="black" stroke-width="0.564931" stroke-linecap="round" stroke-linejoin="round"/>
<path d="M217.953 82.8972C213.115 79.0474 212.715 78.9329 208.879 74.7396C200.779 75.8845 191.863 78.5894 188.085 80.3784C193.852 82.5574 200.029 83.437 206.175 82.9544L212.744 88.8651" stroke="black" stroke-width="0.564931" stroke-linecap="round" stroke-linejoin="round"/>
<path d="M254.333 53.2013L267.829 65.3089" stroke="black" stroke-width="0.564931" stroke-linecap="round" stroke-linejoin="round"/>
<path d="M261.274 75.0546L252.544 67.6555L257.831 75.8824" stroke="black" stroke-width="0.564931" stroke-linecap="round" stroke-linejoin="round"/>
<path d="M292.43 76.6699C292.957 76.7844 297.786 78.4716 298.799 80.2764C299.477 81.4778 296.051 79.0885 293.833 79.017" stroke="black" stroke-width="0.564931" stroke-linecap="round" stroke-linejoin="round"/>
<path d="M291.958 78.2463C293.303 78.7329 296.491 80.0797 297.324 81.5952C298.078 82.9706 295.366 80.4503 292.115 80.3501" stroke="black" stroke-width="0.564931" stroke-linecap="round" stroke-linejoin="round"/>
<path d="M291.586 80.0497C294.992 82.039 296.869 83.8807 292.244 81.8816C289.855 80.8489 272.434 80.3217 272.434 80.3217C270.905 80.1635 269.445 79.6052 268.201 78.7029L261.302 73.4649" stroke="black" stroke-width="0.564931" stroke-linecap="round" stroke-linejoin="round"/>
<path d="M266.74 65.6378L273.753 71.8633C273.753 71.8633 291.328 75.155 292.673 75.5391C294.018 75.9233 297.24 76.7398 298.183 77.8147C298.685 78.3864 295.923 77.3996 294.247 77.3138" stroke="black" stroke-width="0.564931" stroke-linecap="round" stroke-linejoin="round"/>
<path d="M267.887 66.5684C268.059 65.9244 268.059 65.4649 267.83 65.309C267.616 65.1644 267.227 65.2932 266.742 65.6382C264.762 67.0475 261.819 71.4163 261.203 73.8101C261.053 74.3976 261.08 74.9272 261.275 75.0552C261.501 75.2059 262.148 75.0266 262.631 74.4827" stroke="black" stroke-width="0.564931" stroke-linecap="round" stroke-linejoin="round"/>
<path d="M239.406 79.7209C242.861 79.8664 246.26 78.8093 249.023 76.7298" stroke="black" stroke-width="0.564931" stroke-linecap="round" stroke-linejoin="round"/>
<path d="M257.711 76.0993L259.243 73.3371" stroke="black" stroke-width="0.564931" stroke-linecap="round" stroke-linejoin="round"/>
<path d="M258.383 51.8117C257.439 53.1856 255.707 52.5846 253.317 50.2804" stroke="black" stroke-width="0.564931" stroke-linecap="round" stroke-linejoin="round"/>
<path d="M243.054 97.1256L254.176 84.7446L241.926 104.695" stroke="black" stroke-width="0.564931" stroke-linecap="round" stroke-linejoin="round"/>
<path d="M225.553 104.222C226.361 104.947 227.304 105.507 228.328 105.868C229.352 106.229 230.437 106.385 231.521 106.326C232.606 106.268 233.668 105.996 234.647 105.527C235.626 105.058 236.503 104.401 237.228 103.592L243.051 97.1251L240.749 112.491L231.246 123.082C233.631 127.268 237.306 130.571 241.722 132.497L251.783 121.291C253.273 119.635 254.325 117.633 254.846 115.466C257.036 106.277 256.291 90.0491 257.708 76.0953C252.012 75.0363 249.908 73.7482 245.572 70.3278C242.77 72.3758 236.516 73.8959 230.231 89.5241L220.859 81.0946C216.535 83.2945 213.184 87.0233 211.456 91.5563L225.553 104.222Z" stroke="black" stroke-width="0.564931" stroke-linecap="round" stroke-linejoin="round"/>
<path d="M259.078 47.3823C258.699 47.241 258.329 47.0765 257.971 46.8897L258.698 48.4715" stroke="black" stroke-width="0.564931" stroke-linecap="round" stroke-linejoin="round"/>
<path d="M245.57 70.3179C246.179 68.4042 246.591 66.4333 246.801 64.4359C247.165 61.3628 248.057 58.3756 249.437 55.6056C250.785 52.7727 253.881 50.1605 255.463 47.1475C255.937 46.3198 256.238 45.4044 256.348 44.4569C256.508 43.4614 256.321 42.4412 255.821 41.566C253.688 40.8647 254.652 38.3542 256.093 39.3334C256.782 39.8026 257.051 39.777 257.094 39.3191C257.133 39.0783 257.181 38.8491 257.238 38.6321M259.67 57.9957C258.616 54.9526 257.741 50.2998 259.075 47.3825C264.493 49.3703 264.035 42.3448 262.447 38.6321L259.67 57.9957Z" stroke="black" stroke-width="0.564931" stroke-linecap="round" stroke-linejoin="round"/>
<path d="M234.412 119.564C237 123.597 240.684 126.808 245.033 128.823" stroke="black" stroke-width="0.564931" stroke-linecap="round" stroke-linejoin="round"/>
<path d="M214.575 94.3184C216.979 89.9496 219.984 86.3611 223.934 83.8709" stroke="black" stroke-width="0.564931" stroke-linecap="round" stroke-linejoin="round"/>
<path d="M232.951 125.675C229.928 129.366 227.223 132.263 224.278 135.335C223.491 139.986 223.863 150.663 225.366 155.629C229.358 148.988 230.804 144.766 232.823 137.928L238.948 131.115" stroke="black" stroke-width="0.564931" stroke-linecap="round" stroke-linejoin="round"/>
<path d="M206.489 83.2426C207.84 81.0733 209.499 79.1113 211.412 77.4178" stroke="black" stroke-width="0.564931" stroke-linecap="round" stroke-linejoin="round"/>
<path d="M297.325 77.1879C298.885 77.3453 302.06 78.3177 301.476 77.6458C301.052 77.2506 300.563 76.9311 300.03 76.7013C298.012 75.7145 296.08 75.3989 293.934 74.8121L277.287 70.7763L270.341 65.0019" stroke="black" stroke-width="0.564931" stroke-linecap="round" stroke-linejoin="round"/>
<path d="M244.086 79.1623L231.248 98.0249L218.84 88.1929" stroke="black" stroke-width="0.564931" stroke-linecap="round" stroke-linejoin="round"/>
<path d="M279.178 36.2131C279.274 36.7933 279.196 37.389 278.953 37.925C278.711 38.4608 278.315 38.9128 277.816 39.2238C277.317 39.5347 276.736 39.6906 276.149 39.6718C275.561 39.653 274.992 39.4603 274.514 39.118C274.035 38.7758 273.669 38.2994 273.461 37.7491C273.254 37.1988 273.214 36.5993 273.348 36.0264C273.48 35.4536 273.781 34.933 274.209 34.5306C274.639 34.1283 275.177 33.8621 275.757 33.7658C276.535 33.6371 277.333 33.8227 277.974 34.2815C278.615 34.7404 279.048 35.4351 279.178 36.2131Z" stroke="black" stroke-width="0.564931" stroke-linecap="round" stroke-linejoin="round"/>
<path d="M287.278 34.8676C287.374 35.4478 287.296 36.0436 287.054 36.5795C286.812 37.1154 286.416 37.5674 285.916 37.8783C285.417 38.1893 284.837 38.3452 284.249 38.3263C283.661 38.3075 283.092 38.1148 282.614 37.7726C282.136 37.4304 281.77 36.9539 281.562 36.4036C281.355 35.8534 281.315 35.2539 281.448 34.681C281.58 34.1081 281.881 33.5876 282.31 33.1852C282.739 32.7828 283.278 32.5166 283.858 32.4203C284.636 32.2917 285.433 32.4771 286.074 32.9361C286.715 33.395 287.148 34.0897 287.278 34.8676Z" stroke="black" stroke-width="0.564931" stroke-linecap="round" stroke-linejoin="round"/>
<path d="M295.522 33.4937C295.618 34.074 295.54 34.6697 295.297 35.2056C295.056 35.7415 294.659 36.1935 294.16 36.5044C293.661 36.8154 293.081 36.9712 292.493 36.9525C291.905 36.9336 291.336 36.7409 290.858 36.3987C290.379 36.0564 290.013 35.5801 289.806 35.0297C289.598 34.4795 289.558 33.88 289.692 33.3071C289.824 32.7342 290.125 32.2137 290.554 31.8113C290.983 31.4089 291.521 31.1427 292.101 31.0465C292.88 30.9176 293.677 31.103 294.318 31.5619C294.96 32.0209 295.393 32.7157 295.522 33.4937Z" stroke="black" stroke-width="0.564931" stroke-linecap="round" stroke-linejoin="round"/>
<path d="M210.339 23.0182L204.872 30.7178" stroke="black" stroke-width="0.564931" stroke-linecap="round" stroke-linejoin="round"/>
<path d="M211.455 29.6007L203.77 24.1337" stroke="black" stroke-width="0.564931" stroke-linecap="round" stroke-linejoin="round"/>
<path d="M188.629 106.011L188.457 106.069L193.738 110.749L186.768 118.405L190.503 121.74L197.473 114.069L202.739 118.75L206.675 100.216L188.629 106.011Z" stroke="black" stroke-width="0.564931" stroke-linecap="round" stroke-linejoin="round"/>
<path d="M280.795 116.574L269.718 113.139L279.035 106.67" stroke="black" stroke-width="0.564931" stroke-linecap="round" stroke-linejoin="round"/>
<path d="M289.898 115.113L299.143 108.272L288.137 105.195" stroke="black" stroke-width="0.564931" stroke-linecap="round" stroke-linejoin="round"/>
<path d="M286.434 101.116L282.384 120.838" stroke="black" stroke-width="0.564931" stroke-linecap="round" stroke-linejoin="round"/>
<path d="M196.832 82.6335L204.256 128.409C204.522 129.971 205.092 131.464 205.935 132.804C206.778 134.145 207.876 135.307 209.168 136.223C210.46 137.138 211.92 137.79 213.464 138.142C215.008 138.493 216.606 138.537 218.167 138.27L224.12 137.269" stroke="black" stroke-width="0.564931" stroke-linecap="round" stroke-linejoin="round"/>
<path d="M312.625 82.1333L317.046 109.388C317.313 110.949 317.269 112.547 316.918 114.091C316.566 115.636 315.914 117.095 314.999 118.387C314.083 119.679 312.922 120.778 311.581 121.621C310.24 122.464 308.747 123.034 307.186 123.299L235.109 135.42" stroke="black" stroke-width="0.564931" stroke-linecap="round" stroke-linejoin="round"/>
<path d="M239.679 34.6969L202.196 40.9943C200.634 41.2597 199.141 41.83 197.8 42.6728C196.46 43.5156 195.298 44.6144 194.382 45.9064C193.467 47.1982 192.815 48.6579 192.463 50.202C192.112 51.7461 192.068 53.3443 192.335 54.9052L196.007 77.5429" stroke="black" stroke-width="0.564931" stroke-linecap="round" stroke-linejoin="round"/>
<path d="M260.744 31.1576L291.214 26.0385C292.774 25.7718 294.373 25.8154 295.917 26.1667C297.461 26.5181 298.921 27.1703 300.213 28.086C301.504 29.0018 302.603 30.1631 303.446 31.5038C304.289 32.8444 304.859 34.338 305.125 35.8991L310.775 70.7309" stroke="black" stroke-width="0.564931" stroke-linecap="round" stroke-linejoin="round"/>
<path d="M227.155 132.302C228.731 134.467 230.645 136.366 232.822 137.926" stroke="black" stroke-width="0.564931" stroke-linecap="round" stroke-linejoin="round"/>
</g>
<defs>
<clipPath id="clip0_5_219">
<rect width="352" height="208" rx="8" fill="white"/>
</clipPath>
</defs>
</svg>
