<svg width="50" height="49" viewBox="0 0 50 49" fill="none" xmlns="http://www.w3.org/2000/svg">
<g filter="url(#filter0_d_17_1410)">
<path fill-rule="evenodd" clip-rule="evenodd" d="M3 7.21429H5V10.0918H7V24.4796H5V27.3571H3V24.4796H1V10.0918H3V7.21429Z" fill="#1BB15A"/>
<path fill-rule="evenodd" clip-rule="evenodd" d="M17 13.9286H19V18.7245H21V42.7041L19 42.7041V47.5H17V42.7041L15 42.7041V18.7245H17V13.9286Z" fill="#CE3538"/>
<path fill-rule="evenodd" clip-rule="evenodd" d="M31 0.5H33V5.29592H35V29.2755L33 29.2755V34.0714H31V29.2755L29 29.2755V5.29592H31V0.5Z" fill="#1BB15A"/>
<path fill-rule="evenodd" clip-rule="evenodd" d="M45 21.6021H47V24.6166H45V21.6021ZM43 24.6166H49V39.6895H47V42.7041H45V39.6895H43V24.6166Z" fill="#CE3538"/>
</g>
<defs>
<filter id="filter0_d_17_1410" x="0.362078" y="0.5" width="49.2758" height="48.2758" filterUnits="userSpaceOnUse" color-interpolation-filters="sRGB">
<feFlood flood-opacity="0" result="BackgroundImageFix"/>
<feColorMatrix in="SourceAlpha" type="matrix" values="0 0 0 0 0 0 0 0 0 0 0 0 0 0 0 0 0 0 127 0" result="hardAlpha"/>
<feOffset dy="0.637922"/>
<feGaussianBlur stdDeviation="0.318961"/>
<feColorMatrix type="matrix" values="0 0 0 0 0 0 0 0 0 0 0 0 0 0 0 0 0 0 0.25 0"/>
<feBlend mode="normal" in2="BackgroundImageFix" result="effect1_dropShadow_17_1410"/>
<feBlend mode="normal" in="SourceGraphic" in2="effect1_dropShadow_17_1410" result="shape"/>
</filter>
</defs>
</svg>
