<svg width="400" height="144" viewBox="0 0 400 144" fill="none" xmlns="http://www.w3.org/2000/svg">
<rect width="400" height="144" fill="white"/>
<rect width="400" height="124" fill="white"/>
<path d="M31.9923 33.897V31.9091H42.4369V33.897H38.3907V45H36.0384V33.897H31.9923ZM46.662 39.2472V45H44.3481V31.9091H46.6109V36.8501H46.7259C46.9561 36.2962 47.3119 35.8594 47.7934 35.5398C48.2792 35.2159 48.8971 35.054 49.6471 35.054C50.3289 35.054 50.9234 35.1967 51.4305 35.4822C51.9376 35.7678 52.3296 36.1854 52.6066 36.7351C52.8879 37.2848 53.0285 37.956 53.0285 38.7486V45H50.7146V39.1065C50.7146 38.446 50.5441 37.9325 50.2032 37.5661C49.8666 37.1953 49.3936 37.0099 48.7842 37.0099C48.3751 37.0099 48.0086 37.0994 47.6847 37.2784C47.3651 37.4531 47.1137 37.7067 46.9305 38.0391C46.7515 38.3714 46.662 38.7741 46.662 39.2472ZM55.3872 45V35.1818H57.7011V45H55.3872ZM56.5505 33.7884C56.184 33.7884 55.8687 33.6669 55.6045 33.424C55.3403 33.1768 55.2082 32.8807 55.2082 32.5355C55.2082 32.1861 55.3403 31.8899 55.6045 31.647C55.8687 31.3999 56.184 31.2763 56.5505 31.2763C56.9213 31.2763 57.2366 31.3999 57.4965 31.647C57.7607 31.8899 57.8928 32.1861 57.8928 32.5355C57.8928 32.8807 57.7607 33.1768 57.4965 33.424C57.2366 33.6669 56.9213 33.7884 56.5505 33.7884ZM67.8405 37.777L65.7311 38.0071C65.6714 37.794 65.567 37.5938 65.4179 37.4062C65.273 37.2188 65.077 37.0675 64.8298 36.9524C64.5827 36.8374 64.2801 36.7798 63.9221 36.7798C63.4406 36.7798 63.0358 36.8842 62.7077 37.093C62.3838 37.3018 62.224 37.5724 62.2282 37.9048C62.224 38.1903 62.3284 38.4226 62.5415 38.6016C62.7588 38.7805 63.1167 38.9276 63.6153 39.0426L65.29 39.4006C66.219 39.6009 66.9094 39.9183 67.3611 40.353C67.817 40.7876 68.0471 41.3565 68.0514 42.0597C68.0471 42.6776 67.866 43.223 67.5081 43.696C67.1544 44.1648 66.6622 44.5312 66.0315 44.7955C65.4008 45.0597 64.6764 45.1918 63.8582 45.1918C62.6565 45.1918 61.6892 44.9403 60.9562 44.4375C60.2233 43.9304 59.7865 43.2251 59.6459 42.3217L61.9023 42.1044C62.0045 42.5476 62.2219 42.8821 62.5542 43.108C62.8866 43.3338 63.3192 43.4467 63.8518 43.4467C64.4015 43.4467 64.8426 43.3338 65.175 43.108C65.5116 42.8821 65.68 42.603 65.68 42.2706C65.68 41.9893 65.5713 41.7571 65.354 41.5739C65.1409 41.3906 64.8085 41.25 64.3568 41.152L62.6821 40.8004C61.7403 40.6044 61.0436 40.2741 60.5919 39.8097C60.1402 39.3409 59.9165 38.7486 59.9207 38.0327C59.9165 37.4276 60.0805 36.9034 60.4129 36.4602C60.7496 36.0128 61.2162 35.6676 61.8128 35.4247C62.4136 35.1776 63.1061 35.054 63.8902 35.054C65.0407 35.054 65.9463 35.299 66.6068 35.7891C67.2716 36.2791 67.6828 36.9418 67.8405 37.777ZM77.2496 45.1982C76.6274 45.1982 76.067 45.0874 75.5684 44.8658C75.0741 44.6399 74.6821 44.3075 74.3923 43.8686C74.1068 43.4297 73.964 42.8885 73.964 42.245C73.964 41.6911 74.0663 41.233 74.2709 40.8707C74.4754 40.5085 74.7545 40.2188 75.1082 40.0014C75.4619 39.7841 75.8604 39.62 76.3035 39.5092C76.751 39.3942 77.2133 39.3111 77.6906 39.2599C78.2659 39.2003 78.7325 39.147 79.0905 39.1001C79.4484 39.049 79.7084 38.9723 79.8703 38.87C80.0365 38.7635 80.1196 38.5994 80.1196 38.3778V38.3395C80.1196 37.858 79.9768 37.4851 79.6913 37.2209C79.4058 36.9567 78.9946 36.8246 78.4577 36.8246C77.8909 36.8246 77.4413 36.9482 77.1089 37.1953C76.7808 37.4425 76.5592 37.7344 76.4442 38.071L74.2836 37.7642C74.4541 37.1676 74.7354 36.669 75.1274 36.2685C75.5194 35.8636 75.9988 35.5611 76.5656 35.3608C77.1324 35.1562 77.7588 35.054 78.4449 35.054C78.9179 35.054 79.3888 35.1094 79.8575 35.2202C80.3263 35.331 80.7545 35.5142 81.1423 35.7699C81.5301 36.0213 81.8412 36.3643 82.0756 36.799C82.3142 37.2337 82.4335 37.777 82.4335 38.429V45H80.2091V43.6513H80.1324C79.9917 43.924 79.7936 44.1797 79.5379 44.4183C79.2865 44.6527 78.969 44.8423 78.5855 44.9872C78.2062 45.1278 77.7609 45.1982 77.2496 45.1982ZM77.8504 43.4979C78.3149 43.4979 78.7176 43.4062 79.0585 43.223C79.3994 43.0355 79.6615 42.7884 79.8447 42.4815C80.0322 42.1747 80.126 41.8402 80.126 41.478V40.321C80.0535 40.3807 79.93 40.4361 79.7552 40.4872C79.5848 40.5384 79.393 40.5831 79.18 40.6214C78.9669 40.6598 78.7559 40.6939 78.5471 40.7237C78.3383 40.7536 78.1572 40.7791 78.0038 40.8004C77.6586 40.8473 77.3497 40.924 77.077 41.0305C76.8042 41.1371 76.589 41.2862 76.4314 41.478C76.2737 41.6655 76.1949 41.9084 76.1949 42.2067C76.1949 42.6328 76.3504 42.9545 76.6615 43.1719C76.9726 43.3892 77.3689 43.4979 77.8504 43.4979ZM84.7602 48.6818V35.1818H87.0358V36.8054H87.17C87.2893 36.5668 87.4577 36.3132 87.675 36.0447C87.8923 35.772 88.1863 35.5398 88.5571 35.348C88.9278 35.152 89.4008 35.054 89.9761 35.054C90.7346 35.054 91.4186 35.2479 92.028 35.6357C92.6416 36.0192 93.1274 36.5881 93.4854 37.3423C93.8476 38.0923 94.0287 39.0128 94.0287 40.1037C94.0287 41.1818 93.8518 42.098 93.4981 42.8523C93.1444 43.6065 92.6629 44.1818 92.0535 44.5781C91.4442 44.9744 90.7538 45.1726 89.9825 45.1726C89.42 45.1726 88.9534 45.0788 88.5827 44.8913C88.2119 44.7038 87.9136 44.478 87.6878 44.2138C87.4662 43.9453 87.2936 43.6918 87.17 43.4531H87.0741V48.6818H84.7602ZM87.0294 40.0909C87.0294 40.7259 87.1189 41.282 87.2979 41.7592C87.4811 42.2365 87.7432 42.6094 88.0841 42.8778C88.4292 43.142 88.8469 43.2741 89.3369 43.2741C89.8483 43.2741 90.2765 43.1378 90.6217 42.8651C90.9669 42.5881 91.2268 42.2109 91.4015 41.7337C91.5805 41.2521 91.67 40.7045 91.67 40.0909C91.67 39.4815 91.5827 38.9403 91.4079 38.4673C91.2332 37.9943 90.9733 37.6236 90.6281 37.3551C90.2829 37.0866 89.8525 36.9524 89.3369 36.9524C88.8426 36.9524 88.4229 37.0824 88.0777 37.3423C87.7325 37.6023 87.4704 37.9666 87.2915 38.4354C87.1167 38.9041 87.0294 39.456 87.0294 40.0909ZM96.0102 48.6818V35.1818H98.2858V36.8054H98.42C98.5393 36.5668 98.7077 36.3132 98.925 36.0447C99.1423 35.772 99.4363 35.5398 99.8071 35.348C100.178 35.152 100.651 35.054 101.226 35.054C101.985 35.054 102.669 35.2479 103.278 35.6357C103.892 36.0192 104.377 36.5881 104.735 37.3423C105.098 38.0923 105.279 39.0128 105.279 40.1037C105.279 41.1818 105.102 42.098 104.748 42.8523C104.394 43.6065 103.913 44.1818 103.304 44.5781C102.694 44.9744 102.004 45.1726 101.233 45.1726C100.67 45.1726 100.203 45.0788 99.8327 44.8913C99.4619 44.7038 99.1636 44.478 98.9378 44.2138C98.7162 43.9453 98.5436 43.6918 98.42 43.4531H98.3241V48.6818H96.0102ZM98.2794 40.0909C98.2794 40.7259 98.3689 41.282 98.5479 41.7592C98.7311 42.2365 98.9932 42.6094 99.3341 42.8778C99.6792 43.142 100.097 43.2741 100.587 43.2741C101.098 43.2741 101.527 43.1378 101.872 42.8651C102.217 42.5881 102.477 42.2109 102.652 41.7337C102.831 41.2521 102.92 40.7045 102.92 40.0909C102.92 39.4815 102.833 38.9403 102.658 38.4673C102.483 37.9943 102.223 37.6236 101.878 37.3551C101.533 37.0866 101.103 36.9524 100.587 36.9524C100.093 36.9524 99.6729 37.0824 99.3277 37.3423C98.9825 37.6023 98.7204 37.9666 98.5415 38.4354C98.3667 38.9041 98.2794 39.456 98.2794 40.0909ZM109.574 31.9091V45H107.26V31.9091H109.574ZM111.954 45V35.1818H114.267V45H111.954ZM113.117 33.7884C112.75 33.7884 112.435 33.6669 112.171 33.424C111.907 33.1768 111.775 32.8807 111.775 32.5355C111.775 32.1861 111.907 31.8899 112.171 31.647C112.435 31.3999 112.75 31.2763 113.117 31.2763C113.488 31.2763 113.803 31.3999 114.063 31.647C114.327 31.8899 114.459 32.1861 114.459 32.5355C114.459 32.8807 114.327 33.1768 114.063 33.424C113.803 33.6669 113.488 33.7884 113.117 33.7884ZM120.93 45.1918C119.949 45.1918 119.108 44.9766 118.405 44.5462C117.706 44.1158 117.167 43.5213 116.788 42.7628C116.413 42 116.225 41.1222 116.225 40.1293C116.225 39.1321 116.417 38.2521 116.8 37.4893C117.184 36.7223 117.725 36.1257 118.424 35.6996C119.127 35.2692 119.958 35.054 120.917 35.054C121.714 35.054 122.419 35.201 123.033 35.495C123.65 35.7848 124.143 36.196 124.509 36.7287C124.876 37.2571 125.084 37.875 125.136 38.5824H122.924C122.834 38.1094 122.621 37.7152 122.285 37.3999C121.952 37.0803 121.507 36.9205 120.949 36.9205C120.476 36.9205 120.06 37.0483 119.702 37.304C119.344 37.5554 119.065 37.9176 118.865 38.3906C118.669 38.8636 118.571 39.4304 118.571 40.0909C118.571 40.7599 118.669 41.3352 118.865 41.8168C119.061 42.294 119.336 42.6626 119.69 42.9226C120.047 43.1783 120.467 43.3061 120.949 43.3061C121.29 43.3061 121.594 43.2422 121.863 43.1143C122.136 42.9822 122.364 42.7926 122.547 42.5455C122.73 42.2983 122.856 41.9979 122.924 41.6442H125.136C125.08 42.3388 124.876 42.9545 124.522 43.4915C124.168 44.0241 123.687 44.4418 123.077 44.7443C122.468 45.0426 121.752 45.1918 120.93 45.1918ZM129.861 45.1982C129.239 45.1982 128.678 45.0874 128.18 44.8658C127.685 44.6399 127.293 44.3075 127.004 43.8686C126.718 43.4297 126.575 42.8885 126.575 42.245C126.575 41.6911 126.678 41.233 126.882 40.8707C127.087 40.5085 127.366 40.2188 127.72 40.0014C128.073 39.7841 128.472 39.62 128.915 39.5092C129.362 39.3942 129.825 39.3111 130.302 39.2599C130.877 39.2003 131.344 39.147 131.702 39.1001C132.06 39.049 132.32 38.9723 132.482 38.87C132.648 38.7635 132.731 38.5994 132.731 38.3778V38.3395C132.731 37.858 132.588 37.4851 132.303 37.2209C132.017 36.9567 131.606 36.8246 131.069 36.8246C130.502 36.8246 130.053 36.9482 129.72 37.1953C129.392 37.4425 129.171 37.7344 129.055 38.071L126.895 37.7642C127.065 37.1676 127.347 36.669 127.739 36.2685C128.131 35.8636 128.61 35.5611 129.177 35.3608C129.744 35.1562 130.37 35.054 131.056 35.054C131.529 35.054 132 35.1094 132.469 35.2202C132.938 35.331 133.366 35.5142 133.754 35.7699C134.141 36.0213 134.453 36.3643 134.687 36.799C134.926 37.2337 135.045 37.777 135.045 38.429V45H132.82V43.6513H132.744C132.603 43.924 132.405 44.1797 132.149 44.4183C131.898 44.6527 131.58 44.8423 131.197 44.9872C130.818 45.1278 130.372 45.1982 129.861 45.1982ZM130.462 43.4979C130.926 43.4979 131.329 43.4062 131.67 43.223C132.011 43.0355 132.273 42.7884 132.456 42.4815C132.644 42.1747 132.737 41.8402 132.737 41.478V40.321C132.665 40.3807 132.541 40.4361 132.367 40.4872C132.196 40.5384 132.004 40.5831 131.791 40.6214C131.578 40.6598 131.367 40.6939 131.158 40.7237C130.95 40.7536 130.769 40.7791 130.615 40.8004C130.27 40.8473 129.961 40.924 129.688 41.0305C129.416 41.1371 129.2 41.2862 129.043 41.478C128.885 41.6655 128.806 41.9084 128.806 42.2067C128.806 42.6328 128.962 42.9545 129.273 43.1719C129.584 43.3892 129.98 43.4979 130.462 43.4979ZM142.274 35.1818V36.9716H136.63V35.1818H142.274ZM138.024 32.8295H140.337V42.0469C140.337 42.358 140.384 42.5966 140.478 42.7628C140.576 42.9247 140.704 43.0355 140.862 43.0952C141.019 43.1548 141.194 43.1847 141.386 43.1847C141.531 43.1847 141.663 43.174 141.782 43.1527C141.906 43.1314 141.999 43.1122 142.063 43.0952L142.453 44.9041C142.33 44.9467 142.153 44.9936 141.923 45.0447C141.697 45.0959 141.42 45.1257 141.092 45.1342C140.512 45.1513 139.99 45.0639 139.526 44.8722C139.061 44.6761 138.693 44.3736 138.42 43.9645C138.151 43.5554 138.019 43.044 138.024 42.4304V32.8295ZM144.209 45V35.1818H146.523V45H144.209ZM145.373 33.7884C145.006 33.7884 144.691 33.6669 144.427 33.424C144.163 33.1768 144.03 32.8807 144.03 32.5355C144.03 32.1861 144.163 31.8899 144.427 31.647C144.691 31.3999 145.006 31.2763 145.373 31.2763C145.744 31.2763 146.059 31.3999 146.319 31.647C146.583 31.8899 146.715 32.1861 146.715 32.5355C146.715 32.8807 146.583 33.1768 146.319 33.424C146.059 33.6669 145.744 33.7884 145.373 33.7884ZM153.185 45.1918C152.227 45.1918 151.396 44.9808 150.693 44.5589C149.989 44.1371 149.444 43.5469 149.056 42.7884C148.673 42.0298 148.481 41.1435 148.481 40.1293C148.481 39.1151 148.673 38.2266 149.056 37.4638C149.444 36.701 149.989 36.1087 150.693 35.6868C151.396 35.2649 152.227 35.054 153.185 35.054C154.144 35.054 154.975 35.2649 155.678 35.6868C156.381 36.1087 156.925 36.701 157.308 37.4638C157.696 38.2266 157.89 39.1151 157.89 40.1293C157.89 41.1435 157.696 42.0298 157.308 42.7884C156.925 43.5469 156.381 44.1371 155.678 44.5589C154.975 44.9808 154.144 45.1918 153.185 45.1918ZM153.198 43.3381C153.718 43.3381 154.153 43.1953 154.502 42.9098C154.852 42.62 155.112 42.2322 155.282 41.7464C155.457 41.2607 155.544 40.7195 155.544 40.1229C155.544 39.522 155.457 38.9787 155.282 38.4929C155.112 38.0028 154.852 37.6129 154.502 37.3232C154.153 37.0334 153.718 36.8885 153.198 36.8885C152.666 36.8885 152.222 37.0334 151.869 37.3232C151.519 37.6129 151.257 38.0028 151.082 38.4929C150.912 38.9787 150.827 39.522 150.827 40.1229C150.827 40.7195 150.912 41.2607 151.082 41.7464C151.257 42.2322 151.519 42.62 151.869 42.9098C152.222 43.1953 152.666 43.3381 153.198 43.3381ZM162.168 39.2472V45H159.854V35.1818H162.066V36.8501H162.181C162.407 36.3004 162.767 35.8636 163.261 35.5398C163.759 35.2159 164.375 35.054 165.108 35.054C165.786 35.054 166.376 35.1989 166.879 35.4886C167.386 35.7784 167.778 36.1982 168.055 36.7479C168.336 37.2976 168.475 37.9645 168.47 38.7486V45H166.157V39.1065C166.157 38.4503 165.986 37.9368 165.645 37.5661C165.309 37.1953 164.842 37.0099 164.245 37.0099C163.84 37.0099 163.48 37.0994 163.165 37.2784C162.854 37.4531 162.609 37.7067 162.43 38.0391C162.255 38.3714 162.168 38.7741 162.168 39.2472ZM181.545 40.8707V35.1818H183.859V45H181.616V43.255H181.513C181.292 43.8047 180.927 44.2543 180.42 44.6037C179.918 44.9531 179.297 45.1278 178.56 45.1278C177.917 45.1278 177.348 44.9851 176.854 44.6996C176.364 44.4098 175.98 43.9901 175.703 43.4403C175.426 42.8864 175.288 42.2173 175.288 41.4332V35.1818H177.601V41.0753C177.601 41.6974 177.772 42.1918 178.113 42.5582C178.454 42.9247 178.901 43.108 179.455 43.108C179.796 43.108 180.126 43.0249 180.446 42.8587C180.766 42.6925 181.028 42.4453 181.232 42.1172C181.441 41.7848 181.545 41.3693 181.545 40.8707ZM193.999 37.777L191.889 38.0071C191.83 37.794 191.725 37.5938 191.576 37.4062C191.431 37.2188 191.235 37.0675 190.988 36.9524C190.741 36.8374 190.438 36.7798 190.08 36.7798C189.599 36.7798 189.194 36.8842 188.866 37.093C188.542 37.3018 188.382 37.5724 188.386 37.9048C188.382 38.1903 188.487 38.4226 188.7 38.6016C188.917 38.7805 189.275 38.9276 189.774 39.0426L191.448 39.4006C192.377 39.6009 193.068 39.9183 193.519 40.353C193.975 40.7876 194.205 41.3565 194.21 42.0597C194.205 42.6776 194.024 43.223 193.666 43.696C193.313 44.1648 192.82 44.5312 192.19 44.7955C191.559 45.0597 190.835 45.1918 190.016 45.1918C188.815 45.1918 187.847 44.9403 187.114 44.4375C186.381 43.9304 185.945 43.2251 185.804 42.3217L188.06 42.1044C188.163 42.5476 188.38 42.8821 188.712 43.108C189.045 43.3338 189.477 43.4467 190.01 43.4467C190.56 43.4467 191.001 43.3338 191.333 43.108C191.67 42.8821 191.838 42.603 191.838 42.2706C191.838 41.9893 191.729 41.7571 191.512 41.5739C191.299 41.3906 190.967 41.25 190.515 41.152L188.84 40.8004C187.899 40.6044 187.202 40.2741 186.75 39.8097C186.298 39.3409 186.075 38.7486 186.079 38.0327C186.075 37.4276 186.239 36.9034 186.571 36.4602C186.908 36.0128 187.374 35.6676 187.971 35.4247C188.572 35.1776 189.264 35.054 190.048 35.054C191.199 35.054 192.104 35.299 192.765 35.7891C193.43 36.2791 193.841 36.9418 193.999 37.777ZM200.464 45.1918C199.48 45.1918 198.63 44.9872 197.914 44.5781C197.202 44.1648 196.655 43.581 196.271 42.8267C195.888 42.0682 195.696 41.1754 195.696 40.1484C195.696 39.1385 195.888 38.2521 196.271 37.4893C196.659 36.7223 197.2 36.1257 197.895 35.6996C198.589 35.2692 199.405 35.054 200.343 35.054C200.948 35.054 201.519 35.152 202.056 35.348C202.597 35.5398 203.074 35.8381 203.488 36.2429C203.905 36.6477 204.233 37.1634 204.472 37.7898C204.711 38.4119 204.83 39.1534 204.83 40.0142V40.7237H196.782V39.1641H202.612C202.608 38.7209 202.512 38.3267 202.324 37.9815C202.137 37.6321 201.875 37.3572 201.538 37.157C201.206 36.9567 200.818 36.8565 200.375 36.8565C199.902 36.8565 199.486 36.9716 199.128 37.2017C198.77 37.4276 198.491 37.7259 198.291 38.0966C198.095 38.4631 197.995 38.8658 197.991 39.3047V40.6662C197.991 41.2372 198.095 41.7273 198.304 42.1364C198.513 42.5412 198.804 42.8523 199.179 43.0696C199.554 43.2827 199.993 43.3892 200.496 43.3892C200.833 43.3892 201.138 43.3423 201.41 43.2486C201.683 43.1506 201.919 43.0078 202.12 42.8203C202.32 42.6328 202.471 42.4006 202.574 42.1236L204.734 42.3665C204.598 42.9375 204.338 43.4361 203.954 43.8622C203.575 44.2841 203.089 44.6122 202.497 44.8466C201.905 45.0767 201.227 45.1918 200.464 45.1918ZM214.547 37.777L212.438 38.0071C212.378 37.794 212.274 37.5938 212.125 37.4062C211.98 37.2188 211.784 37.0675 211.537 36.9524C211.29 36.8374 210.987 36.7798 210.629 36.7798C210.148 36.7798 209.743 36.8842 209.415 37.093C209.091 37.3018 208.931 37.5724 208.935 37.9048C208.931 38.1903 209.035 38.4226 209.248 38.6016C209.466 38.7805 209.824 38.9276 210.322 39.0426L211.997 39.4006C212.926 39.6009 213.616 39.9183 214.068 40.353C214.524 40.7876 214.754 41.3565 214.758 42.0597C214.754 42.6776 214.573 43.223 214.215 43.696C213.861 44.1648 213.369 44.5312 212.739 44.7955C212.108 45.0597 211.383 45.1918 210.565 45.1918C209.364 45.1918 208.396 44.9403 207.663 44.4375C206.93 43.9304 206.494 43.2251 206.353 42.3217L208.609 42.1044C208.712 42.5476 208.929 42.8821 209.261 43.108C209.594 43.3338 210.026 43.4467 210.559 43.4467C211.109 43.4467 211.55 43.3338 211.882 43.108C212.219 42.8821 212.387 42.603 212.387 42.2706C212.387 41.9893 212.278 41.7571 212.061 41.5739C211.848 41.3906 211.516 41.25 211.064 41.152L209.389 40.8004C208.447 40.6044 207.751 40.2741 207.299 39.8097C206.847 39.3409 206.623 38.7486 206.628 38.0327C206.623 37.4276 206.788 36.9034 207.12 36.4602C207.457 36.0128 207.923 35.6676 208.52 35.4247C209.121 35.1776 209.813 35.054 210.597 35.054C211.748 35.054 212.653 35.299 213.314 35.7891C213.979 36.2791 214.39 36.9418 214.547 37.777ZM222.985 31.9091L226.392 42.2131H226.526L229.927 31.9091H232.535L227.92 45H224.992L220.383 31.9091H222.985ZM237.449 45.1918C236.464 45.1918 235.614 44.9872 234.898 44.5781C234.187 44.1648 233.639 43.581 233.255 42.8267C232.872 42.0682 232.68 41.1754 232.68 40.1484C232.68 39.1385 232.872 38.2521 233.255 37.4893C233.643 36.7223 234.184 36.1257 234.879 35.6996C235.574 35.2692 236.39 35.054 237.327 35.054C237.932 35.054 238.503 35.152 239.04 35.348C239.581 35.5398 240.059 35.8381 240.472 36.2429C240.89 36.6477 241.218 37.1634 241.456 37.7898C241.695 38.4119 241.814 39.1534 241.814 40.0142V40.7237H233.767V39.1641H239.596C239.592 38.7209 239.496 38.3267 239.309 37.9815C239.121 37.6321 238.859 37.3572 238.522 37.157C238.19 36.9567 237.802 36.8565 237.359 36.8565C236.886 36.8565 236.471 36.9716 236.113 37.2017C235.755 37.4276 235.476 37.7259 235.275 38.0966C235.079 38.4631 234.979 38.8658 234.975 39.3047V40.6662C234.975 41.2372 235.079 41.7273 235.288 42.1364C235.497 42.5412 235.789 42.8523 236.164 43.0696C236.539 43.2827 236.978 43.3892 237.481 43.3892C237.817 43.3892 238.122 43.3423 238.395 43.2486C238.667 43.1506 238.904 43.0078 239.104 42.8203C239.304 42.6328 239.456 42.4006 239.558 42.1236L241.718 42.3665C241.582 42.9375 241.322 43.4361 240.939 43.8622C240.559 44.2841 240.074 44.6122 239.481 44.8466C238.889 45.0767 238.211 45.1918 237.449 45.1918ZM243.772 45V35.1818H246.016V36.8182H246.118C246.297 36.2514 246.604 35.8146 247.038 35.5078C247.477 35.1967 247.978 35.0412 248.54 35.0412C248.668 35.0412 248.811 35.0476 248.969 35.0604C249.131 35.0689 249.265 35.0838 249.371 35.1051V37.2337C249.273 37.1996 249.118 37.1697 248.905 37.1442C248.696 37.1143 248.494 37.0994 248.297 37.0994C247.876 37.0994 247.496 37.1911 247.16 37.3743C246.827 37.5533 246.565 37.8026 246.373 38.1222C246.182 38.4418 246.086 38.8104 246.086 39.228V45H243.772ZM253.558 45.1982C252.936 45.1982 252.376 45.0874 251.877 44.8658C251.383 44.6399 250.991 44.3075 250.701 43.8686C250.415 43.4297 250.273 42.8885 250.273 42.245C250.273 41.6911 250.375 41.233 250.579 40.8707C250.784 40.5085 251.063 40.2188 251.417 40.0014C251.771 39.7841 252.169 39.62 252.612 39.5092C253.06 39.3942 253.522 39.3111 253.999 39.2599C254.574 39.2003 255.041 39.147 255.399 39.1001C255.757 39.049 256.017 38.9723 256.179 38.87C256.345 38.7635 256.428 38.5994 256.428 38.3778V38.3395C256.428 37.858 256.285 37.4851 256 37.2209C255.714 36.9567 255.303 36.8246 254.766 36.8246C254.199 36.8246 253.75 36.9482 253.418 37.1953C253.089 37.4425 252.868 37.7344 252.753 38.071L250.592 37.7642C250.763 37.1676 251.044 36.669 251.436 36.2685C251.828 35.8636 252.307 35.5611 252.874 35.3608C253.441 35.1562 254.067 35.054 254.753 35.054C255.226 35.054 255.697 35.1094 256.166 35.2202C256.635 35.331 257.063 35.5142 257.451 35.7699C257.839 36.0213 258.15 36.3643 258.384 36.799C258.623 37.2337 258.742 37.777 258.742 38.429V45H256.518V43.6513H256.441C256.3 43.924 256.102 44.1797 255.847 44.4183C255.595 44.6527 255.278 44.8423 254.894 44.9872C254.515 45.1278 254.07 45.1982 253.558 45.1982ZM254.159 43.4979C254.623 43.4979 255.026 43.4062 255.367 43.223C255.708 43.0355 255.97 42.7884 256.153 42.4815C256.341 42.1747 256.435 41.8402 256.435 41.478V40.321C256.362 40.3807 256.239 40.4361 256.064 40.4872C255.893 40.5384 255.702 40.5831 255.489 40.6214C255.275 40.6598 255.065 40.6939 254.856 40.7237C254.647 40.7536 254.466 40.7791 254.312 40.8004C253.967 40.8473 253.658 40.924 253.386 41.0305C253.113 41.1371 252.898 41.2862 252.74 41.478C252.582 41.6655 252.503 41.9084 252.503 42.2067C252.503 42.6328 252.659 42.9545 252.97 43.1719C253.281 43.3892 253.677 43.4979 254.159 43.4979ZM261.171 45V31.9091H269.557V33.897H263.543V37.451H268.982V39.4389H263.543V45H261.171ZM271.616 45V35.1818H273.93V45H271.616ZM272.779 33.7884C272.413 33.7884 272.097 33.6669 271.833 33.424C271.569 33.1768 271.437 32.8807 271.437 32.5355C271.437 32.1861 271.569 31.8899 271.833 31.647C272.097 31.3999 272.413 31.2763 272.779 31.2763C273.15 31.2763 273.465 31.3999 273.725 31.647C273.989 31.8899 274.121 32.1861 274.121 32.5355C274.121 32.8807 273.989 33.1768 273.725 33.424C273.465 33.6669 273.15 33.7884 272.779 33.7884ZM285.677 35.1818V36.9716H280.032V35.1818H285.677ZM281.426 32.8295H283.74V42.0469C283.74 42.358 283.787 42.5966 283.88 42.7628C283.978 42.9247 284.106 43.0355 284.264 43.0952C284.422 43.1548 284.596 43.1847 284.788 43.1847C284.933 43.1847 285.065 43.174 285.184 43.1527C285.308 43.1314 285.402 43.1122 285.466 43.0952L285.856 44.9041C285.732 44.9467 285.555 44.9936 285.325 45.0447C285.099 45.0959 284.822 45.1257 284.494 45.1342C283.915 45.1513 283.392 45.0639 282.928 44.8722C282.464 44.6761 282.095 44.3736 281.822 43.9645C281.554 43.5554 281.422 43.044 281.426 42.4304V32.8295ZM291.789 45.1918C290.83 45.1918 289.999 44.9808 289.296 44.5589C288.593 44.1371 288.047 43.5469 287.66 42.7884C287.276 42.0298 287.084 41.1435 287.084 40.1293C287.084 39.1151 287.276 38.2266 287.66 37.4638C288.047 36.701 288.593 36.1087 289.296 35.6868C289.999 35.2649 290.83 35.054 291.789 35.054C292.748 35.054 293.579 35.2649 294.282 35.6868C294.985 36.1087 295.528 36.701 295.912 37.4638C296.3 38.2266 296.494 39.1151 296.494 40.1293C296.494 41.1435 296.3 42.0298 295.912 42.7884C295.528 43.5469 294.985 44.1371 294.282 44.5589C293.579 44.9808 292.748 45.1918 291.789 45.1918ZM291.802 43.3381C292.322 43.3381 292.756 43.1953 293.106 42.9098C293.455 42.62 293.715 42.2322 293.886 41.7464C294.06 41.2607 294.148 40.7195 294.148 40.1229C294.148 39.522 294.06 38.9787 293.886 38.4929C293.715 38.0028 293.455 37.6129 293.106 37.3232C292.756 37.0334 292.322 36.8885 291.802 36.8885C291.269 36.8885 290.826 37.0334 290.472 37.3232C290.123 37.6129 289.861 38.0028 289.686 38.4929C289.516 38.9787 289.43 39.522 289.43 40.1229C289.43 40.7195 289.516 41.2607 289.686 41.7464C289.861 42.2322 290.123 42.62 290.472 42.9098C290.826 43.1953 291.269 43.3381 291.802 43.3381ZM307.895 35.1818V36.9716H302.091V35.1818H307.895ZM303.542 45V34.255C303.542 33.5945 303.679 33.0447 303.951 32.6058C304.228 32.1669 304.599 31.8388 305.064 31.6214C305.528 31.4041 306.044 31.2955 306.611 31.2955C307.011 31.2955 307.367 31.3274 307.678 31.3913C307.989 31.4553 308.219 31.5128 308.368 31.5639L307.908 33.3537C307.81 33.3239 307.687 33.294 307.537 33.2642C307.388 33.2301 307.222 33.2131 307.039 33.2131C306.608 33.2131 306.304 33.3175 306.125 33.5263C305.95 33.7308 305.863 34.0249 305.863 34.4084V45H303.542ZM309.707 45V35.1818H312.021V45H309.707ZM310.871 33.7884C310.504 33.7884 310.189 33.6669 309.925 33.424C309.661 33.1768 309.528 32.8807 309.528 32.5355C309.528 32.1861 309.661 31.8899 309.925 31.647C310.189 31.3999 310.504 31.2763 310.871 31.2763C311.242 31.2763 311.557 31.3999 311.817 31.647C312.081 31.8899 312.213 32.1861 312.213 32.5355C312.213 32.8807 312.081 33.1768 311.817 33.424C311.557 33.6669 311.242 33.7884 310.871 33.7884ZM316.715 39.2472V45H314.401V35.1818H316.612V36.8501H316.728C316.953 36.3004 317.313 35.8636 317.808 35.5398C318.306 35.2159 318.922 35.054 319.655 35.054C320.333 35.054 320.923 35.1989 321.426 35.4886C321.933 35.7784 322.325 36.1982 322.602 36.7479C322.883 37.2976 323.022 37.9645 323.017 38.7486V45H320.703V39.1065C320.703 38.4503 320.533 37.9368 320.192 37.5661C319.855 37.1953 319.389 37.0099 318.792 37.0099C318.387 37.0099 318.027 37.0994 317.712 37.2784C317.401 37.4531 317.156 37.7067 316.977 38.0391C316.802 38.3714 316.715 38.7741 316.715 39.2472ZM329.013 45.1726C328.242 45.1726 327.551 44.9744 326.942 44.5781C326.333 44.1818 325.851 43.6065 325.497 42.8523C325.144 42.098 324.967 41.1818 324.967 40.1037C324.967 39.0128 325.146 38.0923 325.504 37.3423C325.866 36.5881 326.354 36.0192 326.968 35.6357C327.581 35.2479 328.265 35.054 329.019 35.054C329.595 35.054 330.068 35.152 330.438 35.348C330.809 35.5398 331.103 35.772 331.321 36.0447C331.538 36.3132 331.706 36.5668 331.826 36.8054H331.921V31.9091H334.242V45H331.966V43.4531H331.826C331.706 43.6918 331.534 43.9453 331.308 44.2138C331.082 44.478 330.784 44.7038 330.413 44.8913C330.042 45.0788 329.576 45.1726 329.013 45.1726ZM329.659 43.2741C330.149 43.2741 330.566 43.142 330.911 42.8778C331.257 42.6094 331.519 42.2365 331.698 41.7592C331.877 41.282 331.966 40.7259 331.966 40.0909C331.966 39.456 331.877 38.9041 331.698 38.4354C331.523 37.9666 331.263 37.6023 330.918 37.3423C330.577 37.0824 330.157 36.9524 329.659 36.9524C329.143 36.9524 328.713 37.0866 328.367 37.3551C328.022 37.6236 327.762 37.9943 327.588 38.4673C327.413 38.9403 327.326 39.4815 327.326 40.0909C327.326 40.7045 327.413 41.2521 327.588 41.7337C327.767 42.2109 328.029 42.5881 328.374 42.8651C328.723 43.1378 329.152 43.2741 329.659 43.2741ZM345.455 45.1918C344.496 45.1918 343.665 44.9808 342.962 44.5589C342.259 44.1371 341.714 43.5469 341.326 42.7884C340.942 42.0298 340.75 41.1435 340.75 40.1293C340.75 39.1151 340.942 38.2266 341.326 37.4638C341.714 36.701 342.259 36.1087 342.962 35.6868C343.665 35.2649 344.496 35.054 345.455 35.054C346.414 35.054 347.245 35.2649 347.948 35.6868C348.651 36.1087 349.194 36.701 349.578 37.4638C349.966 38.2266 350.16 39.1151 350.16 40.1293C350.16 41.1435 349.966 42.0298 349.578 42.7884C349.194 43.5469 348.651 44.1371 347.948 44.5589C347.245 44.9808 346.414 45.1918 345.455 45.1918ZM345.468 43.3381C345.988 43.3381 346.422 43.1953 346.772 42.9098C347.121 42.62 347.381 42.2322 347.552 41.7464C347.726 41.2607 347.814 40.7195 347.814 40.1229C347.814 39.522 347.726 38.9787 347.552 38.4929C347.381 38.0028 347.121 37.6129 346.772 37.3232C346.422 37.0334 345.988 36.8885 345.468 36.8885C344.935 36.8885 344.492 37.0334 344.138 37.3232C343.789 37.6129 343.527 38.0028 343.352 38.4929C343.182 38.9787 343.096 39.522 343.096 40.1229C343.096 40.7195 343.182 41.2607 343.352 41.7464C343.527 42.2322 343.789 42.62 344.138 42.9098C344.492 43.1953 344.935 43.3381 345.468 43.3381ZM358.381 40.8707V35.1818H360.695V45H358.452V43.255H358.349C358.128 43.8047 357.763 44.2543 357.256 44.6037C356.753 44.9531 356.133 45.1278 355.396 45.1278C354.753 45.1278 354.184 44.9851 353.69 44.6996C353.199 44.4098 352.816 43.9901 352.539 43.4403C352.262 42.8864 352.123 42.2173 352.123 41.4332V35.1818H354.437V41.0753C354.437 41.6974 354.608 42.1918 354.949 42.5582C355.29 42.9247 355.737 43.108 356.291 43.108C356.632 43.108 356.962 43.0249 357.282 42.8587C357.601 42.6925 357.864 42.4453 358.068 42.1172C358.277 41.7848 358.381 41.3693 358.381 40.8707ZM367.977 35.1818V36.9716H362.333V35.1818H367.977ZM363.727 32.8295H366.041V42.0469C366.041 42.358 366.087 42.5966 366.181 42.7628C366.279 42.9247 366.407 43.0355 366.565 43.0952C366.722 43.1548 366.897 43.1847 367.089 43.1847C367.234 43.1847 367.366 43.174 367.485 43.1527C367.609 43.1314 367.703 43.1122 367.766 43.0952L368.156 44.9041C368.033 44.9467 367.856 44.9936 367.626 45.0447C367.4 45.0959 367.123 45.1257 366.795 45.1342C366.215 45.1513 365.693 45.0639 365.229 44.8722C364.764 44.6761 364.396 44.3736 364.123 43.9645C363.854 43.5554 363.722 43.044 363.727 42.4304V32.8295ZM126.584 76.6818C126.269 76.6818 125.977 76.6563 125.708 76.6051C125.444 76.5582 125.233 76.5028 125.076 76.4389L125.613 74.6364C125.949 74.7344 126.25 74.7813 126.514 74.777C126.778 74.7727 127.01 74.6896 127.211 74.5277C127.415 74.37 127.588 74.1058 127.728 73.7351L127.926 73.2045L124.366 63.1818H126.821L129.083 70.5966H129.186L131.455 63.1818H133.916L129.985 74.1889C129.801 74.7088 129.559 75.1541 129.256 75.5249C128.953 75.8999 128.583 76.1854 128.144 76.3814C127.709 76.5817 127.189 76.6818 126.584 76.6818ZM139.466 73.1918C138.507 73.1918 137.676 72.9808 136.973 72.5589C136.27 72.1371 135.724 71.5469 135.336 70.7884C134.953 70.0298 134.761 69.1435 134.761 68.1293C134.761 67.1151 134.953 66.2266 135.336 65.4638C135.724 64.701 136.27 64.1087 136.973 63.6868C137.676 63.2649 138.507 63.054 139.466 63.054C140.425 63.054 141.256 63.2649 141.959 63.6868C142.662 64.1087 143.205 64.701 143.589 65.4638C143.976 66.2266 144.17 67.1151 144.17 68.1293C144.17 69.1435 143.976 70.0298 143.589 70.7884C143.205 71.5469 142.662 72.1371 141.959 72.5589C141.256 72.9808 140.425 73.1918 139.466 73.1918ZM139.479 71.3381C139.998 71.3381 140.433 71.1953 140.782 70.9098C141.132 70.62 141.392 70.2322 141.562 69.7464C141.737 69.2607 141.824 68.7195 141.824 68.1229C141.824 67.522 141.737 66.9787 141.562 66.4929C141.392 66.0028 141.132 65.6129 140.782 65.3232C140.433 65.0334 139.998 64.8885 139.479 64.8885C138.946 64.8885 138.503 65.0334 138.149 65.3232C137.8 65.6129 137.537 66.0028 137.363 66.4929C137.192 66.9787 137.107 67.522 137.107 68.1229C137.107 68.7195 137.192 69.2607 137.363 69.7464C137.537 70.2322 137.8 70.62 138.149 70.9098C138.503 71.1953 138.946 71.3381 139.479 71.3381ZM152.392 68.8707V63.1818H154.706V73H152.462V71.255H152.36C152.138 71.8047 151.774 72.2543 151.267 72.6037C150.764 72.9531 150.144 73.1278 149.407 73.1278C148.763 73.1278 148.195 72.9851 147.7 72.6996C147.21 72.4098 146.827 71.9901 146.55 71.4403C146.273 70.8864 146.134 70.2173 146.134 69.4332V63.1818H148.448V69.0753C148.448 69.6974 148.619 70.1918 148.96 70.5582C149.3 70.9247 149.748 71.108 150.302 71.108C150.643 71.108 150.973 71.0249 151.293 70.8587C151.612 70.6925 151.874 70.4453 152.079 70.1172C152.288 69.7848 152.392 69.3693 152.392 68.8707ZM157.085 73V63.1818H159.329V64.8182H159.431C159.61 64.2514 159.917 63.8146 160.352 63.5078C160.791 63.1967 161.291 63.0412 161.854 63.0412C161.982 63.0412 162.124 63.0476 162.282 63.0604C162.444 63.0689 162.578 63.0838 162.685 63.1051V65.2337C162.587 65.1996 162.431 65.1697 162.218 65.1442C162.009 65.1143 161.807 65.0994 161.611 65.0994C161.189 65.0994 160.81 65.1911 160.473 65.3743C160.141 65.5533 159.879 65.8026 159.687 66.1222C159.495 66.4418 159.399 66.8104 159.399 67.228V73H157.085ZM179.994 64.326H177.604C177.536 63.9339 177.41 63.5866 177.227 63.2841C177.044 62.9773 176.816 62.7173 176.543 62.5043C176.27 62.2912 175.959 62.1314 175.61 62.0249C175.264 61.9141 174.892 61.8587 174.491 61.8587C173.779 61.8587 173.149 62.0376 172.599 62.3956C172.049 62.7493 171.619 63.2692 171.308 63.9553C170.997 64.6371 170.841 65.4702 170.841 66.4545C170.841 67.456 170.997 68.2997 171.308 68.9858C171.623 69.6676 172.053 70.1832 172.599 70.5327C173.149 70.8778 173.777 71.0504 174.485 71.0504C174.877 71.0504 175.243 70.9993 175.584 70.897C175.929 70.7905 176.238 70.6349 176.511 70.4304C176.788 70.2259 177.02 69.9744 177.208 69.6761C177.399 69.3778 177.531 69.0369 177.604 68.6534L179.994 68.6662C179.905 69.2884 179.711 69.8722 179.413 70.4176C179.119 70.9631 178.733 71.4446 178.256 71.8622C177.779 72.2756 177.22 72.5994 176.581 72.8338C175.942 73.0639 175.232 73.179 174.453 73.179C173.302 73.179 172.275 72.9126 171.372 72.38C170.468 71.8473 169.757 71.0781 169.237 70.0724C168.717 69.0668 168.457 67.8608 168.457 66.4545C168.457 65.044 168.719 63.8381 169.243 62.8366C169.767 61.831 170.481 61.0618 171.384 60.5291C172.288 59.9964 173.311 59.7301 174.453 59.7301C175.181 59.7301 175.859 59.8324 176.485 60.0369C177.112 60.2415 177.67 60.5419 178.16 60.9382C178.65 61.3303 179.053 61.8118 179.368 62.3828C179.688 62.9496 179.896 63.5973 179.994 64.326ZM182.064 73V63.1818H184.308V64.8182H184.41C184.589 64.2514 184.896 63.8146 185.33 63.5078C185.769 63.1967 186.27 63.0412 186.832 63.0412C186.96 63.0412 187.103 63.0476 187.261 63.0604C187.423 63.0689 187.557 63.0838 187.663 63.1051V65.2337C187.565 65.1996 187.41 65.1697 187.197 65.1442C186.988 65.1143 186.786 65.0994 186.589 65.0994C186.168 65.0994 185.788 65.1911 185.452 65.3743C185.119 65.5533 184.857 65.8026 184.665 66.1222C184.474 66.4418 184.378 66.8104 184.378 67.228V73H182.064ZM193.143 73.1918C192.159 73.1918 191.308 72.9872 190.593 72.5781C189.881 72.1648 189.333 71.581 188.95 70.8267C188.566 70.0682 188.374 69.1754 188.374 68.1484C188.374 67.1385 188.566 66.2521 188.95 65.4893C189.338 64.7223 189.879 64.1257 190.573 63.6996C191.268 63.2692 192.084 63.054 193.021 63.054C193.627 63.054 194.198 63.152 194.735 63.348C195.276 63.5398 195.753 63.8381 196.166 64.2429C196.584 64.6477 196.912 65.1634 197.151 65.7898C197.389 66.4119 197.509 67.1534 197.509 68.0142V68.7237H189.461V67.1641H195.291C195.286 66.7209 195.191 66.3267 195.003 65.9815C194.816 65.6321 194.553 65.3572 194.217 65.157C193.884 64.9567 193.497 64.8565 193.053 64.8565C192.58 64.8565 192.165 64.9716 191.807 65.2017C191.449 65.4276 191.17 65.7259 190.97 66.0966C190.774 66.4631 190.673 66.8658 190.669 67.3047V68.6662C190.669 69.2372 190.774 69.7273 190.982 70.1364C191.191 70.5412 191.483 70.8523 191.858 71.0696C192.233 71.2827 192.672 71.3892 193.175 71.3892C193.512 71.3892 193.816 71.3423 194.089 71.2486C194.362 71.1506 194.598 71.0078 194.798 70.8203C194.999 70.6328 195.15 70.4006 195.252 70.1236L197.413 70.3665C197.276 70.9375 197.017 71.4361 196.633 71.8622C196.254 72.2841 195.768 72.6122 195.176 72.8466C194.583 73.0767 193.906 73.1918 193.143 73.1918ZM203.11 73.1726C202.338 73.1726 201.648 72.9744 201.039 72.5781C200.429 72.1818 199.948 71.6065 199.594 70.8523C199.24 70.098 199.064 69.1818 199.064 68.1037C199.064 67.0128 199.243 66.0923 199.6 65.3423C199.963 64.5881 200.451 64.0192 201.064 63.6357C201.678 63.2479 202.362 63.054 203.116 63.054C203.691 63.054 204.164 63.152 204.535 63.348C204.906 63.5398 205.2 63.772 205.417 64.0447C205.635 64.3132 205.803 64.5668 205.922 64.8054H206.018V59.9091H208.338V73H206.063V71.4531H205.922C205.803 71.6918 205.63 71.9453 205.404 72.2138C205.179 72.478 204.88 72.7038 204.51 72.8913C204.139 73.0788 203.672 73.1726 203.11 73.1726ZM203.755 71.2741C204.245 71.2741 204.663 71.142 205.008 70.8778C205.353 70.6094 205.615 70.2365 205.794 69.7592C205.973 69.282 206.063 68.7259 206.063 68.0909C206.063 67.456 205.973 66.9041 205.794 66.4354C205.62 65.9666 205.36 65.6023 205.015 65.3423C204.674 65.0824 204.254 64.9524 203.755 64.9524C203.24 64.9524 202.809 65.0866 202.464 65.3551C202.119 65.6236 201.859 65.9943 201.684 66.4673C201.51 66.9403 201.422 67.4815 201.422 68.0909C201.422 68.7045 201.51 69.2521 201.684 69.7337C201.863 70.2109 202.125 70.5881 202.471 70.8651C202.82 71.1378 203.248 71.2741 203.755 71.2741ZM210.804 73V63.1818H213.118V73H210.804ZM211.968 61.7884C211.601 61.7884 211.286 61.6669 211.021 61.424C210.757 61.1768 210.625 60.8807 210.625 60.5355C210.625 60.1861 210.757 59.8899 211.021 59.647C211.286 59.3999 211.601 59.2763 211.968 59.2763C212.338 59.2763 212.654 59.3999 212.914 59.647C213.178 59.8899 213.31 60.1861 213.31 60.5355C213.31 60.8807 213.178 61.1768 212.914 61.424C212.654 61.6669 212.338 61.7884 211.968 61.7884ZM220.4 63.1818V64.9716H214.756V63.1818H220.4ZM216.15 60.8295H218.463V70.0469C218.463 70.358 218.51 70.5966 218.604 70.7628C218.702 70.9247 218.83 71.0355 218.988 71.0952C219.145 71.1548 219.32 71.1847 219.512 71.1847C219.657 71.1847 219.789 71.174 219.908 71.1527C220.032 71.1314 220.125 71.1122 220.189 71.0952L220.579 72.9041C220.456 72.9467 220.279 72.9936 220.049 73.0447C219.823 73.0959 219.546 73.1257 219.218 73.1342C218.638 73.1513 218.116 73.0639 217.652 72.8722C217.187 72.6761 216.819 72.3736 216.546 71.9645C216.277 71.5554 216.145 71.044 216.15 70.4304V60.8295ZM234.017 63.5078C233.957 62.9496 233.706 62.5149 233.263 62.2038C232.824 61.8928 232.253 61.7372 231.55 61.7372C231.055 61.7372 230.631 61.8118 230.278 61.9609C229.924 62.1101 229.653 62.3125 229.466 62.5682C229.278 62.8239 229.182 63.1158 229.178 63.4439C229.178 63.7166 229.24 63.9531 229.363 64.1534C229.491 64.3537 229.664 64.5241 229.881 64.6648C230.099 64.8011 230.339 64.9162 230.604 65.0099C230.868 65.1037 231.134 65.1825 231.403 65.2464L232.63 65.5533C233.124 65.6683 233.599 65.8239 234.055 66.0199C234.515 66.2159 234.927 66.4631 235.289 66.7614C235.655 67.0597 235.945 67.4197 236.158 67.8416C236.371 68.2635 236.478 68.7578 236.478 69.3246C236.478 70.0916 236.282 70.767 235.89 71.3509C235.498 71.9304 234.931 72.3842 234.189 72.7124C233.452 73.0362 232.559 73.1982 231.511 73.1982C230.493 73.1982 229.608 73.0405 228.858 72.7251C228.113 72.4098 227.529 71.9496 227.107 71.3445C226.689 70.7393 226.464 70.0021 226.43 69.1328H228.763C228.797 69.5888 228.937 69.968 229.184 70.2706C229.432 70.5732 229.753 70.799 230.15 70.9482C230.55 71.0973 230.998 71.1719 231.492 71.1719C232.008 71.1719 232.459 71.0952 232.847 70.9418C233.239 70.7841 233.546 70.5668 233.768 70.2898C233.989 70.0085 234.102 69.6804 234.106 69.3054C234.102 68.9645 234.002 68.6832 233.806 68.4616C233.61 68.2358 233.335 68.0483 232.981 67.8991C232.632 67.7457 232.223 67.6094 231.754 67.4901L230.265 67.1065C229.187 66.8295 228.334 66.4098 227.708 65.8473C227.086 65.2805 226.775 64.5284 226.775 63.5909C226.775 62.8196 226.983 62.1442 227.401 61.5646C227.823 60.9851 228.396 60.5355 229.121 60.2159C229.845 59.892 230.665 59.7301 231.581 59.7301C232.51 59.7301 233.324 59.892 234.023 60.2159C234.726 60.5355 235.278 60.9808 235.679 61.5518C236.079 62.1186 236.286 62.7706 236.299 63.5078H234.017ZM242.772 73.1918C241.792 73.1918 240.951 72.9766 240.248 72.5462C239.549 72.1158 239.01 71.5213 238.63 70.7628C238.255 70 238.068 69.1222 238.068 68.1293C238.068 67.1321 238.26 66.2521 238.643 65.4893C239.027 64.7223 239.568 64.1257 240.267 63.6996C240.97 63.2692 241.801 63.054 242.76 63.054C243.556 63.054 244.262 63.201 244.875 63.495C245.493 63.7848 245.985 64.196 246.352 64.7287C246.718 65.2571 246.927 65.875 246.978 66.5824H244.767C244.677 66.1094 244.464 65.7152 244.127 65.3999C243.795 65.0803 243.35 64.9205 242.792 64.9205C242.319 64.9205 241.903 65.0483 241.545 65.304C241.187 65.5554 240.908 65.9176 240.708 66.3906C240.512 66.8636 240.414 67.4304 240.414 68.0909C240.414 68.7599 240.512 69.3352 240.708 69.8168C240.904 70.294 241.179 70.6626 241.532 70.9226C241.89 71.1783 242.31 71.3061 242.792 71.3061C243.132 71.3061 243.437 71.2422 243.706 71.1143C243.978 70.9822 244.206 70.7926 244.39 70.5455C244.573 70.2983 244.699 69.9979 244.767 69.6442H246.978C246.923 70.3388 246.718 70.9545 246.365 71.4915C246.011 72.0241 245.529 72.4418 244.92 72.7443C244.311 73.0426 243.595 73.1918 242.772 73.1918ZM253.161 73.1918C252.202 73.1918 251.371 72.9808 250.668 72.5589C249.965 72.1371 249.42 71.5469 249.032 70.7884C248.648 70.0298 248.456 69.1435 248.456 68.1293C248.456 67.1151 248.648 66.2266 249.032 65.4638C249.42 64.701 249.965 64.1087 250.668 63.6868C251.371 63.2649 252.202 63.054 253.161 63.054C254.12 63.054 254.951 63.2649 255.654 63.6868C256.357 64.1087 256.9 64.701 257.284 65.4638C257.672 66.2266 257.866 67.1151 257.866 68.1293C257.866 69.1435 257.672 70.0298 257.284 70.7884C256.9 71.5469 256.357 72.1371 255.654 72.5589C254.951 72.9808 254.12 73.1918 253.161 73.1918ZM253.174 71.3381C253.694 71.3381 254.128 71.1953 254.478 70.9098C254.827 70.62 255.087 70.2322 255.258 69.7464C255.432 69.2607 255.52 68.7195 255.52 68.1229C255.52 67.522 255.432 66.9787 255.258 66.4929C255.087 66.0028 254.827 65.6129 254.478 65.3232C254.128 65.0334 253.694 64.8885 253.174 64.8885C252.641 64.8885 252.198 65.0334 251.844 65.3232C251.495 65.6129 251.233 66.0028 251.058 66.4929C250.888 66.9787 250.802 67.522 250.802 68.1229C250.802 68.7195 250.888 69.2607 251.058 69.7464C251.233 70.2322 251.495 70.62 251.844 70.9098C252.198 71.1953 252.641 71.3381 253.174 71.3381ZM259.83 73V63.1818H262.073V64.8182H262.175C262.354 64.2514 262.661 63.8146 263.096 63.5078C263.535 63.1967 264.036 63.0412 264.598 63.0412C264.726 63.0412 264.869 63.0476 265.026 63.0604C265.188 63.0689 265.322 63.0838 265.429 63.1051V65.2337C265.331 65.1996 265.175 65.1697 264.962 65.1442C264.754 65.1143 264.551 65.0994 264.355 65.0994C263.933 65.0994 263.554 65.1911 263.217 65.3743C262.885 65.5533 262.623 65.8026 262.431 66.1222C262.239 66.4418 262.143 66.8104 262.143 67.228V73H259.83ZM270.909 73.1918C269.924 73.1918 269.074 72.9872 268.358 72.5781C267.646 72.1648 267.099 71.581 266.715 70.8267C266.332 70.0682 266.14 69.1754 266.14 68.1484C266.14 67.1385 266.332 66.2521 266.715 65.4893C267.103 64.7223 267.644 64.1257 268.339 63.6996C269.034 63.2692 269.85 63.054 270.787 63.054C271.392 63.054 271.963 63.152 272.5 63.348C273.041 63.5398 273.519 63.8381 273.932 64.2429C274.35 64.6477 274.678 65.1634 274.916 65.7898C275.155 66.4119 275.274 67.1534 275.274 68.0142V68.7237H267.227V67.1641H273.056C273.052 66.7209 272.956 66.3267 272.769 65.9815C272.581 65.6321 272.319 65.3572 271.982 65.157C271.65 64.9567 271.262 64.8565 270.819 64.8565C270.346 64.8565 269.931 64.9716 269.573 65.2017C269.215 65.4276 268.936 65.7259 268.735 66.0966C268.539 66.4631 268.439 66.8658 268.435 67.3047V68.6662C268.435 69.2372 268.539 69.7273 268.748 70.1364C268.957 70.5412 269.249 70.8523 269.624 71.0696C269.999 71.2827 270.438 71.3892 270.941 71.3892C271.277 71.3892 271.582 71.3423 271.855 71.2486C272.127 71.1506 272.364 71.0078 272.564 70.8203C272.764 70.6328 272.916 70.4006 273.018 70.1236L275.178 70.3665C275.042 70.9375 274.782 71.4361 274.399 71.8622C274.019 72.2841 273.534 72.6122 272.941 72.8466C272.349 73.0767 271.671 73.1918 270.909 73.1918Z" fill="#101828"/>
<path d="M35.2875 92H34.0545C33.9816 91.6454 33.854 91.3338 33.6717 91.0653C33.4927 90.7969 33.274 90.5715 33.0154 90.3892C32.7602 90.2036 32.4769 90.0644 32.1653 89.9716C31.8538 89.8788 31.5289 89.8324 31.1909 89.8324C30.5744 89.8324 30.0159 89.9882 29.5154 90.2997C29.0183 90.6113 28.6222 91.0703 28.3272 91.6768C28.0356 92.2834 27.8897 93.0275 27.8897 93.9091C27.8897 94.7907 28.0356 95.5348 28.3272 96.1413C28.6222 96.7479 29.0183 97.2069 29.5154 97.5185C30.0159 97.83 30.5744 97.9858 31.1909 97.9858C31.5289 97.9858 31.8538 97.9394 32.1653 97.8466C32.4769 97.7538 32.7602 97.6162 33.0154 97.4339C33.274 97.2483 33.4927 97.0213 33.6717 96.7528C33.854 96.4811 33.9816 96.1695 34.0545 95.8182H35.2875C35.1947 96.3385 35.0256 96.8042 34.7804 97.2152C34.5351 97.6262 34.2302 97.9759 33.8656 98.2642C33.501 98.5492 33.0917 98.7663 32.6376 98.9155C32.1868 99.0646 31.7046 99.1392 31.1909 99.1392C30.3225 99.1392 29.5502 98.9271 28.8741 98.5028C28.198 98.0786 27.666 97.4754 27.2782 96.6932C26.8904 95.911 26.6966 94.983 26.6966 93.9091C26.6966 92.8352 26.8904 91.9072 27.2782 91.125C27.666 90.3428 28.198 89.7396 28.8741 89.3153C29.5502 88.8911 30.3225 88.679 31.1909 88.679C31.7046 88.679 32.1868 88.7536 32.6376 88.9027C33.0917 89.0518 33.501 89.2706 33.8656 89.5589C34.2302 89.844 34.5351 90.192 34.7804 90.603C35.0256 91.0107 35.1947 91.4763 35.2875 92ZM40.223 99.1591C39.5336 99.1591 38.9287 98.995 38.4084 98.6669C37.8913 98.3388 37.487 97.8797 37.1953 97.2898C36.907 96.6998 36.7628 96.0104 36.7628 95.2216C36.7628 94.4261 36.907 93.7318 37.1953 93.1385C37.487 92.5452 37.8913 92.0845 38.4084 91.7564C38.9287 91.4283 39.5336 91.2642 40.223 91.2642C40.9124 91.2642 41.5156 91.4283 42.0327 91.7564C42.553 92.0845 42.9574 92.5452 43.2457 93.1385C43.5374 93.7318 43.6832 94.4261 43.6832 95.2216C43.6832 96.0104 43.5374 96.6998 43.2457 97.2898C42.9574 97.8797 42.553 98.3388 42.0327 98.6669C41.5156 98.995 40.9124 99.1591 40.223 99.1591ZM40.223 98.1051C40.7467 98.1051 41.1776 97.9709 41.5156 97.7024C41.8537 97.4339 42.1039 97.081 42.2663 96.6435C42.4287 96.206 42.5099 95.732 42.5099 95.2216C42.5099 94.7112 42.4287 94.2356 42.2663 93.7947C42.1039 93.3539 41.8537 92.9976 41.5156 92.7259C41.1776 92.4541 40.7467 92.3182 40.223 92.3182C39.6993 92.3182 39.2685 92.4541 38.9304 92.7259C38.5923 92.9976 38.3421 93.3539 38.1797 93.7947C38.0173 94.2356 37.9361 94.7112 37.9361 95.2216C37.9361 95.732 38.0173 96.206 38.1797 96.6435C38.3421 97.081 38.5923 97.4339 38.9304 97.7024C39.2685 97.9709 39.6993 98.1051 40.223 98.1051ZM46.6475 94.4062V99H45.4743V91.3636H46.6078V92.5568H46.7072C46.8862 92.169 47.158 91.8575 47.5225 91.6222C47.8871 91.3835 48.3578 91.2642 48.9345 91.2642C49.4515 91.2642 49.9039 91.3703 50.2917 91.5824C50.6795 91.7912 50.9811 92.1094 51.1966 92.5369C51.412 92.9612 51.5197 93.4981 51.5197 94.1477V99H50.3464V94.2273C50.3464 93.6274 50.1906 93.16 49.8791 92.8253C49.5675 92.4872 49.14 92.3182 48.5964 92.3182C48.2219 92.3182 47.8871 92.3994 47.5922 92.5618C47.3005 92.7242 47.0701 92.9612 46.9011 93.2727C46.7321 93.5843 46.6475 93.9621 46.6475 94.4062ZM54.837 94.4062V99H53.6637V91.3636H54.7972V92.5568H54.8967C55.0756 92.169 55.3474 91.8575 55.712 91.6222C56.0766 91.3835 56.5472 91.2642 57.1239 91.2642C57.641 91.2642 58.0934 91.3703 58.4812 91.5824C58.869 91.7912 59.1706 92.1094 59.386 92.5369C59.6014 92.9612 59.7092 93.4981 59.7092 94.1477V99H58.5359V94.2273C58.5359 93.6274 58.3801 93.16 58.0685 92.8253C57.757 92.4872 57.3294 92.3182 56.7859 92.3182C56.4113 92.3182 56.0766 92.3994 55.7816 92.5618C55.4899 92.7242 55.2596 92.9612 55.0906 93.2727C54.9215 93.5843 54.837 93.9621 54.837 94.4062ZM65.0549 99.1591C64.3191 99.1591 63.6844 98.9967 63.1507 98.6719C62.6204 98.3438 62.2111 97.8864 61.9228 97.2997C61.6377 96.7098 61.4952 96.0237 61.4952 95.2415C61.4952 94.4593 61.6377 93.7699 61.9228 93.1733C62.2111 92.5734 62.6122 92.1061 63.1259 91.7713C63.6429 91.4332 64.2462 91.2642 64.9355 91.2642C65.3333 91.2642 65.726 91.3305 66.1138 91.4631C66.5016 91.5956 66.8546 91.8111 67.1728 92.1094C67.4909 92.4044 67.7445 92.7955 67.9334 93.2827C68.1223 93.7699 68.2168 94.3698 68.2168 95.0824V95.5795H62.3304V94.5653H67.0236C67.0236 94.1345 66.9374 93.75 66.7651 93.4119C66.5961 93.0739 66.3541 92.8071 66.0392 92.6115C65.7277 92.416 65.3598 92.3182 64.9355 92.3182C64.4682 92.3182 64.0639 92.4342 63.7225 92.6662C63.3844 92.8949 63.1242 93.1932 62.9419 93.5611C62.7596 93.929 62.6685 94.3234 62.6685 94.7443V95.4205C62.6685 95.9972 62.7679 96.486 62.9668 96.8871C63.169 97.2848 63.449 97.5881 63.807 97.7969C64.165 98.0024 64.5809 98.1051 65.0549 98.1051C65.3631 98.1051 65.6415 98.062 65.8901 97.9759C66.142 97.8864 66.3591 97.7538 66.5414 97.5781C66.7237 97.3991 66.8645 97.1771 66.964 96.9119L68.0975 97.2301C67.9782 97.6146 67.7776 97.9527 67.4959 98.2443C67.2142 98.5327 66.8662 98.758 66.4519 98.9205C66.0376 99.0795 65.5719 99.1591 65.0549 99.1591ZM73.1039 99.1591C72.388 99.1591 71.7715 98.9901 71.2544 98.652C70.7374 98.3139 70.3397 97.8482 70.0613 97.255C69.7828 96.6617 69.6436 95.9839 69.6436 95.2216C69.6436 94.446 69.7862 93.7616 70.0712 93.1683C70.3596 92.5717 70.7606 92.1061 71.2743 91.7713C71.7914 91.4332 72.3946 91.2642 73.084 91.2642C73.6209 91.2642 74.1048 91.3636 74.5357 91.5625C74.9666 91.7614 75.3195 92.0398 75.5946 92.3977C75.8697 92.7557 76.0404 93.1733 76.1067 93.6506H74.9334C74.8439 93.3026 74.6451 92.9943 74.3368 92.7259C74.0319 92.4541 73.6209 92.3182 73.1039 92.3182C72.6465 92.3182 72.2454 92.4375 71.9007 92.6761C71.5594 92.9115 71.2926 93.2446 71.1003 93.6754C70.9114 94.103 70.8169 94.6051 70.8169 95.1818C70.8169 95.7718 70.9097 96.2855 71.0953 96.723C71.2843 97.1605 71.5494 97.5002 71.8908 97.7422C72.2355 97.9841 72.6399 98.1051 73.1039 98.1051C73.4088 98.1051 73.6855 98.0521 73.9341 97.946C74.1827 97.84 74.3932 97.6875 74.5655 97.4886C74.7379 97.2898 74.8605 97.0511 74.9334 96.7727H76.1067C76.0404 97.2235 75.8764 97.6295 75.6145 97.9908C75.356 98.3487 75.013 98.6338 74.5854 98.8459C74.1612 99.0547 73.6673 99.1591 73.1039 99.1591ZM81.1429 91.3636V92.358H77.1855V91.3636H81.1429ZM78.339 89.5341H79.5123V96.8125C79.5123 97.1439 79.5603 97.3925 79.6564 97.5582C79.7559 97.7206 79.8818 97.83 80.0343 97.8864C80.19 97.9394 80.3541 97.9659 80.5265 97.9659C80.6557 97.9659 80.7618 97.9593 80.8446 97.946C80.9275 97.9295 80.9938 97.9162 81.0435 97.9062L81.2821 98.9602C81.2026 98.9901 81.0916 99.0199 80.949 99.0497C80.8065 99.0829 80.6259 99.0994 80.4071 99.0994C80.0757 99.0994 79.7509 99.0282 79.4327 98.8857C79.1178 98.7431 78.856 98.526 78.6472 98.2344C78.4417 97.9427 78.339 97.5748 78.339 97.1307V89.5341ZM86.8453 99V91.3636H88.0186V99H86.8453ZM87.4419 90.0909C87.2132 90.0909 87.016 90.013 86.8503 89.8572C86.6879 89.7015 86.6067 89.5142 86.6067 89.2955C86.6067 89.0767 86.6879 88.8894 86.8503 88.7337C87.016 88.5779 87.2132 88.5 87.4419 88.5C87.6706 88.5 87.8662 88.5779 88.0286 88.7337C88.1943 88.8894 88.2772 89.0767 88.2772 89.2955C88.2772 89.5142 88.1943 89.7015 88.0286 89.8572C87.8662 90.013 87.6706 90.0909 87.4419 90.0909ZM91.3409 94.4062V99H90.1676V91.3636H91.3011V92.5568H91.4006C91.5795 92.169 91.8513 91.8575 92.2159 91.6222C92.5805 91.3835 93.0511 91.2642 93.6278 91.2642C94.1449 91.2642 94.5973 91.3703 94.9851 91.5824C95.3729 91.7912 95.6745 92.1094 95.8899 92.5369C96.1054 92.9612 96.2131 93.4981 96.2131 94.1477V99H95.0398V94.2273C95.0398 93.6274 94.884 93.16 94.5724 92.8253C94.2609 92.4872 93.8333 92.3182 93.2898 92.3182C92.9152 92.3182 92.5805 92.3994 92.2855 92.5618C91.9938 92.7242 91.7635 92.9612 91.5945 93.2727C91.4254 93.5843 91.3409 93.9621 91.3409 94.4062ZM107.704 93.0739L106.65 93.3722C106.583 93.1965 106.486 93.0258 106.356 92.8601C106.23 92.6911 106.058 92.5518 105.839 92.4425C105.621 92.3331 105.34 92.2784 104.999 92.2784C104.532 92.2784 104.142 92.3861 103.831 92.6016C103.523 92.8137 103.368 93.0838 103.368 93.4119C103.368 93.7036 103.474 93.9339 103.687 94.103C103.899 94.272 104.23 94.4129 104.681 94.5256L105.814 94.804C106.497 94.9697 107.006 95.2232 107.341 95.5646C107.675 95.9027 107.843 96.3385 107.843 96.8722C107.843 97.3097 107.717 97.7008 107.465 98.0455C107.216 98.3902 106.868 98.6619 106.421 98.8608C105.974 99.0597 105.453 99.1591 104.86 99.1591C104.081 99.1591 103.436 98.9901 102.926 98.652C102.416 98.3139 102.092 97.8201 101.956 97.1705L103.07 96.892C103.176 97.303 103.377 97.6113 103.672 97.8168C103.97 98.0223 104.359 98.125 104.84 98.125C105.387 98.125 105.821 98.009 106.143 97.777C106.467 97.5417 106.63 97.2599 106.63 96.9318C106.63 96.6667 106.537 96.4446 106.351 96.2656C106.166 96.0833 105.881 95.9474 105.496 95.858L104.224 95.5597C103.524 95.3939 103.01 95.1371 102.682 94.7891C102.358 94.4377 102.195 93.9986 102.195 93.4716C102.195 93.0407 102.316 92.6596 102.558 92.3281C102.803 91.9967 103.136 91.7365 103.557 91.5476C103.982 91.3587 104.462 91.2642 104.999 91.2642C105.755 91.2642 106.348 91.4299 106.779 91.7614C107.213 92.0928 107.521 92.5303 107.704 93.0739ZM112.811 99.1591C112.075 99.1591 111.44 98.9967 110.907 98.6719C110.376 98.3438 109.967 97.8864 109.679 97.2997C109.394 96.7098 109.251 96.0237 109.251 95.2415C109.251 94.4593 109.394 93.7699 109.679 93.1733C109.967 92.5734 110.368 92.1061 110.882 91.7713C111.399 91.4332 112.002 91.2642 112.691 91.2642C113.089 91.2642 113.482 91.3305 113.87 91.4631C114.257 91.5956 114.61 91.8111 114.929 92.1094C115.247 92.4044 115.5 92.7955 115.689 93.2827C115.878 93.7699 115.973 94.3698 115.973 95.0824V95.5795H110.086V94.5653H114.779C114.779 94.1345 114.693 93.75 114.521 93.4119C114.352 93.0739 114.11 92.8071 113.795 92.6115C113.484 92.416 113.116 92.3182 112.691 92.3182C112.224 92.3182 111.82 92.4342 111.478 92.6662C111.14 92.8949 110.88 93.1932 110.698 93.5611C110.516 93.929 110.424 94.3234 110.424 94.7443V95.4205C110.424 95.9972 110.524 96.486 110.723 96.8871C110.925 97.2848 111.205 97.5881 111.563 97.7969C111.921 98.0024 112.337 98.1051 112.811 98.1051C113.119 98.1051 113.397 98.062 113.646 97.9759C113.898 97.8864 114.115 97.7538 114.297 97.5781C114.48 97.3991 114.62 97.1771 114.72 96.9119L115.853 97.2301C115.734 97.6146 115.533 97.9527 115.252 98.2443C114.97 98.5327 114.622 98.758 114.208 98.9205C113.793 99.0795 113.328 99.1591 112.811 99.1591ZM120.86 99.1591C120.144 99.1591 119.527 98.9901 119.01 98.652C118.493 98.3139 118.096 97.8482 117.817 97.255C117.539 96.6617 117.4 95.9839 117.4 95.2216C117.4 94.446 117.542 93.7616 117.827 93.1683C118.115 92.5717 118.516 92.1061 119.03 91.7713C119.547 91.4332 120.15 91.2642 120.84 91.2642C121.377 91.2642 121.861 91.3636 122.292 91.5625C122.722 91.7614 123.075 92.0398 123.35 92.3977C123.626 92.7557 123.796 93.1733 123.863 93.6506H122.689C122.6 93.3026 122.401 92.9943 122.093 92.7259C121.788 92.4541 121.377 92.3182 120.86 92.3182C120.402 92.3182 120.001 92.4375 119.657 92.6761C119.315 92.9115 119.048 93.2446 118.856 93.6754C118.667 94.103 118.573 94.6051 118.573 95.1818C118.573 95.7718 118.666 96.2855 118.851 96.723C119.04 97.1605 119.305 97.5002 119.647 97.7422C119.991 97.9841 120.396 98.1051 120.86 98.1051C121.165 98.1051 121.441 98.0521 121.69 97.946C121.939 97.84 122.149 97.6875 122.321 97.4886C122.494 97.2898 122.616 97.0511 122.689 96.7727H123.863C123.796 97.2235 123.632 97.6295 123.37 97.9908C123.112 98.3487 122.769 98.6338 122.341 98.8459C121.917 99.0547 121.423 99.1591 120.86 99.1591ZM128.68 99.1591C127.991 99.1591 127.386 98.995 126.865 98.6669C126.348 98.3388 125.944 97.8797 125.652 97.2898C125.364 96.6998 125.22 96.0104 125.22 95.2216C125.22 94.4261 125.364 93.7318 125.652 93.1385C125.944 92.5452 126.348 92.0845 126.865 91.7564C127.386 91.4283 127.991 91.2642 128.68 91.2642C129.369 91.2642 129.973 91.4283 130.49 91.7564C131.01 92.0845 131.414 92.5452 131.703 93.1385C131.994 93.7318 132.14 94.4261 132.14 95.2216C132.14 96.0104 131.994 96.6998 131.703 97.2898C131.414 97.8797 131.01 98.3388 130.49 98.6669C129.973 98.995 129.369 99.1591 128.68 99.1591ZM128.68 98.1051C129.204 98.1051 129.635 97.9709 129.973 97.7024C130.311 97.4339 130.561 97.081 130.723 96.6435C130.886 96.206 130.967 95.732 130.967 95.2216C130.967 94.7112 130.886 94.2356 130.723 93.7947C130.561 93.3539 130.311 92.9976 129.973 92.7259C129.635 92.4541 129.204 92.3182 128.68 92.3182C128.156 92.3182 127.725 92.4541 127.387 92.7259C127.049 92.9976 126.799 93.3539 126.637 93.7947C126.474 94.2356 126.393 94.7112 126.393 95.2216C126.393 95.732 126.474 96.206 126.637 96.6435C126.799 97.081 127.049 97.4339 127.387 97.7024C127.725 97.9709 128.156 98.1051 128.68 98.1051ZM135.105 94.4062V99H133.931V91.3636H135.065V92.5568H135.164C135.343 92.169 135.615 91.8575 135.98 91.6222C136.344 91.3835 136.815 91.2642 137.392 91.2642C137.909 91.2642 138.361 91.3703 138.749 91.5824C139.137 91.7912 139.438 92.1094 139.654 92.5369C139.869 92.9612 139.977 93.4981 139.977 94.1477V99H138.803V94.2273C138.803 93.6274 138.648 93.16 138.336 92.8253C138.025 92.4872 137.597 92.3182 137.053 92.3182C136.679 92.3182 136.344 92.3994 136.049 92.5618C135.758 92.7242 135.527 92.9612 135.358 93.2727C135.189 93.5843 135.105 93.9621 135.105 94.4062ZM145.004 99.1591C144.368 99.1591 143.806 98.9983 143.319 98.6768C142.832 98.352 142.451 97.8946 142.175 97.3047C141.9 96.7114 141.763 96.0104 141.763 95.2017C141.763 94.3996 141.9 93.7036 142.175 93.1136C142.451 92.5237 142.833 92.0679 143.324 91.7464C143.814 91.425 144.381 91.2642 145.024 91.2642C145.521 91.2642 145.914 91.3471 146.202 91.5128C146.494 91.6752 146.716 91.8608 146.869 92.0696C147.024 92.2751 147.145 92.4441 147.232 92.5767H147.331V88.8182H148.504V99H147.371V97.8267H147.232C147.145 97.9659 147.023 98.1416 146.864 98.3537C146.705 98.5625 146.478 98.7498 146.183 98.9155C145.888 99.0779 145.495 99.1591 145.004 99.1591ZM145.163 98.1051C145.634 98.1051 146.032 97.9825 146.357 97.7372C146.681 97.4886 146.928 97.1456 147.097 96.7081C147.266 96.2673 147.351 95.7585 147.351 95.1818C147.351 94.6117 147.268 94.1129 147.102 93.6854C146.937 93.2545 146.691 92.9197 146.366 92.6811C146.042 92.4392 145.641 92.3182 145.163 92.3182C144.666 92.3182 144.252 92.4458 143.92 92.701C143.592 92.9529 143.345 93.2959 143.18 93.7301C143.017 94.161 142.936 94.6449 142.936 95.1818C142.936 95.7254 143.019 96.2192 143.185 96.6634C143.354 97.1042 143.602 97.4555 143.93 97.7173C144.262 97.9759 144.673 98.1051 145.163 98.1051ZM156.225 93.0739L155.171 93.3722C155.105 93.1965 155.007 93.0258 154.878 92.8601C154.752 92.6911 154.58 92.5518 154.361 92.4425C154.142 92.3331 153.862 92.2784 153.521 92.2784C153.053 92.2784 152.664 92.3861 152.352 92.6016C152.044 92.8137 151.89 93.0838 151.89 93.4119C151.89 93.7036 151.996 93.9339 152.208 94.103C152.42 94.272 152.752 94.4129 153.202 94.5256L154.336 94.804C155.019 94.9697 155.527 95.2232 155.862 95.5646C156.197 95.9027 156.364 96.3385 156.364 96.8722C156.364 97.3097 156.238 97.7008 155.987 98.0455C155.738 98.3902 155.39 98.6619 154.942 98.8608C154.495 99.0597 153.975 99.1591 153.381 99.1591C152.603 99.1591 151.958 98.9901 151.447 98.652C150.937 98.3139 150.614 97.8201 150.478 97.1705L151.592 96.892C151.698 97.303 151.898 97.6113 152.193 97.8168C152.491 98.0223 152.881 98.125 153.362 98.125C153.908 98.125 154.343 98.009 154.664 97.777C154.989 97.5417 155.151 97.2599 155.151 96.9318C155.151 96.6667 155.058 96.4446 154.873 96.2656C154.687 96.0833 154.402 95.9474 154.018 95.858L152.745 95.5597C152.046 95.3939 151.532 95.1371 151.204 94.7891C150.879 94.4377 150.717 93.9986 150.717 93.4716C150.717 93.0407 150.838 92.6596 151.08 92.3281C151.325 91.9967 151.658 91.7365 152.079 91.5476C152.503 91.3587 152.984 91.2642 153.521 91.2642C154.276 91.2642 154.87 91.4299 155.3 91.7614C155.735 92.0928 156.043 92.5303 156.225 93.0739ZM165.389 91.3636V92.358H161.432V91.3636H165.389ZM162.585 89.5341H163.758V96.8125C163.758 97.1439 163.806 97.3925 163.903 97.5582C164.002 97.7206 164.128 97.83 164.28 97.8864C164.436 97.9394 164.6 97.9659 164.773 97.9659C164.902 97.9659 165.008 97.9593 165.091 97.946C165.174 97.9295 165.24 97.9162 165.29 97.9062L165.528 98.9602C165.449 98.9901 165.338 99.0199 165.195 99.0497C165.053 99.0829 164.872 99.0994 164.653 99.0994C164.322 99.0994 163.997 99.0282 163.679 98.8857C163.364 98.7431 163.102 98.526 162.893 98.2344C162.688 97.9427 162.585 97.5748 162.585 97.1307V89.5341ZM170.174 99.1591C169.485 99.1591 168.88 98.995 168.36 98.6669C167.843 98.3388 167.438 97.8797 167.146 97.2898C166.858 96.6998 166.714 96.0104 166.714 95.2216C166.714 94.4261 166.858 93.7318 167.146 93.1385C167.438 92.5452 167.843 92.0845 168.36 91.7564C168.88 91.4283 169.485 91.2642 170.174 91.2642C170.864 91.2642 171.467 91.4283 171.984 91.7564C172.504 92.0845 172.909 92.5452 173.197 93.1385C173.489 93.7318 173.634 94.4261 173.634 95.2216C173.634 96.0104 173.489 96.6998 173.197 97.2898C172.909 97.8797 172.504 98.3388 171.984 98.6669C171.467 98.995 170.864 99.1591 170.174 99.1591ZM170.174 98.1051C170.698 98.1051 171.129 97.9709 171.467 97.7024C171.805 97.4339 172.055 97.081 172.218 96.6435C172.38 96.206 172.461 95.732 172.461 95.2216C172.461 94.7112 172.38 94.2356 172.218 93.7947C172.055 93.3539 171.805 92.9976 171.467 92.7259C171.129 92.4541 170.698 92.3182 170.174 92.3182C169.651 92.3182 169.22 92.4541 168.882 92.7259C168.544 92.9976 168.293 93.3539 168.131 93.7947C167.968 94.2356 167.887 94.7112 167.887 95.2216C167.887 95.732 167.968 96.206 168.131 96.6435C168.293 97.081 168.544 97.4339 168.882 97.7024C169.22 97.9709 169.651 98.1051 170.174 98.1051ZM182.445 102.023C181.879 102.023 181.391 101.95 180.984 101.804C180.576 101.661 180.236 101.473 179.964 101.237C179.696 101.005 179.482 100.757 179.323 100.491L180.258 99.8352C180.364 99.9744 180.498 100.134 180.661 100.312C180.823 100.495 181.045 100.652 181.327 100.785C181.612 100.921 181.985 100.989 182.445 100.989C183.062 100.989 183.571 100.839 183.972 100.541C184.373 100.243 184.573 99.7756 184.573 99.1392V97.5881H184.474C184.388 97.7273 184.265 97.8996 184.106 98.1051C183.95 98.3073 183.725 98.4879 183.43 98.647C183.138 98.8028 182.744 98.8807 182.246 98.8807C181.63 98.8807 181.076 98.7348 180.586 98.4432C180.099 98.1515 179.713 97.7273 179.428 97.1705C179.146 96.6136 179.005 95.9375 179.005 95.142C179.005 94.3598 179.143 93.6787 179.418 93.0987C179.693 92.5154 180.076 92.0646 180.566 91.7464C181.057 91.425 181.623 91.2642 182.266 91.2642C182.763 91.2642 183.158 91.3471 183.45 91.5128C183.745 91.6752 183.97 91.8608 184.126 92.0696C184.285 92.2751 184.407 92.4441 184.494 92.5767H184.613V91.3636H185.746V99.2188C185.746 99.875 185.597 100.409 185.299 100.82C185.004 101.234 184.606 101.537 184.106 101.729C183.609 101.925 183.055 102.023 182.445 102.023ZM182.406 97.8267C182.876 97.8267 183.274 97.719 183.599 97.5036C183.924 97.2881 184.17 96.9782 184.339 96.5739C184.509 96.1695 184.593 95.6856 184.593 95.1222C184.593 94.572 184.51 94.0864 184.344 93.6655C184.179 93.2446 183.933 92.9148 183.609 92.6761C183.284 92.4375 182.883 92.3182 182.406 92.3182C181.908 92.3182 181.494 92.4441 181.163 92.696C180.835 92.9479 180.588 93.286 180.422 93.7102C180.259 94.1345 180.178 94.6051 180.178 95.1222C180.178 95.6525 180.261 96.1214 180.427 96.5291C180.596 96.9335 180.844 97.2517 181.173 97.4837C181.504 97.7124 181.915 97.8267 182.406 97.8267ZM191.096 99.1591C190.36 99.1591 189.725 98.9967 189.192 98.6719C188.661 98.3438 188.252 97.8864 187.964 97.2997C187.679 96.7098 187.536 96.0237 187.536 95.2415C187.536 94.4593 187.679 93.7699 187.964 93.1733C188.252 92.5734 188.653 92.1061 189.167 91.7713C189.684 91.4332 190.287 91.2642 190.977 91.2642C191.374 91.2642 191.767 91.3305 192.155 91.4631C192.543 91.5956 192.896 91.8111 193.214 92.1094C193.532 92.4044 193.786 92.7955 193.974 93.2827C194.163 93.7699 194.258 94.3698 194.258 95.0824V95.5795H188.371V94.5653H193.065C193.065 94.1345 192.978 93.75 192.806 93.4119C192.637 93.0739 192.395 92.8071 192.08 92.6115C191.769 92.416 191.401 92.3182 190.977 92.3182C190.509 92.3182 190.105 92.4342 189.763 92.6662C189.425 92.8949 189.165 93.1932 188.983 93.5611C188.801 93.929 188.71 94.3234 188.71 94.7443V95.4205C188.71 95.9972 188.809 96.486 189.008 96.8871C189.21 97.2848 189.49 97.5881 189.848 97.7969C190.206 98.0024 190.622 98.1051 191.096 98.1051C191.404 98.1051 191.683 98.062 191.931 97.9759C192.183 97.8864 192.4 97.7538 192.582 97.5781C192.765 97.3991 192.906 97.1771 193.005 96.9119L194.138 97.2301C194.019 97.6146 193.819 97.9527 193.537 98.2443C193.255 98.5327 192.907 98.758 192.493 98.9205C192.079 99.0795 191.613 99.1591 191.096 99.1591ZM199.364 91.3636V92.358H195.406V91.3636H199.364ZM196.56 89.5341H197.733V96.8125C197.733 97.1439 197.781 97.3925 197.877 97.5582C197.977 97.7206 198.103 97.83 198.255 97.8864C198.411 97.9394 198.575 97.9659 198.747 97.9659C198.876 97.9659 198.982 97.9593 199.065 97.946C199.148 97.9295 199.214 97.9162 199.264 97.9062L199.503 98.9602C199.423 98.9901 199.312 99.0199 199.17 99.0497C199.027 99.0829 198.847 99.0994 198.628 99.0994C198.296 99.0994 197.972 99.0282 197.653 98.8857C197.339 98.7431 197.077 98.526 196.868 98.2344C196.662 97.9427 196.56 97.5748 196.56 97.1307V89.5341ZM205.822 101.864C205.623 101.864 205.446 101.847 205.29 101.814C205.134 101.784 205.026 101.754 204.967 101.724L205.265 100.69C205.55 100.763 205.802 100.79 206.021 100.77C206.239 100.75 206.433 100.652 206.602 100.477C206.775 100.304 206.932 100.024 207.075 99.6364L207.293 99.0398L204.469 91.3636H205.742L207.85 97.4489H207.93L210.038 91.3636H211.31L208.069 100.114C207.923 100.508 207.742 100.835 207.527 101.093C207.312 101.355 207.061 101.549 206.776 101.675C206.495 101.801 206.176 101.864 205.822 101.864ZM215.688 99.1591C214.998 99.1591 214.394 98.995 213.873 98.6669C213.356 98.3388 212.952 97.8797 212.66 97.2898C212.372 96.6998 212.228 96.0104 212.228 95.2216C212.228 94.4261 212.372 93.7318 212.66 93.1385C212.952 92.5452 213.356 92.0845 213.873 91.7564C214.394 91.4283 214.998 91.2642 215.688 91.2642C216.377 91.2642 216.98 91.4283 217.498 91.7564C218.018 92.0845 218.422 92.5452 218.711 93.1385C219.002 93.7318 219.148 94.4261 219.148 95.2216C219.148 96.0104 219.002 96.6998 218.711 97.2898C218.422 97.8797 218.018 98.3388 217.498 98.6669C216.98 98.995 216.377 99.1591 215.688 99.1591ZM215.688 98.1051C216.212 98.1051 216.642 97.9709 216.98 97.7024C217.319 97.4339 217.569 97.081 217.731 96.6435C217.894 96.206 217.975 95.732 217.975 95.2216C217.975 94.7112 217.894 94.2356 217.731 93.7947C217.569 93.3539 217.319 92.9976 216.98 92.7259C216.642 92.4541 216.212 92.3182 215.688 92.3182C215.164 92.3182 214.733 92.4541 214.395 92.7259C214.057 92.9976 213.807 93.3539 213.645 93.7947C213.482 94.2356 213.401 94.7112 213.401 95.2216C213.401 95.732 213.482 96.206 213.645 96.6435C213.807 97.081 214.057 97.4339 214.395 97.7024C214.733 97.9709 215.164 98.1051 215.688 98.1051ZM225.752 95.8778V91.3636H226.925V99H225.752V97.7074H225.672C225.493 98.0952 225.215 98.425 224.837 98.6967C224.459 98.9652 223.982 99.0994 223.405 99.0994C222.928 99.0994 222.503 98.995 222.132 98.7862C221.761 98.5741 221.469 98.2559 221.257 97.8317C221.045 97.4041 220.939 96.8655 220.939 96.2159V91.3636H222.112V96.1364C222.112 96.6932 222.268 97.1373 222.58 97.4688C222.895 97.8002 223.296 97.9659 223.783 97.9659C224.075 97.9659 224.371 97.8913 224.673 97.7422C224.978 97.593 225.233 97.3643 225.438 97.0561C225.647 96.7479 225.752 96.3551 225.752 95.8778ZM229.074 99V91.3636H230.207V92.517H230.287C230.426 92.1392 230.678 91.8326 231.043 91.5973C231.407 91.362 231.818 91.2443 232.276 91.2443C232.362 91.2443 232.469 91.246 232.599 91.2493C232.728 91.2526 232.826 91.2576 232.892 91.2642V92.4574C232.852 92.4474 232.761 92.4325 232.619 92.4126C232.479 92.3894 232.332 92.3778 232.176 92.3778C231.805 92.3778 231.473 92.4557 231.182 92.6115C230.893 92.764 230.665 92.9761 230.496 93.2479C230.33 93.5163 230.247 93.8229 230.247 94.1676V99H229.074ZM246.573 92H245.34C245.267 91.6454 245.139 91.3338 244.957 91.0653C244.778 90.7969 244.559 90.5715 244.301 90.3892C244.045 90.2036 243.762 90.0644 243.45 89.9716C243.139 89.8788 242.814 89.8324 242.476 89.8324C241.86 89.8324 241.301 89.9882 240.801 90.2997C240.303 90.6113 239.907 91.0703 239.612 91.6768C239.321 92.2834 239.175 93.0275 239.175 93.9091C239.175 94.7907 239.321 95.5348 239.612 96.1413C239.907 96.7479 240.303 97.2069 240.801 97.5185C241.301 97.83 241.86 97.9858 242.476 97.9858C242.814 97.9858 243.139 97.9394 243.45 97.8466C243.762 97.7538 244.045 97.6162 244.301 97.4339C244.559 97.2483 244.778 97.0213 244.957 96.7528C245.139 96.4811 245.267 96.1695 245.34 95.8182H246.573C246.48 96.3385 246.311 96.8042 246.066 97.2152C245.82 97.6262 245.515 97.9759 245.151 98.2642C244.786 98.5492 244.377 98.7663 243.923 98.9155C243.472 99.0646 242.99 99.1392 242.476 99.1392C241.608 99.1392 240.835 98.9271 240.159 98.5028C239.483 98.0786 238.951 97.4754 238.563 96.6932C238.176 95.911 237.982 94.983 237.982 93.9091C237.982 92.8352 238.176 91.9072 238.563 91.125C238.951 90.3428 239.483 89.7396 240.159 89.3153C240.835 88.8911 241.608 88.679 242.476 88.679C242.99 88.679 243.472 88.7536 243.923 88.9027C244.377 89.0518 244.786 89.2706 245.151 89.5589C245.515 89.844 245.82 90.192 246.066 90.603C246.311 91.0107 246.48 91.4763 246.573 92ZM248.406 99V91.3636H249.539V92.517H249.619C249.758 92.1392 250.01 91.8326 250.375 91.5973C250.739 91.362 251.15 91.2443 251.608 91.2443C251.694 91.2443 251.801 91.246 251.931 91.2493C252.06 91.2526 252.158 91.2576 252.224 91.2642V92.4574C252.184 92.4474 252.093 92.4325 251.951 92.4126C251.811 92.3894 251.664 92.3778 251.508 92.3778C251.137 92.3778 250.806 92.4557 250.514 92.6115C250.225 92.764 249.997 92.9761 249.828 93.2479C249.662 93.5163 249.579 93.8229 249.579 94.1676V99H248.406ZM256.584 99.1591C255.848 99.1591 255.214 98.9967 254.68 98.6719C254.15 98.3438 253.74 97.8864 253.452 97.2997C253.167 96.7098 253.025 96.0237 253.025 95.2415C253.025 94.4593 253.167 93.7699 253.452 93.1733C253.74 92.5734 254.141 92.1061 254.655 91.7713C255.172 91.4332 255.775 91.2642 256.465 91.2642C256.863 91.2642 257.255 91.3305 257.643 91.4631C258.031 91.5956 258.384 91.8111 258.702 92.1094C259.02 92.4044 259.274 92.7955 259.463 93.2827C259.652 93.7699 259.746 94.3698 259.746 95.0824V95.5795H253.86V94.5653H258.553C258.553 94.1345 258.467 93.75 258.294 93.4119C258.125 93.0739 257.883 92.8071 257.569 92.6115C257.257 92.416 256.889 92.3182 256.465 92.3182C255.998 92.3182 255.593 92.4342 255.252 92.6662C254.914 92.8949 254.654 93.1932 254.471 93.5611C254.289 93.929 254.198 94.3234 254.198 94.7443V95.4205C254.198 95.9972 254.297 96.486 254.496 96.8871C254.698 97.2848 254.978 97.5881 255.336 97.7969C255.694 98.0024 256.11 98.1051 256.584 98.1051C256.892 98.1051 257.171 98.062 257.419 97.9759C257.671 97.8864 257.888 97.7538 258.071 97.5781C258.253 97.3991 258.394 97.1771 258.493 96.9119L259.627 97.2301C259.507 97.6146 259.307 97.9527 259.025 98.2443C258.743 98.5327 258.395 98.758 257.981 98.9205C257.567 99.0795 257.101 99.1591 256.584 99.1591ZM264.414 99.1591C263.778 99.1591 263.216 98.9983 262.729 98.6768C262.242 98.352 261.861 97.8946 261.586 97.3047C261.31 96.7114 261.173 96.0104 261.173 95.2017C261.173 94.3996 261.31 93.7036 261.586 93.1136C261.861 92.5237 262.243 92.0679 262.734 91.7464C263.225 91.425 263.791 91.2642 264.434 91.2642C264.931 91.2642 265.324 91.3471 265.613 91.5128C265.904 91.6752 266.126 91.8608 266.279 92.0696C266.435 92.2751 266.556 92.4441 266.642 92.5767H266.741V88.8182H267.914V99H266.781V97.8267H266.642C266.556 97.9659 266.433 98.1416 266.274 98.3537C266.115 98.5625 265.888 98.7498 265.593 98.9155C265.298 99.0779 264.905 99.1591 264.414 99.1591ZM264.574 98.1051C265.044 98.1051 265.442 97.9825 265.767 97.7372C266.092 97.4886 266.338 97.1456 266.507 96.7081C266.676 96.2673 266.761 95.7585 266.761 95.1818C266.761 94.6117 266.678 94.1129 266.512 93.6854C266.347 93.2545 266.101 92.9197 265.777 92.6811C265.452 92.4392 265.051 92.3182 264.574 92.3182C264.076 92.3182 263.662 92.4458 263.331 92.701C263.002 92.9529 262.756 93.2959 262.59 93.7301C262.427 94.161 262.346 94.6449 262.346 95.1818C262.346 95.7254 262.429 96.2192 262.595 96.6634C262.764 97.1042 263.012 97.4555 263.341 97.7173C263.672 97.9759 264.083 98.1051 264.574 98.1051ZM270.226 99V91.3636H271.4V99H270.226ZM270.823 90.0909C270.594 90.0909 270.397 90.013 270.231 89.8572C270.069 89.7015 269.988 89.5142 269.988 89.2955C269.988 89.0767 270.069 88.8894 270.231 88.7337C270.397 88.5779 270.594 88.5 270.823 88.5C271.051 88.5 271.247 88.5779 271.409 88.7337C271.575 88.8894 271.658 89.0767 271.658 89.2955C271.658 89.5142 271.575 89.7015 271.409 89.8572C271.247 90.013 271.051 90.0909 270.823 90.0909ZM276.869 91.3636V92.358H272.912V91.3636H276.869ZM274.066 89.5341H275.239V96.8125C275.239 97.1439 275.287 97.3925 275.383 97.5582C275.482 97.7206 275.608 97.83 275.761 97.8864C275.917 97.9394 276.081 97.9659 276.253 97.9659C276.382 97.9659 276.488 97.9593 276.571 97.946C276.654 97.9295 276.72 97.9162 276.77 97.9062L277.009 98.9602C276.929 98.9901 276.818 99.0199 276.676 99.0497C276.533 99.0829 276.352 99.0994 276.134 99.0994C275.802 99.0994 275.477 99.0282 275.159 98.8857C274.844 98.7431 274.583 98.526 274.374 98.2344C274.168 97.9427 274.066 97.5748 274.066 97.1307V89.5341ZM288.299 91.3636C288.24 90.8598 287.998 90.4688 287.573 90.1903C287.149 89.9119 286.629 89.7727 286.012 89.7727C285.561 89.7727 285.167 89.8456 284.829 89.9915C284.494 90.1373 284.232 90.3378 284.044 90.593C283.858 90.8482 283.765 91.1383 283.765 91.4631C283.765 91.7348 283.83 91.9685 283.959 92.1641C284.092 92.3563 284.261 92.517 284.466 92.6463C284.672 92.7723 284.887 92.8767 285.112 92.9595C285.338 93.0391 285.545 93.1037 285.734 93.1534L286.768 93.4318C287.033 93.5014 287.328 93.5975 287.653 93.7202C287.981 93.8428 288.294 94.0102 288.593 94.2223C288.894 94.4311 289.143 94.6996 289.338 95.0277C289.534 95.3558 289.632 95.7585 289.632 96.2358C289.632 96.786 289.487 97.2831 289.199 97.7273C288.914 98.1714 288.496 98.5244 287.946 98.7862C287.399 99.0481 286.735 99.179 285.953 99.179C285.223 99.179 284.592 99.0613 284.058 98.826C283.528 98.5907 283.11 98.2625 282.806 97.8416C282.504 97.4207 282.333 96.9318 282.294 96.375H283.566C283.599 96.7595 283.729 97.0777 283.954 97.3295C284.183 97.5781 284.471 97.7637 284.819 97.8864C285.17 98.0057 285.548 98.0653 285.953 98.0653C286.423 98.0653 286.846 97.9891 287.22 97.8366C287.595 97.6809 287.892 97.4654 288.11 97.1903C288.329 96.9119 288.438 96.5871 288.438 96.2159C288.438 95.8778 288.344 95.6027 288.155 95.3906C287.966 95.1785 287.718 95.0062 287.409 94.8736C287.101 94.741 286.768 94.625 286.41 94.5256L285.157 94.1676C284.362 93.9389 283.732 93.6125 283.268 93.1882C282.804 92.764 282.572 92.2088 282.572 91.5227C282.572 90.9527 282.726 90.4555 283.034 90.0312C283.346 89.6037 283.763 89.2723 284.287 89.0369C284.814 88.7983 285.402 88.679 286.052 88.679C286.708 88.679 287.292 88.7966 287.802 89.032C288.312 89.264 288.717 89.5821 289.015 89.9865C289.317 90.3909 289.476 90.8499 289.492 91.3636H288.299ZM294.602 99.1591C293.886 99.1591 293.27 98.9901 292.752 98.652C292.235 98.3139 291.838 97.8482 291.559 97.255C291.281 96.6617 291.142 95.9839 291.142 95.2216C291.142 94.446 291.284 93.7616 291.569 93.1683C291.858 92.5717 292.259 92.1061 292.772 91.7713C293.289 91.4332 293.893 91.2642 294.582 91.2642C295.119 91.2642 295.603 91.3636 296.034 91.5625C296.465 91.7614 296.818 92.0398 297.093 92.3977C297.368 92.7557 297.538 93.1733 297.605 93.6506H296.431C296.342 93.3026 296.143 92.9943 295.835 92.7259C295.53 92.4541 295.119 92.3182 294.602 92.3182C294.145 92.3182 293.743 92.4375 293.399 92.6761C293.057 92.9115 292.791 93.2446 292.598 93.6754C292.409 94.103 292.315 94.6051 292.315 95.1818C292.315 95.7718 292.408 96.2855 292.593 96.723C292.782 97.1605 293.047 97.5002 293.389 97.7422C293.734 97.9841 294.138 98.1051 294.602 98.1051C294.907 98.1051 295.184 98.0521 295.432 97.946C295.681 97.84 295.891 97.6875 296.064 97.4886C296.236 97.2898 296.359 97.0511 296.431 96.7727H297.605C297.538 97.2235 297.374 97.6295 297.113 97.9908C296.854 98.3487 296.511 98.6338 296.083 98.8459C295.659 99.0547 295.165 99.1591 294.602 99.1591ZM302.422 99.1591C301.733 99.1591 301.128 98.995 300.608 98.6669C300.091 98.3388 299.686 97.8797 299.395 97.2898C299.106 96.6998 298.962 96.0104 298.962 95.2216C298.962 94.4261 299.106 93.7318 299.395 93.1385C299.686 92.5452 300.091 92.0845 300.608 91.7564C301.128 91.4283 301.733 91.2642 302.422 91.2642C303.112 91.2642 303.715 91.4283 304.232 91.7564C304.752 92.0845 305.157 92.5452 305.445 93.1385C305.737 93.7318 305.882 94.4261 305.882 95.2216C305.882 96.0104 305.737 96.6998 305.445 97.2898C305.157 97.8797 304.752 98.3388 304.232 98.6669C303.715 98.995 303.112 99.1591 302.422 99.1591ZM302.422 98.1051C302.946 98.1051 303.377 97.9709 303.715 97.7024C304.053 97.4339 304.303 97.081 304.466 96.6435C304.628 96.206 304.709 95.732 304.709 95.2216C304.709 94.7112 304.628 94.2356 304.466 93.7947C304.303 93.3539 304.053 92.9976 303.715 92.7259C303.377 92.4541 302.946 92.3182 302.422 92.3182C301.899 92.3182 301.468 92.4541 301.13 92.7259C300.792 92.9976 300.541 93.3539 300.379 93.7947C300.217 94.2356 300.135 94.7112 300.135 95.2216C300.135 95.732 300.217 96.206 300.379 96.6435C300.541 97.081 300.792 97.4339 301.13 97.7024C301.468 97.9709 301.899 98.1051 302.422 98.1051ZM307.673 99V91.3636H308.807V92.517H308.887C309.026 92.1392 309.278 91.8326 309.642 91.5973C310.007 91.362 310.418 91.2443 310.875 91.2443C310.961 91.2443 311.069 91.246 311.198 91.2493C311.328 91.2526 311.425 91.2576 311.492 91.2642V92.4574C311.452 92.4474 311.361 92.4325 311.218 92.4126C311.079 92.3894 310.932 92.3778 310.776 92.3778C310.405 92.3778 310.073 92.4557 309.781 92.6115C309.493 92.764 309.264 92.9761 309.095 93.2479C308.93 93.5163 308.847 93.8229 308.847 94.1676V99H307.673ZM315.852 99.1591C315.116 99.1591 314.481 98.9967 313.948 98.6719C313.417 98.3438 313.008 97.8864 312.72 97.2997C312.435 96.7098 312.292 96.0237 312.292 95.2415C312.292 94.4593 312.435 93.7699 312.72 93.1733C313.008 92.5734 313.409 92.1061 313.923 91.7713C314.44 91.4332 315.043 91.2642 315.732 91.2642C316.13 91.2642 316.523 91.3305 316.911 91.4631C317.298 91.5956 317.651 91.8111 317.97 92.1094C318.288 92.4044 318.541 92.7955 318.73 93.2827C318.919 93.7699 319.014 94.3698 319.014 95.0824V95.5795H313.127V94.5653H317.82C317.82 94.1345 317.734 93.75 317.562 93.4119C317.393 93.0739 317.151 92.8071 316.836 92.6115C316.525 92.416 316.157 92.3182 315.732 92.3182C315.265 92.3182 314.861 92.4342 314.519 92.6662C314.181 92.8949 313.921 93.1932 313.739 93.5611C313.557 93.929 313.465 94.3234 313.465 94.7443V95.4205C313.465 95.9972 313.565 96.486 313.764 96.8871C313.966 97.2848 314.246 97.5881 314.604 97.7969C314.962 98.0024 315.378 98.1051 315.852 98.1051C316.16 98.1051 316.438 98.062 316.687 97.9759C316.939 97.8864 317.156 97.7538 317.338 97.5781C317.521 97.3991 317.661 97.1771 317.761 96.9119L318.894 97.2301C318.775 97.6146 318.575 97.9527 318.293 98.2443C318.011 98.5327 317.663 98.758 317.249 98.9205C316.834 99.0795 316.369 99.1591 315.852 99.1591ZM326.983 99.179C326.499 99.179 326.06 99.0878 325.666 98.9055C325.271 98.7199 324.958 98.4531 324.726 98.1051C324.494 97.7538 324.378 97.3295 324.378 96.8324C324.378 96.3949 324.464 96.0402 324.637 95.7685C324.809 95.4934 325.039 95.2779 325.328 95.1222C325.616 94.9664 325.934 94.8504 326.282 94.7741C326.633 94.6946 326.986 94.6316 327.341 94.5852C327.805 94.5256 328.181 94.4808 328.47 94.451C328.761 94.4179 328.973 94.3632 329.106 94.2869C329.242 94.2107 329.31 94.0781 329.31 93.8892V93.8494C329.31 93.3589 329.176 92.9777 328.907 92.706C328.642 92.4342 328.239 92.2983 327.699 92.2983C327.139 92.2983 326.7 92.4209 326.382 92.6662C326.063 92.9115 325.84 93.1733 325.71 93.4517L324.597 93.054C324.796 92.59 325.061 92.2287 325.392 91.9702C325.727 91.7083 326.092 91.526 326.486 91.4233C326.884 91.3172 327.275 91.2642 327.659 91.2642C327.905 91.2642 328.186 91.294 328.504 91.3537C328.826 91.41 329.136 91.5277 329.434 91.7067C329.736 91.8857 329.986 92.1558 330.185 92.517C330.384 92.8783 330.483 93.3622 330.483 93.9688V99H329.31V97.9659H329.25C329.171 98.1316 329.038 98.3089 328.852 98.4979C328.667 98.6868 328.42 98.8475 328.112 98.9801C327.803 99.1127 327.427 99.179 326.983 99.179ZM327.162 98.125C327.626 98.125 328.017 98.0339 328.335 97.8516C328.657 97.6693 328.899 97.4339 329.061 97.1456C329.227 96.8572 329.31 96.554 329.31 96.2358V95.1619C329.26 95.2216 329.151 95.2763 328.982 95.326C328.816 95.3724 328.624 95.4138 328.405 95.4503C328.19 95.4834 327.979 95.5133 327.774 95.5398C327.571 95.563 327.407 95.5829 327.281 95.5994C326.977 95.6392 326.691 95.7038 326.426 95.7933C326.164 95.8795 325.952 96.0104 325.79 96.1861C325.631 96.3584 325.551 96.5937 325.551 96.892C325.551 97.2997 325.702 97.608 326.004 97.8168C326.309 98.0223 326.695 98.125 327.162 98.125ZM333.798 94.4062V99H332.625V91.3636H333.758V92.5568H333.858C334.037 92.169 334.308 91.8575 334.673 91.6222C335.038 91.3835 335.508 91.2642 336.085 91.2642C336.602 91.2642 337.054 91.3703 337.442 91.5824C337.83 91.7912 338.132 92.1094 338.347 92.5369C338.562 92.9612 338.67 93.4981 338.67 94.1477V99H337.497V94.2273C337.497 93.6274 337.341 93.16 337.029 92.8253C336.718 92.4872 336.29 92.3182 335.747 92.3182C335.372 92.3182 335.038 92.3994 334.743 92.5618C334.451 92.7242 334.221 92.9612 334.051 93.2727C333.882 93.5843 333.798 93.9621 333.798 94.4062ZM343.698 99.1591C343.061 99.1591 342.499 98.9983 342.012 98.6768C341.525 98.352 341.144 97.8946 340.869 97.3047C340.594 96.7114 340.456 96.0104 340.456 95.2017C340.456 94.3996 340.594 93.7036 340.869 93.1136C341.144 92.5237 341.527 92.0679 342.017 91.7464C342.508 91.425 343.075 91.2642 343.718 91.2642C344.215 91.2642 344.607 91.3471 344.896 91.5128C345.187 91.6752 345.41 91.8608 345.562 92.0696C345.718 92.2751 345.839 92.4441 345.925 92.5767H346.024V88.8182H347.198V99H346.064V97.8267H345.925C345.839 97.9659 345.716 98.1416 345.557 98.3537C345.398 98.5625 345.171 98.7498 344.876 98.9155C344.581 99.0779 344.188 99.1591 343.698 99.1591ZM343.857 98.1051C344.327 98.1051 344.725 97.9825 345.05 97.7372C345.375 97.4886 345.622 97.1456 345.791 96.7081C345.96 96.2673 346.044 95.7585 346.044 95.1818C346.044 94.6117 345.961 94.1129 345.796 93.6854C345.63 93.2545 345.385 92.9197 345.06 92.6811C344.735 92.4392 344.334 92.3182 343.857 92.3182C343.36 92.3182 342.945 92.4458 342.614 92.701C342.286 92.9529 342.039 93.2959 341.873 93.7301C341.711 94.161 341.629 94.6449 341.629 95.1818C341.629 95.7254 341.712 96.2192 341.878 96.6634C342.047 97.1042 342.296 97.4555 342.624 97.7173C342.955 97.9759 343.366 98.1051 343.857 98.1051ZM356.529 102.023C355.963 102.023 355.475 101.95 355.068 101.804C354.66 101.661 354.32 101.473 354.048 101.237C353.78 101.005 353.566 100.757 353.407 100.491L354.342 99.8352C354.448 99.9744 354.582 100.134 354.744 100.312C354.907 100.495 355.129 100.652 355.411 100.785C355.696 100.921 356.069 100.989 356.529 100.989C357.146 100.989 357.655 100.839 358.056 100.541C358.457 100.243 358.657 99.7756 358.657 99.1392V97.5881H358.558C358.472 97.7273 358.349 97.8996 358.19 98.1051C358.034 98.3073 357.809 98.4879 357.514 98.647C357.222 98.8028 356.828 98.8807 356.33 98.8807C355.714 98.8807 355.16 98.7348 354.67 98.4432C354.183 98.1515 353.797 97.7273 353.512 97.1705C353.23 96.6136 353.089 95.9375 353.089 95.142C353.089 94.3598 353.227 93.6787 353.502 93.0987C353.777 92.5154 354.16 92.0646 354.65 91.7464C355.141 91.425 355.707 91.2642 356.35 91.2642C356.847 91.2642 357.242 91.3471 357.534 91.5128C357.829 91.6752 358.054 91.8608 358.21 92.0696C358.369 92.2751 358.491 92.4441 358.578 92.5767H358.697V91.3636H359.83V99.2188C359.83 99.875 359.681 100.409 359.383 100.82C359.088 101.234 358.69 101.537 358.19 101.729C357.693 101.925 357.139 102.023 356.529 102.023ZM356.49 97.8267C356.96 97.8267 357.358 97.719 357.683 97.5036C358.008 97.2881 358.254 96.9782 358.423 96.5739C358.593 96.1695 358.677 95.6856 358.677 95.1222C358.677 94.572 358.594 94.0864 358.428 93.6655C358.263 93.2446 358.017 92.9148 357.693 92.6761C357.368 92.4375 356.967 92.3182 356.49 92.3182C355.992 92.3182 355.578 92.4441 355.247 92.696C354.919 92.9479 354.672 93.286 354.506 93.7102C354.343 94.1345 354.262 94.6051 354.262 95.1222C354.262 95.6525 354.345 96.1214 354.511 96.5291C354.68 96.9335 354.928 97.2517 355.257 97.4837C355.588 97.7124 355.999 97.8267 356.49 97.8267ZM365.18 99.1591C364.444 99.1591 363.809 98.9967 363.276 98.6719C362.745 98.3438 362.336 97.8864 362.048 97.2997C361.763 96.7098 361.62 96.0237 361.62 95.2415C361.62 94.4593 361.763 93.7699 362.048 93.1733C362.336 92.5734 362.737 92.1061 363.251 91.7713C363.768 91.4332 364.371 91.2642 365.061 91.2642C365.458 91.2642 365.851 91.3305 366.239 91.4631C366.627 91.5956 366.98 91.8111 367.298 92.1094C367.616 92.4044 367.869 92.7955 368.058 93.2827C368.247 93.7699 368.342 94.3698 368.342 95.0824V95.5795H362.455V94.5653H367.149C367.149 94.1345 367.062 93.75 366.89 93.4119C366.721 93.0739 366.479 92.8071 366.164 92.6115C365.853 92.416 365.485 92.3182 365.061 92.3182C364.593 92.3182 364.189 92.4342 363.847 92.6662C363.509 92.8949 363.249 93.1932 363.067 93.5611C362.885 93.929 362.794 94.3234 362.794 94.7443V95.4205C362.794 95.9972 362.893 96.486 363.092 96.8871C363.294 97.2848 363.574 97.5881 363.932 97.7969C364.29 98.0024 364.706 98.1051 365.18 98.1051C365.488 98.1051 365.767 98.062 366.015 97.9759C366.267 97.8864 366.484 97.7538 366.666 97.5781C366.849 97.3991 366.99 97.1771 367.089 96.9119L368.222 97.2301C368.103 97.6146 367.903 97.9527 367.621 98.2443C367.339 98.5327 366.991 98.758 366.577 98.9205C366.163 99.0795 365.697 99.1591 365.18 99.1591ZM373.448 91.3636V92.358H369.49V91.3636H373.448ZM370.644 89.5341H371.817V96.8125C371.817 97.1439 371.865 97.3925 371.961 97.5582C372.061 97.7206 372.186 97.83 372.339 97.8864C372.495 97.9394 372.659 97.9659 372.831 97.9659C372.96 97.9659 373.066 97.9593 373.149 97.946C373.232 97.9295 373.298 97.9162 373.348 97.9062L373.587 98.9602C373.507 98.9901 373.396 99.0199 373.254 99.0497C373.111 99.0829 372.931 99.0994 372.712 99.0994C372.38 99.0994 372.056 99.0282 371.737 98.8857C371.423 98.7431 371.161 98.526 370.952 98.2344C370.746 97.9427 370.644 97.5748 370.644 97.1307V89.5341ZM162.336 119V108.818H163.51V112.577H163.609C163.695 112.444 163.815 112.275 163.967 112.07C164.123 111.861 164.345 111.675 164.633 111.513C164.925 111.347 165.319 111.264 165.817 111.264C166.46 111.264 167.026 111.425 167.517 111.746C168.007 112.068 168.39 112.524 168.665 113.114C168.94 113.704 169.078 114.4 169.078 115.202C169.078 116.01 168.94 116.711 168.665 117.305C168.39 117.895 168.009 118.352 167.522 118.677C167.035 118.998 166.473 119.159 165.836 119.159C165.346 119.159 164.953 119.078 164.658 118.915C164.363 118.75 164.136 118.562 163.977 118.354C163.818 118.142 163.695 117.966 163.609 117.827H163.47V119H162.336ZM163.49 115.182C163.49 115.759 163.574 116.267 163.743 116.708C163.912 117.146 164.159 117.489 164.484 117.737C164.809 117.982 165.207 118.105 165.677 118.105C166.168 118.105 166.577 117.976 166.905 117.717C167.237 117.455 167.485 117.104 167.651 116.663C167.82 116.219 167.905 115.725 167.905 115.182C167.905 114.645 167.822 114.161 167.656 113.73C167.494 113.296 167.247 112.953 166.915 112.701C166.587 112.446 166.175 112.318 165.677 112.318C165.2 112.318 164.799 112.439 164.474 112.681C164.149 112.92 163.904 113.254 163.738 113.685C163.573 114.113 163.49 114.612 163.49 115.182ZM174.074 119.159C173.339 119.159 172.704 118.997 172.17 118.672C171.64 118.344 171.231 117.886 170.942 117.3C170.657 116.71 170.515 116.024 170.515 115.241C170.515 114.459 170.657 113.77 170.942 113.173C171.231 112.573 171.632 112.106 172.145 111.771C172.662 111.433 173.266 111.264 173.955 111.264C174.353 111.264 174.746 111.33 175.133 111.463C175.521 111.596 175.874 111.811 176.192 112.109C176.51 112.404 176.764 112.795 176.953 113.283C177.142 113.77 177.236 114.37 177.236 115.082V115.58H171.35V114.565H176.043C176.043 114.134 175.957 113.75 175.785 113.412C175.616 113.074 175.374 112.807 175.059 112.612C174.747 112.416 174.379 112.318 173.955 112.318C173.488 112.318 173.083 112.434 172.742 112.666C172.404 112.895 172.144 113.193 171.961 113.561C171.779 113.929 171.688 114.323 171.688 114.744V115.42C171.688 115.997 171.787 116.486 171.986 116.887C172.189 117.285 172.469 117.588 172.827 117.797C173.184 118.002 173.6 118.105 174.074 118.105C174.383 118.105 174.661 118.062 174.91 117.976C175.162 117.886 175.379 117.754 175.561 117.578C175.743 117.399 175.884 117.177 175.983 116.912L177.117 117.23C176.998 117.615 176.797 117.953 176.515 118.244C176.234 118.533 175.886 118.758 175.471 118.92C175.057 119.08 174.591 119.159 174.074 119.159ZM182.342 111.364V112.358H178.385V111.364H182.342ZM179.538 109.534H180.711V116.812C180.711 117.144 180.76 117.393 180.856 117.558C180.955 117.721 181.081 117.83 181.233 117.886C181.389 117.939 181.553 117.966 181.726 117.966C181.855 117.966 181.961 117.959 182.044 117.946C182.127 117.929 182.193 117.916 182.243 117.906L182.481 118.96C182.402 118.99 182.291 119.02 182.148 119.05C182.006 119.083 181.825 119.099 181.606 119.099C181.275 119.099 180.95 119.028 180.632 118.886C180.317 118.743 180.055 118.526 179.846 118.234C179.641 117.943 179.538 117.575 179.538 117.131V109.534ZM187.428 111.364V112.358H183.471V111.364H187.428ZM184.624 109.534H185.797V116.812C185.797 117.144 185.845 117.393 185.942 117.558C186.041 117.721 186.167 117.83 186.319 117.886C186.475 117.939 186.639 117.966 186.812 117.966C186.941 117.966 187.047 117.959 187.13 117.946C187.213 117.929 187.279 117.916 187.329 117.906L187.567 118.96C187.488 118.99 187.377 119.02 187.234 119.05C187.092 119.083 186.911 119.099 186.692 119.099C186.361 119.099 186.036 119.028 185.718 118.886C185.403 118.743 185.141 118.526 184.932 118.234C184.727 117.943 184.624 117.575 184.624 117.131V109.534ZM192.313 119.159C191.577 119.159 190.942 118.997 190.409 118.672C189.878 118.344 189.469 117.886 189.181 117.3C188.896 116.71 188.753 116.024 188.753 115.241C188.753 114.459 188.896 113.77 189.181 113.173C189.469 112.573 189.87 112.106 190.384 111.771C190.901 111.433 191.504 111.264 192.193 111.264C192.591 111.264 192.984 111.33 193.372 111.463C193.759 111.596 194.112 111.811 194.431 112.109C194.749 112.404 195.002 112.795 195.191 113.283C195.38 113.77 195.475 114.37 195.475 115.082V115.58H189.588V114.565H194.281C194.281 114.134 194.195 113.75 194.023 113.412C193.854 113.074 193.612 112.807 193.297 112.612C192.985 112.416 192.618 112.318 192.193 112.318C191.726 112.318 191.322 112.434 190.98 112.666C190.642 112.895 190.382 113.193 190.2 113.561C190.017 113.929 189.926 114.323 189.926 114.744V115.42C189.926 115.997 190.026 116.486 190.225 116.887C190.427 117.285 190.707 117.588 191.065 117.797C191.423 118.002 191.839 118.105 192.313 118.105C192.621 118.105 192.899 118.062 193.148 117.976C193.4 117.886 193.617 117.754 193.799 117.578C193.981 117.399 194.122 117.177 194.222 116.912L195.355 117.23C195.236 117.615 195.035 117.953 194.754 118.244C194.472 118.533 194.124 118.758 193.71 118.92C193.295 119.08 192.83 119.159 192.313 119.159ZM197.259 119V111.364H198.393V112.517H198.472C198.612 112.139 198.864 111.833 199.228 111.597C199.593 111.362 200.004 111.244 200.461 111.244C200.547 111.244 200.655 111.246 200.784 111.249C200.914 111.253 201.011 111.258 201.078 111.264V112.457C201.038 112.447 200.947 112.433 200.804 112.413C200.665 112.389 200.517 112.378 200.362 112.378C199.99 112.378 199.659 112.456 199.367 112.612C199.079 112.764 198.85 112.976 198.681 113.248C198.516 113.516 198.433 113.823 198.433 114.168V119H197.259ZM206.406 119V111.364H207.539V112.517H207.619C207.758 112.139 208.01 111.833 208.375 111.597C208.739 111.362 209.15 111.244 209.608 111.244C209.694 111.244 209.801 111.246 209.931 111.249C210.06 111.253 210.158 111.258 210.224 111.264V112.457C210.184 112.447 210.093 112.433 209.951 112.413C209.811 112.389 209.664 112.378 209.508 112.378C209.137 112.378 208.806 112.456 208.514 112.612C208.225 112.764 207.997 112.976 207.828 113.248C207.662 113.516 207.579 113.823 207.579 114.168V119H206.406ZM213.862 119.179C213.378 119.179 212.939 119.088 212.545 118.906C212.15 118.72 211.837 118.453 211.605 118.105C211.373 117.754 211.257 117.33 211.257 116.832C211.257 116.395 211.343 116.04 211.515 115.768C211.688 115.493 211.918 115.278 212.206 115.122C212.495 114.966 212.813 114.85 213.161 114.774C213.512 114.695 213.865 114.632 214.22 114.585C214.684 114.526 215.06 114.481 215.349 114.451C215.64 114.418 215.852 114.363 215.985 114.287C216.121 114.211 216.189 114.078 216.189 113.889V113.849C216.189 113.359 216.055 112.978 215.786 112.706C215.521 112.434 215.118 112.298 214.578 112.298C214.018 112.298 213.579 112.421 213.26 112.666C212.942 112.911 212.719 113.173 212.589 113.452L211.476 113.054C211.675 112.59 211.94 112.229 212.271 111.97C212.606 111.708 212.97 111.526 213.365 111.423C213.763 111.317 214.154 111.264 214.538 111.264C214.783 111.264 215.065 111.294 215.383 111.354C215.705 111.41 216.015 111.528 216.313 111.707C216.615 111.886 216.865 112.156 217.064 112.517C217.263 112.878 217.362 113.362 217.362 113.969V119H216.189V117.966H216.129C216.05 118.132 215.917 118.309 215.731 118.498C215.546 118.687 215.299 118.848 214.991 118.98C214.682 119.113 214.306 119.179 213.862 119.179ZM214.041 118.125C214.505 118.125 214.896 118.034 215.214 117.852C215.536 117.669 215.778 117.434 215.94 117.146C216.106 116.857 216.189 116.554 216.189 116.236V115.162C216.139 115.222 216.03 115.276 215.861 115.326C215.695 115.372 215.503 115.414 215.284 115.45C215.068 115.483 214.858 115.513 214.653 115.54C214.45 115.563 214.286 115.583 214.16 115.599C213.855 115.639 213.57 115.704 213.305 115.793C213.043 115.879 212.831 116.01 212.669 116.186C212.51 116.358 212.43 116.594 212.43 116.892C212.43 117.3 212.581 117.608 212.883 117.817C213.188 118.022 213.574 118.125 214.041 118.125ZM222.825 111.364V112.358H218.867V111.364H222.825ZM220.021 109.534H221.194V116.812C221.194 117.144 221.242 117.393 221.338 117.558C221.438 117.721 221.563 117.83 221.716 117.886C221.872 117.939 222.036 117.966 222.208 117.966C222.337 117.966 222.443 117.959 222.526 117.946C222.609 117.929 222.675 117.916 222.725 117.906L222.964 118.96C222.884 118.99 222.773 119.02 222.631 119.05C222.488 119.083 222.308 119.099 222.089 119.099C221.757 119.099 221.433 119.028 221.114 118.886C220.799 118.743 220.538 118.526 220.329 118.234C220.123 117.943 220.021 117.575 220.021 117.131V109.534ZM227.709 119.159C226.973 119.159 226.339 118.997 225.805 118.672C225.275 118.344 224.865 117.886 224.577 117.3C224.292 116.71 224.15 116.024 224.15 115.241C224.15 114.459 224.292 113.77 224.577 113.173C224.865 112.573 225.266 112.106 225.78 111.771C226.297 111.433 226.9 111.264 227.59 111.264C227.988 111.264 228.38 111.33 228.768 111.463C229.156 111.596 229.509 111.811 229.827 112.109C230.145 112.404 230.399 112.795 230.588 113.283C230.777 113.77 230.871 114.37 230.871 115.082V115.58H224.985V114.565H229.678C229.678 114.134 229.592 113.75 229.419 113.412C229.25 113.074 229.008 112.807 228.694 112.612C228.382 112.416 228.014 112.318 227.59 112.318C227.123 112.318 226.718 112.434 226.377 112.666C226.039 112.895 225.779 113.193 225.596 113.561C225.414 113.929 225.323 114.323 225.323 114.744V115.42C225.323 115.997 225.422 116.486 225.621 116.887C225.823 117.285 226.103 117.588 226.461 117.797C226.819 118.002 227.235 118.105 227.709 118.105C228.017 118.105 228.296 118.062 228.544 117.976C228.796 117.886 229.013 117.754 229.196 117.578C229.378 117.399 229.519 117.177 229.618 116.912L230.752 117.23C230.632 117.615 230.432 117.953 230.15 118.244C229.868 118.533 229.52 118.758 229.106 118.92C228.692 119.08 228.226 119.159 227.709 119.159ZM238.065 113.074L237.011 113.372C236.945 113.196 236.847 113.026 236.718 112.86C236.592 112.691 236.419 112.552 236.201 112.442C235.982 112.333 235.702 112.278 235.36 112.278C234.893 112.278 234.504 112.386 234.192 112.602C233.884 112.814 233.73 113.084 233.73 113.412C233.73 113.704 233.836 113.934 234.048 114.103C234.26 114.272 234.592 114.413 235.042 114.526L236.176 114.804C236.859 114.97 237.367 115.223 237.702 115.565C238.037 115.903 238.204 116.339 238.204 116.872C238.204 117.31 238.078 117.701 237.826 118.045C237.578 118.39 237.23 118.662 236.782 118.861C236.335 119.06 235.815 119.159 235.221 119.159C234.442 119.159 233.798 118.99 233.287 118.652C232.777 118.314 232.454 117.82 232.318 117.17L233.431 116.892C233.538 117.303 233.738 117.611 234.033 117.817C234.331 118.022 234.721 118.125 235.201 118.125C235.748 118.125 236.182 118.009 236.504 117.777C236.829 117.542 236.991 117.26 236.991 116.932C236.991 116.667 236.898 116.445 236.713 116.266C236.527 116.083 236.242 115.947 235.858 115.858L234.585 115.56C233.886 115.394 233.372 115.137 233.044 114.789C232.719 114.438 232.556 113.999 232.556 113.472C232.556 113.041 232.677 112.66 232.919 112.328C233.165 111.997 233.498 111.737 233.919 111.548C234.343 111.359 234.824 111.264 235.36 111.264C236.116 111.264 236.709 111.43 237.14 111.761C237.574 112.093 237.883 112.53 238.065 113.074Z" fill="#475467"/>
</svg>
