<svg width="356" height="49" viewBox="0 0 356 49" fill="none" xmlns="http://www.w3.org/2000/svg">
<g filter="url(#filter0_d_182_99)">
<rect x="2" y="1.14813" width="352" height="44" rx="8" fill="#567BD9"/>
<rect x="2.5" y="1.64813" width="351" height="43" rx="7.5" stroke="white"/>
<path d="M153.608 21.4379H151.483C151.422 21.0894 151.311 20.7807 151.148 20.5118C150.985 20.239 150.782 20.008 150.54 19.8186C150.297 19.6292 150.021 19.4871 149.71 19.3925C149.403 19.294 149.072 19.2447 148.716 19.2447C148.083 19.2447 147.523 19.4038 147.034 19.722C146.545 20.0364 146.163 20.4985 145.886 21.1084C145.61 21.7144 145.472 22.455 145.472 23.33C145.472 24.2201 145.61 24.9701 145.886 25.58C146.167 26.186 146.549 26.6443 147.034 26.955C147.523 27.2618 148.081 27.4152 148.71 27.4152C149.059 27.4152 149.384 27.3697 149.688 27.2788C149.994 27.1841 150.269 27.0459 150.511 26.864C150.758 26.6822 150.964 26.4587 151.131 26.1936C151.301 25.9284 151.419 25.6254 151.483 25.2845L153.608 25.2959C153.528 25.8489 153.356 26.3678 153.091 26.8527C152.83 27.3375 152.487 27.7656 152.062 28.1368C151.638 28.5042 151.142 28.7921 150.574 29.0004C150.006 29.205 149.375 29.3072 148.682 29.3072C147.659 29.3072 146.746 29.0705 145.943 28.597C145.14 28.1235 144.508 27.4398 144.045 26.5459C143.583 25.6519 143.352 24.58 143.352 23.33C143.352 22.0762 143.585 21.0042 144.051 20.114C144.517 19.2201 145.152 18.5364 145.955 18.0629C146.758 17.5894 147.667 17.3527 148.682 17.3527C149.33 17.3527 149.932 17.4436 150.489 17.6254C151.045 17.8072 151.542 18.0743 151.977 18.4265C152.413 18.775 152.771 19.2031 153.051 19.7106C153.335 20.2144 153.521 20.7902 153.608 21.4379ZM159.254 29.3186C158.402 29.3186 157.663 29.1311 157.038 28.7561C156.413 28.3811 155.929 27.8565 155.584 27.1822C155.243 26.508 155.072 25.7201 155.072 24.8186C155.072 23.9171 155.243 23.1273 155.584 22.4493C155.929 21.7712 156.413 21.2447 157.038 20.8697C157.663 20.4947 158.402 20.3072 159.254 20.3072C160.107 20.3072 160.845 20.4947 161.47 20.8697C162.095 21.2447 162.578 21.7712 162.919 22.4493C163.264 23.1273 163.436 23.9171 163.436 24.8186C163.436 25.7201 163.264 26.508 162.919 27.1822C162.578 27.8565 162.095 28.3811 161.47 28.7561C160.845 29.1311 160.107 29.3186 159.254 29.3186ZM159.266 27.6709C159.728 27.6709 160.114 27.544 160.425 27.2902C160.735 27.0326 160.966 26.6879 161.118 26.2561C161.273 25.8243 161.351 25.3432 161.351 24.8129C161.351 24.2788 161.273 23.7959 161.118 23.364C160.966 22.9284 160.735 22.5818 160.425 22.3243C160.114 22.0667 159.728 21.9379 159.266 21.9379C158.792 21.9379 158.398 22.0667 158.084 22.3243C157.773 22.5818 157.54 22.9284 157.385 23.364C157.233 23.7959 157.158 24.2788 157.158 24.8129C157.158 25.3432 157.233 25.8243 157.385 26.2561C157.54 26.6879 157.773 27.0326 158.084 27.2902C158.398 27.544 158.792 27.6709 159.266 27.6709ZM167.239 24.0345V29.1481H165.182V20.4209H167.148V21.9038H167.25C167.451 21.4152 167.771 21.0269 168.21 20.739C168.653 20.4512 169.201 20.3072 169.852 20.3072C170.455 20.3072 170.979 20.436 171.426 20.6936C171.877 20.9512 172.225 21.3243 172.472 21.8129C172.722 22.3015 172.845 22.8943 172.841 23.5913V29.1481H170.784V23.9095C170.784 23.3262 170.633 22.8697 170.33 22.5402C170.03 22.2106 169.616 22.0459 169.085 22.0459C168.725 22.0459 168.405 22.1254 168.125 22.2845C167.848 22.4398 167.631 22.6652 167.472 22.9606C167.316 23.2561 167.239 23.614 167.239 24.0345ZM179.29 20.4209V22.0118H174.273V20.4209H179.29ZM175.511 18.33H177.568V26.5231C177.568 26.7996 177.61 27.0118 177.693 27.1595C177.78 27.3034 177.894 27.4019 178.034 27.455C178.174 27.508 178.33 27.5345 178.5 27.5345C178.629 27.5345 178.746 27.525 178.852 27.5061C178.962 27.4871 179.045 27.4701 179.102 27.455L179.449 29.0629C179.339 29.1008 179.182 29.1425 178.977 29.1879C178.777 29.2334 178.53 29.2599 178.239 29.2675C177.723 29.2826 177.259 29.205 176.847 29.0345C176.434 28.8603 176.106 28.5913 175.864 28.2277C175.625 27.864 175.508 27.4095 175.511 26.864V18.33ZM181.01 29.1481V20.4209H183.067V29.1481H181.01ZM182.044 19.1822C181.718 19.1822 181.438 19.0743 181.203 18.8584C180.968 18.6387 180.851 18.3754 180.851 18.0686C180.851 17.758 180.968 17.4947 181.203 17.2788C181.438 17.0591 181.718 16.9493 182.044 16.9493C182.374 16.9493 182.654 17.0591 182.885 17.2788C183.12 17.4947 183.237 17.758 183.237 18.0686C183.237 18.3754 183.12 18.6387 182.885 18.8584C182.654 19.0743 182.374 19.1822 182.044 19.1822ZM187.239 24.0345V29.1481H185.182V20.4209H187.148V21.9038H187.25C187.451 21.4152 187.771 21.0269 188.21 20.739C188.653 20.4512 189.201 20.3072 189.852 20.3072C190.455 20.3072 190.979 20.436 191.426 20.6936C191.877 20.9512 192.225 21.3243 192.472 21.8129C192.722 22.3015 192.845 22.8943 192.841 23.5913V29.1481H190.784V23.9095C190.784 23.3262 190.633 22.8697 190.33 22.5402C190.03 22.2106 189.616 22.0459 189.085 22.0459C188.725 22.0459 188.405 22.1254 188.125 22.2845C187.848 22.4398 187.631 22.6652 187.472 22.9606C187.316 23.2561 187.239 23.614 187.239 24.0345ZM200.494 25.4777V20.4209H202.551V29.1481H200.557V27.597H200.466C200.269 28.0856 199.945 28.4853 199.494 28.7959C199.047 29.1065 198.496 29.2618 197.841 29.2618C197.269 29.2618 196.763 29.1349 196.324 28.8811C195.888 28.6235 195.547 28.2504 195.301 27.7618C195.055 27.2693 194.932 26.6746 194.932 25.9777V20.4209H196.989V25.6595C196.989 26.2125 197.14 26.6519 197.443 26.9777C197.746 27.3034 198.144 27.4663 198.636 27.4663C198.939 27.4663 199.233 27.3925 199.517 27.2447C199.801 27.097 200.034 26.8773 200.216 26.5856C200.402 26.2902 200.494 25.9209 200.494 25.4777ZM208.53 29.3186C207.655 29.3186 206.899 29.1368 206.263 28.7731C205.63 28.4057 205.143 27.8868 204.803 27.2163C204.462 26.5421 204.291 25.7485 204.291 24.8356C204.291 23.9379 204.462 23.15 204.803 22.472C205.147 21.7902 205.628 21.2599 206.246 20.8811C206.863 20.4985 207.589 20.3072 208.422 20.3072C208.96 20.3072 209.467 20.3943 209.945 20.5686C210.426 20.739 210.85 21.0042 211.217 21.364C211.589 21.7239 211.88 22.1822 212.092 22.739C212.304 23.2921 212.411 23.9512 212.411 24.7163V25.347H205.257V23.9606H210.439C210.435 23.5667 210.35 23.2163 210.183 22.9095C210.017 22.5989 209.784 22.3546 209.484 22.1765C209.189 21.9985 208.844 21.9095 208.45 21.9095C208.03 21.9095 207.661 22.0118 207.342 22.2163C207.024 22.4171 206.776 22.6822 206.598 23.0118C206.424 23.3375 206.335 23.6955 206.331 24.0856V25.2959C206.331 25.8034 206.424 26.239 206.609 26.6027C206.795 26.9625 207.054 27.239 207.388 27.4322C207.721 27.6216 208.111 27.7163 208.558 27.7163C208.857 27.7163 209.128 27.6746 209.371 27.5913C209.613 27.5042 209.823 27.3773 210.001 27.2106C210.179 27.044 210.314 26.8375 210.405 26.5913L212.325 26.8072C212.204 27.3148 211.973 27.758 211.632 28.1368C211.295 28.5118 210.863 28.8034 210.337 29.0118C209.81 29.2163 209.208 29.3186 208.53 29.3186Z" fill="white"/>
</g>
<defs>
<filter id="filter0_d_182_99" x="0" y="0.148132" width="356" height="48" filterUnits="userSpaceOnUse" color-interpolation-filters="sRGB">
<feFlood flood-opacity="0" result="BackgroundImageFix"/>
<feColorMatrix in="SourceAlpha" type="matrix" values="0 0 0 0 0 0 0 0 0 0 0 0 0 0 0 0 0 0 127 0" result="hardAlpha"/>
<feOffset dy="1"/>
<feGaussianBlur stdDeviation="1"/>
<feColorMatrix type="matrix" values="0 0 0 0 0.0627451 0 0 0 0 0.0941176 0 0 0 0 0.156863 0 0 0 0.05 0"/>
<feBlend mode="normal" in2="BackgroundImageFix" result="effect1_dropShadow_182_99"/>
<feBlend mode="normal" in="SourceGraphic" in2="effect1_dropShadow_182_99" result="shape"/>
</filter>
</defs>
</svg>
