<svg width="400" height="97" viewBox="0 0 400 97" fill="none" xmlns="http://www.w3.org/2000/svg">
<rect width="400" height="96" transform="translate(0 0.148132)" fill="white"/>
<rect width="400" height="96" transform="translate(0 0.148132)" fill="white"/>
<path d="M71.9705 32.0572H74.6488L77.8512 37.8484H77.979L81.1815 32.0572H83.8597L79.0977 40.2646V45.1481H76.7326V40.2646L71.9705 32.0572ZM87.8915 45.3399C86.9327 45.3399 86.1017 45.129 85.3986 44.7071C84.6955 44.2852 84.15 43.695 83.7623 42.9365C83.3787 42.178 83.187 41.2916 83.187 40.2774C83.187 39.2632 83.3787 38.3747 83.7623 37.6119C84.15 36.8491 84.6955 36.2568 85.3986 35.8349C86.1017 35.413 86.9327 35.2021 87.8915 35.2021C88.8503 35.2021 89.6813 35.413 90.3844 35.8349C91.0875 36.2568 91.6309 36.8491 92.0144 37.6119C92.4022 38.3747 92.5961 39.2632 92.5961 40.2774C92.5961 41.2916 92.4022 42.178 92.0144 42.9365C91.6309 43.695 91.0875 44.2852 90.3844 44.7071C89.6813 45.129 88.8503 45.3399 87.8915 45.3399ZM87.9043 43.4862C88.4242 43.4862 88.8588 43.3434 89.2083 43.0579C89.5577 42.7682 89.8176 42.3804 89.9881 41.8946C90.1628 41.4088 90.2502 40.8676 90.2502 40.271C90.2502 39.6701 90.1628 39.1268 89.9881 38.641C89.8176 38.151 89.5577 37.7611 89.2083 37.4713C88.8588 37.1815 88.4242 37.0366 87.9043 37.0366C87.3716 37.0366 86.9284 37.1815 86.5748 37.4713C86.2253 37.7611 85.9632 38.151 85.7885 38.641C85.6181 39.1268 85.5328 39.6701 85.5328 40.271C85.5328 40.8676 85.6181 41.4088 85.7885 41.8946C85.9632 42.3804 86.2253 42.7682 86.5748 43.0579C86.9284 43.3434 87.3716 43.4862 87.9043 43.4862ZM100.818 41.0189V35.33H103.132V45.1481H100.888V43.4031H100.786C100.564 43.9528 100.2 44.4024 99.6928 44.7518C99.19 45.1013 98.57 45.276 97.8327 45.276C97.1893 45.276 96.6204 45.1332 96.1261 44.8477C95.636 44.5579 95.2525 44.1382 94.9755 43.5885C94.6985 43.0345 94.56 42.3655 94.56 41.5814V35.33H96.8739V41.2234C96.8739 41.8456 97.0444 42.3399 97.3853 42.7064C97.7262 43.0728 98.1737 43.2561 98.7276 43.2561C99.0685 43.2561 99.3988 43.173 99.7184 43.0068C100.038 42.8406 100.3 42.5934 100.505 42.2653C100.713 41.9329 100.818 41.5175 100.818 41.0189ZM107.737 32.0572V33.3612C107.737 33.7362 107.665 34.1261 107.52 34.5309C107.379 34.9315 107.185 35.315 106.938 35.6815C106.691 36.0437 106.41 36.3548 106.094 36.6148L105.021 35.918C105.255 35.5643 105.46 35.1829 105.634 34.7738C105.809 34.3605 105.896 33.8939 105.896 33.374V32.0572H107.737ZM109.238 45.1481V35.33H111.481V36.9663H111.584C111.763 36.3996 112.069 35.9628 112.504 35.6559C112.943 35.3449 113.444 35.1893 114.006 35.1893C114.134 35.1893 114.277 35.1957 114.434 35.2085C114.596 35.217 114.731 35.2319 114.837 35.2532V37.3818C114.739 37.3477 114.584 37.3179 114.371 37.2923C114.162 37.2625 113.959 37.2476 113.763 37.2476C113.341 37.2476 112.962 37.3392 112.626 37.5224C112.293 37.7014 112.031 37.9507 111.839 38.2703C111.648 38.5899 111.552 38.9585 111.552 39.3761V45.1481H109.238ZM120.317 45.3399C119.332 45.3399 118.482 45.1353 117.766 44.7263C117.055 44.3129 116.507 43.7291 116.124 42.9748C115.74 42.2163 115.548 41.3236 115.548 40.2966C115.548 39.2866 115.74 38.4003 116.124 37.6375C116.511 36.8704 117.053 36.2738 117.747 35.8477C118.442 35.4173 119.258 35.2021 120.195 35.2021C120.8 35.2021 121.371 35.3001 121.908 35.4961C122.45 35.6879 122.927 35.9862 123.34 36.391C123.758 36.7959 124.086 37.3115 124.325 37.9379C124.563 38.5601 124.683 39.3015 124.683 40.1623V40.8719H116.635V39.3122H122.464C122.46 38.869 122.364 38.4748 122.177 38.1297C121.989 37.7802 121.727 37.5054 121.391 37.3051C121.058 37.1048 120.67 37.0047 120.227 37.0047C119.754 37.0047 119.339 37.1197 118.981 37.3498C118.623 37.5757 118.344 37.874 118.143 38.2447C117.947 38.6112 117.847 39.0139 117.843 39.4528V40.8143C117.843 41.3853 117.947 41.8754 118.156 42.2845C118.365 42.6893 118.657 43.0004 119.032 43.2177C119.407 43.4308 119.846 43.5373 120.349 43.5373C120.685 43.5373 120.99 43.4905 121.263 43.3967C121.536 43.2987 121.772 43.1559 121.972 42.9684C122.173 42.7809 122.324 42.5487 122.426 42.2717L124.587 42.5146C124.45 43.0856 124.19 43.5842 123.807 44.0103C123.428 44.4322 122.942 44.7603 122.349 44.9947C121.757 45.2248 121.08 45.3399 120.317 45.3399ZM131.207 45.1481V32.0572H133.521V36.9535H133.617C133.736 36.7149 133.905 36.4613 134.122 36.1929C134.339 35.9201 134.633 35.6879 135.004 35.4961C135.375 35.3001 135.848 35.2021 136.423 35.2021C137.182 35.2021 137.866 35.396 138.475 35.7838C139.089 36.1673 139.574 36.7362 139.932 37.4905C140.295 38.2405 140.476 39.1609 140.476 40.2518C140.476 41.33 140.299 42.2461 139.945 43.0004C139.591 43.7547 139.11 44.33 138.501 44.7263C137.891 45.1226 137.201 45.3207 136.43 45.3207C135.867 45.3207 135.4 45.227 135.03 45.0395C134.659 44.852 134.361 44.6261 134.135 44.3619C133.913 44.0934 133.741 43.8399 133.617 43.6013H133.483V45.1481H131.207ZM133.476 40.239C133.476 40.874 133.566 41.4301 133.745 41.9074C133.928 42.3846 134.19 42.7575 134.531 43.026C134.876 43.2902 135.294 43.4223 135.784 43.4223C136.295 43.4223 136.724 43.2859 137.069 43.0132C137.414 42.7362 137.674 42.3591 137.849 41.8818C138.028 41.4003 138.117 40.8527 138.117 40.239C138.117 39.6297 138.03 39.0885 137.855 38.6155C137.68 38.1425 137.42 37.7717 137.075 37.5032C136.73 37.2348 136.3 37.1005 135.784 37.1005C135.29 37.1005 134.87 37.2305 134.525 37.4905C134.18 37.7504 133.917 38.1148 133.738 38.5835C133.564 39.0523 133.476 39.6041 133.476 40.239ZM146.789 45.3399C145.805 45.3399 144.955 45.1353 144.239 44.7263C143.527 44.3129 142.98 43.7291 142.596 42.9748C142.213 42.2163 142.021 41.3236 142.021 40.2966C142.021 39.2866 142.213 38.4003 142.596 37.6375C142.984 36.8704 143.525 36.2738 144.22 35.8477C144.914 35.4173 145.73 35.2021 146.668 35.2021C147.273 35.2021 147.844 35.3001 148.381 35.4961C148.922 35.6879 149.4 35.9862 149.813 36.391C150.23 36.7959 150.559 37.3115 150.797 37.9379C151.036 38.5601 151.155 39.3015 151.155 40.1623V40.8719H143.108V39.3122H148.937C148.933 38.869 148.837 38.4748 148.65 38.1297C148.462 37.7802 148.2 37.5054 147.863 37.3051C147.531 37.1048 147.143 37.0047 146.7 37.0047C146.227 37.0047 145.811 37.1197 145.453 37.3498C145.096 37.5757 144.816 37.874 144.616 38.2447C144.42 38.6112 144.32 39.0139 144.316 39.4528V40.8143C144.316 41.3853 144.42 41.8754 144.629 42.2845C144.838 42.6893 145.13 43.0004 145.505 43.2177C145.88 43.4308 146.319 43.5373 146.821 43.5373C147.158 43.5373 147.463 43.4905 147.735 43.3967C148.008 43.2987 148.245 43.1559 148.445 42.9684C148.645 42.7809 148.797 42.5487 148.899 42.2717L151.059 42.5146C150.923 43.0856 150.663 43.5842 150.279 44.0103C149.9 44.4322 149.414 44.7603 148.822 44.9947C148.23 45.2248 147.552 45.3399 146.789 45.3399ZM153.113 45.1481V35.33H155.427V45.1481H153.113ZM154.276 33.9365C153.91 33.9365 153.594 33.815 153.33 33.5721C153.066 33.325 152.934 33.0288 152.934 32.6836C152.934 32.3342 153.066 32.038 153.33 31.7951C153.594 31.548 153.91 31.4244 154.276 31.4244C154.647 31.4244 154.962 31.548 155.222 31.7951C155.486 32.038 155.618 32.3342 155.618 32.6836C155.618 33.0288 155.486 33.325 155.222 33.5721C154.962 33.815 154.647 33.9365 154.276 33.9365ZM160.12 39.3953V45.1481H157.806V35.33H160.018V36.9983H160.133C160.359 36.4486 160.719 36.0118 161.213 35.6879C161.712 35.364 162.327 35.2021 163.06 35.2021C163.738 35.2021 164.328 35.347 164.831 35.6368C165.338 35.9265 165.73 36.3463 166.007 36.896C166.288 37.4457 166.427 38.1126 166.423 38.8967V45.1481H164.109V39.2547C164.109 38.5984 163.938 38.0849 163.597 37.7142C163.261 37.3434 162.794 37.1581 162.197 37.1581C161.793 37.1581 161.433 37.2476 161.117 37.4265C160.806 37.6013 160.561 37.8548 160.382 38.1872C160.207 38.5196 160.12 38.9223 160.12 39.3953ZM173.045 49.0345C172.214 49.0345 171.5 48.9216 170.903 48.6957C170.307 48.4741 169.827 48.1758 169.465 47.8008C169.103 47.4258 168.852 47.0103 168.711 46.5544L170.795 46.0494C170.888 46.2412 171.025 46.4308 171.204 46.6183C171.383 46.8101 171.624 46.9677 171.926 47.0913C172.233 47.2192 172.619 47.2831 173.083 47.2831C173.739 47.2831 174.283 47.1233 174.713 46.8037C175.143 46.4883 175.359 45.9684 175.359 45.244V43.3839H175.244C175.124 43.6226 174.95 43.8676 174.719 44.119C174.494 44.3704 174.193 44.5814 173.818 44.7518C173.447 44.9223 172.981 45.0075 172.418 45.0075C171.664 45.0075 170.98 44.8307 170.366 44.477C169.757 44.119 169.271 43.5863 168.909 42.879C168.551 42.1673 168.372 41.2767 168.372 40.2071C168.372 39.129 168.551 38.2192 168.909 37.4777C169.271 36.7319 169.759 36.1673 170.373 35.7838C170.987 35.396 171.67 35.2021 172.425 35.2021C173 35.2021 173.473 35.3001 173.844 35.4961C174.219 35.6879 174.517 35.9201 174.739 36.1929C174.96 36.4613 175.129 36.7149 175.244 36.9535H175.371V35.33H177.653V45.3079C177.653 46.1474 177.453 46.842 177.053 47.3917C176.652 47.9415 176.104 48.3527 175.41 48.6254C174.715 48.8981 173.927 49.0345 173.045 49.0345ZM173.064 43.1922C173.554 43.1922 173.972 43.0728 174.317 42.8342C174.662 42.5956 174.924 42.2525 175.103 41.8051C175.282 41.3576 175.371 40.8207 175.371 40.1943C175.371 39.5764 175.282 39.0352 175.103 38.5707C174.928 38.1062 174.668 37.7461 174.323 37.4905C173.982 37.2305 173.563 37.1005 173.064 37.1005C172.548 37.1005 172.118 37.2348 171.773 37.5032C171.428 37.7717 171.168 38.1403 170.993 38.6091C170.818 39.0736 170.731 39.602 170.731 40.1943C170.731 40.7951 170.818 41.3214 170.993 41.7731C171.172 42.2206 171.434 42.57 171.779 42.8214C172.129 43.0686 172.557 43.1922 173.064 43.1922ZM184.49 45.1481V35.33H186.733V36.9663H186.836C187.015 36.3996 187.321 35.9628 187.756 35.6559C188.195 35.3449 188.696 35.1893 189.258 35.1893C189.386 35.1893 189.529 35.1957 189.686 35.2085C189.848 35.217 189.983 35.2319 190.089 35.2532V37.3818C189.991 37.3477 189.836 37.3179 189.623 37.2923C189.414 37.2625 189.211 37.2476 189.015 37.2476C188.593 37.2476 188.214 37.3392 187.877 37.5224C187.545 37.7014 187.283 37.9507 187.091 38.2703C186.9 38.5899 186.804 38.9585 186.804 39.3761V45.1481H184.49ZM195.569 45.3399C194.584 45.3399 193.734 45.1353 193.018 44.7263C192.307 44.3129 191.759 43.7291 191.376 42.9748C190.992 42.2163 190.8 41.3236 190.8 40.2966C190.8 39.2866 190.992 38.4003 191.376 37.6375C191.763 36.8704 192.305 36.2738 192.999 35.8477C193.694 35.4173 194.51 35.2021 195.447 35.2021C196.052 35.2021 196.623 35.3001 197.16 35.4961C197.702 35.6879 198.179 35.9862 198.592 36.391C199.01 36.7959 199.338 37.3115 199.577 37.9379C199.815 38.5601 199.934 39.3015 199.934 40.1623V40.8719H191.887V39.3122H197.716C197.712 38.869 197.616 38.4748 197.429 38.1297C197.241 37.7802 196.979 37.5054 196.643 37.3051C196.31 37.1048 195.922 37.0047 195.479 37.0047C195.006 37.0047 194.591 37.1197 194.233 37.3498C193.875 37.5757 193.596 37.874 193.395 38.2447C193.199 38.6112 193.099 39.0139 193.095 39.4528V40.8143C193.095 41.3853 193.199 41.8754 193.408 42.2845C193.617 42.6893 193.909 43.0004 194.284 43.2177C194.659 43.4308 195.098 43.5373 195.601 43.5373C195.937 43.5373 196.242 43.4905 196.515 43.3967C196.787 43.2987 197.024 43.1559 197.224 42.9684C197.425 42.7809 197.576 42.5487 197.678 42.2717L199.839 42.5146C199.702 43.0856 199.442 43.5842 199.059 44.0103C198.68 44.4322 198.194 44.7603 197.601 44.9947C197.009 45.2248 196.331 45.3399 195.569 45.3399ZM207.843 38.7433V40.6481H201.95V38.7433H207.843ZM213.92 45.3207C213.149 45.3207 212.459 45.1226 211.849 44.7263C211.24 44.33 210.758 43.7547 210.405 43.0004C210.051 42.2461 209.874 41.33 209.874 40.2518C209.874 39.1609 210.053 38.2405 210.411 37.4905C210.773 36.7362 211.261 36.1673 211.875 35.7838C212.488 35.396 213.172 35.2021 213.927 35.2021C214.502 35.2021 214.975 35.3001 215.346 35.4961C215.716 35.6879 216.01 35.9201 216.228 36.1929C216.445 36.4613 216.613 36.7149 216.733 36.9535H216.829V32.0572H219.149V45.1481H216.873V43.6013H216.733C216.613 43.8399 216.441 44.0934 216.215 44.3619C215.989 44.6261 215.691 44.852 215.32 45.0395C214.949 45.227 214.483 45.3207 213.92 45.3207ZM214.566 43.4223C215.056 43.4223 215.474 43.2902 215.819 43.026C216.164 42.7575 216.426 42.3846 216.605 41.9074C216.784 41.4301 216.873 40.874 216.873 40.239C216.873 39.6041 216.784 39.0523 216.605 38.5835C216.43 38.1148 216.17 37.7504 215.825 37.4905C215.484 37.2305 215.064 37.1005 214.566 37.1005C214.05 37.1005 213.62 37.2348 213.275 37.5032C212.93 37.7717 212.67 38.1425 212.495 38.6155C212.32 39.0885 212.233 39.6297 212.233 40.239C212.233 40.8527 212.32 41.4003 212.495 41.8818C212.674 42.3591 212.936 42.7362 213.281 43.0132C213.631 43.2859 214.059 43.4223 214.566 43.4223ZM221.615 45.1481V35.33H223.929V45.1481H221.615ZM222.778 33.9365C222.412 33.9365 222.096 33.815 221.832 33.5721C221.568 33.325 221.436 33.0288 221.436 32.6836C221.436 32.3342 221.568 32.038 221.832 31.7951C222.096 31.548 222.412 31.4244 222.778 31.4244C223.149 31.4244 223.464 31.548 223.724 31.7951C223.988 32.038 224.12 32.3342 224.12 32.6836C224.12 33.0288 223.988 33.325 223.724 33.5721C223.464 33.815 223.149 33.9365 222.778 33.9365ZM226.308 45.1481V35.33H228.552V36.9663H228.654C228.833 36.3996 229.14 35.9628 229.574 35.6559C230.013 35.3449 230.514 35.1893 231.077 35.1893C231.204 35.1893 231.347 35.1957 231.505 35.2085C231.667 35.217 231.801 35.2319 231.907 35.2532V37.3818C231.809 37.3477 231.654 37.3179 231.441 37.2923C231.232 37.2625 231.03 37.2476 230.834 37.2476C230.412 37.2476 230.032 37.3392 229.696 37.5224C229.363 37.7014 229.101 37.9507 228.91 38.2703C228.718 38.5899 228.622 38.9585 228.622 39.3761V45.1481H226.308ZM237.387 45.3399C236.403 45.3399 235.553 45.1353 234.837 44.7263C234.125 44.3129 233.577 43.7291 233.194 42.9748C232.81 42.2163 232.619 41.3236 232.619 40.2966C232.619 39.2866 232.81 38.4003 233.194 37.6375C233.582 36.8704 234.123 36.2738 234.817 35.8477C235.512 35.4173 236.328 35.2021 237.266 35.2021C237.871 35.2021 238.442 35.3001 238.979 35.4961C239.52 35.6879 239.997 35.9862 240.411 36.391C240.828 36.7959 241.156 37.3115 241.395 37.9379C241.634 38.5601 241.753 39.3015 241.753 40.1623V40.8719H233.705V39.3122H239.535C239.531 38.869 239.435 38.4748 239.247 38.1297C239.06 37.7802 238.798 37.5054 238.461 37.3051C238.129 37.1048 237.741 37.0047 237.298 37.0047C236.825 37.0047 236.409 37.1197 236.051 37.3498C235.693 37.5757 235.414 37.874 235.214 38.2447C235.018 38.6112 234.918 39.0139 234.913 39.4528V40.8143C234.913 41.3853 235.018 41.8754 235.227 42.2845C235.435 42.6893 235.727 43.0004 236.102 43.2177C236.477 43.4308 236.916 43.5373 237.419 43.5373C237.756 43.5373 238.06 43.4905 238.333 43.3967C238.606 43.2987 238.842 43.1559 239.043 42.9684C239.243 42.7809 239.394 42.5487 239.496 42.2717L241.657 42.5146C241.521 43.0856 241.261 43.5842 240.877 44.0103C240.498 44.4322 240.012 44.7603 239.42 44.9947C238.827 45.2248 238.15 45.3399 237.387 45.3399ZM247.993 45.3399C247.013 45.3399 246.171 45.1247 245.468 44.6943C244.769 44.2639 244.23 43.6694 243.851 42.9109C243.476 42.1481 243.289 41.2703 243.289 40.2774C243.289 39.2802 243.48 38.4003 243.864 37.6375C244.247 36.8704 244.789 36.2738 245.487 35.8477C246.191 35.4173 247.021 35.2021 247.98 35.2021C248.777 35.2021 249.482 35.3491 250.096 35.6432C250.714 35.9329 251.206 36.3442 251.573 36.8768C251.939 37.4052 252.148 38.0231 252.199 38.7305H249.987C249.898 38.2575 249.685 37.8633 249.348 37.548C249.016 37.2284 248.57 37.0686 248.012 37.0686C247.539 37.0686 247.124 37.1964 246.766 37.4521C246.408 37.7035 246.129 38.0657 245.928 38.5388C245.732 39.0118 245.634 39.5785 245.634 40.239C245.634 40.9081 245.732 41.4834 245.928 41.9649C246.124 42.4422 246.399 42.8108 246.753 43.0707C247.111 43.3264 247.531 43.4542 248.012 43.4542C248.353 43.4542 248.658 43.3903 248.926 43.2625C249.199 43.1304 249.427 42.9407 249.61 42.6936C249.794 42.4464 249.919 42.146 249.987 41.7923H252.199C252.144 42.4869 251.939 43.1027 251.585 43.6396C251.232 44.1723 250.75 44.5899 250.141 44.8925C249.531 45.1907 248.816 45.3399 247.993 45.3399ZM259.002 35.33V37.1197H253.358V35.33H259.002ZM254.751 32.9777H257.065V42.195C257.065 42.5061 257.112 42.7447 257.206 42.9109C257.304 43.0728 257.431 43.1836 257.589 43.2433C257.747 43.303 257.922 43.3328 258.113 43.3328C258.258 43.3328 258.39 43.3221 258.51 43.3008C258.633 43.2795 258.727 43.2603 258.791 43.2433L259.181 45.0523C259.057 45.0949 258.88 45.1417 258.65 45.1929C258.424 45.244 258.147 45.2738 257.819 45.2824C257.24 45.2994 256.718 45.2121 256.253 45.0203C255.789 44.8243 255.42 44.5217 255.147 44.1126C254.879 43.7035 254.747 43.1922 254.751 42.5785V32.9777ZM265.178 45.3399C264.194 45.3399 263.344 45.1353 262.628 44.7263C261.916 44.3129 261.368 43.7291 260.985 42.9748C260.601 42.2163 260.41 41.3236 260.41 40.2966C260.41 39.2866 260.601 38.4003 260.985 37.6375C261.373 36.8704 261.914 36.2738 262.608 35.8477C263.303 35.4173 264.119 35.2021 265.057 35.2021C265.662 35.2021 266.233 35.3001 266.77 35.4961C267.311 35.6879 267.788 35.9862 268.202 36.391C268.619 36.7959 268.947 37.3115 269.186 37.9379C269.425 38.5601 269.544 39.3015 269.544 40.1623V40.8719H261.496V39.3122H267.326C267.322 38.869 267.226 38.4748 267.038 38.1297C266.851 37.7802 266.589 37.5054 266.252 37.3051C265.92 37.1048 265.532 37.0047 265.089 37.0047C264.616 37.0047 264.2 37.1197 263.842 37.3498C263.484 37.5757 263.205 37.874 263.005 38.2447C262.809 38.6112 262.709 39.0139 262.704 39.4528V40.8143C262.704 41.3853 262.809 41.8754 263.018 42.2845C263.226 42.6893 263.518 43.0004 263.893 43.2177C264.268 43.4308 264.707 43.5373 265.21 43.5373C265.547 43.5373 265.851 43.4905 266.124 43.3967C266.397 43.2987 266.633 43.1559 266.834 42.9684C267.034 42.7809 267.185 42.5487 267.287 42.2717L269.448 42.5146C269.312 43.0856 269.052 43.5842 268.668 44.0103C268.289 44.4322 267.803 44.7603 267.211 44.9947C266.618 45.2248 265.941 45.3399 265.178 45.3399ZM275.145 45.3207C274.374 45.3207 273.683 45.1226 273.074 44.7263C272.464 44.33 271.983 43.7547 271.629 43.0004C271.276 42.2461 271.099 41.33 271.099 40.2518C271.099 39.1609 271.278 38.2405 271.636 37.4905C271.998 36.7362 272.486 36.1673 273.099 35.7838C273.713 35.396 274.397 35.2021 275.151 35.2021C275.727 35.2021 276.2 35.3001 276.57 35.4961C276.941 35.6879 277.235 35.9201 277.452 36.1929C277.67 36.4613 277.838 36.7149 277.957 36.9535H278.053V32.0572H280.374V45.1481H278.098V43.6013H277.957C277.838 43.8399 277.665 44.0934 277.44 44.3619C277.214 44.6261 276.915 44.852 276.545 45.0395C276.174 45.227 275.707 45.3207 275.145 45.3207ZM275.79 43.4223C276.281 43.4223 276.698 43.2902 277.043 43.026C277.388 42.7575 277.651 42.3846 277.83 41.9074C278.009 41.4301 278.098 40.874 278.098 40.239C278.098 39.6041 278.009 39.0523 277.83 38.5835C277.655 38.1148 277.395 37.7504 277.05 37.4905C276.709 37.2305 276.289 37.1005 275.79 37.1005C275.275 37.1005 274.844 37.2348 274.499 37.5032C274.154 37.7717 273.894 38.1425 273.719 38.6155C273.545 39.0885 273.457 39.6297 273.457 40.239C273.457 40.8527 273.545 41.4003 273.719 41.8818C273.898 42.3591 274.161 42.7362 274.506 43.0132C274.855 43.2859 275.283 43.4223 275.79 43.4223ZM287.406 45.1481V32.0572H289.72V36.9535H289.816C289.936 36.7149 290.104 36.4613 290.321 36.1929C290.539 35.9201 290.833 35.6879 291.203 35.4961C291.574 35.3001 292.047 35.2021 292.622 35.2021C293.381 35.2021 294.065 35.396 294.674 35.7838C295.288 36.1673 295.774 36.7362 296.132 37.4905C296.494 38.2405 296.675 39.1609 296.675 40.2518C296.675 41.33 296.498 42.2461 296.144 43.0004C295.791 43.7547 295.309 44.33 294.7 44.7263C294.09 45.1226 293.4 45.3207 292.629 45.3207C292.066 45.3207 291.6 45.227 291.229 45.0395C290.858 44.852 290.56 44.6261 290.334 44.3619C290.112 44.0934 289.94 43.8399 289.816 43.6013H289.682V45.1481H287.406ZM289.676 40.239C289.676 40.874 289.765 41.4301 289.944 41.9074C290.127 42.3846 290.389 42.7575 290.73 43.026C291.075 43.2902 291.493 43.4223 291.983 43.4223C292.494 43.4223 292.923 43.2859 293.268 43.0132C293.613 42.7362 293.873 42.3591 294.048 41.8818C294.227 41.4003 294.316 40.8527 294.316 40.239C294.316 39.6297 294.229 39.0885 294.054 38.6155C293.879 38.1425 293.619 37.7717 293.274 37.5032C292.929 37.2348 292.499 37.1005 291.983 37.1005C291.489 37.1005 291.069 37.2305 290.724 37.4905C290.379 37.7504 290.117 38.1148 289.938 38.5835C289.763 39.0523 289.676 39.6041 289.676 40.239ZM301.467 45.3463C300.845 45.3463 300.285 45.2355 299.786 45.0139C299.292 44.788 298.9 44.4557 298.61 44.0167C298.325 43.5778 298.182 43.0366 298.182 42.3932C298.182 41.8392 298.284 41.3811 298.489 41.0189C298.693 40.6567 298.972 40.3669 299.326 40.1496C299.68 39.9322 300.078 39.7682 300.521 39.6574C300.969 39.5423 301.431 39.4592 301.908 39.4081C302.484 39.3484 302.95 39.2951 303.308 39.2483C303.666 39.1971 303.926 39.1204 304.088 39.0182C304.254 38.9116 304.337 38.7476 304.337 38.526V38.4876C304.337 38.0061 304.195 37.6332 303.909 37.369C303.624 37.1048 303.212 36.9727 302.675 36.9727C302.109 36.9727 301.659 37.0963 301.327 37.3434C300.999 37.5906 300.777 37.8825 300.662 38.2192L298.501 37.9123C298.672 37.3157 298.953 36.8172 299.345 36.4166C299.737 36.0118 300.217 35.7092 300.783 35.5089C301.35 35.3044 301.977 35.2021 302.663 35.2021C303.136 35.2021 303.607 35.2575 304.075 35.3683C304.544 35.4791 304.972 35.6623 305.36 35.918C305.748 36.1694 306.059 36.5125 306.293 36.9471C306.532 37.3818 306.651 37.9251 306.651 38.5771V45.1481H304.427V43.7994H304.35C304.21 44.0721 304.011 44.3278 303.756 44.5665C303.504 44.8008 303.187 44.9905 302.803 45.1353C302.424 45.276 301.979 45.3463 301.467 45.3463ZM302.068 43.646C302.533 43.646 302.935 43.5544 303.276 43.3711C303.617 43.1836 303.879 42.9365 304.062 42.6297C304.25 42.3228 304.344 41.9883 304.344 41.6261V40.4692C304.271 40.5288 304.148 40.5842 303.973 40.6353C303.803 40.6865 303.611 40.7312 303.398 40.7696C303.185 40.8079 302.974 40.842 302.765 40.8719C302.556 40.9017 302.375 40.9273 302.222 40.9486C301.876 40.9954 301.567 41.0721 301.295 41.1787C301.022 41.2852 300.807 41.4344 300.649 41.6261C300.491 41.8136 300.413 42.0565 300.413 42.3548C300.413 42.7809 300.568 43.1027 300.879 43.32C301.19 43.5373 301.587 43.646 302.068 43.646ZM313.261 45.3399C312.281 45.3399 311.439 45.1247 310.736 44.6943C310.037 44.2639 309.498 43.6694 309.119 42.9109C308.744 42.1481 308.556 41.2703 308.556 40.2774C308.556 39.2802 308.748 38.4003 309.131 37.6375C309.515 36.8704 310.056 36.2738 310.755 35.8477C311.458 35.4173 312.289 35.2021 313.248 35.2021C314.045 35.2021 314.75 35.3491 315.364 35.6432C315.982 35.9329 316.474 36.3442 316.84 36.8768C317.207 37.4052 317.415 38.0231 317.467 38.7305H315.255C315.165 38.2575 314.952 37.8633 314.616 37.548C314.283 37.2284 313.838 37.0686 313.28 37.0686C312.807 37.0686 312.391 37.1964 312.033 37.4521C311.675 37.7035 311.396 38.0657 311.196 38.5388C311 39.0118 310.902 39.5785 310.902 40.239C310.902 40.9081 311 41.4834 311.196 41.9649C311.392 42.4422 311.667 42.8108 312.021 43.0707C312.379 43.3264 312.798 43.4542 313.28 43.4542C313.621 43.4542 313.925 43.3903 314.194 43.2625C314.467 43.1304 314.695 42.9407 314.878 42.6936C315.061 42.4464 315.187 42.146 315.255 41.7923H317.467C317.411 42.4869 317.207 43.1027 316.853 43.6396C316.499 44.1723 316.018 44.5899 315.408 44.8925C314.799 45.1907 314.083 45.3399 313.261 45.3399ZM321.476 42.0672L321.47 39.2738H321.84L325.369 35.33H328.073L323.732 40.1623H323.253L321.476 42.0672ZM319.367 45.1481V32.0572H321.681V45.1481H319.367ZM325.529 45.1481L322.333 40.6801L323.892 39.0501L328.296 45.1481H325.529Z" fill="#101828"/>
<path d="M36.8119 62.0601V60.9663H44.4482V62.0601H41.2465V71.1481H40.0136V62.0601H36.8119ZM47.3653 66.5544V71.1481H46.192V60.9663H47.3653V64.705H47.4648C47.6437 64.3105 47.9122 63.9973 48.2702 63.7653C48.6314 63.53 49.112 63.4123 49.7119 63.4123C50.2323 63.4123 50.688 63.5167 51.0791 63.7255C51.4702 63.931 51.7735 64.2476 51.9889 64.6751C52.2077 65.0994 52.317 65.6396 52.317 66.2959V71.1481H51.1437V66.3754C51.1437 65.7689 50.9863 65.2999 50.6714 64.9684C50.3599 64.6337 49.9273 64.4663 49.3738 64.4663C48.9894 64.4663 48.6447 64.5475 48.3398 64.7099C48.0381 64.8723 47.7995 65.1093 47.6238 65.4209C47.4515 65.7324 47.3653 66.1103 47.3653 66.5544ZM56.7107 71.3271C56.2268 71.3271 55.7876 71.236 55.3932 71.0537C54.9988 70.8681 54.6856 70.6013 54.4536 70.2532C54.2216 69.9019 54.1056 69.4777 54.1056 68.9805C54.1056 68.543 54.1917 68.1884 54.3641 67.9166C54.5364 67.6415 54.7668 67.4261 55.0551 67.2703C55.3435 67.1145 55.6617 66.9985 56.0097 66.9223C56.361 66.8427 56.714 66.7798 57.0686 66.7334C57.5326 66.6737 57.9088 66.629 58.1972 66.5991C58.4888 66.566 58.701 66.5113 58.8335 66.4351C58.9694 66.3588 59.0374 66.2263 59.0374 66.0373V65.9976C59.0374 65.507 58.9031 65.1259 58.6347 64.8541C58.3695 64.5823 57.9668 64.4464 57.4266 64.4464C56.8664 64.4464 56.4273 64.5691 56.1091 64.8143C55.7909 65.0596 55.5672 65.3214 55.4379 65.5998L54.3243 65.2021C54.5232 64.7381 54.7883 64.3768 55.1198 64.1183C55.4545 63.8565 55.8191 63.6742 56.2135 63.5714C56.6112 63.4654 57.0023 63.4123 57.3868 63.4123C57.6321 63.4123 57.9138 63.4422 58.232 63.5018C58.5535 63.5582 58.8634 63.6758 59.1617 63.8548C59.4633 64.0338 59.7135 64.3039 59.9124 64.6652C60.1112 65.0264 60.2107 65.5103 60.2107 66.1169V71.1481H59.0374V70.114H58.9777C58.8982 70.2798 58.7656 70.4571 58.58 70.646C58.3944 70.8349 58.1475 70.9957 57.8392 71.1282C57.531 71.2608 57.1548 71.3271 56.7107 71.3271ZM56.8896 70.2731C57.3537 70.2731 57.7448 70.182 58.0629 69.9997C58.3844 69.8174 58.6264 69.5821 58.7888 69.2937C58.9545 69.0054 59.0374 68.7021 59.0374 68.3839V67.3101C58.9877 67.3697 58.8783 67.4244 58.7093 67.4741C58.5435 67.5205 58.3513 67.562 58.1325 67.5984C57.9171 67.6316 57.7066 67.6614 57.5012 67.6879C57.299 67.7111 57.1349 67.731 57.009 67.7476C56.704 67.7873 56.419 67.852 56.1539 67.9415C55.892 68.0276 55.6799 68.1585 55.5175 68.3342C55.3584 68.5066 55.2789 68.7419 55.2789 69.0402C55.2789 69.4478 55.4297 69.7561 55.7313 69.9649C56.0362 70.1704 56.4223 70.2731 56.8896 70.2731ZM63.5255 66.5544V71.1481H62.3522V63.5118H63.4857V64.705H63.5851C63.7641 64.3172 64.0359 64.0056 64.4005 63.7703C64.7651 63.5317 65.2357 63.4123 65.8124 63.4123C66.3295 63.4123 66.7819 63.5184 67.1697 63.7305C67.5574 63.9393 67.859 64.2575 68.0745 64.6851C68.2899 65.1093 68.3976 65.6462 68.3976 66.2959V71.1481H67.2243V66.3754C67.2243 65.7755 67.0686 65.3082 66.757 64.9734C66.4455 64.6353 66.0179 64.4663 65.4743 64.4663C65.0998 64.4663 64.7651 64.5475 64.4701 64.7099C64.1784 64.8723 63.9481 65.1093 63.779 65.4209C63.61 65.7324 63.5255 66.1103 63.5255 66.5544ZM71.6354 68.364L71.6155 66.9123H71.8541L75.195 63.5118H76.6468L73.0871 67.1112H72.9877L71.6354 68.364ZM70.5416 71.1481V60.9663H71.7149V71.1481H70.5416ZM75.3939 71.1481L72.411 67.3697L73.2462 66.5544L76.8854 71.1481H75.3939ZM82.8501 74.0118C82.6512 74.0118 82.4739 73.9952 82.3181 73.9621C82.1623 73.9322 82.0546 73.9024 81.9949 73.8726L82.2932 72.8385C82.5783 72.9114 82.8302 72.9379 83.0489 72.918C83.2677 72.8981 83.4616 72.8004 83.6306 72.6247C83.8029 72.4523 83.9604 72.1723 84.1029 71.7845L84.3216 71.1879L81.4978 63.5118H82.7705L84.8785 69.597H84.958L87.066 63.5118H88.3387L85.0972 72.2618C84.9514 72.6562 84.7707 72.9826 84.5553 73.2412C84.3399 73.503 84.0896 73.6969 83.8046 73.8228C83.5229 73.9488 83.2047 74.0118 82.8501 74.0118ZM92.7162 71.3072C92.0268 71.3072 91.4219 71.1432 90.9015 70.815C90.3845 70.4869 89.9801 70.0279 89.6885 69.4379C89.4001 68.8479 89.2559 68.1585 89.2559 67.3697C89.2559 66.5743 89.4001 65.8799 89.6885 65.2866C89.9801 64.6933 90.3845 64.2326 90.9015 63.9045C91.4219 63.5764 92.0268 63.4123 92.7162 63.4123C93.4056 63.4123 94.0088 63.5764 94.5258 63.9045C95.0462 64.2326 95.4506 64.6933 95.7389 65.2866C96.0306 65.8799 96.1764 66.5743 96.1764 67.3697C96.1764 68.1585 96.0306 68.8479 95.7389 69.4379C95.4506 70.0279 95.0462 70.4869 94.5258 70.815C94.0088 71.1432 93.4056 71.3072 92.7162 71.3072ZM92.7162 70.2532C93.2398 70.2532 93.6707 70.119 94.0088 69.8505C94.3469 69.5821 94.5971 69.2291 94.7595 68.7916C94.9219 68.3541 95.0031 67.8801 95.0031 67.3697C95.0031 66.8593 94.9219 66.3837 94.7595 65.9429C94.5971 65.5021 94.3469 65.1458 94.0088 64.874C93.6707 64.6022 93.2398 64.4663 92.7162 64.4663C92.1925 64.4663 91.7616 64.6022 91.4236 64.874C91.0855 65.1458 90.8353 65.5021 90.6729 65.9429C90.5104 66.3837 90.4292 66.8593 90.4292 67.3697C90.4292 67.8801 90.5104 68.3541 90.6729 68.7916C90.8353 69.2291 91.0855 69.5821 91.4236 69.8505C91.7616 70.119 92.1925 70.2532 92.7162 70.2532ZM102.78 68.026V63.5118H103.953V71.1481H102.78V69.8555H102.7C102.521 70.2433 102.243 70.5731 101.865 70.8449C101.487 71.1133 101.01 71.2476 100.433 71.2476C99.9561 71.2476 99.5318 71.1432 99.1606 70.9344C98.7894 70.7222 98.4977 70.4041 98.2856 69.9798C98.0735 69.5523 97.9674 69.0137 97.9674 68.364V63.5118H99.1407V68.2845C99.1407 68.8413 99.2965 69.2854 99.608 69.6169C99.9229 69.9483 100.324 70.114 100.811 70.114C101.103 70.114 101.399 70.0395 101.701 69.8903C102.006 69.7412 102.261 69.5125 102.467 69.2042C102.676 68.896 102.78 68.5032 102.78 68.026ZM113.44 63.5118V64.5061H109.324V63.5118H113.44ZM110.557 71.1481V62.4578C110.557 62.0203 110.659 61.6557 110.865 61.364C111.07 61.0724 111.337 60.8536 111.665 60.7078C111.994 60.562 112.34 60.489 112.704 60.489C112.993 60.489 113.228 60.5122 113.41 60.5586C113.593 60.605 113.729 60.6481 113.818 60.6879L113.48 61.7021C113.42 61.6822 113.338 61.6574 113.231 61.6275C113.129 61.5977 112.993 61.5828 112.824 61.5828C112.436 61.5828 112.156 61.6806 111.984 61.8761C111.815 62.0717 111.73 62.3584 111.73 62.7362V71.1481H110.557ZM117.872 71.3072C117.183 71.3072 116.578 71.1432 116.058 70.815C115.541 70.4869 115.136 70.0279 114.845 69.4379C114.556 68.8479 114.412 68.1585 114.412 67.3697C114.412 66.5743 114.556 65.8799 114.845 65.2866C115.136 64.6933 115.541 64.2326 116.058 63.9045C116.578 63.5764 117.183 63.4123 117.872 63.4123C118.562 63.4123 119.165 63.5764 119.682 63.9045C120.202 64.2326 120.607 64.6933 120.895 65.2866C121.187 65.8799 121.333 66.5743 121.333 67.3697C121.333 68.1585 121.187 68.8479 120.895 69.4379C120.607 70.0279 120.202 70.4869 119.682 70.815C119.165 71.1432 118.562 71.3072 117.872 71.3072ZM117.872 70.2532C118.396 70.2532 118.827 70.119 119.165 69.8505C119.503 69.5821 119.753 69.2291 119.916 68.7916C120.078 68.3541 120.159 67.8801 120.159 67.3697C120.159 66.8593 120.078 66.3837 119.916 65.9429C119.753 65.5021 119.503 65.1458 119.165 64.874C118.827 64.6022 118.396 64.4663 117.872 64.4663C117.349 64.4663 116.918 64.6022 116.58 64.874C116.242 65.1458 115.992 65.5021 115.829 65.9429C115.667 66.3837 115.585 66.8593 115.585 67.3697C115.585 67.8801 115.667 68.3541 115.829 68.7916C115.992 69.2291 116.242 69.5821 116.58 69.8505C116.918 70.119 117.349 70.2532 117.872 70.2532ZM123.124 71.1481V63.5118H124.257V64.6652H124.337C124.476 64.2873 124.728 63.9808 125.092 63.7454C125.457 63.5101 125.868 63.3924 126.325 63.3924C126.412 63.3924 126.519 63.3941 126.649 63.3974C126.778 63.4007 126.876 63.4057 126.942 63.4123V64.6055C126.902 64.5956 126.811 64.5807 126.668 64.5608C126.529 64.5376 126.382 64.526 126.226 64.526C125.855 64.526 125.523 64.6039 125.232 64.7596C124.943 64.9121 124.715 65.1242 124.546 65.396C124.38 65.6645 124.297 65.971 124.297 66.3157V71.1481H123.124ZM137.083 68.026V63.5118H138.256V71.1481H137.083V69.8555H137.003C136.824 70.2433 136.546 70.5731 136.168 70.8449C135.79 71.1133 135.313 71.2476 134.736 71.2476C134.259 71.2476 133.835 71.1432 133.463 70.9344C133.092 70.7222 132.8 70.4041 132.588 69.9798C132.376 69.5523 132.27 69.0137 132.27 68.364V63.5118H133.443V68.2845C133.443 68.8413 133.599 69.2854 133.911 69.6169C134.226 69.9483 134.627 70.114 135.114 70.114C135.406 70.114 135.702 70.0395 136.004 69.8903C136.309 69.7412 136.564 69.5125 136.769 69.2042C136.978 68.896 137.083 68.5032 137.083 68.026ZM145.814 65.222L144.76 65.5203C144.694 65.3446 144.596 65.1739 144.467 65.0082C144.341 64.8392 144.168 64.7 143.95 64.5906C143.731 64.4812 143.451 64.4265 143.109 64.4265C142.642 64.4265 142.253 64.5343 141.941 64.7497C141.633 64.9618 141.479 65.2319 141.479 65.5601C141.479 65.8517 141.585 66.0821 141.797 66.2511C142.009 66.4201 142.341 66.561 142.791 66.6737L143.925 66.9521C144.608 67.1178 145.116 67.3714 145.451 67.7128C145.786 68.0508 145.953 68.4867 145.953 69.0203C145.953 69.4578 145.827 69.8489 145.575 70.1936C145.327 70.5383 144.979 70.8101 144.531 71.0089C144.084 71.2078 143.564 71.3072 142.97 71.3072C142.191 71.3072 141.547 71.1382 141.036 70.8001C140.526 70.4621 140.203 69.9682 140.067 69.3186L141.18 69.0402C141.287 69.4512 141.487 69.7594 141.782 69.9649C142.08 70.1704 142.47 70.2731 142.95 70.2731C143.497 70.2731 143.931 70.1571 144.253 69.9251C144.578 69.6898 144.74 69.4081 144.74 69.08C144.74 68.8148 144.647 68.5927 144.462 68.4138C144.276 68.2315 143.991 68.0956 143.607 68.0061L142.334 67.7078C141.635 67.5421 141.121 67.2852 140.793 66.9372C140.468 66.5859 140.305 66.1467 140.305 65.6197C140.305 65.1889 140.426 64.8077 140.668 64.4763C140.914 64.1448 141.247 63.8846 141.668 63.6957C142.092 63.5068 142.573 63.4123 143.109 63.4123C143.865 63.4123 144.458 63.5781 144.889 63.9095C145.323 64.2409 145.632 64.6784 145.814 65.222ZM147.719 71.1481V63.5118H148.893V71.1481H147.719ZM148.316 62.239C148.087 62.239 147.89 62.1612 147.724 62.0054C147.562 61.8496 147.481 61.6623 147.481 61.4436C147.481 61.2248 147.562 61.0376 147.724 60.8818C147.89 60.726 148.087 60.6481 148.316 60.6481C148.545 60.6481 148.74 60.726 148.903 60.8818C149.068 61.0376 149.151 61.2248 149.151 61.4436C149.151 61.6623 149.068 61.8496 148.903 62.0054C148.74 62.1612 148.545 62.239 148.316 62.239ZM152.215 66.5544V71.1481H151.042V63.5118H152.175V64.705H152.275C152.454 64.3172 152.725 64.0056 153.09 63.7703C153.455 63.5317 153.925 63.4123 154.502 63.4123C155.019 63.4123 155.471 63.5184 155.859 63.7305C156.247 63.9393 156.549 64.2575 156.764 64.6851C156.979 65.1093 157.087 65.6462 157.087 66.2959V71.1481H155.914V66.3754C155.914 65.7755 155.758 65.3082 155.446 64.9734C155.135 64.6353 154.707 64.4663 154.164 64.4663C153.789 64.4663 153.455 64.5475 153.16 64.7099C152.868 64.8723 152.638 65.1093 152.468 65.4209C152.299 65.7324 152.215 66.1103 152.215 66.5544ZM162.313 74.1709C161.747 74.1709 161.259 74.0979 160.852 73.9521C160.444 73.8096 160.104 73.6207 159.833 73.3853C159.564 73.1533 159.35 72.9048 159.191 72.6396L160.126 71.9834C160.232 72.1226 160.366 72.2817 160.529 72.4606C160.691 72.6429 160.913 72.8004 161.195 72.9329C161.48 73.0688 161.853 73.1368 162.313 73.1368C162.93 73.1368 163.439 72.9876 163.84 72.6893C164.241 72.391 164.441 71.9237 164.441 71.2873V69.7362H164.342C164.256 69.8754 164.133 70.0478 163.974 70.2532C163.818 70.4554 163.593 70.6361 163.298 70.7951C163.006 70.9509 162.612 71.0288 162.115 71.0288C161.498 71.0288 160.945 70.883 160.454 70.5913C159.967 70.2996 159.581 69.8754 159.296 69.3186C159.014 68.7618 158.873 68.0856 158.873 67.2902C158.873 66.508 159.011 65.8269 159.286 65.2469C159.561 64.6635 159.944 64.2128 160.434 63.8946C160.925 63.5731 161.492 63.4123 162.134 63.4123C162.632 63.4123 163.026 63.4952 163.318 63.6609C163.613 63.8233 163.838 64.0089 163.994 64.2177C164.153 64.4232 164.276 64.5923 164.362 64.7248H164.481V63.5118H165.615V71.3669C165.615 72.0231 165.465 72.5567 165.167 72.9677C164.872 73.382 164.474 73.6853 163.974 73.8775C163.477 74.0731 162.923 74.1709 162.313 74.1709ZM162.274 69.9748C162.744 69.9748 163.142 69.8671 163.467 69.6517C163.792 69.4362 164.039 69.1264 164.208 68.722C164.377 68.3176 164.461 67.8337 164.461 67.2703C164.461 66.7201 164.378 66.2345 164.213 65.8136C164.047 65.3927 163.802 65.0629 163.477 64.8243C163.152 64.5856 162.751 64.4663 162.274 64.4663C161.777 64.4663 161.362 64.5923 161.031 64.8442C160.703 65.096 160.456 65.4341 160.29 65.8584C160.128 66.2826 160.046 66.7532 160.046 67.2703C160.046 67.8006 160.129 68.2696 160.295 68.6773C160.464 69.0816 160.713 69.3998 161.041 69.6318C161.372 69.8605 161.783 69.9748 162.274 69.9748ZM172.277 60.9663L175.299 69.5373H175.419L178.441 60.9663H179.734L175.995 71.1481H174.723L170.984 60.9663H172.277ZM183.652 71.3072C182.916 71.3072 182.281 71.1448 181.747 70.82C181.217 70.4919 180.808 70.0345 180.519 69.4478C180.234 68.8579 180.092 68.1718 180.092 67.3896C180.092 66.6074 180.234 65.918 180.519 65.3214C180.808 64.7215 181.209 64.2542 181.723 63.9194C182.24 63.5814 182.843 63.4123 183.532 63.4123C183.93 63.4123 184.323 63.4786 184.71 63.6112C185.098 63.7438 185.451 63.9592 185.769 64.2575C186.088 64.5525 186.341 64.9436 186.53 65.4308C186.719 65.918 186.813 66.5179 186.813 67.2305V67.7277H180.927V66.7135H185.62C185.62 66.2826 185.534 65.8981 185.362 65.5601C185.193 65.222 184.951 64.9552 184.636 64.7596C184.324 64.5641 183.956 64.4663 183.532 64.4663C183.065 64.4663 182.661 64.5823 182.319 64.8143C181.981 65.043 181.721 65.3413 181.539 65.7092C181.356 66.0771 181.265 66.4715 181.265 66.8925V67.5686C181.265 68.1453 181.365 68.6342 181.563 69.0352C181.766 69.4329 182.046 69.7362 182.404 69.945C182.762 70.1505 183.178 70.2532 183.652 70.2532C183.96 70.2532 184.238 70.2102 184.487 70.124C184.739 70.0345 184.956 69.9019 185.138 69.7263C185.32 69.5473 185.461 69.3252 185.561 69.0601L186.694 69.3782C186.575 69.7627 186.374 70.1008 186.093 70.3925C185.811 70.6808 185.463 70.9062 185.049 71.0686C184.634 71.2277 184.169 71.3072 183.652 71.3072ZM188.598 71.1481V63.5118H189.732V64.6652H189.811C189.951 64.2873 190.202 63.9808 190.567 63.7454C190.932 63.5101 191.343 63.3924 191.8 63.3924C191.886 63.3924 191.994 63.3941 192.123 63.3974C192.252 63.4007 192.35 63.4057 192.416 63.4123V64.6055C192.377 64.5956 192.286 64.5807 192.143 64.5608C192.004 64.5376 191.856 64.526 191.701 64.526C191.329 64.526 190.998 64.6039 190.706 64.7596C190.418 64.9121 190.189 65.1242 190.02 65.396C189.854 65.6645 189.772 65.971 189.772 66.3157V71.1481H188.598ZM196.054 71.3271C195.571 71.3271 195.131 71.236 194.737 71.0537C194.343 70.8681 194.029 70.6013 193.797 70.2532C193.565 69.9019 193.449 69.4777 193.449 68.9805C193.449 68.543 193.535 68.1884 193.708 67.9166C193.88 67.6415 194.111 67.4261 194.399 67.2703C194.687 67.1145 195.005 66.9985 195.353 66.9223C195.705 66.8427 196.058 66.7798 196.412 66.7334C196.876 66.6737 197.253 66.629 197.541 66.5991C197.833 66.566 198.045 66.5113 198.177 66.4351C198.313 66.3588 198.381 66.2263 198.381 66.0373V65.9976C198.381 65.507 198.247 65.1259 197.978 64.8541C197.713 64.5823 197.311 64.4464 196.77 64.4464C196.21 64.4464 195.771 64.5691 195.453 64.8143C195.135 65.0596 194.911 65.3214 194.782 65.5998L193.668 65.2021C193.867 64.7381 194.132 64.3768 194.464 64.1183C194.798 63.8565 195.163 63.6742 195.557 63.5714C195.955 63.4654 196.346 63.4123 196.731 63.4123C196.976 63.4123 197.258 63.4422 197.576 63.5018C197.897 63.5582 198.207 63.6758 198.505 63.8548C198.807 64.0338 199.057 64.3039 199.256 64.6652C199.455 65.0264 199.554 65.5103 199.554 66.1169V71.1481H198.381V70.114H198.321C198.242 70.2798 198.109 70.4571 197.924 70.646C197.738 70.8349 197.491 70.9957 197.183 71.1282C196.875 71.2608 196.499 71.3271 196.054 71.3271ZM196.233 70.2731C196.697 70.2731 197.089 70.182 197.407 69.9997C197.728 69.8174 197.97 69.5821 198.133 69.2937C198.298 69.0054 198.381 68.7021 198.381 68.3839V67.3101C198.331 67.3697 198.222 67.4244 198.053 67.4741C197.887 67.5205 197.695 67.562 197.476 67.5984C197.261 67.6316 197.05 67.6614 196.845 67.6879C196.643 67.7111 196.479 67.731 196.353 67.7476C196.048 67.7873 195.763 67.852 195.498 67.9415C195.236 68.0276 195.024 68.1585 194.861 68.3342C194.702 68.5066 194.623 68.7419 194.623 69.0402C194.623 69.4478 194.773 69.7561 195.075 69.9649C195.38 70.1704 195.766 70.2731 196.233 70.2731ZM201.855 71.1481V60.9663H207.96V62.0601H203.088V65.5004H207.503V66.5942H203.088V71.1481H201.855ZM209.913 71.1481V63.5118H211.086V71.1481H209.913ZM210.509 62.239C210.281 62.239 210.083 62.1612 209.918 62.0054C209.755 61.8496 209.674 61.6623 209.674 61.4436C209.674 61.2248 209.755 61.0376 209.918 60.8818C210.083 60.726 210.281 60.6481 210.509 60.6481C210.738 60.6481 210.934 60.726 211.096 60.8818C211.262 61.0376 211.345 61.2248 211.345 61.4436C211.345 61.6623 211.262 61.8496 211.096 62.0054C210.934 62.1612 210.738 62.239 210.509 62.239ZM214.09 71.2277C213.845 71.2277 213.634 71.1398 213.459 70.9642C213.283 70.7885 213.195 70.5781 213.195 70.3328C213.195 70.0875 213.283 69.8771 213.459 69.7014C213.634 69.5257 213.845 69.4379 214.09 69.4379C214.335 69.4379 214.546 69.5257 214.722 69.7014C214.897 69.8771 214.985 70.0875 214.985 70.3328C214.985 70.4952 214.944 70.6443 214.861 70.7802C214.781 70.9161 214.673 71.0255 214.538 71.1084C214.405 71.1879 214.256 71.2277 214.09 71.2277ZM220.312 60.9663H221.724L224.548 65.7192H224.667L227.491 60.9663H228.903L225.224 66.9521V71.1481H223.991V66.9521L220.312 60.9663ZM232.361 71.3072C231.671 71.3072 231.066 71.1432 230.546 70.815C230.029 70.4869 229.625 70.0279 229.333 69.4379C229.045 68.8479 228.9 68.1585 228.9 67.3697C228.9 66.5743 229.045 65.8799 229.333 65.2866C229.625 64.6933 230.029 64.2326 230.546 63.9045C231.066 63.5764 231.671 63.4123 232.361 63.4123C233.05 63.4123 233.653 63.5764 234.17 63.9045C234.691 64.2326 235.095 64.6933 235.383 65.2866C235.675 65.8799 235.821 66.5743 235.821 67.3697C235.821 68.1585 235.675 68.8479 235.383 69.4379C235.095 70.0279 234.691 70.4869 234.17 70.815C233.653 71.1432 233.05 71.3072 232.361 71.3072ZM232.361 70.2532C232.884 70.2532 233.315 70.119 233.653 69.8505C233.991 69.5821 234.242 69.2291 234.404 68.7916C234.566 68.3541 234.648 67.8801 234.648 67.3697C234.648 66.8593 234.566 66.3837 234.404 65.9429C234.242 65.5021 233.991 65.1458 233.653 64.874C233.315 64.6022 232.884 64.4663 232.361 64.4663C231.837 64.4663 231.406 64.6022 231.068 64.874C230.73 65.1458 230.48 65.5021 230.317 65.9429C230.155 66.3837 230.074 66.8593 230.074 67.3697C230.074 67.8801 230.155 68.3541 230.317 68.7916C230.48 69.2291 230.73 69.5821 231.068 69.8505C231.406 70.119 231.837 70.2532 232.361 70.2532ZM242.424 68.026V63.5118H243.598V71.1481H242.424V69.8555H242.345C242.166 70.2433 241.888 70.5731 241.51 70.8449C241.132 71.1133 240.655 71.2476 240.078 71.2476C239.601 71.2476 239.176 71.1432 238.805 70.9344C238.434 70.7222 238.142 70.4041 237.93 69.9798C237.718 69.5523 237.612 69.0137 237.612 68.364V63.5118H238.785V68.2845C238.785 68.8413 238.941 69.2854 239.253 69.6169C239.567 69.9483 239.968 70.114 240.456 70.114C240.747 70.114 241.044 70.0395 241.346 69.8903C241.651 69.7412 241.906 69.5125 242.111 69.2042C242.32 68.896 242.424 68.5032 242.424 68.026ZM246.986 60.9663V61.8612C246.986 62.133 246.936 62.423 246.837 62.7312C246.741 63.0362 246.598 63.3328 246.409 63.6211C246.224 63.9062 245.998 64.1548 245.733 64.3669L245.097 63.8498C245.305 63.5515 245.486 63.2416 245.639 62.9201C245.794 62.5953 245.872 62.249 245.872 61.8811V60.9663H246.986ZM248.235 71.1481V63.5118H249.369V64.6652H249.448C249.587 64.2873 249.839 63.9808 250.204 63.7454C250.568 63.5101 250.979 63.3924 251.437 63.3924C251.523 63.3924 251.631 63.3941 251.76 63.3974C251.889 63.4007 251.987 63.4057 252.053 63.4123V64.6055C252.013 64.5956 251.922 64.5807 251.78 64.5608C251.641 64.5376 251.493 64.526 251.337 64.526C250.966 64.526 250.635 64.6039 250.343 64.7596C250.055 64.9121 249.826 65.1242 249.657 65.396C249.491 65.6645 249.408 65.971 249.408 66.3157V71.1481H248.235ZM256.413 71.3072C255.677 71.3072 255.043 71.1448 254.509 70.82C253.979 70.4919 253.57 70.0345 253.281 69.4478C252.996 68.8579 252.854 68.1718 252.854 67.3896C252.854 66.6074 252.996 65.918 253.281 65.3214C253.57 64.7215 253.971 64.2542 254.484 63.9194C255.001 63.5814 255.605 63.4123 256.294 63.4123C256.692 63.4123 257.084 63.4786 257.472 63.6112C257.86 63.7438 258.213 63.9592 258.531 64.2575C258.849 64.5525 259.103 64.9436 259.292 65.4308C259.481 65.918 259.575 66.5179 259.575 67.2305V67.7277H253.689V66.7135H258.382C258.382 66.2826 258.296 65.8981 258.123 65.5601C257.954 65.222 257.713 64.9552 257.398 64.7596C257.086 64.5641 256.718 64.4663 256.294 64.4663C255.827 64.4663 255.422 64.5823 255.081 64.8143C254.743 65.043 254.483 65.3413 254.3 65.7092C254.118 66.0771 254.027 66.4715 254.027 66.8925V67.5686C254.027 68.1453 254.126 68.6342 254.325 69.0352C254.527 69.4329 254.807 69.7362 255.165 69.945C255.523 70.1505 255.939 70.2532 256.413 70.2532C256.722 70.2532 257 70.2102 257.248 70.124C257.5 70.0345 257.717 69.9019 257.9 69.7263C258.082 69.5473 258.223 69.3252 258.322 69.0601L259.456 69.3782C259.337 69.7627 259.136 70.1008 258.854 70.3925C258.573 70.6808 258.225 70.9062 257.81 71.0686C257.396 71.2277 256.93 71.3072 256.413 71.3072ZM270.707 65.222L269.653 65.5203C269.586 65.3446 269.489 65.1739 269.359 65.0082C269.233 64.8392 269.061 64.7 268.842 64.5906C268.623 64.4812 268.343 64.4265 268.002 64.4265C267.535 64.4265 267.145 64.5343 266.834 64.7497C266.525 64.9618 266.371 65.2319 266.371 65.5601C266.371 65.8517 266.477 66.0821 266.69 66.2511C266.902 66.4201 267.233 66.561 267.684 66.6737L268.817 66.9521C269.5 67.1178 270.009 67.3714 270.344 67.7128C270.678 68.0508 270.846 68.4867 270.846 69.0203C270.846 69.4578 270.72 69.8489 270.468 70.1936C270.219 70.5383 269.871 70.8101 269.424 71.0089C268.976 71.2078 268.456 71.3072 267.863 71.3072C267.084 71.3072 266.439 71.1382 265.929 70.8001C265.418 70.4621 265.095 69.9682 264.959 69.3186L266.073 69.0402C266.179 69.4512 266.38 69.7594 266.675 69.9649C266.973 70.1704 267.362 70.2731 267.843 70.2731C268.39 70.2731 268.824 70.1571 269.146 69.9251C269.47 69.6898 269.633 69.4081 269.633 69.08C269.633 68.8148 269.54 68.5927 269.354 68.4138C269.169 68.2315 268.884 68.0956 268.499 68.0061L267.226 67.7078C266.527 67.5421 266.013 67.2852 265.685 66.9372C265.36 66.5859 265.198 66.1467 265.198 65.6197C265.198 65.1889 265.319 64.8077 265.561 64.4763C265.806 64.1448 266.139 63.8846 266.56 63.6957C266.985 63.5068 267.465 63.4123 268.002 63.4123C268.758 63.4123 269.351 63.5781 269.782 63.9095C270.216 64.2409 270.524 64.6784 270.707 65.222ZM275.714 71.3072C274.998 71.3072 274.382 71.1382 273.865 70.8001C273.348 70.4621 272.95 69.9964 272.672 69.4031C272.393 68.8098 272.254 68.132 272.254 67.3697C272.254 66.5942 272.397 65.9097 272.682 65.3165C272.97 64.7199 273.371 64.2542 273.885 63.9194C274.402 63.5814 275.005 63.4123 275.694 63.4123C276.231 63.4123 276.715 63.5118 277.146 63.7106C277.577 63.9095 277.93 64.1879 278.205 64.5459C278.48 64.9038 278.651 65.3214 278.717 65.7987H277.544C277.454 65.4507 277.255 65.1425 276.947 64.874C276.642 64.6022 276.231 64.4663 275.714 64.4663C275.257 64.4663 274.856 64.5856 274.511 64.8243C274.17 65.0596 273.903 65.3927 273.711 65.8236C273.522 66.2511 273.427 66.7532 273.427 67.33C273.427 67.9199 273.52 68.4336 273.706 68.8711C273.895 69.3086 274.16 69.6484 274.501 69.8903C274.846 70.1323 275.25 70.2532 275.714 70.2532C276.019 70.2532 276.296 70.2002 276.544 70.0942C276.793 69.9881 277.004 69.8356 277.176 69.6368C277.348 69.4379 277.471 69.1993 277.544 68.9209H278.717C278.651 69.3716 278.487 69.7776 278.225 70.1389C277.966 70.4969 277.623 70.7819 277.196 70.994C276.772 71.2028 276.278 71.3072 275.714 71.3072ZM283.535 71.3072C282.845 71.3072 282.24 71.1432 281.72 70.815C281.203 70.4869 280.799 70.0279 280.507 69.4379C280.218 68.8479 280.074 68.1585 280.074 67.3697C280.074 66.5743 280.218 65.8799 280.507 65.2866C280.799 64.6933 281.203 64.2326 281.72 63.9045C282.24 63.5764 282.845 63.4123 283.535 63.4123C284.224 63.4123 284.827 63.5764 285.344 63.9045C285.865 64.2326 286.269 64.6933 286.557 65.2866C286.849 65.8799 286.995 66.5743 286.995 67.3697C286.995 68.1585 286.849 68.8479 286.557 69.4379C286.269 70.0279 285.865 70.4869 285.344 70.815C284.827 71.1432 284.224 71.3072 283.535 71.3072ZM283.535 70.2532C284.058 70.2532 284.489 70.119 284.827 69.8505C285.165 69.5821 285.415 69.2291 285.578 68.7916C285.74 68.3541 285.821 67.8801 285.821 67.3697C285.821 66.8593 285.74 66.3837 285.578 65.9429C285.415 65.5021 285.165 65.1458 284.827 64.874C284.489 64.6022 284.058 64.4663 283.535 64.4663C283.011 64.4663 282.58 64.6022 282.242 64.874C281.904 65.1458 281.654 65.5021 281.491 65.9429C281.329 66.3837 281.248 66.8593 281.248 67.3697C281.248 67.8801 281.329 68.3541 281.491 68.7916C281.654 69.2291 281.904 69.5821 282.242 69.8505C282.58 70.119 283.011 70.2532 283.535 70.2532ZM288.786 71.1481V63.5118H289.919V64.6652H289.999C290.138 64.2873 290.39 63.9808 290.755 63.7454C291.119 63.5101 291.53 63.3924 291.987 63.3924C292.074 63.3924 292.181 63.3941 292.311 63.3974C292.44 63.4007 292.538 63.4057 292.604 63.4123V64.6055C292.564 64.5956 292.473 64.5807 292.331 64.5608C292.191 64.5376 292.044 64.526 291.888 64.526C291.517 64.526 291.185 64.6039 290.894 64.7596C290.605 64.9121 290.377 65.1242 290.208 65.396C290.042 65.6645 289.959 65.971 289.959 66.3157V71.1481H288.786ZM296.964 71.3072C296.228 71.3072 295.594 71.1448 295.06 70.82C294.53 70.4919 294.12 70.0345 293.832 69.4478C293.547 68.8579 293.404 68.1718 293.404 67.3896C293.404 66.6074 293.547 65.918 293.832 65.3214C294.12 64.7215 294.521 64.2542 295.035 63.9194C295.552 63.5814 296.155 63.4123 296.845 63.4123C297.242 63.4123 297.635 63.4786 298.023 63.6112C298.411 63.7438 298.764 63.9592 299.082 64.2575C299.4 64.5525 299.654 64.9436 299.843 65.4308C300.032 65.918 300.126 66.5179 300.126 67.2305V67.7277H294.24V66.7135H298.933C298.933 66.2826 298.847 65.8981 298.674 65.5601C298.505 65.222 298.263 64.9552 297.948 64.7596C297.637 64.5641 297.269 64.4663 296.845 64.4663C296.377 64.4663 295.973 64.5823 295.632 64.8143C295.294 65.043 295.033 65.3413 294.851 65.7092C294.669 66.0771 294.578 66.4715 294.578 66.8925V67.5686C294.578 68.1453 294.677 68.6342 294.876 69.0352C295.078 69.4329 295.358 69.7362 295.716 69.945C296.074 70.1505 296.49 70.2532 296.964 70.2532C297.272 70.2532 297.551 70.2102 297.799 70.124C298.051 70.0345 298.268 69.9019 298.451 69.7263C298.633 69.5473 298.774 69.3252 298.873 69.0601L300.007 69.3782C299.887 69.7627 299.687 70.1008 299.405 70.3925C299.123 70.6808 298.775 70.9062 298.361 71.0686C297.947 71.2277 297.481 71.3072 296.964 71.3072ZM309.169 63.5118V64.5061H305.212V63.5118H309.169ZM306.365 61.6822H307.539V68.9606C307.539 69.2921 307.587 69.5407 307.683 69.7064C307.782 69.8688 307.908 69.9782 308.061 70.0345C308.216 70.0875 308.38 70.114 308.553 70.114C308.682 70.114 308.788 70.1074 308.871 70.0942C308.954 70.0776 309.02 70.0643 309.07 70.0544L309.309 71.1084C309.229 71.1382 309.118 71.168 308.975 71.1978C308.833 71.231 308.652 71.2476 308.434 71.2476C308.102 71.2476 307.777 71.1763 307.459 71.0338C307.144 70.8913 306.882 70.6742 306.674 70.3825C306.468 70.0908 306.365 69.7229 306.365 69.2788V61.6822ZM310.934 71.1481V63.5118H312.068V64.6652H312.147C312.286 64.2873 312.538 63.9808 312.903 63.7454C313.268 63.5101 313.679 63.3924 314.136 63.3924C314.222 63.3924 314.33 63.3941 314.459 63.3974C314.588 63.4007 314.686 63.4057 314.752 63.4123V64.6055C314.713 64.5956 314.621 64.5807 314.479 64.5608C314.34 64.5376 314.192 64.526 314.036 64.526C313.665 64.526 313.334 64.6039 313.042 64.7596C312.754 64.9121 312.525 65.1242 312.356 65.396C312.19 65.6645 312.108 65.971 312.108 66.3157V71.1481H310.934ZM318.39 71.3271C317.906 71.3271 317.467 71.236 317.073 71.0537C316.678 70.8681 316.365 70.6013 316.133 70.2532C315.901 69.9019 315.785 69.4777 315.785 68.9805C315.785 68.543 315.871 68.1884 316.044 67.9166C316.216 67.6415 316.446 67.4261 316.735 67.2703C317.023 67.1145 317.341 66.9985 317.689 66.9223C318.041 66.8427 318.394 66.7798 318.748 66.7334C319.212 66.6737 319.589 66.629 319.877 66.5991C320.169 66.566 320.381 66.5113 320.513 66.4351C320.649 66.3588 320.717 66.2263 320.717 66.0373V65.9976C320.717 65.507 320.583 65.1259 320.314 64.8541C320.049 64.5823 319.647 64.4464 319.106 64.4464C318.546 64.4464 318.107 64.5691 317.789 64.8143C317.471 65.0596 317.247 65.3214 317.118 65.5998L316.004 65.2021C316.203 64.7381 316.468 64.3768 316.799 64.1183C317.134 63.8565 317.499 63.6742 317.893 63.5714C318.291 63.4654 318.682 63.4123 319.066 63.4123C319.312 63.4123 319.593 63.4422 319.912 63.5018C320.233 63.5582 320.543 63.6758 320.841 63.8548C321.143 64.0338 321.393 64.3039 321.592 64.6652C321.791 65.0264 321.89 65.5103 321.89 66.1169V71.1481H320.717V70.114H320.657C320.578 70.2798 320.445 70.4571 320.26 70.646C320.074 70.8349 319.827 70.9957 319.519 71.1282C319.211 71.2608 318.834 71.3271 318.39 71.3271ZM318.569 70.2731C319.033 70.2731 319.424 70.182 319.743 69.9997C320.064 69.8174 320.306 69.5821 320.468 69.2937C320.634 69.0054 320.717 68.7021 320.717 68.3839V67.3101C320.667 67.3697 320.558 67.4244 320.389 67.4741C320.223 67.5205 320.031 67.562 319.812 67.5984C319.597 67.6316 319.386 67.6614 319.181 67.6879C318.979 67.7111 318.815 67.731 318.689 67.7476C318.384 67.7873 318.099 67.852 317.834 67.9415C317.572 68.0276 317.36 68.1585 317.197 68.3342C317.038 68.5066 316.959 68.7419 316.959 69.0402C316.959 69.4478 317.109 69.7561 317.411 69.9649C317.716 70.1704 318.102 70.2731 318.569 70.2731ZM325.205 66.5544V71.1481H324.032V63.5118H325.165V64.705H325.265C325.444 64.3172 325.716 64.0056 326.08 63.7703C326.445 63.5317 326.915 63.4123 327.492 63.4123C328.009 63.4123 328.462 63.5184 328.849 63.7305C329.237 63.9393 329.539 64.2575 329.754 64.6851C329.97 65.1093 330.077 65.6462 330.077 66.2959V71.1481H328.904V66.3754C328.904 65.7755 328.748 65.3082 328.437 64.9734C328.125 64.6353 327.698 64.4663 327.154 64.4663C326.78 64.4663 326.445 64.5475 326.15 64.7099C325.858 64.8723 325.628 65.1093 325.459 65.4209C325.29 65.7324 325.205 66.1103 325.205 66.5544ZM337.63 65.222L336.576 65.5203C336.51 65.3446 336.412 65.1739 336.283 65.0082C336.157 64.8392 335.985 64.7 335.766 64.5906C335.547 64.4812 335.267 64.4265 334.926 64.4265C334.459 64.4265 334.069 64.5343 333.758 64.7497C333.449 64.9618 333.295 65.2319 333.295 65.5601C333.295 65.8517 333.401 66.0821 333.613 66.2511C333.825 66.4201 334.157 66.561 334.608 66.6737L335.741 66.9521C336.424 67.1178 336.933 67.3714 337.267 67.7128C337.602 68.0508 337.77 68.4867 337.77 69.0203C337.77 69.4578 337.644 69.8489 337.392 70.1936C337.143 70.5383 336.795 70.8101 336.348 71.0089C335.9 71.2078 335.38 71.3072 334.787 71.3072C334.008 71.3072 333.363 71.1382 332.853 70.8001C332.342 70.4621 332.019 69.9682 331.883 69.3186L332.997 69.0402C333.103 69.4512 333.303 69.7594 333.598 69.9649C333.897 70.1704 334.286 70.2731 334.767 70.2731C335.314 70.2731 335.748 70.1571 336.069 69.9251C336.394 69.6898 336.557 69.4081 336.557 69.08C336.557 68.8148 336.464 68.5927 336.278 68.4138C336.093 68.2315 335.807 68.0956 335.423 68.0061L334.15 67.7078C333.451 67.5421 332.937 67.2852 332.609 66.9372C332.284 66.5859 332.122 66.1467 332.122 65.6197C332.122 65.1889 332.243 64.8077 332.485 64.4763C332.73 64.1448 333.063 63.8846 333.484 63.6957C333.908 63.5068 334.389 63.4123 334.926 63.4123C335.682 63.4123 336.275 63.5781 336.706 63.9095C337.14 64.2409 337.448 64.6784 337.63 65.222ZM342.936 63.5118V64.5061H338.82V63.5118H342.936ZM340.053 71.1481V62.4578C340.053 62.0203 340.156 61.6557 340.361 61.364C340.567 61.0724 340.833 60.8536 341.161 60.7078C341.49 60.562 341.836 60.489 342.201 60.489C342.489 60.489 342.724 60.5122 342.907 60.5586C343.089 60.605 343.225 60.6481 343.314 60.6879L342.976 61.7021C342.916 61.6822 342.834 61.6574 342.728 61.6275C342.625 61.5977 342.489 61.5828 342.32 61.5828C341.932 61.5828 341.652 61.6806 341.48 61.8761C341.311 62.0717 341.226 62.3584 341.226 62.7362V71.1481H340.053ZM347.468 71.3072C346.732 71.3072 346.097 71.1448 345.564 70.82C345.034 70.4919 344.624 70.0345 344.336 69.4478C344.051 68.8579 343.908 68.1718 343.908 67.3896C343.908 66.6074 344.051 65.918 344.336 65.3214C344.624 64.7215 345.025 64.2542 345.539 63.9194C346.056 63.5814 346.659 63.4123 347.349 63.4123C347.746 63.4123 348.139 63.4786 348.527 63.6112C348.915 63.7438 349.268 63.9592 349.586 64.2575C349.904 64.5525 350.158 64.9436 350.347 65.4308C350.535 65.918 350.63 66.5179 350.63 67.2305V67.7277H344.744V66.7135H349.437C349.437 66.2826 349.351 65.8981 349.178 65.5601C349.009 65.222 348.767 64.9552 348.452 64.7596C348.141 64.5641 347.773 64.4663 347.349 64.4663C346.881 64.4663 346.477 64.5823 346.136 64.8143C345.797 65.043 345.537 65.3413 345.355 65.7092C345.173 66.0771 345.082 66.4715 345.082 66.8925V67.5686C345.082 68.1453 345.181 68.6342 345.38 69.0352C345.582 69.4329 345.862 69.7362 346.22 69.945C346.578 70.1505 346.994 70.2532 347.468 70.2532C347.776 70.2532 348.055 70.2102 348.303 70.124C348.555 70.0345 348.772 69.9019 348.954 69.7263C349.137 69.5473 349.278 69.3252 349.377 69.0601L350.511 69.3782C350.391 69.7627 350.191 70.1008 349.909 70.3925C349.627 70.6808 349.279 70.9062 348.865 71.0686C348.451 71.2277 347.985 71.3072 347.468 71.3072ZM352.415 71.1481V63.5118H353.548V64.6652H353.628C353.767 64.2873 354.019 63.9808 354.383 63.7454C354.748 63.5101 355.159 63.3924 355.616 63.3924C355.703 63.3924 355.81 63.3941 355.94 63.3974C356.069 63.4007 356.167 63.4057 356.233 63.4123V64.6055C356.193 64.5956 356.102 64.5807 355.959 64.5608C355.82 64.5376 355.673 64.526 355.517 64.526C355.146 64.526 354.814 64.6039 354.523 64.7596C354.234 64.9121 354.006 65.1242 353.837 65.396C353.671 65.6645 353.588 65.971 353.588 66.3157V71.1481H352.415ZM363.033 65.222L361.979 65.5203C361.912 65.3446 361.815 65.1739 361.685 65.0082C361.56 64.8392 361.387 64.7 361.168 64.5906C360.95 64.4812 360.67 64.4265 360.328 64.4265C359.861 64.4265 359.471 64.5343 359.16 64.7497C358.852 64.9618 358.698 65.2319 358.698 65.5601C358.698 65.8517 358.804 66.0821 359.016 66.2511C359.228 66.4201 359.559 66.561 360.01 66.6737L361.144 66.9521C361.826 67.1178 362.335 67.3714 362.67 67.7128C363.005 68.0508 363.172 68.4867 363.172 69.0203C363.172 69.4578 363.046 69.8489 362.794 70.1936C362.546 70.5383 362.198 70.8101 361.75 71.0089C361.303 71.2078 360.782 71.3072 360.189 71.3072C359.41 71.3072 358.765 71.1382 358.255 70.8001C357.745 70.4621 357.421 69.9682 357.286 69.3186L358.399 69.0402C358.505 69.4512 358.706 69.7594 359.001 69.9649C359.299 70.1704 359.689 70.2731 360.169 70.2731C360.716 70.2731 361.15 70.1571 361.472 69.9251C361.796 69.6898 361.959 69.4081 361.959 69.08C361.959 68.8148 361.866 68.5927 361.68 68.4138C361.495 68.2315 361.21 68.0956 360.825 68.0061L359.553 67.7078C358.853 67.5421 358.34 67.2852 358.011 66.9372C357.687 66.5859 357.524 66.1467 357.524 65.6197C357.524 65.1889 357.645 64.8077 357.887 64.4763C358.132 64.1448 358.466 63.8846 358.886 63.6957C359.311 63.5068 359.791 63.4123 360.328 63.4123C361.084 63.4123 361.677 63.5781 362.108 63.9095C362.542 64.2409 362.85 64.6784 363.033 65.222ZM156.187 91.3271C155.703 91.3271 155.264 91.236 154.87 91.0537C154.475 90.8681 154.162 90.6013 153.93 90.2532C153.698 89.9019 153.582 89.4777 153.582 88.9805C153.582 88.543 153.668 88.1884 153.841 87.9166C154.013 87.6415 154.243 87.4261 154.532 87.2703C154.82 87.1145 155.138 86.9985 155.486 86.9223C155.838 86.8427 156.191 86.7798 156.545 86.7334C157.009 86.6737 157.385 86.629 157.674 86.5991C157.965 86.566 158.178 86.5113 158.31 86.4351C158.446 86.3588 158.514 86.2263 158.514 86.0373V85.9976C158.514 85.507 158.38 85.1259 158.111 84.8541C157.846 84.5823 157.443 84.4464 156.903 84.4464C156.343 84.4464 155.904 84.5691 155.586 84.8143C155.267 85.0596 155.044 85.3214 154.915 85.5998L153.801 85.2021C154 84.7381 154.265 84.3768 154.596 84.1183C154.931 83.8565 155.296 83.6742 155.69 83.5714C156.088 83.4654 156.479 83.4123 156.863 83.4123C157.109 83.4123 157.39 83.4422 157.709 83.5018C158.03 83.5582 158.34 83.6758 158.638 83.8548C158.94 84.0338 159.19 84.3039 159.389 84.6652C159.588 85.0264 159.687 85.5103 159.687 86.1169V91.1481H158.514V90.114H158.454C158.375 90.2798 158.242 90.4571 158.057 90.646C157.871 90.8349 157.624 90.9957 157.316 91.1282C157.008 91.2608 156.631 91.3271 156.187 91.3271ZM156.366 90.2731C156.83 90.2731 157.221 90.182 157.54 89.9997C157.861 89.8174 158.103 89.5821 158.265 89.2937C158.431 89.0054 158.514 88.7021 158.514 88.3839V87.3101C158.464 87.3697 158.355 87.4244 158.186 87.4741C158.02 87.5205 157.828 87.562 157.609 87.5984C157.394 87.6316 157.183 87.6614 156.978 87.6879C156.776 87.7111 156.611 87.731 156.486 87.7476C156.181 87.7873 155.896 87.852 155.63 87.9415C155.369 88.0276 155.156 88.1585 154.994 88.3342C154.835 88.5066 154.755 88.7419 154.755 89.0402C154.755 89.4478 154.906 89.7561 155.208 89.9649C155.513 90.1704 155.899 90.2731 156.366 90.2731ZM164.931 91.3072C164.215 91.3072 163.599 91.1382 163.082 90.8001C162.565 90.4621 162.167 89.9964 161.888 89.4031C161.61 88.8098 161.471 88.132 161.471 87.3697C161.471 86.5942 161.613 85.9097 161.898 85.3165C162.187 84.7199 162.588 84.2542 163.101 83.9194C163.619 83.5814 164.222 83.4123 164.911 83.4123C165.448 83.4123 165.932 83.5118 166.363 83.7106C166.794 83.9095 167.147 84.1879 167.422 84.5459C167.697 84.9038 167.868 85.3214 167.934 85.7987H166.761C166.671 85.4507 166.472 85.1425 166.164 84.874C165.859 84.6022 165.448 84.4663 164.931 84.4663C164.474 84.4663 164.073 84.5856 163.728 84.8243C163.387 85.0596 163.12 85.3927 162.927 85.8236C162.739 86.2511 162.644 86.7532 162.644 87.33C162.644 87.9199 162.737 88.4336 162.922 88.8711C163.111 89.3086 163.377 89.6484 163.718 89.8903C164.063 90.1323 164.467 90.2532 164.931 90.2532C165.236 90.2532 165.513 90.2002 165.761 90.0942C166.01 89.9881 166.22 89.8356 166.393 89.6368C166.565 89.4379 166.688 89.1993 166.761 88.9209H167.934C167.868 89.3716 167.704 89.7776 167.442 90.1389C167.183 90.4969 166.84 90.7819 166.413 90.994C165.988 91.2028 165.494 91.3072 164.931 91.3072ZM169.649 91.1481V83.5118H170.783V84.6652H170.862C171.001 84.2873 171.253 83.9808 171.618 83.7454C171.982 83.5101 172.393 83.3924 172.851 83.3924C172.937 83.3924 173.045 83.3941 173.174 83.3974C173.303 83.4007 173.401 83.4057 173.467 83.4123V84.6055C173.427 84.5956 173.336 84.5807 173.194 84.5608C173.055 84.5376 172.907 84.526 172.751 84.526C172.38 84.526 172.049 84.6039 171.757 84.7596C171.469 84.9121 171.24 85.1242 171.071 85.396C170.905 85.6645 170.822 85.971 170.822 86.3157V91.1481H169.649ZM177.728 91.3072C177.039 91.3072 176.434 91.1432 175.913 90.815C175.396 90.4869 174.992 90.0279 174.7 89.4379C174.412 88.8479 174.268 88.1585 174.268 87.3697C174.268 86.5743 174.412 85.8799 174.7 85.2866C174.992 84.6933 175.396 84.2326 175.913 83.9045C176.434 83.5764 177.039 83.4123 177.728 83.4123C178.417 83.4123 179.021 83.5764 179.538 83.9045C180.058 84.2326 180.462 84.6933 180.751 85.2866C181.042 85.8799 181.188 86.5743 181.188 87.3697C181.188 88.1585 181.042 88.8479 180.751 89.4379C180.462 90.0279 180.058 90.4869 179.538 90.815C179.021 91.1432 178.417 91.3072 177.728 91.3072ZM177.728 90.2532C178.252 90.2532 178.682 90.119 179.021 89.8505C179.359 89.5821 179.609 89.2291 179.771 88.7916C179.934 88.3541 180.015 87.8801 180.015 87.3697C180.015 86.8593 179.934 86.3837 179.771 85.9429C179.609 85.5021 179.359 85.1458 179.021 84.874C178.682 84.6022 178.252 84.4663 177.728 84.4663C177.204 84.4663 176.773 84.6022 176.435 84.874C176.097 85.1458 175.847 85.5021 175.685 85.9429C175.522 86.3837 175.441 86.8593 175.441 87.3697C175.441 87.8801 175.522 88.3541 175.685 88.7916C175.847 89.2291 176.097 89.5821 176.435 89.8505C176.773 90.119 177.204 90.2532 177.728 90.2532ZM188.388 85.222L187.334 85.5203C187.268 85.3446 187.17 85.1739 187.041 85.0082C186.915 84.8392 186.743 84.7 186.524 84.5906C186.305 84.4812 186.025 84.4265 185.684 84.4265C185.216 84.4265 184.827 84.5343 184.515 84.7497C184.207 84.9618 184.053 85.2319 184.053 85.5601C184.053 85.8517 184.159 86.0821 184.371 86.2511C184.583 86.4201 184.915 86.561 185.366 86.6737L186.499 86.9521C187.182 87.1178 187.691 87.3714 188.025 87.7128C188.36 88.0508 188.527 88.4867 188.527 89.0203C188.527 89.4578 188.401 89.8489 188.15 90.1936C187.901 90.5383 187.553 90.8101 187.106 91.0089C186.658 91.2078 186.138 91.3072 185.544 91.3072C184.766 91.3072 184.121 91.1382 183.611 90.8001C183.1 90.4621 182.777 89.9682 182.641 89.3186L183.755 89.0402C183.861 89.4512 184.061 89.7594 184.356 89.9649C184.655 90.1704 185.044 90.2731 185.525 90.2731C186.071 90.2731 186.506 90.1571 186.827 89.9251C187.152 89.6898 187.314 89.4081 187.314 89.08C187.314 88.8148 187.222 88.5927 187.036 88.4138C186.85 88.2315 186.565 88.0956 186.181 88.0061L184.908 87.7078C184.209 87.5421 183.695 87.2852 183.367 86.9372C183.042 86.5859 182.88 86.1467 182.88 85.6197C182.88 85.1889 183.001 84.8077 183.243 84.4763C183.488 84.1448 183.821 83.8846 184.242 83.6957C184.666 83.5068 185.147 83.4123 185.684 83.4123C186.439 83.4123 187.033 83.5781 187.464 83.9095C187.898 84.2409 188.206 84.6784 188.388 85.222ZM195.703 85.222L194.649 85.5203C194.582 85.3446 194.485 85.1739 194.355 85.0082C194.229 84.8392 194.057 84.7 193.838 84.5906C193.62 84.4812 193.34 84.4265 192.998 84.4265C192.531 84.4265 192.141 84.5343 191.83 84.7497C191.522 84.9618 191.367 85.2319 191.367 85.5601C191.367 85.8517 191.474 86.0821 191.686 86.2511C191.898 86.4201 192.229 86.561 192.68 86.6737L193.813 86.9521C194.496 87.1178 195.005 87.3714 195.34 87.7128C195.675 88.0508 195.842 88.4867 195.842 89.0203C195.842 89.4578 195.716 89.8489 195.464 90.1936C195.215 90.5383 194.867 90.8101 194.42 91.0089C193.973 91.2078 193.452 91.3072 192.859 91.3072C192.08 91.3072 191.435 91.1382 190.925 90.8001C190.415 90.4621 190.091 89.9682 189.956 89.3186L191.069 89.0402C191.175 89.4512 191.376 89.7594 191.671 89.9649C191.969 90.1704 192.358 90.2731 192.839 90.2731C193.386 90.2731 193.82 90.1571 194.142 89.9251C194.466 89.6898 194.629 89.4081 194.629 89.08C194.629 88.8148 194.536 88.5927 194.35 88.4138C194.165 88.2315 193.88 88.0956 193.495 88.0061L192.223 87.7078C191.523 87.5421 191.009 87.2852 190.681 86.9372C190.357 86.5859 190.194 86.1467 190.194 85.6197C190.194 85.1889 190.315 84.8077 190.557 84.4763C190.802 84.1448 191.135 83.8846 191.556 83.6957C191.981 83.5068 192.461 83.4123 192.998 83.4123C193.754 83.4123 194.347 83.5781 194.778 83.9095C195.212 84.2409 195.52 84.6784 195.703 85.222ZM204.648 91.3072C203.932 91.3072 203.315 91.1382 202.798 90.8001C202.281 90.4621 201.884 89.9964 201.605 89.4031C201.327 88.8098 201.188 88.132 201.188 87.3697C201.188 86.5942 201.33 85.9097 201.615 85.3165C201.903 84.7199 202.305 84.2542 202.818 83.9194C203.335 83.5814 203.939 83.4123 204.628 83.4123C205.165 83.4123 205.649 83.5118 206.08 83.7106C206.511 83.9095 206.863 84.1879 207.139 84.5459C207.414 84.9038 207.584 85.3214 207.651 85.7987H206.477C206.388 85.4507 206.189 85.1425 205.881 84.874C205.576 84.6022 205.165 84.4663 204.648 84.4663C204.19 84.4663 203.789 84.5856 203.445 84.8243C203.103 85.0596 202.836 85.3927 202.644 85.8236C202.455 86.2511 202.361 86.7532 202.361 87.33C202.361 87.9199 202.454 88.4336 202.639 88.8711C202.828 89.3086 203.093 89.6484 203.435 89.8903C203.779 90.1323 204.184 90.2532 204.648 90.2532C204.953 90.2532 205.229 90.2002 205.478 90.0942C205.727 89.9881 205.937 89.8356 206.109 89.6368C206.282 89.4379 206.404 89.1993 206.477 88.9209H207.651C207.584 89.3716 207.42 89.7776 207.158 90.1389C206.9 90.4969 206.557 90.7819 206.129 90.994C205.705 91.2028 205.211 91.3072 204.648 91.3072ZM210.539 86.5544V91.1481H209.366V80.9663H210.539V84.705H210.639C210.818 84.3105 211.086 83.9973 211.444 83.7653C211.805 83.53 212.286 83.4123 212.886 83.4123C213.406 83.4123 213.862 83.5167 214.253 83.7255C214.644 83.931 214.947 84.2476 215.163 84.6751C215.381 85.0994 215.491 85.6396 215.491 86.2959V91.1481H214.318V86.3754C214.318 85.7689 214.16 85.2999 213.845 84.9684C213.534 84.6337 213.101 84.4663 212.548 84.4663C212.163 84.4663 211.819 84.5475 211.514 84.7099C211.212 84.8723 210.973 85.1093 210.798 85.4209C210.625 85.7324 210.539 86.1103 210.539 86.5544ZM219.884 91.3271C219.401 91.3271 218.961 91.236 218.567 91.0537C218.173 90.8681 217.859 90.6013 217.627 90.2532C217.395 89.9019 217.279 89.4777 217.279 88.9805C217.279 88.543 217.366 88.1884 217.538 87.9166C217.71 87.6415 217.941 87.4261 218.229 87.2703C218.517 87.1145 218.835 86.9985 219.184 86.9223C219.535 86.8427 219.888 86.7798 220.242 86.7334C220.706 86.6737 221.083 86.629 221.371 86.5991C221.663 86.566 221.875 86.5113 222.007 86.4351C222.143 86.3588 222.211 86.2263 222.211 86.0373V85.9976C222.211 85.507 222.077 85.1259 221.809 84.8541C221.543 84.5823 221.141 84.4464 220.6 84.4464C220.04 84.4464 219.601 84.5691 219.283 84.8143C218.965 85.0596 218.741 85.3214 218.612 85.5998L217.498 85.2021C217.697 84.7381 217.962 84.3768 218.294 84.1183C218.628 83.8565 218.993 83.6742 219.387 83.5714C219.785 83.4654 220.176 83.4123 220.561 83.4123C220.806 83.4123 221.088 83.4422 221.406 83.5018C221.727 83.5582 222.037 83.6758 222.335 83.8548C222.637 84.0338 222.887 84.3039 223.086 84.6652C223.285 85.0264 223.384 85.5103 223.384 86.1169V91.1481H222.211V90.114H222.152C222.072 90.2798 221.939 90.4571 221.754 90.646C221.568 90.8349 221.321 90.9957 221.013 91.1282C220.705 91.2608 220.329 91.3271 219.884 91.3271ZM220.063 90.2731C220.527 90.2731 220.919 90.182 221.237 89.9997C221.558 89.8174 221.8 89.5821 221.963 89.2937C222.128 89.0054 222.211 88.7021 222.211 88.3839V87.3101C222.161 87.3697 222.052 87.4244 221.883 87.4741C221.717 87.5205 221.525 87.562 221.306 87.5984C221.091 87.6316 220.88 87.6614 220.675 87.6879C220.473 87.7111 220.309 87.731 220.183 87.7476C219.878 87.7873 219.593 87.852 219.328 87.9415C219.066 88.0276 218.854 88.1585 218.691 88.3342C218.532 88.5066 218.453 88.7419 218.453 89.0402C218.453 89.4478 218.603 89.7561 218.905 89.9649C219.21 90.1704 219.596 90.2731 220.063 90.2731ZM225.526 91.1481V83.5118H226.699V91.1481H225.526ZM226.123 82.239C225.894 82.239 225.697 82.1612 225.531 82.0054C225.369 81.8496 225.287 81.6623 225.287 81.4436C225.287 81.2248 225.369 81.0376 225.531 80.8818C225.697 80.726 225.894 80.6481 226.123 80.6481C226.351 80.6481 226.547 80.726 226.709 80.8818C226.875 81.0376 226.958 81.2248 226.958 81.4436C226.958 81.6623 226.875 81.8496 226.709 82.0054C226.547 82.1612 226.351 82.239 226.123 82.239ZM230.022 86.5544V91.1481H228.848V83.5118H229.982V84.705H230.081C230.26 84.3172 230.532 84.0056 230.897 83.7703C231.261 83.5317 231.732 83.4123 232.309 83.4123C232.826 83.4123 233.278 83.5184 233.666 83.7305C234.054 83.9393 234.355 84.2575 234.571 84.6851C234.786 85.1093 234.894 85.6462 234.894 86.2959V91.1481H233.72V86.3754C233.72 85.7755 233.565 85.3082 233.253 84.9734C232.942 84.6353 232.514 84.4663 231.97 84.4663C231.596 84.4663 231.261 84.5475 230.966 84.7099C230.675 84.8723 230.444 85.1093 230.275 85.4209C230.106 85.7324 230.022 86.1103 230.022 86.5544ZM242.447 85.222L241.393 85.5203C241.327 85.3446 241.229 85.1739 241.1 85.0082C240.974 84.8392 240.801 84.7 240.582 84.5906C240.364 84.4812 240.084 84.4265 239.742 84.4265C239.275 84.4265 238.886 84.5343 238.574 84.7497C238.266 84.9618 238.112 85.2319 238.112 85.5601C238.112 85.8517 238.218 86.0821 238.43 86.2511C238.642 86.4201 238.973 86.561 239.424 86.6737L240.558 86.9521C241.24 87.1178 241.749 87.3714 242.084 87.7128C242.419 88.0508 242.586 88.4867 242.586 89.0203C242.586 89.4578 242.46 89.8489 242.208 90.1936C241.96 90.5383 241.612 90.8101 241.164 91.0089C240.717 91.2078 240.196 91.3072 239.603 91.3072C238.824 91.3072 238.18 91.1382 237.669 90.8001C237.159 90.4621 236.836 89.9682 236.7 89.3186L237.813 89.0402C237.919 89.4512 238.12 89.7594 238.415 89.9649C238.713 90.1704 239.103 90.2731 239.583 90.2731C240.13 90.2731 240.564 90.1571 240.886 89.9251C241.211 89.6898 241.373 89.4081 241.373 89.08C241.373 88.8148 241.28 88.5927 241.095 88.4138C240.909 88.2315 240.624 88.0956 240.239 88.0061L238.967 87.7078C238.267 87.5421 237.754 87.2852 237.426 86.9372C237.101 86.5859 236.938 86.1467 236.938 85.6197C236.938 85.1889 237.059 84.8077 237.301 84.4763C237.546 84.1448 237.88 83.8846 238.301 83.6957C238.725 83.5068 239.205 83.4123 239.742 83.4123C240.498 83.4123 241.091 83.5781 241.522 83.9095C241.956 84.2409 242.265 84.6784 242.447 85.222ZM245.207 91.2277C244.962 91.2277 244.752 91.1398 244.576 90.9642C244.4 90.7885 244.312 90.5781 244.312 90.3328C244.312 90.0875 244.4 89.8771 244.576 89.7014C244.752 89.5257 244.962 89.4379 245.207 89.4379C245.453 89.4379 245.663 89.5257 245.839 89.7014C246.014 89.8771 246.102 90.0875 246.102 90.3328C246.102 90.4952 246.061 90.6443 245.978 90.7802C245.898 90.9161 245.791 91.0255 245.655 91.1084C245.522 91.1879 245.373 91.2277 245.207 91.2277Z" fill="#475467"/>
</svg>
