<svg width="152" height="152" viewBox="0 0 152 152" fill="none" xmlns="http://www.w3.org/2000/svg">
<path d="M32.5801 119.072C32.4217 118.597 32.3616 118.094 32.4034 117.594C32.4452 117.095 32.5881 116.609 32.8234 116.167C30.8293 114.462 28.6091 113.042 26.2257 111.945C24.4933 113.757 22.3345 116.364 21.5029 117.24C22.9341 116.296 36.0578 125.698 36.573 128.046C36.8163 124.811 33.487 121.915 32.5801 119.072Z" fill="#B8FFD4"/>
<path d="M70.706 113.792C70.1352 113.12 69.8433 112.254 69.8902 111.374C67.4173 110.964 64.9031 110.862 62.4052 111.073C62.3732 111.872 62.2978 112.671 62.1793 113.463C61.9074 115.195 61.5209 115.881 61.249 117.498C61.6641 115.938 77.7789 118.829 78.5231 120.633C77.9476 117.17 72.7525 116.311 70.706 113.792Z" fill="#B8FFD4"/>
<path d="M138.885 92.9262C138.041 92.3236 136.023 91.0943 133.386 89.5201L121.109 92.1105L117.504 75.1226L119.522 74.6933C117.935 64.0553 117.629 62.3868 116.287 56.718C112.381 60.8849 102.934 63.0226 98.8699 61.8844C98.9769 62.2053 99.056 62.4117 99.4138 63.2727C92.7852 77.7417 91.7571 80.3893 91.5567 82.765C91.3307 85.552 91.6283 87.4163 96.9522 108.097C100.191 109 105.605 107.477 107.371 105.606C105.883 99.1804 104.366 92.7831 102.72 84.4108C102.922 83.8519 103.162 83.3074 103.435 82.7793C104.879 78.5747 105.81 74.2117 106.212 69.7844C108.869 81.8287 109.65 85.9331 111.478 87.9744C113.325 90.021 115.471 91.3233 133.332 101.382C136.011 100.688 139.348 95.8985 138.885 92.9262Z" fill="#B8FFD4"/>
<path d="M36.3146 87.4878C27.6268 88.5597 26.2965 88.7133 18.8975 89.6775L34.1822 100.38C34.8421 99.7122 37.9371 96.5802 38.5902 95.9C38.2437 94.8056 36.8653 89.6888 36.3146 87.4878Z" fill="#B8FFD4"/>
<path d="M24.1359 85.8137C24.1359 85.8054 24.1645 83.1231 24.1645 83.1231C23.4745 83.2241 22.8509 83.5901 22.4261 84.143C22.0012 84.6959 21.8086 85.3927 21.889 86.0856L22.2468 88.6467L24.4794 88.3604L24.1359 85.8137Z" fill="#B8FFD4"/>
<path d="M33.5939 84.6541C33.5116 84.0026 33.1893 83.406 32.69 82.9797C32.1356 83.1755 31.5585 83.3006 30.9727 83.3518C31.0939 83.879 31.1323 84.0658 31.2589 84.6971C31.3764 84.8146 31.341 84.789 31.7025 87.4841L33.9352 87.1978L33.5939 84.6541Z" fill="#B8FFD4"/>
<path d="M138.87 94.3287C138.273 97.0034 136.688 99.3543 134.434 100.912C134.66 103.832 135.908 110.486 137.096 112.275C139.431 109.485 142.477 99.4379 142.634 95.5881C141.413 95.0744 140.154 94.6533 138.87 94.3287Z" fill="#E9E9E9"/>
<path d="M106.554 106.292C104.212 107.679 101.534 108.396 98.8118 108.368C96.6673 111.112 94.9891 114.192 93.8457 117.482C97.5366 117.067 105.839 113.346 108.587 110.526C108.061 109.047 107.38 107.628 106.554 106.292Z" fill="#E9E9E9"/>
<path d="M35.8148 128.423C32.6271 127.646 20.1843 119.43 21.4008 117.327C22.4967 116.011 34.8582 124.897 36.4031 127.672C36.7556 128.311 36.5778 128.609 35.8148 128.423Z" fill="#E9E9E9"/>
<path d="M71.4955 118.141C66.9911 117.205 61.8917 116.658 61.3064 117.416C60.053 119.037 69.0731 120.58 71.1099 120.844C74.4769 121.286 77.5975 121.4 78.3771 121.003C79.9823 120.189 73.3673 118.532 71.4955 118.141Z" fill="#E9E9E9"/>
<path d="M72.7498 112.99C72.7211 112.475 72.0342 111.817 69.9018 111.387C69.8481 112.269 70.1408 113.137 70.7175 113.806C72.163 113.806 72.7784 113.42 72.7498 112.99Z" fill="#E9E9E9"/>
<path d="M60.1994 112.19C60.1422 112.805 60.8721 113.234 62.1887 113.478C62.3032 112.676 62.3748 111.889 62.4147 111.088C60.9007 111.274 60.2567 111.678 60.1994 112.19Z" fill="#E9E9E9"/>
<path d="M26.2237 111.931C25.6083 112.561 24.8678 113.405 24.1199 114.249C23.0036 113.333 22.6134 112.303 23.0179 111.759L23.1037 111.659C23.5188 111.272 24.5349 111.23 26.2237 111.931Z" fill="#E9E9E9"/>
<path d="M32.8387 116.169C34.6133 117.686 35.2882 118.805 35.057 119.289C34.8589 119.704 33.9979 119.689 32.5811 119.074C32.4164 118.599 32.3543 118.095 32.3987 117.594C32.4431 117.093 32.593 116.607 32.8387 116.169Z" fill="#E9E9E9"/>
<path d="M99.1234 62.5842C98.1878 59.9674 99.0269 62.5315 96.6475 55.8005C97.0369 58.6356 97.1853 61.4986 97.0911 64.3588C97.9528 63.6289 98.6541 62.9992 99.1234 62.5842Z" fill="#E9E9E9"/>
<path d="M115.77 54.6133C112.264 58.6055 102.061 61.1966 98.1094 59.8942C98.3813 60.6384 98.6366 61.3254 98.8536 61.8979C103.005 63.0601 112.431 60.8132 116.271 56.7171C116.1 56.0015 115.942 55.2859 115.77 54.6133Z" fill="#E9E9E9"/>
<path d="M106.212 69.7849C105.811 74.2122 104.879 78.5752 103.436 82.7798C104.18 81.3057 105.425 79.1876 107.428 75.2949L106.212 69.7849Z" fill="#E9E9E9"/>
<path d="M131.758 62.5141C131.475 61.9155 131.245 61.2929 131.071 60.6536C131.938 60.6905 132.398 60.9037 132.578 61.1809C132.907 61.6856 132.391 62.3085 131.758 62.5141Z" fill="#E9E9E9"/>
<path d="M124.63 61.9843C123.6 62.4566 123.199 62.9289 123.213 63.2724C123.256 63.716 123.8 64.0023 124.788 63.8305C125.018 63.3703 124.724 62.4913 124.63 61.9843Z" fill="#E9E9E9"/>
<path d="M114.468 49.4755C113.223 49.3037 111.62 49.132 109.517 48.9316C111.51 49.9614 113.423 51.1382 115.241 52.4523C114.941 51.2787 114.669 50.2483 114.468 49.4755Z" fill="#E9E9E9"/>
<path d="M99.1993 34.1777C98.9289 35.1413 98.5229 36.0616 97.9941 36.9112C98.0228 36.5105 98.0228 36.0073 98.0657 35.3798C98.3828 35.0507 98.7549 34.65 99.1993 34.1777Z" fill="#E9E9E9"/>
<path d="M98.0532 27.9656C97.9673 26.9638 97.6381 26.7604 94.7472 26.5774C91.6845 26.3627 91.4555 26.8636 91.7704 28.4952C91.9851 29.5972 92.5575 29.912 93.7168 29.912C94.4323 29.912 95.3739 29.7832 96.5648 29.6544C97.4807 30.8136 98.0818 31.4147 98.0818 30.7135C98.0818 29.3825 99.47 29.4111 99.4986 31.542C100.014 32.0693 100.586 32.7013 101.202 33.3167C100.572 28.2519 100.443 28.1803 98.0532 27.9656Z" fill="#E9E9E9"/>
<path d="M99.4557 41.8489C99.7961 41.3426 100.079 40.8002 100.3 40.2317C99.8707 39.6163 99.4843 38.9722 99.0949 38.2996C98.8373 38.9022 98.5676 39.5161 98.3363 40.1172C98.4486 40.717 98.6512 41.2962 98.9389 41.8346C98.7672 43.4518 97.8799 55.0298 97.8799 55.7883C98.3627 56.7924 98.9578 57.7383 99.6545 58.6077C100.431 57.7623 101.121 56.8418 101.715 55.8599C101.431 53.7132 99.6847 42.6217 99.4557 41.8489Z" fill="#E9E9E9"/>
<path d="M81.4099 64.8898C81.6682 64.7053 82.197 64.7897 82.9555 65.2906C82.3115 65.8344 81.9394 66.1636 81.6675 66.3926C81.0807 65.6627 81.0672 65.1346 81.4099 64.8898Z" fill="#E9E9E9"/>
<path d="M87.4914 70.3844C87.9351 71.213 88.0187 71.7583 87.8635 72.0303C87.853 72.0597 87.8327 72.0849 87.8063 72.1018C87.5487 72.3737 86.876 72.2306 86.1318 71.5866C86.6614 71.1143 87.4914 70.3844 87.4914 70.3844Z" fill="#E9E9E9"/>
<path d="M23.7919 76.8818C23.7633 77.2968 23.749 77.7548 23.749 78.2271C22.7043 78.27 22.2109 78.0847 22.189 77.8121C22.1687 77.5552 22.69 77.1823 23.7919 76.8818Z" fill="#E9E9E9"/>
<path d="M31.8344 76.8538C31.8773 77.1114 31.5052 77.4262 30.3746 77.598C30.1388 77.2003 30.0243 76.743 30.0455 76.2813C31.1904 76.3506 31.7915 76.5962 31.8344 76.8538Z" fill="#E9E9E9"/>
<path d="M48.6929 58.0197C48.3645 62.0352 48.2477 66.288 48.1656 68.2238C41.626 68.3813 36.1025 69.3974 33.5693 71.2579C33.5836 72.0307 33.598 72.7892 33.6409 73.5176C37.4485 70.7592 45.7553 70.2847 50.4713 70.1973C49.7007 67.3425 49.1132 61.9011 48.6929 58.0197Z" fill="#E9E9E9"/>
<path d="M34.1811 61.2404C34.0953 61.9846 34.0237 62.7144 33.9665 63.4157C33.2795 63.6417 32.3779 63.9302 31.4905 64.2029C30.5603 64.4883 29.6444 64.7467 29.0146 64.9327C30.7981 63.7901 32.5225 62.5577 34.1811 61.2404Z" fill="#E9E9E9"/>
<path d="M53.345 44.9817C53.2997 45.0539 53.2469 45.1211 53.1875 45.1821C52.8365 45.5474 51.7172 45.4977 50.7154 45.3403C50.501 44.7423 50.3838 44.114 50.3682 43.479C51.599 44.7098 52.8584 45.683 53.345 44.9817Z" fill="#E9E9E9"/>
<path d="M53.716 35.0501C53.8019 33.4758 51.8412 33.7907 51.6823 34.678C51.5644 34.4712 51.3819 34.3087 51.1629 34.2155C50.9438 34.1223 50.7002 34.1035 50.4694 34.162C50.2386 34.2204 50.0334 34.3529 49.8851 34.5392C49.7368 34.7255 49.6537 34.9552 49.6485 35.1932C48.9473 34.3646 47.5161 34.6659 47.7594 35.9231C46.7719 34.9642 44.2388 35.5367 48.2867 43.2793C49.1311 42.5637 49.9039 41.8624 50.5765 41.2327C49.4316 39.4438 50.7483 38.5964 51.335 39.7586C51.6499 40.374 52.2389 40.3168 52.1636 38.5851C52.6264 38.4657 53.0768 38.3028 53.5089 38.0985C54.3621 37.7211 55.0878 37.1047 55.5984 36.3238C56.3494 35.1217 54.9039 33.6905 53.716 35.0501Z" fill="#E9E9E9"/>
<path d="M50.0513 86.8146C50.9244 94.0992 51.139 96.7755 51.0961 98.2925C49.3488 93.355 47.327 88.5192 45.04 83.8077C46.4162 84.6679 48.0764 85.6411 50.0513 86.8146Z" fill="#E9E9E9"/>
<path d="M133.217 68.5815L133.773 71.2284L135.977 70.7561L135.318 67.6791C135.203 67.1483 134.901 66.6763 134.468 66.3483C134.035 66.0202 133.499 65.8578 132.957 65.8902C133.155 66.773 133.242 67.6771 133.217 68.5815Z" fill="#E9E9E9"/>
<path d="M125.588 67.436L125.445 67.4646C125.153 67.5244 124.875 67.6417 124.628 67.8098C124.381 67.978 124.17 68.1935 124.008 68.444C123.846 68.6944 123.734 68.9747 123.682 69.2685C123.628 69.5623 123.634 69.8637 123.699 70.1552L124.329 73.2322L126.533 72.7599C126.507 72.6371 125.672 67.6876 125.588 67.436Z" fill="#E9E9E9"/>
<path d="M133.217 68.5815L133.859 71.628L136.063 71.1558L135.318 67.6791C135.203 67.1483 134.901 66.6763 134.468 66.3483C134.035 66.0202 133.499 65.8578 132.957 65.8902C133.155 66.773 133.242 67.6771 133.217 68.5815Z" stroke="black" stroke-width="0.564931" stroke-linejoin="round"/>
<path d="M125.588 67.436L125.445 67.4646C125.153 67.5244 124.875 67.6417 124.628 67.8098C124.381 67.978 124.17 68.1936 124.008 68.444C123.846 68.6944 123.734 68.9747 123.682 69.2686C123.628 69.5623 123.634 69.8638 123.699 70.1552L124.407 73.6492L126.611 73.1769C126.585 73.0541 125.672 67.6876 125.588 67.436Z" stroke="black" stroke-width="0.564931" stroke-linejoin="round"/>
<path d="M23.0895 74.5494C23.6477 74.2925 23.6477 75.5226 23.1897 75.6657C22.7317 75.8088 22.7453 74.7076 23.0895 74.5494Z" fill="#E9E9E9"/>
<path d="M68.3858 75.18C68.6765 74.6241 69.8576 74.6919 69.6166 75.2372C69.3755 75.7826 68.0333 75.8556 68.3858 75.18Z" fill="#E9E9E9"/>
<path d="M88.6215 69.7127C88.736 70.2995 89.789 69.4867 89.609 68.9971C89.429 68.5075 88.4927 69.0544 88.6215 69.7127Z" fill="#E9E9E9"/>
<path d="M130.484 57.8625C131.042 57.8557 131.387 59.1362 130.698 59.1219C130.009 59.1076 129.882 57.8692 130.484 57.8625Z" fill="#E9E9E9"/>
<path d="M143.522 70.6262L143.665 80.0417C143.666 80.0884 143.651 80.1336 143.623 80.1705C143.594 80.2067 143.553 80.2323 143.508 80.2421L140.216 80.9434L140.66 83.0042L138.527 83.4622L138.083 81.4013L127.092 83.7364L127.536 85.7972L125.403 86.2552L124.96 84.1959L121.669 84.8971C121.624 84.9031 121.578 84.8949 121.539 84.8745C121.498 84.8542 121.465 84.8218 121.443 84.7826L117.752 76.1204L121.142 92.1207L146.945 86.6394L143.522 70.6262Z" fill="#E9E9E9"/>
<path d="M143.107 69.6689L117.704 75.0787L121.711 84.4814L124.86 83.8088L124.431 81.8052L126.563 81.3472L126.992 83.3508L137.984 81.018L137.569 79.0144L139.701 78.5564L140.13 80.5601L143.265 79.9017L143.107 69.6689Z" fill="#E9E9E9"/>
<path d="M121.14 92.1209L117.506 75.1206L143.306 69.6247L146.944 86.6396L121.14 92.1209Z" stroke="black" stroke-width="0.564931" stroke-linecap="round" stroke-linejoin="round"/>
<path d="M121.905 74.1722L123.928 71.3012" stroke="black" stroke-width="0.564931" stroke-linecap="round" stroke-linejoin="round"/>
<path d="M132.258 59.4375L147.557 37.5837L120.537 18.6638L107.671 37.0255" stroke="black" stroke-width="0.564931" stroke-linecap="round" stroke-linejoin="round"/>
<path d="M105.524 97.621L111.936 88.4473" stroke="black" stroke-width="0.564931" stroke-linecap="round" stroke-linejoin="round"/>
<path d="M45.1992 108.097L80.7492 132.984L98.0375 108.311" stroke="black" stroke-width="0.564931" stroke-linecap="round" stroke-linejoin="round"/>
<path d="M27.3256 55.3158L23.3613 52.5393L4.44141 79.5596L34.1809 100.383" stroke="black" stroke-width="0.564931" stroke-linecap="round" stroke-linejoin="round"/>
<path d="M79.5626 77.1696L72.6501 87.0445L70.2314 85.3558" stroke="black" stroke-width="0.564931" stroke-linecap="round" stroke-linejoin="round"/>
<path d="M61.5596 42.2072L69.5168 30.8295L77.0304 36.0819L85.9036 23.4304" stroke="black" stroke-width="0.564931" stroke-linecap="round" stroke-linejoin="round"/>
<path d="M80.3076 24.4036L85.9034 23.4304L86.8909 29.0119" stroke="black" stroke-width="0.564931" stroke-linecap="round" stroke-linejoin="round"/>
<path d="M26.7245 40.1462L31.8767 39.2303C34.9431 38.6729 34.0656 34.1354 31.0752 34.6792L28.1986 35.1658C25.1352 35.6878 24.403 31.1254 27.3971 30.6147L32.5493 29.6988" stroke="black" stroke-width="0.564931" stroke-linecap="round" stroke-linejoin="round"/>
<path d="M28.5273 28.6668L30.7456 41.1752" stroke="black" stroke-width="0.564931" stroke-linecap="round" stroke-linejoin="round"/>
<path d="M77.8887 96.7336L84.0999 95.6317" stroke="black" stroke-width="0.564931" stroke-linecap="round" stroke-linejoin="round"/>
<path d="M80.4502 93.0695L81.5379 99.295" stroke="black" stroke-width="0.564931" stroke-linecap="round" stroke-linejoin="round"/>
<path d="M116.629 108.541L125.316 107.01" stroke="black" stroke-width="0.564931" stroke-linecap="round" stroke-linejoin="round"/>
<path d="M120.208 103.431L121.739 112.133" stroke="black" stroke-width="0.564931" stroke-linecap="round" stroke-linejoin="round"/>
<path d="M48.1634 126.874C49.2779 126.874 50.1814 125.971 50.1814 124.856C50.1814 123.741 49.2779 122.838 48.1634 122.838C47.0489 122.838 46.1455 123.741 46.1455 124.856C46.1455 125.971 47.0489 126.874 48.1634 126.874Z" stroke="black" stroke-width="0.564931" stroke-linecap="round" stroke-linejoin="round"/>
<path d="M29.3577 105.276L18.2519 106.665L16.1768 90.018L36.3275 87.4999" stroke="black" stroke-width="0.564931" stroke-linecap="round" stroke-linejoin="round"/>
<path d="M53.5032 38.1244C54.369 37.7498 55.1051 37.1283 55.6198 36.3377C56.3497 35.1326 54.9329 33.6901 53.7307 35.064C53.8166 33.4754 51.8702 33.8046 51.6969 34.6919C51.5779 34.4867 51.3953 34.3259 51.1768 34.2339C50.9582 34.1418 50.7155 34.1235 50.4856 34.1817C50.2556 34.24 50.051 34.3716 49.9026 34.5566C49.7542 34.7417 49.6701 34.97 49.6632 35.2071C48.9619 34.3786 47.5308 34.6799 47.7741 35.937C46.7866 34.9781 44.2534 35.5506 48.3013 43.2932" stroke="black" stroke-width="0.564931" stroke-linecap="round" stroke-linejoin="round"/>
<path d="M50.7148 45.341C50.5044 44.7426 50.3919 44.1141 50.3818 43.4798C51.5117 44.6209 52.686 45.5527 53.2396 45.1241" stroke="black" stroke-width="0.564931" stroke-linecap="round" stroke-linejoin="round"/>
<path d="M34.983 54.8145C33.4231 66.321 33.0728 72.8486 34.339 79.0583C35.4922 84.7129 37.5448 92.3538 38.6039 95.9174C33.6807 100.941 24.0347 110.572 23.0186 111.775" stroke="black" stroke-width="0.564931" stroke-linecap="round" stroke-linejoin="round"/>
<path d="M24.1202 114.264C23.0039 113.348 22.6198 112.32 23.0182 111.774C23.5802 111.004 25.7819 111.213 30.0882 114.109C33.8965 116.67 35.3872 118.604 35.0543 119.306C34.8562 119.722 33.9952 119.707 32.5784 119.092" stroke="black" stroke-width="0.564931" stroke-linecap="round" stroke-linejoin="round"/>
<path d="M62.1748 113.478C60.8581 113.235 60.1215 112.805 60.1855 112.19C60.2766 111.316 62.1032 110.772 66.8976 111.045C71.4171 111.302 72.6976 112.275 72.7511 112.991C72.7827 113.421 72.1643 113.807 70.7045 113.807" stroke="black" stroke-width="0.564931" stroke-linecap="round" stroke-linejoin="round"/>
<path d="M35.04 119.286C49.9956 103.028 50.6472 101.983 51.0087 99.3074C51.2053 97.8612 51.1519 96.0444 50.0499 86.7991" stroke="black" stroke-width="0.564931" stroke-linecap="round" stroke-linejoin="round"/>
<path d="M21.4156 117.342C22.3323 115.768 37.5877 126.788 36.5286 128.376C35.7016 129.621 20.0568 119.676 21.4156 117.342Z" stroke="black" stroke-width="0.564931" stroke-linecap="round" stroke-linejoin="round"/>
<path d="M61.245 117.543C61.3843 115.826 78.8045 119.003 78.5477 120.792C78.3466 122.195 61.0393 120.076 61.245 117.543Z" stroke="black" stroke-width="0.564931" stroke-linecap="round" stroke-linejoin="round"/>
<path d="M26.2227 111.933C24.6914 113.521 22.2441 116.452 21.4141 117.328" stroke="black" stroke-width="0.564931" stroke-linecap="round" stroke-linejoin="round"/>
<path d="M32.8386 116.168C30.6489 120.133 37.2179 123.897 36.5294 128.376" stroke="black" stroke-width="0.564931" stroke-linecap="round" stroke-linejoin="round"/>
<path d="M61.2441 117.542C61.6162 115.295 62.2173 114.851 62.4177 111.087" stroke="black" stroke-width="0.564931" stroke-linecap="round" stroke-linejoin="round"/>
<path d="M69.902 111.389C69.676 116.098 77.988 116.255 78.5605 120.792" stroke="black" stroke-width="0.564931" stroke-linecap="round" stroke-linejoin="round"/>
<path d="M60.1992 112.189C60.3852 107.467 59.8127 94.7293 59.5838 92.6541C45.7588 83.7952 40.4349 82.1351 39.5762 78.228" stroke="black" stroke-width="0.564931" stroke-linecap="round" stroke-linejoin="round"/>
<path d="M72.7514 112.992C71.8784 90.0357 71.6215 87.3745 69.8175 84.6832C68.0557 82.0506 66.5974 80.9336 58.9121 76.2251" stroke="black" stroke-width="0.564931" stroke-linecap="round" stroke-linejoin="round"/>
<path d="M22.188 77.8145C21.3293 66.3509 21.416 61.8902 23.2471 59.1786C25.8834 55.2866 33.5371 51.0632 41.5945 48.9345C51.7128 46.2575 55.8202 46.6303 57.6664 48.2905C59.1729 49.6508 59.6248 51.784 60.0708 65.9201C62.8397 66.2477 69.2739 67.0236 70.5755 67.2533C72.4217 68.8705 72.7365 74.4091 70.5755 76.4557C60.4715 76.4557 55.8617 76.3434 53.8309 75.0674C50.6944 73.0962 50.1099 71.2176 48.6787 58.0367C48.3503 62.0447 48.2215 66.2794 48.1515 68.2205" stroke="black" stroke-width="0.564931" stroke-linecap="round" stroke-linejoin="round"/>
<path d="M59.2402 65.821L60.0688 65.9189" stroke="black" stroke-width="0.564931" stroke-linecap="round" stroke-linejoin="round"/>
<path d="M23.7328 78.2296C22.6881 78.2583 22.2 78.0865 22.1728 77.8146C22.1284 77.3709 23.6183 76.6659 26.8098 76.3548C30.0728 76.0362 31.7473 76.4121 31.8188 76.8414C31.8618 77.099 31.4897 77.4139 30.3591 77.5856" stroke="black" stroke-width="0.564931" stroke-linecap="round" stroke-linejoin="round"/>
<path d="M33.9684 63.4157C32.5516 63.888 30.2331 64.5892 29.0166 64.9222C30.8055 63.7926 32.5302 62.5647 34.1831 61.2441" stroke="black" stroke-width="0.564931" stroke-linecap="round" stroke-linejoin="round"/>
<path d="M31.8337 76.8558C31.6906 73.8504 31.4902 67.4531 31.4902 64.2014" stroke="black" stroke-width="0.564931" stroke-linecap="round" stroke-linejoin="round"/>
<path d="M21.917 73.9207C23.1621 72.1317 30.461 71.502 31.6632 72.7155" stroke="black" stroke-width="0.564931" stroke-linecap="round" stroke-linejoin="round"/>
<path d="M66.3253 66.68C68.1286 68.3258 67.9568 74.58 65.667 76.4405" stroke="black" stroke-width="0.564931" stroke-linecap="round" stroke-linejoin="round"/>
<path d="M33.6367 73.5198C36.5841 71.3881 42.763 70.3004 50.4588 70.1995" stroke="black" stroke-width="0.564931" stroke-linecap="round" stroke-linejoin="round"/>
<path d="M33.5654 71.2592C36.3261 69.2254 42.6796 68.1972 50.0139 68.1965" stroke="black" stroke-width="0.564931" stroke-linecap="round" stroke-linejoin="round"/>
<path d="M30.0455 76.2683C30.022 76.785 30.1732 77.2942 30.4749 77.7138C30.7009 78 32.2073 79.343 32.5358 79.8319C32.8973 80.3735 33.0796 82.6513 32.7934 82.8946C32.4213 83.2102 29.9167 83.467 28.9149 83.467C28.1993 83.467 28.3711 82.2506 30.7325 81.6495C28.7741 81.764 27.4551 81.1915 27.126 79.4884" stroke="black" stroke-width="0.564931" stroke-linecap="round" stroke-linejoin="round"/>
<path d="M23.7899 76.8835C23.6755 78.9873 23.7138 81.0964 23.9044 83.195" stroke="black" stroke-width="0.564931" stroke-linecap="round" stroke-linejoin="round"/>
<path d="M25.8083 83.3809C25.733 82.0786 27.2847 81.9068 27.4398 83.155C27.5558 84.0852 27.6131 84.7435 27.6831 85.49C27.7306 85.716 27.6864 85.951 27.5602 86.1446C27.434 86.3374 27.2363 86.473 27.0105 86.5204C26.7847 86.5679 26.5492 86.5235 26.3559 86.3977C26.1627 86.2711 26.0275 86.0738 25.9801 85.8478C25.8806 85.029 25.8233 84.2057 25.8083 83.3809Z" stroke="black" stroke-width="0.564931" stroke-linecap="round" stroke-linejoin="round"/>
<path d="M30.9748 83.3239C31.1036 83.9265 31.2076 84.4108 31.3183 84.9411C31.3709 85.1558 31.34 85.3825 31.2319 85.5746C31.1238 85.7674 30.9466 85.912 30.736 85.9791C30.5256 86.0461 30.2974 86.0303 30.0979 85.9354C29.8984 85.8412 29.7423 85.674 29.6612 85.4684C29.4942 84.8093 29.3698 84.1397 29.2891 83.4648" stroke="black" stroke-width="0.564931" stroke-linecap="round" stroke-linejoin="round"/>
<path d="M24.163 83.3809C24.163 82.1215 25.6694 82.0356 25.7515 83.2521C25.8118 84.156 25.8269 84.7977 25.8517 85.5118C25.8793 85.731 25.8203 85.9517 25.6874 86.128C25.5544 86.3042 25.358 86.4217 25.1398 86.4549C24.9217 86.4888 24.699 86.436 24.5192 86.308C24.3395 86.1799 24.2168 85.9864 24.1773 85.7694C24.1065 85.1699 24.163 84.5258 24.163 83.3809Z" stroke="black" stroke-width="0.564931" stroke-linecap="round" stroke-linejoin="round"/>
<path d="M29.2569 83.4668C29.3714 84.1537 29.4452 84.6976 29.5288 85.2987C29.5794 85.5239 29.5406 85.7596 29.4205 85.9562C29.3004 86.1528 29.1084 86.2952 28.8851 86.3524C28.6619 86.4104 28.425 86.3788 28.2246 86.2651C28.0242 86.1513 27.876 85.9638 27.8114 85.7423C27.6742 84.913 27.5787 84.0769 27.5252 83.2378C27.4092 82.1215 28.4984 81.778 28.985 82.4364" stroke="black" stroke-width="0.564931" stroke-linecap="round" stroke-linejoin="round"/>
<path d="M77.8322 75.8238C78.001 74.6352 76.667 74.2909 76.3725 75.4087C76.2557 75.8516 76.1013 76.4535 76.0004 76.9152C75.9475 77.1186 75.9767 77.3355 76.0817 77.5178C76.1872 77.7001 76.3597 77.8334 76.5623 77.8899C76.7649 77.9464 76.9818 77.9208 77.1656 77.8184C77.3494 77.7167 77.4865 77.5464 77.546 77.3446C77.6673 76.8429 77.7629 76.3352 77.8322 75.8238Z" stroke="black" stroke-width="0.564931" stroke-linecap="round" stroke-linejoin="round"/>
<path d="M76.3136 75.4655C76.6217 74.2829 75.2206 73.8468 74.8538 74.9646C74.7084 75.4075 74.5043 76.0364 74.4102 76.3528C74.075 77.4774 75.5995 77.9708 75.9129 76.9825C76.0854 76.4387 76.2202 75.8233 76.3136 75.4655Z" stroke="black" stroke-width="0.564931" stroke-linecap="round" stroke-linejoin="round"/>
<path d="M74.7688 75.1236C75.1296 73.9893 73.8845 73.5079 73.3662 74.5512C73.2239 74.8382 73.0047 75.3511 72.8081 75.8678C72.7132 76.0576 72.6976 76.2776 72.7647 76.4787C72.8318 76.6798 72.9761 76.8463 73.1659 76.9412C73.3557 77.0361 73.5753 77.0519 73.7767 76.9849C73.978 76.9179 74.1443 76.7732 74.2393 76.5834C74.3929 76.2527 74.6505 75.4942 74.7688 75.1236Z" stroke="black" stroke-width="0.564931" stroke-linecap="round" stroke-linejoin="round"/>
<path d="M79.3336 76.0397C79.372 74.8804 78.1134 74.6085 77.9025 75.7105C77.8151 76.1685 77.684 77.0663 77.6592 77.3134C77.6682 77.4979 77.742 77.6727 77.8678 77.8083C77.9936 77.9431 78.1631 78.0297 78.3461 78.0516C78.5299 78.0742 78.7152 78.0305 78.8696 77.9295C79.024 77.8286 79.1378 77.6764 79.1905 77.4994C79.2658 77.0158 79.3133 76.5285 79.3336 76.0397Z" stroke="black" stroke-width="0.564931" stroke-linecap="round" stroke-linejoin="round"/>
<path d="M68.0422 111.146C67.4396 91.6963 67.6558 88.5192 66.2389 86.4154C64.2346 83.4386 61.8272 82.1144 50.6393 75.4813C48.8067 74.3952 48.2636 73.1772 48.1777 70.284" stroke="black" stroke-width="0.564931" stroke-linecap="round" stroke-linejoin="round"/>
<path d="M45.04 83.7966C47.3198 88.5157 49.3415 93.3553 51.0961 98.2943" stroke="black" stroke-width="0.564931" stroke-linecap="round" stroke-linejoin="round"/>
<path d="M93.7314 29.8983C94.7189 35.5476 95.0052 36.395 95.8925 36.4959C96.7655 36.5954 97.3093 36.2383 99.2128 34.1775C98.9996 35.1672 98.5944 36.1055 98.0196 36.9389" stroke="black" stroke-width="0.564931" stroke-linecap="round" stroke-linejoin="round"/>
<path d="M98.0525 27.9664C97.9524 26.9789 97.6232 26.7785 94.7609 26.5782C91.6982 26.3635 91.4692 26.8644 91.7841 28.4959C92.1132 30.2849 93.4299 29.9986 96.5641 29.6552C97.4801 30.8144 98.0812 31.4298 98.0812 30.7142C98.0812 29.3832 99.4694 29.4119 99.498 31.5428C99.9914 32.2338 100.564 32.8657 101.202 33.4259C100.571 28.3536 100.444 28.1811 98.0525 27.9664Z" stroke="black" stroke-width="0.564931" stroke-linecap="round" stroke-linejoin="round"/>
<path d="M98.055 35.3834C98.1522 36.6639 97.9918 38.2155 97.066 38.7428C94.3612 40.3028 93.275 40.9332 92.3575 42.2348C90.6002 44.7273 90.7117 46.3852 90.3825 57.4624C87.0623 60.3247 82.9255 63.5448 81.4092 64.9044" stroke="black" stroke-width="0.564931" stroke-linecap="round" stroke-linejoin="round"/>
<path d="M81.6666 66.3935C81.064 65.6636 81.064 65.1379 81.409 64.9051C81.8843 64.5812 83.2529 65.107 85.3446 67.4955C87.5893 70.0565 88.1595 71.5291 87.8635 72.0466C87.6601 72.4029 86.9332 72.3042 86.131 71.6029" stroke="black" stroke-width="0.564931" stroke-linecap="round" stroke-linejoin="round"/>
<path d="M124.801 63.8311C123.814 64.0029 123.265 63.7174 123.227 63.273C123.177 62.6869 124.316 61.7763 127.621 61.0547C131.329 60.2457 132.58 60.7534 132.658 61.3981C132.655 61.6586 132.564 61.9104 132.4 62.1127C132.236 62.3152 132.008 62.4567 131.755 62.5145" stroke="black" stroke-width="0.564931" stroke-linecap="round" stroke-linejoin="round"/>
<path d="M123.228 63.2878C120.838 52.8546 120.591 51.7843 119.607 51.0657C118.259 50.082 117.317 49.6918 109.503 48.9619C111.496 49.9916 113.409 51.1684 115.228 52.4825" stroke="black" stroke-width="0.564931" stroke-linecap="round" stroke-linejoin="round"/>
<path d="M133.373 89.5208C136.01 91.1094 138.039 92.3258 138.883 92.9269C139.384 96.0905 135.706 100.884 133.331 101.385C115.47 91.324 113.324 90.0202 111.477 87.9774C109.718 86.0295 109.101 82.8682 106.196 69.8017C105.562 69.7642 104.939 69.6241 104.35 69.3867" stroke="black" stroke-width="0.564931" stroke-linecap="round" stroke-linejoin="round"/>
<path d="M114.468 49.4906C115.269 52.5533 117.115 59.6805 117.974 64.8183C118.446 67.6377 119.019 71.4468 119.52 74.6933" stroke="black" stroke-width="0.564931" stroke-linecap="round" stroke-linejoin="round"/>
<path d="M94.4037 44.0665C94.2388 45.6556 94.2388 47.2574 94.4037 48.8466C94.522 49.9357 98.5398 61.1997 99.4128 63.2726C92.7843 77.713 91.7455 80.3893 91.5557 82.7507C91.3298 85.5377 91.6273 87.4019 96.9512 108.082C100.2 109.041 105.824 107.324 107.356 105.592C105.867 99.1661 104.35 92.7545 102.704 84.3965C103.263 82.7936 104.551 80.8329 107.413 75.2823" stroke="black" stroke-width="0.564931" stroke-linecap="round" stroke-linejoin="round"/>
<path d="M138.871 94.3147C140.157 94.6484 141.419 95.0687 142.649 95.5741C142.491 99.4239 139.443 109.471 137.11 112.261C135.922 110.472 134.677 103.818 134.448 100.898" stroke="black" stroke-width="0.564931" stroke-linecap="round" stroke-linejoin="round"/>
<path d="M106.54 106.279C107.366 107.616 108.047 109.036 108.574 110.516C105.826 113.335 97.5254 117.056 93.833 117.471C94.9915 114.191 96.6682 111.118 98.7991 108.369" stroke="black" stroke-width="0.564931" stroke-linecap="round" stroke-linejoin="round"/>
<path d="M87.8496 72.071C90.8995 69.7065 97.1762 64.3382 99.1422 62.5718" stroke="black" stroke-width="0.564931" stroke-linecap="round" stroke-linejoin="round"/>
<path d="M84.7012 62.1571C87.3774 62.3718 91.1557 67.3379 90.8838 69.6277" stroke="black" stroke-width="0.564931" stroke-linecap="round" stroke-linejoin="round"/>
<path d="M122.324 59.3237C123.335 57.131 130.267 55.8023 131.733 56.9886" stroke="black" stroke-width="0.564931" stroke-linecap="round" stroke-linejoin="round"/>
<path d="M97.9541 37.2978C98.269 37.7085 98.6689 38.0456 99.1276 38.2853C100.805 37.5581 102.382 36.6192 103.821 35.4915" stroke="black" stroke-width="0.564931" stroke-linecap="round" stroke-linejoin="round"/>
<path d="M104.68 36.0389C104.078 38.0139 101.975 40.9907 101.475 41.649C100.538 40.6538 99.7466 39.5309 99.1244 38.3137C98.5881 39.4228 98.1656 40.5837 97.865 41.7786C97.5886 40.4738 97.5637 39.1282 97.7935 37.8143" stroke="black" stroke-width="0.564931" stroke-linecap="round" stroke-linejoin="round"/>
<path d="M98.3715 40.1205C98.486 40.7198 98.6886 41.2986 98.9741 41.8379C98.8024 43.4408 97.915 55.0196 97.915 55.7917C98.3926 56.7987 98.9884 57.7452 99.6897 58.6111C100.459 57.7634 101.144 56.8431 101.736 55.8632C101.45 53.7165 99.7025 42.625 99.4765 41.853C99.8057 41.343 100.084 40.8011 100.305 40.2358" stroke="black" stroke-width="0.564931" stroke-linecap="round" stroke-linejoin="round"/>
<path d="M98.125 59.896C102.046 61.1983 112.251 58.6079 115.771 54.615" stroke="black" stroke-width="0.564931" stroke-linecap="round" stroke-linejoin="round"/>
<path d="M98.8691 61.8995C103.005 63.073 112.623 60.7696 116.286 56.733" stroke="black" stroke-width="0.564931" stroke-linecap="round" stroke-linejoin="round"/>
<path d="M97.1087 64.3615C97.2036 61.5013 97.0552 58.6383 96.665 55.8032" stroke="black" stroke-width="0.564931" stroke-linecap="round" stroke-linejoin="round"/>
<path d="M106.196 69.7709C105.795 74.1982 104.863 78.5613 103.42 82.7658" stroke="black" stroke-width="0.564931" stroke-linecap="round" stroke-linejoin="round"/>
<path d="M102.976 62.1424C103.804 65.6344 103.849 65.9636 105.065 65.892" stroke="black" stroke-width="0.564931" stroke-linecap="round" stroke-linejoin="round"/>
<path d="M130.068 90.2223C133.932 92.6695 137.425 94.8735 138.541 95.5891" stroke="black" stroke-width="0.564931" stroke-linecap="round" stroke-linejoin="round"/>
<path d="M113.323 59.0082C115.012 66.164 116.93 75.81 117.531 82.1929C117.917 82.4648 118.504 82.8513 119.248 83.3378" stroke="black" stroke-width="0.564931" stroke-linecap="round" stroke-linejoin="round"/>
<path d="M82.9549 65.2913C81.5667 66.4505 81.4665 66.7104 80.8654 66.7368C79.4485 66.7993 78.2501 66.339 77.7598 66.8799C76.8401 67.9472 75.9937 69.0756 75.2266 70.2574C74.609 71.1613 76.3 71.7887 78.3752 69.3844C78.9868 69.7014 79.6579 69.8868 80.3457 69.9287C81.0334 69.9706 81.7218 69.8681 82.3674 69.6277" stroke="black" stroke-width="0.564931" stroke-linecap="round" stroke-linejoin="round"/>
<path d="M71.377 68.3674C73.1659 68.6251 73.5365 68.7087 74.0532 68.4104C75.2802 67.7031 75.7857 66.8286 76.4862 67.0365C76.7732 67.1201 77.0586 67.2082 77.3592 67.3084" stroke="black" stroke-width="0.564931" stroke-linecap="round" stroke-linejoin="round"/>
<path d="M87.4764 70.3862C86.8467 70.9443 85.3297 72.2896 84.6895 72.9193" stroke="black" stroke-width="0.564931" stroke-linecap="round" stroke-linejoin="round"/>
<path d="M80.9941 69.9272C84.7151 71.845 85.4164 73.0758 84.1713 74.2064" stroke="black" stroke-width="0.564931" stroke-linecap="round" stroke-linejoin="round"/>
<path d="M81.9101 72.6044C84.0426 73.692 84.6971 74.3052 84.0139 75.2407C83.626 75.768 83.098 75.7846 81.0801 74.382" stroke="black" stroke-width="0.564931" stroke-linecap="round" stroke-linejoin="round"/>
<path d="M71.2627 75.599C71.8208 75.6562 72.4935 75.7421 72.8513 75.7994" stroke="black" stroke-width="0.564931" stroke-linecap="round" stroke-linejoin="round"/>
<path d="M80.1924 75.6817C80.8793 76.1397 82.4393 77.6281 83.1692 75.5243" stroke="black" stroke-width="0.564931" stroke-linecap="round" stroke-linejoin="round"/>
<path d="M79.248 77.0979C79.8778 77.2554 81.0227 77.6561 81.4377 76.4953" stroke="black" stroke-width="0.564931" stroke-linecap="round" stroke-linejoin="round"/>
<path d="M131.069 60.6396C131.427 62.1996 132.4 63.3875 133.028 66.1383C133.228 67.2096 133.262 68.3054 133.128 69.387C133.07 69.5326 132.982 69.6642 132.869 69.7731C132.756 69.8819 132.622 69.9655 132.474 70.0183C132.326 70.0711 132.169 70.0919 132.013 70.0793C131.857 70.0667 131.705 70.021 131.568 69.9452" stroke="black" stroke-width="0.564931" stroke-linecap="round" stroke-linejoin="round"/>
<path d="M131.6 67.8958C131.657 68.5194 131.657 69.147 131.6 69.7706C131.528 70.4297 130.74 71.0021 129.792 70.3732" stroke="black" stroke-width="0.564931" stroke-linecap="round" stroke-linejoin="round"/>
<path d="M129.811 68.4107C129.856 68.9772 129.866 69.5461 129.839 70.1138C129.824 70.3286 129.747 70.5343 129.617 70.7056C129.486 70.877 129.308 71.0066 129.106 71.0786C128.902 71.1506 128.683 71.1617 128.474 71.1108C128.264 71.0598 128.075 70.9489 127.928 70.7917" stroke="black" stroke-width="0.564931" stroke-linecap="round" stroke-linejoin="round"/>
<path d="M127.893 68.8556C127.981 69.4091 128.009 69.9703 127.979 70.53C127.964 70.7732 127.858 71.0015 127.681 71.1691C127.504 71.3367 127.27 71.431 127.027 71.4328C126.784 71.4346 126.548 71.3439 126.369 71.1789C126.189 71.014 126.079 70.7872 126.061 70.5443C125.94 69.1855 125.7 67.84 125.346 66.5228" stroke="black" stroke-width="0.564931" stroke-linecap="round" stroke-linejoin="round"/>
<path d="M124.63 61.9851C124.793 62.4985 124.869 63.0354 124.856 63.5737C124.799 64.1891 123.611 65.4342 123.611 66.1212C123.649 66.8217 123.876 67.4987 124.27 68.0796" stroke="black" stroke-width="0.564931" stroke-linecap="round" stroke-linejoin="round"/>
<path d="M126.977 67.9959C127.907 67.7096 130.984 66.9225 131.943 66.7508" stroke="black" stroke-width="0.564931" stroke-linecap="round" stroke-linejoin="round"/>
<path d="M52.0988 46.8997C51.4709 46.5557 50.9816 46.0047 50.7143 45.3405C51.7147 45.4971 52.8438 45.5536 53.1865 45.1823C53.7891 44.5533 53.9736 43.0664 53.5028 38.1244C53.0748 38.3246 52.6286 38.4835 52.1704 38.599C52.2419 40.3314 51.6536 40.3887 51.3418 39.7725C50.7528 38.6148 49.4384 39.4577 50.5833 41.2466C47.6215 44.0012 42.8565 48.0875 37.6592 50.1386" stroke="black" stroke-width="0.564931" stroke-linecap="round" stroke-linejoin="round"/>
<path d="M132.643 61.3982C130.082 48.3604 128.575 45.312 125.816 42.7645C121.138 38.4281 115.77 38.0116 106.581 36.8968C105.551 36.7627 103.034 35.1041 101.2 33.4266" stroke="black" stroke-width="0.564931" stroke-linecap="round" stroke-linejoin="round"/>
<path d="M127.042 83.5515L138.033 81.2187" stroke="black" stroke-width="0.564931" stroke-linecap="round" stroke-linejoin="round"/>
<path d="M126.562 81.3484L124.43 81.8064L125.403 86.2558L127.535 85.7978L126.562 81.3484Z" stroke="black" stroke-width="0.564931" stroke-linecap="round" stroke-linejoin="round"/>
<path d="M139.7 78.5583L137.567 79.0162L138.526 83.4634L140.659 83.0054L139.7 78.5583Z" stroke="black" stroke-width="0.564931" stroke-linecap="round" stroke-linejoin="round"/>
<path d="M140.175 80.7698L143.474 80.0648L143.338 69.7709" stroke="black" stroke-width="0.564931" stroke-linecap="round" stroke-linejoin="round"/>
<path d="M124.903 84.0185L121.615 84.7039L117.535 75.2609" stroke="black" stroke-width="0.564931" stroke-linecap="round" stroke-linejoin="round"/>
<path d="M24.134 85.814C24.134 85.8057 24.1626 83.1234 24.1626 83.1234C23.4725 83.2243 22.8489 83.5904 22.4241 84.1433C21.9993 84.6962 21.8066 85.3929 21.887 86.0859L22.3094 89.2284L24.542 88.9422L24.134 85.814Z" stroke="black" stroke-width="0.564931" stroke-linejoin="round"/>
<path d="M33.592 84.6553C33.5097 84.0038 33.1873 83.4072 32.6881 82.9809C32.1336 83.1767 31.5566 83.3018 30.9707 83.353C31.092 83.8803 31.1304 84.0671 31.2569 84.6983C31.3744 84.8158 31.4036 85.3528 31.7651 88.0479L33.9978 87.7617L33.592 84.6553Z" stroke="black" stroke-width="0.564931" stroke-linejoin="round"/>
</svg>
