<svg width="103" height="48" viewBox="0 0 103 48" fill="none" xmlns="http://www.w3.org/2000/svg">
<g filter="url(#filter0_d_182_471)">
<rect x="2" y="1" width="99" height="44" rx="8" fill="#567BD9"/>
<rect x="2.5" y="1.5" width="98" height="43" rx="7.5" stroke="#567BD9"/>
<path d="M31.108 21.2898H28.983C28.9223 20.9413 28.8106 20.6326 28.6477 20.3636C28.4848 20.0909 28.2822 19.8598 28.0398 19.6705C27.7973 19.4811 27.5208 19.339 27.2102 19.2443C26.9034 19.1458 26.572 19.0966 26.2159 19.0966C25.5833 19.0966 25.0227 19.2557 24.5341 19.5739C24.0455 19.8883 23.6629 20.3504 23.3864 20.9602C23.1098 21.5663 22.9716 22.3068 22.9716 23.1818C22.9716 24.072 23.1098 24.822 23.3864 25.4318C23.6667 26.0379 24.0492 26.4962 24.5341 26.8068C25.0227 27.1136 25.5814 27.267 26.2102 27.267C26.5587 27.267 26.8845 27.2216 27.1875 27.1307C27.4943 27.036 27.7689 26.8977 28.0114 26.7159C28.2576 26.5341 28.464 26.3106 28.6307 26.0455C28.8011 25.7803 28.9186 25.4773 28.983 25.1364L31.108 25.1477C31.0284 25.7008 30.8561 26.2197 30.5909 26.7045C30.3295 27.1894 29.9867 27.6174 29.5625 27.9886C29.1383 28.3561 28.642 28.6439 28.0739 28.8523C27.5057 29.0568 26.875 29.1591 26.1818 29.1591C25.1591 29.1591 24.2462 28.9223 23.4432 28.4489C22.6402 27.9754 22.0076 27.2917 21.5455 26.3977C21.0833 25.5038 20.8523 24.4318 20.8523 23.1818C20.8523 21.928 21.0852 20.8561 21.5511 19.9659C22.017 19.072 22.6515 18.3883 23.4545 17.9148C24.2576 17.4413 25.1667 17.2045 26.1818 17.2045C26.8295 17.2045 27.4318 17.2955 27.9886 17.4773C28.5455 17.6591 29.0417 17.9261 29.4773 18.2784C29.9129 18.6269 30.2708 19.0549 30.5511 19.5625C30.8352 20.0663 31.0208 20.642 31.108 21.2898ZM36.7543 29.1705C35.902 29.1705 35.1634 28.983 34.5384 28.608C33.9134 28.233 33.4285 27.7083 33.0838 27.0341C32.7429 26.3598 32.5724 25.572 32.5724 24.6705C32.5724 23.7689 32.7429 22.9792 33.0838 22.3011C33.4285 21.6231 33.9134 21.0966 34.5384 20.7216C35.1634 20.3466 35.902 20.1591 36.7543 20.1591C37.6065 20.1591 38.3452 20.3466 38.9702 20.7216C39.5952 21.0966 40.0781 21.6231 40.419 22.3011C40.7637 22.9792 40.9361 23.7689 40.9361 24.6705C40.9361 25.572 40.7637 26.3598 40.419 27.0341C40.0781 27.7083 39.5952 28.233 38.9702 28.608C38.3452 28.983 37.6065 29.1705 36.7543 29.1705ZM36.7656 27.5227C37.2277 27.5227 37.6141 27.3958 37.9247 27.142C38.2353 26.8845 38.4664 26.5398 38.6179 26.108C38.7732 25.6761 38.8509 25.1951 38.8509 24.6648C38.8509 24.1307 38.7732 23.6477 38.6179 23.2159C38.4664 22.7803 38.2353 22.4337 37.9247 22.1761C37.6141 21.9186 37.2277 21.7898 36.7656 21.7898C36.2921 21.7898 35.8982 21.9186 35.5838 22.1761C35.2732 22.4337 35.0402 22.7803 34.8849 23.2159C34.7334 23.6477 34.6577 24.1307 34.6577 24.6648C34.6577 25.1951 34.7334 25.6761 34.8849 26.108C35.0402 26.5398 35.2732 26.8845 35.5838 27.142C35.8982 27.3958 36.2921 27.5227 36.7656 27.5227ZM44.7386 23.8864V29H42.6818V20.2727H44.6477V21.7557H44.75C44.9508 21.267 45.2708 20.8788 45.7102 20.5909C46.1534 20.303 46.7008 20.1591 47.3523 20.1591C47.9545 20.1591 48.4792 20.2879 48.9261 20.5455C49.3769 20.803 49.7254 21.1761 49.9716 21.6648C50.2216 22.1534 50.3447 22.7462 50.3409 23.4432V29H48.2841V23.7614C48.2841 23.178 48.1326 22.7216 47.8295 22.392C47.5303 22.0625 47.1155 21.8977 46.5852 21.8977C46.2254 21.8977 45.9053 21.9773 45.625 22.1364C45.3485 22.2917 45.1307 22.517 44.9716 22.8125C44.8163 23.108 44.7386 23.4659 44.7386 23.8864ZM56.8523 20.2727V21.8636H51.6932V20.2727H56.8523ZM52.983 29V19.4489C52.983 18.8617 53.1042 18.3731 53.3466 17.983C53.5928 17.5928 53.9223 17.3011 54.3352 17.108C54.7481 16.9148 55.2064 16.8182 55.7102 16.8182C56.0663 16.8182 56.3826 16.8466 56.6591 16.9034C56.9356 16.9602 57.1402 17.0114 57.2727 17.0568L56.8636 18.6477C56.7765 18.6212 56.6667 18.5947 56.5341 18.5682C56.4015 18.5379 56.2538 18.5227 56.0909 18.5227C55.7083 18.5227 55.4375 18.6155 55.2784 18.8011C55.1231 18.983 55.0455 19.2443 55.0455 19.5852V29H52.983ZM58.4631 29V20.2727H60.5199V29H58.4631ZM59.4972 19.0341C59.1714 19.0341 58.8911 18.9261 58.6562 18.7102C58.4214 18.4905 58.304 18.2273 58.304 17.9205C58.304 17.6098 58.4214 17.3466 58.6562 17.1307C58.8911 16.911 59.1714 16.8011 59.4972 16.8011C59.8267 16.8011 60.107 16.911 60.3381 17.1307C60.5729 17.3466 60.6903 17.6098 60.6903 17.9205C60.6903 18.2273 60.5729 18.4905 60.3381 18.7102C60.107 18.9261 59.8267 19.0341 59.4972 19.0341ZM62.6349 29V20.2727H64.6293V21.7273H64.7202C64.8793 21.2235 65.152 20.8352 65.5384 20.5625C65.9285 20.286 66.3736 20.1477 66.8736 20.1477C66.9872 20.1477 67.1141 20.1534 67.2543 20.1648C67.3982 20.1723 67.5175 20.1856 67.6122 20.2045V22.0966C67.5251 22.0663 67.3868 22.0398 67.1974 22.017C67.0118 21.9905 66.8319 21.9773 66.6577 21.9773C66.2827 21.9773 65.9455 22.0587 65.6463 22.2216C65.3509 22.3807 65.1179 22.6023 64.9474 22.8864C64.777 23.1705 64.6918 23.4981 64.6918 23.8693V29H62.6349ZM68.9787 29V20.2727H70.9446V21.7557H71.0469C71.2287 21.2557 71.5298 20.8655 71.9503 20.5852C72.3707 20.3011 72.8726 20.1591 73.456 20.1591C74.0469 20.1591 74.545 20.303 74.9503 20.5909C75.3594 20.875 75.6473 21.2633 75.8139 21.7557H75.9048C76.098 21.2708 76.4238 20.8845 76.8821 20.5966C77.3442 20.3049 77.8916 20.1591 78.5241 20.1591C79.3272 20.1591 79.9825 20.4129 80.4901 20.9205C80.9976 21.428 81.2514 22.1686 81.2514 23.142V29H79.1889V23.4602C79.1889 22.9186 79.045 22.5227 78.7571 22.2727C78.4692 22.0189 78.117 21.892 77.7003 21.892C77.2041 21.892 76.8158 22.0473 76.5355 22.358C76.259 22.6648 76.1207 23.0644 76.1207 23.5568V29H74.1037V23.375C74.1037 22.9242 73.9673 22.5644 73.6946 22.2955C73.4257 22.0265 73.0734 21.892 72.6378 21.892C72.3423 21.892 72.0734 21.9678 71.831 22.1193C71.5885 22.267 71.3954 22.4773 71.2514 22.75C71.1075 23.0189 71.0355 23.3333 71.0355 23.6932V29H68.9787Z" fill="white"/>
</g>
<defs>
<filter id="filter0_d_182_471" x="0" y="0" width="103" height="48" filterUnits="userSpaceOnUse" color-interpolation-filters="sRGB">
<feFlood flood-opacity="0" result="BackgroundImageFix"/>
<feColorMatrix in="SourceAlpha" type="matrix" values="0 0 0 0 0 0 0 0 0 0 0 0 0 0 0 0 0 0 127 0" result="hardAlpha"/>
<feOffset dy="1"/>
<feGaussianBlur stdDeviation="1"/>
<feColorMatrix type="matrix" values="0 0 0 0 0.0627451 0 0 0 0 0.0941176 0 0 0 0 0.156863 0 0 0 0.05 0"/>
<feBlend mode="normal" in2="BackgroundImageFix" result="effect1_dropShadow_182_471"/>
<feBlend mode="normal" in="SourceGraphic" in2="effect1_dropShadow_182_471" result="shape"/>
</filter>
</defs>
</svg>
