<svg width="93" height="24" viewBox="0 0 93 24" fill="none" xmlns="http://www.w3.org/2000/svg">
<g clip-path="url(#clip0_182_464)">
<g clip-path="url(#clip1_182_464)">
<path d="M10.0003 14.5C11.381 14.5 12.5003 13.3807 12.5003 12C12.5003 10.6193 11.381 9.50002 10.0003 9.50002C8.61961 9.50002 7.50033 10.6193 7.50033 12C7.50033 13.3807 8.61961 14.5 10.0003 14.5Z" stroke="#475467" stroke-width="1.66667" stroke-linecap="round" stroke-linejoin="round"/>
<path d="M15.6064 14.2727C15.5055 14.5012 15.4755 14.7547 15.52 15.0005C15.5646 15.2462 15.6817 15.473 15.8564 15.6515L15.9018 15.697C16.0427 15.8377 16.1545 16.0048 16.2307 16.1887C16.307 16.3727 16.3462 16.5698 16.3462 16.769C16.3462 16.9681 16.307 17.1652 16.2307 17.3492C16.1545 17.5331 16.0427 17.7002 15.9018 17.8409C15.7611 17.9818 15.594 18.0936 15.4101 18.1698C15.2261 18.2461 15.029 18.2853 14.8299 18.2853C14.6308 18.2853 14.4336 18.2461 14.2497 18.1698C14.0657 18.0936 13.8986 17.9818 13.7579 17.8409L13.7124 17.7955C13.5339 17.6208 13.3071 17.5037 13.0614 17.4591C12.8156 17.4145 12.5622 17.4446 12.3337 17.5455C12.1096 17.6415 11.9185 17.801 11.7839 18.0042C11.6493 18.2075 11.5771 18.4456 11.5761 18.6894V18.8182C11.5761 19.22 11.4165 19.6054 11.1323 19.8896C10.8482 20.1737 10.4628 20.3334 10.0609 20.3334C9.65909 20.3334 9.2737 20.1737 8.98956 19.8896C8.70541 19.6054 8.54578 19.22 8.54578 18.8182V18.75C8.53991 18.4993 8.45875 18.2561 8.31283 18.0521C8.16692 17.8481 7.963 17.6927 7.7276 17.6061C7.4991 17.5052 7.24563 17.4752 6.99988 17.5197C6.75413 17.5643 6.52736 17.6814 6.34881 17.8561L6.30336 17.9015C6.16264 18.0424 5.99554 18.1542 5.8116 18.2304C5.62766 18.3067 5.4305 18.3459 5.23139 18.3459C5.03227 18.3459 4.83511 18.3067 4.65117 18.2304C4.46724 18.1542 4.30013 18.0424 4.15942 17.9015C4.01854 17.7608 3.90679 17.5937 3.83054 17.4098C3.75429 17.2258 3.71504 17.0287 3.71504 16.8296C3.71504 16.6305 3.75429 16.4333 3.83054 16.2494C3.90679 16.0654 4.01854 15.8983 4.15942 15.7576L4.20487 15.7121C4.37952 15.5336 4.49668 15.3068 4.54124 15.0611C4.5858 14.8153 4.55572 14.5619 4.45487 14.3334C4.35884 14.1093 4.19938 13.9182 3.99613 13.7836C3.79288 13.649 3.55471 13.5768 3.31093 13.5758H3.18214C2.7803 13.5758 2.39492 13.4161 2.11077 13.132C1.82662 12.8479 1.66699 12.4625 1.66699 12.0606C1.66699 11.6588 1.82662 11.2734 2.11077 10.9893C2.39492 10.7051 2.7803 10.5455 3.18214 10.5455H3.25033C3.50108 10.5396 3.74427 10.4584 3.94828 10.3125C4.15229 10.1666 4.30769 9.9627 4.39427 9.72729C4.49511 9.4988 4.52519 9.24533 4.48063 8.99957C4.43607 8.75382 4.31891 8.52705 4.14427 8.34851L4.09881 8.30305C3.95794 8.16233 3.84618 7.99523 3.76993 7.81129C3.69368 7.62736 3.65444 7.4302 3.65444 7.23108C3.65444 7.03197 3.69368 6.83481 3.76993 6.65087C3.84618 6.46693 3.95794 6.29983 4.09881 6.15911C4.23953 6.01824 4.40663 5.90648 4.59057 5.83023C4.7745 5.75398 4.97167 5.71474 5.17078 5.71474C5.36989 5.71474 5.56706 5.75398 5.75099 5.83023C5.93493 5.90648 6.10203 6.01824 6.24275 6.15911L6.2882 6.20457C6.46675 6.37922 6.69352 6.49637 6.93927 6.54093C7.18503 6.58549 7.4385 6.55541 7.66699 6.45457H7.7276C7.95167 6.35853 8.14276 6.19908 8.27737 5.99583C8.41197 5.79258 8.4842 5.5544 8.48517 5.31063V5.18184C8.48517 4.78 8.64481 4.39461 8.92895 4.11046C9.2131 3.82632 9.59848 3.66669 10.0003 3.66669C10.4022 3.66669 10.7876 3.82632 11.0717 4.11046C11.3558 4.39461 11.5155 4.78 11.5155 5.18184V5.25002C11.5164 5.4938 11.5887 5.73197 11.7233 5.93522C11.8579 6.13847 12.049 6.29793 12.2731 6.39396C12.5016 6.4948 12.755 6.52489 13.0008 6.48033C13.2465 6.43577 13.4733 6.31861 13.6518 6.14396L13.6973 6.09851C13.838 5.95763 14.0051 5.84588 14.1891 5.76963C14.373 5.69338 14.5702 5.65413 14.7693 5.65413C14.9684 5.65413 15.1655 5.69338 15.3495 5.76963C15.5334 5.84588 15.7005 5.95763 15.8412 6.09851C15.9821 6.23922 16.0939 6.40633 16.1701 6.59026C16.2464 6.7742 16.2856 6.97136 16.2856 7.17048C16.2856 7.36959 16.2464 7.56675 16.1701 7.75069C16.0939 7.93462 15.9821 8.10173 15.8412 8.24244L15.7958 8.2879C15.6211 8.46644 15.504 8.69321 15.4594 8.93897C15.4149 9.18472 15.4449 9.43819 15.5458 9.66669V9.72729C15.6418 9.95136 15.8013 10.1425 16.0045 10.2771C16.2078 10.4117 16.4459 10.4839 16.6897 10.4849H16.8185C17.2204 10.4849 17.6057 10.6445 17.8899 10.9286C18.174 11.2128 18.3337 11.5982 18.3337 12C18.3337 12.4019 18.174 12.7872 17.8899 13.0714C17.6057 13.3555 17.2204 13.5152 16.8185 13.5152H16.7503C16.5065 13.5161 16.2684 13.5884 16.0651 13.723C15.8619 13.8576 15.7024 14.0487 15.6064 14.2727Z" stroke="#475467" stroke-width="1.66667" stroke-linecap="round" stroke-linejoin="round"/>
</g>
<path d="M35.4716 9.5625C35.4186 9.06629 35.1951 8.67992 34.8011 8.40341C34.411 8.12689 33.9034 7.98864 33.2784 7.98864C32.839 7.98864 32.4621 8.05492 32.1477 8.1875C31.8333 8.32008 31.5928 8.5 31.4261 8.72727C31.2595 8.95455 31.1742 9.21402 31.1705 9.50568C31.1705 9.74811 31.2254 9.95833 31.3352 10.1364C31.4489 10.3144 31.6023 10.4659 31.7955 10.5909C31.9886 10.7121 32.2027 10.8144 32.4375 10.8977C32.6723 10.9811 32.9091 11.0511 33.1477 11.108L34.2386 11.3807C34.678 11.483 35.1004 11.6212 35.5057 11.7955C35.9148 11.9697 36.2803 12.1894 36.6023 12.4545C36.928 12.7197 37.1856 13.0398 37.375 13.4148C37.5644 13.7898 37.6591 14.2292 37.6591 14.733C37.6591 15.4148 37.4848 16.0152 37.1364 16.5341C36.7879 17.0492 36.2841 17.4527 35.625 17.7443C34.9697 18.0322 34.1761 18.1761 33.2443 18.1761C32.339 18.1761 31.553 18.036 30.8864 17.7557C30.2235 17.4754 29.7045 17.0663 29.3295 16.5284C28.9583 15.9905 28.7576 15.3352 28.7273 14.5625H30.8011C30.8314 14.9678 30.9564 15.3049 31.1761 15.5739C31.3958 15.8428 31.6818 16.0436 32.0341 16.1761C32.3902 16.3087 32.7879 16.375 33.2273 16.375C33.6856 16.375 34.0871 16.3068 34.4318 16.1705C34.7803 16.0303 35.053 15.8371 35.25 15.5909C35.447 15.3409 35.5473 15.0492 35.5511 14.7159C35.5473 14.4129 35.4583 14.1629 35.2841 13.9659C35.1098 13.7652 34.8655 13.5985 34.5511 13.4659C34.2405 13.3295 33.8769 13.2083 33.4602 13.1023L32.1364 12.7614C31.178 12.5152 30.4205 12.142 29.8636 11.642C29.3106 11.1383 29.0341 10.4697 29.0341 9.63636C29.0341 8.95076 29.2197 8.35038 29.5909 7.83523C29.9659 7.32008 30.4754 6.92045 31.1193 6.63636C31.7633 6.34848 32.4924 6.20455 33.3068 6.20455C34.1326 6.20455 34.8561 6.34848 35.4773 6.63636C36.1023 6.92045 36.5928 7.31629 36.9489 7.82386C37.3049 8.32765 37.4886 8.9072 37.5 9.5625H35.4716ZM43.3111 18.1705C42.4361 18.1705 41.6804 17.9886 41.044 17.625C40.4115 17.2576 39.9247 16.7386 39.5838 16.0682C39.2429 15.3939 39.0724 14.6004 39.0724 13.6875C39.0724 12.7898 39.2429 12.0019 39.5838 11.3239C39.9285 10.642 40.4096 10.1117 41.027 9.73295C41.6444 9.35038 42.3698 9.15909 43.2031 9.15909C43.741 9.15909 44.2486 9.24621 44.7259 9.42045C45.2069 9.59091 45.6312 9.85606 45.9986 10.2159C46.3698 10.5758 46.6615 11.0341 46.8736 11.5909C47.0857 12.1439 47.1918 12.803 47.1918 13.5682V14.1989H40.0384V12.8125H45.2202C45.2164 12.4186 45.1312 12.0682 44.9645 11.7614C44.7978 11.4508 44.5649 11.2064 44.2656 11.0284C43.9702 10.8504 43.6255 10.7614 43.2315 10.7614C42.8111 10.7614 42.4418 10.8636 42.1236 11.0682C41.8054 11.2689 41.5573 11.5341 41.3793 11.8636C41.205 12.1894 41.116 12.5473 41.1122 12.9375V14.1477C41.1122 14.6553 41.205 15.0909 41.3906 15.4545C41.5762 15.8144 41.8357 16.0909 42.169 16.2841C42.5024 16.4735 42.8925 16.5682 43.3395 16.5682C43.6387 16.5682 43.9096 16.5265 44.152 16.4432C44.3944 16.3561 44.6046 16.2292 44.7827 16.0625C44.9607 15.8958 45.0952 15.6894 45.1861 15.4432L47.1065 15.6591C46.9853 16.1667 46.7543 16.6098 46.4134 16.9886C46.0762 17.3636 45.6444 17.6553 45.1179 17.8636C44.5914 18.0682 43.9891 18.1705 43.3111 18.1705ZM53.2898 9.27273V10.8636H48.2727V9.27273H53.2898ZM49.5114 7.18182H51.5682V15.375C51.5682 15.6515 51.6098 15.8636 51.6932 16.0114C51.7803 16.1553 51.8939 16.2538 52.0341 16.3068C52.1742 16.3598 52.3295 16.3864 52.5 16.3864C52.6288 16.3864 52.7462 16.3769 52.8523 16.358C52.9621 16.339 53.0455 16.322 53.1023 16.3068L53.4489 17.9148C53.339 17.9527 53.1818 17.9943 52.9773 18.0398C52.7765 18.0852 52.5303 18.1117 52.2386 18.1193C51.7235 18.1345 51.2595 18.0568 50.8466 17.8864C50.4337 17.7121 50.1061 17.4432 49.8636 17.0795C49.625 16.7159 49.5076 16.2614 49.5114 15.7159V7.18182ZM59.3679 9.27273V10.8636H54.3509V9.27273H59.3679ZM55.5895 7.18182H57.6463V15.375C57.6463 15.6515 57.688 15.8636 57.7713 16.0114C57.8584 16.1553 57.9721 16.2538 58.1122 16.3068C58.2524 16.3598 58.4077 16.3864 58.5781 16.3864C58.7069 16.3864 58.8243 16.3769 58.9304 16.358C59.0402 16.339 59.1236 16.322 59.1804 16.3068L59.527 17.9148C59.4171 17.9527 59.2599 17.9943 59.0554 18.0398C58.8546 18.0852 58.6084 18.1117 58.3168 18.1193C57.8016 18.1345 57.3376 18.0568 56.9247 17.8864C56.5118 17.7121 56.1842 17.4432 55.9418 17.0795C55.7031 16.7159 55.5857 16.2614 55.5895 15.7159V7.18182ZM61.0881 18V9.27273H63.1449V18H61.0881ZM62.1222 8.03409C61.7964 8.03409 61.5161 7.92614 61.2812 7.71023C61.0464 7.49053 60.929 7.22727 60.929 6.92045C60.929 6.60985 61.0464 6.34659 61.2812 6.13068C61.5161 5.91098 61.7964 5.80114 62.1222 5.80114C62.4517 5.80114 62.732 5.91098 62.9631 6.13068C63.1979 6.34659 63.3153 6.60985 63.3153 6.92045C63.3153 7.22727 63.1979 7.49053 62.9631 7.71023C62.732 7.92614 62.4517 8.03409 62.1222 8.03409ZM67.3168 12.8864V18H65.2599V9.27273H67.2259V10.7557H67.3281C67.5289 10.267 67.849 9.87879 68.2884 9.59091C68.7315 9.30303 69.2789 9.15909 69.9304 9.15909C70.5327 9.15909 71.0573 9.28788 71.5043 9.54545C71.955 9.80303 72.3035 10.1761 72.5497 10.6648C72.7997 11.1534 72.9228 11.7462 72.919 12.4432V18H70.8622V12.7614C70.8622 12.178 70.7107 11.7216 70.4077 11.392C70.1084 11.0625 69.6937 10.8977 69.1634 10.8977C68.8035 10.8977 68.4834 10.9773 68.2031 11.1364C67.9266 11.2917 67.7088 11.517 67.5497 11.8125C67.3944 12.108 67.3168 12.4659 67.3168 12.8864ZM78.8054 21.4545C78.0668 21.4545 77.4323 21.3542 76.902 21.1534C76.3717 20.9564 75.9455 20.6913 75.6236 20.358C75.3016 20.0246 75.0781 19.6553 74.9531 19.25L76.8054 18.8011C76.8887 18.9716 77.0099 19.1402 77.169 19.3068C77.3281 19.4773 77.5421 19.6174 77.8111 19.7273C78.0838 19.8409 78.4266 19.8977 78.8395 19.8977C79.4228 19.8977 79.9058 19.7557 80.2884 19.4716C80.6709 19.1913 80.8622 18.7292 80.8622 18.0852V16.4318H80.7599C80.6539 16.6439 80.4986 16.8617 80.294 17.0852C80.0933 17.3087 79.8262 17.4962 79.4929 17.6477C79.1634 17.7992 78.7486 17.875 78.2486 17.875C77.5781 17.875 76.9702 17.7178 76.4247 17.4034C75.883 17.0852 75.4512 16.6117 75.1293 15.983C74.8111 15.3504 74.652 14.5587 74.652 13.608C74.652 12.6496 74.8111 11.8409 75.1293 11.1818C75.4512 10.5189 75.8849 10.017 76.4304 9.67614C76.9759 9.33144 77.5838 9.15909 78.2543 9.15909C78.7656 9.15909 79.1861 9.24621 79.5156 9.42045C79.849 9.59091 80.1141 9.79735 80.3111 10.0398C80.508 10.2784 80.6577 10.5038 80.7599 10.7159H80.8736V9.27273H82.902V18.142C82.902 18.8883 82.724 19.5057 82.3679 19.9943C82.0118 20.483 81.5251 20.8485 80.9077 21.0909C80.2902 21.3333 79.5895 21.4545 78.8054 21.4545ZM78.8224 16.2614C79.258 16.2614 79.6293 16.1553 79.9361 15.9432C80.2429 15.7311 80.4759 15.4261 80.6349 15.0284C80.794 14.6307 80.8736 14.1534 80.8736 13.5966C80.8736 13.0473 80.794 12.5663 80.6349 12.1534C80.4796 11.7405 80.2486 11.4205 79.9418 11.1932C79.6387 10.9621 79.2656 10.8466 78.8224 10.8466C78.3641 10.8466 77.9815 10.9659 77.6747 11.2045C77.3679 11.4432 77.1368 11.7708 76.9815 12.1875C76.8262 12.6004 76.7486 13.0701 76.7486 13.5966C76.7486 14.1307 76.8262 14.5985 76.9815 15C77.1406 15.3977 77.3736 15.7083 77.6804 15.9318C77.991 16.1515 78.3717 16.2614 78.8224 16.2614ZM91.9077 11.5795L90.0327 11.7841C89.9796 11.5947 89.8868 11.4167 89.7543 11.25C89.6255 11.0833 89.4512 10.9489 89.2315 10.8466C89.0118 10.7443 88.7429 10.6932 88.4247 10.6932C87.9967 10.6932 87.6368 10.786 87.3452 10.9716C87.0573 11.1572 86.9152 11.3977 86.919 11.6932C86.9152 11.947 87.008 12.1534 87.1974 12.3125C87.3906 12.4716 87.7088 12.6023 88.152 12.7045L89.6406 13.0227C90.4664 13.2008 91.08 13.483 91.4815 13.8693C91.8868 14.2557 92.0914 14.7614 92.0952 15.3864C92.0914 15.9356 91.9304 16.4205 91.6122 16.8409C91.2978 17.2576 90.8603 17.5833 90.2997 17.8182C89.7391 18.053 89.0952 18.1705 88.3679 18.1705C87.2997 18.1705 86.4399 17.947 85.7884 17.5C85.1368 17.0492 84.7486 16.4223 84.6236 15.6193L86.6293 15.4261C86.7202 15.8201 86.9134 16.1174 87.2088 16.3182C87.5043 16.5189 87.8887 16.6193 88.3622 16.6193C88.8509 16.6193 89.2429 16.5189 89.5384 16.3182C89.8376 16.1174 89.9872 15.8693 89.9872 15.5739C89.9872 15.3239 89.8906 15.1174 89.6974 14.9545C89.508 14.7917 89.2126 14.6667 88.8111 14.5795L87.3224 14.267C86.4853 14.0928 85.866 13.7992 85.4645 13.3864C85.063 12.9697 84.8641 12.4432 84.8679 11.8068C84.8641 11.2689 85.0099 10.803 85.3054 10.4091C85.6046 10.0114 86.0194 9.70455 86.5497 9.48864C87.0838 9.26894 87.6993 9.15909 88.3963 9.15909C89.419 9.15909 90.224 9.37689 90.8111 9.8125C91.402 10.2481 91.7675 10.8371 91.9077 11.5795Z" fill="#475467"/>
</g>
<defs>
<clipPath id="clip0_182_464">
<rect width="93" height="24" fill="white"/>
</clipPath>
<clipPath id="clip1_182_464">
<rect width="20" height="20" fill="white" transform="translate(0 2)"/>
</clipPath>
</defs>
</svg>
