<svg width="94" height="48" viewBox="0 0 94 48" fill="none" xmlns="http://www.w3.org/2000/svg">
<g filter="url(#filter0_d_182_469)">
<rect x="2" y="1" width="90" height="44" rx="8" fill="white"/>
<rect x="2.5" y="1.5" width="89" height="43" rx="7.5" stroke="#D0D5DD"/>
<path d="M31.108 21.2898H28.983C28.9223 20.9413 28.8106 20.6326 28.6477 20.3636C28.4848 20.0909 28.2822 19.8598 28.0398 19.6705C27.7973 19.4811 27.5208 19.339 27.2102 19.2443C26.9034 19.1458 26.572 19.0966 26.2159 19.0966C25.5833 19.0966 25.0227 19.2557 24.5341 19.5739C24.0455 19.8883 23.6629 20.3504 23.3864 20.9602C23.1098 21.5663 22.9716 22.3068 22.9716 23.1818C22.9716 24.072 23.1098 24.822 23.3864 25.4318C23.6667 26.0379 24.0492 26.4962 24.5341 26.8068C25.0227 27.1136 25.5814 27.267 26.2102 27.267C26.5587 27.267 26.8845 27.2216 27.1875 27.1307C27.4943 27.036 27.7689 26.8977 28.0114 26.7159C28.2576 26.5341 28.464 26.3106 28.6307 26.0455C28.8011 25.7803 28.9186 25.4773 28.983 25.1364L31.108 25.1477C31.0284 25.7008 30.8561 26.2197 30.5909 26.7045C30.3295 27.1894 29.9867 27.6174 29.5625 27.9886C29.1383 28.3561 28.642 28.6439 28.0739 28.8523C27.5057 29.0568 26.875 29.1591 26.1818 29.1591C25.1591 29.1591 24.2462 28.9223 23.4432 28.4489C22.6402 27.9754 22.0076 27.2917 21.5455 26.3977C21.0833 25.5038 20.8523 24.4318 20.8523 23.1818C20.8523 21.928 21.0852 20.8561 21.5511 19.9659C22.017 19.072 22.6515 18.3883 23.4545 17.9148C24.2576 17.4413 25.1667 17.2045 26.1818 17.2045C26.8295 17.2045 27.4318 17.2955 27.9886 17.4773C28.5455 17.6591 29.0417 17.9261 29.4773 18.2784C29.9129 18.6269 30.2708 19.0549 30.5511 19.5625C30.8352 20.0663 31.0208 20.642 31.108 21.2898ZM35.4588 29.1761C34.9058 29.1761 34.4077 29.0777 33.9645 28.8807C33.5251 28.6799 33.1766 28.3845 32.919 27.9943C32.6652 27.6042 32.5384 27.1231 32.5384 26.5511C32.5384 26.0587 32.6293 25.6515 32.8111 25.3295C32.9929 25.0076 33.241 24.75 33.5554 24.5568C33.8698 24.3636 34.224 24.2178 34.6179 24.1193C35.0156 24.017 35.4266 23.9432 35.8509 23.8977C36.3622 23.8447 36.777 23.7973 37.0952 23.7557C37.4134 23.7102 37.6444 23.642 37.7884 23.5511C37.9361 23.4564 38.0099 23.3106 38.0099 23.1136V23.0795C38.0099 22.6515 37.883 22.3201 37.6293 22.0852C37.3755 21.8504 37.0099 21.733 36.5327 21.733C36.0289 21.733 35.6293 21.8428 35.3338 22.0625C35.0421 22.2822 34.8452 22.5417 34.7429 22.8409L32.8224 22.5682C32.974 22.0379 33.224 21.5947 33.5724 21.2386C33.9209 20.8788 34.3471 20.6098 34.8509 20.4318C35.3546 20.25 35.9115 20.1591 36.5213 20.1591C36.9418 20.1591 37.3603 20.2083 37.777 20.3068C38.1937 20.4053 38.5743 20.5682 38.919 20.7955C39.2637 21.0189 39.5402 21.3239 39.7486 21.7102C39.9607 22.0966 40.0668 22.5795 40.0668 23.1591V29H38.0895V27.8011H38.0213C37.8963 28.0436 37.7202 28.2708 37.4929 28.483C37.2694 28.6913 36.9872 28.8598 36.6463 28.9886C36.3092 29.1136 35.9134 29.1761 35.4588 29.1761ZM35.9929 27.6648C36.4058 27.6648 36.7637 27.5833 37.0668 27.4205C37.3698 27.2538 37.6027 27.0341 37.7656 26.7614C37.9323 26.4886 38.0156 26.1913 38.0156 25.8693V24.8409C37.9512 24.8939 37.8414 24.9432 37.6861 24.9886C37.5346 25.0341 37.3641 25.0739 37.1747 25.108C36.9853 25.142 36.7978 25.1723 36.6122 25.1989C36.4266 25.2254 36.2656 25.2481 36.1293 25.267C35.8224 25.3087 35.5478 25.3769 35.3054 25.4716C35.063 25.5663 34.8717 25.6989 34.7315 25.8693C34.5914 26.036 34.5213 26.2519 34.5213 26.517C34.5213 26.8958 34.6596 27.1818 34.9361 27.375C35.2126 27.5682 35.5649 27.6648 35.9929 27.6648ZM44.1918 23.8864V29H42.1349V20.2727H44.1009V21.7557H44.2031C44.4039 21.267 44.724 20.8788 45.1634 20.5909C45.6065 20.303 46.1539 20.1591 46.8054 20.1591C47.4077 20.1591 47.9323 20.2879 48.3793 20.5455C48.83 20.803 49.1785 21.1761 49.4247 21.6648C49.6747 22.1534 49.7978 22.7462 49.794 23.4432V29H47.7372V23.7614C47.7372 23.178 47.5857 22.7216 47.2827 22.392C46.9834 22.0625 46.5687 21.8977 46.0384 21.8977C45.6785 21.8977 45.3584 21.9773 45.0781 22.1364C44.8016 22.2917 44.5838 22.517 44.4247 22.8125C44.2694 23.108 44.1918 23.4659 44.1918 23.8864ZM55.6918 29.1705C54.8205 29.1705 54.0724 28.9792 53.4474 28.5966C52.8262 28.214 52.3471 27.6856 52.0099 27.0114C51.6766 26.3333 51.5099 25.553 51.5099 24.6705C51.5099 23.7841 51.6804 23.0019 52.0213 22.3239C52.3622 21.642 52.8433 21.1117 53.4645 20.733C54.0895 20.3504 54.8281 20.1591 55.6804 20.1591C56.3887 20.1591 57.0156 20.2898 57.5611 20.5511C58.1103 20.8087 58.5478 21.1742 58.8736 21.6477C59.1993 22.1174 59.3849 22.6667 59.4304 23.2955H57.4645C57.3849 22.875 57.1955 22.5246 56.8963 22.2443C56.6009 21.9602 56.205 21.8182 55.7088 21.8182C55.2884 21.8182 54.919 21.9318 54.6009 22.1591C54.2827 22.3826 54.0346 22.7045 53.8565 23.125C53.6823 23.5455 53.5952 24.0492 53.5952 24.6364C53.5952 25.2311 53.6823 25.7424 53.8565 26.1705C54.0308 26.5947 54.2751 26.9223 54.5895 27.1534C54.9077 27.3807 55.2808 27.4943 55.7088 27.4943C56.0118 27.4943 56.2827 27.4375 56.5213 27.3239C56.7637 27.2064 56.9664 27.0379 57.1293 26.8182C57.2921 26.5985 57.4039 26.3314 57.4645 26.017H59.4304C59.3812 26.6345 59.1993 27.1818 58.8849 27.6591C58.5705 28.1326 58.1425 28.5038 57.6009 28.7727C57.0592 29.0379 56.4228 29.1705 55.6918 29.1705ZM64.983 29.1705C64.108 29.1705 63.3523 28.9886 62.7159 28.625C62.0833 28.2576 61.5966 27.7386 61.2557 27.0682C60.9148 26.3939 60.7443 25.6004 60.7443 24.6875C60.7443 23.7898 60.9148 23.0019 61.2557 22.3239C61.6004 21.642 62.0814 21.1117 62.6989 20.733C63.3163 20.3504 64.0417 20.1591 64.875 20.1591C65.4129 20.1591 65.9205 20.2462 66.3977 20.4205C66.8788 20.5909 67.303 20.8561 67.6705 21.2159C68.0417 21.5758 68.3333 22.0341 68.5455 22.5909C68.7576 23.1439 68.8636 23.803 68.8636 24.5682V25.1989H61.7102V23.8125H66.892C66.8883 23.4186 66.803 23.0682 66.6364 22.7614C66.4697 22.4508 66.2367 22.2064 65.9375 22.0284C65.642 21.8504 65.2973 21.7614 64.9034 21.7614C64.483 21.7614 64.1136 21.8636 63.7955 22.0682C63.4773 22.2689 63.2292 22.5341 63.0511 22.8636C62.8769 23.1894 62.7879 23.5473 62.7841 23.9375V25.1477C62.7841 25.6553 62.8769 26.0909 63.0625 26.4545C63.2481 26.8144 63.5076 27.0909 63.8409 27.2841C64.1742 27.4735 64.5644 27.5682 65.0114 27.5682C65.3106 27.5682 65.5814 27.5265 65.8239 27.4432C66.0663 27.3561 66.2765 27.2292 66.4545 27.0625C66.6326 26.8958 66.767 26.6894 66.858 26.4432L68.7784 26.6591C68.6572 27.1667 68.4261 27.6098 68.0852 27.9886C67.7481 28.3636 67.3163 28.6553 66.7898 28.8636C66.2633 29.0682 65.661 29.1705 64.983 29.1705ZM72.6605 17.3636V29H70.6037V17.3636H72.6605Z" fill="#344054"/>
</g>
<defs>
<filter id="filter0_d_182_469" x="0" y="0" width="94" height="48" filterUnits="userSpaceOnUse" color-interpolation-filters="sRGB">
<feFlood flood-opacity="0" result="BackgroundImageFix"/>
<feColorMatrix in="SourceAlpha" type="matrix" values="0 0 0 0 0 0 0 0 0 0 0 0 0 0 0 0 0 0 127 0" result="hardAlpha"/>
<feOffset dy="1"/>
<feGaussianBlur stdDeviation="1"/>
<feColorMatrix type="matrix" values="0 0 0 0 0.0627451 0 0 0 0 0.0941176 0 0 0 0 0.156863 0 0 0 0.05 0"/>
<feBlend mode="normal" in2="BackgroundImageFix" result="effect1_dropShadow_182_469"/>
<feBlend mode="normal" in="SourceGraphic" in2="effect1_dropShadow_182_469" result="shape"/>
</filter>
</defs>
</svg>
