<svg width="528" height="52" viewBox="0 0 528 52" fill="none" xmlns="http://www.w3.org/2000/svg">
<path d="M8.40554 11.5078C8.34588 10.9496 8.09446 10.5149 7.65128 10.2038C7.21236 9.89276 6.64134 9.73722 5.93821 9.73722C5.44389 9.73722 5.01989 9.81179 4.66619 9.96094C4.3125 10.1101 4.0419 10.3125 3.8544 10.5682C3.6669 10.8239 3.57102 11.1158 3.56676 11.4439C3.56676 11.7166 3.62855 11.9531 3.75213 12.1534C3.87997 12.3537 4.05256 12.5241 4.26989 12.6648C4.48722 12.8011 4.72798 12.9162 4.99219 13.0099C5.25639 13.1037 5.52273 13.1825 5.79119 13.2464L7.01847 13.5533C7.51278 13.6683 7.98793 13.8239 8.44389 14.0199C8.90412 14.2159 9.31534 14.4631 9.67756 14.7614C10.044 15.0597 10.3338 15.4197 10.5469 15.8416C10.7599 16.2635 10.8665 16.7578 10.8665 17.3246C10.8665 18.0916 10.6705 18.767 10.2784 19.3509C9.88636 19.9304 9.3196 20.3842 8.57812 20.7124C7.84091 21.0362 6.94815 21.1982 5.89986 21.1982C4.88139 21.1982 3.99716 21.0405 3.24716 20.7251C2.50142 20.4098 1.91761 19.9496 1.49574 19.3445C1.07813 18.7393 0.852273 18.0021 0.818182 17.1328H3.15128C3.18537 17.5888 3.32599 17.968 3.57315 18.2706C3.82031 18.5732 4.14205 18.799 4.53835 18.9482C4.93892 19.0973 5.38636 19.1719 5.88068 19.1719C6.39631 19.1719 6.84801 19.0952 7.2358 18.9418C7.62784 18.7841 7.93466 18.5668 8.15625 18.2898C8.37784 18.0085 8.49077 17.6804 8.49503 17.3054C8.49077 16.9645 8.39063 16.6832 8.1946 16.4616C7.99858 16.2358 7.72372 16.0483 7.37003 15.8991C7.0206 15.7457 6.61151 15.6094 6.14276 15.4901L4.65341 15.1065C3.57528 14.8295 2.72301 14.4098 2.09659 13.8473C1.47443 13.2805 1.16335 12.5284 1.16335 11.5909C1.16335 10.8196 1.37216 10.1442 1.78977 9.56463C2.21165 8.98509 2.7848 8.53551 3.50923 8.21591C4.23366 7.89204 5.05398 7.73011 5.97017 7.73011C6.89915 7.73011 7.71307 7.89204 8.41193 8.21591C9.11506 8.53551 9.6669 8.98082 10.0675 9.55185C10.468 10.1186 10.6747 10.7706 10.6875 11.5078H8.40554ZM17.225 21.1918C16.2406 21.1918 15.3904 20.9872 14.6745 20.5781C13.9629 20.1648 13.4153 19.581 13.0318 18.8267C12.6483 18.0682 12.4565 17.1754 12.4565 16.1484C12.4565 15.1385 12.6483 14.2521 13.0318 13.4893C13.4196 12.7223 13.9608 12.1257 14.6554 11.6996C15.35 11.2692 16.166 11.054 17.1035 11.054C17.7086 11.054 18.2797 11.152 18.8166 11.348C19.3578 11.5398 19.8351 11.8381 20.2484 12.2429C20.666 12.6477 20.9941 13.1634 21.2328 13.7898C21.4714 14.4119 21.5907 15.1534 21.5907 16.0142V16.7237H13.5431V15.1641H19.3727C19.3684 14.7209 19.2726 14.3267 19.0851 13.9815C18.8976 13.6321 18.6355 13.3572 18.2988 13.157C17.9664 12.9567 17.5787 12.8565 17.1355 12.8565C16.6625 12.8565 16.247 12.9716 15.889 13.2017C15.5311 13.4276 15.252 13.7259 15.0517 14.0966C14.8556 14.4631 14.7555 14.8658 14.7512 15.3047V16.6662C14.7512 17.2372 14.8556 17.7273 15.0645 18.1364C15.2733 18.5412 15.5652 18.8523 15.9402 19.0696C16.3152 19.2827 16.7541 19.3892 17.2569 19.3892C17.5936 19.3892 17.8983 19.3423 18.171 19.2486C18.4437 19.1506 18.6802 19.0078 18.8805 18.8203C19.0808 18.6328 19.2321 18.4006 19.3343 18.1236L21.4949 18.3665C21.3585 18.9375 21.0985 19.4361 20.715 19.8622C20.3358 20.2841 19.85 20.6122 19.2576 20.8466C18.6653 21.0767 17.9877 21.1918 17.225 21.1918ZM25.8622 7.90909V21H23.5483V7.90909H25.8622ZM32.5882 21.1918C31.6039 21.1918 30.7537 20.9872 30.0378 20.5781C29.3262 20.1648 28.7786 19.581 28.3951 18.8267C28.0115 18.0682 27.8198 17.1754 27.8198 16.1484C27.8198 15.1385 28.0115 14.2521 28.3951 13.4893C28.7828 12.7223 29.324 12.1257 30.0186 11.6996C30.7132 11.2692 31.5293 11.054 32.4668 11.054C33.0719 11.054 33.6429 11.152 34.1799 11.348C34.7211 11.5398 35.1983 11.8381 35.6117 12.2429C36.0293 12.6477 36.3574 13.1634 36.5961 13.7898C36.8347 14.4119 36.954 15.1534 36.954 16.0142V16.7237H28.9064V15.1641H34.736C34.7317 14.7209 34.6358 14.3267 34.4483 13.9815C34.2608 13.6321 33.9988 13.3572 33.6621 13.157C33.3297 12.9567 32.9419 12.8565 32.4988 12.8565C32.0257 12.8565 31.6103 12.9716 31.2523 13.2017C30.8944 13.4276 30.6152 13.7259 30.415 14.0966C30.2189 14.4631 30.1188 14.8658 30.1145 15.3047V16.6662C30.1145 17.2372 30.2189 17.7273 30.4277 18.1364C30.6365 18.5412 30.9284 18.8523 31.3034 19.0696C31.6784 19.2827 32.1174 19.3892 32.6202 19.3892C32.9569 19.3892 33.2615 19.3423 33.5343 19.2486C33.807 19.1506 34.0435 19.0078 34.2438 18.8203C34.4441 18.6328 34.5953 18.4006 34.6976 18.1236L36.8581 18.3665C36.7218 18.9375 36.4618 19.4361 36.0783 19.8622C35.699 20.2841 35.2132 20.6122 34.6209 20.8466C34.0286 21.0767 33.351 21.1918 32.5882 21.1918ZM43.1942 21.1918C42.2141 21.1918 41.3725 20.9766 40.6694 20.5462C39.9705 20.1158 39.4315 19.5213 39.0522 18.7628C38.6772 18 38.4897 17.1222 38.4897 16.1293C38.4897 15.1321 38.6815 14.2521 39.065 13.4893C39.4485 12.7223 39.9897 12.1257 40.6886 11.6996C41.3917 11.2692 42.2227 11.054 43.1815 11.054C43.9783 11.054 44.6836 11.201 45.2972 11.495C45.9151 11.7848 46.4073 12.196 46.7738 12.7287C47.1403 13.2571 47.3491 13.875 47.4002 14.5824H45.1886C45.0991 14.1094 44.886 13.7152 44.5494 13.3999C44.217 13.0803 43.7717 12.9205 43.2134 12.9205C42.7404 12.9205 42.3249 13.0483 41.967 13.304C41.609 13.5554 41.3299 13.9176 41.1296 14.3906C40.9336 14.8636 40.8356 15.4304 40.8356 16.0909C40.8356 16.7599 40.9336 17.3352 41.1296 17.8168C41.3256 18.294 41.6005 18.6626 41.9542 18.9226C42.3121 19.1783 42.7319 19.3061 43.2134 19.3061C43.5543 19.3061 43.859 19.2422 44.1275 19.1143C44.4002 18.9822 44.6282 18.7926 44.8114 18.5455C44.9947 18.2983 45.1204 17.9979 45.1886 17.6442H47.4002C47.3448 18.3388 47.1403 18.9545 46.7866 19.4915C46.4329 20.0241 45.9513 20.4418 45.342 20.7443C44.7326 21.0426 44.0167 21.1918 43.1942 21.1918ZM54.2029 11.1818V12.9716H48.5588V11.1818H54.2029ZM49.9522 8.82955H52.2662V18.0469C52.2662 18.358 52.313 18.5966 52.4068 18.7628C52.5048 18.9247 52.6326 19.0355 52.7903 19.0952C52.948 19.1548 53.1227 19.1847 53.3145 19.1847C53.4593 19.1847 53.5914 19.174 53.7108 19.1527C53.8343 19.1314 53.9281 19.1122 53.992 19.0952L54.3819 20.9041C54.2583 20.9467 54.0815 20.9936 53.8514 21.0447C53.6255 21.0959 53.3485 21.1257 53.0204 21.1342C52.4409 21.1513 51.9189 21.0639 51.4544 20.8722C50.9899 20.6761 50.6213 20.3736 50.3485 19.9645C50.0801 19.5554 49.948 19.044 49.9522 18.4304V8.82955ZM60.603 24.6818V11.1818H62.8786V12.8054H63.0128C63.1321 12.5668 63.3004 12.3132 63.5178 12.0447C63.7351 11.772 64.0291 11.5398 64.3999 11.348C64.7706 11.152 65.2436 11.054 65.8189 11.054C66.5774 11.054 67.2614 11.2479 67.8707 11.6357C68.4844 12.0192 68.9702 12.5881 69.3281 13.3423C69.6903 14.0923 69.8714 15.0128 69.8714 16.1037C69.8714 17.1818 69.6946 18.098 69.3409 18.8523C68.9872 19.6065 68.5057 20.1818 67.8963 20.5781C67.2869 20.9744 66.5966 21.1726 65.8253 21.1726C65.2628 21.1726 64.7962 21.0788 64.4254 20.8913C64.0547 20.7038 63.7564 20.478 63.5305 20.2138C63.3089 19.9453 63.1364 19.6918 63.0128 19.4531H62.9169V24.6818H60.603ZM62.8722 16.0909C62.8722 16.7259 62.9616 17.282 63.1406 17.7592C63.3239 18.2365 63.5859 18.6094 63.9268 18.8778C64.272 19.142 64.6896 19.2741 65.1797 19.2741C65.6911 19.2741 66.1193 19.1378 66.4645 18.8651C66.8097 18.5881 67.0696 18.2109 67.2443 17.7337C67.4233 17.2521 67.5128 16.7045 67.5128 16.0909C67.5128 15.4815 67.4254 14.9403 67.2507 14.4673C67.076 13.9943 66.8161 13.6236 66.4709 13.3551C66.1257 13.0866 65.6953 12.9524 65.1797 12.9524C64.6854 12.9524 64.2656 13.0824 63.9205 13.3423C63.5753 13.6023 63.3132 13.9666 63.1342 14.4354C62.9595 14.9041 62.8722 15.456 62.8722 16.0909ZM74.1669 7.90909V21H71.853V7.90909H74.1669ZM79.3716 21.1982C78.7495 21.1982 78.1891 21.0874 77.6905 20.8658C77.1962 20.6399 76.8042 20.3075 76.5144 19.8686C76.2289 19.4297 76.0861 18.8885 76.0861 18.245C76.0861 17.6911 76.1884 17.233 76.3929 16.8707C76.5975 16.5085 76.8766 16.2188 77.2303 16.0014C77.584 15.7841 77.9824 15.62 78.4256 15.5092C78.873 15.3942 79.3354 15.3111 79.8127 15.2599C80.388 15.2003 80.8546 15.147 81.2125 15.1001C81.5705 15.049 81.8304 14.9723 81.9924 14.87C82.1586 14.7635 82.2417 14.5994 82.2417 14.3778V14.3395C82.2417 13.858 82.0989 13.4851 81.8134 13.2209C81.5279 12.9567 81.1167 12.8246 80.5797 12.8246C80.013 12.8246 79.5634 12.9482 79.231 13.1953C78.9029 13.4425 78.6813 13.7344 78.5662 14.071L76.4057 13.7642C76.5762 13.1676 76.8574 12.669 77.2495 12.2685C77.6415 11.8636 78.1209 11.5611 78.6877 11.3608C79.2544 11.1562 79.8809 11.054 80.5669 11.054C81.04 11.054 81.5108 11.1094 81.9796 11.2202C82.4483 11.331 82.8766 11.5142 83.2644 11.7699C83.6522 12.0213 83.9632 12.3643 84.1976 12.799C84.4363 13.2337 84.5556 13.777 84.5556 14.429V21H82.3311V19.6513H82.2544C82.1138 19.924 81.9157 20.1797 81.66 20.4183C81.4086 20.6527 81.0911 20.8423 80.7076 20.9872C80.3283 21.1278 79.883 21.1982 79.3716 21.1982ZM79.9725 19.4979C80.437 19.4979 80.8397 19.4062 81.1806 19.223C81.5215 19.0355 81.7836 18.7884 81.9668 18.4815C82.1543 18.1747 82.248 17.8402 82.248 17.478V16.321C82.1756 16.3807 82.052 16.4361 81.8773 16.4872C81.7069 16.5384 81.5151 16.5831 81.302 16.6214C81.089 16.6598 80.878 16.6939 80.6692 16.7237C80.4604 16.7536 80.2793 16.7791 80.1259 16.8004C79.7807 16.8473 79.4718 16.924 79.199 17.0305C78.9263 17.1371 78.7111 17.2862 78.5534 17.478C78.3958 17.6655 78.3169 17.9084 78.3169 18.2067C78.3169 18.6328 78.4725 18.9545 78.7836 19.1719C79.0946 19.3892 79.4909 19.4979 79.9725 19.4979ZM89.1962 15.2472V21H86.8823V11.1818H89.0939V12.8501H89.209C89.4348 12.3004 89.7949 11.8636 90.2892 11.5398C90.7878 11.2159 91.4036 11.054 92.1365 11.054C92.8141 11.054 93.4043 11.1989 93.9071 11.4886C94.4142 11.7784 94.8063 12.1982 95.0833 12.7479C95.3645 13.2976 95.503 13.9645 95.4988 14.7486V21H93.1848V15.1065C93.1848 14.4503 93.0144 13.9368 92.6735 13.5661C92.3368 13.1953 91.8702 13.0099 91.2736 13.0099C90.8688 13.0099 90.5087 13.0994 90.1934 13.2784C89.8823 13.4531 89.6373 13.7067 89.4583 14.0391C89.2836 14.3714 89.1962 14.7741 89.1962 15.2472Z" fill="#101828"/>
<path d="M6.80114 39.3636C6.74148 38.8598 6.49953 38.4688 6.07528 38.1903C5.65104 37.9119 5.13068 37.7727 4.5142 37.7727C4.06345 37.7727 3.66903 37.8456 3.33097 37.9915C2.99621 38.1373 2.73438 38.3378 2.54545 38.593C2.35985 38.8482 2.26705 39.1383 2.26705 39.4631C2.26705 39.7348 2.33168 39.9685 2.46094 40.1641C2.59351 40.3563 2.76255 40.517 2.96804 40.6463C3.17353 40.7723 3.38897 40.8767 3.61435 40.9595C3.83973 41.0391 4.04688 41.1037 4.2358 41.1534L5.26989 41.4318C5.53504 41.5014 5.83002 41.5975 6.15483 41.7202C6.48295 41.8428 6.79616 42.0102 7.09446 42.2223C7.39607 42.4311 7.64465 42.6996 7.8402 43.0277C8.03575 43.3558 8.13352 43.7585 8.13352 44.2358C8.13352 44.786 7.98935 45.2831 7.70099 45.7273C7.41596 46.1714 6.99834 46.5244 6.44815 46.7862C5.90128 47.0481 5.23674 47.179 4.45455 47.179C3.72538 47.179 3.09399 47.0613 2.56037 46.826C2.03007 46.5907 1.61245 46.2625 1.30753 45.8416C1.00592 45.4207 0.835227 44.9318 0.795455 44.375H2.06818C2.10133 44.7595 2.23059 45.0777 2.45597 45.3295C2.68466 45.5781 2.97301 45.7637 3.32102 45.8864C3.67235 46.0057 4.05019 46.0653 4.45455 46.0653C4.92519 46.0653 5.34777 45.9891 5.7223 45.8366C6.09683 45.6809 6.39347 45.4654 6.61222 45.1903C6.83097 44.9119 6.94034 44.5871 6.94034 44.2159C6.94034 43.8778 6.84588 43.6027 6.65696 43.3906C6.46804 43.1785 6.21946 43.0062 5.91122 42.8736C5.60298 42.741 5.26989 42.625 4.91193 42.5256L3.65909 42.1676C2.86364 41.9389 2.2339 41.6125 1.76989 41.1882C1.30587 40.764 1.07386 40.2088 1.07386 39.5227C1.07386 38.9527 1.22798 38.4555 1.53622 38.0312C1.84777 37.6037 2.26539 37.2723 2.78906 37.0369C3.31605 36.7983 3.90436 36.679 4.55398 36.679C5.21023 36.679 5.79356 36.7966 6.30398 37.032C6.81439 37.264 7.21875 37.5821 7.51705 37.9865C7.81866 38.3909 7.97775 38.8499 7.99432 39.3636H6.80114ZM10.0016 47V39.3636H11.1749V47H10.0016ZM10.5982 38.0909C10.3695 38.0909 10.1723 38.013 10.0066 37.8572C9.84416 37.7015 9.76296 37.5142 9.76296 37.2955C9.76296 37.0767 9.84416 36.8894 10.0066 36.7337C10.1723 36.5779 10.3695 36.5 10.5982 36.5C10.8269 36.5 11.0224 36.5779 11.1848 36.7337C11.3506 36.8894 11.4334 37.0767 11.4334 37.2955C11.4334 37.5142 11.3506 37.7015 11.1848 37.8572C11.0224 38.013 10.8269 38.0909 10.5982 38.0909ZM13.3239 47V39.3636H14.4574V40.5568H14.5568C14.7159 40.1491 14.9728 39.8326 15.3274 39.6072C15.6821 39.3786 16.108 39.2642 16.6051 39.2642C17.1089 39.2642 17.5282 39.3786 17.8629 39.6072C18.201 39.8326 18.4645 40.1491 18.6534 40.5568H18.733C18.9285 40.1624 19.2218 39.8492 19.6129 39.6172C20.004 39.3819 20.473 39.2642 21.0199 39.2642C21.7027 39.2642 22.2611 39.478 22.6953 39.9055C23.1295 40.3298 23.3466 40.991 23.3466 41.8892V47H22.1733V41.8892C22.1733 41.3258 22.0192 40.9231 21.7109 40.6811C21.4027 40.4392 21.0398 40.3182 20.6222 40.3182C20.0852 40.3182 19.6693 40.4806 19.3743 40.8054C19.0793 41.1269 18.9318 41.5346 18.9318 42.0284V47H17.7386V41.7699C17.7386 41.3357 17.5978 40.986 17.3161 40.7209C17.0343 40.4524 16.6714 40.3182 16.2273 40.3182C15.9223 40.3182 15.6373 40.3994 15.3722 40.5618C15.1103 40.7242 14.8982 40.9496 14.7358 41.2379C14.5767 41.523 14.4972 41.8527 14.4972 42.2273V47H13.3239ZM25.4918 49.8636V39.3636H26.6254V40.5767H26.7646C26.8507 40.4441 26.9701 40.2751 27.1225 40.0696C27.2783 39.8608 27.5004 39.6752 27.7887 39.5128C28.0804 39.3471 28.4748 39.2642 28.9719 39.2642C29.6149 39.2642 30.1817 39.425 30.6722 39.7464C31.1628 40.0679 31.5456 40.5237 31.8207 41.1136C32.0958 41.7036 32.2333 42.3996 32.2333 43.2017C32.2333 44.0104 32.0958 44.7114 31.8207 45.3047C31.5456 45.8946 31.1644 46.352 30.6772 46.6768C30.19 46.9983 29.6282 47.1591 28.9918 47.1591C28.5013 47.1591 28.1085 47.0779 27.8136 46.9155C27.5186 46.7498 27.2915 46.5625 27.1325 46.3537C26.9734 46.1416 26.8507 45.9659 26.7646 45.8267H26.6651V49.8636H25.4918ZM26.6452 43.1818C26.6452 43.7585 26.7298 44.2673 26.8988 44.7081C27.0678 45.1456 27.3147 45.4886 27.6396 45.7372C27.9644 45.9825 28.3621 46.1051 28.8327 46.1051C29.3233 46.1051 29.7326 45.9759 30.0607 45.7173C30.3922 45.4555 30.6407 45.1042 30.8065 44.6634C30.9755 44.2192 31.06 43.7254 31.06 43.1818C31.06 42.6449 30.9772 42.161 30.8114 41.7301C30.649 41.2959 30.4021 40.9529 30.0707 40.701C29.7425 40.4458 29.3299 40.3182 28.8327 40.3182C28.3555 40.3182 27.9544 40.4392 27.6296 40.6811C27.3048 40.9197 27.0595 41.2545 26.8938 41.6854C26.7281 42.1129 26.6452 42.6117 26.6452 43.1818ZM35.1964 36.8182V47H34.0231V36.8182H35.1964ZM40.5471 47.1591C39.8113 47.1591 39.1766 46.9967 38.6429 46.6719C38.1126 46.3438 37.7033 45.8864 37.415 45.2997C37.1299 44.7098 36.9874 44.0237 36.9874 43.2415C36.9874 42.4593 37.1299 41.7699 37.415 41.1733C37.7033 40.5734 38.1043 40.1061 38.6181 39.7713C39.1351 39.4332 39.7383 39.2642 40.4277 39.2642C40.8255 39.2642 41.2182 39.3305 41.606 39.4631C41.9938 39.5956 42.3468 39.8111 42.665 40.1094C42.9831 40.4044 43.2367 40.7955 43.4256 41.2827C43.6145 41.7699 43.709 42.3698 43.709 43.0824V43.5795H37.8226V42.5653H42.5158C42.5158 42.1345 42.4296 41.75 42.2573 41.4119C42.0882 41.0739 41.8463 40.8071 41.5314 40.6115C41.2199 40.416 40.852 40.3182 40.4277 40.3182C39.9604 40.3182 39.556 40.4342 39.2147 40.6662C38.8766 40.8949 38.6164 41.1932 38.4341 41.5611C38.2518 41.929 38.1607 42.3234 38.1607 42.7443V43.4205C38.1607 43.9972 38.2601 44.486 38.459 44.8871C38.6612 45.2848 38.9412 45.5881 39.2992 45.7969C39.6571 46.0024 40.0731 46.1051 40.5471 46.1051C40.8553 46.1051 41.1337 46.062 41.3823 45.9759C41.6342 45.8864 41.8513 45.7538 42.0336 45.5781C42.2159 45.3991 42.3567 45.1771 42.4561 44.9119L43.5897 45.2301C43.4703 45.6146 43.2698 45.9527 42.9881 46.2443C42.7064 46.5327 42.3584 46.758 41.9441 46.9205C41.5298 47.0795 41.0641 47.1591 40.5471 47.1591ZM51.6784 47.179C51.1945 47.179 50.7554 47.0878 50.361 46.9055C49.9666 46.7199 49.6533 46.4531 49.4213 46.1051C49.1893 45.7538 49.0733 45.3295 49.0733 44.8324C49.0733 44.3949 49.1595 44.0402 49.3319 43.7685C49.5042 43.4934 49.7346 43.2779 50.0229 43.1222C50.3113 42.9664 50.6294 42.8504 50.9775 42.7741C51.3288 42.6946 51.6818 42.6316 52.0364 42.5852C52.5004 42.5256 52.8766 42.4808 53.165 42.451C53.4566 42.4179 53.6687 42.3632 53.8013 42.2869C53.9372 42.2107 54.0051 42.0781 54.0051 41.8892V41.8494C54.0051 41.3589 53.8709 40.9777 53.6025 40.706C53.3373 40.4342 52.9346 40.2983 52.3944 40.2983C51.8342 40.2983 51.3951 40.4209 51.0769 40.6662C50.7587 40.9115 50.535 41.1733 50.4057 41.4517L49.2921 41.054C49.4909 40.59 49.7561 40.2287 50.0875 39.9702C50.4223 39.7083 50.7869 39.526 51.1813 39.4233C51.579 39.3172 51.9701 39.2642 52.3546 39.2642C52.5998 39.2642 52.8816 39.294 53.1998 39.3537C53.5212 39.41 53.8311 39.5277 54.1294 39.7067C54.431 39.8857 54.6813 40.1558 54.8801 40.517C55.079 40.8783 55.1784 41.3622 55.1784 41.9688V47H54.0051V45.9659H53.9455C53.8659 46.1316 53.7334 46.3089 53.5478 46.4979C53.3622 46.6868 53.1152 46.8475 52.807 46.9801C52.4988 47.1127 52.1226 47.179 51.6784 47.179ZM51.8574 46.125C52.3214 46.125 52.7125 46.0339 53.0307 45.8516C53.3522 45.6693 53.5942 45.4339 53.7566 45.1456C53.9223 44.8572 54.0051 44.554 54.0051 44.2358V43.1619C53.9554 43.2216 53.8461 43.2763 53.677 43.326C53.5113 43.3724 53.3191 43.4138 53.1003 43.4503C52.8849 43.4834 52.6744 43.5133 52.4689 43.5398C52.2667 43.563 52.1027 43.5829 51.9767 43.5994C51.6718 43.6392 51.3868 43.7038 51.1216 43.7933C50.8598 43.8795 50.6477 44.0104 50.4853 44.1861C50.3262 44.3584 50.2466 44.5937 50.2466 44.892C50.2466 45.2997 50.3974 45.608 50.699 45.8168C51.004 46.0223 51.3901 46.125 51.8574 46.125ZM58.4933 42.4062V47H57.32V39.3636H58.4535V40.5568H58.5529C58.7319 40.169 59.0037 39.8575 59.3683 39.6222C59.7328 39.3835 60.2035 39.2642 60.7802 39.2642C61.2972 39.2642 61.7496 39.3703 62.1374 39.5824C62.5252 39.7912 62.8268 40.1094 63.0423 40.5369C63.2577 40.9612 63.3654 41.4981 63.3654 42.1477V47H62.1921V42.2273C62.1921 41.6274 62.0363 41.16 61.7248 40.8253C61.4132 40.4872 60.9857 40.3182 60.4421 40.3182C60.0676 40.3182 59.7328 40.3994 59.4379 40.5618C59.1462 40.7242 58.9158 40.9612 58.7468 41.2727C58.5778 41.5843 58.4933 41.9621 58.4933 42.4062ZM68.3929 47.1591C67.7566 47.1591 67.1948 46.9983 66.7076 46.6768C66.2203 46.352 65.8392 45.8946 65.5641 45.3047C65.289 44.7114 65.1515 44.0104 65.1515 43.2017C65.1515 42.3996 65.289 41.7036 65.5641 41.1136C65.8392 40.5237 66.222 40.0679 66.7125 39.7464C67.2031 39.425 67.7698 39.2642 68.4128 39.2642C68.91 39.2642 69.3027 39.3471 69.5911 39.5128C69.8828 39.6752 70.1048 39.8608 70.2573 40.0696C70.4131 40.2751 70.534 40.4441 70.6202 40.5767H70.7196V36.8182H71.8929V47H70.7594V45.8267H70.6202C70.534 45.9659 70.4114 46.1416 70.2523 46.3537C70.0932 46.5625 69.8662 46.7498 69.5712 46.9155C69.2762 47.0779 68.8835 47.1591 68.3929 47.1591ZM68.552 46.1051C69.0227 46.1051 69.4204 45.9825 69.7452 45.7372C70.07 45.4886 70.3169 45.1456 70.486 44.7081C70.655 44.2673 70.7395 43.7585 70.7395 43.1818C70.7395 42.6117 70.6567 42.1129 70.4909 41.6854C70.3252 41.2545 70.08 40.9197 69.7551 40.6811C69.4303 40.4392 69.0293 40.3182 68.552 40.3182C68.0549 40.3182 67.6406 40.4458 67.3091 40.701C66.981 40.9529 66.7341 41.2959 66.5684 41.7301C66.406 42.161 66.3248 42.6449 66.3248 43.1818C66.3248 43.7254 66.4076 44.2192 66.5733 44.6634C66.7424 45.1042 66.9909 45.4555 67.3191 45.7173C67.6505 45.9759 68.0615 46.1051 68.552 46.1051ZM81.5428 39.3636V40.358H77.4263V39.3636H81.5428ZM78.6593 47V38.3097C78.6593 37.8722 78.762 37.5076 78.9675 37.2159C79.173 36.9242 79.4398 36.7055 79.7679 36.5597C80.0961 36.4138 80.4424 36.3409 80.807 36.3409C81.0953 36.3409 81.3307 36.3641 81.513 36.4105C81.6953 36.4569 81.8311 36.5 81.9206 36.5398L81.5826 37.554C81.5229 37.5341 81.44 37.5092 81.334 37.4794C81.2312 37.4496 81.0953 37.4347 80.9263 37.4347C80.5385 37.4347 80.2585 37.5324 80.0861 37.728C79.9171 37.9235 79.8326 38.2102 79.8326 38.5881V47H78.6593ZM84.3604 36.8182V47H83.1871V36.8182H84.3604ZM89.7111 47.1591C88.9753 47.1591 88.3406 46.9967 87.807 46.6719C87.2767 46.3438 86.8674 45.8864 86.579 45.2997C86.294 44.7098 86.1515 44.0237 86.1515 43.2415C86.1515 42.4593 86.294 41.7699 86.579 41.1733C86.8674 40.5734 87.2684 40.1061 87.7821 39.7713C88.2992 39.4332 88.9024 39.2642 89.5918 39.2642C89.9895 39.2642 90.3823 39.3305 90.7701 39.4631C91.1578 39.5956 91.5108 39.8111 91.829 40.1094C92.1472 40.4044 92.4007 40.7955 92.5897 41.2827C92.7786 41.7699 92.873 42.3698 92.873 43.0824V43.5795H86.9867V42.5653H91.6799C91.6799 42.1345 91.5937 41.75 91.4213 41.4119C91.2523 41.0739 91.0104 40.8071 90.6955 40.6115C90.3839 40.416 90.016 40.3182 89.5918 40.3182C89.1245 40.3182 88.7201 40.4342 88.3787 40.6662C88.0407 40.8949 87.7805 41.1932 87.5982 41.5611C87.4159 41.929 87.3248 42.3234 87.3248 42.7443V43.4205C87.3248 43.9972 87.4242 44.486 87.623 44.8871C87.8252 45.2848 88.1053 45.5881 88.4632 45.7969C88.8212 46.0024 89.2372 46.1051 89.7111 46.1051C90.0194 46.1051 90.2978 46.062 90.5463 45.9759C90.7982 45.8864 91.0153 45.7538 91.1976 45.5781C91.3799 45.3991 91.5208 45.1771 91.6202 44.9119L92.7537 45.2301C92.6344 45.6146 92.4339 45.9527 92.1522 46.2443C91.8704 46.5327 91.5224 46.758 91.1081 46.9205C90.6938 47.0795 90.2282 47.1591 89.7111 47.1591ZM95.3278 39.3636L97.1573 42.4858L98.9869 39.3636H100.339L97.8732 43.1818L100.339 47H98.9869L97.1573 44.0369L95.3278 47H93.9755L96.4016 43.1818L93.9755 39.3636H95.3278ZM102.013 47V39.3636H103.187V47H102.013ZM102.61 38.0909C102.381 38.0909 102.184 38.013 102.018 37.8572C101.856 37.7015 101.775 37.5142 101.775 37.2955C101.775 37.0767 101.856 36.8894 102.018 36.7337C102.184 36.5779 102.381 36.5 102.61 36.5C102.839 36.5 103.034 36.5779 103.197 36.7337C103.362 36.8894 103.445 37.0767 103.445 37.2955C103.445 37.5142 103.362 37.7015 103.197 37.8572C103.034 38.013 102.839 38.0909 102.61 38.0909ZM105.495 47V36.8182H106.668V40.5767H106.767C106.854 40.4441 106.973 40.2751 107.125 40.0696C107.281 39.8608 107.503 39.6752 107.792 39.5128C108.083 39.3471 108.478 39.2642 108.975 39.2642C109.618 39.2642 110.185 39.425 110.675 39.7464C111.166 40.0679 111.548 40.5237 111.824 41.1136C112.099 41.7036 112.236 42.3996 112.236 43.2017C112.236 44.0104 112.099 44.7114 111.824 45.3047C111.548 45.8946 111.167 46.352 110.68 46.6768C110.193 46.9983 109.631 47.1591 108.995 47.1591C108.504 47.1591 108.111 47.0779 107.816 46.9155C107.521 46.7498 107.294 46.5625 107.135 46.3537C106.976 46.1416 106.854 45.9659 106.767 45.8267H106.628V47H105.495ZM106.648 43.1818C106.648 43.7585 106.733 44.2673 106.902 44.7081C107.071 45.1456 107.318 45.4886 107.642 45.7372C107.967 45.9825 108.365 46.1051 108.836 46.1051C109.326 46.1051 109.735 45.9759 110.064 45.7173C110.395 45.4555 110.644 45.1042 110.809 44.6634C110.978 44.2192 111.063 43.7254 111.063 43.1818C111.063 42.6449 110.98 42.161 110.814 41.7301C110.652 41.2959 110.405 40.9529 110.074 40.701C109.745 40.4458 109.333 40.3182 108.836 40.3182C108.358 40.3182 107.957 40.4392 107.632 40.6811C107.308 40.9197 107.062 41.2545 106.897 41.6854C106.731 42.1129 106.648 42.6117 106.648 43.1818ZM115.204 36.8182V47H114.031V36.8182H115.204ZM120.555 47.1591C119.819 47.1591 119.184 46.9967 118.651 46.6719C118.12 46.3438 117.711 45.8864 117.423 45.2997C117.138 44.7098 116.995 44.0237 116.995 43.2415C116.995 42.4593 117.138 41.7699 117.423 41.1733C117.711 40.5734 118.112 40.1061 118.626 39.7713C119.143 39.4332 119.746 39.2642 120.436 39.2642C120.833 39.2642 121.226 39.3305 121.614 39.4631C122.002 39.5956 122.355 39.8111 122.673 40.1094C122.991 40.4044 123.244 40.7955 123.433 41.2827C123.622 41.7699 123.717 42.3698 123.717 43.0824V43.5795H117.83V42.5653H122.524C122.524 42.1345 122.437 41.75 122.265 41.4119C122.096 41.0739 121.854 40.8071 121.539 40.6115C121.228 40.416 120.86 40.3182 120.436 40.3182C119.968 40.3182 119.564 40.4342 119.222 40.6662C118.884 40.8949 118.624 41.1932 118.442 41.5611C118.26 41.929 118.169 42.3234 118.169 42.7443V43.4205C118.169 43.9972 118.268 44.486 118.467 44.8871C118.669 45.2848 118.949 45.5881 119.307 45.7969C119.665 46.0024 120.081 46.1051 120.555 46.1051C120.863 46.1051 121.142 46.062 121.39 45.9759C121.642 45.8864 121.859 45.7538 122.041 45.5781C122.224 45.3991 122.365 45.1771 122.464 44.9119L123.597 45.2301C123.478 45.6146 123.278 45.9527 122.996 46.2443C122.714 46.5327 122.366 46.758 121.952 46.9205C121.538 47.0795 121.072 47.1591 120.555 47.1591ZM129.439 49.8636V39.3636H130.573V40.5767H130.712C130.798 40.4441 130.917 40.2751 131.07 40.0696C131.226 39.8608 131.448 39.6752 131.736 39.5128C132.028 39.3471 132.422 39.2642 132.919 39.2642C133.562 39.2642 134.129 39.425 134.619 39.7464C135.11 40.0679 135.493 40.5237 135.768 41.1136C136.043 41.7036 136.181 42.3996 136.181 43.2017C136.181 44.0104 136.043 44.7114 135.768 45.3047C135.493 45.8946 135.112 46.352 134.624 46.6768C134.137 46.9983 133.575 47.1591 132.939 47.1591C132.449 47.1591 132.056 47.0779 131.761 46.9155C131.466 46.7498 131.239 46.5625 131.08 46.3537C130.921 46.1416 130.798 45.9659 130.712 45.8267H130.612V49.8636H129.439ZM130.593 43.1818C130.593 43.7585 130.677 44.2673 130.846 44.7081C131.015 45.1456 131.262 45.4886 131.587 45.7372C131.912 45.9825 132.309 46.1051 132.78 46.1051C133.271 46.1051 133.68 45.9759 134.008 45.7173C134.339 45.4555 134.588 45.1042 134.754 44.6634C134.923 44.2192 135.007 43.7254 135.007 43.1818C135.007 42.6449 134.924 42.161 134.759 41.7301C134.596 41.2959 134.349 40.9529 134.018 40.701C133.69 40.4458 133.277 40.3182 132.78 40.3182C132.303 40.3182 131.902 40.4392 131.577 40.6811C131.252 40.9197 131.007 41.2545 130.841 41.6854C130.675 42.1129 130.593 42.6117 130.593 43.1818ZM141.172 47.1591C140.436 47.1591 139.802 46.9967 139.268 46.6719C138.738 46.3438 138.328 45.8864 138.04 45.2997C137.755 44.7098 137.612 44.0237 137.612 43.2415C137.612 42.4593 137.755 41.7699 138.04 41.1733C138.328 40.5734 138.729 40.1061 139.243 39.7713C139.76 39.4332 140.363 39.2642 141.053 39.2642C141.45 39.2642 141.843 39.3305 142.231 39.4631C142.619 39.5956 142.972 39.8111 143.29 40.1094C143.608 40.4044 143.862 40.7955 144.051 41.2827C144.24 41.7699 144.334 42.3698 144.334 43.0824V43.5795H138.448V42.5653H143.141C143.141 42.1345 143.055 41.75 142.882 41.4119C142.713 41.0739 142.471 40.8071 142.156 40.6115C141.845 40.416 141.477 40.3182 141.053 40.3182C140.585 40.3182 140.181 40.4342 139.84 40.6662C139.502 40.8949 139.241 41.1932 139.059 41.5611C138.877 41.929 138.786 42.3234 138.786 42.7443V43.4205C138.786 43.9972 138.885 44.486 139.084 44.8871C139.286 45.2848 139.566 45.5881 139.924 45.7969C140.282 46.0024 140.698 46.1051 141.172 46.1051C141.48 46.1051 141.759 46.062 142.007 45.9759C142.259 45.8864 142.476 45.7538 142.659 45.5781C142.841 45.3991 142.982 45.1771 143.081 44.9119L144.215 45.2301C144.095 45.6146 143.895 45.9527 143.613 46.2443C143.331 46.5327 142.983 46.758 142.569 46.9205C142.155 47.0795 141.689 47.1591 141.172 47.1591ZM146.119 47V39.3636H147.252V40.517H147.332C147.471 40.1392 147.723 39.8326 148.088 39.5973C148.452 39.362 148.863 39.2443 149.32 39.2443C149.407 39.2443 149.514 39.246 149.644 39.2493C149.773 39.2526 149.871 39.2576 149.937 39.2642V40.4574C149.897 40.4474 149.806 40.4325 149.664 40.4126C149.524 40.3894 149.377 40.3778 149.221 40.3778C148.85 40.3778 148.518 40.4557 148.227 40.6115C147.938 40.764 147.71 40.9761 147.541 41.2479C147.375 41.5163 147.292 41.8229 147.292 42.1676V47H146.119ZM155.142 42.0881V43.1818H150.688V42.0881H155.142ZM162.019 43.8778V39.3636H163.192V47H162.019V45.7074H161.94C161.761 46.0952 161.482 46.425 161.104 46.6967C160.727 46.9652 160.249 47.0994 159.673 47.0994C159.195 47.0994 158.771 46.995 158.4 46.7862C158.029 46.5741 157.737 46.2559 157.525 45.8317C157.313 45.4041 157.207 44.8655 157.207 44.2159V39.3636H158.38V44.1364C158.38 44.6932 158.536 45.1373 158.847 45.4688C159.162 45.8002 159.563 45.9659 160.05 45.9659C160.342 45.9659 160.639 45.8913 160.94 45.7422C161.245 45.593 161.5 45.3643 161.706 45.0561C161.915 44.7479 162.019 44.3551 162.019 43.8778ZM170.751 41.0739L169.697 41.3722C169.63 41.1965 169.532 41.0258 169.403 40.8601C169.277 40.6911 169.105 40.5518 168.886 40.4425C168.667 40.3331 168.387 40.2784 168.046 40.2784C167.579 40.2784 167.189 40.3861 166.878 40.6016C166.569 40.8137 166.415 41.0838 166.415 41.4119C166.415 41.7036 166.521 41.9339 166.733 42.103C166.946 42.272 167.277 42.4129 167.728 42.5256L168.861 42.804C169.544 42.9697 170.053 43.2232 170.388 43.5646C170.722 43.9027 170.89 44.3385 170.89 44.8722C170.89 45.3097 170.764 45.7008 170.512 46.0455C170.263 46.3902 169.915 46.6619 169.468 46.8608C169.02 47.0597 168.5 47.1591 167.907 47.1591C167.128 47.1591 166.483 46.9901 165.973 46.652C165.462 46.3139 165.139 45.8201 165.003 45.1705L166.117 44.892C166.223 45.303 166.424 45.6113 166.719 45.8168C167.017 46.0223 167.406 46.125 167.887 46.125C168.434 46.125 168.868 46.009 169.189 45.777C169.514 45.5417 169.677 45.2599 169.677 44.9318C169.677 44.6667 169.584 44.4446 169.398 44.2656C169.213 44.0833 168.928 43.9474 168.543 43.858L167.27 43.5597C166.571 43.3939 166.057 43.1371 165.729 42.7891C165.404 42.4377 165.242 41.9986 165.242 41.4716C165.242 41.0407 165.363 40.6596 165.605 40.3281C165.85 39.9967 166.183 39.7365 166.604 39.5476C167.028 39.3587 167.509 39.2642 168.046 39.2642C168.802 39.2642 169.395 39.4299 169.826 39.7614C170.26 40.0928 170.568 40.5303 170.751 41.0739ZM175.858 47.1591C175.122 47.1591 174.487 46.9967 173.953 46.6719C173.423 46.3438 173.014 45.8864 172.725 45.2997C172.44 44.7098 172.298 44.0237 172.298 43.2415C172.298 42.4593 172.44 41.7699 172.725 41.1733C173.014 40.5734 173.415 40.1061 173.929 39.7713C174.446 39.4332 175.049 39.2642 175.738 39.2642C176.136 39.2642 176.529 39.3305 176.917 39.4631C177.304 39.5956 177.657 39.8111 177.975 40.1094C178.294 40.4044 178.547 40.7955 178.736 41.2827C178.925 41.7699 179.02 42.3698 179.02 43.0824V43.5795H173.133V42.5653H177.826C177.826 42.1345 177.74 41.75 177.568 41.4119C177.399 41.0739 177.157 40.8071 176.842 40.6115C176.53 40.416 176.163 40.3182 175.738 40.3182C175.271 40.3182 174.867 40.4342 174.525 40.6662C174.187 40.8949 173.927 41.1932 173.745 41.5611C173.562 41.929 173.471 42.3234 173.471 42.7443V43.4205C173.471 43.9972 173.571 44.486 173.77 44.8871C173.972 45.2848 174.252 45.5881 174.61 45.7969C174.968 46.0024 175.384 46.1051 175.858 46.1051C176.166 46.1051 176.444 46.062 176.693 45.9759C176.945 45.8864 177.162 45.7538 177.344 45.5781C177.526 45.3991 177.667 45.1771 177.767 44.9119L178.9 45.2301C178.781 45.6146 178.58 45.9527 178.299 46.2443C178.017 46.5327 177.669 46.758 177.255 46.9205C176.84 47.0795 176.375 47.1591 175.858 47.1591ZM180.804 47V39.3636H181.938V40.517H182.017C182.157 40.1392 182.408 39.8326 182.773 39.5973C183.138 39.362 183.549 39.2443 184.006 39.2443C184.092 39.2443 184.2 39.246 184.329 39.2493C184.458 39.2526 184.556 39.2576 184.623 39.2642V40.4574C184.583 40.4474 184.492 40.4325 184.349 40.4126C184.21 40.3894 184.062 40.3778 183.907 40.3778C183.535 40.3778 183.204 40.4557 182.912 40.6115C182.624 40.764 182.395 40.9761 182.226 41.2479C182.06 41.5163 181.978 41.8229 181.978 42.1676V47H180.804ZM198.303 40H197.07C196.997 39.6454 196.87 39.3338 196.687 39.0653C196.508 38.7969 196.29 38.5715 196.031 38.3892C195.776 38.2036 195.492 38.0644 195.181 37.9716C194.869 37.8788 194.545 37.8324 194.206 37.8324C193.59 37.8324 193.032 37.9882 192.531 38.2997C192.034 38.6113 191.638 39.0703 191.343 39.6768C191.051 40.2834 190.905 41.0275 190.905 41.9091C190.905 42.7907 191.051 43.5348 191.343 44.1413C191.638 44.7479 192.034 45.2069 192.531 45.5185C193.032 45.83 193.59 45.9858 194.206 45.9858C194.545 45.9858 194.869 45.9394 195.181 45.8466C195.492 45.7538 195.776 45.6162 196.031 45.4339C196.29 45.2483 196.508 45.0213 196.687 44.7528C196.87 44.4811 196.997 44.1695 197.07 43.8182H198.303C198.21 44.3385 198.041 44.8042 197.796 45.2152C197.551 45.6262 197.246 45.9759 196.881 46.2642C196.517 46.5492 196.107 46.7663 195.653 46.9155C195.202 47.0646 194.72 47.1392 194.206 47.1392C193.338 47.1392 192.566 46.9271 191.89 46.5028C191.214 46.0786 190.682 45.4754 190.294 44.6932C189.906 43.911 189.712 42.983 189.712 41.9091C189.712 40.8352 189.906 39.9072 190.294 39.125C190.682 38.3428 191.214 37.7396 191.89 37.3153C192.566 36.8911 193.338 36.679 194.206 36.679C194.72 36.679 195.202 36.7536 195.653 36.9027C196.107 37.0518 196.517 37.2706 196.881 37.5589C197.246 37.844 197.551 38.192 197.796 38.603C198.041 39.0107 198.21 39.4763 198.303 40ZM200.136 47V39.3636H201.27V40.517H201.349C201.489 40.1392 201.741 39.8326 202.105 39.5973C202.47 39.362 202.881 39.2443 203.338 39.2443C203.424 39.2443 203.532 39.246 203.661 39.2493C203.79 39.2526 203.888 39.2576 203.955 39.2642V40.4574C203.915 40.4474 203.824 40.4325 203.681 40.4126C203.542 40.3894 203.394 40.3778 203.239 40.3778C202.867 40.3778 202.536 40.4557 202.244 40.6115C201.956 40.764 201.727 40.9761 201.558 41.2479C201.393 41.5163 201.31 41.8229 201.31 42.1676V47H200.136ZM208.315 47.1591C207.579 47.1591 206.944 46.9967 206.411 46.6719C205.88 46.3438 205.471 45.8864 205.183 45.2997C204.897 44.7098 204.755 44.0237 204.755 43.2415C204.755 42.4593 204.897 41.7699 205.183 41.1733C205.471 40.5734 205.872 40.1061 206.386 39.7713C206.903 39.4332 207.506 39.2642 208.195 39.2642C208.593 39.2642 208.986 39.3305 209.374 39.4631C209.761 39.5956 210.114 39.8111 210.433 40.1094C210.751 40.4044 211.004 40.7955 211.193 41.2827C211.382 41.7699 211.477 42.3698 211.477 43.0824V43.5795H205.59V42.5653H210.283C210.283 42.1345 210.197 41.75 210.025 41.4119C209.856 41.0739 209.614 40.8071 209.299 40.6115C208.987 40.416 208.62 40.3182 208.195 40.3182C207.728 40.3182 207.324 40.4342 206.982 40.6662C206.644 40.8949 206.384 41.1932 206.202 41.5611C206.019 41.929 205.928 42.3234 205.928 42.7443V43.4205C205.928 43.9972 206.028 44.486 206.227 44.8871C206.429 45.2848 206.709 45.5881 207.067 45.7969C207.425 46.0024 207.841 46.1051 208.315 46.1051C208.623 46.1051 208.901 46.062 209.15 45.9759C209.402 45.8864 209.619 45.7538 209.801 45.5781C209.983 45.3991 210.124 45.1771 210.224 44.9119L211.357 45.2301C211.238 45.6146 211.037 45.9527 210.756 46.2443C210.474 46.5327 210.126 46.758 209.712 46.9205C209.297 47.0795 208.832 47.1591 208.315 47.1591ZM216.145 47.1591C215.509 47.1591 214.947 46.9983 214.46 46.6768C213.972 46.352 213.591 45.8946 213.316 45.3047C213.041 44.7114 212.903 44.0104 212.903 43.2017C212.903 42.3996 213.041 41.7036 213.316 41.1136C213.591 40.5237 213.974 40.0679 214.464 39.7464C214.955 39.425 215.522 39.2642 216.165 39.2642C216.662 39.2642 217.055 39.3471 217.343 39.5128C217.635 39.6752 217.857 39.8608 218.009 40.0696C218.165 40.2751 218.286 40.4441 218.372 40.5767H218.472V36.8182H219.645V47H218.511V45.8267H218.372C218.286 45.9659 218.163 46.1416 218.004 46.3537C217.845 46.5625 217.618 46.7498 217.323 46.9155C217.028 47.0779 216.635 47.1591 216.145 47.1591ZM216.304 46.1051C216.775 46.1051 217.172 45.9825 217.497 45.7372C217.822 45.4886 218.069 45.1456 218.238 44.7081C218.407 44.2673 218.491 43.7585 218.491 43.1818C218.491 42.6117 218.409 42.1129 218.243 41.6854C218.077 41.2545 217.832 40.9197 217.507 40.6811C217.182 40.4392 216.781 40.3182 216.304 40.3182C215.807 40.3182 215.393 40.4458 215.061 40.701C214.733 40.9529 214.486 41.2959 214.32 41.7301C214.158 42.161 214.077 42.6449 214.077 43.1818C214.077 43.7254 214.16 44.2192 214.325 44.6634C214.494 45.1042 214.743 45.4555 215.071 45.7173C215.402 45.9759 215.813 46.1051 216.304 46.1051ZM221.957 47V39.3636H223.13V47H221.957ZM222.553 38.0909C222.325 38.0909 222.127 38.013 221.962 37.8572C221.799 37.7015 221.718 37.5142 221.718 37.2955C221.718 37.0767 221.799 36.8894 221.962 36.7337C222.127 36.5779 222.325 36.5 222.553 36.5C222.782 36.5 222.978 36.5779 223.14 36.7337C223.306 36.8894 223.388 37.0767 223.388 37.2955C223.388 37.5142 223.306 37.7015 223.14 37.8572C222.978 38.013 222.782 38.0909 222.553 38.0909ZM228.6 39.3636V40.358H224.643V39.3636H228.6ZM225.796 37.5341H226.969V44.8125C226.969 45.1439 227.017 45.3925 227.113 45.5582C227.213 45.7206 227.339 45.83 227.491 45.8864C227.647 45.9394 227.811 45.9659 227.983 45.9659C228.113 45.9659 228.219 45.9593 228.302 45.946C228.385 45.9295 228.451 45.9162 228.501 45.9062L228.739 46.9602C228.66 46.9901 228.549 47.0199 228.406 47.0497C228.264 47.0829 228.083 47.0994 227.864 47.0994C227.533 47.0994 227.208 47.0282 226.89 46.8857C226.575 46.7431 226.313 46.526 226.104 46.2344C225.899 45.9427 225.796 45.5748 225.796 45.1307V37.5341ZM240.03 39.3636C239.97 38.8598 239.728 38.4688 239.304 38.1903C238.88 37.9119 238.359 37.7727 237.743 37.7727C237.292 37.7727 236.898 37.8456 236.559 37.9915C236.225 38.1373 235.963 38.3378 235.774 38.593C235.588 38.8482 235.496 39.1383 235.496 39.4631C235.496 39.7348 235.56 39.9685 235.689 40.1641C235.822 40.3563 235.991 40.517 236.197 40.6463C236.402 40.7723 236.617 40.8767 236.843 40.9595C237.068 41.0391 237.275 41.1037 237.464 41.1534L238.498 41.4318C238.764 41.5014 239.059 41.5975 239.383 41.7202C239.711 41.8428 240.025 42.0102 240.323 42.2223C240.625 42.4311 240.873 42.6996 241.069 43.0277C241.264 43.3558 241.362 43.7585 241.362 44.2358C241.362 44.786 241.218 45.2831 240.93 45.7273C240.644 46.1714 240.227 46.5244 239.677 46.7862C239.13 47.0481 238.465 47.179 237.683 47.179C236.954 47.179 236.323 47.0613 235.789 46.826C235.259 46.5907 234.841 46.2625 234.536 45.8416C234.234 45.4207 234.064 44.9318 234.024 44.375H235.297C235.33 44.7595 235.459 45.0777 235.684 45.3295C235.913 45.5781 236.202 45.7637 236.55 45.8864C236.901 46.0057 237.279 46.0653 237.683 46.0653C238.154 46.0653 238.576 45.9891 238.951 45.8366C239.325 45.6809 239.622 45.4654 239.841 45.1903C240.059 44.9119 240.169 44.5871 240.169 44.2159C240.169 43.8778 240.074 43.6027 239.885 43.3906C239.697 43.1785 239.448 43.0062 239.14 42.8736C238.831 42.741 238.498 42.625 238.14 42.5256L236.888 42.1676C236.092 41.9389 235.462 41.6125 234.998 41.1882C234.534 40.764 234.302 40.2088 234.302 39.5227C234.302 38.9527 234.456 38.4555 234.765 38.0312C235.076 37.6037 235.494 37.2723 236.018 37.0369C236.545 36.7983 237.133 36.679 237.782 36.679C238.439 36.679 239.022 36.7966 239.532 37.032C240.043 37.264 240.447 37.5821 240.746 37.9865C241.047 38.3909 241.206 38.8499 241.223 39.3636H240.03ZM246.332 47.1591C245.616 47.1591 245 46.9901 244.483 46.652C243.966 46.3139 243.568 45.8482 243.29 45.255C243.011 44.6617 242.872 43.9839 242.872 43.2216C242.872 42.446 243.015 41.7616 243.3 41.1683C243.588 40.5717 243.989 40.1061 244.503 39.7713C245.02 39.4332 245.623 39.2642 246.312 39.2642C246.849 39.2642 247.333 39.3636 247.764 39.5625C248.195 39.7614 248.548 40.0398 248.823 40.3977C249.098 40.7557 249.269 41.1733 249.335 41.6506H248.162C248.072 41.3026 247.874 40.9943 247.565 40.7259C247.26 40.4541 246.849 40.3182 246.332 40.3182C245.875 40.3182 245.474 40.4375 245.129 40.6761C244.788 40.9115 244.521 41.2446 244.329 41.6754C244.14 42.103 244.045 42.6051 244.045 43.1818C244.045 43.7718 244.138 44.2855 244.324 44.723C244.513 45.1605 244.778 45.5002 245.119 45.7422C245.464 45.9841 245.868 46.1051 246.332 46.1051C246.637 46.1051 246.914 46.0521 247.163 45.946C247.411 45.84 247.622 45.6875 247.794 45.4886C247.966 45.2898 248.089 45.0511 248.162 44.7727H249.335C249.269 45.2235 249.105 45.6295 248.843 45.9908C248.585 46.3487 248.241 46.6338 247.814 46.8459C247.39 47.0547 246.896 47.1591 246.332 47.1591ZM254.153 47.1591C253.463 47.1591 252.858 46.995 252.338 46.6669C251.821 46.3388 251.417 45.8797 251.125 45.2898C250.837 44.6998 250.692 44.0104 250.692 43.2216C250.692 42.4261 250.837 41.7318 251.125 41.1385C251.417 40.5452 251.821 40.0845 252.338 39.7564C252.858 39.4283 253.463 39.2642 254.153 39.2642C254.842 39.2642 255.445 39.4283 255.962 39.7564C256.483 40.0845 256.887 40.5452 257.175 41.1385C257.467 41.7318 257.613 42.4261 257.613 43.2216C257.613 44.0104 257.467 44.6998 257.175 45.2898C256.887 45.8797 256.483 46.3388 255.962 46.6669C255.445 46.995 254.842 47.1591 254.153 47.1591ZM254.153 46.1051C254.676 46.1051 255.107 45.9709 255.445 45.7024C255.783 45.4339 256.034 45.081 256.196 44.6435C256.358 44.206 256.44 43.732 256.44 43.2216C256.44 42.7112 256.358 42.2356 256.196 41.7947C256.034 41.3539 255.783 40.9976 255.445 40.7259C255.107 40.4541 254.676 40.3182 254.153 40.3182C253.629 40.3182 253.198 40.4541 252.86 40.7259C252.522 40.9976 252.272 41.3539 252.109 41.7947C251.947 42.2356 251.866 42.7112 251.866 43.2216C251.866 43.732 251.947 44.206 252.109 44.6435C252.272 45.081 252.522 45.4339 252.86 45.7024C253.198 45.9709 253.629 46.1051 254.153 46.1051ZM259.404 47V39.3636H260.537V40.517H260.617C260.756 40.1392 261.008 39.8326 261.373 39.5973C261.737 39.362 262.148 39.2443 262.606 39.2443C262.692 39.2443 262.8 39.246 262.929 39.2493C263.058 39.2526 263.156 39.2576 263.222 39.2642V40.4574C263.182 40.4474 263.091 40.4325 262.949 40.4126C262.809 40.3894 262.662 40.3778 262.506 40.3778C262.135 40.3778 261.804 40.4557 261.512 40.6115C261.224 40.764 260.995 40.9761 260.826 41.2479C260.66 41.5163 260.577 41.8229 260.577 42.1676V47H259.404ZM267.582 47.1591C266.846 47.1591 266.212 46.9967 265.678 46.6719C265.148 46.3438 264.738 45.8864 264.45 45.2997C264.165 44.7098 264.023 44.0237 264.023 43.2415C264.023 42.4593 264.165 41.7699 264.45 41.1733C264.738 40.5734 265.14 40.1061 265.653 39.7713C266.17 39.4332 266.773 39.2642 267.463 39.2642C267.861 39.2642 268.253 39.3305 268.641 39.4631C269.029 39.5956 269.382 39.8111 269.7 40.1094C270.018 40.4044 270.272 40.7955 270.461 41.2827C270.65 41.7699 270.744 42.3698 270.744 43.0824V43.5795H264.858V42.5653H269.551C269.551 42.1345 269.465 41.75 269.292 41.4119C269.123 41.0739 268.881 40.8071 268.567 40.6115C268.255 40.416 267.887 40.3182 267.463 40.3182C266.996 40.3182 266.591 40.4342 266.25 40.6662C265.912 40.8949 265.652 41.1932 265.469 41.5611C265.287 41.929 265.196 42.3234 265.196 42.7443V43.4205C265.196 43.9972 265.295 44.486 265.494 44.8871C265.696 45.2848 265.976 45.5881 266.334 45.7969C266.692 46.0024 267.108 46.1051 267.582 46.1051C267.89 46.1051 268.169 46.062 268.417 45.9759C268.669 45.8864 268.886 45.7538 269.069 45.5781C269.251 45.3991 269.392 45.1771 269.491 44.9119L270.625 45.2301C270.506 45.6146 270.305 45.9527 270.023 46.2443C269.742 46.5327 269.394 46.758 268.979 46.9205C268.565 47.0795 268.099 47.1591 267.582 47.1591ZM273.384 47.0795C273.139 47.0795 272.928 46.9917 272.753 46.8161C272.577 46.6404 272.489 46.4299 272.489 46.1847C272.489 45.9394 272.577 45.7289 272.753 45.5533C272.928 45.3776 273.139 45.2898 273.384 45.2898C273.629 45.2898 273.84 45.3776 274.015 45.5533C274.191 45.7289 274.279 45.9394 274.279 46.1847C274.279 46.3471 274.238 46.4962 274.155 46.6321C274.075 46.768 273.967 46.8774 273.831 46.9602C273.699 47.0398 273.55 47.0795 273.384 47.0795Z" fill="#475467"/>
</svg>
