<svg width="52" height="52" viewBox="0 0 52 52" fill="none" xmlns="http://www.w3.org/2000/svg">
<g filter="url(#filter0_d_182_371)">
<rect x="2" y="1" width="48" height="48" rx="10" fill="white"/>
<rect x="2.5" y="1.5" width="47" height="47" rx="9.5" stroke="#E4E7EC"/>
<path d="M16 27.5L25.6422 32.3211C25.7734 32.3867 25.839 32.4195 25.9078 32.4324C25.9687 32.4438 26.0313 32.4438 26.0922 32.4324C26.161 32.4195 26.2266 32.3867 26.3578 32.3211L36 27.5M16 22.5L25.6422 17.6789C25.7734 17.6133 25.839 17.5805 25.9078 17.5676C25.9687 17.5562 26.0313 17.5562 26.0922 17.5676C26.161 17.5805 26.2266 17.6133 26.3578 17.6789L36 22.5L26.3578 27.3211C26.2266 27.3867 26.161 27.4195 26.0922 27.4324C26.0313 27.4438 25.9687 27.4438 25.9078 27.4324C25.839 27.4195 25.7734 27.3867 25.6422 27.3211L16 22.5Z" stroke="#344054" stroke-width="2" stroke-linecap="round" stroke-linejoin="round"/>
</g>
<defs>
<filter id="filter0_d_182_371" x="0" y="0" width="52" height="52" filterUnits="userSpaceOnUse" color-interpolation-filters="sRGB">
<feFlood flood-opacity="0" result="BackgroundImageFix"/>
<feColorMatrix in="SourceAlpha" type="matrix" values="0 0 0 0 0 0 0 0 0 0 0 0 0 0 0 0 0 0 127 0" result="hardAlpha"/>
<feOffset dy="1"/>
<feGaussianBlur stdDeviation="1"/>
<feColorMatrix type="matrix" values="0 0 0 0 0.0627451 0 0 0 0 0.0941176 0 0 0 0 0.156863 0 0 0 0.05 0"/>
<feBlend mode="normal" in2="BackgroundImageFix" result="effect1_dropShadow_182_371"/>
<feBlend mode="normal" in="SourceGraphic" in2="effect1_dropShadow_182_371" result="shape"/>
</filter>
</defs>
</svg>
