<svg width="352" height="52" viewBox="0 0 352 52" fill="none" xmlns="http://www.w3.org/2000/svg">
<path d="M102.356 12H100.77C100.677 11.544 100.513 11.1435 100.278 10.7983C100.048 10.4531 99.7669 10.1634 99.4345 9.92898C99.1064 9.69034 98.742 9.51136 98.3414 9.39205C97.9409 9.27273 97.5233 9.21307 97.0886 9.21307C96.296 9.21307 95.5779 9.41335 94.9345 9.81392C94.2953 10.2145 93.786 10.8047 93.4068 11.5845C93.0318 12.3643 92.8443 13.321 92.8443 14.4545C92.8443 15.5881 93.0318 16.5447 93.4068 17.3246C93.786 18.1044 94.2953 18.6946 94.9345 19.0952C95.5779 19.4957 96.296 19.696 97.0886 19.696C97.5233 19.696 97.9409 19.6364 98.3414 19.517C98.742 19.3977 99.1064 19.2209 99.4345 18.9865C99.7669 18.7479 100.048 18.456 100.278 18.1108C100.513 17.7614 100.677 17.3608 100.77 16.9091H102.356C102.236 17.5781 102.019 18.1768 101.704 18.7053C101.388 19.2337 100.996 19.6832 100.528 20.054C100.059 20.4205 99.5325 20.6996 98.9487 20.8913C98.3691 21.0831 97.7491 21.179 97.0886 21.179C95.9721 21.179 94.9792 20.9062 94.1099 20.3608C93.2406 19.8153 92.5566 19.0398 92.0581 18.0341C91.5595 17.0284 91.3102 15.8352 91.3102 14.4545C91.3102 13.0739 91.5595 11.8807 92.0581 10.875C92.5566 9.86932 93.2406 9.09375 94.1099 8.5483C94.9792 8.00284 95.9721 7.73011 97.0886 7.73011C97.7491 7.73011 98.3691 7.82599 98.9487 8.01776C99.5325 8.20952 100.059 8.49077 100.528 8.86151C100.996 9.22798 101.388 9.67543 101.704 10.2038C102.019 10.728 102.236 11.3267 102.356 12ZM108.701 21.2045C107.815 21.2045 107.037 20.9936 106.368 20.5717C105.703 20.1499 105.184 19.5597 104.809 18.8011C104.438 18.0426 104.252 17.1562 104.252 16.142C104.252 15.1193 104.438 14.2266 104.809 13.4638C105.184 12.701 105.703 12.1087 106.368 11.6868C107.037 11.2649 107.815 11.054 108.701 11.054C109.588 11.054 110.363 11.2649 111.028 11.6868C111.697 12.1087 112.217 12.701 112.588 13.4638C112.963 14.2266 113.15 15.1193 113.15 16.142C113.15 17.1562 112.963 18.0426 112.588 18.8011C112.217 19.5597 111.697 20.1499 111.028 20.5717C110.363 20.9936 109.588 21.2045 108.701 21.2045ZM108.701 19.8494C109.375 19.8494 109.929 19.6768 110.363 19.3317C110.798 18.9865 111.12 18.5327 111.328 17.9702C111.537 17.4077 111.642 16.7983 111.642 16.142C111.642 15.4858 111.537 14.8743 111.328 14.3075C111.12 13.7408 110.798 13.2827 110.363 12.9332C109.929 12.5838 109.375 12.4091 108.701 12.4091C108.028 12.4091 107.474 12.5838 107.039 12.9332C106.605 13.2827 106.283 13.7408 106.074 14.3075C105.865 14.8743 105.761 15.4858 105.761 16.142C105.761 16.7983 105.865 17.4077 106.074 17.9702C106.283 18.5327 106.605 18.9865 107.039 19.3317C107.474 19.6768 108.028 19.8494 108.701 19.8494ZM116.961 15.0938V21H115.453V11.1818H116.91V12.7159H117.038C117.268 12.2173 117.618 11.8168 118.086 11.5142C118.555 11.2074 119.16 11.054 119.902 11.054C120.567 11.054 121.148 11.1903 121.647 11.4631C122.145 11.7315 122.533 12.1406 122.81 12.6903C123.087 13.2358 123.226 13.9261 123.226 14.7614V21H121.717V14.8636C121.717 14.0923 121.517 13.4915 121.116 13.0611C120.716 12.6264 120.166 12.4091 119.467 12.4091C118.986 12.4091 118.555 12.5135 118.176 12.7223C117.801 12.9311 117.505 13.2358 117.287 13.6364C117.07 14.0369 116.961 14.5227 116.961 15.0938ZM127.491 15.0938V21H125.982V11.1818H127.44V12.7159H127.567C127.798 12.2173 128.147 11.8168 128.616 11.5142C129.085 11.2074 129.69 11.054 130.431 11.054C131.096 11.054 131.678 11.1903 132.176 11.4631C132.675 11.7315 133.063 12.1406 133.339 12.6903C133.616 13.2358 133.755 13.9261 133.755 14.7614V21H132.246V14.8636C132.246 14.0923 132.046 13.4915 131.646 13.0611C131.245 12.6264 130.695 12.4091 129.996 12.4091C129.515 12.4091 129.085 12.5135 128.705 12.7223C128.33 12.9311 128.034 13.2358 127.817 13.6364C127.599 14.0369 127.491 14.5227 127.491 15.0938ZM140.628 21.2045C139.682 21.2045 138.866 20.9957 138.18 20.5781C137.498 20.1562 136.972 19.5682 136.601 18.8139C136.235 18.0554 136.051 17.1733 136.051 16.1676C136.051 15.1619 136.235 14.2756 136.601 13.5085C136.972 12.7372 137.487 12.1364 138.148 11.706C138.813 11.2713 139.588 11.054 140.475 11.054C140.986 11.054 141.491 11.1392 141.99 11.3097C142.488 11.4801 142.942 11.7571 143.351 12.1406C143.76 12.5199 144.086 13.0227 144.329 13.6491C144.572 14.2756 144.693 15.0469 144.693 15.9631V16.6023H137.125V15.2983H143.159C143.159 14.7443 143.048 14.25 142.827 13.8153C142.61 13.3807 142.298 13.0376 141.894 12.7862C141.493 12.5348 141.02 12.4091 140.475 12.4091C139.874 12.4091 139.354 12.5582 138.915 12.8565C138.48 13.1506 138.146 13.5341 137.911 14.0071C137.677 14.4801 137.56 14.9872 137.56 15.5284V16.3977C137.56 17.1392 137.688 17.7678 137.943 18.2834C138.203 18.7947 138.563 19.1847 139.024 19.4531C139.484 19.7173 140.019 19.8494 140.628 19.8494C141.024 19.8494 141.382 19.794 141.702 19.6832C142.026 19.5682 142.305 19.3977 142.539 19.1719C142.774 18.9418 142.955 18.6562 143.083 18.3153L144.54 18.7244C144.387 19.2188 144.129 19.6534 143.767 20.0284C143.404 20.3991 142.957 20.6889 142.424 20.8977C141.892 21.1023 141.293 21.2045 140.628 21.2045ZM150.977 21.2045C150.056 21.2045 149.264 20.9872 148.599 20.5526C147.934 20.1179 147.423 19.5192 147.065 18.7564C146.707 17.9936 146.528 17.1222 146.528 16.142C146.528 15.1449 146.711 14.2649 147.078 13.5021C147.448 12.7351 147.964 12.1364 148.624 11.706C149.289 11.2713 150.065 11.054 150.951 11.054C151.642 11.054 152.264 11.1818 152.818 11.4375C153.372 11.6932 153.825 12.0511 154.179 12.5114C154.533 12.9716 154.752 13.5085 154.838 14.1222H153.329C153.214 13.6747 152.958 13.2784 152.562 12.9332C152.17 12.5838 151.642 12.4091 150.977 12.4091C150.389 12.4091 149.873 12.5625 149.43 12.8693C148.991 13.1719 148.648 13.6001 148.401 14.1541C148.158 14.7038 148.036 15.3494 148.036 16.0909C148.036 16.8494 148.156 17.5099 148.394 18.0724C148.637 18.6349 148.978 19.0717 149.417 19.3828C149.86 19.6939 150.38 19.8494 150.977 19.8494C151.369 19.8494 151.725 19.7812 152.044 19.6449C152.364 19.5085 152.634 19.3125 152.856 19.0568C153.078 18.8011 153.235 18.4943 153.329 18.1364H154.838C154.752 18.7159 154.541 19.2379 154.205 19.7024C153.872 20.1626 153.431 20.5291 152.882 20.8018C152.336 21.0703 151.701 21.2045 150.977 21.2045ZM161.313 11.1818V12.4602H156.225V11.1818H161.313ZM157.708 8.82955H159.216V18.1875C159.216 18.6136 159.278 18.9332 159.401 19.1463C159.529 19.3551 159.691 19.4957 159.887 19.5682C160.088 19.6364 160.298 19.6705 160.52 19.6705C160.686 19.6705 160.823 19.6619 160.929 19.6449C161.036 19.6236 161.121 19.6065 161.185 19.5938L161.492 20.9489C161.389 20.9872 161.247 21.0256 161.063 21.0639C160.88 21.1065 160.648 21.1278 160.367 21.1278C159.941 21.1278 159.523 21.0362 159.114 20.853C158.709 20.6697 158.372 20.3906 158.104 20.0156C157.84 19.6406 157.708 19.1676 157.708 18.5966V8.82955ZM169.616 24.6818C169.36 24.6818 169.132 24.6605 168.932 24.6179C168.732 24.5795 168.593 24.5412 168.517 24.5028L168.9 23.1733C169.267 23.267 169.59 23.3011 169.872 23.2756C170.153 23.25 170.402 23.1243 170.619 22.8984C170.841 22.6768 171.044 22.3168 171.227 21.8182L171.508 21.0511L167.877 11.1818H169.514L172.224 19.0057H172.326L175.036 11.1818H176.673L172.505 22.4318C172.318 22.9389 172.085 23.3587 171.808 23.6911C171.531 24.0277 171.21 24.277 170.843 24.4389C170.481 24.6009 170.072 24.6818 169.616 24.6818ZM182.301 21.2045C181.415 21.2045 180.637 20.9936 179.968 20.5717C179.303 20.1499 178.783 19.5597 178.408 18.8011C178.037 18.0426 177.852 17.1562 177.852 16.142C177.852 15.1193 178.037 14.2266 178.408 13.4638C178.783 12.701 179.303 12.1087 179.968 11.6868C180.637 11.2649 181.415 11.054 182.301 11.054C183.187 11.054 183.963 11.2649 184.628 11.6868C185.297 12.1087 185.817 12.701 186.187 13.4638C186.562 14.2266 186.75 15.1193 186.75 16.142C186.75 17.1562 186.562 18.0426 186.187 18.8011C185.817 19.5597 185.297 20.1499 184.628 20.5717C183.963 20.9936 183.187 21.2045 182.301 21.2045ZM182.301 19.8494C182.974 19.8494 183.528 19.6768 183.963 19.3317C184.398 18.9865 184.719 18.5327 184.928 17.9702C185.137 17.4077 185.241 16.7983 185.241 16.142C185.241 15.4858 185.137 14.8743 184.928 14.3075C184.719 13.7408 184.398 13.2827 183.963 12.9332C183.528 12.5838 182.974 12.4091 182.301 12.4091C181.628 12.4091 181.074 12.5838 180.639 12.9332C180.204 13.2827 179.883 13.7408 179.674 14.3075C179.465 14.8743 179.361 15.4858 179.361 16.142C179.361 16.7983 179.465 17.4077 179.674 17.9702C179.883 18.5327 180.204 18.9865 180.639 19.3317C181.074 19.6768 181.628 19.8494 182.301 19.8494ZM195.24 16.9858V11.1818H196.749V21H195.24V19.3381H195.138C194.908 19.8366 194.55 20.2607 194.064 20.6101C193.578 20.9553 192.964 21.1278 192.223 21.1278C191.609 21.1278 191.064 20.9936 190.587 20.7251C190.109 20.4524 189.734 20.0433 189.462 19.4979C189.189 18.9482 189.053 18.2557 189.053 17.4205V11.1818H190.561V17.3182C190.561 18.0341 190.761 18.6051 191.162 19.0312C191.567 19.4574 192.082 19.6705 192.709 19.6705C193.084 19.6705 193.465 19.5746 193.853 19.3828C194.245 19.1911 194.573 18.897 194.837 18.5007C195.106 18.1044 195.24 17.5994 195.24 16.9858ZM199.512 21V11.1818H200.969V12.6648H201.071C201.25 12.179 201.574 11.7848 202.043 11.4822C202.512 11.1797 203.04 11.0284 203.628 11.0284C203.739 11.0284 203.877 11.0305 204.044 11.0348C204.21 11.0391 204.335 11.0455 204.421 11.054V12.5881C204.369 12.5753 204.252 12.5561 204.069 12.5305C203.89 12.5007 203.7 12.4858 203.5 12.4858C203.023 12.4858 202.597 12.5859 202.222 12.7862C201.851 12.9822 201.557 13.255 201.34 13.6044C201.127 13.9496 201.02 14.3437 201.02 14.7869V21H199.512ZM213.854 21L210.274 7.90909H211.885L214.621 18.571H214.749L217.536 7.90909H219.325L222.112 18.571H222.24L224.976 7.90909H226.587L223.007 21H221.371L218.482 10.5682H218.379L215.49 21H213.854ZM230.332 21.2301C229.71 21.2301 229.146 21.1129 228.638 20.8786C228.131 20.6399 227.729 20.2969 227.43 19.8494C227.132 19.3977 226.983 18.8523 226.983 18.2131C226.983 17.6506 227.094 17.1946 227.315 16.8452C227.537 16.4915 227.833 16.2145 228.204 16.0142C228.575 15.8139 228.984 15.6648 229.431 15.5668C229.883 15.4645 230.337 15.3835 230.793 15.3239C231.389 15.2472 231.873 15.1896 232.244 15.1513C232.619 15.1087 232.891 15.0384 233.062 14.9403C233.237 14.8423 233.324 14.6719 233.324 14.429V14.3778C233.324 13.7472 233.151 13.2571 232.806 12.9077C232.465 12.5582 231.947 12.3835 231.253 12.3835C230.533 12.3835 229.968 12.5412 229.559 12.8565C229.15 13.1719 228.862 13.5085 228.696 13.8665L227.264 13.3551C227.52 12.7585 227.861 12.294 228.287 11.9616C228.717 11.625 229.186 11.3906 229.693 11.2585C230.205 11.1222 230.707 11.054 231.202 11.054C231.517 11.054 231.879 11.0923 232.288 11.169C232.702 11.2415 233.1 11.3928 233.484 11.6229C233.871 11.853 234.193 12.2003 234.449 12.6648C234.705 13.1293 234.832 13.7514 234.832 14.5312V21H233.324V19.6705H233.247C233.145 19.8835 232.974 20.1115 232.736 20.3544C232.497 20.5973 232.18 20.804 231.783 20.9744C231.387 21.1449 230.903 21.2301 230.332 21.2301ZM230.562 19.875C231.159 19.875 231.662 19.7578 232.071 19.5234C232.484 19.2891 232.795 18.9865 233.004 18.6158C233.217 18.245 233.324 17.8551 233.324 17.446V16.0653C233.26 16.142 233.119 16.2124 232.902 16.2763C232.689 16.3359 232.442 16.3892 232.161 16.4361C231.884 16.4787 231.613 16.517 231.349 16.5511C231.089 16.581 230.878 16.6065 230.716 16.6278C230.324 16.679 229.957 16.7621 229.616 16.8771C229.28 16.9879 229.007 17.1562 228.798 17.3821C228.594 17.6037 228.491 17.9062 228.491 18.2898C228.491 18.8139 228.685 19.2102 229.073 19.4787C229.465 19.7429 229.962 19.875 230.562 19.875ZM239.094 7.90909V21H237.586V7.90909H239.094ZM243.366 7.90909V21H241.857V7.90909H243.366ZM250.245 21.2045C249.299 21.2045 248.483 20.9957 247.797 20.5781C247.115 20.1562 246.589 19.5682 246.218 18.8139C245.852 18.0554 245.669 17.1733 245.669 16.1676C245.669 15.1619 245.852 14.2756 246.218 13.5085C246.589 12.7372 247.105 12.1364 247.765 11.706C248.43 11.2713 249.205 11.054 250.092 11.054C250.603 11.054 251.108 11.1392 251.607 11.3097C252.105 11.4801 252.559 11.7571 252.968 12.1406C253.377 12.5199 253.703 13.0227 253.946 13.6491C254.189 14.2756 254.311 15.0469 254.311 15.9631V16.6023H246.742V15.2983H252.776C252.776 14.7443 252.666 14.25 252.444 13.8153C252.227 13.3807 251.916 13.0376 251.511 12.7862C251.11 12.5348 250.637 12.4091 250.092 12.4091C249.491 12.4091 248.971 12.5582 248.532 12.8565C248.097 13.1506 247.763 13.5341 247.529 14.0071C247.294 14.4801 247.177 14.9872 247.177 15.5284V16.3977C247.177 17.1392 247.305 17.7678 247.561 18.2834C247.82 18.7947 248.181 19.1847 248.641 19.4531C249.101 19.7173 249.636 19.8494 250.245 19.8494C250.642 19.8494 250.999 19.794 251.319 19.6832C251.643 19.5682 251.922 19.3977 252.156 19.1719C252.391 18.9418 252.572 18.6562 252.7 18.3153L254.157 18.7244C254.004 19.2188 253.746 19.6534 253.384 20.0284C253.021 20.3991 252.574 20.6889 252.041 20.8977C251.509 21.1023 250.91 21.2045 250.245 21.2045ZM260.875 11.1818V12.4602H255.787V11.1818H260.875ZM257.27 8.82955H258.779V18.1875C258.779 18.6136 258.84 18.9332 258.964 19.1463C259.092 19.3551 259.254 19.4957 259.45 19.5682C259.65 19.6364 259.861 19.6705 260.083 19.6705C260.249 19.6705 260.385 19.6619 260.492 19.6449C260.598 19.6236 260.683 19.6065 260.747 19.5938L261.054 20.9489C260.952 20.9872 260.809 21.0256 260.626 21.0639C260.443 21.1065 260.21 21.1278 259.929 21.1278C259.503 21.1278 259.085 21.0362 258.676 20.853C258.271 20.6697 257.935 20.3906 257.666 20.0156C257.402 19.6406 257.27 19.1676 257.27 18.5966V8.82955Z" fill="#101828"/>
<path d="M115.293 36.8182V47H114.1L108.552 39.0057H108.452V47H107.219V36.8182H108.412L113.981 44.8324H114.08V36.8182H115.293ZM120.703 47.1591C120.014 47.1591 119.409 46.995 118.889 46.6669C118.372 46.3388 117.967 45.8797 117.676 45.2898C117.387 44.6998 117.243 44.0104 117.243 43.2216C117.243 42.4261 117.387 41.7318 117.676 41.1385C117.967 40.5452 118.372 40.0845 118.889 39.7564C119.409 39.4283 120.014 39.2642 120.703 39.2642C121.393 39.2642 121.996 39.4283 122.513 39.7564C123.033 40.0845 123.438 40.5452 123.726 41.1385C124.018 41.7318 124.164 42.4261 124.164 43.2216C124.164 44.0104 124.018 44.6998 123.726 45.2898C123.438 45.8797 123.033 46.3388 122.513 46.6669C121.996 46.995 121.393 47.1591 120.703 47.1591ZM120.703 46.1051C121.227 46.1051 121.658 45.9709 121.996 45.7024C122.334 45.4339 122.584 45.081 122.747 44.6435C122.909 44.206 122.99 43.732 122.99 43.2216C122.99 42.7112 122.909 42.2356 122.747 41.7947C122.584 41.3539 122.334 40.9976 121.996 40.7259C121.658 40.4541 121.227 40.3182 120.703 40.3182C120.18 40.3182 119.749 40.4541 119.411 40.7259C119.073 40.9976 118.823 41.3539 118.66 41.7947C118.498 42.2356 118.417 42.7112 118.417 43.2216C118.417 43.732 118.498 44.206 118.66 44.6435C118.823 45.081 119.073 45.4339 119.411 45.7024C119.749 45.9709 120.18 46.1051 120.703 46.1051ZM127.128 42.4062V47H125.955V39.3636H127.088V40.5568H127.188C127.367 40.169 127.638 39.8575 128.003 39.6222C128.368 39.3835 128.838 39.2642 129.415 39.2642C129.932 39.2642 130.384 39.3703 130.772 39.5824C131.16 39.7912 131.462 40.1094 131.677 40.5369C131.892 40.9612 132 41.4981 132 42.1477V47H130.827V42.2273C130.827 41.6274 130.671 41.16 130.36 40.8253C130.048 40.4872 129.62 40.3182 129.077 40.3182C128.702 40.3182 128.368 40.3994 128.073 40.5618C127.781 40.7242 127.551 40.9612 127.382 41.2727C127.213 41.5843 127.128 41.9621 127.128 42.4062ZM138.519 42.0881V43.1818H134.065V42.0881H138.519ZM148.936 40H147.703C147.63 39.6454 147.502 39.3338 147.32 39.0653C147.141 38.7969 146.922 38.5715 146.664 38.3892C146.409 38.2036 146.125 38.0644 145.814 37.9716C145.502 37.8788 145.177 37.8324 144.839 37.8324C144.223 37.8324 143.664 37.9882 143.164 38.2997C142.667 38.6113 142.271 39.0703 141.976 39.6768C141.684 40.2834 141.538 41.0275 141.538 41.9091C141.538 42.7907 141.684 43.5348 141.976 44.1413C142.271 44.7479 142.667 45.2069 143.164 45.5185C143.664 45.83 144.223 45.9858 144.839 45.9858C145.177 45.9858 145.502 45.9394 145.814 45.8466C146.125 45.7538 146.409 45.6162 146.664 45.4339C146.922 45.2483 147.141 45.0213 147.32 44.7528C147.502 44.4811 147.63 44.1695 147.703 43.8182H148.936C148.843 44.3385 148.674 44.8042 148.429 45.2152C148.184 45.6262 147.879 45.9759 147.514 46.2642C147.149 46.5492 146.74 46.7663 146.286 46.9155C145.835 47.0646 145.353 47.1392 144.839 47.1392C143.971 47.1392 143.199 46.9271 142.523 46.5028C141.846 46.0786 141.314 45.4754 140.927 44.6932C140.539 43.911 140.345 42.983 140.345 41.9091C140.345 40.8352 140.539 39.9072 140.927 39.125C141.314 38.3428 141.846 37.7396 142.523 37.3153C143.199 36.8911 143.971 36.679 144.839 36.679C145.353 36.679 145.835 36.7536 146.286 36.9027C146.74 37.0518 147.149 37.2706 147.514 37.5589C147.879 37.844 148.184 38.192 148.429 38.603C148.674 39.0107 148.843 39.4763 148.936 40ZM155.582 43.8778V39.3636H156.755V47H155.582V45.7074H155.502C155.323 46.0952 155.045 46.425 154.667 46.6967C154.289 46.9652 153.812 47.0994 153.235 47.0994C152.758 47.0994 152.334 46.995 151.962 46.7862C151.591 46.5741 151.299 46.2559 151.087 45.8317C150.875 45.4041 150.769 44.8655 150.769 44.2159V39.3636H151.942V44.1364C151.942 44.6932 152.098 45.1373 152.41 45.4688C152.725 45.8002 153.126 45.9659 153.613 45.9659C153.905 45.9659 154.201 45.8913 154.503 45.7422C154.808 45.593 155.063 45.3643 155.268 45.0561C155.477 44.7479 155.582 44.3551 155.582 43.8778ZM164.313 41.0739L163.259 41.3722C163.193 41.1965 163.095 41.0258 162.966 40.8601C162.84 40.6911 162.667 40.5518 162.449 40.4425C162.23 40.3331 161.95 40.2784 161.608 40.2784C161.141 40.2784 160.752 40.3861 160.44 40.6016C160.132 40.8137 159.978 41.0838 159.978 41.4119C159.978 41.7036 160.084 41.9339 160.296 42.103C160.508 42.272 160.84 42.4129 161.29 42.5256L162.424 42.804C163.107 42.9697 163.615 43.2232 163.95 43.5646C164.285 43.9027 164.452 44.3385 164.452 44.8722C164.452 45.3097 164.326 45.7008 164.074 46.0455C163.826 46.3902 163.478 46.6619 163.03 46.8608C162.583 47.0597 162.063 47.1591 161.469 47.1591C160.69 47.1591 160.046 46.9901 159.535 46.652C159.025 46.3139 158.702 45.8201 158.566 45.1705L159.68 44.892C159.786 45.303 159.986 45.6113 160.281 45.8168C160.579 46.0223 160.969 46.125 161.449 46.125C161.996 46.125 162.43 46.009 162.752 45.777C163.077 45.5417 163.239 45.2599 163.239 44.9318C163.239 44.6667 163.146 44.4446 162.961 44.2656C162.775 44.0833 162.49 43.9474 162.106 43.858L160.833 43.5597C160.134 43.3939 159.62 43.1371 159.292 42.7891C158.967 42.4377 158.805 41.9986 158.805 41.4716C158.805 41.0407 158.925 40.6596 159.167 40.3281C159.413 39.9967 159.746 39.7365 160.167 39.5476C160.591 39.3587 161.072 39.2642 161.608 39.2642C162.364 39.2642 162.957 39.4299 163.388 39.7614C163.823 40.0928 164.131 40.5303 164.313 41.0739ZM169.539 39.3636V40.358H165.582V39.3636H169.539ZM166.735 37.5341H167.909V44.8125C167.909 45.1439 167.957 45.3925 168.053 45.5582C168.152 45.7206 168.278 45.83 168.431 45.8864C168.587 45.9394 168.751 45.9659 168.923 45.9659C169.052 45.9659 169.158 45.9593 169.241 45.946C169.324 45.9295 169.39 45.9162 169.44 45.9062L169.679 46.9602C169.599 46.9901 169.488 47.0199 169.346 47.0497C169.203 47.0829 169.022 47.0994 168.804 47.0994C168.472 47.0994 168.147 47.0282 167.829 46.8857C167.514 46.7431 167.252 46.526 167.044 46.2344C166.838 45.9427 166.735 45.5748 166.735 45.1307V37.5341ZM174.325 47.1591C173.635 47.1591 173.03 46.995 172.51 46.6669C171.993 46.3388 171.589 45.8797 171.297 45.2898C171.009 44.6998 170.864 44.0104 170.864 43.2216C170.864 42.4261 171.009 41.7318 171.297 41.1385C171.589 40.5452 171.993 40.0845 172.51 39.7564C173.03 39.4283 173.635 39.2642 174.325 39.2642C175.014 39.2642 175.617 39.4283 176.134 39.7564C176.655 40.0845 177.059 40.5452 177.347 41.1385C177.639 41.7318 177.785 42.4261 177.785 43.2216C177.785 44.0104 177.639 44.6998 177.347 45.2898C177.059 45.8797 176.655 46.3388 176.134 46.6669C175.617 46.995 175.014 47.1591 174.325 47.1591ZM174.325 46.1051C174.848 46.1051 175.279 45.9709 175.617 45.7024C175.955 45.4339 176.205 45.081 176.368 44.6435C176.53 44.206 176.612 43.732 176.612 43.2216C176.612 42.7112 176.53 42.2356 176.368 41.7947C176.205 41.3539 175.955 40.9976 175.617 40.7259C175.279 40.4541 174.848 40.3182 174.325 40.3182C173.801 40.3182 173.37 40.4541 173.032 40.7259C172.694 40.9976 172.444 41.3539 172.281 41.7947C172.119 42.2356 172.038 42.7112 172.038 43.2216C172.038 43.732 172.119 44.206 172.281 44.6435C172.444 45.081 172.694 45.4339 173.032 45.7024C173.37 45.9709 173.801 46.1051 174.325 46.1051ZM182.459 47.1591C181.823 47.1591 181.261 46.9983 180.774 46.6768C180.287 46.352 179.906 45.8946 179.631 45.3047C179.355 44.7114 179.218 44.0104 179.218 43.2017C179.218 42.3996 179.355 41.7036 179.631 41.1136C179.906 40.5237 180.288 40.0679 180.779 39.7464C181.269 39.425 181.836 39.2642 182.479 39.2642C182.976 39.2642 183.369 39.3471 183.657 39.5128C183.949 39.6752 184.171 39.8608 184.324 40.0696C184.479 40.2751 184.6 40.4441 184.687 40.5767H184.786V36.8182H185.959V47H184.826V45.8267H184.687C184.6 45.9659 184.478 46.1416 184.319 46.3537C184.16 46.5625 183.933 46.7498 183.638 46.9155C183.343 47.0779 182.95 47.1591 182.459 47.1591ZM182.618 46.1051C183.089 46.1051 183.487 45.9825 183.812 45.7372C184.136 45.4886 184.383 45.1456 184.552 44.7081C184.721 44.2673 184.806 43.7585 184.806 43.1818C184.806 42.6117 184.723 42.1129 184.557 41.6854C184.392 41.2545 184.146 40.9197 183.822 40.6811C183.497 40.4392 183.096 40.3182 182.618 40.3182C182.121 40.3182 181.707 40.4458 181.376 40.701C181.047 40.9529 180.8 41.2959 180.635 41.7301C180.472 42.161 180.391 42.6449 180.391 43.1818C180.391 43.7254 180.474 44.2192 180.64 44.6634C180.809 45.1042 181.057 45.4555 181.385 45.7173C181.717 45.9759 182.128 46.1051 182.618 46.1051ZM188.271 47V39.3636H189.444V47H188.271ZM188.868 38.0909C188.639 38.0909 188.442 38.013 188.276 37.8572C188.114 37.7015 188.032 37.5142 188.032 37.2955C188.032 37.0767 188.114 36.8894 188.276 36.7337C188.442 36.5779 188.639 36.5 188.868 36.5C189.096 36.5 189.292 36.5779 189.454 36.7337C189.62 36.8894 189.703 37.0767 189.703 37.2955C189.703 37.5142 189.62 37.7015 189.454 37.8572C189.292 38.013 189.096 38.0909 188.868 38.0909ZM193.841 47.179C193.357 47.179 192.917 47.0878 192.523 46.9055C192.129 46.7199 191.815 46.4531 191.583 46.1051C191.351 45.7538 191.235 45.3295 191.235 44.8324C191.235 44.3949 191.322 44.0402 191.494 43.7685C191.666 43.4934 191.897 43.2779 192.185 43.1222C192.473 42.9664 192.792 42.8504 193.14 42.7741C193.491 42.6946 193.844 42.6316 194.199 42.5852C194.663 42.5256 195.039 42.4808 195.327 42.451C195.619 42.4179 195.831 42.3632 195.963 42.2869C196.099 42.2107 196.167 42.0781 196.167 41.8892V41.8494C196.167 41.3589 196.033 40.9777 195.765 40.706C195.499 40.4342 195.097 40.2983 194.556 40.2983C193.996 40.2983 193.557 40.4209 193.239 40.6662C192.921 40.9115 192.697 41.1733 192.568 41.4517L191.454 41.054C191.653 40.59 191.918 40.2287 192.25 39.9702C192.584 39.7083 192.949 39.526 193.343 39.4233C193.741 39.3172 194.132 39.2642 194.517 39.2642C194.762 39.2642 195.044 39.294 195.362 39.3537C195.683 39.41 195.993 39.5277 196.292 39.7067C196.593 39.8857 196.843 40.1558 197.042 40.517C197.241 40.8783 197.341 41.3622 197.341 41.9688V47H196.167V45.9659H196.108C196.028 46.1316 195.895 46.3089 195.71 46.4979C195.524 46.6868 195.277 46.8475 194.969 46.9801C194.661 47.1127 194.285 47.179 193.841 47.179ZM194.02 46.125C194.484 46.125 194.875 46.0339 195.193 45.8516C195.514 45.6693 195.756 45.4339 195.919 45.1456C196.084 44.8572 196.167 44.554 196.167 44.2358V43.1619C196.118 43.2216 196.008 43.2763 195.839 43.326C195.673 43.3724 195.481 43.4138 195.262 43.4503C195.047 43.4834 194.837 43.5133 194.631 43.5398C194.429 43.563 194.265 43.5829 194.139 43.5994C193.834 43.6392 193.549 43.7038 193.284 43.7933C193.022 43.8795 192.81 44.0104 192.647 44.1861C192.488 44.3584 192.409 44.5937 192.409 44.892C192.409 45.2997 192.56 45.608 192.861 45.8168C193.166 46.0223 193.552 46.125 194.02 46.125ZM200.655 36.8182V47H199.482V36.8182H200.655ZM208.75 47L205.966 36.8182H207.219L209.347 45.1108H209.446L211.614 36.8182H213.006L215.174 45.1108H215.273L217.401 36.8182H218.654L215.87 47H214.597L212.35 38.8864H212.27L210.023 47H208.75ZM221.567 47.179C221.083 47.179 220.644 47.0878 220.25 46.9055C219.855 46.7199 219.542 46.4531 219.31 46.1051C219.078 45.7538 218.962 45.3295 218.962 44.8324C218.962 44.3949 219.048 44.0402 219.221 43.7685C219.393 43.4934 219.623 43.2779 219.912 43.1222C220.2 42.9664 220.518 42.8504 220.866 42.7741C221.217 42.6946 221.57 42.6316 221.925 42.5852C222.389 42.5256 222.765 42.4808 223.054 42.451C223.345 42.4179 223.557 42.3632 223.69 42.2869C223.826 42.2107 223.894 42.0781 223.894 41.8892V41.8494C223.894 41.3589 223.76 40.9777 223.491 40.706C223.226 40.4342 222.823 40.2983 222.283 40.2983C221.723 40.2983 221.284 40.4209 220.966 40.6662C220.647 40.9115 220.424 41.1733 220.294 41.4517L219.181 41.054C219.38 40.59 219.645 40.2287 219.976 39.9702C220.311 39.7083 220.676 39.526 221.07 39.4233C221.468 39.3172 221.859 39.2642 222.243 39.2642C222.489 39.2642 222.77 39.294 223.088 39.3537C223.41 39.41 223.72 39.5277 224.018 39.7067C224.32 39.8857 224.57 40.1558 224.769 40.517C224.968 40.8783 225.067 41.3622 225.067 41.9688V47H223.894V45.9659H223.834C223.755 46.1316 223.622 46.3089 223.436 46.4979C223.251 46.6868 223.004 46.8475 222.696 46.9801C222.387 47.1127 222.011 47.179 221.567 47.179ZM221.746 46.125C222.21 46.125 222.601 46.0339 222.919 45.8516C223.241 45.6693 223.483 45.4339 223.645 45.1456C223.811 44.8572 223.894 44.554 223.894 44.2358V43.1619C223.844 43.2216 223.735 43.2763 223.566 43.326C223.4 43.3724 223.208 43.4138 222.989 43.4503C222.774 43.4834 222.563 43.5133 222.358 43.5398C222.155 43.563 221.991 43.5829 221.865 43.5994C221.56 43.6392 221.275 43.7038 221.01 43.7933C220.748 43.8795 220.536 44.0104 220.374 44.1861C220.215 44.3584 220.135 44.5937 220.135 44.892C220.135 45.2997 220.286 45.608 220.588 45.8168C220.893 46.0223 221.279 46.125 221.746 46.125ZM228.382 36.8182V47H227.209V36.8182H228.382ZM231.704 36.8182V47H230.531V36.8182H231.704ZM237.055 47.1591C236.319 47.1591 235.684 46.9967 235.151 46.6719C234.62 46.3438 234.211 45.8864 233.923 45.2997C233.638 44.7098 233.495 44.0237 233.495 43.2415C233.495 42.4593 233.638 41.7699 233.923 41.1733C234.211 40.5734 234.612 40.1061 235.126 39.7713C235.643 39.4332 236.246 39.2642 236.936 39.2642C237.333 39.2642 237.726 39.3305 238.114 39.4631C238.502 39.5956 238.855 39.8111 239.173 40.1094C239.491 40.4044 239.744 40.7955 239.933 41.2827C240.122 41.7699 240.217 42.3698 240.217 43.0824V43.5795H234.33V42.5653H239.024C239.024 42.1345 238.937 41.75 238.765 41.4119C238.596 41.0739 238.354 40.8071 238.039 40.6115C237.728 40.416 237.36 40.3182 236.936 40.3182C236.468 40.3182 236.064 40.4342 235.722 40.6662C235.384 40.8949 235.124 41.1932 234.942 41.5611C234.76 41.929 234.669 42.3234 234.669 42.7443V43.4205C234.669 43.9972 234.768 44.486 234.967 44.8871C235.169 45.2848 235.449 45.5881 235.807 45.7969C236.165 46.0024 236.581 46.1051 237.055 46.1051C237.363 46.1051 237.642 46.062 237.89 45.9759C238.142 45.8864 238.359 45.7538 238.541 45.5781C238.724 45.3991 238.865 45.1771 238.964 44.9119L240.097 45.2301C239.978 45.6146 239.778 45.9527 239.496 46.2443C239.214 46.5327 238.866 46.758 238.452 46.9205C238.038 47.0795 237.572 47.1591 237.055 47.1591ZM245.323 39.3636V40.358H241.365V39.3636H245.323ZM242.519 37.5341H243.692V44.8125C243.692 45.1439 243.74 45.3925 243.836 45.5582C243.936 45.7206 244.061 45.83 244.214 45.8864C244.37 45.9394 244.534 45.9659 244.706 45.9659C244.835 45.9659 244.941 45.9593 245.024 45.946C245.107 45.9295 245.173 45.9162 245.223 45.9062L245.462 46.9602C245.382 46.9901 245.271 47.0199 245.129 47.0497C244.986 47.0829 244.806 47.0994 244.587 47.0994C244.255 47.0994 243.931 47.0282 243.612 46.8857C243.298 46.7431 243.036 46.526 242.827 46.2344C242.621 45.9427 242.519 45.5748 242.519 45.1307V37.5341Z" fill="#475467"/>
</svg>
