<svg width="250" height="15" viewBox="0 0 250 15" fill="none" xmlns="http://www.w3.org/2000/svg">
<path d="M3.375 11H0.232955V0.818182H3.5142C4.50189 0.818182 5.34706 1.02202 6.04972 1.42969C6.75237 1.83404 7.29096 2.41572 7.66548 3.17472C8.04001 3.9304 8.22727 4.83523 8.22727 5.8892C8.22727 6.94981 8.03835 7.86293 7.66051 8.62855C7.28267 9.39086 6.73248 9.97751 6.00994 10.3885C5.28741 10.7962 4.40909 11 3.375 11ZM1.46591 9.90625H3.29545C4.13731 9.90625 4.83499 9.74384 5.38849 9.41903C5.942 9.09422 6.35464 8.63187 6.62642 8.03196C6.8982 7.43205 7.03409 6.7178 7.03409 5.8892C7.03409 5.06723 6.89986 4.35961 6.63139 3.76633C6.36293 3.16974 5.96188 2.71236 5.42827 2.39418C4.89465 2.07268 4.23011 1.91193 3.43466 1.91193H1.46591V9.90625ZM13.2386 11.1591C12.5492 11.1591 11.9444 10.995 11.424 10.6669C10.907 10.3388 10.5026 9.87973 10.2109 9.28977C9.92259 8.69981 9.77841 8.01042 9.77841 7.22159C9.77841 6.42614 9.92259 5.73177 10.2109 5.13849C10.5026 4.54522 10.907 4.08452 11.424 3.75639C11.9444 3.42827 12.5492 3.2642 13.2386 3.2642C13.928 3.2642 14.5313 3.42827 15.0483 3.75639C15.5687 4.08452 15.973 4.54522 16.2614 5.13849C16.553 5.73177 16.6989 6.42614 16.6989 7.22159C16.6989 8.01042 16.553 8.69981 16.2614 9.28977C15.973 9.87973 15.5687 10.3388 15.0483 10.6669C14.5313 10.995 13.928 11.1591 13.2386 11.1591ZM13.2386 10.1051C13.7623 10.1051 14.1932 9.97088 14.5312 9.70241C14.8693 9.43395 15.1196 9.08097 15.282 8.64347C15.4444 8.20597 15.5256 7.73201 15.5256 7.22159C15.5256 6.71117 15.4444 6.23556 15.282 5.79474C15.1196 5.35393 14.8693 4.99763 14.5312 4.72585C14.1932 4.45407 13.7623 4.31818 13.2386 4.31818C12.715 4.31818 12.2841 4.45407 11.946 4.72585C11.608 4.99763 11.3577 5.35393 11.1953 5.79474C11.0329 6.23556 10.9517 6.71117 10.9517 7.22159C10.9517 7.73201 11.0329 8.20597 11.1953 8.64347C11.3577 9.08097 11.608 9.43395 11.946 9.70241C12.2841 9.97088 12.715 10.1051 13.2386 10.1051ZM19.6632 6.40625V11H18.4899V3.36364H19.6234V4.55682H19.7228C19.9018 4.16903 20.1736 3.85748 20.5382 3.62216C20.9028 3.38352 21.3734 3.2642 21.9501 3.2642C22.4672 3.2642 22.9196 3.37027 23.3074 3.58239C23.6951 3.79119 23.9967 4.10938 24.2122 4.53693C24.4276 4.96117 24.5353 5.49811 24.5353 6.14773V11H23.362V6.22727C23.362 5.62737 23.2063 5.16004 22.8947 4.82528C22.5832 4.48722 22.1556 4.31818 21.612 4.31818C21.2375 4.31818 20.9028 4.39938 20.6078 4.56179C20.3161 4.72419 20.0858 4.96117 19.9167 5.27273C19.7477 5.58428 19.6632 5.96212 19.6632 6.40625ZM27.7134 0.818182V1.71307C27.7134 1.98485 27.6637 2.27486 27.5643 2.5831C27.4682 2.88802 27.3256 3.18466 27.1367 3.47301C26.9511 3.75805 26.7257 4.00663 26.4606 4.21875L25.8242 3.7017C26.033 3.40341 26.2137 3.09351 26.3661 2.77202C26.5219 2.44721 26.5998 2.10085 26.5998 1.73295V0.818182H27.7134ZM32.7894 3.36364V4.35795H28.832V3.36364H32.7894ZM29.9854 1.53409H31.1587V8.8125C31.1587 9.14394 31.2068 9.39252 31.3029 9.55824C31.4023 9.72064 31.5283 9.83002 31.6808 9.88636C31.8365 9.93939 32.0006 9.96591 32.1729 9.96591C32.3022 9.96591 32.4083 9.95928 32.4911 9.94602C32.574 9.92945 32.6403 9.91619 32.69 9.90625L32.9286 10.9602C32.8491 10.9901 32.738 11.0199 32.5955 11.0497C32.453 11.0829 32.2724 11.0994 32.0536 11.0994C31.7222 11.0994 31.3974 11.0282 31.0792 10.8857C30.7643 10.7431 30.5025 10.526 30.2937 10.2344C30.0882 9.94271 29.9854 9.57481 29.9854 9.13068V1.53409ZM43.9009 5.07386L42.8469 5.37216C42.7807 5.1965 42.6829 5.0258 42.5536 4.86009C42.4277 4.69105 42.2553 4.55185 42.0366 4.44247C41.8178 4.3331 41.5378 4.27841 41.1964 4.27841C40.729 4.27841 40.3396 4.38613 40.0281 4.60156C39.7198 4.81368 39.5657 5.08381 39.5657 5.41193C39.5657 5.7036 39.6718 5.93395 39.8839 6.10298C40.096 6.27202 40.4274 6.41288 40.8782 6.52557L42.0117 6.80398C42.6945 6.9697 43.2032 7.22325 43.538 7.56463C43.8728 7.9027 44.0401 8.33854 44.0401 8.87216C44.0401 9.30966 43.9142 9.70076 43.6623 10.0455C43.4137 10.3902 43.0657 10.6619 42.6183 10.8608C42.1708 11.0597 41.6504 11.1591 41.0572 11.1591C40.2783 11.1591 39.6336 10.9901 39.1232 10.652C38.6128 10.3139 38.2897 9.82008 38.1538 9.17045L39.2674 8.89205C39.3735 9.30303 39.574 9.61127 39.869 9.81676C40.1673 10.0223 40.5567 10.125 41.0373 10.125C41.5842 10.125 42.0183 10.009 42.3398 9.77699C42.6647 9.54167 42.8271 9.25994 42.8271 8.93182C42.8271 8.66667 42.7343 8.4446 42.5487 8.26562C42.363 8.08333 42.078 7.94744 41.6935 7.85795L40.4208 7.55966C39.7215 7.39394 39.2077 7.13707 38.8796 6.78906C38.5548 6.43774 38.3924 5.99858 38.3924 5.47159C38.3924 5.04072 38.5134 4.65956 38.7553 4.32812C39.0006 3.99669 39.3337 3.73651 39.7546 3.54758C40.1789 3.35866 40.6594 3.2642 41.1964 3.2642C41.9521 3.2642 42.5453 3.42992 42.9762 3.76136C43.4104 4.0928 43.7186 4.5303 43.9009 5.07386ZM49.008 11.1591C48.2722 11.1591 47.6375 10.9967 47.1039 10.6719C46.5736 10.3438 46.1642 9.88636 45.8759 9.29972C45.5908 8.70975 45.4483 8.02367 45.4483 7.24148C45.4483 6.45928 45.5908 5.76989 45.8759 5.1733C46.1642 4.57339 46.5653 4.10606 47.079 3.77131C47.5961 3.43324 48.1993 3.2642 48.8887 3.2642C49.2864 3.2642 49.6792 3.33049 50.0669 3.46307C50.4547 3.59564 50.8077 3.81108 51.1259 4.10938C51.4441 4.40436 51.6976 4.79545 51.8865 5.28267C52.0755 5.76989 52.1699 6.36979 52.1699 7.08239V7.57955H46.2836V6.56534H50.9767C50.9767 6.13447 50.8906 5.75 50.7182 5.41193C50.5492 5.07386 50.3072 4.80705 49.9924 4.61151C49.6808 4.41596 49.3129 4.31818 48.8887 4.31818C48.4213 4.31818 48.017 4.43419 47.6756 4.66619C47.3375 4.89489 47.0774 5.19318 46.8951 5.56108C46.7128 5.92898 46.6216 6.32339 46.6216 6.74432V7.42045C46.6216 7.99716 46.7211 8.48603 46.9199 8.88707C47.1221 9.2848 47.4022 9.58807 47.7601 9.79688C48.1181 10.0024 48.534 10.1051 49.008 10.1051C49.3162 10.1051 49.5946 10.062 49.8432 9.97585C50.0951 9.88636 50.3122 9.75379 50.4945 9.57812C50.6768 9.39915 50.8176 9.17708 50.9171 8.91193L52.0506 9.23011C51.9313 9.61458 51.7308 9.95265 51.449 10.2443C51.1673 10.5327 50.8193 10.758 50.405 10.9205C49.9907 11.0795 49.525 11.1591 49.008 11.1591ZM57.1564 11.1591C56.4206 11.1591 55.7859 10.9967 55.2523 10.6719C54.722 10.3438 54.3127 9.88636 54.0243 9.29972C53.7393 8.70975 53.5968 8.02367 53.5968 7.24148C53.5968 6.45928 53.7393 5.76989 54.0243 5.1733C54.3127 4.57339 54.7137 4.10606 55.2275 3.77131C55.7445 3.43324 56.3477 3.2642 57.0371 3.2642C57.4348 3.2642 57.8276 3.33049 58.2154 3.46307C58.6032 3.59564 58.9561 3.81108 59.2743 4.10938C59.5925 4.40436 59.8461 4.79545 60.035 5.28267C60.2239 5.76989 60.3184 6.36979 60.3184 7.08239V7.57955H54.432V6.56534H59.1252C59.1252 6.13447 59.039 5.75 58.8667 5.41193C58.6976 5.07386 58.4557 4.80705 58.1408 4.61151C57.8292 4.41596 57.4614 4.31818 57.0371 4.31818C56.5698 4.31818 56.1654 4.43419 55.824 4.66619C55.486 4.89489 55.2258 5.19318 55.0435 5.56108C54.8612 5.92898 54.7701 6.32339 54.7701 6.74432V7.42045C54.7701 7.99716 54.8695 8.48603 55.0684 8.88707C55.2705 9.2848 55.5506 9.58807 55.9086 9.79688C56.2665 10.0024 56.6825 10.1051 57.1564 10.1051C57.4647 10.1051 57.7431 10.062 57.9917 9.97585C58.2435 9.88636 58.4606 9.75379 58.6429 9.57812C58.8252 9.39915 58.9661 9.17708 59.0655 8.91193L60.199 9.23011C60.0797 9.61458 59.8792 9.95265 59.5975 10.2443C59.3158 10.5327 58.9677 10.758 58.5534 10.9205C58.1391 11.0795 57.6735 11.1591 57.1564 11.1591ZM66.7963 13.8636C66.5975 13.8636 66.4202 13.8471 66.2644 13.8139C66.1086 13.7841 66.0009 13.7543 65.9412 13.7244L66.2395 12.6903C66.5246 12.7633 66.7765 12.7898 66.9952 12.7699C67.214 12.75 67.4078 12.6522 67.5769 12.4766C67.7492 12.3042 67.9067 12.0241 68.0492 11.6364L68.2679 11.0398L65.4441 3.36364H66.7168L68.8248 9.44886H68.9043L71.0123 3.36364H72.285L69.0435 12.1136C68.8977 12.508 68.717 12.8345 68.5016 13.093C68.2862 13.3549 68.0359 13.5488 67.7509 13.6747C67.4692 13.8007 67.151 13.8636 66.7963 13.8636ZM76.6625 11.1591C75.9731 11.1591 75.3682 10.995 74.8478 10.6669C74.3308 10.3388 73.9264 9.87973 73.6348 9.28977C73.3464 8.69981 73.2022 8.01042 73.2022 7.22159C73.2022 6.42614 73.3464 5.73177 73.6348 5.13849C73.9264 4.54522 74.3308 4.08452 74.8478 3.75639C75.3682 3.42827 75.9731 3.2642 76.6625 3.2642C77.3519 3.2642 77.9551 3.42827 78.4721 3.75639C78.9925 4.08452 79.3968 4.54522 79.6852 5.13849C79.9769 5.73177 80.1227 6.42614 80.1227 7.22159C80.1227 8.01042 79.9769 8.69981 79.6852 9.28977C79.3968 9.87973 78.9925 10.3388 78.4721 10.6669C77.9551 10.995 77.3519 11.1591 76.6625 11.1591ZM76.6625 10.1051C77.1861 10.1051 77.617 9.97088 77.9551 9.70241C78.2931 9.43395 78.5434 9.08097 78.7058 8.64347C78.8682 8.20597 78.9494 7.73201 78.9494 7.22159C78.9494 6.71117 78.8682 6.23556 78.7058 5.79474C78.5434 5.35393 78.2931 4.99763 77.9551 4.72585C77.617 4.45407 77.1861 4.31818 76.6625 4.31818C76.1388 4.31818 75.7079 4.45407 75.3699 4.72585C75.0318 4.99763 74.7815 5.35393 74.6191 5.79474C74.4567 6.23556 74.3755 6.71117 74.3755 7.22159C74.3755 7.73201 74.4567 8.20597 74.6191 8.64347C74.7815 9.08097 75.0318 9.43395 75.3699 9.70241C75.7079 9.97088 76.1388 10.1051 76.6625 10.1051ZM86.7262 7.87784V3.36364H87.8995V11H86.7262V9.70739H86.6467C86.4677 10.0952 86.1893 10.425 85.8114 10.6967C85.4336 10.9652 84.9563 11.0994 84.3796 11.0994C83.9023 11.0994 83.4781 10.995 83.1069 10.7862C82.7357 10.5741 82.444 10.2559 82.2319 9.83168C82.0198 9.40412 81.9137 8.86553 81.9137 8.21591V3.36364H83.087V8.13636C83.087 8.69318 83.2428 9.13731 83.5543 9.46875C83.8692 9.80019 84.2702 9.96591 84.7575 9.96591C85.0491 9.96591 85.3458 9.89134 85.6474 9.74219C85.9523 9.59304 86.2075 9.36435 86.413 9.05611C86.6218 8.74787 86.7262 8.35511 86.7262 7.87784ZM90.0485 11V3.36364H91.182V4.51705H91.2615C91.4007 4.1392 91.6526 3.83262 92.0172 3.5973C92.3818 3.36198 92.7928 3.24432 93.2502 3.24432C93.3364 3.24432 93.4441 3.24597 93.5733 3.24929C93.7026 3.2526 93.8004 3.25758 93.8667 3.2642V4.45739C93.8269 4.44744 93.7357 4.43253 93.5932 4.41264C93.454 4.38944 93.3065 4.37784 93.1507 4.37784C92.7795 4.37784 92.4481 4.45573 92.1564 4.61151C91.8681 4.76397 91.6394 4.97609 91.4703 5.24787C91.3046 5.51634 91.2218 5.82292 91.2218 6.16761V11H90.0485ZM100.925 11L98.5984 3.36364H99.8313L101.482 9.21023H101.561L103.192 3.36364H104.445L106.056 9.19034H106.135L107.786 3.36364H109.019L106.692 11H105.539L103.868 5.13352H103.749L102.078 11H100.925ZM112.817 11.179C112.333 11.179 111.894 11.0878 111.5 10.9055C111.105 10.7199 110.792 10.4531 110.56 10.1051C110.328 9.75379 110.212 9.32955 110.212 8.83239C110.212 8.39489 110.298 8.04025 110.471 7.76847C110.643 7.49337 110.873 7.27794 111.162 7.12216C111.45 6.96638 111.768 6.85038 112.116 6.77415C112.467 6.6946 112.82 6.63163 113.175 6.58523C113.639 6.52557 114.015 6.48082 114.304 6.45099C114.595 6.41785 114.807 6.36316 114.94 6.28693C115.076 6.2107 115.144 6.07812 115.144 5.8892V5.84943C115.144 5.3589 115.01 4.97775 114.741 4.70597C114.476 4.43419 114.073 4.2983 113.533 4.2983C112.973 4.2983 112.534 4.42093 112.216 4.66619C111.897 4.91146 111.674 5.1733 111.544 5.4517L110.431 5.05398C110.63 4.58996 110.895 4.22869 111.226 3.97017C111.561 3.70833 111.926 3.52604 112.32 3.4233C112.718 3.31723 113.109 3.2642 113.493 3.2642C113.739 3.2642 114.02 3.29403 114.338 3.35369C114.66 3.41004 114.97 3.5277 115.268 3.70668C115.57 3.88565 115.82 4.15578 116.019 4.51705C116.218 4.87831 116.317 5.36222 116.317 5.96875V11H115.144V9.96591H115.084C115.005 10.1316 114.872 10.3089 114.686 10.4979C114.501 10.6868 114.254 10.8475 113.946 10.9801C113.637 11.1127 113.261 11.179 112.817 11.179ZM112.996 10.125C113.46 10.125 113.851 10.0339 114.169 9.85156C114.491 9.66927 114.733 9.43395 114.895 9.1456C115.061 8.85724 115.144 8.55398 115.144 8.2358V7.16193C115.094 7.22159 114.985 7.27628 114.816 7.32599C114.65 7.3724 114.458 7.41383 114.239 7.45028C114.024 7.48343 113.813 7.51326 113.608 7.53977C113.405 7.56297 113.241 7.58286 113.115 7.59943C112.81 7.6392 112.525 7.70384 112.26 7.79332C111.998 7.8795 111.786 8.01042 111.624 8.18608C111.465 8.35843 111.385 8.59375 111.385 8.89205C111.385 9.29972 111.536 9.60795 111.838 9.81676C112.143 10.0223 112.529 10.125 112.996 10.125ZM119.632 0.818182V11H118.459V0.818182H119.632ZM122.954 0.818182V11H121.781V0.818182H122.954ZM128.305 11.1591C127.569 11.1591 126.934 10.9967 126.401 10.6719C125.87 10.3438 125.461 9.88636 125.173 9.29972C124.888 8.70975 124.745 8.02367 124.745 7.24148C124.745 6.45928 124.888 5.76989 125.173 5.1733C125.461 4.57339 125.862 4.10606 126.376 3.77131C126.893 3.43324 127.496 3.2642 128.186 3.2642C128.583 3.2642 128.976 3.33049 129.364 3.46307C129.752 3.59564 130.105 3.81108 130.423 4.10938C130.741 4.40436 130.994 4.79545 131.183 5.28267C131.372 5.76989 131.467 6.36979 131.467 7.08239V7.57955H125.58V6.56534H130.274C130.274 6.13447 130.187 5.75 130.015 5.41193C129.846 5.07386 129.604 4.80705 129.289 4.61151C128.978 4.41596 128.61 4.31818 128.186 4.31818C127.718 4.31818 127.314 4.43419 126.972 4.66619C126.634 4.89489 126.374 5.19318 126.192 5.56108C126.01 5.92898 125.919 6.32339 125.919 6.74432V7.42045C125.919 7.99716 126.018 8.48603 126.217 8.88707C126.419 9.2848 126.699 9.58807 127.057 9.79688C127.415 10.0024 127.831 10.1051 128.305 10.1051C128.613 10.1051 128.892 10.062 129.14 9.97585C129.392 9.88636 129.609 9.75379 129.791 9.57812C129.974 9.39915 130.115 9.17708 130.214 8.91193L131.347 9.23011C131.228 9.61458 131.028 9.95265 130.746 10.2443C130.464 10.5327 130.116 10.758 129.702 10.9205C129.288 11.0795 128.822 11.1591 128.305 11.1591ZM136.573 3.36364V4.35795H132.615V3.36364H136.573ZM133.769 1.53409H134.942V8.8125C134.942 9.14394 134.99 9.39252 135.086 9.55824C135.186 9.72064 135.311 9.83002 135.464 9.88636C135.62 9.93939 135.784 9.96591 135.956 9.96591C136.085 9.96591 136.191 9.95928 136.274 9.94602C136.357 9.92945 136.423 9.91619 136.473 9.90625L136.712 10.9602C136.632 10.9901 136.521 11.0199 136.379 11.0497C136.236 11.0829 136.056 11.0994 135.837 11.0994C135.505 11.0994 135.181 11.0282 134.862 10.8857C134.548 10.7431 134.286 10.526 134.077 10.2344C133.871 9.94271 133.769 9.57481 133.769 9.13068V1.53409ZM139.869 8.13636V8.0767C139.875 7.44366 139.942 6.93987 140.068 6.56534C140.194 6.19081 140.373 5.88755 140.605 5.65554C140.837 5.42353 141.115 5.20975 141.44 5.0142C141.635 4.89489 141.811 4.75402 141.967 4.59162C142.123 4.4259 142.245 4.23532 142.335 4.01989C142.427 3.80445 142.474 3.56581 142.474 3.30398C142.474 2.97917 142.398 2.69744 142.245 2.45881C142.093 2.22017 141.889 2.03622 141.634 1.90696C141.378 1.7777 141.095 1.71307 140.784 1.71307C140.512 1.71307 140.25 1.76941 139.998 1.8821C139.746 1.99479 139.536 2.17211 139.367 2.41406C139.198 2.65601 139.1 2.97254 139.073 3.36364H137.82C137.847 2.80019 137.993 2.31794 138.258 1.9169C138.526 1.51586 138.879 1.20928 139.317 0.997158C139.758 0.785037 140.247 0.678977 140.784 0.678977C141.367 0.678977 141.874 0.794981 142.305 1.02699C142.739 1.259 143.074 1.57718 143.309 1.98153C143.548 2.38589 143.667 2.84659 143.667 3.36364C143.667 3.72822 143.611 4.058 143.498 4.35298C143.389 4.64796 143.23 4.91146 143.021 5.14347C142.815 5.37547 142.567 5.58097 142.275 5.75994C141.983 5.94223 141.75 6.13447 141.574 6.33665C141.398 6.53551 141.271 6.77249 141.191 7.04759C141.112 7.32268 141.069 7.66572 141.062 8.0767V8.13636H139.869ZM140.505 11.0795C140.26 11.0795 140.049 10.9917 139.874 10.8161C139.698 10.6404 139.61 10.4299 139.61 10.1847C139.61 9.93939 139.698 9.72893 139.874 9.55327C140.049 9.3776 140.26 9.28977 140.505 9.28977C140.75 9.28977 140.961 9.3776 141.137 9.55327C141.312 9.72893 141.4 9.93939 141.4 10.1847C141.4 10.3471 141.359 10.4962 141.276 10.6321C141.196 10.768 141.088 10.8774 140.953 10.9602C140.82 11.0398 140.671 11.0795 140.505 11.0795ZM157.723 4H156.49C156.417 3.64536 156.29 3.33381 156.107 3.06534C155.928 2.79688 155.71 2.5715 155.451 2.3892C155.196 2.2036 154.912 2.06439 154.601 1.97159C154.289 1.87879 153.964 1.83239 153.626 1.83239C153.01 1.83239 152.451 1.98816 151.951 2.29972C151.454 2.61127 151.058 3.07031 150.763 3.67685C150.471 4.28338 150.325 5.02746 150.325 5.90909C150.325 6.79072 150.471 7.5348 150.763 8.14134C151.058 8.74787 151.454 9.20691 151.951 9.51847C152.451 9.83002 153.01 9.9858 153.626 9.9858C153.964 9.9858 154.289 9.93939 154.601 9.84659C154.912 9.75379 155.196 9.61624 155.451 9.43395C155.71 9.24834 155.928 9.02131 156.107 8.75284C156.29 8.48106 156.417 8.16951 156.49 7.81818H157.723C157.63 8.33854 157.461 8.80421 157.216 9.2152C156.971 9.62618 156.666 9.97585 156.301 10.2642C155.937 10.5492 155.527 10.7663 155.073 10.9155C154.622 11.0646 154.14 11.1392 153.626 11.1392C152.758 11.1392 151.986 10.9271 151.31 10.5028C150.634 10.0786 150.102 9.47538 149.714 8.69318C149.326 7.91098 149.132 6.98295 149.132 5.90909C149.132 4.83523 149.326 3.9072 149.714 3.125C150.102 2.3428 150.634 1.73958 151.31 1.31534C151.986 0.891098 152.758 0.678977 153.626 0.678977C154.14 0.678977 154.622 0.753551 155.073 0.902699C155.527 1.05185 155.937 1.2706 156.301 1.55895C156.666 1.84399 156.971 2.192 157.216 2.60298C157.461 3.01065 157.63 3.47633 157.723 4ZM160.73 0.818182V11H159.556V0.818182H160.73ZM162.879 11V3.36364H164.052V11H162.879ZM163.475 2.09091C163.246 2.09091 163.049 2.01302 162.884 1.85724C162.721 1.70147 162.64 1.5142 162.64 1.29545C162.64 1.0767 162.721 0.889441 162.884 0.733664C163.049 0.577888 163.246 0.5 163.475 0.5C163.704 0.5 163.899 0.577888 164.062 0.733664C164.228 0.889441 164.31 1.0767 164.31 1.29545C164.31 1.5142 164.228 1.70147 164.062 1.85724C163.899 2.01302 163.704 2.09091 163.475 2.09091ZM169.303 11.1591C168.587 11.1591 167.971 10.9901 167.454 10.652C166.937 10.3139 166.539 9.84825 166.26 9.25497C165.982 8.66169 165.843 7.9839 165.843 7.22159C165.843 6.44602 165.985 5.7616 166.27 5.16832C166.559 4.57173 166.96 4.10606 167.474 3.77131C167.991 3.43324 168.594 3.2642 169.283 3.2642C169.82 3.2642 170.304 3.36364 170.735 3.5625C171.166 3.76136 171.519 4.03977 171.794 4.39773C172.069 4.75568 172.24 5.1733 172.306 5.65057H171.133C171.043 5.30256 170.844 4.99432 170.536 4.72585C170.231 4.45407 169.82 4.31818 169.303 4.31818C168.846 4.31818 168.445 4.4375 168.1 4.67614C167.759 4.91146 167.492 5.24455 167.3 5.67543C167.111 6.10298 167.016 6.60511 167.016 7.18182C167.016 7.77178 167.109 8.28551 167.295 8.72301C167.483 9.16051 167.749 9.50024 168.09 9.74219C168.435 9.98414 168.839 10.1051 169.303 10.1051C169.608 10.1051 169.885 10.0521 170.133 9.94602C170.382 9.83996 170.592 9.6875 170.765 9.48864C170.937 9.28977 171.06 9.05114 171.133 8.77273H172.306C172.24 9.22348 172.076 9.6295 171.814 9.99077C171.555 10.3487 171.212 10.6338 170.785 10.8459C170.36 11.0547 169.867 11.1591 169.303 11.1591ZM175.115 8.21591L175.095 6.7642H175.334L178.675 3.36364H180.126L176.567 6.96307H176.467L175.115 8.21591ZM174.021 11V0.818182H175.194V11H174.021ZM178.873 11L175.89 7.22159L176.726 6.40625L180.365 11H178.873ZM188.895 3.36364V4.35795H184.938V3.36364H188.895ZM186.091 1.53409H187.264V8.8125C187.264 9.14394 187.312 9.39252 187.408 9.55824C187.508 9.72064 187.634 9.83002 187.786 9.88636C187.942 9.93939 188.106 9.96591 188.278 9.96591C188.408 9.96591 188.514 9.95928 188.597 9.94602C188.679 9.92945 188.746 9.91619 188.795 9.90625L189.034 10.9602C188.955 10.9901 188.844 11.0199 188.701 11.0497C188.558 11.0829 188.378 11.0994 188.159 11.0994C187.828 11.0994 187.503 11.0282 187.185 10.8857C186.87 10.7431 186.608 10.526 186.399 10.2344C186.194 9.94271 186.091 9.57481 186.091 9.13068V1.53409ZM193.68 11.1591C192.991 11.1591 192.386 10.995 191.865 10.6669C191.348 10.3388 190.944 9.87973 190.652 9.28977C190.364 8.69981 190.22 8.01042 190.22 7.22159C190.22 6.42614 190.364 5.73177 190.652 5.13849C190.944 4.54522 191.348 4.08452 191.865 3.75639C192.386 3.42827 192.991 3.2642 193.68 3.2642C194.369 3.2642 194.973 3.42827 195.49 3.75639C196.01 4.08452 196.414 4.54522 196.703 5.13849C196.994 5.73177 197.14 6.42614 197.14 7.22159C197.14 8.01042 196.994 8.69981 196.703 9.28977C196.414 9.87973 196.01 10.3388 195.49 10.6669C194.973 10.995 194.369 11.1591 193.68 11.1591ZM193.68 10.1051C194.204 10.1051 194.635 9.97088 194.973 9.70241C195.311 9.43395 195.561 9.08097 195.723 8.64347C195.886 8.20597 195.967 7.73201 195.967 7.22159C195.967 6.71117 195.886 6.23556 195.723 5.79474C195.561 5.35393 195.311 4.99763 194.973 4.72585C194.635 4.45407 194.204 4.31818 193.68 4.31818C193.156 4.31818 192.725 4.45407 192.387 4.72585C192.049 4.99763 191.799 5.35393 191.637 5.79474C191.474 6.23556 191.393 6.71117 191.393 7.22159C191.393 7.73201 191.474 8.20597 191.637 8.64347C191.799 9.08097 192.049 9.43395 192.387 9.70241C192.725 9.97088 193.156 10.1051 193.68 10.1051ZM208.278 5.07386L207.224 5.37216C207.158 5.1965 207.06 5.0258 206.931 4.86009C206.805 4.69105 206.632 4.55185 206.414 4.44247C206.195 4.3331 205.915 4.27841 205.573 4.27841C205.106 4.27841 204.717 4.38613 204.405 4.60156C204.097 4.81368 203.943 5.08381 203.943 5.41193C203.943 5.7036 204.049 5.93395 204.261 6.10298C204.473 6.27202 204.804 6.41288 205.255 6.52557L206.389 6.80398C207.071 6.9697 207.58 7.22325 207.915 7.56463C208.25 7.9027 208.417 8.33854 208.417 8.87216C208.417 9.30966 208.291 9.70076 208.039 10.0455C207.791 10.3902 207.443 10.6619 206.995 10.8608C206.548 11.0597 206.027 11.1591 205.434 11.1591C204.655 11.1591 204.011 10.9901 203.5 10.652C202.99 10.3139 202.667 9.82008 202.531 9.17045L203.644 8.89205C203.75 9.30303 203.951 9.61127 204.246 9.81676C204.544 10.0223 204.934 10.125 205.414 10.125C205.961 10.125 206.395 10.009 206.717 9.77699C207.042 9.54167 207.204 9.25994 207.204 8.93182C207.204 8.66667 207.111 8.4446 206.926 8.26562C206.74 8.08333 206.455 7.94744 206.07 7.85795L204.798 7.55966C204.098 7.39394 203.585 7.13707 203.257 6.78906C202.932 6.43774 202.769 5.99858 202.769 5.47159C202.769 5.04072 202.89 4.65956 203.132 4.32812C203.378 3.99669 203.711 3.73651 204.132 3.54758C204.556 3.35866 205.036 3.2642 205.573 3.2642C206.329 3.2642 206.922 3.42992 207.353 3.76136C207.787 4.0928 208.096 4.5303 208.278 5.07386ZM213.385 11.1591C212.649 11.1591 212.014 10.9967 211.481 10.6719C210.951 10.3438 210.541 9.88636 210.253 9.29972C209.968 8.70975 209.825 8.02367 209.825 7.24148C209.825 6.45928 209.968 5.76989 210.253 5.1733C210.541 4.57339 210.942 4.10606 211.456 3.77131C211.973 3.43324 212.576 3.2642 213.266 3.2642C213.663 3.2642 214.056 3.33049 214.444 3.46307C214.832 3.59564 215.185 3.81108 215.503 4.10938C215.821 4.40436 216.075 4.79545 216.263 5.28267C216.452 5.76989 216.547 6.36979 216.547 7.08239V7.57955H210.661V6.56534H215.354C215.354 6.13447 215.268 5.75 215.095 5.41193C214.926 5.07386 214.684 4.80705 214.369 4.61151C214.058 4.41596 213.69 4.31818 213.266 4.31818C212.798 4.31818 212.394 4.43419 212.053 4.66619C211.714 4.89489 211.454 5.19318 211.272 5.56108C211.09 5.92898 210.999 6.32339 210.999 6.74432V7.42045C210.999 7.99716 211.098 8.48603 211.297 8.88707C211.499 9.2848 211.779 9.58807 212.137 9.79688C212.495 10.0024 212.911 10.1051 213.385 10.1051C213.693 10.1051 213.972 10.062 214.22 9.97585C214.472 9.88636 214.689 9.75379 214.871 9.57812C215.054 9.39915 215.195 9.17708 215.294 8.91193L216.428 9.23011C216.308 9.61458 216.108 9.95265 215.826 10.2443C215.544 10.5327 215.196 10.758 214.782 10.9205C214.368 11.0795 213.902 11.1591 213.385 11.1591ZM220.579 11.179C220.095 11.179 219.656 11.0878 219.261 10.9055C218.867 10.7199 218.554 10.4531 218.322 10.1051C218.09 9.75379 217.974 9.32955 217.974 8.83239C217.974 8.39489 218.06 8.04025 218.232 7.76847C218.405 7.49337 218.635 7.27794 218.923 7.12216C219.212 6.96638 219.53 6.85038 219.878 6.77415C220.229 6.6946 220.582 6.63163 220.937 6.58523C221.401 6.52557 221.777 6.48082 222.065 6.45099C222.357 6.41785 222.569 6.36316 222.702 6.28693C222.838 6.2107 222.906 6.07812 222.906 5.8892V5.84943C222.906 5.3589 222.771 4.97775 222.503 4.70597C222.238 4.43419 221.835 4.2983 221.295 4.2983C220.735 4.2983 220.295 4.42093 219.977 4.66619C219.659 4.91146 219.435 5.1733 219.306 5.4517L218.192 5.05398C218.391 4.58996 218.656 4.22869 218.988 3.97017C219.323 3.70833 219.687 3.52604 220.082 3.4233C220.479 3.31723 220.871 3.2642 221.255 3.2642C221.5 3.2642 221.782 3.29403 222.1 3.35369C222.422 3.41004 222.732 3.5277 223.03 3.70668C223.331 3.88565 223.582 4.15578 223.781 4.51705C223.979 4.87831 224.079 5.36222 224.079 5.96875V11H222.906V9.96591H222.846C222.766 10.1316 222.634 10.3089 222.448 10.4979C222.263 10.6868 222.016 10.8475 221.707 10.9801C221.399 11.1127 221.023 11.179 220.579 11.179ZM220.758 10.125C221.222 10.125 221.613 10.0339 221.931 9.85156C222.253 9.66927 222.495 9.43395 222.657 9.1456C222.823 8.85724 222.906 8.55398 222.906 8.2358V7.16193C222.856 7.22159 222.746 7.27628 222.577 7.32599C222.412 7.3724 222.219 7.41383 222.001 7.45028C221.785 7.48343 221.575 7.51326 221.369 7.53977C221.167 7.56297 221.003 7.58286 220.877 7.59943C220.572 7.6392 220.287 7.70384 220.022 7.79332C219.76 7.8795 219.548 8.01042 219.386 8.18608C219.227 8.35843 219.147 8.59375 219.147 8.89205C219.147 9.29972 219.298 9.60795 219.599 9.81676C219.904 10.0223 220.29 10.125 220.758 10.125ZM226.22 11V3.36364H227.354V4.51705H227.433C227.573 4.1392 227.825 3.83262 228.189 3.5973C228.554 3.36198 228.965 3.24432 229.422 3.24432C229.508 3.24432 229.616 3.24597 229.745 3.24929C229.874 3.2526 229.972 3.25758 230.039 3.2642V4.45739C229.999 4.44744 229.908 4.43253 229.765 4.41264C229.626 4.38944 229.478 4.37784 229.323 4.37784C228.951 4.37784 228.62 4.45573 228.328 4.61151C228.04 4.76397 227.811 4.97609 227.642 5.24787C227.477 5.51634 227.394 5.82292 227.394 6.16761V11H226.22ZM234.299 11.1591C233.583 11.1591 232.967 10.9901 232.45 10.652C231.933 10.3139 231.535 9.84825 231.257 9.25497C230.978 8.66169 230.839 7.9839 230.839 7.22159C230.839 6.44602 230.981 5.7616 231.267 5.16832C231.555 4.57173 231.956 4.10606 232.47 3.77131C232.987 3.43324 233.59 3.2642 234.279 3.2642C234.816 3.2642 235.3 3.36364 235.731 3.5625C236.162 3.76136 236.515 4.03977 236.79 4.39773C237.065 4.75568 237.236 5.1733 237.302 5.65057H236.129C236.039 5.30256 235.84 4.99432 235.532 4.72585C235.227 4.45407 234.816 4.31818 234.299 4.31818C233.842 4.31818 233.441 4.4375 233.096 4.67614C232.755 4.91146 232.488 5.24455 232.296 5.67543C232.107 6.10298 232.012 6.60511 232.012 7.18182C232.012 7.77178 232.105 8.28551 232.291 8.72301C232.48 9.16051 232.745 9.50024 233.086 9.74219C233.431 9.98414 233.835 10.1051 234.299 10.1051C234.604 10.1051 234.881 10.0521 235.129 9.94602C235.378 9.83996 235.588 9.6875 235.761 9.48864C235.933 9.28977 236.056 9.05114 236.129 8.77273H237.302C237.236 9.22348 237.072 9.6295 236.81 9.99077C236.551 10.3487 236.208 10.6338 235.781 10.8459C235.356 11.0547 234.863 11.1591 234.299 11.1591ZM240.191 6.40625V11H239.017V0.818182H240.191V4.55682H240.29C240.469 4.16241 240.737 3.84919 241.095 3.61719C241.457 3.38187 241.937 3.2642 242.537 3.2642C243.057 3.2642 243.513 3.36861 243.904 3.57741C244.295 3.78291 244.599 4.09943 244.814 4.52699C245.033 4.95123 245.142 5.49148 245.142 6.14773V11H243.969V6.22727C243.969 5.62074 243.811 5.15175 243.497 4.82031C243.185 4.48556 242.753 4.31818 242.199 4.31818C241.815 4.31818 241.47 4.39938 241.165 4.56179C240.863 4.72419 240.625 4.96117 240.449 5.27273C240.277 5.58428 240.191 5.96212 240.191 6.40625ZM248.144 11.0795C247.899 11.0795 247.688 10.9917 247.512 10.8161C247.337 10.6404 247.249 10.4299 247.249 10.1847C247.249 9.93939 247.337 9.72893 247.512 9.55327C247.688 9.3776 247.899 9.28977 248.144 9.28977C248.389 9.28977 248.6 9.3776 248.775 9.55327C248.951 9.72893 249.039 9.93939 249.039 10.1847C249.039 10.3471 248.997 10.4962 248.914 10.6321C248.835 10.768 248.727 10.8774 248.591 10.9602C248.459 11.0398 248.31 11.0795 248.144 11.0795Z" fill="#475467"/>
<path d="M148.297 13.7841H246.216V14.7386H148.297V13.7841Z" fill="#475467"/>
</svg>
