<svg width="308" height="48" viewBox="0 0 308 48" fill="none" xmlns="http://www.w3.org/2000/svg">
<g filter="url(#filter0_d_3_28)">
<rect x="2" y="1" width="304" height="44" rx="8" fill="#567BD9"/>
<rect x="2.5" y="1.5" width="303" height="43" rx="7.5" stroke="#567BD9"/>
<path d="M133.608 21.2898H131.483C131.422 20.9413 131.311 20.6326 131.148 20.3636C130.985 20.0909 130.782 19.8598 130.54 19.6705C130.297 19.4811 130.021 19.339 129.71 19.2443C129.403 19.1458 129.072 19.0966 128.716 19.0966C128.083 19.0966 127.523 19.2557 127.034 19.5739C126.545 19.8883 126.163 20.3504 125.886 20.9602C125.61 21.5663 125.472 22.3068 125.472 23.1818C125.472 24.072 125.61 24.822 125.886 25.4318C126.167 26.0379 126.549 26.4962 127.034 26.8068C127.523 27.1136 128.081 27.267 128.71 27.267C129.059 27.267 129.384 27.2216 129.688 27.1307C129.994 27.036 130.269 26.8977 130.511 26.7159C130.758 26.5341 130.964 26.3106 131.131 26.0455C131.301 25.7803 131.419 25.4773 131.483 25.1364L133.608 25.1477C133.528 25.7008 133.356 26.2197 133.091 26.7045C132.83 27.1894 132.487 27.6174 132.062 27.9886C131.638 28.3561 131.142 28.6439 130.574 28.8523C130.006 29.0568 129.375 29.1591 128.682 29.1591C127.659 29.1591 126.746 28.9223 125.943 28.4489C125.14 27.9754 124.508 27.2917 124.045 26.3977C123.583 25.5038 123.352 24.4318 123.352 23.1818C123.352 21.928 123.585 20.8561 124.051 19.9659C124.517 19.072 125.152 18.3883 125.955 17.9148C126.758 17.4413 127.667 17.2045 128.682 17.2045C129.33 17.2045 129.932 17.2955 130.489 17.4773C131.045 17.6591 131.542 17.9261 131.977 18.2784C132.413 18.6269 132.771 19.0549 133.051 19.5625C133.335 20.0663 133.521 20.642 133.608 21.2898ZM139.254 29.1705C138.402 29.1705 137.663 28.983 137.038 28.608C136.413 28.233 135.929 27.7083 135.584 27.0341C135.243 26.3598 135.072 25.572 135.072 24.6705C135.072 23.7689 135.243 22.9792 135.584 22.3011C135.929 21.6231 136.413 21.0966 137.038 20.7216C137.663 20.3466 138.402 20.1591 139.254 20.1591C140.107 20.1591 140.845 20.3466 141.47 20.7216C142.095 21.0966 142.578 21.6231 142.919 22.3011C143.264 22.9792 143.436 23.7689 143.436 24.6705C143.436 25.572 143.264 26.3598 142.919 27.0341C142.578 27.7083 142.095 28.233 141.47 28.608C140.845 28.983 140.107 29.1705 139.254 29.1705ZM139.266 27.5227C139.728 27.5227 140.114 27.3958 140.425 27.142C140.735 26.8845 140.966 26.5398 141.118 26.108C141.273 25.6761 141.351 25.1951 141.351 24.6648C141.351 24.1307 141.273 23.6477 141.118 23.2159C140.966 22.7803 140.735 22.4337 140.425 22.1761C140.114 21.9186 139.728 21.7898 139.266 21.7898C138.792 21.7898 138.398 21.9186 138.084 22.1761C137.773 22.4337 137.54 22.7803 137.385 23.2159C137.233 23.6477 137.158 24.1307 137.158 24.6648C137.158 25.1951 137.233 25.6761 137.385 26.108C137.54 26.5398 137.773 26.8845 138.084 27.142C138.398 27.3958 138.792 27.5227 139.266 27.5227ZM147.239 23.8864V29H145.182V20.2727H147.148V21.7557H147.25C147.451 21.267 147.771 20.8788 148.21 20.5909C148.653 20.303 149.201 20.1591 149.852 20.1591C150.455 20.1591 150.979 20.2879 151.426 20.5455C151.877 20.803 152.225 21.1761 152.472 21.6648C152.722 22.1534 152.845 22.7462 152.841 23.4432V29H150.784V23.7614C150.784 23.178 150.633 22.7216 150.33 22.392C150.03 22.0625 149.616 21.8977 149.085 21.8977C148.725 21.8977 148.405 21.9773 148.125 22.1364C147.848 22.2917 147.631 22.517 147.472 22.8125C147.316 23.108 147.239 23.4659 147.239 23.8864ZM159.352 20.2727V21.8636H154.193V20.2727H159.352ZM155.483 29V19.4489C155.483 18.8617 155.604 18.3731 155.847 17.983C156.093 17.5928 156.422 17.3011 156.835 17.108C157.248 16.9148 157.706 16.8182 158.21 16.8182C158.566 16.8182 158.883 16.8466 159.159 16.9034C159.436 16.9602 159.64 17.0114 159.773 17.0568L159.364 18.6477C159.277 18.6212 159.167 18.5947 159.034 18.5682C158.902 18.5379 158.754 18.5227 158.591 18.5227C158.208 18.5227 157.938 18.6155 157.778 18.8011C157.623 18.983 157.545 19.2443 157.545 19.5852V29H155.483ZM160.963 29V20.2727H163.02V29H160.963ZM161.997 19.0341C161.671 19.0341 161.391 18.9261 161.156 18.7102C160.921 18.4905 160.804 18.2273 160.804 17.9205C160.804 17.6098 160.921 17.3466 161.156 17.1307C161.391 16.911 161.671 16.8011 161.997 16.8011C162.327 16.8011 162.607 16.911 162.838 17.1307C163.073 17.3466 163.19 17.6098 163.19 17.9205C163.19 18.2273 163.073 18.4905 162.838 18.7102C162.607 18.9261 162.327 19.0341 161.997 19.0341ZM165.135 29V20.2727H167.129V21.7273H167.22C167.379 21.2235 167.652 20.8352 168.038 20.5625C168.429 20.286 168.874 20.1477 169.374 20.1477C169.487 20.1477 169.614 20.1534 169.754 20.1648C169.898 20.1723 170.018 20.1856 170.112 20.2045V22.0966C170.025 22.0663 169.887 22.0398 169.697 22.017C169.512 21.9905 169.332 21.9773 169.158 21.9773C168.783 21.9773 168.446 22.0587 168.146 22.2216C167.851 22.3807 167.618 22.6023 167.447 22.8864C167.277 23.1705 167.192 23.4981 167.192 23.8693V29H165.135ZM171.479 29V20.2727H173.445V21.7557H173.547C173.729 21.2557 174.03 20.8655 174.45 20.5852C174.871 20.3011 175.373 20.1591 175.956 20.1591C176.547 20.1591 177.045 20.303 177.45 20.5909C177.859 20.875 178.147 21.2633 178.314 21.7557H178.405C178.598 21.2708 178.924 20.8845 179.382 20.5966C179.844 20.3049 180.392 20.1591 181.024 20.1591C181.827 20.1591 182.482 20.4129 182.99 20.9205C183.498 21.428 183.751 22.1686 183.751 23.142V29H181.689V23.4602C181.689 22.9186 181.545 22.5227 181.257 22.2727C180.969 22.0189 180.617 21.892 180.2 21.892C179.704 21.892 179.316 22.0473 179.036 22.358C178.759 22.6648 178.621 23.0644 178.621 23.5568V29H176.604V23.375C176.604 22.9242 176.467 22.5644 176.195 22.2955C175.926 22.0265 175.573 21.892 175.138 21.892C174.842 21.892 174.573 21.9678 174.331 22.1193C174.089 22.267 173.895 22.4773 173.751 22.75C173.607 23.0189 173.536 23.3333 173.536 23.6932V29H171.479Z" fill="white"/>
</g>
<defs>
<filter id="filter0_d_3_28" x="0" y="0" width="308" height="48" filterUnits="userSpaceOnUse" color-interpolation-filters="sRGB">
<feFlood flood-opacity="0" result="BackgroundImageFix"/>
<feColorMatrix in="SourceAlpha" type="matrix" values="0 0 0 0 0 0 0 0 0 0 0 0 0 0 0 0 0 0 127 0" result="hardAlpha"/>
<feOffset dy="1"/>
<feGaussianBlur stdDeviation="1"/>
<feColorMatrix type="matrix" values="0 0 0 0 0.0627451 0 0 0 0 0.0941176 0 0 0 0 0.156863 0 0 0 0.05 0"/>
<feBlend mode="normal" in2="BackgroundImageFix" result="effect1_dropShadow_3_28"/>
<feBlend mode="normal" in="SourceGraphic" in2="effect1_dropShadow_3_28" result="shape"/>
</filter>
</defs>
</svg>
